<svg width="24" height="24" xmlns="http://www.w3.org/2000/svg" xmlns:svg="http://www.w3.org/2000/svg">
  <path id="block2" d="m0.07638,22.83549c0,0 6.74192,-13.85065 6.74192,-13.85065c0,0 5.17691,13.8877 5.17691,13.8877c0,0 -11.91883,-0.03705 -11.91883,-0.03705z" stroke-linecap="null" stroke-linejoin="null" stroke-dasharray="null" stroke-width="null" fill="#000000"/>
  <path id="block1" d="m1.266,0.98818c0,0 0.05631,13.62787 0.05631,13.62787c0,0 1.52046,0 1.52046,0c0,0 3.94195,-8.16546 3.94195,-8.16546c0,0 3.20987,8.10915 3.20987,8.10915c0,0 7.0955,0 7.0955,0c0,0 0,-13.51524 0,-13.51524c0,0 -15.8241,-0.05631 -15.8241,-0.05631z" stroke-linecap="null" stroke-linejoin="null" stroke-dasharray="null" stroke-width="null" fill="#000000"/>
  <path id="block3" d="m11.10209,15.57339c0,0 6.87025,0.03754 6.87025,0.03754c0,0 0,-9.79855 0,-9.79855c0,0 2.4074,-0.04224 4.11088,2.25254c1.91466,1.74572 3.17381,7.73255 -2.34052,10.49191c-5.80734,2.18919 -8.34027,-2.15751 -8.64061,-2.98344z" stroke-linecap="null" stroke-linejoin="null" stroke-dasharray="null" stroke-width="null" fill="#000000"/>
</svg>