<svg width="24" height="24" xmlns="http://www.w3.org/2000/svg" xmlns:svg="http://www.w3.org/2000/svg">
  <path stroke-width="0" stroke="#000000" fill="#000000" id="brick" d="m9.916,8.195l-0.013,0l0,0.961c-0.034,1.598 4.213,1.601 4.161,0l0,-0.96c-0.123,-1.511 -4.042,-1.52 -4.148,-0.001zm2.08,0.71c-0.723,0 -1.311,-0.253 -1.311,-0.564c0,-0.312 0.588,-0.564 1.311,-0.564c0.724,0 1.311,0.253 1.311,0.564c0,0.311 -0.587,0.564 -1.311,0.564zm6.421,-2.155l0,-0.96c-0.124,-1.511 -4.042,-1.52 -4.148,-0.001l-0.013,0l0,0.961c-0.034,1.599 4.214,1.602 4.161,0zm-2.067,-1.379c0.723,0 1.311,0.253 1.311,0.564s-0.589,0.565 -1.311,0.565c-0.724,0 -1.311,-0.253 -1.311,-0.564s0.587,-0.565 1.311,-0.565zm-10.797,0.418l-0.013,0l0,0.961c-0.034,1.598 4.213,1.601 4.161,0l0,-0.96c-0.123,-1.511 -4.042,-1.519 -4.148,-0.001zm2.08,0.711c-0.723,0 -1.311,-0.253 -1.311,-0.564s0.588,-0.565 1.311,-0.565c0.724,0 1.311,0.253 1.311,0.564s-0.588,0.565 -1.311,0.565zm2.283,-2.988l-0.013,0.201l0,0.759c-0.034,1.598 4.214,1.602 4.161,0l0,-0.959c-0.124,-1.512 -4.042,-1.52 -4.148,-0.001zm3.392,0.145c0,0.311 -0.588,0.564 -1.311,0.564c-0.724,0 -1.311,-0.253 -1.311,-0.564s0.587,-0.564 1.311,-0.564c0.723,0 1.311,0.253 1.311,0.564zm-1.308,-3.657l-11,6l0.009,0.019l-0.009,-0.005l0,12.118l11,5.868l11,-5.869l0,-12.055l-11,-6.076zm-1,21l-8,-4.268l0,-7.133l8,4.401l0,7zm-8.885,-14.464l9.882,-5.396l9.917,5.458l-9.896,5.385l-9.903,-5.447zm10.885,7.464l8,-4.353l0,7.085l-8,4.268l0,-7z"/>
</svg>