<svg width="24" height="24" xmlns="http://www.w3.org/2000/svg" xmlns:svg="http://www.w3.org/2000/svg">
  <path stroke-width="0" fill="#000000" id="brush1" d="m17.831,7.672c1.096,-1.096 2.875,-1.865 3.688,-3.106c0.892,-1.362 0.508,-3.192 -0.851,-4.085c-1.362,-0.892 -3.187,-0.508 -4.081,0.854c-0.842,1.286 -0.801,3.322 -1.433,4.779c-0.817,1.882 -3.553,2.116 -6.698,0.474c-1.727,3.352 -4.075,6.949 -6.456,9.874l2.263,1.484c1.018,-0.174 2.279,-1.059 2.792,-2.03c-0.04,1.167 -0.478,2.2 -1.337,2.983l4.275,2.797c0.546,-0.544 1.054,-0.976 1.616,-1.345c-0.319,0.643 -0.532,1.324 -0.63,1.99l2.532,1.659c1.5,-2.884 4.416,-7.343 6.455,-9.874c-2.82,-2.272 -3.657,-4.936 -2.135,-6.454zm1.762,-5.545c0.454,0.296 0.58,0.908 0.281,1.36c-0.294,0.457 -0.905,0.582 -1.356,0.286c-0.456,-0.297 -0.582,-0.906 -0.284,-1.36c0.295,-0.455 0.905,-0.583 1.359,-0.286zm-3.959,15.037l-8.225,-5.386l1.616,-2.469l8.221,5.387l-1.612,2.468z"/>
</svg>