<svg width="24" height="24" xmlns="http://www.w3.org/2000/svg" xmlns:svg="http://www.w3.org/2000/svg">
  <path stroke-width="0" fill="#000000" id="bucket1" d="m24,19.007c0,-3.167 -1.409,-6.771 -2.835,-9.301l-0.006,-0.01l-0.014,-0.026c-0.732,-1.392 -1.914,-3.052 -3.619,-4.757c-2.976,-2.976 -5.476,-3.912 -6.785,-3.913c-0.413,0 -0.708,0.094 -0.859,0.245l-0.654,0.654c-1.898,-0.236 -3.42,0.105 -4.294,0.982c-0.876,0.875 -1.164,2.159 -0.792,3.524c0.242,0.893 0.807,1.891 1.752,2.836c0.867,0.867 2.062,1.684 3.615,2.327c0.488,-0.839 1.654,-1.019 2.359,-0.315c0.586,0.586 0.584,1.533 -0.002,2.119s-1.533,0.589 -2.121,0c-0.229,-0.229 -0.366,-0.515 -0.416,-0.812c-1.646,-0.657 -3.066,-1.534 -4.144,-2.612c-0.728,-0.728 -1.289,-1.528 -1.664,-2.349l-2.835,2.832c-0.445,0.447 -0.685,1.064 -0.686,1.82c0.001,1.635 1.122,3.915 3.714,6.506c2.764,2.764 5.58,4.243 7.431,4.243c0.649,0 1.181,-0.195 1.548,-0.562l8.086,-8.079c0.911,0.875 -0.777,3.541 -0.777,4.65c0,1.104 0.896,1.999 2,1.998c1.104,0 1.998,-0.895 1.998,-2zm-18.912,-12.974c-0.236,-0.978 -0.05,-1.845 0.554,-2.444c0.526,-0.53 1.471,-0.791 2.656,-0.761l-3.21,3.205zm9.138,2.341l-0.03,-0.029c-1.29,-1.291 -3.802,-4.354 -3.095,-5.062c0.715,-0.715 3.488,1.521 5.062,3.095c0.862,0.863 2.088,2.248 2.938,3.459c-1.718,-1.073 -3.493,-1.469 -4.875,-1.463zm-3.875,12.348c-0.547,-0.082 -1.5,-0.547 -1.9,-0.928l7.086,-7.086c0.351,0.37 1.264,0.931 1.753,1.075l-6.939,6.939z"/>
</svg>