<svg width="24" height="24" xmlns="http://www.w3.org/2000/svg" xmlns:svg="http://www.w3.org/2000/svg">
  <path stroke-width="0" stroke="#000000" fill="#000000" id="copy" d="m15.143,13.244l0.837,-2.244l2.698,5.641l-5.678,2.502l0.805,-2.23s-8.055,-3.538 -7.708,-10.913c2.715,5.938 9.046,7.244 9.046,7.244zm8.857,-7.244l0,18l-18,0l0,-6l-6,0l0,-18l18,0l0,6l6,0zm-2,2l-12.112,0c-0.562,-0.578 -1.08,-1.243 -1.521,-2l7.633,0l0,-4l-14,0l0,14l4,0l0,-3.124c0.6,0.961 1.287,1.823 2,2.576l0,6.548l14,0l0,-14z"/>
</svg>