<svg width="24" height="24" xmlns="http://www.w3.org/2000/svg" xmlns:svg="http://www.w3.org/2000/svg">
  <path stroke-width="0" stroke="#000000" fill="#000000" id="cut" d="m12.026,14.116c-3.475,1.673 -7.504,3.619 -8.484,4.09c-1.848,0.889 -3.542,-1.445 -3.542,-1.445l8.761,-4.226l3.265,1.581zm7.93,6.884c-0.686,0 -1.393,-0.154 -2.064,-0.479c-1.943,-0.941 -2.953,-3.001 -2.498,-4.854c0.26,-1.057 -0.296,-1.201 -1.145,-1.612l-14.189,-6.866s1.7,-2.329 3.546,-1.436c1.134,0.549 5.689,2.747 9.614,4.651l0.985,-0.474c0.85,-0.409 1.406,-0.552 1.149,-1.609c-0.451,-1.855 0.564,-3.913 2.51,-4.848c0.669,-0.321 1.373,-0.473 2.054,-0.473c2.311,0 4.045,1.696 4.045,3.801c0,1.582 -0.986,3.156 -2.613,3.973c-1.625,0.816 -2.765,0.18 -4.38,0.965l-0.504,0.245l0.552,0.27c1.613,0.789 2.754,0.156 4.377,0.976c1.624,0.819 2.605,2.392 2.605,3.97c0,2.108 -1.739,3.8 -4.044,3.8zm-2.555,-12.815c0.489,1.022 1.876,1.378 3.092,0.793c1.217,-0.584 1.809,-1.893 1.321,-2.916c-0.489,-1.022 -1.876,-1.379 -3.093,-0.794s-1.808,1.894 -1.32,2.917zm-3.643,3.625c0,-0.414 -0.335,-0.75 -0.75,-0.75c-0.414,0 -0.75,0.336 -0.75,0.75s0.336,0.75 0.75,0.75s0.75,-0.336 0.75,-0.75zm6.777,3.213c-1.215,-0.588 -2.604,-0.236 -3.095,0.786c-0.491,1.022 0.098,2.332 1.313,2.919c1.215,0.588 2.603,0.235 3.094,-0.787c0.492,-1.021 -0.097,-2.33 -1.312,-2.918z"/>
</svg>