<svg width="170" height="170" version="1.1" viewBox="0 0 159.375 159.375" xmlns="http://www.w3.org/2000/svg"><g transform="translate(0 -892.99)"><path d="m19.717 894.21h119.94c10.248 0 18.499 8.2505 18.499 18.499v119.94c0 10.248-8.2505 18.499-18.499 18.499h-119.94c-10.248 0-18.499-8.2505-18.499-18.499v-119.94c0-10.248 8.2505-18.499 18.499-18.499z" fill="#008000" stroke="#008000" stroke-linecap="round" stroke-linejoin="round" stroke-width="2.4365"/><g transform="matrix(2.3796 0 0 2.7149 -63.246 748.3)" fill="#fff" stroke-width="1px" aria-label="C"><path d="m48.927 94.182q-4.0527 0-7.4951-1.1963-3.418-1.1963-5.8838-3.5645-2.4658-2.3682-3.833-5.9082-1.3428-3.54-1.3428-8.1787 0-4.3213 1.2939-7.8369 1.2939-3.5156 3.7598-6.0303 2.3682-2.417 5.8594-3.7354 3.5156-1.3184 7.666-1.3184 2.2949 0 4.126.26856 1.8555.24414 3.418.65918 1.6357.46387 2.9541 1.0498 1.3428.56152 2.3438 1.0498v8.8135h-1.0742q-.68359-.58594-1.7334-1.3916-1.0254-.80566-2.3438-1.5869-1.3428-.78125-2.9053-1.3184-1.5625-.53711-3.3447-.53711-1.9775 0-3.7598.63476-1.7822.61035-3.2959 2.0508-1.4404 1.3916-2.3438 3.6865-.87891 2.2949-.87891 5.5664 0 3.418.95215 5.7129.97656 2.2949 2.4414 3.6133 1.4893 1.3428 3.3203 1.9287 1.8311.56152 3.6133.56152 1.709 0 3.3691-.5127 1.6846-.5127 3.1006-1.3916 1.1963-.70801 2.2217-1.5137t1.6846-1.3916h.97656v8.6914q-1.3672.61035-2.6123 1.1475-1.2451.53711-2.6123.92774-1.7822.5127-3.3447.78125t-4.2969.26856z"/></g><g transform="scale(.89877 1.1126)" fill="#fff" aria-label="Z"><path d="m167.66 935.36h-67.254v-14.999l39.89-49.567h-37.954v-15.483h63.168v15.268l-39.836 49.298h41.986z" stroke-width=".99609px"/></g></g></svg>
