<svg width="159.375" height="159.375" xmlns="http://www.w3.org/2000/svg" xmlns:svg="http://www.w3.org/2000/svg">
  <path id="svg_2" stroke-width="2.4365" stroke-linejoin="round" stroke-linecap="round" stroke="#008000" fill="#008000" d="m19.717,1.22001l119.94,0c10.248,0 18.499,8.2505 18.499,18.499l0,119.94c0,10.248 -8.2505,18.499 -18.499,18.499l-119.94,0c-10.248,0 -18.499,-8.2505 -18.499,-18.499l0,-119.94c0,-10.248 8.2505,-18.499 18.499,-18.499z"/>
  <path fill="#ffffff" id="svg_4" d="m53.18069,111.00471q-9.6438,0 -17.83534,-3.24783q-8.13347,-3.24783 -14.00109,-9.67726q-5.86762,-6.42943 -9.12101,-16.04017q-3.19533,-9.61075 -3.19533,-22.20435q0,-11.7319 3.07896,-21.2764q3.07896,-9.5445 8.94682,-16.37166q5.63537,-6.56191 13.94303,-10.14124q8.36572,-3.57932 18.24201,-3.57932q5.46094,0 9.81823,0.72911q4.41535,0.66282 8.13347,1.78961q3.89231,1.25936 7.02958,2.8501q3.19533,1.52447 5.57731,2.8501l0,23.92777l-2.55617,0q-1.62667,-1.59077 -4.1248,-3.77805q-2.44004,-2.18729 -5.57731,-4.30827q-3.19533,-2.12102 -6.91345,-3.57932q-3.71812,-1.4582 -7.95905,-1.4582q-4.70566,0 -8.94682,1.72331q-4.24092,1.65704 -7.84292,5.56772q-3.42758,3.77805 -5.57731,10.00848q-2.09145,6.23042 -2.09145,15.11222q0,9.27953 2.26574,15.50995q2.32382,6.23042 5.80956,9.80975q3.54394,3.64557 7.90099,5.23623q4.35729,1.52447 8.59821,1.52447q4.06674,0 8.01711,-1.39193q4.00867,-1.39193 7.37819,-3.77805q2.84672,-1.92218 5.28676,-4.10954t4.00867,-3.77805l2.32382,0l0,23.59628q-3.25339,1.65704 -6.21623,3.11535q-2.96284,1.4582 -6.21623,2.51872q-4.24092,1.39193 -7.95905,2.12102t-10.2249,0.72911l0,0.00038z"/>
  <path fill="#ffffff" id="svg_6" stroke-width="0.99609px" d="m150.68777,147.69152l-60.44588,0l0,-16.68789l35.85193,-55.14824l-34.11192,0l0,-17.22639l56.7735,0l0,16.98718l-35.8034,54.84895l37.73576,0l0,17.22639z"/>
</svg>