<svg width="24" height="24" xmlns="http://www.w3.org/2000/svg" xmlns:svg="http://www.w3.org/2000/svg">
<path fill="#000000" id="edit1" d="m7,22l0,-2l6,0l0,2l-6,0zm7.311,-7.662l9.689,-9.804l-4.536,-4.534l-9.69,9.802l4.537,4.536zm-7.311,-6.338l1.743,0l1.978,-2l-3.721,0l0,2zm11,8l2,0l0,-4.573l-2,2.023l0,2.55zm-9.576,-4.718l-1.424,5.718l5.826,-1.318l-4.402,-4.4zm-6.424,-1.282l0,-2l3,0l0,-2l-5,0l0,4l2,0zm16,8l0,2l-3,0l0,2l5,0l0,-4l-2,0zm-13,2l-3,0l0,-2l-2,0l0,4l5,0l0,-2zm-5,-4l2,0l0,-4l-2,0l0,4z"/>
</svg>