<svg width="24" height="24" xmlns="http://www.w3.org/2000/svg" xmlns:svg="http://www.w3.org/2000/svg">
<path fill="#000000" id="find1" d="m16.871,3.312c-0.282,-0.764 -1.01,-1.312 -1.871,-1.312c-1.298,0 -2.314,1.244 -1.904,2.582c1.111,-0.395 2.346,-1.102 3.775,-1.27zm7.129,13.688c0,2.761 -2.238,5 -5,5c-4.039,0 -4.156,-4.123 -7,-4.123c-2.844,0 -2.961,4.123 -7,4.123c-2.762,0 -5,-2.239 -5,-5c0,-2.135 1.896,-6.417 3.941,-10.821c1.632,-3.514 4.754,-1.26 6.815,-0.585c0.781,0.256 1.654,0.272 2.486,0c2.061,-0.674 5.188,-2.931 6.815,0.585c1.999,4.315 3.943,8.686 3.943,10.821zm-16,0c0,-1.654 -1.346,-3 -3,-3s-3,1.346 -3,3s1.346,3 3,3s3,-1.346 3,-3zm5,-2c0,-0.552 -0.447,-1 -1,-1c-0.553,0 -1,0.448 -1,1s0.447,1 1,1c0.553,0 1,-0.448 1,-1zm9,2c0,-1.654 -1.346,-3 -3,-3s-3,1.346 -3,3s1.346,3 3,3s3,-1.346 3,-3zm-13,-15c-0.861,0 -1.589,0.548 -1.871,1.312c1.429,0.168 2.664,0.875 3.775,1.27c0.409,-1.338 -0.606,-2.582 -1.904,-2.582z"/>
</svg>