<svg width="24" height="24" xmlns="http://www.w3.org/2000/svg" xmlns:svg="http://www.w3.org/2000/svg">
  <path stroke-width="0" fill="#000000" id="font1" d="m24,20l0,1l-4,0l0,-1l0.835,0c0.258,0 0.405,-0.178 0.321,-0.422l-0.473,-1.371l-2.231,0l-0.575,-1.59l2.295,0l-1.362,-4.077l-1.154,3.451l-0.879,-2.498l0.921,-2.493l2.222,0l3.033,8.516c0.111,0.315 0.244,0.484 0.578,0.484l0.469,0zm-6,-1l1,0l0,2l-7,0l0,-2l0.532,0c0.459,0 0.782,-0.453 0.633,-0.887l-0.816,-2.113l-6.232,0l-0.815,2.113c-0.149,0.434 0.174,0.887 0.633,0.887l1.065,0l0,2l-7,0l0,-2l0.43,0c0.593,0 1.123,-0.375 1.32,-0.935l5.507,-15.065l3.952,0l5.507,15.065c0.197,0.56 0.69,0.935 1.284,0.935zm-10.886,-6l4.238,0l-2.259,-6.199l-1.979,6.199z"/>
</svg>