<svg width="24" height="24" xmlns="http://www.w3.org/2000/svg" xmlns:svg="http://www.w3.org/2000/svg">
  <path stroke-width="0" fill="#000000" id="freeze1" d="m23.93847,14.55922l-3.51496,0.97948l3.11599,1.75748l-0.97948,1.73753l-3.11599,-1.75748l0.97948,3.51496l-1.92106,0.53463l-1.5161,-5.43403l-4.01967,-2.24623l0,3.86806l3.98974,3.98974l-1.41037,1.41037l-2.57937,-2.57937l0,3.57681l-1.99487,0l0,-3.57681l-2.57937,2.57937l-1.41037,-1.41037l3.98974,-3.98974l0,-3.86806l-4.01967,2.24623l-1.5181,5.43403l-1.92106,-0.53463l0.97948,-3.51496l-3.11599,1.75948l-0.97948,-1.73753l3.11599,-1.75748l-3.51297,-0.98148l0.53662,-1.91907l5.43603,1.5161l3.95384,-2.21431l-3.95583,-2.21231l-5.43403,1.51411l-0.53662,-1.91907l3.51496,-0.97948l-3.11799,-1.75948l0.97948,-1.73753l3.11599,1.75748l-0.97749,-3.51496l1.92106,-0.53662l1.5161,5.43603l4.01967,2.25022l0,-3.87005l-3.98974,-3.98974l1.41037,-1.41037l2.57937,2.57937l0,-3.57681l1.99487,0l0,3.57681l2.57937,-2.57937l1.41037,1.41037l-3.98974,3.98974l0,3.87005l4.02166,-2.24822l1.5161,-5.43603l1.92106,0.53662l-0.98148,3.51297l3.11599,-1.75748l0.97948,1.73753l-3.11599,1.75748l3.51496,0.98148l-0.53662,1.91907l-5.43603,-1.5161l-3.95384,2.21431l3.95384,2.21231l5.43603,-1.5161l0.53662,1.92106z"/>
</svg>