<svg width="24" height="24" xmlns="http://www.w3.org/2000/svg" xmlns:svg="http://www.w3.org/2000/svg">
  <path stroke-width="0" fill="#000000" id="gear1" d="m24,13.616l0,-3.232c-1.651,-0.587 -2.694,-0.752 -3.219,-2.019l0,-0.001c-0.527,-1.271 0.1,-2.134 0.847,-3.707l-2.285,-2.285c-1.561,0.742 -2.433,1.375 -3.707,0.847l-0.001,0c-1.269,-0.526 -1.435,-1.576 -2.019,-3.219l-3.232,0c-0.582,1.635 -0.749,2.692 -2.019,3.219l-0.001,0c-1.271,0.528 -2.132,-0.098 -3.707,-0.847l-2.285,2.285c0.745,1.568 1.375,2.434 0.847,3.707c-0.527,1.271 -1.584,1.438 -3.219,2.02l0,3.232c1.632,0.58 2.692,0.749 3.219,2.019c0.53,1.282 -0.114,2.166 -0.847,3.707l2.285,2.286c1.562,-0.743 2.434,-1.375 3.707,-0.847l0.001,0c1.27,0.526 1.436,1.579 2.019,3.219l3.232,0c0.582,-1.636 0.75,-2.69 2.027,-3.222l0.001,0c1.262,-0.524 2.12,0.101 3.698,0.851l2.285,-2.286c-0.744,-1.563 -1.375,-2.433 -0.848,-3.706c0.527,-1.271 1.588,-1.44 3.221,-2.021zm-12,2.384c-2.209,0 -4,-1.791 -4,-4s1.791,-4 4,-4s4,1.791 4,4s-1.791,4 -4,4z"/>
</svg>