<svg width="24" height="24" xmlns="http://www.w3.org/2000/svg" xmlns:svg="http://www.w3.org/2000/svg">
  <path stroke-width="0" fill="#000000" id="hand1" d="m20.825,12c-0.228,0.59 -3.052,6.998 -3.772,8.614c-0.756,1.695 -2.229,3.386 -4.951,3.386l-4.729,0c-2.865,0 -4.373,-1.7 -4.373,-4.673l0,-12.975c0,-1.721 2.37,-1.633 2.37,-0.08l0,5.689c0,0.468 0.858,0.465 0.858,0l0,-9.142c0,-1.769 2.65,-1.722 2.65,0l0,8.63c0,0.476 0.797,0.456 0.797,-0.01l0,-10.128c0,-1.722 2.624,-1.773 2.624,0l0.001,10.245c0,0.459 0.826,0.469 0.826,0l0,-8.604c0,-1.629 2.873,-1.679 2.873,0l0,9.75c0,0.597 0.587,0.692 0.811,0.236c0.212,-0.433 1.089,-2.368 1.1,-2.389c0.883,-1.849 3.832,-0.726 2.915,1.451z"/>
</svg>