<svg width="24" height="24" xmlns="http://www.w3.org/2000/svg" xmlns:svg="http://www.w3.org/2000/svg">
  <path stroke-width="0" fill="#000000" id="help" d="m14.601,21.5c0,1.38 -1.116,2.5 -2.499,2.5c-1.378,0 -2.499,-1.12 -2.499,-2.5s1.121,-2.5 2.499,-2.5c1.383,0 2.499,1.119 2.499,2.5zm-2.42,-21.5c-4.029,0 -7.06,2.693 -7.06,8l3.955,0c0,-2.304 0.906,-4.189 3.024,-4.189c1.247,0 2.57,0.828 2.684,2.411c0.123,1.666 -0.767,2.511 -1.892,3.582c-2.924,2.78 -2.816,4.049 -2.816,7.196l3.943,0c0,-1.452 -0.157,-2.508 1.838,-4.659c1.331,-1.436 2.986,-3.222 3.021,-5.943c0.047,-3.963 -2.751,-6.398 -6.697,-6.398z"/>
</svg>