<svg width="24" height="24" xmlns="http://www.w3.org/2000/svg" xmlns:svg="http://www.w3.org/2000/svg">
  <path stroke-width="0" stroke="#000000" fill="#000000" id="info" d="m12,0c-6.627,0 -12,5.373 -12,12s5.373,12 12,12s12,-5.373 12,-12s-5.373,-12 -12,-12zm-2.033,16.01c0.564,-1.789 1.632,-3.932 1.821,-4.474c0.273,-0.787 -0.211,-1.136 -1.74,0.209l-0.34,-0.64c1.744,-1.897 5.335,-2.326 4.113,0.613c-0.763,1.835 -1.309,3.074 -1.621,4.03c-0.455,1.393 0.694,0.828 1.819,-0.211c0.153,0.25 0.203,0.331 0.356,0.619c-2.498,2.378 -5.271,2.588 -4.408,-0.146zm4.742,-8.169c-0.532,0.453 -1.32,0.443 -1.761,-0.022c-0.441,-0.465 -0.367,-1.208 0.164,-1.661c0.532,-0.453 1.32,-0.442 1.761,0.022c0.439,0.466 0.367,1.209 -0.164,1.661z"/>
</svg>