<svg width="24" height="24" xmlns="http://www.w3.org/2000/svg" xmlns:svg="http://www.w3.org/2000/svg">
  <path stroke-width="0" fill="#000000" id="no_eye1" d="m11.885,14.988l3.104,-3.098l0.011,0.11c0,1.654 -1.346,3 -3,3l-0.115,-0.012zm8.048,-8.032l-3.274,3.268c0.212,0.554 0.341,1.149 0.341,1.776c0,2.757 -2.243,5 -5,5c-0.631,0 -1.229,-0.13 -1.785,-0.344l-2.377,2.372c1.276,0.588 2.671,0.972 4.177,0.972c7.733,0 11.985,-8.449 11.985,-8.449s-1.415,-2.478 -4.067,-4.595zm1.431,-3.536l-18.619,18.58l-1.382,-1.422l3.455,-3.447c-3.022,-2.45 -4.818,-5.58 -4.818,-5.58s4.446,-7.551 12.015,-7.551c1.825,0 3.456,0.426 4.886,1.075l3.081,-3.075l1.382,1.42zm-13.751,10.922l1.519,-1.515c-0.077,-0.264 -0.132,-0.538 -0.132,-0.827c0,-1.654 1.346,-3 3,-3c0.291,0 0.567,0.055 0.833,0.134l1.518,-1.515c-0.704,-0.382 -1.496,-0.619 -2.351,-0.619c-2.757,0 -5,2.243 -5,5c0,0.852 0.235,1.641 0.613,2.342z"/>
</svg>