<svg width="24" height="24" xmlns="http://www.w3.org/2000/svg" xmlns:svg="http://www.w3.org/2000/svg">
  <path stroke-width="0" stroke="#000000" fill="#000000" id="svg_1" d="m17.391,3l2.609,2.808l0,7.736c0,4.106 -6,2.456 -6,2.456s1.518,6 -2.638,6l-7.362,0l0,-16.192l2.666,-2.808l-4.666,0l0,21l20,0l0,-21l-4.609,0zm2.609,19l-3.824,0c1.377,-1.103 2.751,-2.51 3.824,-3.865l0,3.865zm-14.297,-15l12.651,0l-3.312,-3.569l0,-0.41c0.001,-1.668 -1.352,-3.021 -3.021,-3.021c-1.667,0 -3.021,1.332 -3.021,3l0.001,0.431l-3.298,3.569zm6.297,-5c0.553,0 1,0.448 1,1s-0.447,1 -1,1s-1,-0.448 -1,-1s0.447,-1 1,-1z"/>
</svg>