<svg width="24" height="24" xmlns="http://www.w3.org/2000/svg" xmlns:svg="http://www.w3.org/2000/svg">
  <path fill="#000000" id="piece1" d="m2.479,18c0.978,0 1.309,-0.524 1.708,-0.922c0.813,-0.816 1.813,-0.469 1.813,0.847l0,6.075l6.075,0c1.315,0 1.663,-1 0.847,-1.813c-0.398,-0.399 -0.922,-0.73 -0.922,-1.708c0,-1.087 1.108,-2.479 3,-2.479s3,1.392 3,2.479c0,0.978 -0.524,1.309 -0.922,1.708c-0.816,0.813 -0.469,1.813 0.847,1.813l6.075,0l0,-6.075c0,-1.315 -1,-1.663 -1.813,-0.847c-0.399,0.398 -0.73,0.922 -1.708,0.922c-1.087,0 -2.479,-1.108 -2.479,-3s1.392,-3 2.479,-3c0.978,0 1.309,0.524 1.708,0.922c0.813,0.816 1.813,0.469 1.813,-0.847l0,-6.075l-6.075,0c-1.315,0 -1.663,-1 -0.847,-1.813c0.398,-0.399 0.922,-0.73 0.922,-1.708c0,-1.087 -1.108,-2.479 -3,-2.479s-3,1.392 -3,2.479c0,0.978 0.524,1.309 0.922,1.708c0.816,0.813 0.469,1.813 -0.847,1.813l-6.075,0l0,6.075c0,1.315 -1,1.663 -1.813,0.847c-0.399,-0.398 -0.73,-0.922 -1.708,-0.922c-1.087,0 -2.479,1.108 -2.479,3s1.392,3 2.479,3z"/>
</svg>