<svg width="24" height="24" xmlns="http://www.w3.org/2000/svg" xmlns:svg="http://www.w3.org/2000/svg">
  <path stroke-width="0" fill="#000000" id="piece_p1" d="m12.816,24l-10.816,0l0,-6.075c0,-1.315 1,-1.663 1.813,-0.847c0.399,0.398 0.73,0.922 1.708,0.922c1.087,0 2.479,-1.108 2.479,-3s-1.392,-3 -2.479,-3c-0.979,0 -1.31,0.524 -1.708,0.922c-0.813,0.816 -1.813,0.469 -1.813,-0.847l0,-6.075l6.075,0c1.315,0 1.663,-1 0.847,-1.813c-0.398,-0.399 -0.922,-0.73 -0.922,-1.708c0,-1.087 1.108,-2.479 3,-2.479s3,1.392 3,2.479c0,0.978 -0.524,1.309 -0.922,1.708c-0.816,0.813 -0.469,1.813 0.847,1.813l6.075,0l0,7.5c-0.77,-0.321 -1.614,-0.5 -2.5,-0.5c-3.59,0 -6.5,2.91 -6.5,6.5c0,1.748 0.693,3.332 1.816,4.5zm9.184,-4.5c0,2.485 -2.017,4.5 -4.5,4.5s-4.5,-2.015 -4.5,-4.5s2.017,-4.5 4.5,-4.5s4.5,2.015 4.5,4.5zm-2,-0.5l-2,0l0,-2l-1,0l0,2l-2,0l0,1l2,0l0,2l1,0l0,-2l2,0l0,-1z"/>
</svg>