<svg width="24" height="24" xmlns="http://www.w3.org/2000/svg" xmlns:svg="http://www.w3.org/2000/svg">
  <path stroke-width="0" stroke="#000000" fill="#000000" id="svg_1" d="m24,5l-4,0l0,-5l-16,0l0,5l-4,0l0,13l4,0l0,6l9.519,0c2.947,0 6.029,-3.577 6.434,-6l4.047,0l0,-13zm-18,-3l12,0l0,3l-12,0l0,-3zm8.691,16.648s1.469,3.352 -2,3.352l-6.691,0l0,-8l12,0l0,2.648c0,3.594 -3.309,2 -3.309,2zm6.809,-10.648c-0.276,0 -0.5,-0.224 -0.5,-0.5s0.224,-0.5 0.5,-0.5s0.5,0.224 0.5,0.5s-0.224,0.5 -0.5,0.5zm-5.5,9l-8,0l0,-1l8,0l0,1zm-3,1l-5,0l0,1l5,0l0,-1z"/>
</svg>