<svg width="24" height="24" xmlns="http://www.w3.org/2000/svg" xmlns:svg="http://www.w3.org/2000/svg">
  <path stroke-width="0" fill="#000000" id="puzzle1" d="m12,13l0,4.05c0,0.877 -0.667,1.108 -1.209,0.564c-0.266,-0.264 -0.486,-0.614 -1.139,-0.614c-0.724,0 -1.652,0.739 -1.652,2s0.928,2 1.652,2c0.652,0 0.873,-0.35 1.139,-0.615c0.542,-0.544 1.209,-0.312 1.209,0.565l0,3.05l-12,0l0,-11l4.55,0c0.933,0 1.356,-0.575 1.356,-1.109c0,-0.463 -0.25,-0.773 -0.564,-1.075c-0.221,-0.207 -0.342,-0.32 -0.342,-0.664c0,-0.47 0.534,-1.152 1.5,-1.152s1.5,0.682 1.5,1.152c0,0.344 -0.121,0.457 -0.342,0.663c-0.314,0.302 -0.564,0.612 -0.564,1.075c0,0.535 0.424,1.11 1.356,1.11l3.55,0zm2.185,-6.341c0.206,0.22 0.319,0.341 0.663,0.341c0.47,0 1.152,-0.534 1.152,-1.5s-0.682,-1.5 -1.152,-1.5c-0.344,0 -0.457,0.121 -0.663,0.341c-0.3,0.313 -0.612,0.565 -1.075,0.565c-0.535,0.001 -1.11,-0.424 -1.11,-1.356l0,-3.55l-12,0l0,12l4.55,0c0.533,0 0.441,-0.137 0.108,-0.454c-0.262,-0.245 -0.658,-0.616 -0.658,-1.394c0,-1.039 1.004,-2.152 2.5,-2.152s2.5,1.113 2.5,2.152c0,0.777 -0.396,1.148 -0.658,1.394c-0.331,0.315 -0.428,0.454 0.108,0.454l3.55,0l0,-4.55c0,-0.932 0.575,-1.357 1.109,-1.357c0.463,0 0.774,0.252 1.076,0.566zm-1.185,-6.659l0,3.55c0,0.533 0.137,0.442 0.454,0.109c0.245,-0.263 0.616,-0.659 1.394,-0.659c1.039,0 2.152,1.004 2.152,2.5s-1.113,2.5 -2.152,2.5c-0.777,0 -1.148,-0.396 -1.394,-0.659c-0.317,-0.331 -0.454,-0.425 -0.454,0.109l0,4.55l3.05,0c0.877,0 1.109,0.667 0.564,1.209c-0.264,0.266 -0.614,0.486 -0.614,1.138c0,0.725 0.739,1.653 2,1.653s2,-0.928 2,-1.653c0,-0.652 -0.35,-0.873 -0.614,-1.138c-0.545,-0.542 -0.313,-1.209 0.564,-1.209l4.05,0l0,-12l-11,0z"/>
</svg>