<svg width="24" height="24" xmlns="http://www.w3.org/2000/svg" xmlns:svg="http://www.w3.org/2000/svg">
  <path stroke-width="0" fill="#000000" id="ruler1" d="m18.342,0l-2.469,2.47l2.121,2.121l-0.707,0.707l-2.121,-2.121l-1.414,1.414l1.414,1.414l-0.707,0.707l-1.414,-1.414l-1.414,1.414l1.414,1.414l-0.707,0.707l-1.414,-1.414l-1.414,1.414l2.121,2.122l-0.707,0.707l-2.121,-2.121l-1.414,1.414l1.414,1.414l-0.708,0.707l-1.414,-1.414l-1.414,1.414l1.414,1.414l-0.708,0.709l-1.414,-1.414l-1.414,1.413l2.121,2.121l-0.706,0.706l-2.122,-2.121l-2.438,2.439l5.656,5.657l18.344,-18.343l-5.658,-5.657z"/>
</svg>