<svg width="24" height="24" xmlns="http://www.w3.org/2000/svg" xmlns:svg="http://www.w3.org/2000/svg">
  <path stroke-width="0" fill="#000000" id="style1" d="m4,21.832c4.587,0.38 2.944,-4.493 7.188,-4.538l1.838,1.534c0.458,5.538 -6.315,6.773 -9.026,3.004zm14.065,-7.115c1.427,-2.239 5.847,-9.749 5.847,-9.749c0.352,-0.623 -0.43,-1.273 -0.976,-0.813c0,0 -6.572,5.714 -8.511,7.525c-1.532,1.432 -1.539,2.086 -2.035,4.447l1.68,1.4c2.227,-0.915 2.868,-1.039 3.995,-2.81zm-11.999,3.876c0.666,-1.134 1.748,-2.977 4.447,-3.262c0.434,-2.087 0.607,-3.3 2.547,-5.112c1.373,-1.282 4.938,-4.409 7.021,-6.229c-1,-2.208 -4.141,-4.023 -8.178,-3.99c-6.624,0.055 -11.956,5.465 -11.903,12.092c0.023,2.911 1.081,5.571 2.82,7.635c1.618,0.429 2.376,0.348 3.246,-1.134zm6.952,-15.835c1.102,-0.006 2.005,0.881 2.016,1.983c0.004,1.103 -0.882,2.009 -1.986,2.016c-1.105,0.009 -2.008,-0.88 -2.014,-1.984c-0.013,-1.106 0.876,-2.006 1.984,-2.015zm-5.997,2.001c1.102,-0.01 2.008,0.877 2.012,1.983c0.012,1.106 -0.88,2.005 -1.98,2.016c-1.106,0.007 -2.009,-0.881 -2.016,-1.988c-0.009,-1.103 0.877,-2.004 1.984,-2.011zm-2.003,5.998c1.106,-0.007 2.01,0.882 2.016,1.985c0.01,1.104 -0.88,2.008 -1.986,2.015c-1.105,0.008 -2.005,-0.88 -2.011,-1.985c-0.011,-1.105 0.879,-2.004 1.981,-2.015zm10.031,8.532c0.021,2.239 -0.882,3.718 -1.682,4.587l-0.046,0.044c5.255,-0.591 9.062,-4.304 6.266,-7.889c-1.373,2.047 -2.534,2.442 -4.538,3.258z"/>
</svg>