<svg width="24" height="24" xmlns="http://www.w3.org/2000/svg" xmlns:svg="http://www.w3.org/2000/svg">
  <path stroke-width="0" fill="#000000" id="sun1" d="m4.069,13l-4.069,0l0,-2l4.069,0c-0.041,0.328 -0.069,0.661 -0.069,1s0.028,0.672 0.069,1zm3.034,-7.312l-2.881,-2.881l-1.414,1.414l2.881,2.881c0.411,-0.529 0.885,-1.003 1.414,-1.414zm11.209,1.414l2.881,-2.881l-1.414,-1.414l-2.881,2.881c0.528,0.411 1.002,0.886 1.414,1.414zm-6.312,-3.102c0.339,0 0.672,0.028 1,0.069l0,-4.069l-2,0l0,4.069c0.328,-0.041 0.661,-0.069 1,-0.069zm0,16c-0.339,0 -0.672,-0.028 -1,-0.069l0,4.069l2,0l0,-4.069c-0.328,0.041 -0.661,0.069 -1,0.069zm7.931,-9c0.041,0.328 0.069,0.661 0.069,1s-0.028,0.672 -0.069,1l4.069,0l0,-2l-4.069,0zm-3.033,7.312l2.88,2.88l1.415,-1.414l-2.88,-2.88c-0.412,0.528 -0.886,1.002 -1.415,1.414zm-11.21,-1.415l-2.88,2.88l1.414,1.414l2.88,-2.88c-0.528,-0.411 -1.003,-0.885 -1.414,-1.414zm2.312,-4.897c0,2.206 1.794,4 4,4s4,-1.794 4,-4s-1.794,-4 -4,-4s-4,1.794 -4,4zm10,0c0,3.314 -2.686,6 -6,6s-6,-2.686 -6,-6s2.686,-6 6,-6s6,2.686 6,6z"/>
</svg>