<svg width="24" height="24" xmlns="http://www.w3.org/2000/svg" xmlns:svg="http://www.w3.org/2000/svg">
  <path stroke-width="0" fill="#000000" id="symbol1" d="m12,0c-5.459,0 -10.103,3.87 -9.998,9.886c0.112,6.428 5.998,9.226 5.998,12.114l-5,0l0,1.958l7.938,0c0.062,-2.979 0.001,-3.913 -1.575,-5.772c-1.614,-1.903 -4.029,-4.473 -4.363,-8.076c-0.334,-3.595 2.691,-7.11 7,-7.11s7.334,3.515 7,7.11c-0.334,3.603 -2.749,6.173 -4.362,8.077c-1.576,1.859 -1.638,2.793 -1.638,5.813l8,0l0,-2l-5,0c0,-2.888 5.886,-5.686 5.998,-12.114c0.105,-6.016 -4.539,-9.886 -9.998,-9.886z"/>
</svg>