<svg width="24" height="24" xmlns="http://www.w3.org/2000/svg" xmlns:svg="http://www.w3.org/2000/svg">
  <path stroke-width="0" fill="#000000" id="tag1" d="m10.605,0l-10.604,0l0,10.609l13.39,13.391l10.609,-10.605l-13.395,-13.395zm-7.019,6.414c-0.781,-0.782 -0.781,-2.047 0,-2.828c0.782,-0.781 2.048,-0.781 2.828,-0.002c0.782,0.783 0.782,2.048 0,2.83c-0.781,0.781 -2.046,0.781 -2.828,0zm6.823,8.947l-4.243,-4.242l0.708,-0.708l4.243,4.243l-0.708,0.707zm4.949,0.707l-7.07,-7.071l0.707,-0.707l7.071,7.071l-0.708,0.707zm2.121,-2.121l-7.071,-7.071l0.707,-0.707l7.071,7.071l-0.707,0.707z"/>
</svg>