<svg width="24" height="24" xmlns="http://www.w3.org/2000/svg" xmlns:svg="http://www.w3.org/2000/svg">
<path fill="#000000" id="tag_e1" d="m21.51021,14.55441l-4.47693,6.4233l-15.03328,0.02229l0,-12l6.743,0l1.978,-2l-10.721,0l0,16c6.66667,0 11.47968,0.00587 18.14634,0.00587c1.91466,-2.84621 3.82932,-5.69241 5.74398,-8.53862l-2.54819,-3.1747l-1.4184,1.39989l1.58648,1.86197zm-2.03721,-10.71941l1.707,1.707l-9.281,9.378l-2.23,0.472l0.512,-2.169l9.292,-9.388zm-0.008,-2.835l-11.104,11.216l-1.361,5.784l5.898,-1.248l11.103,-11.218l-4.536,-4.534z"/>
</svg>