<svg width="24" height="24" xmlns="http://www.w3.org/2000/svg" xmlns:svg="http://www.w3.org/2000/svg">
  <path stroke-width="0" stroke="#000000" id="text4" d="m0.49638,22.29413c0,0 6.65615,-20.50484 6.61312,-20.54891c-0.04303,-0.04407 3.84655,0.04407 3.84655,0.04407c0,0 6.60333,20.50484 6.60333,20.50484c0,0 -3.01112,0 -3.05415,-0.04407c-0.04303,-0.04407 -1.33046,-4.33823 -1.37349,-4.3823c-0.04303,-0.04407 -8.3564,0.04407 -8.3564,0.04407c0,0 -1.42631,4.49051 -1.42631,4.49051c0,0 -2.85264,-0.10821 -2.85264,-0.10821l-0.00001,0zm8.50169,-17.78115c0,0 -3.48655,10.9828 -3.48655,10.9828c0,0 6.86746,0 6.86746,0c0,0 -3.38091,-10.9828 -3.38091,-10.9828z" stroke-linecap="null" stroke-linejoin="null" stroke-dasharray="null" fill="#000000"/>
  <line id="text1" y2="22.42414" x2="20.82556" y1="1.90422" x1="20.82556" stroke-linecap="null" stroke-linejoin="null" stroke-dasharray="null" stroke="#000000" fill="none"/>
  <line id="text2" y2="1.42907" x2="23.67291" y1="1.42907" x1="21.30774" stroke-linecap="null" stroke-linejoin="null" stroke-dasharray="null" stroke="#000000" fill="none"/>
  <line id="text3" y2="1.41147" x2="20.35041" y1="1.41147" x1="17.98524" stroke-linecap="null" stroke-linejoin="null" stroke-dasharray="null" stroke="#000000" fill="none"/>
  <line id="text5" y2="22.83349" x2="23.66939" y1="22.83349" x1="21.30422" stroke-linecap="null" stroke-linejoin="null" stroke-dasharray="null" stroke="#000000" fill="none"/>
  <line id="text6" y2="22.81589" x2="20.34689" y1="22.81589" x1="17.98172" stroke-linecap="null" stroke-linejoin="null" stroke-dasharray="null" stroke="#000000" fill="none"/>
</svg>