<svg width="24" height="24" xmlns="http://www.w3.org/2000/svg" xmlns:svg="http://www.w3.org/2000/svg">
  <path stroke="#000000" fill="#000000" stroke-dasharray="null" stroke-linejoin="null" stroke-linecap="null" d="m0.05995,13.01825c0,0 4.16833,-12.84091 4.14139,-12.8685c-0.02695,-0.0276 2.40886,0.0276 2.40886,0.0276c0,0 4.13526,12.84091 4.13526,12.84091c0,0 -1.88568,0 -1.91263,-0.0276c-0.02695,-0.0276 -0.83318,-2.71677 -0.86014,-2.74436c-0.02695,-0.0276 -5.2331,0.0276 -5.2331,0.0276c0,0 -0.89321,2.81212 -0.89321,2.81212c0,0 -1.78642,-0.06777 -1.78642,-0.06777l0,0l-0.00001,0.00001zm5.32407,-11.13522c0,0 -2.1834,6.87784 -2.1834,6.87784c0,0 4.30066,0 4.30066,0c0,0 -2.11725,-6.87784 -2.11725,-6.87784l-0.00001,0z" id="text_e4" stroke-width="0"/>
  <path id="text_e34" d="m3.86111,14.12894c1.00308,4.01937 3.87068,6.12674 7.83461,5.59615l-2.03119,-2.47885" stroke-linecap="null" stroke-linejoin="null" stroke-dasharray="null" stroke-width="2" fill="none" stroke="#000000"/>
  <path stroke="#000000" fill="#000000" stroke-width="0" stroke-dasharray="null" stroke-linejoin="null" stroke-linecap="null" d="m15.11238,10.88974c0,0 0.03956,12.73585 0.03956,12.73585c0,0 3.50038,0.01978 3.50038,0.01978c0,0 4.54852,-0.13843 4.82539,-3.12464c0.27686,-2.9862 -1.65625,-3.60916 -2.76372,-3.62893c-1.10747,-0.01977 2.38796,0.38563 2.36819,-2.95654c-0.01977,-3.34217 -3.87612,-3.02575 -3.89161,-3.04123c-0.01547,-0.01547 -4.07819,-0.0043 -4.07819,-0.0043zm1.77986,1.48322c0,0 0.01978,3.99478 0.01978,3.99478c0,0 1.85896,0 1.85896,0c0,0 2.29403,0.03956 2.45224,-2.01717c0.15821,-2.05672 -2.43246,-1.99739 -2.43246,-1.99739c0,0 -1.89851,0.01978 -1.89851,0.01978zm-0.01978,5.41867c0,0 0.01978,4.39031 0.01978,4.39031c0,0 2.01727,0 2.00169,-0.01548c-0.01557,-0.01547 2.62593,0.15966 2.78414,-2.04124c0.15821,-2.2009 -2.65001,-2.33358 -2.65001,-2.33358c0,0 -2.1556,0 -2.1556,0z" fill-rule="evenodd" id="text_e6"/>
</svg>