<svg width="24" height="24" xmlns="http://www.w3.org/2000/svg" xmlns:svg="http://www.w3.org/2000/svg">
  <path stroke-width="0" fill="#000000" id="tool1" d="m23.269,19.743l-11.945,-11.945c-0.557,-0.557 -0.842,-1.33 -0.783,-2.115c0.115,-1.485 -0.395,-3.009 -1.529,-4.146c-1.03,-1.028 -2.376,-1.537 -3.723,-1.537c-0.507,0 -1.015,0.072 -1.505,0.216l3.17,3.17c0.344,1.589 -1.959,3.918 -3.567,3.567l-3.169,-3.17c-0.145,0.492 -0.218,1 -0.218,1.509c0,1.347 0.51,2.691 1.538,3.721c1.135,1.136 2.66,1.645 4.146,1.53c0.783,-0.06 1.557,0.226 2.113,0.783l11.946,11.944c0.468,0.468 1.102,0.73 1.763,0.73c1.368,0 2.494,-1.108 2.494,-2.494c0,-0.638 -0.244,-1.276 -0.731,-1.763zm-1.769,2.757c-0.553,0 -1,-0.448 -1,-1s0.447,-1 1,-1c0.553,0 1,0.448 1,1s-0.447,1 -1,1zm-7.935,-15.289l5.327,-5.318c0.584,-0.585 1.348,-0.878 2.113,-0.878c0.764,0 1.529,0.292 2.113,0.878c0.589,0.587 0.882,1.357 0.882,2.125c0,0.764 -0.291,1.528 -0.873,2.11l-5.326,5.318l-4.236,-4.235zm-3.53,9.18l-5.227,5.185c-0.227,0.23 -0.423,0.488 -0.574,0.774l-0.301,0.58l-2.1,1.07l-0.833,-0.834l1.025,-2.146l0.58,-0.302c0.286,-0.15 0.561,-0.329 0.79,-0.558l5.227,-5.185l1.413,1.416z"/>
</svg>