<svg width="24" height="24" xmlns="http://www.w3.org/2000/svg" xmlns:svg="http://www.w3.org/2000/svg">
  <path stroke-width="0" id="trash1" fill="#000000" d="m19,24l-14,0c-1.104,0 -2,-0.896 -2,-2l0,-16l18,0l0,16c0,1.104 -0.896,2 -2,2m-9,-14c0,-0.552 -0.448,-1 -1,-1s-1,0.448 -1,1l0,9c0,0.552 0.448,1 1,1s1,-0.448 1,-1l0,-9zm6,0c0,-0.552 -0.448,-1 -1,-1s-1,0.448 -1,1l0,9c0,0.552 0.448,1 1,1s1,-0.448 1,-1l0,-9zm6,-5l-20,0l0,-2l6,0l0,-1.5c0,-0.827 0.673,-1.5 1.5,-1.5l5,0c0.825,0 1.5,0.671 1.5,1.5l0,1.5l6,0l0,2zm-12,-2l4,0l0,-1l-4,0l0,1z"/>
</svg>