<svg width="24" height="24" xmlns="http://www.w3.org/2000/svg" xmlns:svg="http://www.w3.org/2000/svg">
  <path stroke-width="0" fill="#000000" id="zoom_w1" d="m21.172,24l-7.387,-7.387c-1.388,0.874 -3.024,1.387 -4.785,1.387c-4.971,0 -9,-4.029 -9,-9s4.029,-9 9,-9s9,4.029 9,9c0,1.761 -0.514,3.398 -1.387,4.785l7.387,7.387l-2.828,2.828zm-12.172,-8c3.859,0 7,-3.14 7,-7s-3.141,-7 -7,-7s-7,3.14 -7,7s3.141,7 7,7z"/>
  <rect opacity="0.6" stroke="#000000" id="zoom_w2" height="8.40949" width="9.08525" y="4.86255" x="4.4615" stroke-linecap="null" stroke-linejoin="null" stroke-dasharray="null" fill="none"/>
</svg>