<svg width="24" height="24" xmlns="http://www.w3.org/2000/svg" xmlns:svg="http://www.w3.org/2000/svg">
  <path stroke-width="0" fill="#000000" id="zoom_a1" d="m6.75425,12.00515l1.75635,1.89422l-4.52937,0l0,-4.52937l1.89484,1.75697l5.26905,-5.27029l-1.75635,-1.89422l4.52937,0l0,4.52875l-1.89484,-1.75635l-5.26905,5.27029z"/>
  <path id="zoom_a2" stroke-width="0" fill="#000000" d="m21.17791,24.00683l-7.387,-7.387c-1.388,0.874 -3.024,1.387 -4.785,1.387c-4.971,0 -9,-4.029 -9,-9s4.029,-9 9,-9s9,4.029 9,9c0,1.761 -0.514,3.398 -1.387,4.785l7.387,7.387l-2.828,2.828zm-12.172,-8c3.859,0 7,-3.14 7,-7s-3.141,-7 -7,-7s-7,3.14 -7,7s3.141,7 7,7z"/>
</svg>