999
CadZinho - Minimalist CAD by Zecruel
0
SECTION
2
HEADER
9
$ACADVER
1
AC1021
9
$HANDSEED
5
3D
9
$INSUNITS
70
4
9
$LWDISPLAY
290
1
0
ENDSEC
0
SECTION
2
CLASSES
0
ENDSEC
0
SECTION
2
TABLES
0
TABLE
2
VPORT
5
1
100
AcDbSymbolTable
70
1000
0
VPORT
5
25
100
AcDbSymbolTableRecord
100
AcDbViewportTableRecord
2
*ACTIVE
70
0
10
0
20
0
11
1
21
1
12
20
22
320
13
0
23
0
14
100
24
100
15
100
25
100
16
0
26
0
36
1
17
0
27
0
37
0
40
25
41
1.8
42
50
43
0
44
0
50
0
51
0
0
ENDTAB
0
TABLE
2
LTYPE
5
4
100
AcDbSymbolTable
70
1000
0
LTYPE
5
5
100
AcDbSymbolTableRecord
100
AcDbLinetypeTableRecord
2
ByBlock
70
0
3

72
65
73
0
40
0
0
LTYPE
5
6
100
AcDbSymbolTableRecord
100
AcDbLinetypeTableRecord
2
ByLayer
70
0
3

72
65
73
0
40
0
0
LTYPE
5
7
100
AcDbSymbolTableRecord
100
AcDbLinetypeTableRecord
2
Continuous
70
0
3
___________________________________
72
65
73
0
40
0
0
LTYPE
5
8
100
AcDbSymbolTableRecord
100
AcDbLinetypeTableRecord
2
Border
70
0
3
____ . ____ ____ . ____ ____ . ____
72
65
73
6
40
1.75
49
0.5
74
0
49
-0.25
74
0
49
0.5
74
0
49
-0.25
74
0
49
0
74
0
49
-0.25
74
0
0
LTYPE
5
9
100
AcDbSymbolTableRecord
100
AcDbLinetypeTableRecord
2
Center
70
0
3
____ _ ____ _ ____ _ ____ _ ____ _
72
65
73
4
40
2
49
1.25
74
0
49
-0.25
74
0
49
0.25
74
0
49
-0.25
74
0
0
LTYPE
5
A
100
AcDbSymbolTableRecord
100
AcDbLinetypeTableRecord
2
Dashdot
70
0
3
____ . ____ . ____ . ____ . ____ .
72
65
73
4
40
1
49
0.5
74
0
49
-0.25
74
0
49
0
74
0
49
-0.25
74
0
0
LTYPE
5
B
100
AcDbSymbolTableRecord
100
AcDbLinetypeTableRecord
2
Dashed
70
0
3
____ ____ ____ ____ ____ ____ ____
72
65
73
2
40
0.75
49
0.5
74
0
49
-0.25
74
0
0
LTYPE
5
C
100
AcDbSymbolTableRecord
100
AcDbLinetypeTableRecord
2
Divide
70
0
3
____ . . ____ . . ____ . . ____ . .
72
65
73
6
40
1.25
49
0.5
74
0
49
-0.25
74
0
49
0
74
0
49
-0.25
74
0
49
0
74
0
49
-0.25
74
0
0
LTYPE
5
D
100
AcDbSymbolTableRecord
100
AcDbLinetypeTableRecord
2
Dot
70
0
3
. . . . . . . . . . . . . . . . . .
72
65
73
2
40
0.25
49
0
74
0
49
-0.25
74
0
0
LTYPE
5
E
100
AcDbSymbolTableRecord
100
AcDbLinetypeTableRecord
2
Hidden
70
0
3
__ __ __ __ __ __ __ __ __ __ __ __
72
65
73
2
40
0.375
49
0.25
74
0
49
-0.125
74
0
0
LTYPE
5
F
100
AcDbSymbolTableRecord
100
AcDbLinetypeTableRecord
2
Phantom
70
0
3
_____ _ _ _____ _ _ _____ _ _ _____
72
65
73
6
40
2.5
49
1.25
74
0
49
-0.25
74
0
49
0.25
74
0
49
-0.25
74
0
49
0.25
74
0
49
-0.25
74
0
0
ENDTAB
0
TABLE
2
LAYER
5
10
100
AcDbSymbolTable
70
1000
0
LAYER
5
11
100
AcDbSymbolTableRecord
100
AcDbLayerTableRecord
2
0
70
0
62
7
6
Continuous
370
0
390
2B
0
ENDTAB
0
TABLE
2
STYLE
5
12
100
AcDbSymbolTable
70
1000
0
STYLE
5
13
100
AcDbSymbolTableRecord
100
AcDbTextStyleTableRecord
2
Standard
70
0
40
0
41
1
50
0
71
0
42
1
3
TXT.SHX
4

0
STYLE
5
24
100
AcDbSymbolTableRecord
100
AcDbTextStyleTableRecord
2

70
1
40
0
41
1
50
0
71
0
42
1
3
LTYPESHP.SHX
4

0
ENDTAB
0
TABLE
2
VIEW
5
14
100
AcDbSymbolTable
70
0
0
ENDTAB
0
TABLE
2
UCS
5
15
100
AcDbSymbolTable
70
0
0
ENDTAB
0
TABLE
2
APPID
5
16
100
AcDbSymbolTable
70
10
0
APPID
5
17
100
AcDbSymbolTableRecord
100
AcDbRegAppTableRecord
2
ACAD
70
0
0
APPID
5
18
100
AcDbSymbolTableRecord
100
AcDbRegAppTableRecord
2
CADZINHO
70
0
0
ENDTAB
0
TABLE
2
DIMSTYLE
5
19
100
AcDbSymbolTable
70
1
100
AcDbDimStyleTable
71
1
0
DIMSTYLE
105
1A
100
AcDbSymbolTableRecord
100
AcDbDimStyleTableRecord
2
Standard
70
0
3
<>
5
OPEN30
40
1
41
1
42
0.5
44
1
140
1
144
1
147
0.5
77
1
271
2
340
13
0
ENDTAB
0
TABLE
2
BLOCK_RECORD
5
1B
100
AcDbSymbolTable
70
9999
0
BLOCK_RECORD
5
1C
100
AcDbSymbolTableRecord
100
AcDbBlockTableRecord
2
*Model_Space
70
0
0
BLOCK_RECORD
5
1D
100
AcDbSymbolTableRecord
100
AcDbBlockTableRecord
2
*Paper_Space
70
0
0
ENDTAB
0
ENDSEC
0
SECTION
2
BLOCKS
0
BLOCK
5
1E
100
AcDbEntity
8
0
100
AcDbBlockBegin
2
*Model_Space
70
0
10
0
20
0
30
0
3
*Model_Space
1

0
ENDBLK
5
1F
100
AcDbEntity
8
0
100
AcDbBlockEnd
0
BLOCK
5
20
100
AcDbEntity
8
0
100
AcDbBlockBegin
2
*Paper_Space
70
0
10
0
20
0
30
0
3
*Paper_Space
1

0
ENDBLK
5
21
100
AcDbEntity
8
0
100
AcDbBlockEnd
0
ENDSEC
0
SECTION
2
ENTITIES
0
LWPOLYLINE
5
31
100
AcDbEntity
67
0
8
0
6
ByLayer
62
255
370
-1
100
AcDbPolyline
90
10
70
1
10
11.1885
20
13.7693
30
0
42
0
10
15.8498
20
13.7477
30
0
42
0
10
14.4471
20
15.1504
30
0
42
-1.4
10
17.948
20
16.7158
30
0
42
0
10
16.2592
20
16.7158
30
0
42
0.5
10
15.6306
20
15.9964
30
0
42
0
10
17.9523
20
13.6486
30
0
42
0.15
10
19.041
20
13.1175
30
0
42
-0.6
10
17.8463
20
9.48145
30
0
42
0
10
14.2166
20
9.48145
30
0
42
-0.4
0
LWPOLYLINE
5
32
100
AcDbEntity
67
0
8
0
6
ByLayer
62
30
370
-1
100
AcDbPolyline
90
6
70
1
10
15.6306
20
15.9964
30
0
42
-0.5
10
16.2592
20
16.7158
30
0
42
0
10
20.9175
20
16.7158
30
0
42
-0.4
10
21.5445
20
16.007
30
0
42
0
10
21.5445
20
15.1619
30
0
42
-0.64
10
17.9523
20
13.6486
30
0
42
0
0
LWPOLYLINE
5
34
100
AcDbEntity
67
0
8
0
6
ByLayer
62
9
370
-1
100
AcDbPolyline
90
3
70
1
10
12.8746
20
13.0591
30
0
42
0
10
16.2726
20
13.0591
30
0
42
-0.85
10
16.3609
20
10.3272
30
0
42
-0.5
0
LWPOLYLINE
5
35
100
AcDbEntity
67
0
8
0
6
ByLayer
62
255
370
-1
100
AcDbPolyline
90
2
70
1
10
16.1291
20
17.2102
30
0
42
1
10
16.4191
20
17.204
30
0
42
1
0
HATCH
5
37
100
AcDbEntity
67
0
8
0
6
ByLayer
62
255
370
-1
100
AcDbHatch
10
0
20
0
30
0
210
0
220
0
230
1
2
SOLID
70
1
71
0
91
3
92
2
72
1
73
1
93
10
10
11.1885
20
13.7693
42
0
10
15.8498
20
13.7477
42
0
10
14.4471
20
15.1504
42
-1.4
10
17.948
20
16.7158
42
0
10
16.2592
20
16.7158
42
0.5
10
15.6306
20
15.9964
42
0
10
17.9523
20
13.6486
42
0.15
10
19.041
20
13.1175
42
-0.6
10
17.8463
20
9.48145
42
0
10
14.2166
20
9.48145
42
-0.4
97
0
92
2
72
1
73
1
93
3
10
12.8746
20
13.0591
42
0
10
16.2726
20
13.0591
42
-0.85
10
16.3609
20
10.3272
42
-0.5
97
0
92
2
72
1
73
1
93
2
10
16.1291
20
17.2102
42
1
10
16.4191
20
17.204
42
1
97
0
75
0
76
0
98
0
0
HATCH
5
38
100
AcDbEntity
67
0
8
0
6
ByLayer
62
30
370
-1
100
AcDbHatch
10
0
20
0
30
0
210
0
220
0
230
1
2
SOLID
70
1
71
0
91
1
92
2
72
1
73
1
93
6
10
15.6306
20
15.9964
42
-0.5
10
16.2592
20
16.7158
42
0
10
20.9175
20
16.7158
42
-0.4
10
21.5445
20
16.007
42
0
10
21.5445
20
15.1619
42
-0.64
10
17.9523
20
13.6486
42
0
97
0
75
0
76
0
98
0
0
HATCH
5
3A
100
AcDbEntity
67
0
8
0
6
ByLayer
62
9
370
-1
100
AcDbHatch
10
0
20
0
30
0
210
0
220
0
230
1
2
SOLID
70
1
71
0
91
1
92
2
72
1
73
1
93
3
10
12.8746
20
13.0591
42
0
10
16.2726
20
13.0591
42
-0.85
10
16.3609
20
10.3272
42
-0.5
97
0
75
0
76
0
98
0
0
HATCH
5
3B
100
AcDbEntity
67
0
8
0
6
ByLayer
62
8
370
-1
100
AcDbHatch
10
0
20
0
30
0
210
0
220
0
230
1
2
SOLID
70
1
71
0
91
1
92
2
72
1
73
1
93
2
10
16.1291
20
17.2102
42
1
10
16.4191
20
17.204
42
1
97
0
75
0
76
0
98
0
0
LINE
5
3C
100
AcDbEntity
67
0
8
0
6
ByLayer
62
7
370
-1
100
AcDbLine
10
15.6306
20
15.9964
30
0
11
21.5445
21
16.007
31
0
0
ENDSEC
0
SECTION
2
OBJECTS
0
DICTIONARY
5
22
100
AcDbDictionary
281
1
3
ACAD_COLOR
350
23
3
ACAD_GROUP
350
26
3
ACAD_LAYOUT
350
27
3
ACAD_MATERIAL
350
28
3
ACAD_MLINESTYLE
350
29
3
ACAD_PLOTSETTINGS
350
2A
3
ACAD_PLOTSTYLENAME
350
2B
3
ACAD_TABLESTYLE
350
2C
3
AcadDim
350
2D
0
DICTIONARY
5
23
100
AcDbDictionary
0
DICTIONARY
5
26
100
AcDbDictionary
0
DICTIONARY
5
27
100
AcDbDictionary
0
DICTIONARY
5
28
100
AcDbDictionary
0
DICTIONARY
5
29
100
AcDbDictionary
0
DICTIONARY
5
2A
100
AcDbDictionary
0
DICTIONARY
5
2B
100
AcDbDictionary
0
DICTIONARY
5
2C
100
AcDbDictionary
0
DICTIONARY
5
2D
100
AcDbDictionary
0
IMAGEDEF
5
2E
100
AcDbRasterImageDef
90
0
1
194055.png
0
ENDSEC
0
EOF
