999
CadZinho - Minimalist CAD by Zecruel
0
SECTION
2
HEADER
9
$ACADVER
1
AC1021
9
$HANDSEED
5
384A7
9
$INSUNITS
70
4
9
$LWDISPLAY
290
1
9
$LTSCALE
40
10
0
ENDSEC
0
SECTION
2
CLASSES
0
ENDSEC
0
SECTION
2
TABLES
0
TABLE
2
VPORT
5
1
100
AcDbSymbolTable
70
1000
0
VPORT
5
25
100
AcDbSymbolTableRecord
100
AcDbViewportTableRecord
2
*ACTIVE
70
0
10
0
20
0
11
1
21
1
12
20
22
320
13
0
23
0
14
100
24
100
15
100
25
100
16
0
26
0
36
1
17
0
27
0
37
0
40
25
41
1.8
42
50
43
0
44
0
50
0
51
0
0
ENDTAB
0
TABLE
2
LTYPE
5
4
100
AcDbSymbolTable
70
1000
0
LTYPE
5
5
100
AcDbSymbolTableRecord
100
AcDbLinetypeTableRecord
2
ByBlock
70
0
3

72
65
73
0
40
0
0
LTYPE
5
6
100
AcDbSymbolTableRecord
100
AcDbLinetypeTableRecord
2
ByLayer
70
0
3

72
65
73
0
40
0
0
LTYPE
5
7
100
AcDbSymbolTableRecord
100
AcDbLinetypeTableRecord
2
Continuous
70
0
3
___________________________________
72
65
73
0
40
0
0
LTYPE
5
8
100
AcDbSymbolTableRecord
100
AcDbLinetypeTableRecord
2
Border
70
0
3
____ . ____ ____ . ____ ____ . ____
72
65
73
6
40
1.75
49
0.5
74
0
49
-0.25
74
0
49
0.5
74
0
49
-0.25
74
0
49
0
74
0
49
-0.25
74
0
0
LTYPE
5
9
100
AcDbSymbolTableRecord
100
AcDbLinetypeTableRecord
2
Center
70
0
3
____ _ ____ _ ____ _ ____ _ ____ _
72
65
73
4
40
2
49
1.25
74
0
49
-0.25
74
0
49
0.25
74
0
49
-0.25
74
0
0
LTYPE
5
A
100
AcDbSymbolTableRecord
100
AcDbLinetypeTableRecord
2
Dashdot
70
0
3
____ . ____ . ____ . ____ . ____ .
72
65
73
4
40
1
49
0.5
74
0
49
-0.25
74
0
49
0
74
0
49
-0.25
74
0
0
LTYPE
5
B
100
AcDbSymbolTableRecord
100
AcDbLinetypeTableRecord
2
Dashed
70
0
3
____ ____ ____ ____ ____ ____ ____
72
65
73
2
40
0.75
49
0.5
74
0
49
-0.25
74
0
0
LTYPE
5
C
100
AcDbSymbolTableRecord
100
AcDbLinetypeTableRecord
2
Divide
70
0
3
____ . . ____ . . ____ . . ____ . .
72
65
73
6
40
1.25
49
0.5
74
0
49
-0.25
74
0
49
0
74
0
49
-0.25
74
0
49
0
74
0
49
-0.25
74
0
0
LTYPE
5
D
100
AcDbSymbolTableRecord
100
AcDbLinetypeTableRecord
2
Dot
70
0
3
. . . . . . . . . . . . . . . . . .
72
65
73
2
40
0.25
49
0
74
0
49
-0.25
74
0
0
LTYPE
5
E
100
AcDbSymbolTableRecord
100
AcDbLinetypeTableRecord
2
Hidden
70
0
3
__ __ __ __ __ __ __ __ __ __ __ __
72
65
73
2
40
0.375
49
0.25
74
0
49
-0.125
74
0
0
LTYPE
5
F
100
AcDbSymbolTableRecord
100
AcDbLinetypeTableRecord
2
Phantom
70
0
3
_____ _ _ _____ _ _ _____ _ _ _____
72
65
73
6
40
2.5
49
1.25
74
0
49
-0.25
74
0
49
0.25
74
0
49
-0.25
74
0
49
0.25
74
0
49
-0.25
74
0
0
ENDTAB
0
TABLE
2
LAYER
5
10
100
AcDbSymbolTable
70
1000
0
LAYER
5
11
100
AcDbSymbolTableRecord
100
AcDbLayerTableRecord
2
0
70
0
62
7
6
Continuous
370
0
390
2B
0
ENDTAB
0
TABLE
2
STYLE
5
12
100
AcDbSymbolTable
70
1000
0
STYLE
5
13
100
AcDbSymbolTableRecord
100
AcDbTextStyleTableRecord
2
Standard
70
0
40
0
41
1
50
0
71
0
42
1
3
TXT.SHX
4

0
STYLE
5
24
100
AcDbSymbolTableRecord
100
AcDbTextStyleTableRecord
2

70
1
40
0
41
1
50
0
71
0
42
1
3
LTYPESHP.SHX
4

0
ENDTAB
0
TABLE
2
VIEW
5
14
100
AcDbSymbolTable
70
0
0
ENDTAB
0
TABLE
2
UCS
5
15
100
AcDbSymbolTable
70
0
0
ENDTAB
0
TABLE
2
APPID
5
16
100
AcDbSymbolTable
70
10
0
APPID
5
17
100
AcDbSymbolTableRecord
100
AcDbRegAppTableRecord
2
ACAD
70
0
0
APPID
5
18
100
AcDbSymbolTableRecord
100
AcDbRegAppTableRecord
2
CADZINHO
70
0
0
APPID
5
4744
100
AcDbSymbolTableRecord
100
AcDbRegAppTableRecord
2
PELICANU
70
0
0
ENDTAB
0
TABLE
2
DIMSTYLE
5
19
100
AcDbSymbolTable
70
1
100
AcDbDimStyleTable
71
1
0
DIMSTYLE
105
1A
100
AcDbSymbolTableRecord
100
AcDbDimStyleTableRecord
2
Standard
70
0
3
<>
5
OPEN30
40
1
41
1
42
0.5
44
1
140
1
144
1
147
0.5
77
1
271
2
340
13
0
ENDTAB
0
TABLE
2
BLOCK_RECORD
5
1B
100
AcDbSymbolTable
70
9999
0
BLOCK_RECORD
5
1C
100
AcDbSymbolTableRecord
100
AcDbBlockTableRecord
2
*Model_Space
70
0
0
BLOCK_RECORD
5
1D
100
AcDbSymbolTableRecord
100
AcDbBlockTableRecord
2
*Paper_Space
70
0
0
BLOCK_RECORD
5
2E
100
AcDbSymbolTableRecord
100
AcDbBlockTableRecord
2
m_disj
70
0
0
BLOCK_RECORD
5
6714
100
AcDbSymbolTableRecord
100
AcDbBlockTableRecord
2
cont_na
70
0
0
BLOCK_RECORD
5
CBAF
100
AcDbSymbolTableRecord
100
AcDbBlockTableRecord
2
ct
70
0
0
BLOCK_RECORD
5
154BB
100
AcDbSymbolTableRecord
100
AcDbBlockTableRecord
2
diodo
70
0
0
BLOCK_RECORD
5
1D573
100
AcDbSymbolTableRecord
100
AcDbBlockTableRecord
2
bob
70
0
0
BLOCK_RECORD
5
293E3
100
AcDbSymbolTableRecord
100
AcDbBlockTableRecord
2
alim
70
0
0
BLOCK_RECORD
5
30586
100
AcDbSymbolTableRecord
100
AcDbBlockTableRecord
2
cont_nf_1
70
0
0
BLOCK_RECORD
5
3138A
100
AcDbSymbolTableRecord
100
AcDbBlockTableRecord
2
cont_na_1
70
0
0
BLOCK_RECORD
5
3292A
100
AcDbSymbolTableRecord
100
AcDbBlockTableRecord
2
b_sec
70
0
0
ENDTAB
0
ENDSEC
0
SECTION
2
BLOCKS
0
BLOCK
5
1E
100
AcDbEntity
8
0
100
AcDbBlockBegin
2
*Model_Space
70
0
10
0
20
0
30
0
3
*Model_Space
1

0
ENDBLK
5
1F
100
AcDbEntity
8
0
100
AcDbBlockEnd
0
BLOCK
5
20
100
AcDbEntity
8
0
100
AcDbBlockBegin
2
*Paper_Space
70
0
10
0
20
0
30
0
3
*Paper_Space
1

0
ENDBLK
5
21
100
AcDbEntity
8
0
100
AcDbBlockEnd
0
BLOCK
5
2F
330
2E
100
AcDbEntity
8
0
100
AcDbBlockBegin
2
m_disj
70
0
10
0
20
0
30
0
3
m_disj
1

4
componente PELICAnU m_disj
0
CIRCLE
5
30
100
AcDbEntity
67
0
8
0
6
ByBlock
62
0
370
-2
100
AcDbCircle
10
-9
20
6.12304e-016
30
0
40
1
1001
PELICANU
1000
62A37451000408F7
1000
TERMINAL
1000
T1
0
CIRCLE
5
31
100
AcDbEntity
67
0
8
0
6
ByBlock
62
0
370
-2
100
AcDbCircle
10
-1
20
2.44922e-016
30
0
40
1
1001
PELICANU
1000
62A374890006006A
1000
TERMINAL
1000
T2
0
LWPOLYLINE
5
32
100
AcDbEntity
67
0
8
0
6
ByBlock
62
0
370
-2
100
AcDbPolyline
90
2
70
0
10
-1
20
2
30
0
42
0.4
10
-9
20
2
30
0
0
ATTDEF
5
33
100
AcDbEntity
67
0
8
0
6
ByBlock
62
0
370
-2
100
AcDbText
10
-5
20
9.6
30
0
40
2.5
1
??
50
0
7
iso
72
1
11
-5
21
9.6
31
0
100
AcDbAttributeDefinition
3
value:
2
ID1
70
0
74
2
0
ATTDEF
5
34
100
AcDbEntity
67
0
8
0
6
ByBlock
62
0
370
-2
100
AcDbText
10
-5
20
5.6
30
0
40
2.5
1
??
50
0
7
iso
72
1
11
-5
21
5.6
31
0
100
AcDbAttributeDefinition
3
value:
2
ID2
70
0
74
2
0
ATTDEF
5
35
100
AcDbEntity
67
0
8
0
6
ByBlock
62
0
370
-2
100
AcDbText
10
-9
20
2
30
0
40
1
1
MOD
50
0
7
Standard
72
0
11
-9
21
2
31
0
100
AcDbAttributeDefinition
3
value:
2
MOD
70
1
74
2
0
ATTDEF
5
36
100
AcDbEntity
67
0
8
0
6
ByBlock
62
0
370
-2
100
AcDbText
10
-9
20
-1
30
0
40
1
1
FABR
50
0
7
Standard
72
0
11
-9
21
-1
31
0
100
AcDbAttributeDefinition
3
value:
2
FABR
70
1
74
2
0
ATTDEF
5
37
100
AcDbEntity
67
0
8
0
6
ByBlock
62
0
370
-2
100
AcDbText
10
-1
20
-3
30
0
40
2.5
1
2
50
0
7
iso
72
1
11
-1
21
-3
31
0
100
AcDbAttributeDefinition
3
value:
2
T2
70
0
74
2
0
ATTDEF
5
38
100
AcDbEntity
67
0
8
0
6
ByBlock
62
0
370
-2
100
AcDbText
10
-9
20
-3
30
0
40
2.5
1
1
50
0
7
iso
72
1
11
-9
21
-3
31
0
100
AcDbAttributeDefinition
3
value:
2
T1
70
0
74
2
0
ENDBLK
5
39
330
2F
100
AcDbEntity
8
0
100
AcDbBlockEnd
0
BLOCK
5
6715
330
6714
100
AcDbEntity
8
0
100
AcDbBlockBegin
2
cont_na
70
0
10
0
20
0
30
0
3
cont_na
1

4
componente PELICAnU cont_na
0
LINE
5
6716
100
AcDbEntity
67
0
8
0
6
ByBlock
62
0
370
-2
100
AcDbLine
10
-2
20
8
30
0
11
2
21
8
31
0
0
CIRCLE
5
6717
100
AcDbEntity
67
0
8
0
6
ByBlock
62
0
370
-2
100
AcDbCircle
10
1.83691e-016
20
17
30
0
40
1
1001
PELICANU
1000
62A37451000408F7
1000
TERMINAL
1000
T1
0
LINE
5
6718
100
AcDbEntity
67
0
8
0
6
ByBlock
62
0
370
-2
100
AcDbLine
10
-2
20
10
30
0
11
2
21
10
31
0
0
LINE
5
6719
100
AcDbEntity
67
0
8
0
6
ByBlock
62
0
370
-2
100
AcDbLine
10
1.60814e-016
20
10
30
0
11
-3.46927e-022
21
16
31
0
0
CIRCLE
5
671A
100
AcDbEntity
67
0
8
0
6
ByBlock
62
0
370
-2
100
AcDbCircle
10
1.83691e-016
20
1
30
0
40
1
1001
PELICANU
1000
62A374890006006A
1000
TERMINAL
1000
T2
0
LINE
5
671B
100
AcDbEntity
67
0
8
0
6
ByBlock
62
0
370
-2
100
AcDbLine
10
1.60814e-016
20
8
30
0
11
-3.46927e-022
21
2
31
0
0
ATTDEF
5
671C
100
AcDbEntity
67
0
8
0
6
ByBlock
62
0
370
-2
100
AcDbText
10
7.5
20
11
30
0
40
2.5
1
??
50
0
7
iso
72
1
11
7.5
21
11
31
0
100
AcDbAttributeDefinition
3
value:
2
ID1
70
0
74
2
0
ATTDEF
5
671D
100
AcDbEntity
67
0
8
0
6
ByBlock
62
0
370
-2
100
AcDbText
10
7.5
20
7
30
0
40
2.5
1
??
50
0
7
iso
72
1
11
7.5
21
7
31
0
100
AcDbAttributeDefinition
3
value:
2
ID2
70
0
74
2
0
ATTDEF
5
671E
100
AcDbEntity
67
0
8
0
6
ByBlock
62
0
370
-2
100
AcDbText
10
2
20
17
30
0
40
2
1
3
50
0
7
Standard
72
0
11
2
21
17
31
0
100
AcDbAttributeDefinition
3
value:
2
T1
70
0
74
2
0
ATTDEF
5
671F
100
AcDbEntity
67
0
8
0
6
ByBlock
62
0
370
-2
100
AcDbText
10
2
20
1
30
0
40
2
1
4
50
0
7
Standard
72
0
11
2
21
1
31
0
100
AcDbAttributeDefinition
3
value:
2
T2
70
0
74
2
0
ENDBLK
5
6720
330
6715
100
AcDbEntity
8
0
100
AcDbBlockEnd
0
BLOCK
5
CBB0
330
CBAF
100
AcDbEntity
8
0
100
AcDbBlockBegin
2
ct
70
0
10
0
20
0
30
0
3
ct
1

4
componente PELICAnU ct
0
CIRCLE
5
CBB1
100
AcDbEntity
67
0
8
0
6
ByBlock
62
0
370
-2
100
AcDbCircle
10
1.83691e-016
20
17
30
0
40
1
1001
PELICANU
1000
62A37451000408F7
1000
TERMINAL
1000
T1
0
CIRCLE
5
CBB2
100
AcDbEntity
67
0
8
0
6
ByBlock
62
0
370
-2
100
AcDbCircle
10
1.83691e-016
20
1
30
0
40
1
1001
PELICANU
1000
62A374890006006A
1000
TERMINAL
1000
T2
0
LINE
5
CBB3
100
AcDbEntity
67
0
8
0
6
ByBlock
62
0
370
-2
100
AcDbLine
10
-4.69266e-023
20
16
30
0
11
-3
21
1
31
0
0
ATTDEF
5
CBB4
100
AcDbEntity
67
0
8
0
6
ByBlock
62
0
370
-2
100
AcDbText
10
7.5
20
11
30
0
40
2.5
1
??
50
0
7
iso
72
1
11
7.5
21
11
31
0
100
AcDbAttributeDefinition
3
value:
2
ID1
70
0
74
2
0
ATTDEF
5
CBB5
100
AcDbEntity
67
0
8
0
6
ByBlock
62
0
370
-2
100
AcDbText
10
7.5
20
7
30
0
40
2.5
1
??
50
0
7
iso
72
1
11
7.5
21
7
31
0
100
AcDbAttributeDefinition
3
value:
2
ID2
70
0
74
2
0
ATTDEF
5
CBB6
100
AcDbEntity
67
0
8
0
6
ByBlock
62
0
370
-2
100
AcDbText
10
2
20
17
30
0
40
2
1
19
50
0
7
Standard
72
0
11
2
21
17
31
0
100
AcDbAttributeDefinition
3
value:
2
T1
70
0
74
2
0
ATTDEF
5
CBB7
100
AcDbEntity
67
0
8
0
6
ByBlock
62
0
370
-2
100
AcDbText
10
2
20
1
30
0
40
2
1
20
50
0
7
Standard
72
0
11
2
21
1
31
0
100
AcDbAttributeDefinition
3
value:
2
T2
70
0
74
2
0
ATTDEF
5
CBB8
100
AcDbEntity
67
0
8
0
6
ByBlock
62
0
370
-2
100
AcDbText
10
2
20
14
30
0
40
1
1
MOD
50
0
7
Standard
72
0
11
2
21
14
31
0
100
AcDbAttributeDefinition
3
value:
2
MOD
70
1
74
2
0
ATTDEF
5
CBB9
100
AcDbEntity
67
0
8
0
6
ByBlock
62
0
370
-2
100
AcDbText
10
2
20
4
30
0
40
1
1
FABR
50
0
7
Standard
72
0
11
2
21
4
31
0
100
AcDbAttributeDefinition
3
value:
2
FABR
70
1
74
2
0
ENDBLK
5
CBBA
330
CBB0
100
AcDbEntity
8
0
100
AcDbBlockEnd
0
BLOCK
5
154BC
330
154BB
100
AcDbEntity
8
0
100
AcDbBlockBegin
2
diodo
70
0
10
0
20
0
30
0
3
diodo
1

4
componente PELICAnU diodo
0
CIRCLE
5
154BD
100
AcDbEntity
67
0
8
0
6
ByBlock
62
0
370
-2
100
AcDbCircle
10
-9
20
3.67382e-016
30
0
40
1
1001
PELICANU
1000
62A37451000408F7
1000
TERMINAL
1000
T1
0
CIRCLE
5
154BE
100
AcDbEntity
67
0
8
0
6
ByBlock
62
0
370
-2
100
AcDbCircle
10
-1
20
0
30
0
40
1
1001
PELICANU
1000
62A374890006006A
1000
TERMINAL
1000
T2
0
LINE
5
154BF
100
AcDbEntity
67
0
8
0
6
ByBlock
62
0
370
-2
100
AcDbLine
10
-6.4641
20
-2
30
0
11
-6.4641
21
2
31
0
0
LINE
5
154C0
100
AcDbEntity
67
0
8
0
6
ByBlock
62
0
370
-2
100
AcDbLine
10
-6.4641
20
2
30
0
11
-3
21
2.33483e-016
31
0
0
LINE
5
154C1
100
AcDbEntity
67
0
8
0
6
ByBlock
62
0
370
-2
100
AcDbLine
10
-3
20
2.33483e-016
30
0
11
-6.4641
21
-2
31
0
0
LINE
5
154C2
100
AcDbEntity
67
0
8
0
6
ByBlock
62
0
370
-2
100
AcDbLine
10
-3
20
-2
30
0
11
-3
21
2
31
0
0
LINE
5
154C3
100
AcDbEntity
67
0
8
0
6
ByBlock
62
0
370
-2
100
AcDbLine
10
-8
20
3.67382e-016
30
0
11
-6.4641
21
1.99167e-016
31
0
0
LINE
5
154C4
100
AcDbEntity
67
0
8
0
6
ByBlock
62
0
370
-2
100
AcDbLine
10
-3
20
2.33483e-016
30
0
11
-2
21
0
31
0
0
ATTDEF
5
154C5
100
AcDbEntity
67
0
8
0
6
ByBlock
62
0
370
-2
100
AcDbText
10
-5
20
4.6
30
0
40
2.5
1
??
50
0
7
iso
72
1
11
-5
21
4.6
31
0
100
AcDbAttributeDefinition
3
value:
2
ID1
70
0
74
2
0
ATTDEF
5
154C6
100
AcDbEntity
67
0
8
0
6
ByBlock
62
0
370
-2
100
AcDbText
10
-9
20
2
30
0
40
1
1
MOD
50
0
7
Standard
72
0
11
-9
21
2
31
0
100
AcDbAttributeDefinition
3
value:
2
MOD
70
1
74
2
0
ATTDEF
5
154C7
100
AcDbEntity
67
0
8
0
6
ByBlock
62
0
370
-2
100
AcDbText
10
-9
20
-1
30
0
40
1
1
FABR
50
0
7
Standard
72
0
11
-9
21
-1
31
0
100
AcDbAttributeDefinition
3
value:
2
FABR
70
1
74
2
0
ATTDEF
5
154C8
100
AcDbEntity
67
0
8
0
6
ByBlock
62
0
370
-2
100
AcDbText
10
-1
20
-3
30
0
40
2.5
1
2
50
0
7
iso
72
1
11
-1
21
-3
31
0
100
AcDbAttributeDefinition
3
value:
2
T2
70
1
74
2
0
ATTDEF
5
154C9
100
AcDbEntity
67
0
8
0
6
ByBlock
62
0
370
-2
100
AcDbText
10
-9
20
-3
30
0
40
2.5
1
1
50
0
7
iso
72
1
11
-9
21
-3
31
0
100
AcDbAttributeDefinition
3
value:
2
T1
70
1
74
2
0
ENDBLK
5
154CA
330
154BC
100
AcDbEntity
8
0
100
AcDbBlockEnd
0
BLOCK
5
1D574
330
1D573
100
AcDbEntity
8
0
100
AcDbBlockBegin
2
bob
70
0
10
0
20
0
30
0
3
bob
1

4
componente PELICAnU bob
0
CIRCLE
5
1D575
100
AcDbEntity
67
0
8
0
6
ByBlock
62
0
370
-2
100
AcDbCircle
10
1.83691e-016
20
17
30
0
40
1
1001
PELICANU
1000
62A37451000408F7
1000
TERMINAL
1000
T1
0
CIRCLE
5
1D576
100
AcDbEntity
67
0
8
0
6
ByBlock
62
0
370
-2
100
AcDbCircle
10
1.83691e-016
20
1
30
0
40
1
1001
PELICANU
1000
62A374890006006A
1000
TERMINAL
1000
T2
0
LINE
5
1D577
100
AcDbEntity
67
0
8
0
6
ByBlock
62
0
370
-2
100
AcDbLine
10
-2
20
6
30
0
11
2
21
12
31
0
0
LINE
5
1D578
100
AcDbEntity
67
0
8
0
6
ByBlock
62
0
370
-2
100
AcDbLine
10
2
20
12
30
0
11
6.123e-017
21
12
31
0
0
LINE
5
1D579
100
AcDbEntity
67
0
8
0
6
ByBlock
62
0
370
-2
100
AcDbLine
10
-2
20
6
30
0
11
6.123e-017
21
6
31
0
0
LINE
5
1D57A
100
AcDbEntity
67
0
8
0
6
ByBlock
62
0
370
-2
100
AcDbLine
10
6.123e-017
20
6
30
0
11
6.123e-017
21
2
31
0
0
LINE
5
1D57B
100
AcDbEntity
67
0
8
0
6
ByBlock
62
0
370
-2
100
AcDbLine
10
6.123e-017
20
12
30
0
11
6.123e-017
21
16
31
0
0
ATTDEF
5
1D57C
100
AcDbEntity
67
0
8
0
6
ByBlock
62
0
370
-2
100
AcDbText
10
7.5
20
11
30
0
40
2.5
1
??
50
0
7
iso
72
1
11
7.5
21
11
31
0
100
AcDbAttributeDefinition
3
value:
2
ID1
70
0
74
2
0
ATTDEF
5
1D57D
100
AcDbEntity
67
0
8
0
6
ByBlock
62
0
370
-2
100
AcDbText
10
7.5
20
7
30
0
40
2.5
1
??
50
0
7
iso
72
1
11
7.5
21
7
31
0
100
AcDbAttributeDefinition
3
value:
2
ID2
70
0
74
2
0
ATTDEF
5
1D57E
100
AcDbEntity
67
0
8
0
6
ByBlock
62
0
370
-2
100
AcDbText
10
2
20
17
30
0
40
2
1
9
50
0
7
Standard
72
0
11
2
21
17
31
0
100
AcDbAttributeDefinition
3
value:
2
T1
70
0
74
2
0
ATTDEF
5
1D57F
100
AcDbEntity
67
0
8
0
6
ByBlock
62
0
370
-2
100
AcDbText
10
2
20
1
30
0
40
2
1
10
50
0
7
Standard
72
0
11
2
21
1
31
0
100
AcDbAttributeDefinition
3
value:
2
T2
70
0
74
2
0
ATTDEF
5
1D580
100
AcDbEntity
67
0
8
0
6
ByBlock
62
0
370
-2
100
AcDbText
10
2
20
14
30
0
40
1
1
MOD
50
0
7
Standard
72
0
11
2
21
14
31
0
100
AcDbAttributeDefinition
3
value:
2
MOD
70
1
74
2
0
ATTDEF
5
1D581
100
AcDbEntity
67
0
8
0
6
ByBlock
62
0
370
-2
100
AcDbText
10
2
20
4
30
0
40
1
1
FABR
50
0
7
Standard
72
0
11
2
21
4
31
0
100
AcDbAttributeDefinition
3
value:
2
FABR
70
1
74
2
0
ENDBLK
5
1D582
330
1D574
100
AcDbEntity
8
0
100
AcDbBlockEnd
0
BLOCK
5
293E4
330
293E3
100
AcDbEntity
8
0
100
AcDbBlockBegin
2
alim
70
0
10
0
20
0
30
0
3
alim
1

4
componente PELICAnU alim
0
CIRCLE
5
293E5
100
AcDbEntity
67
0
8
0
6
ByBlock
62
0
370
-2
100
AcDbCircle
10
6.123e-017
20
25
30
0
40
1
1001
PELICANU
1000
62A37451000408F7
1000
TERMINAL
1000
T1
0
CIRCLE
5
293E6
100
AcDbEntity
67
0
8
0
6
ByBlock
62
0
370
-2
100
AcDbCircle
10
1.83691e-016
20
1
30
0
40
1
1001
PELICANU
1000
62A374890006006A
1000
TERMINAL
1000
T2
0
LINE
5
293E7
100
AcDbEntity
67
0
8
0
6
ByBlock
62
0
370
-2
100
AcDbLine
10
6.123e-017
20
20.5
30
0
11
6.123e-017
21
24
31
0
0
LINE
5
293E8
100
AcDbEntity
67
0
8
0
6
ByBlock
62
0
370
-2
100
AcDbLine
10
6.123e-017
20
5.5
30
0
11
6.123e-017
21
2
31
0
0
LWPOLYLINE
5
293E9
100
AcDbEntity
67
0
8
0
6
ByBlock
62
0
370
-2
100
AcDbPolyline
90
4
70
1
10
-7.5
20
5.5
30
0
42
0
10
7.5
20
5.5
30
0
42
0
10
7.5
20
20.5
30
0
42
0
10
-7.5
20
20.5
30
0
0
LINE
5
293EA
100
AcDbEntity
67
0
8
0
6
ByBlock
62
0
370
-2
100
AcDbLine
10
-7.5
20
5.5
30
0
11
7.5
21
20.5
31
0
0
LINE
5
293EB
100
AcDbEntity
67
0
8
0
6
ByBlock
62
0
370
-2
100
AcDbLine
10
-5.5
20
17.5
30
0
11
-1.5
21
17.5
31
0
0
LINE
5
293EC
100
AcDbEntity
67
0
8
0
6
ByBlock
62
0
370
-2
100
AcDbLine
10
-5.5
20
15.5
30
0
11
-1.5
21
15.5
31
0
0
LINE
5
293ED
100
AcDbEntity
67
0
8
0
6
ByBlock
62
0
370
-2
100
AcDbLine
10
5.5
20
8.5
30
0
11
1.5
21
8.5
31
0
0
LINE
5
293EE
100
AcDbEntity
67
0
8
0
6
ByBlock
62
0
370
-2
100
AcDbLine
10
5.5
20
10.5
30
0
11
1.5
21
10.5
31
0
0
CIRCLE
5
293EF
100
AcDbEntity
67
0
8
0
6
ByBlock
62
0
370
-2
100
AcDbCircle
10
13.5
20
13
30
0
40
1
1001
PELICANU
1000
62A723F80000023C
1000
TERMINAL
1000
T3
0
LINE
5
293F0
100
AcDbEntity
67
0
8
0
6
ByBlock
62
0
370
-2
100
AcDbLine
10
14.5
20
13
30
0
11
15.5
21
13
31
0
1001
PELICANU
1000
62A723F800015424
1000
TERMINAL
1000
T3
0
ATTDEF
5
293F1
100
AcDbEntity
67
0
8
0
6
ByBlock
62
0
370
-2
100
AcDbText
10
2
20
25
30
0
40
2
1
9
50
0
7
Standard
72
0
11
2
21
25
31
0
100
AcDbAttributeDefinition
3
value:
2
T1
70
0
74
2
0
ATTDEF
5
293F2
100
AcDbEntity
67
0
8
0
6
ByBlock
62
0
370
-2
100
AcDbText
10
2
20
1
30
0
40
2
1
10
50
0
7
Standard
72
0
11
2
21
1
31
0
100
AcDbAttributeDefinition
3
value:
2
T2
70
0
74
2
0
ATTDEF
5
293F3
100
AcDbEntity
67
0
8
0
6
ByBlock
62
0
370
-2
100
AcDbText
10
6.123e-017
20
22.25
30
0
40
1
1
ALIM
50
0
7
Standard
72
0
11
6.123e-017
21
22.25
31
0
100
AcDbAttributeDefinition
3
value:
2
ID1
70
1
74
2
0
ATTDEF
5
293F4
100
AcDbEntity
67
0
8
0
6
ByBlock
62
0
370
-2
100
AcDbText
10
6.123e-017
20
3.75
30
0
40
1
1
ALIMENTACAO
50
0
7
Standard
72
0
11
6.123e-017
21
3.75
31
0
100
AcDbAttributeDefinition
3
value:
2
DESCR1
70
1
74
2
0
ATTDEF
5
293F5
100
AcDbEntity
67
0
8
0
6
ByBlock
62
0
370
-2
100
AcDbText
10
14.5
20
10
30
0
40
2
1
GND
50
0
7
Standard
72
2
11
14.5
21
10
31
0
100
AcDbAttributeDefinition
3
value:
2
T3
70
0
74
2
0
ENDBLK
5
293F6
330
293E4
100
AcDbEntity
8
0
100
AcDbBlockEnd
0
BLOCK
5
30587
330
30586
100
AcDbEntity
8
0
100
AcDbBlockBegin
2
cont_nf_1
70
0
10
0
20
0
30
0
3
cont_nf_1
1

4
componente PELICAnU cont_nf_1
0
LINE
5
30588
100
AcDbEntity
67
0
8
0
6
ByBlock
62
0
370
-2
100
AcDbLine
10
-2
20
8
30
0
11
2
21
8
31
0
0
LINE
5
30589
100
AcDbEntity
67
0
8
0
6
ByBlock
62
0
370
-2
100
AcDbLine
10
-2
20
10
30
0
11
2
21
10
31
0
0
CIRCLE
5
3058A
100
AcDbEntity
67
0
8
0
6
ByBlock
62
0
370
-2
100
AcDbCircle
10
1.83691e-016
20
1
30
0
40
1
1001
PELICANU
1000
62A374890006006A
1000
TERMINAL
1000
T2
0
LINE
5
3058B
100
AcDbEntity
67
0
8
0
6
ByBlock
62
0
370
-2
100
AcDbLine
10
1.60814e-016
20
8
30
0
11
-3.46927e-022
21
2
31
0
0
LINE
5
3058C
100
AcDbEntity
67
0
8
0
6
ByBlock
62
0
370
-2
100
AcDbLine
10
2
20
11.5
30
0
11
-2
21
6.5
31
0
0
LINE
5
3058D
100
AcDbEntity
67
0
8
0
6
ByBlock
62
0
370
-2
100
AcDbLine
10
6.123e-017
20
10
30
0
11
8.04068e-017
21
13
31
0
0
ATTDEF
5
3058E
100
AcDbEntity
67
0
8
0
6
ByBlock
62
0
370
-2
100
AcDbText
10
7.5
20
11
30
0
40
2.5
1
??
50
0
7
iso
72
1
11
7.5
21
11
31
0
100
AcDbAttributeDefinition
3
value:
2
ID1
70
0
74
2
0
ATTDEF
5
3058F
100
AcDbEntity
67
0
8
0
6
ByBlock
62
0
370
-2
100
AcDbText
10
7.5
20
7
30
0
40
2.5
1
??
50
0
7
iso
72
1
11
7.5
21
7
31
0
100
AcDbAttributeDefinition
3
value:
2
ID2
70
0
74
2
0
ATTDEF
5
30590
100
AcDbEntity
67
0
8
0
6
ByBlock
62
0
370
-2
100
AcDbText
10
2
20
1
30
0
40
2
1
2
50
0
7
Standard
72
0
11
2
21
1
31
0
100
AcDbAttributeDefinition
3
value:
2
T2
70
0
74
2
0
ENDBLK
5
30591
330
30587
100
AcDbEntity
8
0
100
AcDbBlockEnd
0
BLOCK
5
3138B
330
3138A
100
AcDbEntity
8
0
100
AcDbBlockBegin
2
cont_na_1
70
0
10
0
20
0
30
0
3
cont_na_1
1

4
componente PELICAnU cont_na_1
0
LINE
5
3138C
100
AcDbEntity
67
0
8
0
6
ByBlock
62
0
370
-2
100
AcDbLine
10
-2
20
8
30
0
11
2
21
8
31
0
0
LINE
5
3138D
100
AcDbEntity
67
0
8
0
6
ByBlock
62
0
370
-2
100
AcDbLine
10
-2
20
10
30
0
11
2
21
10
31
0
0
CIRCLE
5
3138E
100
AcDbEntity
67
0
8
0
6
ByBlock
62
0
370
-2
100
AcDbCircle
10
1.83691e-016
20
1
30
0
40
1
1001
PELICANU
1000
62A374890006006A
1000
TERMINAL
1000
T2
0
LINE
5
3138F
100
AcDbEntity
67
0
8
0
6
ByBlock
62
0
370
-2
100
AcDbLine
10
1.60814e-016
20
8
30
0
11
-3.46927e-022
21
2
31
0
0
LINE
5
31390
100
AcDbEntity
67
0
8
0
6
ByBlock
62
0
370
-2
100
AcDbLine
10
6.123e-017
20
10
30
0
11
8.04068e-017
21
13
31
0
0
ATTDEF
5
31391
100
AcDbEntity
67
0
8
0
6
ByBlock
62
0
370
-2
100
AcDbText
10
7.5
20
11
30
0
40
2.5
1
??
50
0
7
iso
72
1
11
7.5
21
11
31
0
100
AcDbAttributeDefinition
3
value:
2
ID1
70
0
74
2
0
ATTDEF
5
31392
100
AcDbEntity
67
0
8
0
6
ByBlock
62
0
370
-2
100
AcDbText
10
7.5
20
7
30
0
40
2.5
1
??
50
0
7
iso
72
1
11
7.5
21
7
31
0
100
AcDbAttributeDefinition
3
value:
2
ID2
70
0
74
2
0
ATTDEF
5
31393
100
AcDbEntity
67
0
8
0
6
ByBlock
62
0
370
-2
100
AcDbText
10
2
20
1
30
0
40
2
1
4
50
0
7
Standard
72
0
11
2
21
1
31
0
100
AcDbAttributeDefinition
3
value:
2
T2
70
0
74
2
0
ENDBLK
5
31394
330
3138B
100
AcDbEntity
8
0
100
AcDbBlockEnd
0
BLOCK
5
3292B
330
3292A
100
AcDbEntity
8
0
100
AcDbBlockBegin
2
b_sec
70
0
10
0
20
0
30
0
3
b_sec
1

4
componente PELICAnU b_sec
0
CIRCLE
5
3292C
100
AcDbEntity
67
0
8
0
6
ByBlock
62
0
370
-2
100
AcDbCircle
10
1.68383e-016
20
10.75
30
0
40
1.25
1001
PELICANU
1000
62B6125D000061D4
1000
TERMINAL
1000
T1
0
CIRCLE
5
3292D
100
AcDbEntity
67
0
8
0
6
ByBlock
62
0
370
-2
100
AcDbCircle
10
2.29614e-016
20
1.25
30
0
40
1.25
1001
PELICANU
1000
62B612C200022429
1000
TERMINAL
1000
T2
0
LINE
5
3292E
100
AcDbEntity
67
0
8
0
6
ByBlock
62
0
370
-2
100
AcDbLine
10
0.883883
20
0.36612
30
0
11
-0.883883
21
2.13388
31
0
0
LINE
5
3292F
100
AcDbEntity
67
0
8
0
6
ByBlock
62
0
370
-2
100
AcDbLine
10
-0.883883
20
0.36612
30
0
11
0.883883
21
2.13388
31
0
0
LINE
5
32930
100
AcDbEntity
67
0
8
0
6
ByBlock
62
0
370
-2
100
AcDbLine
10
0.883883
20
9.8661
30
0
11
-0.883883
21
11.6339
31
0
0
LINE
5
32931
100
AcDbEntity
67
0
8
0
6
ByBlock
62
0
370
-2
100
AcDbLine
10
-0.883883
20
9.8661
30
0
11
0.883883
21
11.6339
31
0
0
LINE
5
32932
100
AcDbEntity
67
0
8
0
6
ByBlock
62
0
370
-2
100
AcDbLine
10
-3.25
20
10.75
30
0
11
3.06152e-016
21
2.5
31
0
0
ATTDEF
5
32933
100
AcDbEntity
67
0
8
0
6
ByBlock
62
0
370
-2
100
AcDbText
10
2
20
10.75
30
0
40
2
1
E
50
0
7
Standard
72
0
11
2
21
10.75
31
0
100
AcDbAttributeDefinition
3
value:
2
T1
70
0
74
2
0
ATTDEF
5
32934
100
AcDbEntity
67
0
8
0
6
ByBlock
62
0
370
-2
100
AcDbText
10
2
20
1.25
30
0
40
2
1
S
50
0
7
Standard
72
0
11
2
21
1.25
31
0
100
AcDbAttributeDefinition
3
value:
2
T2
70
0
74
2
0
ATTDEF
5
32935
100
AcDbEntity
67
0
8
0
6
ByBlock
62
0
370
-2
100
AcDbText
10
2
20
6.25
30
0
40
2
1
??
50
0
7
Standard
72
0
11
2
21
6.25
31
0
100
AcDbAttributeDefinition
3
value:
2
ID1
70
0
74
2
0
ATTDEF
5
32936
100
AcDbEntity
67
0
8
0
6
ByBlock
62
0
370
-2
100
AcDbText
10
-3
20
6.25
30
0
40
2
1
??
50
6.01412e-015
7
Standard
72
2
11
-3
21
6.25
31
0
100
AcDbAttributeDefinition
3
value:
2
REGUA
70
0
74
2
0
ENDBLK
5
32937
330
3292B
100
AcDbEntity
8
0
100
AcDbBlockEnd
0
ENDSEC
0
SECTION
2
ENTITIES
0
INSERT
5
4745
100
AcDbEntity
67
0
8
0
6
ByLayer
62
256
370
-1
100
AcDbBlockReference
66
1
2
m_disj
10
-69.4268
20
31.8707
30
0
41
1
42
1
43
1
50
0
1001
PELICANU
1000
62BDFF110884242A
1000
COMPONENTE
0
ATTRIB
5
4746
100
AcDbEntity
67
0
8
0
6
ByBlock
62
0
370
-2
100
AcDbText
10
-74.4268
20
41.4707
30
0
40
2.5
1
%%U7T
50
360
7
iso
72
1
11
-74.4268
21
41.4707
31
0
100
AcDbAttribute
2
ID1
70
0
74
2
0
ATTRIB
5
4747
100
AcDbEntity
67
0
8
0
6
ByBlock
62
0
370
-2
100
AcDbText
10
-74.4268
20
37.4707
30
0
40
2.5
1
08PP
50
360
7
iso
72
1
11
-74.4268
21
37.4707
31
0
100
AcDbAttribute
2
ID2
70
0
74
2
0
ATTRIB
5
4748
100
AcDbEntity
67
0
8
0
6
ByBlock
62
0
370
-2
100
AcDbText
10
-78.4268
20
33.8707
30
0
40
1
1
MOD
50
360
7
Standard
72
0
11
-78.4268
21
33.8707
31
0
100
AcDbAttribute
2
MOD
70
1
74
2
0
ATTRIB
5
4749
100
AcDbEntity
67
0
8
0
6
ByBlock
62
0
370
-2
100
AcDbText
10
-78.4268
20
30.8707
30
0
40
1
1
FABR
50
360
7
Standard
72
0
11
-78.4268
21
30.8707
31
0
100
AcDbAttribute
2
FABR
70
1
74
2
0
ATTRIB
5
474A
100
AcDbEntity
67
0
8
0
6
ByBlock
62
0
370
-2
100
AcDbText
10
-70.4268
20
28.8707
30
0
40
2.5
1
2
50
360
7
iso
72
1
11
-70.4268
21
28.8707
31
0
100
AcDbAttribute
2
T2
70
0
74
2
0
ATTRIB
5
474B
100
AcDbEntity
67
0
8
0
6
ByBlock
62
0
370
-2
100
AcDbText
10
-78.4268
20
28.8707
30
0
40
2.5
1
1
50
360
7
iso
72
1
11
-78.4268
21
28.8707
31
0
100
AcDbAttribute
2
T1
70
0
74
2
0
SEQEND
5
474C
100
AcDbEntity
8
0
0
INSERT
5
66A3
100
AcDbEntity
67
0
8
0
6
ByLayer
62
256
370
-1
100
AcDbBlockReference
66
1
2
m_disj
10
-69.4268
20
-118.129
30
0
41
1
42
1
43
1
50
0
1001
PELICANU
1000
62BDFF1108855A2F
1000
COMPONENTE
0
ATTRIB
5
66A4
100
AcDbEntity
67
0
8
0
6
ByBlock
62
0
370
-2
100
AcDbText
10
-74.4268
20
-108.529
30
0
40
2.5
1
%%U7T
50
360
7
iso
72
1
11
-74.4268
21
-108.529
31
0
100
AcDbAttribute
2
ID1
70
0
74
2
0
ATTRIB
5
66A5
100
AcDbEntity
67
0
8
0
6
ByBlock
62
0
370
-2
100
AcDbText
10
-74.4268
20
-112.529
30
0
40
2.5
1
08PP
50
360
7
iso
72
1
11
-74.4268
21
-112.529
31
0
100
AcDbAttribute
2
ID2
70
0
74
2
0
ATTRIB
5
66A6
100
AcDbEntity
67
0
8
0
6
ByBlock
62
0
370
-2
100
AcDbText
10
-78.4268
20
-116.129
30
0
40
1
1
MOD
50
360
7
Standard
72
0
11
-78.4268
21
-116.129
31
0
100
AcDbAttribute
2
MOD
70
1
74
2
0
ATTRIB
5
66A7
100
AcDbEntity
67
0
8
0
6
ByBlock
62
0
370
-2
100
AcDbText
10
-78.4268
20
-119.129
30
0
40
1
1
FABR
50
360
7
Standard
72
0
11
-78.4268
21
-119.129
31
0
100
AcDbAttribute
2
FABR
70
1
74
2
0
ATTRIB
5
66A8
100
AcDbEntity
67
0
8
0
6
ByBlock
62
0
370
-2
100
AcDbText
10
-70.4268
20
-121.129
30
0
40
2.5
1
4
50
360
7
iso
72
1
11
-70.4268
21
-121.129
31
0
100
AcDbAttribute
2
T2
70
0
74
2
0
ATTRIB
5
66A9
100
AcDbEntity
67
0
8
0
6
ByBlock
62
0
370
-2
100
AcDbText
10
-78.4268
20
-121.129
30
0
40
2.5
1
3
50
360
7
iso
72
1
11
-78.4268
21
-121.129
31
0
100
AcDbAttribute
2
T1
70
0
74
2
0
SEQEND
5
66AA
100
AcDbEntity
8
0
0
INSERT
5
A484
100
AcDbEntity
67
0
8
0
6
ByLayer
62
256
370
-1
100
AcDbBlockReference
66
1
2
cont_na
10
14.5732
20
6.87072
30
0
41
1
42
1
43
1
50
0
1001
PELICANU
1000
62BDFF1108866C0A
1000
COMPONENTE
0
ATTRIB
5
A485
100
AcDbEntity
67
0
8
0
6
ByBlock
62
0
370
-2
100
AcDbText
10
22.0732
20
17.8707
30
0
40
2.5
1
SD.01
50
360
7
iso
72
1
11
22.0732
21
17.8707
31
0
100
AcDbAttribute
2
ID1
70
0
74
2
0
ATTRIB
5
A486
100
AcDbEntity
67
0
8
0
6
ByBlock
62
0
370
-2
100
AcDbText
10
22.0732
20
13.8707
30
0
40
2.5
1

50
360
7
iso
72
1
11
22.0732
21
13.8707
31
0
100
AcDbAttribute
2
ID2
70
0
74
2
0
ATTRIB
5
A487
100
AcDbEntity
67
0
8
0
6
ByBlock
62
0
370
-2
100
AcDbText
10
16.5732
20
23.8707
30
0
40
2
1
1
50
360
7
Standard
72
0
11
16.5732
21
23.8707
31
0
100
AcDbAttribute
2
T1
70
0
74
2
0
ATTRIB
5
A488
100
AcDbEntity
67
0
8
0
6
ByBlock
62
0
370
-2
100
AcDbText
10
16.5732
20
7.87072
30
0
40
2
1
2
50
360
7
Standard
72
0
11
16.5732
21
7.87072
31
0
100
AcDbAttribute
2
T2
70
0
74
2
0
SEQEND
5
A489
100
AcDbEntity
8
0
0
INSERT
5
C965
100
AcDbEntity
67
0
8
0
6
ByLayer
62
256
370
-1
100
AcDbBlockReference
66
1
2
cont_na
10
40.4807
20
6.87072
30
0
41
1
42
1
43
1
50
0
1001
PELICANU
1000
62BDFF11088706AA
1000
COMPONENTE
0
ATTRIB
5
C966
100
AcDbEntity
67
0
8
0
6
ByBlock
62
0
370
-2
100
AcDbText
10
47.9807
20
17.8707
30
0
40
2.5
1
SD.02
50
360
7
iso
72
1
11
47.9807
21
17.8707
31
0
100
AcDbAttribute
2
ID1
70
0
74
2
0
ATTRIB
5
C967
100
AcDbEntity
67
0
8
0
6
ByBlock
62
0
370
-2
100
AcDbText
10
47.9807
20
13.8707
30
0
40
2.5
1

50
360
7
iso
72
1
11
47.9807
21
13.8707
31
0
100
AcDbAttribute
2
ID2
70
0
74
2
0
ATTRIB
5
C968
100
AcDbEntity
67
0
8
0
6
ByBlock
62
0
370
-2
100
AcDbText
10
42.4807
20
23.8707
30
0
40
2
1
1
50
360
7
Standard
72
0
11
42.4807
21
23.8707
31
0
100
AcDbAttribute
2
T1
70
0
74
2
0
ATTRIB
5
C969
100
AcDbEntity
67
0
8
0
6
ByBlock
62
0
370
-2
100
AcDbText
10
42.4807
20
7.87072
30
0
40
2
1
2
50
360
7
Standard
72
0
11
42.4807
21
7.87072
31
0
100
AcDbAttribute
2
T2
70
0
74
2
0
SEQEND
5
C96A
100
AcDbEntity
8
0
0
INSERT
5
1001F
100
AcDbEntity
67
0
8
0
6
ByLayer
62
256
370
-1
100
AcDbBlockReference
66
1
2
ct
10
14.5732
20
-19.1293
30
0
41
1
42
1
43
1
50
0
1001
PELICANU
1000
62BDFF1108884264
1000
COMPONENTE
0
ATTRIB
5
10020
100
AcDbEntity
67
0
8
0
6
ByBlock
62
0
370
-2
100
AcDbText
10
22.0732
20
-8.12933
30
0
40
2.5
1
%%U7T
50
360
7
iso
72
1
11
22.0732
21
-8.12933
31
0
100
AcDbAttribute
2
ID1
70
0
74
2
0
ATTRIB
5
10021
100
AcDbEntity
67
0
8
0
6
ByBlock
62
0
370
-2
100
AcDbText
10
22.0732
20
-12.1293
30
0
40
2.5
1
CT15
50
360
7
iso
72
1
11
22.0732
21
-12.1293
31
0
100
AcDbAttribute
2
ID2
70
0
74
2
0
ATTRIB
5
10022
100
AcDbEntity
67
0
8
0
6
ByBlock
62
0
370
-2
100
AcDbText
10
16.5732
20
-2.12933
30
0
40
2
1
19
50
360
7
Standard
72
0
11
16.5732
21
-2.12933
31
0
100
AcDbAttribute
2
T1
70
0
74
2
0
ATTRIB
5
10023
100
AcDbEntity
67
0
8
0
6
ByBlock
62
0
370
-2
100
AcDbText
10
16.5732
20
-18.1293
30
0
40
2
1
20
50
360
7
Standard
72
0
11
16.5732
21
-18.1293
31
0
100
AcDbAttribute
2
T2
70
0
74
2
0
ATTRIB
5
10024
100
AcDbEntity
67
0
8
0
6
ByBlock
62
0
370
-2
100
AcDbText
10
16.5732
20
-5.12933
30
0
40
1
1
MOD
50
360
7
Standard
72
0
11
16.5732
21
-5.12933
31
0
100
AcDbAttribute
2
MOD
70
1
74
2
0
ATTRIB
5
10025
100
AcDbEntity
67
0
8
0
6
ByBlock
62
0
370
-2
100
AcDbText
10
16.5732
20
-15.1293
30
0
40
1
1
FABR
50
360
7
Standard
72
0
11
16.5732
21
-15.1293
31
0
100
AcDbAttribute
2
FABR
70
1
74
2
0
SEQEND
5
10026
100
AcDbEntity
8
0
0
INSERT
5
131F2
100
AcDbEntity
67
0
8
0
6
ByLayer
62
256
370
-1
100
AcDbBlockReference
66
1
2
ct
10
40.4807
20
-19.1293
30
0
41
1
42
1
43
1
50
0
1001
PELICANU
1000
62BDFF11088937D1
1000
COMPONENTE
0
ATTRIB
5
131F3
100
AcDbEntity
67
0
8
0
6
ByBlock
62
0
370
-2
100
AcDbText
10
47.9807
20
-8.12928
30
0
40
2.5
1
%%U7T
50
360
7
iso
72
1
11
47.9807
21
-8.12928
31
0
100
AcDbAttribute
2
ID1
70
0
74
2
0
ATTRIB
5
131F4
100
AcDbEntity
67
0
8
0
6
ByBlock
62
0
370
-2
100
AcDbText
10
47.9807
20
-12.1293
30
0
40
2.5
1
CT15
50
360
7
iso
72
1
11
47.9807
21
-12.1293
31
0
100
AcDbAttribute
2
ID2
70
0
74
2
0
ATTRIB
5
131F5
100
AcDbEntity
67
0
8
0
6
ByBlock
62
0
370
-2
100
AcDbText
10
42.4807
20
-2.12928
30
0
40
2
1
17
50
360
7
Standard
72
0
11
42.4807
21
-2.12928
31
0
100
AcDbAttribute
2
T1
70
0
74
2
0
ATTRIB
5
131F6
100
AcDbEntity
67
0
8
0
6
ByBlock
62
0
370
-2
100
AcDbText
10
42.4807
20
-18.1293
30
0
40
2
1
18
50
360
7
Standard
72
0
11
42.4807
21
-18.1293
31
0
100
AcDbAttribute
2
T2
70
0
74
2
0
ATTRIB
5
131F7
100
AcDbEntity
67
0
8
0
6
ByBlock
62
0
370
-2
100
AcDbText
10
42.4807
20
-5.12928
30
0
40
1
1
MOD
50
360
7
Standard
72
0
11
42.4807
21
-5.12928
31
0
100
AcDbAttribute
2
MOD
70
1
74
2
0
ATTRIB
5
131F8
100
AcDbEntity
67
0
8
0
6
ByBlock
62
0
370
-2
100
AcDbText
10
42.4807
20
-15.1293
30
0
40
1
1
FABR
50
360
7
Standard
72
0
11
42.4807
21
-15.1293
31
0
100
AcDbAttribute
2
FABR
70
1
74
2
0
SEQEND
5
131F9
100
AcDbEntity
8
0
0
INSERT
5
1A608
100
AcDbEntity
67
0
8
0
6
ByLayer
62
256
370
-1
100
AcDbBlockReference
66
1
2
diodo
10
34.5732
20
-34.8519
30
0
41
1
42
1
43
1
50
0
1001
PELICANU
1000
62BDFF11088A3B67
1000
COMPONENTE
0
ATTRIB
5
1A609
100
AcDbEntity
67
0
8
0
6
ByBlock
62
0
370
-2
100
AcDbText
10
29.5732
20
-30.2519
30
0
40
2.5
1
D1
50
360
7
iso
72
1
11
29.5732
21
-30.2519
31
0
100
AcDbAttribute
2
ID1
70
0
74
2
0
ATTRIB
5
1A60A
100
AcDbEntity
67
0
8
0
6
ByBlock
62
0
370
-2
100
AcDbText
10
25.5732
20
-32.8519
30
0
40
1
1
MOD
50
360
7
Standard
72
0
11
25.5732
21
-32.8519
31
0
100
AcDbAttribute
2
MOD
70
1
74
2
0
ATTRIB
5
1A60B
100
AcDbEntity
67
0
8
0
6
ByBlock
62
0
370
-2
100
AcDbText
10
25.5732
20
-35.8519
30
0
40
1
1
FABR
50
360
7
Standard
72
0
11
25.5732
21
-35.8519
31
0
100
AcDbAttribute
2
FABR
70
1
74
2
0
ATTRIB
5
1A60C
100
AcDbEntity
67
0
8
0
6
ByBlock
62
0
370
-2
100
AcDbText
10
33.5732
20
-37.8519
30
0
40
2.5
1
2
50
360
7
iso
72
1
11
33.5732
21
-37.8519
31
0
100
AcDbAttribute
2
T2
70
1
74
2
0
ATTRIB
5
1A60D
100
AcDbEntity
67
0
8
0
6
ByBlock
62
0
370
-2
100
AcDbText
10
25.5732
20
-37.8519
30
0
40
2.5
1
1
50
360
7
iso
72
1
11
25.5732
21
-37.8519
31
0
100
AcDbAttribute
2
T1
70
1
74
2
0
SEQEND
5
1A60E
100
AcDbEntity
8
0
0
INSERT
5
1FB9A
100
AcDbEntity
67
0
8
0
6
ByLayer
62
256
370
-1
100
AcDbBlockReference
66
1
2
bob
10
-7.47805
20
-103.129
30
0
41
1
42
1
43
1
50
0
1001
PELICANU
1000
62BDFF11088B2BFE
1000
COMPONENTE
0
ATTRIB
5
1FB9B
100
AcDbEntity
67
0
8
0
6
ByBlock
62
0
370
-2
100
AcDbText
10
0.0219457
20
-92.1293
30
0
40
2.5
1
%%U7T
50
360
7
iso
72
1
11
0.0219457
21
-92.1293
31
0
100
AcDbAttribute
2
ID1
70
0
74
2
0
ATTRIB
5
1FB9C
100
AcDbEntity
67
0
8
0
6
ByBlock
62
0
370
-2
100
AcDbText
10
0.0219457
20
-96.1293
30
0
40
2.5
1
94P-1
50
360
7
iso
72
1
11
0.0219457
21
-96.1293
31
0
100
AcDbAttribute
2
ID2
70
0
74
2
0
ATTRIB
5
1FB9D
100
AcDbEntity
67
0
8
0
6
ByBlock
62
0
370
-2
100
AcDbText
10
-5.47805
20
-86.1293
30
0
40
2
1
9
50
360
7
Standard
72
0
11
-5.47805
21
-86.1293
31
0
100
AcDbAttribute
2
T1
70
0
74
2
0
ATTRIB
5
1FB9E
100
AcDbEntity
67
0
8
0
6
ByBlock
62
0
370
-2
100
AcDbText
10
-5.47805
20
-102.129
30
0
40
2
1
10
50
360
7
Standard
72
0
11
-5.47805
21
-102.129
31
0
100
AcDbAttribute
2
T2
70
0
74
2
0
ATTRIB
5
1FB9F
100
AcDbEntity
67
0
8
0
6
ByBlock
62
0
370
-2
100
AcDbText
10
-5.47805
20
-89.1293
30
0
40
1
1
MOD
50
360
7
Standard
72
0
11
-5.47805
21
-89.1293
31
0
100
AcDbAttribute
2
MOD
70
1
74
2
0
ATTRIB
5
1FBA0
100
AcDbEntity
67
0
8
0
6
ByBlock
62
0
370
-2
100
AcDbText
10
-5.47805
20
-99.1293
30
0
40
1
1
FABR
50
360
7
Standard
72
0
11
-5.47805
21
-99.1293
31
0
100
AcDbAttribute
2
FABR
70
1
74
2
0
SEQEND
5
1FBA1
100
AcDbEntity
8
0
0
INSERT
5
20E09
100
AcDbEntity
67
0
8
0
6
ByLayer
62
256
370
-1
100
AcDbBlockReference
66
1
2
bob
10
14.5732
20
-103.129
30
0
41
1
42
1
43
1
50
0
1001
PELICANU
1000
62BDFF11088C335E
1000
COMPONENTE
0
ATTRIB
5
20E0A
100
AcDbEntity
67
0
8
0
6
ByBlock
62
0
370
-2
100
AcDbText
10
22.0732
20
-92.1293
30
0
40
2.5
1
%%U7T
50
360
7
iso
72
1
11
22.0732
21
-92.1293
31
0
100
AcDbAttribute
2
ID1
70
0
74
2
0
ATTRIB
5
20E0B
100
AcDbEntity
67
0
8
0
6
ByBlock
62
0
370
-2
100
AcDbText
10
22.0732
20
-96.1293
30
0
40
2.5
1
94P-2
50
360
7
iso
72
1
11
22.0732
21
-96.1293
31
0
100
AcDbAttribute
2
ID2
70
0
74
2
0
ATTRIB
5
20E0C
100
AcDbEntity
67
0
8
0
6
ByBlock
62
0
370
-2
100
AcDbText
10
16.5732
20
-86.1293
30
0
40
2
1
9
50
360
7
Standard
72
0
11
16.5732
21
-86.1293
31
0
100
AcDbAttribute
2
T1
70
0
74
2
0
ATTRIB
5
20E0D
100
AcDbEntity
67
0
8
0
6
ByBlock
62
0
370
-2
100
AcDbText
10
16.5732
20
-102.129
30
0
40
2
1
10
50
360
7
Standard
72
0
11
16.5732
21
-102.129
31
0
100
AcDbAttribute
2
T2
70
0
74
2
0
ATTRIB
5
20E0E
100
AcDbEntity
67
0
8
0
6
ByBlock
62
0
370
-2
100
AcDbText
10
16.5732
20
-89.1293
30
0
40
1
1
MOD
50
360
7
Standard
72
0
11
16.5732
21
-89.1293
31
0
100
AcDbAttribute
2
MOD
70
1
74
2
0
ATTRIB
5
20E0F
100
AcDbEntity
67
0
8
0
6
ByBlock
62
0
370
-2
100
AcDbText
10
16.5732
20
-99.1293
30
0
40
1
1
FABR
50
360
7
Standard
72
0
11
16.5732
21
-99.1293
31
0
100
AcDbAttribute
2
FABR
70
1
74
2
0
SEQEND
5
20E10
100
AcDbEntity
8
0
0
INSERT
5
21F2F
100
AcDbEntity
67
0
8
0
6
ByLayer
62
256
370
-1
100
AcDbBlockReference
66
1
2
bob
10
67.6563
20
-103.129
30
0
41
1
42
1
43
1
50
0
1001
PELICANU
1000
62BDFF11088D7040
1000
COMPONENTE
0
ATTRIB
5
21F30
100
AcDbEntity
67
0
8
0
6
ByBlock
62
0
370
-2
100
AcDbText
10
75.1563
20
-92.1293
30
0
40
2.5
1
%%U7T
50
360
7
iso
72
1
11
75.1563
21
-92.1293
31
0
100
AcDbAttribute
2
ID1
70
0
74
2
0
ATTRIB
5
21F31
100
AcDbEntity
67
0
8
0
6
ByBlock
62
0
370
-2
100
AcDbText
10
75.1563
20
-96.1293
30
0
40
2.5
1
94P-3
50
360
7
iso
72
1
11
75.1563
21
-96.1293
31
0
100
AcDbAttribute
2
ID2
70
0
74
2
0
ATTRIB
5
21F32
100
AcDbEntity
67
0
8
0
6
ByBlock
62
0
370
-2
100
AcDbText
10
69.6563
20
-86.1293
30
0
40
2
1
9
50
360
7
Standard
72
0
11
69.6563
21
-86.1293
31
0
100
AcDbAttribute
2
T1
70
0
74
2
0
ATTRIB
5
21F33
100
AcDbEntity
67
0
8
0
6
ByBlock
62
0
370
-2
100
AcDbText
10
69.6563
20
-102.129
30
0
40
2
1
10
50
360
7
Standard
72
0
11
69.6563
21
-102.129
31
0
100
AcDbAttribute
2
T2
70
0
74
2
0
ATTRIB
5
21F34
100
AcDbEntity
67
0
8
0
6
ByBlock
62
0
370
-2
100
AcDbText
10
69.6563
20
-89.1293
30
0
40
1
1
MOD
50
360
7
Standard
72
0
11
69.6563
21
-89.1293
31
0
100
AcDbAttribute
2
MOD
70
1
74
2
0
ATTRIB
5
21F35
100
AcDbEntity
67
0
8
0
6
ByBlock
62
0
370
-2
100
AcDbText
10
69.6563
20
-99.1293
30
0
40
1
1
FABR
50
360
7
Standard
72
0
11
69.6563
21
-99.1293
31
0
100
AcDbAttribute
2
FABR
70
1
74
2
0
SEQEND
5
21F36
100
AcDbEntity
8
0
0
INSERT
5
22614
100
AcDbEntity
67
0
8
0
6
ByLayer
62
256
370
-1
100
AcDbBlockReference
66
1
2
bob
10
88.1547
20
-103.129
30
0
41
1
42
1
43
1
50
0
1001
PELICANU
1000
62BDFF11088E6548
1000
COMPONENTE
0
ATTRIB
5
22615
100
AcDbEntity
67
0
8
0
6
ByBlock
62
0
370
-2
100
AcDbText
10
95.6547
20
-92.1293
30
0
40
2.5
1
%%U7T
50
360
7
iso
72
1
11
95.6547
21
-92.1293
31
0
100
AcDbAttribute
2
ID1
70
0
74
2
0
ATTRIB
5
22616
100
AcDbEntity
67
0
8
0
6
ByBlock
62
0
370
-2
100
AcDbText
10
95.6547
20
-96.1293
30
0
40
2.5
1
94P-4
50
360
7
iso
72
1
11
95.6547
21
-96.1293
31
0
100
AcDbAttribute
2
ID2
70
0
74
2
0
ATTRIB
5
22617
100
AcDbEntity
67
0
8
0
6
ByBlock
62
0
370
-2
100
AcDbText
10
90.1547
20
-86.1293
30
0
40
2
1
9
50
360
7
Standard
72
0
11
90.1547
21
-86.1293
31
0
100
AcDbAttribute
2
T1
70
0
74
2
0
ATTRIB
5
22618
100
AcDbEntity
67
0
8
0
6
ByBlock
62
0
370
-2
100
AcDbText
10
90.1547
20
-102.129
30
0
40
2
1
10
50
360
7
Standard
72
0
11
90.1547
21
-102.129
31
0
100
AcDbAttribute
2
T2
70
0
74
2
0
ATTRIB
5
22619
100
AcDbEntity
67
0
8
0
6
ByBlock
62
0
370
-2
100
AcDbText
10
90.1547
20
-89.1293
30
0
40
1
1
MOD
50
360
7
Standard
72
0
11
90.1547
21
-89.1293
31
0
100
AcDbAttribute
2
MOD
70
1
74
2
0
ATTRIB
5
2261A
100
AcDbEntity
67
0
8
0
6
ByBlock
62
0
370
-2
100
AcDbText
10
90.1547
20
-99.1293
30
0
40
1
1
FABR
50
360
7
Standard
72
0
11
90.1547
21
-99.1293
31
0
100
AcDbAttribute
2
FABR
70
1
74
2
0
SEQEND
5
2261B
100
AcDbEntity
8
0
0
INSERT
5
26C07
100
AcDbEntity
67
0
8
0
6
ByLayer
62
256
370
-1
100
AcDbBlockReference
66
1
2
bob
10
-32.4781
20
-103.129
30
0
41
1
42
1
43
1
50
0
1001
PELICANU
1000
62BDFF11088F551C
1000
COMPONENTE
0
ATTRIB
5
26C08
100
AcDbEntity
67
0
8
0
6
ByBlock
62
0
370
-2
100
AcDbText
10
-24.9781
20
-92.1293
30
0
40
2.5
1
OP
50
360
7
iso
72
1
11
-24.9781
21
-92.1293
31
0
100
AcDbAttribute
2
ID1
70
0
74
2
0
ATTRIB
5
26C09
100
AcDbEntity
67
0
8
0
6
ByBlock
62
0
370
-2
100
AcDbText
10
-24.9781
20
-96.1293
30
0
40
2.5
1

50
360
7
iso
72
1
11
-24.9781
21
-96.1293
31
0
100
AcDbAttribute
2
ID2
70
0
74
2
0
ATTRIB
5
26C0A
100
AcDbEntity
67
0
8
0
6
ByBlock
62
0
370
-2
100
AcDbText
10
-30.4781
20
-86.1293
30
0
40
2
1
9
50
360
7
Standard
72
0
11
-30.4781
21
-86.1293
31
0
100
AcDbAttribute
2
T1
70
0
74
2
0
ATTRIB
5
26C0B
100
AcDbEntity
67
0
8
0
6
ByBlock
62
0
370
-2
100
AcDbText
10
-30.4781
20
-102.129
30
0
40
2
1
10
50
360
7
Standard
72
0
11
-30.4781
21
-102.129
31
0
100
AcDbAttribute
2
T2
70
0
74
2
0
ATTRIB
5
26C0C
100
AcDbEntity
67
0
8
0
6
ByBlock
62
0
370
-2
100
AcDbText
10
-30.4781
20
-89.1293
30
0
40
1
1
MOD
50
360
7
Standard
72
0
11
-30.4781
21
-89.1293
31
0
100
AcDbAttribute
2
MOD
70
1
74
2
0
ATTRIB
5
26C0D
100
AcDbEntity
67
0
8
0
6
ByBlock
62
0
370
-2
100
AcDbText
10
-30.4781
20
-99.1293
30
0
40
1
1
FABR
50
360
7
Standard
72
0
11
-30.4781
21
-99.1293
31
0
100
AcDbAttribute
2
FABR
70
1
74
2
0
SEQEND
5
26C0E
100
AcDbEntity
8
0
0
INSERT
5
292D5
100
AcDbEntity
67
0
8
0
6
ByLayer
62
256
370
-1
100
AcDbBlockReference
66
1
2
bob
10
-48.4781
20
-103.129
30
0
41
1
42
1
43
1
50
0
1001
PELICANU
1000
62BDFF110890630A
1000
COMPONENTE
0
ATTRIB
5
292D6
100
AcDbEntity
67
0
8
0
6
ByBlock
62
0
370
-2
100
AcDbText
10
-40.9781
20
-92.1293
30
0
40
2.5
1
RES
50
360
7
iso
72
1
11
-40.9781
21
-92.1293
31
0
100
AcDbAttribute
2
ID1
70
0
74
2
0
ATTRIB
5
292D7
100
AcDbEntity
67
0
8
0
6
ByBlock
62
0
370
-2
100
AcDbText
10
-40.9781
20
-96.1293
30
0
40
2.5
1

50
360
7
iso
72
1
11
-40.9781
21
-96.1293
31
0
100
AcDbAttribute
2
ID2
70
0
74
2
0
ATTRIB
5
292D8
100
AcDbEntity
67
0
8
0
6
ByBlock
62
0
370
-2
100
AcDbText
10
-46.4781
20
-86.1293
30
0
40
2
1
9
50
360
7
Standard
72
0
11
-46.4781
21
-86.1293
31
0
100
AcDbAttribute
2
T1
70
0
74
2
0
ATTRIB
5
292D9
100
AcDbEntity
67
0
8
0
6
ByBlock
62
0
370
-2
100
AcDbText
10
-46.4781
20
-102.129
30
0
40
2
1
10
50
360
7
Standard
72
0
11
-46.4781
21
-102.129
31
0
100
AcDbAttribute
2
T2
70
0
74
2
0
ATTRIB
5
292DA
100
AcDbEntity
67
0
8
0
6
ByBlock
62
0
370
-2
100
AcDbText
10
-46.4781
20
-89.1293
30
0
40
1
1
MOD
50
360
7
Standard
72
0
11
-46.4781
21
-89.1293
31
0
100
AcDbAttribute
2
MOD
70
1
74
2
0
ATTRIB
5
292DB
100
AcDbEntity
67
0
8
0
6
ByBlock
62
0
370
-2
100
AcDbText
10
-46.4781
20
-99.1293
30
0
40
1
1
FABR
50
360
7
Standard
72
0
11
-46.4781
21
-99.1293
31
0
100
AcDbAttribute
2
FABR
70
1
74
2
0
SEQEND
5
292DC
100
AcDbEntity
8
0
0
LWPOLYLINE
5
293E0
100
AcDbEntity
67
0
8
0
6
Dashdot
62
3
370
-1
100
AcDbPolyline
90
4
70
1
10
-55.4612
20
-106.856
30
0
42
0
10
-17.765
20
-106.856
30
0
42
0
10
-17.765
20
-80.9604
30
0
42
0
10
-55.4612
20
-80.9604
30
0
1001
PELICANU
1000
62BDFF1108910272
1000
CAIXA
1000
COMPONENTE
0
TEXT
5
293E1
100
AcDbEntity
67
0
8
0
6
Dashdot
62
3
370
-1
100
AcDbText
10
-18.365
20
-81.5604
30
0
40
2
1
7T/86P
50
0
7
Standard
72
2
11
-18.365
21
-81.5604
31
0
100
AcDbText
73
3
1001
PELICANU
1000
62BDFF1108926451
1000
ROTULO
1000
CAIXA
0
LWPOLYLINE
5
293E2
100
AcDbEntity
67
0
8
0
6
Continuous
62
3
370
-1
100
AcDbPolyline
90
4
70
1
10
-29.9983
20
-83.8604
30
0
42
0
10
-18.065
20
-83.8604
30
0
42
0
10
-18.065
20
-81.2604
30
0
42
0
10
-29.9983
20
-81.2604
30
0
0
INSERT
5
2B071
100
AcDbEntity
67
0
8
0
6
ByLayer
62
256
370
-1
100
AcDbBlockReference
66
1
2
alim
10
123.155
20
-68.1293
30
0
41
1
42
1
43
1
50
0
1001
PELICANU
1000
62BDFF1108936B60
1000
COMPONENTE
0
ATTRIB
5
2B072
100
AcDbEntity
67
0
8
0
6
ByBlock
62
0
370
-2
100
AcDbText
10
125.155
20
-43.1293
30
0
40
2
1
9
50
360
7
Standard
72
0
11
125.155
21
-43.1293
31
0
100
AcDbAttribute
2
T1
70
0
74
2
0
ATTRIB
5
2B073
100
AcDbEntity
67
0
8
0
6
ByBlock
62
0
370
-2
100
AcDbText
10
125.155
20
-67.1293
30
0
40
2
1
10
50
360
7
Standard
72
0
11
125.155
21
-67.1293
31
0
100
AcDbAttribute
2
T2
70
0
74
2
0
ATTRIB
5
2B074
100
AcDbEntity
67
0
8
0
6
ByBlock
62
0
370
-2
100
AcDbText
10
123.155
20
-45.8793
30
0
40
1
1
ALIM
50
360
7
Standard
72
0
11
123.155
21
-45.8793
31
0
100
AcDbAttribute
2
ID1
70
1
74
2
0
ATTRIB
5
2B075
100
AcDbEntity
67
0
8
0
6
ByBlock
62
0
370
-2
100
AcDbText
10
123.155
20
-64.3793
30
0
40
1
1
ALIMENTACAO
50
360
7
Standard
72
0
11
123.155
21
-64.3793
31
0
100
AcDbAttribute
2
DESCR1
70
1
74
2
0
ATTRIB
5
2B076
100
AcDbEntity
67
0
8
0
6
ByBlock
62
0
370
-2
100
AcDbText
10
137.655
20
-58.1293
30
0
40
2
1
GND
50
360
7
Standard
72
2
11
137.655
21
-58.1293
31
0
100
AcDbAttribute
2
T3
70
0
74
2
0
SEQEND
5
2B077
100
AcDbEntity
8
0
0
INSERT
5
2D7A8
100
AcDbEntity
67
0
8
0
6
ByLayer
62
256
370
-1
100
AcDbBlockReference
66
1
2
cont_na
10
73.1547
20
-47.1293
30
0
41
1
42
1
43
1
50
0
1001
PELICANU
1000
62BDFF110894495E
1000
COMPONENTE
0
ATTRIB
5
2D7A9
100
AcDbEntity
67
0
8
0
6
ByBlock
62
0
370
-2
100
AcDbText
10
80.6547
20
-36.1293
30
0
40
2.5
1
%%U16K
50
360
7
iso
72
1
11
80.6547
21
-36.1293
31
0
100
AcDbAttribute
2
ID1
70
0
74
2
0
ATTRIB
5
2D7AA
100
AcDbEntity
67
0
8
0
6
ByBlock
62
0
370
-2
100
AcDbText
10
80.6547
20
-40.1293
30
0
40
2.5
1
83T
50
360
7
iso
72
1
11
80.6547
21
-40.1293
31
0
100
AcDbAttribute
2
ID2
70
0
74
2
0
ATTRIB
5
2D7AB
100
AcDbEntity
67
0
8
0
6
ByBlock
62
0
370
-2
100
AcDbText
10
75.1547
20
-30.1293
30
0
40
2
1
1
50
360
7
Standard
72
0
11
75.1547
21
-30.1293
31
0
100
AcDbAttribute
2
T1
70
0
74
2
0
ATTRIB
5
2D7AC
100
AcDbEntity
67
0
8
0
6
ByBlock
62
0
370
-2
100
AcDbText
10
75.1547
20
-46.1293
30
0
40
2
1
2
50
360
7
Standard
72
0
11
75.1547
21
-46.1293
31
0
100
AcDbAttribute
2
T2
70
0
74
2
0
SEQEND
5
2D7AD
100
AcDbEntity
8
0
0
INSERT
5
30116
100
AcDbEntity
67
0
8
0
6
ByLayer
62
256
370
-1
100
AcDbBlockReference
66
1
2
cont_na
10
73.1547
20
-73.1293
30
0
41
1
42
1
43
1
50
0
1001
PELICANU
1000
62BDFF1108952A54
1000
COMPONENTE
0
ATTRIB
5
30117
100
AcDbEntity
67
0
8
0
6
ByBlock
62
0
370
-2
100
AcDbText
10
80.6547
20
-62.1293
30
0
40
2.5
1
%%U16K
50
360
7
iso
72
1
11
80.6547
21
-62.1293
31
0
100
AcDbAttribute
2
ID1
70
0
74
2
0
ATTRIB
5
30118
100
AcDbEntity
67
0
8
0
6
ByBlock
62
0
370
-2
100
AcDbText
10
80.6547
20
-66.1293
30
0
40
2.5
1
INT
50
360
7
iso
72
1
11
80.6547
21
-66.1293
31
0
100
AcDbAttribute
2
ID2
70
0
74
2
0
ATTRIB
5
30119
100
AcDbEntity
67
0
8
0
6
ByBlock
62
0
370
-2
100
AcDbText
10
75.1547
20
-56.1293
30
0
40
2
1
3
50
360
7
Standard
72
0
11
75.1547
21
-56.1293
31
0
100
AcDbAttribute
2
T1
70
0
74
2
0
ATTRIB
5
3011A
100
AcDbEntity
67
0
8
0
6
ByBlock
62
0
370
-2
100
AcDbText
10
75.1547
20
-72.1293
30
0
40
2
1
4
50
360
7
Standard
72
0
11
75.1547
21
-72.1293
31
0
100
AcDbAttribute
2
T2
70
0
74
2
0
SEQEND
5
3011B
100
AcDbEntity
8
0
0
INSERT
5
326E5
100
AcDbEntity
67
0
8
0
6
ByLayer
62
256
370
-1
100
AcDbBlockReference
66
1
2
cont_nf_1
10
88.1547
20
-47.1293
30
0
41
1
42
1
43
1
50
0
1001
PELICANU
1000
62BDFF110896594F
1000
COMPONENTE
0
ATTRIB
5
326E6
100
AcDbEntity
67
0
8
0
6
ByBlock
62
0
370
-2
100
AcDbText
10
95.6547
20
-36.1293
30
0
40
2.5
1
%%U16K
50
360
7
iso
72
1
11
95.6547
21
-36.1293
31
0
100
AcDbAttribute
2
ID1
70
0
74
2
0
ATTRIB
5
326E7
100
AcDbEntity
67
0
8
0
6
ByBlock
62
0
370
-2
100
AcDbText
10
95.6547
20
-40.1293
30
0
40
2.5
1
83T
50
360
7
iso
72
1
11
95.6547
21
-40.1293
31
0
100
AcDbAttribute
2
ID2
70
0
74
2
0
ATTRIB
5
326E8
100
AcDbEntity
67
0
8
0
6
ByBlock
62
0
370
-2
100
AcDbText
10
90.1547
20
-46.1293
30
0
40
2
1
3
50
360
7
Standard
72
0
11
90.1547
21
-46.1293
31
0
100
AcDbAttribute
2
T2
70
0
74
2
0
SEQEND
5
326E9
100
AcDbEntity
8
0
0
INSERT
5
34B89
100
AcDbEntity
67
0
8
0
6
ByLayer
62
256
370
-1
100
AcDbBlockReference
66
1
2
b_sec
10
-10.4268
20
-13.1293
30
0
41
1
42
1
43
1
50
0
1001
PELICANU
1000
62BDFF1108974EB6
1000
COMPONENTE
0
ATTRIB
5
34B8A
100
AcDbEntity
67
0
8
0
6
ByBlock
62
0
370
-2
100
AcDbText
10
-8.42675
20
-2.37928
30
0
40
2
1
E
50
360
7
Standard
72
0
11
-8.42675
21
-2.37928
31
0
100
AcDbAttribute
2
T1
70
0
74
2
0
ATTRIB
5
34B8B
100
AcDbEntity
67
0
8
0
6
ByBlock
62
0
370
-2
100
AcDbText
10
-8.42675
20
-11.8793
30
0
40
2
1
S
50
360
7
Standard
72
0
11
-8.42675
21
-11.8793
31
0
100
AcDbAttribute
2
T2
70
0
74
2
0
ATTRIB
5
34B8C
100
AcDbEntity
67
0
8
0
6
ByBlock
62
0
370
-2
100
AcDbText
10
-8.42675
20
-6.87928
30
0
40
2
1
10
50
360
7
Standard
72
0
11
-8.42675
21
-6.87928
31
0
100
AcDbAttribute
2
ID1
70
0
74
2
0
ATTRIB
5
34B8D
100
AcDbEntity
67
0
8
0
6
ByBlock
62
0
370
-2
100
AcDbText
10
-13.4268
20
-6.87928
30
0
40
2
1
K1
50
6.01412e-015
7
Standard
72
2
11
-13.4268
21
-6.87928
31
0
100
AcDbAttribute
2
REGUA
70
0
74
2
0
SEQEND
5
34B8E
100
AcDbEntity
8
0
0
INSERT
5
373A8
100
AcDbEntity
67
0
8
0
6
ByLayer
62
256
370
-1
100
AcDbBlockReference
66
1
2
cont_na
10
-10.4268
20
6.87072
30
0
41
1
42
1
43
1
50
0
1001
PELICANU
1000
62BDFF1108983FA9
1000
COMPONENTE
0
ATTRIB
5
373A9
100
AcDbEntity
67
0
8
0
6
ByBlock
62
0
370
-2
100
AcDbText
10
-2.92675
20
17.8707
30
0
40
2.5
1
%%U7T
50
360
7
iso
72
1
11
-2.92675
21
17.8707
31
0
100
AcDbAttribute
2
ID1
70
0
74
2
0
ATTRIB
5
373AA
100
AcDbEntity
67
0
8
0
6
ByBlock
62
0
370
-2
100
AcDbText
10
-2.92675
20
13.8707
30
0
40
2.5
1
63X
50
360
7
iso
72
1
11
-2.92675
21
13.8707
31
0
100
AcDbAttribute
2
ID2
70
0
74
2
0
ATTRIB
5
373AB
100
AcDbEntity
67
0
8
0
6
ByBlock
62
0
370
-2
100
AcDbText
10
-8.42675
20
23.8707
30
0
40
2
1
3
50
360
7
Standard
72
0
11
-8.42675
21
23.8707
31
0
100
AcDbAttribute
2
T1
70
0
74
2
0
ATTRIB
5
373AC
100
AcDbEntity
67
0
8
0
6
ByBlock
62
0
370
-2
100
AcDbText
10
-8.42675
20
7.87072
30
0
40
2
1
4
50
360
7
Standard
72
0
11
-8.42675
21
7.87072
31
0
100
AcDbAttribute
2
T2
70
0
74
2
0
SEQEND
5
373AD
100
AcDbEntity
8
0
0
INSERT
5
37D22
100
AcDbEntity
67
0
8
0
6
ByLayer
62
256
370
-1
100
AcDbBlockReference
66
1
2
cont_na
10
65.4807
20
6.87072
30
0
41
1
42
1
43
1
50
0
1001
PELICANU
1000
62BDFF11089930CA
1000
COMPONENTE
0
ATTRIB
5
37D23
100
AcDbEntity
67
0
8
0
6
ByBlock
62
0
370
-2
100
AcDbText
10
72.9807
20
17.8707
30
0
40
2.5
1
%%U7T
50
360
7
iso
72
1
11
72.9807
21
17.8707
31
0
100
AcDbAttribute
2
ID1
70
0
74
2
0
ATTRIB
5
37D24
100
AcDbEntity
67
0
8
0
6
ByBlock
62
0
370
-2
100
AcDbText
10
72.9807
20
13.8707
30
0
40
2.5
1
PIX
50
360
7
iso
72
1
11
72.9807
21
13.8707
31
0
100
AcDbAttribute
2
ID2
70
0
74
2
0
ATTRIB
5
37D25
100
AcDbEntity
67
0
8
0
6
ByBlock
62
0
370
-2
100
AcDbText
10
67.4807
20
23.8707
30
0
40
2
1
3
50
360
7
Standard
72
0
11
67.4807
21
23.8707
31
0
100
AcDbAttribute
2
T1
70
0
74
2
0
ATTRIB
5
37D26
100
AcDbEntity
67
0
8
0
6
ByBlock
62
0
370
-2
100
AcDbText
10
67.4807
20
7.87072
30
0
40
2
1
4
50
360
7
Standard
72
0
11
67.4807
21
7.87072
31
0
100
AcDbAttribute
2
T2
70
0
74
2
0
SEQEND
5
37D27
100
AcDbEntity
8
0
0
INSERT
5
37DA1
100
AcDbEntity
67
0
8
0
6
ByLayer
62
256
370
-1
100
AcDbBlockReference
66
1
2
b_sec
10
65.4807
20
-13.1293
30
0
41
1
42
1
43
1
50
0
1001
PELICANU
1000
62BDFF11089A2B29
1000
COMPONENTE
0
ATTRIB
5
37DA2
100
AcDbEntity
67
0
8
0
6
ByBlock
62
0
370
-2
100
AcDbText
10
67.4807
20
-2.37928
30
0
40
2
1
E
50
360
7
Standard
72
0
11
67.4807
21
-2.37928
31
0
100
AcDbAttribute
2
T1
70
0
74
2
0
ATTRIB
5
37DA3
100
AcDbEntity
67
0
8
0
6
ByBlock
62
0
370
-2
100
AcDbText
10
67.4807
20
-11.8793
30
0
40
2
1
S
50
360
7
Standard
72
0
11
67.4807
21
-11.8793
31
0
100
AcDbAttribute
2
T2
70
0
74
2
0
ATTRIB
5
37DA4
100
AcDbEntity
67
0
8
0
6
ByBlock
62
0
370
-2
100
AcDbText
10
67.4807
20
-6.87928
30
0
40
2
1
10
50
360
7
Standard
72
0
11
67.4807
21
-6.87928
31
0
100
AcDbAttribute
2
ID1
70
0
74
2
0
ATTRIB
5
37DA5
100
AcDbEntity
67
0
8
0
6
ByBlock
62
0
370
-2
100
AcDbText
10
62.4807
20
-6.87928
30
0
40
2
1
K1
50
6.01412e-015
7
Standard
72
2
11
62.4807
21
-6.87928
31
0
100
AcDbAttribute
2
REGUA
70
0
74
2
0
SEQEND
5
37DA6
100
AcDbEntity
8
0
0
LINE
5
37DA7
100
AcDbEntity
67
0
8
0
6
ByLayer
62
256
370
-1
100
AcDbLine
10
88.1547
20
-34.1293
30
0
11
73.1547
21
-34.1293
31
0
0
LINE
5
37DA8
100
AcDbEntity
67
0
8
0
6
Continuous
62
1
370
-1
100
AcDbLine
10
73.1547
20
-47.1293
30
0
11
73.1547
21
-55.1293
31
0
1001
PELICANU
1000
62BDFF11089B45BA
1000
LIGACAO
1000
-
0
LINE
5
37DA9
100
AcDbEntity
67
0
8
0
6
Continuous
62
1
370
-1
100
AcDbLine
10
88.1547
20
-47.1293
30
0
11
88.1547
21
-77.1293
31
0
1001
PELICANU
1000
62BDFF11089C4027
1000
LIGACAO
1000
-
0
LINE
5
37DAA
100
AcDbEntity
67
0
8
0
6
Continuous
62
1
370
-1
100
AcDbLine
10
88.1547
20
-77.1293
30
0
11
73.1547
21
-77.1293
31
0
1001
PELICANU
1000
62BDFF11089D7CF0
1000
LIGACAO
1000
-
0
LINE
5
37DAB
100
AcDbEntity
67
0
8
0
6
Continuous
62
1
370
-1
100
AcDbLine
10
73.1547
20
-77.1293
30
0
11
73.1547
21
-73.1293
31
0
1001
PELICANU
1000
62BDFF11089E6314
1000
LIGACAO
1000
-
0
LINE
5
37DAC
100
AcDbEntity
67
0
8
0
6
Continuous
62
1
370
-1
100
AcDbLine
10
65.4807
20
-1.12928
30
0
11
65.4807
21
6.87072
31
0
1001
PELICANU
1000
62BDFF11089F391E
1000
LIGACAO
1000
-
0
LINE
5
37DAD
100
AcDbEntity
67
0
8
0
6
Continuous
62
1
370
-1
100
AcDbLine
10
-10.4268
20
-1.12928
30
0
11
-10.4268
21
6.87072
31
0
1001
PELICANU
1000
62BDFF1108A043D3
1000
LIGACAO
1000
-
0
LINE
5
37DAE
100
AcDbEntity
67
0
8
0
6
Continuous
62
1
370
-1
100
AcDbLine
10
14.5732
20
-1.12928
30
0
11
14.5732
21
6.87072
31
0
1001
PELICANU
1000
62BDFF1108A14AA7
1000
LIGACAO
1000
-
0
LINE
5
37DAF
100
AcDbEntity
67
0
8
0
6
Continuous
62
1
370
-1
100
AcDbLine
10
40.4807
20
-1.12928
30
0
11
40.4807
21
6.87072
31
0
1001
PELICANU
1000
62BDFF1108A21905
1000
LIGACAO
1000
-
0
LINE
5
37DB0
100
AcDbEntity
67
0
8
0
6
Continuous
62
1
370
-1
100
AcDbLine
10
65.4807
20
24.8707
30
0
11
65.4807
21
31.8707
31
0
1001
PELICANU
1000
62BDFF1108A33E4C
1000
LIGACAO
1000
-
0
LINE
5
37DB1
100
AcDbEntity
67
0
8
0
6
Continuous
62
1
370
-1
100
AcDbLine
10
-10.4268
20
24.8707
30
0
11
-10.4268
21
31.8707
31
0
1001
PELICANU
1000
62BDFF1108A4327C
1000
LIGACAO
1000
-
0
LINE
5
37DB2
100
AcDbEntity
67
0
8
0
6
Continuous
62
1
370
-1
100
AcDbLine
10
14.5732
20
24.8707
30
0
11
14.5732
21
31.8707
31
0
1001
PELICANU
1000
62BDFF1108A52A4D
1000
LIGACAO
1000
-
0
LINE
5
37DB3
100
AcDbEntity
67
0
8
0
6
Continuous
62
1
370
-1
100
AcDbLine
10
40.4807
20
24.8707
30
0
11
40.4807
21
31.8707
31
0
1001
PELICANU
1000
62BDFF1108A6046C
1000
LIGACAO
1000
-
0
LWPOLYLINE
5
37DBA
100
AcDbEntity
67
0
8
0
6
Dashdot
62
3
370
-1
100
AcDbPolyline
90
4
70
1
10
7.4577
20
2.77786
30
0
42
0
10
54.9974
20
2.77786
30
0
42
0
10
54.9974
20
28.6352
30
0
42
0
10
7.4577
20
28.6352
30
0
1001
PELICANU
1000
62BDFF1108A7354D
1000
CAIXA
1000
COMPONENTE
0
TEXT
5
37DBB
100
AcDbEntity
67
0
8
0
6
Dashdot
62
3
370
-1
100
AcDbText
10
54.3974
20
28.0352
30
0
40
2
1
7T87P
50
0
7
Standard
72
2
11
54.3974
21
28.0352
31
0
100
AcDbText
73
3
1001
PELICANU
1000
62BDFF1108A8191B
1000
ROTULO
1000
CAIXA
0
LWPOLYLINE
5
37DBC
100
AcDbEntity
67
0
8
0
6
Continuous
62
3
370
-1
100
AcDbPolyline
90
4
70
1
10
44.7641
20
25.7352
30
0
42
0
10
54.6974
20
25.7352
30
0
42
0
10
54.6974
20
28.3352
30
0
42
0
10
44.7641
20
28.3352
30
0
0
LINE
5
37DBD
100
AcDbEntity
67
0
8
0
6
Continuous
62
1
370
-1
100
AcDbLine
10
-32.4781
20
-103.129
30
0
11
-32.4781
21
-118.129
31
0
1001
PELICANU
1000
62BDFF1108A92DCB
1000
LIGACAO
1000
-
0
LINE
5
37DBE
100
AcDbEntity
67
0
8
0
6
Continuous
62
1
370
-1
100
AcDbLine
10
-7.47805
20
-103.129
30
0
11
-7.47805
21
-118.129
31
0
1001
PELICANU
1000
62BDFF1108AA051F
1000
LIGACAO
1000
-
0
LINE
5
37DBF
100
AcDbEntity
67
0
8
0
6
Continuous
62
1
370
-1
100
AcDbLine
10
14.5732
20
-103.129
30
0
11
14.5732
21
-118.129
31
0
1001
PELICANU
1000
62BDFF1108AB7DEA
1000
LIGACAO
1000
-
0
LINE
5
37DC0
100
AcDbEntity
67
0
8
0
6
Continuous
62
1
370
-1
100
AcDbLine
10
67.6563
20
-103.129
30
0
11
67.6563
21
-118.129
31
0
1001
PELICANU
1000
62BDFF1108AC1A64
1000
LIGACAO
1000
-
0
LINE
5
37DC1
100
AcDbEntity
67
0
8
0
6
Continuous
62
1
370
-1
100
AcDbLine
10
88.1547
20
-103.129
30
0
11
88.1547
21
-118.129
31
0
1001
PELICANU
1000
62BDFF1108AD66D5
1000
LIGACAO
1000
-
0
LINE
5
37DC2
100
AcDbEntity
67
0
8
0
6
Continuous
62
1
370
-1
100
AcDbLine
10
88.1547
20
-77.1293
30
0
11
88.1547
21
-85.1293
31
0
1001
PELICANU
1000
62BDFF1108AE3894
1000
LIGACAO
1000
-
0
LINE
5
37DC3
100
AcDbEntity
67
0
8
0
6
Continuous
62
1
370
-1
100
AcDbLine
10
67.6563
20
-85.1293
30
0
11
67.6563
21
-51.1293
31
0
1001
PELICANU
1000
62BDFF1108AF0811
1000
LIGACAO
1000
-
0
LINE
5
37DC4
100
AcDbEntity
67
0
8
0
6
Continuous
62
1
370
-1
100
AcDbLine
10
67.6563
20
-51.1293
30
0
11
73.1547
21
-51.1293
31
0
1001
PELICANU
1000
62BDFF1108B04D9B
1000
LIGACAO
1000
-
0
LINE
5
37DC5
100
AcDbEntity
67
0
8
0
6
Continuous
62
1
370
-1
100
AcDbLine
10
14.5732
20
-19.1293
30
0
11
14.5732
21
-85.1293
31
0
1001
PELICANU
1000
62BDFF1108B11A6D
1000
LIGACAO
1000
-
0
LINE
5
37DC7
100
AcDbEntity
67
0
8
0
6
Continuous
62
1
370
-1
100
AcDbLine
10
-32.4781
20
-85.1293
30
0
11
-32.4781
21
-69.1293
31
0
1001
PELICANU
1000
62BDFF1108B26F54
1000
LIGACAO
1000
-
0
LINE
5
37DC8
100
AcDbEntity
67
0
8
0
6
Continuous
62
1
370
-1
100
AcDbLine
10
-32.4781
20
-69.1293
30
0
11
14.5732
21
-69.1293
31
0
1001
PELICANU
1000
62BDFF1108B3437A
1000
LIGACAO
1000
-
0
LINE
5
37DC9
100
AcDbEntity
67
0
8
0
6
Continuous
62
1
370
-1
100
AcDbLine
10
-7.47805
20
-85.1293
30
0
11
-7.47805
21
-69.1293
31
0
1001
PELICANU
1000
62BDFF1108B47FA9
1000
LIGACAO
1000
-
0
LINE
5
37DCA
100
AcDbEntity
67
0
8
0
6
Continuous
62
1
370
-1
100
AcDbLine
10
65.4807
20
-13.1293
30
0
11
65.4807
21
-25.1293
31
0
1001
PELICANU
1000
62BDFF1108B54DA9
1000
LIGACAO
1000
-
0
LINE
5
37DCB
100
AcDbEntity
67
0
8
0
6
Continuous
62
1
370
-1
100
AcDbLine
10
65.4807
20
-25.1293
30
0
11
73.1547
21
-25.1293
31
0
1001
PELICANU
1000
62BDFF1108B616AC
1000
LIGACAO
1000
-
0
LINE
5
37DCC
100
AcDbEntity
67
0
8
0
6
Continuous
62
1
370
-1
100
AcDbLine
10
73.1547
20
-25.1293
30
0
11
73.1547
21
-29.1293
31
0
1001
PELICANU
1000
62BDFF1108B73289
1000
LIGACAO
1000
-
0
LINE
5
37DCD
100
AcDbEntity
67
0
8
0
6
Continuous
62
1
370
-1
100
AcDbLine
10
40.4807
20
-19.1293
30
0
11
40.4807
21
-25.1293
31
0
1001
PELICANU
1000
62BDFF1108B80A6F
1000
LIGACAO
1000
-
0
LINE
5
37DCE
100
AcDbEntity
67
0
8
0
6
Continuous
62
1
370
-1
100
AcDbLine
10
40.4807
20
-25.1293
30
0
11
65.4807
21
-25.1293
31
0
1001
PELICANU
1000
62BDFF1108B90FB7
1000
LIGACAO
1000
-
0
LINE
5
37DCF
100
AcDbEntity
67
0
8
0
6
Continuous
62
1
370
-1
100
AcDbLine
10
34.5732
20
-34.8519
30
0
11
40.4807
21
-34.8519
31
0
1001
PELICANU
1000
62BDFF1108BA6AA6
1000
LIGACAO
1000
-
0
LINE
5
37DD0
100
AcDbEntity
67
0
8
0
6
Continuous
62
1
370
-1
100
AcDbLine
10
40.4807
20
-34.8519
30
0
11
40.4807
21
-25.1293
31
0
1001
PELICANU
1000
62BDFF1108BB2477
1000
LIGACAO
1000
-
0
LINE
5
37DD1
100
AcDbEntity
67
0
8
0
6
Continuous
62
1
370
-1
100
AcDbLine
10
24.5732
20
-34.8519
30
0
11
14.5732
21
-34.8519
31
0
1001
PELICANU
1000
62BDFF1108BC365A
1000
LIGACAO
1000
-
0
LINE
5
37DD2
100
AcDbEntity
67
0
8
0
6
Continuous
62
1
370
-1
100
AcDbLine
10
-10.4268
20
-13.1293
30
0
11
-10.4268
21
-69.1293
31
0
1001
PELICANU
1000
62BDFF1108BD251E
1000
LIGACAO
1000
-
0
LWPOLYLINE
5
37DD3
100
AcDbEntity
67
0
8
0
6
Dashdot
62
3
370
-1
100
AcDbPolyline
90
4
70
1
10
113.167
20
-69.827
30
0
42
0
10
140.487
20
-69.827
30
0
42
0
10
140.487
20
-40.7122
30
0
42
0
10
113.167
20
-40.7122
30
0
1001
PELICANU
1000
62BDFF1108BE0438
1000
CAIXA
1000
COMPONENTE
0
TEXT
5
37DD4
100
AcDbEntity
67
0
8
0
6
Dashdot
62
3
370
-1
100
AcDbText
10
139.887
20
-41.3122
30
0
40
2
1
7T87P
50
0
7
Standard
72
2
11
139.887
21
-41.3122
31
0
100
AcDbText
73
3
1001
PELICANU
1000
62BDFF1108BF5AAD
1000
ROTULO
1000
CAIXA
0
LWPOLYLINE
5
37DD5
100
AcDbEntity
67
0
8
0
6
Continuous
62
3
370
-1
100
AcDbPolyline
90
4
70
1
10
130.254
20
-43.6122
30
0
42
0
10
140.187
20
-43.6122
30
0
42
0
10
140.187
20
-41.0122
30
0
42
0
10
130.254
20
-41.0122
30
0
0
LINE
5
37DD6
100
AcDbEntity
67
0
8
0
6
Continuous
62
1
370
-1
100
AcDbLine
10
-69.4268
20
-118.129
30
0
11
123.155
21
-118.129
31
0
1001
PELICANU
1000
62BDFF1108C05A38
1000
LIGACAO
1000
-
0
LINE
5
37DD7
100
AcDbEntity
67
0
8
0
6
Continuous
62
1
370
-1
100
AcDbLine
10
123.155
20
-118.129
30
0
11
123.155
21
-68.1293
31
0
1001
PELICANU
1000
62BDFF1108C17846
1000
LIGACAO
1000
-
0
LINE
5
37DD8
100
AcDbEntity
67
0
8
0
6
Continuous
62
1
370
-1
100
AcDbLine
10
-69.4268
20
31.8707
30
0
11
123.155
21
31.8707
31
0
1001
PELICANU
1000
62BDFF1108C217BA
1000
LIGACAO
1000
-
0
LINE
5
37DD9
100
AcDbEntity
67
0
8
0
6
Continuous
62
1
370
-1
100
AcDbLine
10
123.155
20
31.8707
30
0
11
123.155
21
-42.1293
31
0
1001
PELICANU
1000
62BDFF1108C31D70
1000
LIGACAO
1000
-
0
ENDSEC
0
SECTION
2
OBJECTS
0
DICTIONARY
5
22
100
AcDbDictionary
281
1
3
ACAD_COLOR
350
23
3
ACAD_GROUP
350
26
3
ACAD_LAYOUT
350
27
3
ACAD_MATERIAL
350
28
3
ACAD_MLINESTYLE
350
29
3
ACAD_PLOTSETTINGS
350
2A
3
ACAD_PLOTSTYLENAME
350
2B
3
ACAD_TABLESTYLE
350
2C
3
AcadDim
350
2D
0
DICTIONARY
5
23
100
AcDbDictionary
0
DICTIONARY
5
26
100
AcDbDictionary
0
DICTIONARY
5
27
100
AcDbDictionary
0
DICTIONARY
5
28
100
AcDbDictionary
0
DICTIONARY
5
29
100
AcDbDictionary
0
DICTIONARY
5
2A
100
AcDbDictionary
0
DICTIONARY
5
2B
100
AcDbDictionary
0
DICTIONARY
5
2C
100
AcDbDictionary
0
DICTIONARY
5
2D
100
AcDbDictionary
0
ENDSEC
0
EOF
