999
CadZinho - Minimalist CAD by Zecruel
0
SECTION
2
HEADER
9
$ACADVER
1
AC1021
9
$HANDSEED
5
A49
9
$INSUNITS
70
4
9
$LWDISPLAY
290
1
9
$LTSCALE
40
10
0
ENDSEC
0
SECTION
2
CLASSES
0
ENDSEC
0
SECTION
2
TABLES
0
TABLE
2
VPORT
5
1
100
AcDbSymbolTable
70
1000
0
VPORT
5
25
100
AcDbSymbolTableRecord
100
AcDbViewportTableRecord
2
*ACTIVE
70
0
10
0
20
0
11
1
21
1
12
20
22
320
13
0
23
0
14
100
24
100
15
100
25
100
16
0
26
0
36
1
17
0
27
0
37
0
40
25
41
1.8
42
50
43
0
44
0
50
0
51
0
0
ENDTAB
0
TABLE
2
LTYPE
5
4
100
AcDbSymbolTable
70
1000
0
LTYPE
5
5
100
AcDbSymbolTableRecord
100
AcDbLinetypeTableRecord
2
ByBlock
70
0
3

72
65
73
0
40
0
0
LTYPE
5
6
100
AcDbSymbolTableRecord
100
AcDbLinetypeTableRecord
2
ByLayer
70
0
3

72
65
73
0
40
0
0
LTYPE
5
7
100
AcDbSymbolTableRecord
100
AcDbLinetypeTableRecord
2
Continuous
70
0
3
___________________________________
72
65
73
0
40
0
0
LTYPE
5
8
100
AcDbSymbolTableRecord
100
AcDbLinetypeTableRecord
2
Border
70
0
3
____ . ____ ____ . ____ ____ . ____
72
65
73
6
40
1.75
49
0.5
74
0
49
-0.25
74
0
49
0.5
74
0
49
-0.25
74
0
49
0
74
0
49
-0.25
74
0
0
LTYPE
5
9
100
AcDbSymbolTableRecord
100
AcDbLinetypeTableRecord
2
Center
70
0
3
____ _ ____ _ ____ _ ____ _ ____ _
72
65
73
4
40
2
49
1.25
74
0
49
-0.25
74
0
49
0.25
74
0
49
-0.25
74
0
0
LTYPE
5
A
100
AcDbSymbolTableRecord
100
AcDbLinetypeTableRecord
2
Dashdot
70
0
3
____ . ____ . ____ . ____ . ____ .
72
65
73
4
40
1
49
0.5
74
0
49
-0.25
74
0
49
0
74
0
49
-0.25
74
0
0
LTYPE
5
B
100
AcDbSymbolTableRecord
100
AcDbLinetypeTableRecord
2
Dashed
70
0
3
____ ____ ____ ____ ____ ____ ____
72
65
73
2
40
0.75
49
0.5
74
0
49
-0.25
74
0
0
LTYPE
5
C
100
AcDbSymbolTableRecord
100
AcDbLinetypeTableRecord
2
Divide
70
0
3
____ . . ____ . . ____ . . ____ . .
72
65
73
6
40
1.25
49
0.5
74
0
49
-0.25
74
0
49
0
74
0
49
-0.25
74
0
49
0
74
0
49
-0.25
74
0
0
LTYPE
5
D
100
AcDbSymbolTableRecord
100
AcDbLinetypeTableRecord
2
Dot
70
0
3
. . . . . . . . . . . . . . . . . .
72
65
73
2
40
0.25
49
0
74
0
49
-0.25
74
0
0
LTYPE
5
E
100
AcDbSymbolTableRecord
100
AcDbLinetypeTableRecord
2
Hidden
70
0
3
__ __ __ __ __ __ __ __ __ __ __ __
72
65
73
2
40
0.375
49
0.25
74
0
49
-0.125
74
0
0
LTYPE
5
F
100
AcDbSymbolTableRecord
100
AcDbLinetypeTableRecord
2
Phantom
70
0
3
_____ _ _ _____ _ _ _____ _ _ _____
72
65
73
6
40
2.5
49
1.25
74
0
49
-0.25
74
0
49
0.25
74
0
49
-0.25
74
0
49
0.25
74
0
49
-0.25
74
0
0
LTYPE
5
53D
100
AcDbSymbolTableRecord
100
AcDbLinetypeTableRecord
2
Grid
70
0
3
. . . . . . . . . . . . . . . . . .
72
65
73
2
40
1.25
49
0
74
0
49
-1.25
74
0
0
ENDTAB
0
TABLE
2
LAYER
5
10
100
AcDbSymbolTable
70
1000
0
LAYER
5
11
100
AcDbSymbolTableRecord
100
AcDbLayerTableRecord
2
0
70
0
62
7
6
Continuous
370
0
390
2B
0
ENDTAB
0
TABLE
2
STYLE
5
12
100
AcDbSymbolTable
70
1000
0
STYLE
5
13
100
AcDbSymbolTableRecord
100
AcDbTextStyleTableRecord
2
Standard
70
0
40
0
41
1
50
0
71
0
42
1
3
TXT.SHX
4

0
STYLE
5
24
100
AcDbSymbolTableRecord
100
AcDbTextStyleTableRecord
2

70
1
40
0
41
1
50
0
71
0
42
1
3
LTYPESHP.SHX
4

0
ENDTAB
0
TABLE
2
VIEW
5
14
100
AcDbSymbolTable
70
0
0
ENDTAB
0
TABLE
2
UCS
5
15
100
AcDbSymbolTable
70
0
0
ENDTAB
0
TABLE
2
APPID
5
16
100
AcDbSymbolTable
70
10
0
APPID
5
17
100
AcDbSymbolTableRecord
100
AcDbRegAppTableRecord
2
ACAD
70
0
0
APPID
5
18
100
AcDbSymbolTableRecord
100
AcDbRegAppTableRecord
2
CADZINHO
70
0
0
ENDTAB
0
TABLE
2
DIMSTYLE
5
19
100
AcDbSymbolTable
70
1
100
AcDbDimStyleTable
71
1
0
DIMSTYLE
105
1A
100
AcDbSymbolTableRecord
100
AcDbDimStyleTableRecord
2
Standard
70
0
3
<>
5
OPEN30
40
1
41
1
42
0.5
44
1
140
1
144
1
147
0.5
77
1
271
2
340
13
0
ENDTAB
0
TABLE
2
BLOCK_RECORD
5
1B
100
AcDbSymbolTable
70
9999
0
BLOCK_RECORD
5
1C
100
AcDbSymbolTableRecord
100
AcDbBlockTableRecord
2
*Model_Space
70
0
0
BLOCK_RECORD
5
1D
100
AcDbSymbolTableRecord
100
AcDbBlockTableRecord
2
*Paper_Space
70
0
0
ENDTAB
0
ENDSEC
0
SECTION
2
BLOCKS
0
BLOCK
5
1E
100
AcDbEntity
8
0
100
AcDbBlockBegin
2
*Model_Space
70
0
10
0
20
0
30
0
3
*Model_Space
1

0
ENDBLK
5
1F
100
AcDbEntity
8
0
100
AcDbBlockEnd
0
BLOCK
5
20
100
AcDbEntity
8
0
100
AcDbBlockBegin
2
*Paper_Space
70
0
10
0
20
0
30
0
3
*Paper_Space
1

0
ENDBLK
5
21
100
AcDbEntity
8
0
100
AcDbBlockEnd
0
ENDSEC
0
SECTION
2
ENTITIES
0
LINE
5
53E
100
AcDbEntity
67
0
8
0
6
Grid
62
8
370
0
100
AcDbLine
10
-790
20
40
30
0
11
-765
21
40
31
0
0
LINE
5
53F
100
AcDbEntity
67
0
8
0
6
Grid
62
8
370
0
100
AcDbLine
10
-765
20
40
30
0
11
-765
21
15
31
0
0
LINE
5
540
100
AcDbEntity
67
0
8
0
6
Grid
62
8
370
0
100
AcDbLine
10
-765
20
15
30
0
11
-790
21
15
31
0
0
LINE
5
541
100
AcDbEntity
67
0
8
0
6
Grid
62
8
370
0
100
AcDbLine
10
-790
20
15
30
0
11
-790
21
40
31
0
0
LINE
5
542
100
AcDbEntity
67
0
8
0
6
Grid
62
8
370
0
100
AcDbLine
10
-765
20
40
30
0
11
-740
21
40
31
0
0
LINE
5
543
100
AcDbEntity
67
0
8
0
6
Grid
62
8
370
0
100
AcDbLine
10
-740
20
40
30
0
11
-740
21
15
31
0
0
LINE
5
544
100
AcDbEntity
67
0
8
0
6
Grid
62
8
370
0
100
AcDbLine
10
-740
20
15
30
0
11
-765
21
15
31
0
0
LINE
5
545
100
AcDbEntity
67
0
8
0
6
Grid
62
8
370
0
100
AcDbLine
10
-740
20
40
30
0
11
-715
21
40
31
0
0
LINE
5
546
100
AcDbEntity
67
0
8
0
6
Grid
62
8
370
0
100
AcDbLine
10
-715
20
40
30
0
11
-715
21
15
31
0
0
LINE
5
547
100
AcDbEntity
67
0
8
0
6
Grid
62
8
370
0
100
AcDbLine
10
-715
20
15
30
0
11
-740
21
15
31
0
0
LINE
5
548
100
AcDbEntity
67
0
8
0
6
Grid
62
8
370
0
100
AcDbLine
10
-715
20
40
30
0
11
-690
21
40
31
0
0
LINE
5
549
100
AcDbEntity
67
0
8
0
6
Grid
62
8
370
0
100
AcDbLine
10
-690
20
40
30
0
11
-690
21
15
31
0
0
LINE
5
54A
100
AcDbEntity
67
0
8
0
6
Grid
62
8
370
0
100
AcDbLine
10
-690
20
15
30
0
11
-715
21
15
31
0
0
LINE
5
54B
100
AcDbEntity
67
0
8
0
6
Grid
62
8
370
0
100
AcDbLine
10
-690
20
40
30
0
11
-665
21
40
31
0
0
LINE
5
54C
100
AcDbEntity
67
0
8
0
6
Grid
62
8
370
0
100
AcDbLine
10
-665
20
40
30
0
11
-665
21
15
31
0
0
LINE
5
54D
100
AcDbEntity
67
0
8
0
6
Grid
62
8
370
0
100
AcDbLine
10
-665
20
15
30
0
11
-690
21
15
31
0
0
LINE
5
54E
100
AcDbEntity
67
0
8
0
6
Grid
62
8
370
0
100
AcDbLine
10
-665
20
40
30
0
11
-640
21
40
31
0
0
LINE
5
54F
100
AcDbEntity
67
0
8
0
6
Grid
62
8
370
0
100
AcDbLine
10
-640
20
40
30
0
11
-640
21
15
31
0
0
LINE
5
550
100
AcDbEntity
67
0
8
0
6
Grid
62
8
370
0
100
AcDbLine
10
-640
20
15
30
0
11
-665
21
15
31
0
0
LINE
5
551
100
AcDbEntity
67
0
8
0
6
Grid
62
8
370
0
100
AcDbLine
10
-640
20
40
30
0
11
-615
21
40
31
0
0
LINE
5
552
100
AcDbEntity
67
0
8
0
6
Grid
62
8
370
0
100
AcDbLine
10
-615
20
40
30
0
11
-615
21
15
31
0
0
LINE
5
553
100
AcDbEntity
67
0
8
0
6
Grid
62
8
370
0
100
AcDbLine
10
-615
20
15
30
0
11
-640
21
15
31
0
0
LINE
5
554
100
AcDbEntity
67
0
8
0
6
Grid
62
8
370
0
100
AcDbLine
10
-615
20
40
30
0
11
-590
21
40
31
0
0
LINE
5
555
100
AcDbEntity
67
0
8
0
6
Grid
62
8
370
0
100
AcDbLine
10
-590
20
40
30
0
11
-590
21
15
31
0
0
LINE
5
556
100
AcDbEntity
67
0
8
0
6
Grid
62
8
370
0
100
AcDbLine
10
-590
20
15
30
0
11
-615
21
15
31
0
0
LINE
5
557
100
AcDbEntity
67
0
8
0
6
Grid
62
8
370
0
100
AcDbLine
10
-590
20
40
30
0
11
-565
21
40
31
0
0
LINE
5
558
100
AcDbEntity
67
0
8
0
6
Grid
62
8
370
0
100
AcDbLine
10
-565
20
40
30
0
11
-565
21
15
31
0
0
LINE
5
559
100
AcDbEntity
67
0
8
0
6
Grid
62
8
370
0
100
AcDbLine
10
-565
20
15
30
0
11
-590
21
15
31
0
0
LINE
5
55A
100
AcDbEntity
67
0
8
0
6
Grid
62
8
370
0
100
AcDbLine
10
-565
20
40
30
0
11
-540
21
40
31
0
0
LINE
5
55B
100
AcDbEntity
67
0
8
0
6
Grid
62
8
370
0
100
AcDbLine
10
-540
20
40
30
0
11
-540
21
15
31
0
0
LINE
5
55C
100
AcDbEntity
67
0
8
0
6
Grid
62
8
370
0
100
AcDbLine
10
-540
20
15
30
0
11
-565
21
15
31
0
0
LINE
5
55D
100
AcDbEntity
67
0
8
0
6
Grid
62
8
370
0
100
AcDbLine
10
-540
20
40
30
0
11
-515
21
40
31
0
0
LINE
5
55E
100
AcDbEntity
67
0
8
0
6
Grid
62
8
370
0
100
AcDbLine
10
-515
20
40
30
0
11
-515
21
15
31
0
0
LINE
5
55F
100
AcDbEntity
67
0
8
0
6
Grid
62
8
370
0
100
AcDbLine
10
-515
20
15
30
0
11
-540
21
15
31
0
0
LINE
5
560
100
AcDbEntity
67
0
8
0
6
Grid
62
8
370
0
100
AcDbLine
10
-515
20
40
30
0
11
-490
21
40
31
0
0
LINE
5
561
100
AcDbEntity
67
0
8
0
6
Grid
62
8
370
0
100
AcDbLine
10
-490
20
40
30
0
11
-490
21
15
31
0
0
LINE
5
562
100
AcDbEntity
67
0
8
0
6
Grid
62
8
370
0
100
AcDbLine
10
-490
20
15
30
0
11
-515
21
15
31
0
0
LINE
5
563
100
AcDbEntity
67
0
8
0
6
Grid
62
8
370
0
100
AcDbLine
10
-490
20
40
30
0
11
-465
21
40
31
0
0
LINE
5
564
100
AcDbEntity
67
0
8
0
6
Grid
62
8
370
0
100
AcDbLine
10
-465
20
40
30
0
11
-465
21
15
31
0
0
LINE
5
565
100
AcDbEntity
67
0
8
0
6
Grid
62
8
370
0
100
AcDbLine
10
-465
20
15
30
0
11
-490
21
15
31
0
0
LINE
5
566
100
AcDbEntity
67
0
8
0
6
Grid
62
8
370
0
100
AcDbLine
10
-465
20
40
30
0
11
-440
21
40
31
0
0
LINE
5
567
100
AcDbEntity
67
0
8
0
6
Grid
62
8
370
0
100
AcDbLine
10
-440
20
40
30
0
11
-440
21
15
31
0
0
LINE
5
568
100
AcDbEntity
67
0
8
0
6
Grid
62
8
370
0
100
AcDbLine
10
-440
20
15
30
0
11
-465
21
15
31
0
0
LINE
5
569
100
AcDbEntity
67
0
8
0
6
Grid
62
8
370
0
100
AcDbLine
10
-440
20
40
30
0
11
-415
21
40
31
0
0
LINE
5
56A
100
AcDbEntity
67
0
8
0
6
Grid
62
8
370
0
100
AcDbLine
10
-415
20
40
30
0
11
-415
21
15
31
0
0
LINE
5
56B
100
AcDbEntity
67
0
8
0
6
Grid
62
8
370
0
100
AcDbLine
10
-415
20
15
30
0
11
-440
21
15
31
0
0
LINE
5
56C
100
AcDbEntity
67
0
8
0
6
Grid
62
8
370
0
100
AcDbLine
10
-415
20
40
30
0
11
-390
21
40
31
0
0
LINE
5
56D
100
AcDbEntity
67
0
8
0
6
Grid
62
8
370
0
100
AcDbLine
10
-390
20
40
30
0
11
-390
21
15
31
0
0
LINE
5
56E
100
AcDbEntity
67
0
8
0
6
Grid
62
8
370
0
100
AcDbLine
10
-390
20
15
30
0
11
-415
21
15
31
0
0
LINE
5
56F
100
AcDbEntity
67
0
8
0
6
Grid
62
8
370
0
100
AcDbLine
10
-390
20
40
30
0
11
-365
21
40
31
0
0
LINE
5
570
100
AcDbEntity
67
0
8
0
6
Grid
62
8
370
0
100
AcDbLine
10
-365
20
40
30
0
11
-365
21
15
31
0
0
LINE
5
571
100
AcDbEntity
67
0
8
0
6
Grid
62
8
370
0
100
AcDbLine
10
-365
20
15
30
0
11
-390
21
15
31
0
0
LINE
5
572
100
AcDbEntity
67
0
8
0
6
Grid
62
8
370
0
100
AcDbLine
10
-365
20
40
30
0
11
-340
21
40
31
0
0
LINE
5
573
100
AcDbEntity
67
0
8
0
6
Grid
62
8
370
0
100
AcDbLine
10
-340
20
40
30
0
11
-340
21
15
31
0
0
LINE
5
574
100
AcDbEntity
67
0
8
0
6
Grid
62
8
370
0
100
AcDbLine
10
-340
20
15
30
0
11
-365
21
15
31
0
0
LINE
5
575
100
AcDbEntity
67
0
8
0
6
Grid
62
8
370
0
100
AcDbLine
10
-340
20
40
30
0
11
-315
21
40
31
0
0
LINE
5
576
100
AcDbEntity
67
0
8
0
6
Grid
62
8
370
0
100
AcDbLine
10
-315
20
40
30
0
11
-315
21
15
31
0
0
LINE
5
577
100
AcDbEntity
67
0
8
0
6
Grid
62
8
370
0
100
AcDbLine
10
-315
20
15
30
0
11
-340
21
15
31
0
0
LINE
5
578
100
AcDbEntity
67
0
8
0
6
Grid
62
8
370
0
100
AcDbLine
10
-315
20
40
30
0
11
-290
21
40
31
0
0
LINE
5
579
100
AcDbEntity
67
0
8
0
6
Grid
62
8
370
0
100
AcDbLine
10
-290
20
40
30
0
11
-290
21
15
31
0
0
LINE
5
57A
100
AcDbEntity
67
0
8
0
6
Grid
62
8
370
0
100
AcDbLine
10
-290
20
15
30
0
11
-315
21
15
31
0
0
LINE
5
57B
100
AcDbEntity
67
0
8
0
6
Grid
62
8
370
0
100
AcDbLine
10
-290
20
40
30
0
11
-265
21
40
31
0
0
LINE
5
57C
100
AcDbEntity
67
0
8
0
6
Grid
62
8
370
0
100
AcDbLine
10
-265
20
40
30
0
11
-265
21
15
31
0
0
LINE
5
57D
100
AcDbEntity
67
0
8
0
6
Grid
62
8
370
0
100
AcDbLine
10
-265
20
15
30
0
11
-290
21
15
31
0
0
LINE
5
57E
100
AcDbEntity
67
0
8
0
6
Grid
62
8
370
0
100
AcDbLine
10
-265
20
40
30
0
11
-240
21
40
31
0
0
LINE
5
57F
100
AcDbEntity
67
0
8
0
6
Grid
62
8
370
0
100
AcDbLine
10
-240
20
40
30
0
11
-240
21
15
31
0
0
LINE
5
580
100
AcDbEntity
67
0
8
0
6
Grid
62
8
370
0
100
AcDbLine
10
-240
20
15
30
0
11
-265
21
15
31
0
0
LINE
5
581
100
AcDbEntity
67
0
8
0
6
Grid
62
8
370
0
100
AcDbLine
10
-240
20
40
30
0
11
-215
21
40
31
0
0
LINE
5
582
100
AcDbEntity
67
0
8
0
6
Grid
62
8
370
0
100
AcDbLine
10
-215
20
40
30
0
11
-215
21
15
31
0
0
LINE
5
583
100
AcDbEntity
67
0
8
0
6
Grid
62
8
370
0
100
AcDbLine
10
-215
20
15
30
0
11
-240
21
15
31
0
0
LINE
5
584
100
AcDbEntity
67
0
8
0
6
Grid
62
8
370
0
100
AcDbLine
10
-215
20
40
30
0
11
-190
21
40
31
0
0
LINE
5
585
100
AcDbEntity
67
0
8
0
6
Grid
62
8
370
0
100
AcDbLine
10
-190
20
40
30
0
11
-190
21
15
31
0
0
LINE
5
586
100
AcDbEntity
67
0
8
0
6
Grid
62
8
370
0
100
AcDbLine
10
-190
20
15
30
0
11
-215
21
15
31
0
0
LINE
5
587
100
AcDbEntity
67
0
8
0
6
Grid
62
8
370
0
100
AcDbLine
10
-190
20
40
30
0
11
-165
21
40
31
0
0
LINE
5
588
100
AcDbEntity
67
0
8
0
6
Grid
62
8
370
0
100
AcDbLine
10
-165
20
40
30
0
11
-165
21
15
31
0
0
LINE
5
589
100
AcDbEntity
67
0
8
0
6
Grid
62
8
370
0
100
AcDbLine
10
-165
20
15
30
0
11
-190
21
15
31
0
0
LINE
5
58A
100
AcDbEntity
67
0
8
0
6
Grid
62
8
370
0
100
AcDbLine
10
-165
20
40
30
0
11
-140
21
40
31
0
0
LINE
5
58B
100
AcDbEntity
67
0
8
0
6
Grid
62
8
370
0
100
AcDbLine
10
-140
20
40
30
0
11
-140
21
15
31
0
0
LINE
5
58C
100
AcDbEntity
67
0
8
0
6
Grid
62
8
370
0
100
AcDbLine
10
-140
20
15
30
0
11
-165
21
15
31
0
0
LINE
5
58D
100
AcDbEntity
67
0
8
0
6
Grid
62
8
370
0
100
AcDbLine
10
-140
20
40
30
0
11
-115
21
40
31
0
0
LINE
5
58E
100
AcDbEntity
67
0
8
0
6
Grid
62
8
370
0
100
AcDbLine
10
-115
20
40
30
0
11
-115
21
15
31
0
0
LINE
5
58F
100
AcDbEntity
67
0
8
0
6
Grid
62
8
370
0
100
AcDbLine
10
-115
20
15
30
0
11
-140
21
15
31
0
0
LINE
5
590
100
AcDbEntity
67
0
8
0
6
Grid
62
8
370
0
100
AcDbLine
10
-115
20
40
30
0
11
-90
21
40
31
0
0
LINE
5
591
100
AcDbEntity
67
0
8
0
6
Grid
62
8
370
0
100
AcDbLine
10
-90
20
40
30
0
11
-90
21
15
31
0
0
LINE
5
592
100
AcDbEntity
67
0
8
0
6
Grid
62
8
370
0
100
AcDbLine
10
-90
20
15
30
0
11
-115
21
15
31
0
0
LINE
5
593
100
AcDbEntity
67
0
8
0
6
Grid
62
8
370
0
100
AcDbLine
10
-90
20
40
30
0
11
-65
21
40
31
0
0
LINE
5
594
100
AcDbEntity
67
0
8
0
6
Grid
62
8
370
0
100
AcDbLine
10
-65
20
40
30
0
11
-65
21
15
31
0
0
LINE
5
595
100
AcDbEntity
67
0
8
0
6
Grid
62
8
370
0
100
AcDbLine
10
-65
20
15
30
0
11
-90
21
15
31
0
0
LINE
5
596
100
AcDbEntity
67
0
8
0
6
Grid
62
8
370
0
100
AcDbLine
10
-65
20
40
30
0
11
-40
21
40
31
0
0
LINE
5
597
100
AcDbEntity
67
0
8
0
6
Grid
62
8
370
0
100
AcDbLine
10
-40
20
40
30
0
11
-40
21
15
31
0
0
LINE
5
598
100
AcDbEntity
67
0
8
0
6
Grid
62
8
370
0
100
AcDbLine
10
-40
20
15
30
0
11
-65
21
15
31
0
0
LINE
5
599
100
AcDbEntity
67
0
8
0
6
Grid
62
8
370
0
100
AcDbLine
10
-40
20
40
30
0
11
-15
21
40
31
0
0
LINE
5
59A
100
AcDbEntity
67
0
8
0
6
Grid
62
8
370
0
100
AcDbLine
10
-15
20
40
30
0
11
-15
21
15
31
0
0
LINE
5
59B
100
AcDbEntity
67
0
8
0
6
Grid
62
8
370
0
100
AcDbLine
10
-15
20
15
30
0
11
-40
21
15
31
0
0
LINE
5
59C
100
AcDbEntity
67
0
8
0
6
Grid
62
8
370
0
100
AcDbLine
10
-790
20
65
30
0
11
-765
21
65
31
0
0
LINE
5
59D
100
AcDbEntity
67
0
8
0
6
Grid
62
8
370
0
100
AcDbLine
10
-765
20
65
30
0
11
-765
21
40
31
0
0
LINE
5
59E
100
AcDbEntity
67
0
8
0
6
Grid
62
8
370
0
100
AcDbLine
10
-790
20
40
30
0
11
-790
21
65
31
0
0
LINE
5
59F
100
AcDbEntity
67
0
8
0
6
Grid
62
8
370
0
100
AcDbLine
10
-765
20
65
30
0
11
-740
21
65
31
0
0
LINE
5
5A0
100
AcDbEntity
67
0
8
0
6
Grid
62
8
370
0
100
AcDbLine
10
-740
20
65
30
0
11
-740
21
40
31
0
0
LINE
5
5A1
100
AcDbEntity
67
0
8
0
6
Grid
62
8
370
0
100
AcDbLine
10
-740
20
65
30
0
11
-715
21
65
31
0
0
LINE
5
5A2
100
AcDbEntity
67
0
8
0
6
Grid
62
8
370
0
100
AcDbLine
10
-715
20
65
30
0
11
-715
21
40
31
0
0
LINE
5
5A3
100
AcDbEntity
67
0
8
0
6
Grid
62
8
370
0
100
AcDbLine
10
-715
20
65
30
0
11
-690
21
65
31
0
0
LINE
5
5A4
100
AcDbEntity
67
0
8
0
6
Grid
62
8
370
0
100
AcDbLine
10
-690
20
65
30
0
11
-690
21
40
31
0
0
LINE
5
5A5
100
AcDbEntity
67
0
8
0
6
Grid
62
8
370
0
100
AcDbLine
10
-690
20
65
30
0
11
-665
21
65
31
0
0
LINE
5
5A6
100
AcDbEntity
67
0
8
0
6
Grid
62
8
370
0
100
AcDbLine
10
-665
20
65
30
0
11
-665
21
40
31
0
0
LINE
5
5A7
100
AcDbEntity
67
0
8
0
6
Grid
62
8
370
0
100
AcDbLine
10
-665
20
65
30
0
11
-640
21
65
31
0
0
LINE
5
5A8
100
AcDbEntity
67
0
8
0
6
Grid
62
8
370
0
100
AcDbLine
10
-640
20
65
30
0
11
-640
21
40
31
0
0
LINE
5
5A9
100
AcDbEntity
67
0
8
0
6
Grid
62
8
370
0
100
AcDbLine
10
-640
20
65
30
0
11
-615
21
65
31
0
0
LINE
5
5AA
100
AcDbEntity
67
0
8
0
6
Grid
62
8
370
0
100
AcDbLine
10
-615
20
65
30
0
11
-615
21
40
31
0
0
LINE
5
5AB
100
AcDbEntity
67
0
8
0
6
Grid
62
8
370
0
100
AcDbLine
10
-615
20
65
30
0
11
-590
21
65
31
0
0
LINE
5
5AC
100
AcDbEntity
67
0
8
0
6
Grid
62
8
370
0
100
AcDbLine
10
-590
20
65
30
0
11
-590
21
40
31
0
0
LINE
5
5AD
100
AcDbEntity
67
0
8
0
6
Grid
62
8
370
0
100
AcDbLine
10
-590
20
65
30
0
11
-565
21
65
31
0
0
LINE
5
5AE
100
AcDbEntity
67
0
8
0
6
Grid
62
8
370
0
100
AcDbLine
10
-565
20
65
30
0
11
-565
21
40
31
0
0
LINE
5
5AF
100
AcDbEntity
67
0
8
0
6
Grid
62
8
370
0
100
AcDbLine
10
-565
20
65
30
0
11
-540
21
65
31
0
0
LINE
5
5B0
100
AcDbEntity
67
0
8
0
6
Grid
62
8
370
0
100
AcDbLine
10
-540
20
65
30
0
11
-540
21
40
31
0
0
LINE
5
5B1
100
AcDbEntity
67
0
8
0
6
Grid
62
8
370
0
100
AcDbLine
10
-540
20
65
30
0
11
-515
21
65
31
0
0
LINE
5
5B2
100
AcDbEntity
67
0
8
0
6
Grid
62
8
370
0
100
AcDbLine
10
-515
20
65
30
0
11
-515
21
40
31
0
0
LINE
5
5B3
100
AcDbEntity
67
0
8
0
6
Grid
62
8
370
0
100
AcDbLine
10
-515
20
65
30
0
11
-490
21
65
31
0
0
LINE
5
5B4
100
AcDbEntity
67
0
8
0
6
Grid
62
8
370
0
100
AcDbLine
10
-490
20
65
30
0
11
-490
21
40
31
0
0
LINE
5
5B5
100
AcDbEntity
67
0
8
0
6
Grid
62
8
370
0
100
AcDbLine
10
-490
20
65
30
0
11
-465
21
65
31
0
0
LINE
5
5B6
100
AcDbEntity
67
0
8
0
6
Grid
62
8
370
0
100
AcDbLine
10
-465
20
65
30
0
11
-465
21
40
31
0
0
LINE
5
5B7
100
AcDbEntity
67
0
8
0
6
Grid
62
8
370
0
100
AcDbLine
10
-465
20
65
30
0
11
-440
21
65
31
0
0
LINE
5
5B8
100
AcDbEntity
67
0
8
0
6
Grid
62
8
370
0
100
AcDbLine
10
-440
20
65
30
0
11
-440
21
40
31
0
0
LINE
5
5B9
100
AcDbEntity
67
0
8
0
6
Grid
62
8
370
0
100
AcDbLine
10
-440
20
65
30
0
11
-415
21
65
31
0
0
LINE
5
5BA
100
AcDbEntity
67
0
8
0
6
Grid
62
8
370
0
100
AcDbLine
10
-415
20
65
30
0
11
-415
21
40
31
0
0
LINE
5
5BB
100
AcDbEntity
67
0
8
0
6
Grid
62
8
370
0
100
AcDbLine
10
-415
20
65
30
0
11
-390
21
65
31
0
0
LINE
5
5BC
100
AcDbEntity
67
0
8
0
6
Grid
62
8
370
0
100
AcDbLine
10
-390
20
65
30
0
11
-390
21
40
31
0
0
LINE
5
5BD
100
AcDbEntity
67
0
8
0
6
Grid
62
8
370
0
100
AcDbLine
10
-390
20
65
30
0
11
-365
21
65
31
0
0
LINE
5
5BE
100
AcDbEntity
67
0
8
0
6
Grid
62
8
370
0
100
AcDbLine
10
-365
20
65
30
0
11
-365
21
40
31
0
0
LINE
5
5BF
100
AcDbEntity
67
0
8
0
6
Grid
62
8
370
0
100
AcDbLine
10
-365
20
65
30
0
11
-340
21
65
31
0
0
LINE
5
5C0
100
AcDbEntity
67
0
8
0
6
Grid
62
8
370
0
100
AcDbLine
10
-340
20
65
30
0
11
-340
21
40
31
0
0
LINE
5
5C1
100
AcDbEntity
67
0
8
0
6
Grid
62
8
370
0
100
AcDbLine
10
-340
20
65
30
0
11
-315
21
65
31
0
0
LINE
5
5C2
100
AcDbEntity
67
0
8
0
6
Grid
62
8
370
0
100
AcDbLine
10
-315
20
65
30
0
11
-315
21
40
31
0
0
LINE
5
5C3
100
AcDbEntity
67
0
8
0
6
Grid
62
8
370
0
100
AcDbLine
10
-315
20
65
30
0
11
-290
21
65
31
0
0
LINE
5
5C4
100
AcDbEntity
67
0
8
0
6
Grid
62
8
370
0
100
AcDbLine
10
-290
20
65
30
0
11
-290
21
40
31
0
0
LINE
5
5C5
100
AcDbEntity
67
0
8
0
6
Grid
62
8
370
0
100
AcDbLine
10
-290
20
65
30
0
11
-265
21
65
31
0
0
LINE
5
5C6
100
AcDbEntity
67
0
8
0
6
Grid
62
8
370
0
100
AcDbLine
10
-265
20
65
30
0
11
-265
21
40
31
0
0
LINE
5
5C7
100
AcDbEntity
67
0
8
0
6
Grid
62
8
370
0
100
AcDbLine
10
-265
20
65
30
0
11
-240
21
65
31
0
0
LINE
5
5C8
100
AcDbEntity
67
0
8
0
6
Grid
62
8
370
0
100
AcDbLine
10
-240
20
65
30
0
11
-240
21
40
31
0
0
LINE
5
5C9
100
AcDbEntity
67
0
8
0
6
Grid
62
8
370
0
100
AcDbLine
10
-240
20
65
30
0
11
-215
21
65
31
0
0
LINE
5
5CA
100
AcDbEntity
67
0
8
0
6
Grid
62
8
370
0
100
AcDbLine
10
-215
20
65
30
0
11
-215
21
40
31
0
0
LINE
5
5CB
100
AcDbEntity
67
0
8
0
6
Grid
62
8
370
0
100
AcDbLine
10
-215
20
65
30
0
11
-190
21
65
31
0
0
LINE
5
5CC
100
AcDbEntity
67
0
8
0
6
Grid
62
8
370
0
100
AcDbLine
10
-190
20
65
30
0
11
-190
21
40
31
0
0
LINE
5
5CD
100
AcDbEntity
67
0
8
0
6
Grid
62
8
370
0
100
AcDbLine
10
-190
20
65
30
0
11
-165
21
65
31
0
0
LINE
5
5CE
100
AcDbEntity
67
0
8
0
6
Grid
62
8
370
0
100
AcDbLine
10
-165
20
65
30
0
11
-165
21
40
31
0
0
LINE
5
5CF
100
AcDbEntity
67
0
8
0
6
Grid
62
8
370
0
100
AcDbLine
10
-165
20
65
30
0
11
-140
21
65
31
0
0
LINE
5
5D0
100
AcDbEntity
67
0
8
0
6
Grid
62
8
370
0
100
AcDbLine
10
-140
20
65
30
0
11
-140
21
40
31
0
0
LINE
5
5D1
100
AcDbEntity
67
0
8
0
6
Grid
62
8
370
0
100
AcDbLine
10
-140
20
65
30
0
11
-115
21
65
31
0
0
LINE
5
5D2
100
AcDbEntity
67
0
8
0
6
Grid
62
8
370
0
100
AcDbLine
10
-115
20
65
30
0
11
-115
21
40
31
0
0
LINE
5
5D3
100
AcDbEntity
67
0
8
0
6
Grid
62
8
370
0
100
AcDbLine
10
-115
20
65
30
0
11
-90
21
65
31
0
0
LINE
5
5D4
100
AcDbEntity
67
0
8
0
6
Grid
62
8
370
0
100
AcDbLine
10
-90
20
65
30
0
11
-90
21
40
31
0
0
LINE
5
5D5
100
AcDbEntity
67
0
8
0
6
Grid
62
8
370
0
100
AcDbLine
10
-90
20
65
30
0
11
-65
21
65
31
0
0
LINE
5
5D6
100
AcDbEntity
67
0
8
0
6
Grid
62
8
370
0
100
AcDbLine
10
-65
20
65
30
0
11
-65
21
40
31
0
0
LINE
5
5D7
100
AcDbEntity
67
0
8
0
6
Grid
62
8
370
0
100
AcDbLine
10
-65
20
65
30
0
11
-40
21
65
31
0
0
LINE
5
5D8
100
AcDbEntity
67
0
8
0
6
Grid
62
8
370
0
100
AcDbLine
10
-40
20
65
30
0
11
-40
21
40
31
0
0
LINE
5
5D9
100
AcDbEntity
67
0
8
0
6
Grid
62
8
370
0
100
AcDbLine
10
-40
20
65
30
0
11
-15
21
65
31
0
0
LINE
5
5DA
100
AcDbEntity
67
0
8
0
6
Grid
62
8
370
0
100
AcDbLine
10
-15
20
65
30
0
11
-15
21
40
31
0
0
LINE
5
5DB
100
AcDbEntity
67
0
8
0
6
Grid
62
8
370
0
100
AcDbLine
10
-790
20
90
30
0
11
-765
21
90
31
0
0
LINE
5
5DC
100
AcDbEntity
67
0
8
0
6
Grid
62
8
370
0
100
AcDbLine
10
-765
20
90
30
0
11
-765
21
65
31
0
0
LINE
5
5DD
100
AcDbEntity
67
0
8
0
6
Grid
62
8
370
0
100
AcDbLine
10
-790
20
65
30
0
11
-790
21
90
31
0
0
LINE
5
5DE
100
AcDbEntity
67
0
8
0
6
Grid
62
8
370
0
100
AcDbLine
10
-765
20
90
30
0
11
-740
21
90
31
0
0
LINE
5
5DF
100
AcDbEntity
67
0
8
0
6
Grid
62
8
370
0
100
AcDbLine
10
-740
20
90
30
0
11
-740
21
65
31
0
0
LINE
5
5E0
100
AcDbEntity
67
0
8
0
6
Grid
62
8
370
0
100
AcDbLine
10
-740
20
90
30
0
11
-715
21
90
31
0
0
LINE
5
5E1
100
AcDbEntity
67
0
8
0
6
Grid
62
8
370
0
100
AcDbLine
10
-715
20
90
30
0
11
-715
21
65
31
0
0
LINE
5
5E2
100
AcDbEntity
67
0
8
0
6
Grid
62
8
370
0
100
AcDbLine
10
-715
20
90
30
0
11
-690
21
90
31
0
0
LINE
5
5E3
100
AcDbEntity
67
0
8
0
6
Grid
62
8
370
0
100
AcDbLine
10
-690
20
90
30
0
11
-690
21
65
31
0
0
LINE
5
5E4
100
AcDbEntity
67
0
8
0
6
Grid
62
8
370
0
100
AcDbLine
10
-690
20
90
30
0
11
-665
21
90
31
0
0
LINE
5
5E5
100
AcDbEntity
67
0
8
0
6
Grid
62
8
370
0
100
AcDbLine
10
-665
20
90
30
0
11
-665
21
65
31
0
0
LINE
5
5E6
100
AcDbEntity
67
0
8
0
6
Grid
62
8
370
0
100
AcDbLine
10
-665
20
90
30
0
11
-640
21
90
31
0
0
LINE
5
5E7
100
AcDbEntity
67
0
8
0
6
Grid
62
8
370
0
100
AcDbLine
10
-640
20
90
30
0
11
-640
21
65
31
0
0
LINE
5
5E8
100
AcDbEntity
67
0
8
0
6
Grid
62
8
370
0
100
AcDbLine
10
-640
20
90
30
0
11
-615
21
90
31
0
0
LINE
5
5E9
100
AcDbEntity
67
0
8
0
6
Grid
62
8
370
0
100
AcDbLine
10
-615
20
90
30
0
11
-615
21
65
31
0
0
LINE
5
5EA
100
AcDbEntity
67
0
8
0
6
Grid
62
8
370
0
100
AcDbLine
10
-615
20
90
30
0
11
-590
21
90
31
0
0
LINE
5
5EB
100
AcDbEntity
67
0
8
0
6
Grid
62
8
370
0
100
AcDbLine
10
-590
20
90
30
0
11
-590
21
65
31
0
0
LINE
5
5EC
100
AcDbEntity
67
0
8
0
6
Grid
62
8
370
0
100
AcDbLine
10
-590
20
90
30
0
11
-565
21
90
31
0
0
LINE
5
5ED
100
AcDbEntity
67
0
8
0
6
Grid
62
8
370
0
100
AcDbLine
10
-565
20
90
30
0
11
-565
21
65
31
0
0
LINE
5
5EE
100
AcDbEntity
67
0
8
0
6
Grid
62
8
370
0
100
AcDbLine
10
-565
20
90
30
0
11
-540
21
90
31
0
0
LINE
5
5EF
100
AcDbEntity
67
0
8
0
6
Grid
62
8
370
0
100
AcDbLine
10
-540
20
90
30
0
11
-540
21
65
31
0
0
LINE
5
5F0
100
AcDbEntity
67
0
8
0
6
Grid
62
8
370
0
100
AcDbLine
10
-540
20
90
30
0
11
-515
21
90
31
0
0
LINE
5
5F1
100
AcDbEntity
67
0
8
0
6
Grid
62
8
370
0
100
AcDbLine
10
-515
20
90
30
0
11
-515
21
65
31
0
0
LINE
5
5F2
100
AcDbEntity
67
0
8
0
6
Grid
62
8
370
0
100
AcDbLine
10
-515
20
90
30
0
11
-490
21
90
31
0
0
LINE
5
5F3
100
AcDbEntity
67
0
8
0
6
Grid
62
8
370
0
100
AcDbLine
10
-490
20
90
30
0
11
-490
21
65
31
0
0
LINE
5
5F4
100
AcDbEntity
67
0
8
0
6
Grid
62
8
370
0
100
AcDbLine
10
-490
20
90
30
0
11
-465
21
90
31
0
0
LINE
5
5F5
100
AcDbEntity
67
0
8
0
6
Grid
62
8
370
0
100
AcDbLine
10
-465
20
90
30
0
11
-465
21
65
31
0
0
LINE
5
5F6
100
AcDbEntity
67
0
8
0
6
Grid
62
8
370
0
100
AcDbLine
10
-465
20
90
30
0
11
-440
21
90
31
0
0
LINE
5
5F7
100
AcDbEntity
67
0
8
0
6
Grid
62
8
370
0
100
AcDbLine
10
-440
20
90
30
0
11
-440
21
65
31
0
0
LINE
5
5F8
100
AcDbEntity
67
0
8
0
6
Grid
62
8
370
0
100
AcDbLine
10
-440
20
90
30
0
11
-415
21
90
31
0
0
LINE
5
5F9
100
AcDbEntity
67
0
8
0
6
Grid
62
8
370
0
100
AcDbLine
10
-415
20
90
30
0
11
-415
21
65
31
0
0
LINE
5
5FA
100
AcDbEntity
67
0
8
0
6
Grid
62
8
370
0
100
AcDbLine
10
-415
20
90
30
0
11
-390
21
90
31
0
0
LINE
5
5FB
100
AcDbEntity
67
0
8
0
6
Grid
62
8
370
0
100
AcDbLine
10
-390
20
90
30
0
11
-390
21
65
31
0
0
LINE
5
5FC
100
AcDbEntity
67
0
8
0
6
Grid
62
8
370
0
100
AcDbLine
10
-390
20
90
30
0
11
-365
21
90
31
0
0
LINE
5
5FD
100
AcDbEntity
67
0
8
0
6
Grid
62
8
370
0
100
AcDbLine
10
-365
20
90
30
0
11
-365
21
65
31
0
0
LINE
5
5FE
100
AcDbEntity
67
0
8
0
6
Grid
62
8
370
0
100
AcDbLine
10
-365
20
90
30
0
11
-340
21
90
31
0
0
LINE
5
5FF
100
AcDbEntity
67
0
8
0
6
Grid
62
8
370
0
100
AcDbLine
10
-340
20
90
30
0
11
-340
21
65
31
0
0
LINE
5
600
100
AcDbEntity
67
0
8
0
6
Grid
62
8
370
0
100
AcDbLine
10
-340
20
90
30
0
11
-315
21
90
31
0
0
LINE
5
601
100
AcDbEntity
67
0
8
0
6
Grid
62
8
370
0
100
AcDbLine
10
-315
20
90
30
0
11
-315
21
65
31
0
0
LINE
5
602
100
AcDbEntity
67
0
8
0
6
Grid
62
8
370
0
100
AcDbLine
10
-315
20
90
30
0
11
-290
21
90
31
0
0
LINE
5
603
100
AcDbEntity
67
0
8
0
6
Grid
62
8
370
0
100
AcDbLine
10
-290
20
90
30
0
11
-290
21
65
31
0
0
LINE
5
604
100
AcDbEntity
67
0
8
0
6
Grid
62
8
370
0
100
AcDbLine
10
-290
20
90
30
0
11
-265
21
90
31
0
0
LINE
5
605
100
AcDbEntity
67
0
8
0
6
Grid
62
8
370
0
100
AcDbLine
10
-265
20
90
30
0
11
-265
21
65
31
0
0
LINE
5
606
100
AcDbEntity
67
0
8
0
6
Grid
62
8
370
0
100
AcDbLine
10
-265
20
90
30
0
11
-240
21
90
31
0
0
LINE
5
607
100
AcDbEntity
67
0
8
0
6
Grid
62
8
370
0
100
AcDbLine
10
-240
20
90
30
0
11
-240
21
65
31
0
0
LINE
5
608
100
AcDbEntity
67
0
8
0
6
Grid
62
8
370
0
100
AcDbLine
10
-240
20
90
30
0
11
-215
21
90
31
0
0
LINE
5
609
100
AcDbEntity
67
0
8
0
6
Grid
62
8
370
0
100
AcDbLine
10
-215
20
90
30
0
11
-215
21
65
31
0
0
LINE
5
60A
100
AcDbEntity
67
0
8
0
6
Grid
62
8
370
0
100
AcDbLine
10
-215
20
90
30
0
11
-190
21
90
31
0
0
LINE
5
60B
100
AcDbEntity
67
0
8
0
6
Grid
62
8
370
0
100
AcDbLine
10
-190
20
90
30
0
11
-190
21
65
31
0
0
LINE
5
60C
100
AcDbEntity
67
0
8
0
6
Grid
62
8
370
0
100
AcDbLine
10
-190
20
90
30
0
11
-165
21
90
31
0
0
LINE
5
60D
100
AcDbEntity
67
0
8
0
6
Grid
62
8
370
0
100
AcDbLine
10
-165
20
90
30
0
11
-165
21
65
31
0
0
LINE
5
60E
100
AcDbEntity
67
0
8
0
6
Grid
62
8
370
0
100
AcDbLine
10
-165
20
90
30
0
11
-140
21
90
31
0
0
LINE
5
60F
100
AcDbEntity
67
0
8
0
6
Grid
62
8
370
0
100
AcDbLine
10
-140
20
90
30
0
11
-140
21
65
31
0
0
LINE
5
610
100
AcDbEntity
67
0
8
0
6
Grid
62
8
370
0
100
AcDbLine
10
-140
20
90
30
0
11
-115
21
90
31
0
0
LINE
5
611
100
AcDbEntity
67
0
8
0
6
Grid
62
8
370
0
100
AcDbLine
10
-115
20
90
30
0
11
-115
21
65
31
0
0
LINE
5
612
100
AcDbEntity
67
0
8
0
6
Grid
62
8
370
0
100
AcDbLine
10
-115
20
90
30
0
11
-90
21
90
31
0
0
LINE
5
613
100
AcDbEntity
67
0
8
0
6
Grid
62
8
370
0
100
AcDbLine
10
-90
20
90
30
0
11
-90
21
65
31
0
0
LINE
5
614
100
AcDbEntity
67
0
8
0
6
Grid
62
8
370
0
100
AcDbLine
10
-90
20
90
30
0
11
-65
21
90
31
0
0
LINE
5
615
100
AcDbEntity
67
0
8
0
6
Grid
62
8
370
0
100
AcDbLine
10
-65
20
90
30
0
11
-65
21
65
31
0
0
LINE
5
616
100
AcDbEntity
67
0
8
0
6
Grid
62
8
370
0
100
AcDbLine
10
-65
20
90
30
0
11
-40
21
90
31
0
0
LINE
5
617
100
AcDbEntity
67
0
8
0
6
Grid
62
8
370
0
100
AcDbLine
10
-40
20
90
30
0
11
-40
21
65
31
0
0
LINE
5
618
100
AcDbEntity
67
0
8
0
6
Grid
62
8
370
0
100
AcDbLine
10
-40
20
90
30
0
11
-15
21
90
31
0
0
LINE
5
619
100
AcDbEntity
67
0
8
0
6
Grid
62
8
370
0
100
AcDbLine
10
-15
20
90
30
0
11
-15
21
65
31
0
0
LINE
5
61A
100
AcDbEntity
67
0
8
0
6
Grid
62
8
370
0
100
AcDbLine
10
-790
20
115
30
0
11
-765
21
115
31
0
0
LINE
5
61B
100
AcDbEntity
67
0
8
0
6
Grid
62
8
370
0
100
AcDbLine
10
-765
20
115
30
0
11
-765
21
90
31
0
0
LINE
5
61C
100
AcDbEntity
67
0
8
0
6
Grid
62
8
370
0
100
AcDbLine
10
-790
20
90
30
0
11
-790
21
115
31
0
0
LINE
5
61D
100
AcDbEntity
67
0
8
0
6
Grid
62
8
370
0
100
AcDbLine
10
-765
20
115
30
0
11
-740
21
115
31
0
0
LINE
5
61E
100
AcDbEntity
67
0
8
0
6
Grid
62
8
370
0
100
AcDbLine
10
-740
20
115
30
0
11
-740
21
90
31
0
0
LINE
5
61F
100
AcDbEntity
67
0
8
0
6
Grid
62
8
370
0
100
AcDbLine
10
-740
20
115
30
0
11
-715
21
115
31
0
0
LINE
5
620
100
AcDbEntity
67
0
8
0
6
Grid
62
8
370
0
100
AcDbLine
10
-715
20
115
30
0
11
-715
21
90
31
0
0
LINE
5
621
100
AcDbEntity
67
0
8
0
6
Grid
62
8
370
0
100
AcDbLine
10
-715
20
115
30
0
11
-690
21
115
31
0
0
LINE
5
622
100
AcDbEntity
67
0
8
0
6
Grid
62
8
370
0
100
AcDbLine
10
-690
20
115
30
0
11
-690
21
90
31
0
0
LINE
5
623
100
AcDbEntity
67
0
8
0
6
Grid
62
8
370
0
100
AcDbLine
10
-690
20
115
30
0
11
-665
21
115
31
0
0
LINE
5
624
100
AcDbEntity
67
0
8
0
6
Grid
62
8
370
0
100
AcDbLine
10
-665
20
115
30
0
11
-665
21
90
31
0
0
LINE
5
625
100
AcDbEntity
67
0
8
0
6
Grid
62
8
370
0
100
AcDbLine
10
-665
20
115
30
0
11
-640
21
115
31
0
0
LINE
5
626
100
AcDbEntity
67
0
8
0
6
Grid
62
8
370
0
100
AcDbLine
10
-640
20
115
30
0
11
-640
21
90
31
0
0
LINE
5
627
100
AcDbEntity
67
0
8
0
6
Grid
62
8
370
0
100
AcDbLine
10
-640
20
115
30
0
11
-615
21
115
31
0
0
LINE
5
628
100
AcDbEntity
67
0
8
0
6
Grid
62
8
370
0
100
AcDbLine
10
-615
20
115
30
0
11
-615
21
90
31
0
0
LINE
5
629
100
AcDbEntity
67
0
8
0
6
Grid
62
8
370
0
100
AcDbLine
10
-615
20
115
30
0
11
-590
21
115
31
0
0
LINE
5
62A
100
AcDbEntity
67
0
8
0
6
Grid
62
8
370
0
100
AcDbLine
10
-590
20
115
30
0
11
-590
21
90
31
0
0
LINE
5
62B
100
AcDbEntity
67
0
8
0
6
Grid
62
8
370
0
100
AcDbLine
10
-590
20
115
30
0
11
-565
21
115
31
0
0
LINE
5
62C
100
AcDbEntity
67
0
8
0
6
Grid
62
8
370
0
100
AcDbLine
10
-565
20
115
30
0
11
-565
21
90
31
0
0
LINE
5
62D
100
AcDbEntity
67
0
8
0
6
Grid
62
8
370
0
100
AcDbLine
10
-565
20
115
30
0
11
-540
21
115
31
0
0
LINE
5
62E
100
AcDbEntity
67
0
8
0
6
Grid
62
8
370
0
100
AcDbLine
10
-540
20
115
30
0
11
-540
21
90
31
0
0
LINE
5
62F
100
AcDbEntity
67
0
8
0
6
Grid
62
8
370
0
100
AcDbLine
10
-540
20
115
30
0
11
-515
21
115
31
0
0
LINE
5
630
100
AcDbEntity
67
0
8
0
6
Grid
62
8
370
0
100
AcDbLine
10
-515
20
115
30
0
11
-515
21
90
31
0
0
LINE
5
631
100
AcDbEntity
67
0
8
0
6
Grid
62
8
370
0
100
AcDbLine
10
-515
20
115
30
0
11
-490
21
115
31
0
0
LINE
5
632
100
AcDbEntity
67
0
8
0
6
Grid
62
8
370
0
100
AcDbLine
10
-490
20
115
30
0
11
-490
21
90
31
0
0
LINE
5
633
100
AcDbEntity
67
0
8
0
6
Grid
62
8
370
0
100
AcDbLine
10
-490
20
115
30
0
11
-465
21
115
31
0
0
LINE
5
634
100
AcDbEntity
67
0
8
0
6
Grid
62
8
370
0
100
AcDbLine
10
-465
20
115
30
0
11
-465
21
90
31
0
0
LINE
5
635
100
AcDbEntity
67
0
8
0
6
Grid
62
8
370
0
100
AcDbLine
10
-465
20
115
30
0
11
-440
21
115
31
0
0
LINE
5
636
100
AcDbEntity
67
0
8
0
6
Grid
62
8
370
0
100
AcDbLine
10
-440
20
115
30
0
11
-440
21
90
31
0
0
LINE
5
637
100
AcDbEntity
67
0
8
0
6
Grid
62
8
370
0
100
AcDbLine
10
-440
20
115
30
0
11
-415
21
115
31
0
0
LINE
5
638
100
AcDbEntity
67
0
8
0
6
Grid
62
8
370
0
100
AcDbLine
10
-415
20
115
30
0
11
-415
21
90
31
0
0
LINE
5
639
100
AcDbEntity
67
0
8
0
6
Grid
62
8
370
0
100
AcDbLine
10
-415
20
115
30
0
11
-390
21
115
31
0
0
LINE
5
63A
100
AcDbEntity
67
0
8
0
6
Grid
62
8
370
0
100
AcDbLine
10
-390
20
115
30
0
11
-390
21
90
31
0
0
LINE
5
63B
100
AcDbEntity
67
0
8
0
6
Grid
62
8
370
0
100
AcDbLine
10
-390
20
115
30
0
11
-365
21
115
31
0
0
LINE
5
63C
100
AcDbEntity
67
0
8
0
6
Grid
62
8
370
0
100
AcDbLine
10
-365
20
115
30
0
11
-365
21
90
31
0
0
LINE
5
63D
100
AcDbEntity
67
0
8
0
6
Grid
62
8
370
0
100
AcDbLine
10
-365
20
115
30
0
11
-340
21
115
31
0
0
LINE
5
63E
100
AcDbEntity
67
0
8
0
6
Grid
62
8
370
0
100
AcDbLine
10
-340
20
115
30
0
11
-340
21
90
31
0
0
LINE
5
63F
100
AcDbEntity
67
0
8
0
6
Grid
62
8
370
0
100
AcDbLine
10
-340
20
115
30
0
11
-315
21
115
31
0
0
LINE
5
640
100
AcDbEntity
67
0
8
0
6
Grid
62
8
370
0
100
AcDbLine
10
-315
20
115
30
0
11
-315
21
90
31
0
0
LINE
5
641
100
AcDbEntity
67
0
8
0
6
Grid
62
8
370
0
100
AcDbLine
10
-315
20
115
30
0
11
-290
21
115
31
0
0
LINE
5
642
100
AcDbEntity
67
0
8
0
6
Grid
62
8
370
0
100
AcDbLine
10
-290
20
115
30
0
11
-290
21
90
31
0
0
LINE
5
643
100
AcDbEntity
67
0
8
0
6
Grid
62
8
370
0
100
AcDbLine
10
-290
20
115
30
0
11
-265
21
115
31
0
0
LINE
5
644
100
AcDbEntity
67
0
8
0
6
Grid
62
8
370
0
100
AcDbLine
10
-265
20
115
30
0
11
-265
21
90
31
0
0
LINE
5
645
100
AcDbEntity
67
0
8
0
6
Grid
62
8
370
0
100
AcDbLine
10
-265
20
115
30
0
11
-240
21
115
31
0
0
LINE
5
646
100
AcDbEntity
67
0
8
0
6
Grid
62
8
370
0
100
AcDbLine
10
-240
20
115
30
0
11
-240
21
90
31
0
0
LINE
5
647
100
AcDbEntity
67
0
8
0
6
Grid
62
8
370
0
100
AcDbLine
10
-240
20
115
30
0
11
-215
21
115
31
0
0
LINE
5
648
100
AcDbEntity
67
0
8
0
6
Grid
62
8
370
0
100
AcDbLine
10
-215
20
115
30
0
11
-215
21
90
31
0
0
LINE
5
649
100
AcDbEntity
67
0
8
0
6
Grid
62
8
370
0
100
AcDbLine
10
-215
20
115
30
0
11
-190
21
115
31
0
0
LINE
5
64A
100
AcDbEntity
67
0
8
0
6
Grid
62
8
370
0
100
AcDbLine
10
-190
20
115
30
0
11
-190
21
90
31
0
0
LINE
5
64B
100
AcDbEntity
67
0
8
0
6
Grid
62
8
370
0
100
AcDbLine
10
-190
20
115
30
0
11
-165
21
115
31
0
0
LINE
5
64C
100
AcDbEntity
67
0
8
0
6
Grid
62
8
370
0
100
AcDbLine
10
-165
20
115
30
0
11
-165
21
90
31
0
0
LINE
5
64D
100
AcDbEntity
67
0
8
0
6
Grid
62
8
370
0
100
AcDbLine
10
-165
20
115
30
0
11
-140
21
115
31
0
0
LINE
5
64E
100
AcDbEntity
67
0
8
0
6
Grid
62
8
370
0
100
AcDbLine
10
-140
20
115
30
0
11
-140
21
90
31
0
0
LINE
5
64F
100
AcDbEntity
67
0
8
0
6
Grid
62
8
370
0
100
AcDbLine
10
-140
20
115
30
0
11
-115
21
115
31
0
0
LINE
5
650
100
AcDbEntity
67
0
8
0
6
Grid
62
8
370
0
100
AcDbLine
10
-115
20
115
30
0
11
-115
21
90
31
0
0
LINE
5
651
100
AcDbEntity
67
0
8
0
6
Grid
62
8
370
0
100
AcDbLine
10
-115
20
115
30
0
11
-90
21
115
31
0
0
LINE
5
652
100
AcDbEntity
67
0
8
0
6
Grid
62
8
370
0
100
AcDbLine
10
-90
20
115
30
0
11
-90
21
90
31
0
0
LINE
5
653
100
AcDbEntity
67
0
8
0
6
Grid
62
8
370
0
100
AcDbLine
10
-90
20
115
30
0
11
-65
21
115
31
0
0
LINE
5
654
100
AcDbEntity
67
0
8
0
6
Grid
62
8
370
0
100
AcDbLine
10
-65
20
115
30
0
11
-65
21
90
31
0
0
LINE
5
655
100
AcDbEntity
67
0
8
0
6
Grid
62
8
370
0
100
AcDbLine
10
-65
20
115
30
0
11
-40
21
115
31
0
0
LINE
5
656
100
AcDbEntity
67
0
8
0
6
Grid
62
8
370
0
100
AcDbLine
10
-40
20
115
30
0
11
-40
21
90
31
0
0
LINE
5
657
100
AcDbEntity
67
0
8
0
6
Grid
62
8
370
0
100
AcDbLine
10
-40
20
115
30
0
11
-15
21
115
31
0
0
LINE
5
658
100
AcDbEntity
67
0
8
0
6
Grid
62
8
370
0
100
AcDbLine
10
-15
20
115
30
0
11
-15
21
90
31
0
0
LINE
5
659
100
AcDbEntity
67
0
8
0
6
Grid
62
8
370
0
100
AcDbLine
10
-790
20
140
30
0
11
-765
21
140
31
0
0
LINE
5
65A
100
AcDbEntity
67
0
8
0
6
Grid
62
8
370
0
100
AcDbLine
10
-765
20
140
30
0
11
-765
21
115
31
0
0
LINE
5
65B
100
AcDbEntity
67
0
8
0
6
Grid
62
8
370
0
100
AcDbLine
10
-790
20
115
30
0
11
-790
21
140
31
0
0
LINE
5
65C
100
AcDbEntity
67
0
8
0
6
Grid
62
8
370
0
100
AcDbLine
10
-765
20
140
30
0
11
-740
21
140
31
0
0
LINE
5
65D
100
AcDbEntity
67
0
8
0
6
Grid
62
8
370
0
100
AcDbLine
10
-740
20
140
30
0
11
-740
21
115
31
0
0
LINE
5
65E
100
AcDbEntity
67
0
8
0
6
Grid
62
8
370
0
100
AcDbLine
10
-740
20
140
30
0
11
-715
21
140
31
0
0
LINE
5
65F
100
AcDbEntity
67
0
8
0
6
Grid
62
8
370
0
100
AcDbLine
10
-715
20
140
30
0
11
-715
21
115
31
0
0
LINE
5
660
100
AcDbEntity
67
0
8
0
6
Grid
62
8
370
0
100
AcDbLine
10
-715
20
140
30
0
11
-690
21
140
31
0
0
LINE
5
661
100
AcDbEntity
67
0
8
0
6
Grid
62
8
370
0
100
AcDbLine
10
-690
20
140
30
0
11
-690
21
115
31
0
0
LINE
5
662
100
AcDbEntity
67
0
8
0
6
Grid
62
8
370
0
100
AcDbLine
10
-690
20
140
30
0
11
-665
21
140
31
0
0
LINE
5
663
100
AcDbEntity
67
0
8
0
6
Grid
62
8
370
0
100
AcDbLine
10
-665
20
140
30
0
11
-665
21
115
31
0
0
LINE
5
664
100
AcDbEntity
67
0
8
0
6
Grid
62
8
370
0
100
AcDbLine
10
-665
20
140
30
0
11
-640
21
140
31
0
0
LINE
5
665
100
AcDbEntity
67
0
8
0
6
Grid
62
8
370
0
100
AcDbLine
10
-640
20
140
30
0
11
-640
21
115
31
0
0
LINE
5
666
100
AcDbEntity
67
0
8
0
6
Grid
62
8
370
0
100
AcDbLine
10
-640
20
140
30
0
11
-615
21
140
31
0
0
LINE
5
667
100
AcDbEntity
67
0
8
0
6
Grid
62
8
370
0
100
AcDbLine
10
-615
20
140
30
0
11
-615
21
115
31
0
0
LINE
5
668
100
AcDbEntity
67
0
8
0
6
Grid
62
8
370
0
100
AcDbLine
10
-615
20
140
30
0
11
-590
21
140
31
0
0
LINE
5
669
100
AcDbEntity
67
0
8
0
6
Grid
62
8
370
0
100
AcDbLine
10
-590
20
140
30
0
11
-590
21
115
31
0
0
LINE
5
66A
100
AcDbEntity
67
0
8
0
6
Grid
62
8
370
0
100
AcDbLine
10
-590
20
140
30
0
11
-565
21
140
31
0
0
LINE
5
66B
100
AcDbEntity
67
0
8
0
6
Grid
62
8
370
0
100
AcDbLine
10
-565
20
140
30
0
11
-565
21
115
31
0
0
LINE
5
66C
100
AcDbEntity
67
0
8
0
6
Grid
62
8
370
0
100
AcDbLine
10
-565
20
140
30
0
11
-540
21
140
31
0
0
LINE
5
66D
100
AcDbEntity
67
0
8
0
6
Grid
62
8
370
0
100
AcDbLine
10
-540
20
140
30
0
11
-540
21
115
31
0
0
LINE
5
66E
100
AcDbEntity
67
0
8
0
6
Grid
62
8
370
0
100
AcDbLine
10
-540
20
140
30
0
11
-515
21
140
31
0
0
LINE
5
66F
100
AcDbEntity
67
0
8
0
6
Grid
62
8
370
0
100
AcDbLine
10
-515
20
140
30
0
11
-515
21
115
31
0
0
LINE
5
670
100
AcDbEntity
67
0
8
0
6
Grid
62
8
370
0
100
AcDbLine
10
-515
20
140
30
0
11
-490
21
140
31
0
0
LINE
5
671
100
AcDbEntity
67
0
8
0
6
Grid
62
8
370
0
100
AcDbLine
10
-490
20
140
30
0
11
-490
21
115
31
0
0
LINE
5
672
100
AcDbEntity
67
0
8
0
6
Grid
62
8
370
0
100
AcDbLine
10
-490
20
140
30
0
11
-465
21
140
31
0
0
LINE
5
673
100
AcDbEntity
67
0
8
0
6
Grid
62
8
370
0
100
AcDbLine
10
-465
20
140
30
0
11
-465
21
115
31
0
0
LINE
5
674
100
AcDbEntity
67
0
8
0
6
Grid
62
8
370
0
100
AcDbLine
10
-465
20
140
30
0
11
-440
21
140
31
0
0
LINE
5
675
100
AcDbEntity
67
0
8
0
6
Grid
62
8
370
0
100
AcDbLine
10
-440
20
140
30
0
11
-440
21
115
31
0
0
LINE
5
676
100
AcDbEntity
67
0
8
0
6
Grid
62
8
370
0
100
AcDbLine
10
-440
20
140
30
0
11
-415
21
140
31
0
0
LINE
5
677
100
AcDbEntity
67
0
8
0
6
Grid
62
8
370
0
100
AcDbLine
10
-415
20
140
30
0
11
-415
21
115
31
0
0
LINE
5
678
100
AcDbEntity
67
0
8
0
6
Grid
62
8
370
0
100
AcDbLine
10
-415
20
140
30
0
11
-390
21
140
31
0
0
LINE
5
679
100
AcDbEntity
67
0
8
0
6
Grid
62
8
370
0
100
AcDbLine
10
-390
20
140
30
0
11
-390
21
115
31
0
0
LINE
5
67A
100
AcDbEntity
67
0
8
0
6
Grid
62
8
370
0
100
AcDbLine
10
-390
20
140
30
0
11
-365
21
140
31
0
0
LINE
5
67B
100
AcDbEntity
67
0
8
0
6
Grid
62
8
370
0
100
AcDbLine
10
-365
20
140
30
0
11
-365
21
115
31
0
0
LINE
5
67C
100
AcDbEntity
67
0
8
0
6
Grid
62
8
370
0
100
AcDbLine
10
-365
20
140
30
0
11
-340
21
140
31
0
0
LINE
5
67D
100
AcDbEntity
67
0
8
0
6
Grid
62
8
370
0
100
AcDbLine
10
-340
20
140
30
0
11
-340
21
115
31
0
0
LINE
5
67E
100
AcDbEntity
67
0
8
0
6
Grid
62
8
370
0
100
AcDbLine
10
-340
20
140
30
0
11
-315
21
140
31
0
0
LINE
5
67F
100
AcDbEntity
67
0
8
0
6
Grid
62
8
370
0
100
AcDbLine
10
-315
20
140
30
0
11
-315
21
115
31
0
0
LINE
5
680
100
AcDbEntity
67
0
8
0
6
Grid
62
8
370
0
100
AcDbLine
10
-315
20
140
30
0
11
-290
21
140
31
0
0
LINE
5
681
100
AcDbEntity
67
0
8
0
6
Grid
62
8
370
0
100
AcDbLine
10
-290
20
140
30
0
11
-290
21
115
31
0
0
LINE
5
682
100
AcDbEntity
67
0
8
0
6
Grid
62
8
370
0
100
AcDbLine
10
-290
20
140
30
0
11
-265
21
140
31
0
0
LINE
5
683
100
AcDbEntity
67
0
8
0
6
Grid
62
8
370
0
100
AcDbLine
10
-265
20
140
30
0
11
-265
21
115
31
0
0
LINE
5
684
100
AcDbEntity
67
0
8
0
6
Grid
62
8
370
0
100
AcDbLine
10
-265
20
140
30
0
11
-240
21
140
31
0
0
LINE
5
685
100
AcDbEntity
67
0
8
0
6
Grid
62
8
370
0
100
AcDbLine
10
-240
20
140
30
0
11
-240
21
115
31
0
0
LINE
5
686
100
AcDbEntity
67
0
8
0
6
Grid
62
8
370
0
100
AcDbLine
10
-240
20
140
30
0
11
-215
21
140
31
0
0
LINE
5
687
100
AcDbEntity
67
0
8
0
6
Grid
62
8
370
0
100
AcDbLine
10
-215
20
140
30
0
11
-215
21
115
31
0
0
LINE
5
688
100
AcDbEntity
67
0
8
0
6
Grid
62
8
370
0
100
AcDbLine
10
-215
20
140
30
0
11
-190
21
140
31
0
0
LINE
5
689
100
AcDbEntity
67
0
8
0
6
Grid
62
8
370
0
100
AcDbLine
10
-190
20
140
30
0
11
-190
21
115
31
0
0
LINE
5
68A
100
AcDbEntity
67
0
8
0
6
Grid
62
8
370
0
100
AcDbLine
10
-190
20
140
30
0
11
-165
21
140
31
0
0
LINE
5
68B
100
AcDbEntity
67
0
8
0
6
Grid
62
8
370
0
100
AcDbLine
10
-165
20
140
30
0
11
-165
21
115
31
0
0
LINE
5
68C
100
AcDbEntity
67
0
8
0
6
Grid
62
8
370
0
100
AcDbLine
10
-165
20
140
30
0
11
-140
21
140
31
0
0
LINE
5
68D
100
AcDbEntity
67
0
8
0
6
Grid
62
8
370
0
100
AcDbLine
10
-140
20
140
30
0
11
-140
21
115
31
0
0
LINE
5
68E
100
AcDbEntity
67
0
8
0
6
Grid
62
8
370
0
100
AcDbLine
10
-140
20
140
30
0
11
-115
21
140
31
0
0
LINE
5
68F
100
AcDbEntity
67
0
8
0
6
Grid
62
8
370
0
100
AcDbLine
10
-115
20
140
30
0
11
-115
21
115
31
0
0
LINE
5
690
100
AcDbEntity
67
0
8
0
6
Grid
62
8
370
0
100
AcDbLine
10
-115
20
140
30
0
11
-90
21
140
31
0
0
LINE
5
691
100
AcDbEntity
67
0
8
0
6
Grid
62
8
370
0
100
AcDbLine
10
-90
20
140
30
0
11
-90
21
115
31
0
0
LINE
5
692
100
AcDbEntity
67
0
8
0
6
Grid
62
8
370
0
100
AcDbLine
10
-90
20
140
30
0
11
-65
21
140
31
0
0
LINE
5
693
100
AcDbEntity
67
0
8
0
6
Grid
62
8
370
0
100
AcDbLine
10
-65
20
140
30
0
11
-65
21
115
31
0
0
LINE
5
694
100
AcDbEntity
67
0
8
0
6
Grid
62
8
370
0
100
AcDbLine
10
-65
20
140
30
0
11
-40
21
140
31
0
0
LINE
5
695
100
AcDbEntity
67
0
8
0
6
Grid
62
8
370
0
100
AcDbLine
10
-40
20
140
30
0
11
-40
21
115
31
0
0
LINE
5
696
100
AcDbEntity
67
0
8
0
6
Grid
62
8
370
0
100
AcDbLine
10
-40
20
140
30
0
11
-15
21
140
31
0
0
LINE
5
697
100
AcDbEntity
67
0
8
0
6
Grid
62
8
370
0
100
AcDbLine
10
-15
20
140
30
0
11
-15
21
115
31
0
0
LINE
5
698
100
AcDbEntity
67
0
8
0
6
Grid
62
8
370
0
100
AcDbLine
10
-790
20
165
30
0
11
-765
21
165
31
0
0
LINE
5
699
100
AcDbEntity
67
0
8
0
6
Grid
62
8
370
0
100
AcDbLine
10
-765
20
165
30
0
11
-765
21
140
31
0
0
LINE
5
69A
100
AcDbEntity
67
0
8
0
6
Grid
62
8
370
0
100
AcDbLine
10
-790
20
140
30
0
11
-790
21
165
31
0
0
LINE
5
69B
100
AcDbEntity
67
0
8
0
6
Grid
62
8
370
0
100
AcDbLine
10
-765
20
165
30
0
11
-740
21
165
31
0
0
LINE
5
69C
100
AcDbEntity
67
0
8
0
6
Grid
62
8
370
0
100
AcDbLine
10
-740
20
165
30
0
11
-740
21
140
31
0
0
LINE
5
69D
100
AcDbEntity
67
0
8
0
6
Grid
62
8
370
0
100
AcDbLine
10
-740
20
165
30
0
11
-715
21
165
31
0
0
LINE
5
69E
100
AcDbEntity
67
0
8
0
6
Grid
62
8
370
0
100
AcDbLine
10
-715
20
165
30
0
11
-715
21
140
31
0
0
LINE
5
69F
100
AcDbEntity
67
0
8
0
6
Grid
62
8
370
0
100
AcDbLine
10
-715
20
165
30
0
11
-690
21
165
31
0
0
LINE
5
6A0
100
AcDbEntity
67
0
8
0
6
Grid
62
8
370
0
100
AcDbLine
10
-690
20
165
30
0
11
-690
21
140
31
0
0
LINE
5
6A1
100
AcDbEntity
67
0
8
0
6
Grid
62
8
370
0
100
AcDbLine
10
-690
20
165
30
0
11
-665
21
165
31
0
0
LINE
5
6A2
100
AcDbEntity
67
0
8
0
6
Grid
62
8
370
0
100
AcDbLine
10
-665
20
165
30
0
11
-665
21
140
31
0
0
LINE
5
6A3
100
AcDbEntity
67
0
8
0
6
Grid
62
8
370
0
100
AcDbLine
10
-665
20
165
30
0
11
-640
21
165
31
0
0
LINE
5
6A4
100
AcDbEntity
67
0
8
0
6
Grid
62
8
370
0
100
AcDbLine
10
-640
20
165
30
0
11
-640
21
140
31
0
0
LINE
5
6A5
100
AcDbEntity
67
0
8
0
6
Grid
62
8
370
0
100
AcDbLine
10
-640
20
165
30
0
11
-615
21
165
31
0
0
LINE
5
6A6
100
AcDbEntity
67
0
8
0
6
Grid
62
8
370
0
100
AcDbLine
10
-615
20
165
30
0
11
-615
21
140
31
0
0
LINE
5
6A7
100
AcDbEntity
67
0
8
0
6
Grid
62
8
370
0
100
AcDbLine
10
-615
20
165
30
0
11
-590
21
165
31
0
0
LINE
5
6A8
100
AcDbEntity
67
0
8
0
6
Grid
62
8
370
0
100
AcDbLine
10
-590
20
165
30
0
11
-590
21
140
31
0
0
LINE
5
6A9
100
AcDbEntity
67
0
8
0
6
Grid
62
8
370
0
100
AcDbLine
10
-590
20
165
30
0
11
-565
21
165
31
0
0
LINE
5
6AA
100
AcDbEntity
67
0
8
0
6
Grid
62
8
370
0
100
AcDbLine
10
-565
20
165
30
0
11
-565
21
140
31
0
0
LINE
5
6AB
100
AcDbEntity
67
0
8
0
6
Grid
62
8
370
0
100
AcDbLine
10
-565
20
165
30
0
11
-540
21
165
31
0
0
LINE
5
6AC
100
AcDbEntity
67
0
8
0
6
Grid
62
8
370
0
100
AcDbLine
10
-540
20
165
30
0
11
-540
21
140
31
0
0
LINE
5
6AD
100
AcDbEntity
67
0
8
0
6
Grid
62
8
370
0
100
AcDbLine
10
-540
20
165
30
0
11
-515
21
165
31
0
0
LINE
5
6AE
100
AcDbEntity
67
0
8
0
6
Grid
62
8
370
0
100
AcDbLine
10
-515
20
165
30
0
11
-515
21
140
31
0
0
LINE
5
6AF
100
AcDbEntity
67
0
8
0
6
Grid
62
8
370
0
100
AcDbLine
10
-515
20
165
30
0
11
-490
21
165
31
0
0
LINE
5
6B0
100
AcDbEntity
67
0
8
0
6
Grid
62
8
370
0
100
AcDbLine
10
-490
20
165
30
0
11
-490
21
140
31
0
0
LINE
5
6B1
100
AcDbEntity
67
0
8
0
6
Grid
62
8
370
0
100
AcDbLine
10
-490
20
165
30
0
11
-465
21
165
31
0
0
LINE
5
6B2
100
AcDbEntity
67
0
8
0
6
Grid
62
8
370
0
100
AcDbLine
10
-465
20
165
30
0
11
-465
21
140
31
0
0
LINE
5
6B3
100
AcDbEntity
67
0
8
0
6
Grid
62
8
370
0
100
AcDbLine
10
-465
20
165
30
0
11
-440
21
165
31
0
0
LINE
5
6B4
100
AcDbEntity
67
0
8
0
6
Grid
62
8
370
0
100
AcDbLine
10
-440
20
165
30
0
11
-440
21
140
31
0
0
LINE
5
6B5
100
AcDbEntity
67
0
8
0
6
Grid
62
8
370
0
100
AcDbLine
10
-440
20
165
30
0
11
-415
21
165
31
0
0
LINE
5
6B6
100
AcDbEntity
67
0
8
0
6
Grid
62
8
370
0
100
AcDbLine
10
-415
20
165
30
0
11
-415
21
140
31
0
0
LINE
5
6B7
100
AcDbEntity
67
0
8
0
6
Grid
62
8
370
0
100
AcDbLine
10
-415
20
165
30
0
11
-390
21
165
31
0
0
LINE
5
6B8
100
AcDbEntity
67
0
8
0
6
Grid
62
8
370
0
100
AcDbLine
10
-390
20
165
30
0
11
-390
21
140
31
0
0
LINE
5
6B9
100
AcDbEntity
67
0
8
0
6
Grid
62
8
370
0
100
AcDbLine
10
-390
20
165
30
0
11
-365
21
165
31
0
0
LINE
5
6BA
100
AcDbEntity
67
0
8
0
6
Grid
62
8
370
0
100
AcDbLine
10
-365
20
165
30
0
11
-365
21
140
31
0
0
LINE
5
6BB
100
AcDbEntity
67
0
8
0
6
Grid
62
8
370
0
100
AcDbLine
10
-365
20
165
30
0
11
-340
21
165
31
0
0
LINE
5
6BC
100
AcDbEntity
67
0
8
0
6
Grid
62
8
370
0
100
AcDbLine
10
-340
20
165
30
0
11
-340
21
140
31
0
0
LINE
5
6BD
100
AcDbEntity
67
0
8
0
6
Grid
62
8
370
0
100
AcDbLine
10
-340
20
165
30
0
11
-315
21
165
31
0
0
LINE
5
6BE
100
AcDbEntity
67
0
8
0
6
Grid
62
8
370
0
100
AcDbLine
10
-315
20
165
30
0
11
-315
21
140
31
0
0
LINE
5
6BF
100
AcDbEntity
67
0
8
0
6
Grid
62
8
370
0
100
AcDbLine
10
-315
20
165
30
0
11
-290
21
165
31
0
0
LINE
5
6C0
100
AcDbEntity
67
0
8
0
6
Grid
62
8
370
0
100
AcDbLine
10
-290
20
165
30
0
11
-290
21
140
31
0
0
LINE
5
6C1
100
AcDbEntity
67
0
8
0
6
Grid
62
8
370
0
100
AcDbLine
10
-290
20
165
30
0
11
-265
21
165
31
0
0
LINE
5
6C2
100
AcDbEntity
67
0
8
0
6
Grid
62
8
370
0
100
AcDbLine
10
-265
20
165
30
0
11
-265
21
140
31
0
0
LINE
5
6C3
100
AcDbEntity
67
0
8
0
6
Grid
62
8
370
0
100
AcDbLine
10
-265
20
165
30
0
11
-240
21
165
31
0
0
LINE
5
6C4
100
AcDbEntity
67
0
8
0
6
Grid
62
8
370
0
100
AcDbLine
10
-240
20
165
30
0
11
-240
21
140
31
0
0
LINE
5
6C5
100
AcDbEntity
67
0
8
0
6
Grid
62
8
370
0
100
AcDbLine
10
-240
20
165
30
0
11
-215
21
165
31
0
0
LINE
5
6C6
100
AcDbEntity
67
0
8
0
6
Grid
62
8
370
0
100
AcDbLine
10
-215
20
165
30
0
11
-215
21
140
31
0
0
LINE
5
6C7
100
AcDbEntity
67
0
8
0
6
Grid
62
8
370
0
100
AcDbLine
10
-215
20
165
30
0
11
-190
21
165
31
0
0
LINE
5
6C8
100
AcDbEntity
67
0
8
0
6
Grid
62
8
370
0
100
AcDbLine
10
-190
20
165
30
0
11
-190
21
140
31
0
0
LINE
5
6C9
100
AcDbEntity
67
0
8
0
6
Grid
62
8
370
0
100
AcDbLine
10
-190
20
165
30
0
11
-165
21
165
31
0
0
LINE
5
6CA
100
AcDbEntity
67
0
8
0
6
Grid
62
8
370
0
100
AcDbLine
10
-165
20
165
30
0
11
-165
21
140
31
0
0
LINE
5
6CB
100
AcDbEntity
67
0
8
0
6
Grid
62
8
370
0
100
AcDbLine
10
-165
20
165
30
0
11
-140
21
165
31
0
0
LINE
5
6CC
100
AcDbEntity
67
0
8
0
6
Grid
62
8
370
0
100
AcDbLine
10
-140
20
165
30
0
11
-140
21
140
31
0
0
LINE
5
6CD
100
AcDbEntity
67
0
8
0
6
Grid
62
8
370
0
100
AcDbLine
10
-140
20
165
30
0
11
-115
21
165
31
0
0
LINE
5
6CE
100
AcDbEntity
67
0
8
0
6
Grid
62
8
370
0
100
AcDbLine
10
-115
20
165
30
0
11
-115
21
140
31
0
0
LINE
5
6CF
100
AcDbEntity
67
0
8
0
6
Grid
62
8
370
0
100
AcDbLine
10
-115
20
165
30
0
11
-90
21
165
31
0
0
LINE
5
6D0
100
AcDbEntity
67
0
8
0
6
Grid
62
8
370
0
100
AcDbLine
10
-90
20
165
30
0
11
-90
21
140
31
0
0
LINE
5
6D1
100
AcDbEntity
67
0
8
0
6
Grid
62
8
370
0
100
AcDbLine
10
-90
20
165
30
0
11
-65
21
165
31
0
0
LINE
5
6D2
100
AcDbEntity
67
0
8
0
6
Grid
62
8
370
0
100
AcDbLine
10
-65
20
165
30
0
11
-65
21
140
31
0
0
LINE
5
6D3
100
AcDbEntity
67
0
8
0
6
Grid
62
8
370
0
100
AcDbLine
10
-65
20
165
30
0
11
-40
21
165
31
0
0
LINE
5
6D4
100
AcDbEntity
67
0
8
0
6
Grid
62
8
370
0
100
AcDbLine
10
-40
20
165
30
0
11
-40
21
140
31
0
0
LINE
5
6D5
100
AcDbEntity
67
0
8
0
6
Grid
62
8
370
0
100
AcDbLine
10
-40
20
165
30
0
11
-15
21
165
31
0
0
LINE
5
6D6
100
AcDbEntity
67
0
8
0
6
Grid
62
8
370
0
100
AcDbLine
10
-15
20
165
30
0
11
-15
21
140
31
0
0
LINE
5
6D7
100
AcDbEntity
67
0
8
0
6
Grid
62
8
370
0
100
AcDbLine
10
-790
20
190
30
0
11
-765
21
190
31
0
0
LINE
5
6D8
100
AcDbEntity
67
0
8
0
6
Grid
62
8
370
0
100
AcDbLine
10
-765
20
190
30
0
11
-765
21
165
31
0
0
LINE
5
6D9
100
AcDbEntity
67
0
8
0
6
Grid
62
8
370
0
100
AcDbLine
10
-790
20
165
30
0
11
-790
21
190
31
0
0
LINE
5
6DA
100
AcDbEntity
67
0
8
0
6
Grid
62
8
370
0
100
AcDbLine
10
-765
20
190
30
0
11
-740
21
190
31
0
0
LINE
5
6DB
100
AcDbEntity
67
0
8
0
6
Grid
62
8
370
0
100
AcDbLine
10
-740
20
190
30
0
11
-740
21
165
31
0
0
LINE
5
6DC
100
AcDbEntity
67
0
8
0
6
Grid
62
8
370
0
100
AcDbLine
10
-740
20
190
30
0
11
-715
21
190
31
0
0
LINE
5
6DD
100
AcDbEntity
67
0
8
0
6
Grid
62
8
370
0
100
AcDbLine
10
-715
20
190
30
0
11
-715
21
165
31
0
0
LINE
5
6DE
100
AcDbEntity
67
0
8
0
6
Grid
62
8
370
0
100
AcDbLine
10
-715
20
190
30
0
11
-690
21
190
31
0
0
LINE
5
6DF
100
AcDbEntity
67
0
8
0
6
Grid
62
8
370
0
100
AcDbLine
10
-690
20
190
30
0
11
-690
21
165
31
0
0
LINE
5
6E0
100
AcDbEntity
67
0
8
0
6
Grid
62
8
370
0
100
AcDbLine
10
-690
20
190
30
0
11
-665
21
190
31
0
0
LINE
5
6E1
100
AcDbEntity
67
0
8
0
6
Grid
62
8
370
0
100
AcDbLine
10
-665
20
190
30
0
11
-665
21
165
31
0
0
LINE
5
6E2
100
AcDbEntity
67
0
8
0
6
Grid
62
8
370
0
100
AcDbLine
10
-665
20
190
30
0
11
-640
21
190
31
0
0
LINE
5
6E3
100
AcDbEntity
67
0
8
0
6
Grid
62
8
370
0
100
AcDbLine
10
-640
20
190
30
0
11
-640
21
165
31
0
0
LINE
5
6E4
100
AcDbEntity
67
0
8
0
6
Grid
62
8
370
0
100
AcDbLine
10
-640
20
190
30
0
11
-615
21
190
31
0
0
LINE
5
6E5
100
AcDbEntity
67
0
8
0
6
Grid
62
8
370
0
100
AcDbLine
10
-615
20
190
30
0
11
-615
21
165
31
0
0
LINE
5
6E6
100
AcDbEntity
67
0
8
0
6
Grid
62
8
370
0
100
AcDbLine
10
-615
20
190
30
0
11
-590
21
190
31
0
0
LINE
5
6E7
100
AcDbEntity
67
0
8
0
6
Grid
62
8
370
0
100
AcDbLine
10
-590
20
190
30
0
11
-590
21
165
31
0
0
LINE
5
6E8
100
AcDbEntity
67
0
8
0
6
Grid
62
8
370
0
100
AcDbLine
10
-590
20
190
30
0
11
-565
21
190
31
0
0
LINE
5
6E9
100
AcDbEntity
67
0
8
0
6
Grid
62
8
370
0
100
AcDbLine
10
-565
20
190
30
0
11
-565
21
165
31
0
0
LINE
5
6EA
100
AcDbEntity
67
0
8
0
6
Grid
62
8
370
0
100
AcDbLine
10
-565
20
190
30
0
11
-540
21
190
31
0
0
LINE
5
6EB
100
AcDbEntity
67
0
8
0
6
Grid
62
8
370
0
100
AcDbLine
10
-540
20
190
30
0
11
-540
21
165
31
0
0
LINE
5
6EC
100
AcDbEntity
67
0
8
0
6
Grid
62
8
370
0
100
AcDbLine
10
-540
20
190
30
0
11
-515
21
190
31
0
0
LINE
5
6ED
100
AcDbEntity
67
0
8
0
6
Grid
62
8
370
0
100
AcDbLine
10
-515
20
190
30
0
11
-515
21
165
31
0
0
LINE
5
6EE
100
AcDbEntity
67
0
8
0
6
Grid
62
8
370
0
100
AcDbLine
10
-515
20
190
30
0
11
-490
21
190
31
0
0
LINE
5
6EF
100
AcDbEntity
67
0
8
0
6
Grid
62
8
370
0
100
AcDbLine
10
-490
20
190
30
0
11
-490
21
165
31
0
0
LINE
5
6F0
100
AcDbEntity
67
0
8
0
6
Grid
62
8
370
0
100
AcDbLine
10
-490
20
190
30
0
11
-465
21
190
31
0
0
LINE
5
6F1
100
AcDbEntity
67
0
8
0
6
Grid
62
8
370
0
100
AcDbLine
10
-465
20
190
30
0
11
-465
21
165
31
0
0
LINE
5
6F2
100
AcDbEntity
67
0
8
0
6
Grid
62
8
370
0
100
AcDbLine
10
-465
20
190
30
0
11
-440
21
190
31
0
0
LINE
5
6F3
100
AcDbEntity
67
0
8
0
6
Grid
62
8
370
0
100
AcDbLine
10
-440
20
190
30
0
11
-440
21
165
31
0
0
LINE
5
6F4
100
AcDbEntity
67
0
8
0
6
Grid
62
8
370
0
100
AcDbLine
10
-440
20
190
30
0
11
-415
21
190
31
0
0
LINE
5
6F5
100
AcDbEntity
67
0
8
0
6
Grid
62
8
370
0
100
AcDbLine
10
-415
20
190
30
0
11
-415
21
165
31
0
0
LINE
5
6F6
100
AcDbEntity
67
0
8
0
6
Grid
62
8
370
0
100
AcDbLine
10
-415
20
190
30
0
11
-390
21
190
31
0
0
LINE
5
6F7
100
AcDbEntity
67
0
8
0
6
Grid
62
8
370
0
100
AcDbLine
10
-390
20
190
30
0
11
-390
21
165
31
0
0
LINE
5
6F8
100
AcDbEntity
67
0
8
0
6
Grid
62
8
370
0
100
AcDbLine
10
-390
20
190
30
0
11
-365
21
190
31
0
0
LINE
5
6F9
100
AcDbEntity
67
0
8
0
6
Grid
62
8
370
0
100
AcDbLine
10
-365
20
190
30
0
11
-365
21
165
31
0
0
LINE
5
6FA
100
AcDbEntity
67
0
8
0
6
Grid
62
8
370
0
100
AcDbLine
10
-365
20
190
30
0
11
-340
21
190
31
0
0
LINE
5
6FB
100
AcDbEntity
67
0
8
0
6
Grid
62
8
370
0
100
AcDbLine
10
-340
20
190
30
0
11
-340
21
165
31
0
0
LINE
5
6FC
100
AcDbEntity
67
0
8
0
6
Grid
62
8
370
0
100
AcDbLine
10
-340
20
190
30
0
11
-315
21
190
31
0
0
LINE
5
6FD
100
AcDbEntity
67
0
8
0
6
Grid
62
8
370
0
100
AcDbLine
10
-315
20
190
30
0
11
-315
21
165
31
0
0
LINE
5
6FE
100
AcDbEntity
67
0
8
0
6
Grid
62
8
370
0
100
AcDbLine
10
-315
20
190
30
0
11
-290
21
190
31
0
0
LINE
5
6FF
100
AcDbEntity
67
0
8
0
6
Grid
62
8
370
0
100
AcDbLine
10
-290
20
190
30
0
11
-290
21
165
31
0
0
LINE
5
700
100
AcDbEntity
67
0
8
0
6
Grid
62
8
370
0
100
AcDbLine
10
-290
20
190
30
0
11
-265
21
190
31
0
0
LINE
5
701
100
AcDbEntity
67
0
8
0
6
Grid
62
8
370
0
100
AcDbLine
10
-265
20
190
30
0
11
-265
21
165
31
0
0
LINE
5
702
100
AcDbEntity
67
0
8
0
6
Grid
62
8
370
0
100
AcDbLine
10
-265
20
190
30
0
11
-240
21
190
31
0
0
LINE
5
703
100
AcDbEntity
67
0
8
0
6
Grid
62
8
370
0
100
AcDbLine
10
-240
20
190
30
0
11
-240
21
165
31
0
0
LINE
5
704
100
AcDbEntity
67
0
8
0
6
Grid
62
8
370
0
100
AcDbLine
10
-240
20
190
30
0
11
-215
21
190
31
0
0
LINE
5
705
100
AcDbEntity
67
0
8
0
6
Grid
62
8
370
0
100
AcDbLine
10
-215
20
190
30
0
11
-215
21
165
31
0
0
LINE
5
706
100
AcDbEntity
67
0
8
0
6
Grid
62
8
370
0
100
AcDbLine
10
-215
20
190
30
0
11
-190
21
190
31
0
0
LINE
5
707
100
AcDbEntity
67
0
8
0
6
Grid
62
8
370
0
100
AcDbLine
10
-190
20
190
30
0
11
-190
21
165
31
0
0
LINE
5
708
100
AcDbEntity
67
0
8
0
6
Grid
62
8
370
0
100
AcDbLine
10
-190
20
190
30
0
11
-165
21
190
31
0
0
LINE
5
709
100
AcDbEntity
67
0
8
0
6
Grid
62
8
370
0
100
AcDbLine
10
-165
20
190
30
0
11
-165
21
165
31
0
0
LINE
5
70A
100
AcDbEntity
67
0
8
0
6
Grid
62
8
370
0
100
AcDbLine
10
-165
20
190
30
0
11
-140
21
190
31
0
0
LINE
5
70B
100
AcDbEntity
67
0
8
0
6
Grid
62
8
370
0
100
AcDbLine
10
-140
20
190
30
0
11
-140
21
165
31
0
0
LINE
5
70C
100
AcDbEntity
67
0
8
0
6
Grid
62
8
370
0
100
AcDbLine
10
-140
20
190
30
0
11
-115
21
190
31
0
0
LINE
5
70D
100
AcDbEntity
67
0
8
0
6
Grid
62
8
370
0
100
AcDbLine
10
-115
20
190
30
0
11
-115
21
165
31
0
0
LINE
5
70E
100
AcDbEntity
67
0
8
0
6
Grid
62
8
370
0
100
AcDbLine
10
-115
20
190
30
0
11
-90
21
190
31
0
0
LINE
5
70F
100
AcDbEntity
67
0
8
0
6
Grid
62
8
370
0
100
AcDbLine
10
-90
20
190
30
0
11
-90
21
165
31
0
0
LINE
5
710
100
AcDbEntity
67
0
8
0
6
Grid
62
8
370
0
100
AcDbLine
10
-90
20
190
30
0
11
-65
21
190
31
0
0
LINE
5
711
100
AcDbEntity
67
0
8
0
6
Grid
62
8
370
0
100
AcDbLine
10
-65
20
190
30
0
11
-65
21
165
31
0
0
LINE
5
712
100
AcDbEntity
67
0
8
0
6
Grid
62
8
370
0
100
AcDbLine
10
-65
20
190
30
0
11
-40
21
190
31
0
0
LINE
5
713
100
AcDbEntity
67
0
8
0
6
Grid
62
8
370
0
100
AcDbLine
10
-40
20
190
30
0
11
-40
21
165
31
0
0
LINE
5
714
100
AcDbEntity
67
0
8
0
6
Grid
62
8
370
0
100
AcDbLine
10
-40
20
190
30
0
11
-15
21
190
31
0
0
LINE
5
715
100
AcDbEntity
67
0
8
0
6
Grid
62
8
370
0
100
AcDbLine
10
-15
20
190
30
0
11
-15
21
165
31
0
0
LINE
5
716
100
AcDbEntity
67
0
8
0
6
Grid
62
8
370
0
100
AcDbLine
10
-790
20
215
30
0
11
-765
21
215
31
0
0
LINE
5
717
100
AcDbEntity
67
0
8
0
6
Grid
62
8
370
0
100
AcDbLine
10
-765
20
215
30
0
11
-765
21
190
31
0
0
LINE
5
718
100
AcDbEntity
67
0
8
0
6
Grid
62
8
370
0
100
AcDbLine
10
-790
20
190
30
0
11
-790
21
215
31
0
0
LINE
5
719
100
AcDbEntity
67
0
8
0
6
Grid
62
8
370
0
100
AcDbLine
10
-765
20
215
30
0
11
-740
21
215
31
0
0
LINE
5
71A
100
AcDbEntity
67
0
8
0
6
Grid
62
8
370
0
100
AcDbLine
10
-740
20
215
30
0
11
-740
21
190
31
0
0
LINE
5
71B
100
AcDbEntity
67
0
8
0
6
Grid
62
8
370
0
100
AcDbLine
10
-740
20
215
30
0
11
-715
21
215
31
0
0
LINE
5
71C
100
AcDbEntity
67
0
8
0
6
Grid
62
8
370
0
100
AcDbLine
10
-715
20
215
30
0
11
-715
21
190
31
0
0
LINE
5
71D
100
AcDbEntity
67
0
8
0
6
Grid
62
8
370
0
100
AcDbLine
10
-715
20
215
30
0
11
-690
21
215
31
0
0
LINE
5
71E
100
AcDbEntity
67
0
8
0
6
Grid
62
8
370
0
100
AcDbLine
10
-690
20
215
30
0
11
-690
21
190
31
0
0
LINE
5
71F
100
AcDbEntity
67
0
8
0
6
Grid
62
8
370
0
100
AcDbLine
10
-690
20
215
30
0
11
-665
21
215
31
0
0
LINE
5
720
100
AcDbEntity
67
0
8
0
6
Grid
62
8
370
0
100
AcDbLine
10
-665
20
215
30
0
11
-665
21
190
31
0
0
LINE
5
721
100
AcDbEntity
67
0
8
0
6
Grid
62
8
370
0
100
AcDbLine
10
-665
20
215
30
0
11
-640
21
215
31
0
0
LINE
5
722
100
AcDbEntity
67
0
8
0
6
Grid
62
8
370
0
100
AcDbLine
10
-640
20
215
30
0
11
-640
21
190
31
0
0
LINE
5
723
100
AcDbEntity
67
0
8
0
6
Grid
62
8
370
0
100
AcDbLine
10
-640
20
215
30
0
11
-615
21
215
31
0
0
LINE
5
724
100
AcDbEntity
67
0
8
0
6
Grid
62
8
370
0
100
AcDbLine
10
-615
20
215
30
0
11
-615
21
190
31
0
0
LINE
5
725
100
AcDbEntity
67
0
8
0
6
Grid
62
8
370
0
100
AcDbLine
10
-615
20
215
30
0
11
-590
21
215
31
0
0
LINE
5
726
100
AcDbEntity
67
0
8
0
6
Grid
62
8
370
0
100
AcDbLine
10
-590
20
215
30
0
11
-590
21
190
31
0
0
LINE
5
727
100
AcDbEntity
67
0
8
0
6
Grid
62
8
370
0
100
AcDbLine
10
-590
20
215
30
0
11
-565
21
215
31
0
0
LINE
5
728
100
AcDbEntity
67
0
8
0
6
Grid
62
8
370
0
100
AcDbLine
10
-565
20
215
30
0
11
-565
21
190
31
0
0
LINE
5
729
100
AcDbEntity
67
0
8
0
6
Grid
62
8
370
0
100
AcDbLine
10
-565
20
215
30
0
11
-540
21
215
31
0
0
LINE
5
72A
100
AcDbEntity
67
0
8
0
6
Grid
62
8
370
0
100
AcDbLine
10
-540
20
215
30
0
11
-540
21
190
31
0
0
LINE
5
72B
100
AcDbEntity
67
0
8
0
6
Grid
62
8
370
0
100
AcDbLine
10
-540
20
215
30
0
11
-515
21
215
31
0
0
LINE
5
72C
100
AcDbEntity
67
0
8
0
6
Grid
62
8
370
0
100
AcDbLine
10
-515
20
215
30
0
11
-515
21
190
31
0
0
LINE
5
72D
100
AcDbEntity
67
0
8
0
6
Grid
62
8
370
0
100
AcDbLine
10
-515
20
215
30
0
11
-490
21
215
31
0
0
LINE
5
72E
100
AcDbEntity
67
0
8
0
6
Grid
62
8
370
0
100
AcDbLine
10
-490
20
215
30
0
11
-490
21
190
31
0
0
LINE
5
72F
100
AcDbEntity
67
0
8
0
6
Grid
62
8
370
0
100
AcDbLine
10
-490
20
215
30
0
11
-465
21
215
31
0
0
LINE
5
730
100
AcDbEntity
67
0
8
0
6
Grid
62
8
370
0
100
AcDbLine
10
-465
20
215
30
0
11
-465
21
190
31
0
0
LINE
5
731
100
AcDbEntity
67
0
8
0
6
Grid
62
8
370
0
100
AcDbLine
10
-465
20
215
30
0
11
-440
21
215
31
0
0
LINE
5
732
100
AcDbEntity
67
0
8
0
6
Grid
62
8
370
0
100
AcDbLine
10
-440
20
215
30
0
11
-440
21
190
31
0
0
LINE
5
733
100
AcDbEntity
67
0
8
0
6
Grid
62
8
370
0
100
AcDbLine
10
-440
20
215
30
0
11
-415
21
215
31
0
0
LINE
5
734
100
AcDbEntity
67
0
8
0
6
Grid
62
8
370
0
100
AcDbLine
10
-415
20
215
30
0
11
-415
21
190
31
0
0
LINE
5
735
100
AcDbEntity
67
0
8
0
6
Grid
62
8
370
0
100
AcDbLine
10
-415
20
215
30
0
11
-390
21
215
31
0
0
LINE
5
736
100
AcDbEntity
67
0
8
0
6
Grid
62
8
370
0
100
AcDbLine
10
-390
20
215
30
0
11
-390
21
190
31
0
0
LINE
5
737
100
AcDbEntity
67
0
8
0
6
Grid
62
8
370
0
100
AcDbLine
10
-390
20
215
30
0
11
-365
21
215
31
0
0
LINE
5
738
100
AcDbEntity
67
0
8
0
6
Grid
62
8
370
0
100
AcDbLine
10
-365
20
215
30
0
11
-365
21
190
31
0
0
LINE
5
739
100
AcDbEntity
67
0
8
0
6
Grid
62
8
370
0
100
AcDbLine
10
-365
20
215
30
0
11
-340
21
215
31
0
0
LINE
5
73A
100
AcDbEntity
67
0
8
0
6
Grid
62
8
370
0
100
AcDbLine
10
-340
20
215
30
0
11
-340
21
190
31
0
0
LINE
5
73B
100
AcDbEntity
67
0
8
0
6
Grid
62
8
370
0
100
AcDbLine
10
-340
20
215
30
0
11
-315
21
215
31
0
0
LINE
5
73C
100
AcDbEntity
67
0
8
0
6
Grid
62
8
370
0
100
AcDbLine
10
-315
20
215
30
0
11
-315
21
190
31
0
0
LINE
5
73D
100
AcDbEntity
67
0
8
0
6
Grid
62
8
370
0
100
AcDbLine
10
-315
20
215
30
0
11
-290
21
215
31
0
0
LINE
5
73E
100
AcDbEntity
67
0
8
0
6
Grid
62
8
370
0
100
AcDbLine
10
-290
20
215
30
0
11
-290
21
190
31
0
0
LINE
5
73F
100
AcDbEntity
67
0
8
0
6
Grid
62
8
370
0
100
AcDbLine
10
-290
20
215
30
0
11
-265
21
215
31
0
0
LINE
5
740
100
AcDbEntity
67
0
8
0
6
Grid
62
8
370
0
100
AcDbLine
10
-265
20
215
30
0
11
-265
21
190
31
0
0
LINE
5
741
100
AcDbEntity
67
0
8
0
6
Grid
62
8
370
0
100
AcDbLine
10
-265
20
215
30
0
11
-240
21
215
31
0
0
LINE
5
742
100
AcDbEntity
67
0
8
0
6
Grid
62
8
370
0
100
AcDbLine
10
-240
20
215
30
0
11
-240
21
190
31
0
0
LINE
5
743
100
AcDbEntity
67
0
8
0
6
Grid
62
8
370
0
100
AcDbLine
10
-240
20
215
30
0
11
-215
21
215
31
0
0
LINE
5
744
100
AcDbEntity
67
0
8
0
6
Grid
62
8
370
0
100
AcDbLine
10
-215
20
215
30
0
11
-215
21
190
31
0
0
LINE
5
745
100
AcDbEntity
67
0
8
0
6
Grid
62
8
370
0
100
AcDbLine
10
-215
20
215
30
0
11
-190
21
215
31
0
0
LINE
5
746
100
AcDbEntity
67
0
8
0
6
Grid
62
8
370
0
100
AcDbLine
10
-190
20
215
30
0
11
-190
21
190
31
0
0
LINE
5
747
100
AcDbEntity
67
0
8
0
6
Grid
62
8
370
0
100
AcDbLine
10
-190
20
215
30
0
11
-165
21
215
31
0
0
LINE
5
748
100
AcDbEntity
67
0
8
0
6
Grid
62
8
370
0
100
AcDbLine
10
-165
20
215
30
0
11
-165
21
190
31
0
0
LINE
5
749
100
AcDbEntity
67
0
8
0
6
Grid
62
8
370
0
100
AcDbLine
10
-165
20
215
30
0
11
-140
21
215
31
0
0
LINE
5
74A
100
AcDbEntity
67
0
8
0
6
Grid
62
8
370
0
100
AcDbLine
10
-140
20
215
30
0
11
-140
21
190
31
0
0
LINE
5
74B
100
AcDbEntity
67
0
8
0
6
Grid
62
8
370
0
100
AcDbLine
10
-140
20
215
30
0
11
-115
21
215
31
0
0
LINE
5
74C
100
AcDbEntity
67
0
8
0
6
Grid
62
8
370
0
100
AcDbLine
10
-115
20
215
30
0
11
-115
21
190
31
0
0
LINE
5
74D
100
AcDbEntity
67
0
8
0
6
Grid
62
8
370
0
100
AcDbLine
10
-115
20
215
30
0
11
-90
21
215
31
0
0
LINE
5
74E
100
AcDbEntity
67
0
8
0
6
Grid
62
8
370
0
100
AcDbLine
10
-90
20
215
30
0
11
-90
21
190
31
0
0
LINE
5
74F
100
AcDbEntity
67
0
8
0
6
Grid
62
8
370
0
100
AcDbLine
10
-90
20
215
30
0
11
-65
21
215
31
0
0
LINE
5
750
100
AcDbEntity
67
0
8
0
6
Grid
62
8
370
0
100
AcDbLine
10
-65
20
215
30
0
11
-65
21
190
31
0
0
LINE
5
751
100
AcDbEntity
67
0
8
0
6
Grid
62
8
370
0
100
AcDbLine
10
-65
20
215
30
0
11
-40
21
215
31
0
0
LINE
5
752
100
AcDbEntity
67
0
8
0
6
Grid
62
8
370
0
100
AcDbLine
10
-40
20
215
30
0
11
-40
21
190
31
0
0
LINE
5
753
100
AcDbEntity
67
0
8
0
6
Grid
62
8
370
0
100
AcDbLine
10
-40
20
215
30
0
11
-15
21
215
31
0
0
LINE
5
754
100
AcDbEntity
67
0
8
0
6
Grid
62
8
370
0
100
AcDbLine
10
-15
20
215
30
0
11
-15
21
190
31
0
0
LINE
5
755
100
AcDbEntity
67
0
8
0
6
Grid
62
8
370
0
100
AcDbLine
10
-790
20
240
30
0
11
-765
21
240
31
0
0
LINE
5
756
100
AcDbEntity
67
0
8
0
6
Grid
62
8
370
0
100
AcDbLine
10
-765
20
240
30
0
11
-765
21
215
31
0
0
LINE
5
757
100
AcDbEntity
67
0
8
0
6
Grid
62
8
370
0
100
AcDbLine
10
-790
20
215
30
0
11
-790
21
240
31
0
0
LINE
5
758
100
AcDbEntity
67
0
8
0
6
Grid
62
8
370
0
100
AcDbLine
10
-765
20
240
30
0
11
-740
21
240
31
0
0
LINE
5
759
100
AcDbEntity
67
0
8
0
6
Grid
62
8
370
0
100
AcDbLine
10
-740
20
240
30
0
11
-740
21
215
31
0
0
LINE
5
75A
100
AcDbEntity
67
0
8
0
6
Grid
62
8
370
0
100
AcDbLine
10
-740
20
240
30
0
11
-715
21
240
31
0
0
LINE
5
75B
100
AcDbEntity
67
0
8
0
6
Grid
62
8
370
0
100
AcDbLine
10
-715
20
240
30
0
11
-715
21
215
31
0
0
LINE
5
75C
100
AcDbEntity
67
0
8
0
6
Grid
62
8
370
0
100
AcDbLine
10
-715
20
240
30
0
11
-690
21
240
31
0
0
LINE
5
75D
100
AcDbEntity
67
0
8
0
6
Grid
62
8
370
0
100
AcDbLine
10
-690
20
240
30
0
11
-690
21
215
31
0
0
LINE
5
75E
100
AcDbEntity
67
0
8
0
6
Grid
62
8
370
0
100
AcDbLine
10
-690
20
240
30
0
11
-665
21
240
31
0
0
LINE
5
75F
100
AcDbEntity
67
0
8
0
6
Grid
62
8
370
0
100
AcDbLine
10
-665
20
240
30
0
11
-665
21
215
31
0
0
LINE
5
760
100
AcDbEntity
67
0
8
0
6
Grid
62
8
370
0
100
AcDbLine
10
-665
20
240
30
0
11
-640
21
240
31
0
0
LINE
5
761
100
AcDbEntity
67
0
8
0
6
Grid
62
8
370
0
100
AcDbLine
10
-640
20
240
30
0
11
-640
21
215
31
0
0
LINE
5
762
100
AcDbEntity
67
0
8
0
6
Grid
62
8
370
0
100
AcDbLine
10
-640
20
240
30
0
11
-615
21
240
31
0
0
LINE
5
763
100
AcDbEntity
67
0
8
0
6
Grid
62
8
370
0
100
AcDbLine
10
-615
20
240
30
0
11
-615
21
215
31
0
0
LINE
5
764
100
AcDbEntity
67
0
8
0
6
Grid
62
8
370
0
100
AcDbLine
10
-615
20
240
30
0
11
-590
21
240
31
0
0
LINE
5
765
100
AcDbEntity
67
0
8
0
6
Grid
62
8
370
0
100
AcDbLine
10
-590
20
240
30
0
11
-590
21
215
31
0
0
LINE
5
766
100
AcDbEntity
67
0
8
0
6
Grid
62
8
370
0
100
AcDbLine
10
-590
20
240
30
0
11
-565
21
240
31
0
0
LINE
5
767
100
AcDbEntity
67
0
8
0
6
Grid
62
8
370
0
100
AcDbLine
10
-565
20
240
30
0
11
-565
21
215
31
0
0
LINE
5
768
100
AcDbEntity
67
0
8
0
6
Grid
62
8
370
0
100
AcDbLine
10
-565
20
240
30
0
11
-540
21
240
31
0
0
LINE
5
769
100
AcDbEntity
67
0
8
0
6
Grid
62
8
370
0
100
AcDbLine
10
-540
20
240
30
0
11
-540
21
215
31
0
0
LINE
5
76A
100
AcDbEntity
67
0
8
0
6
Grid
62
8
370
0
100
AcDbLine
10
-540
20
240
30
0
11
-515
21
240
31
0
0
LINE
5
76B
100
AcDbEntity
67
0
8
0
6
Grid
62
8
370
0
100
AcDbLine
10
-515
20
240
30
0
11
-515
21
215
31
0
0
LINE
5
76C
100
AcDbEntity
67
0
8
0
6
Grid
62
8
370
0
100
AcDbLine
10
-515
20
240
30
0
11
-490
21
240
31
0
0
LINE
5
76D
100
AcDbEntity
67
0
8
0
6
Grid
62
8
370
0
100
AcDbLine
10
-490
20
240
30
0
11
-490
21
215
31
0
0
LINE
5
76E
100
AcDbEntity
67
0
8
0
6
Grid
62
8
370
0
100
AcDbLine
10
-490
20
240
30
0
11
-465
21
240
31
0
0
LINE
5
76F
100
AcDbEntity
67
0
8
0
6
Grid
62
8
370
0
100
AcDbLine
10
-465
20
240
30
0
11
-465
21
215
31
0
0
LINE
5
770
100
AcDbEntity
67
0
8
0
6
Grid
62
8
370
0
100
AcDbLine
10
-465
20
240
30
0
11
-440
21
240
31
0
0
LINE
5
771
100
AcDbEntity
67
0
8
0
6
Grid
62
8
370
0
100
AcDbLine
10
-440
20
240
30
0
11
-440
21
215
31
0
0
LINE
5
772
100
AcDbEntity
67
0
8
0
6
Grid
62
8
370
0
100
AcDbLine
10
-440
20
240
30
0
11
-415
21
240
31
0
0
LINE
5
773
100
AcDbEntity
67
0
8
0
6
Grid
62
8
370
0
100
AcDbLine
10
-415
20
240
30
0
11
-415
21
215
31
0
0
LINE
5
774
100
AcDbEntity
67
0
8
0
6
Grid
62
8
370
0
100
AcDbLine
10
-415
20
240
30
0
11
-390
21
240
31
0
0
LINE
5
775
100
AcDbEntity
67
0
8
0
6
Grid
62
8
370
0
100
AcDbLine
10
-390
20
240
30
0
11
-390
21
215
31
0
0
LINE
5
776
100
AcDbEntity
67
0
8
0
6
Grid
62
8
370
0
100
AcDbLine
10
-390
20
240
30
0
11
-365
21
240
31
0
0
LINE
5
777
100
AcDbEntity
67
0
8
0
6
Grid
62
8
370
0
100
AcDbLine
10
-365
20
240
30
0
11
-365
21
215
31
0
0
LINE
5
778
100
AcDbEntity
67
0
8
0
6
Grid
62
8
370
0
100
AcDbLine
10
-365
20
240
30
0
11
-340
21
240
31
0
0
LINE
5
779
100
AcDbEntity
67
0
8
0
6
Grid
62
8
370
0
100
AcDbLine
10
-340
20
240
30
0
11
-340
21
215
31
0
0
LINE
5
77A
100
AcDbEntity
67
0
8
0
6
Grid
62
8
370
0
100
AcDbLine
10
-340
20
240
30
0
11
-315
21
240
31
0
0
LINE
5
77B
100
AcDbEntity
67
0
8
0
6
Grid
62
8
370
0
100
AcDbLine
10
-315
20
240
30
0
11
-315
21
215
31
0
0
LINE
5
77C
100
AcDbEntity
67
0
8
0
6
Grid
62
8
370
0
100
AcDbLine
10
-315
20
240
30
0
11
-290
21
240
31
0
0
LINE
5
77D
100
AcDbEntity
67
0
8
0
6
Grid
62
8
370
0
100
AcDbLine
10
-290
20
240
30
0
11
-290
21
215
31
0
0
LINE
5
77E
100
AcDbEntity
67
0
8
0
6
Grid
62
8
370
0
100
AcDbLine
10
-290
20
240
30
0
11
-265
21
240
31
0
0
LINE
5
77F
100
AcDbEntity
67
0
8
0
6
Grid
62
8
370
0
100
AcDbLine
10
-265
20
240
30
0
11
-265
21
215
31
0
0
LINE
5
780
100
AcDbEntity
67
0
8
0
6
Grid
62
8
370
0
100
AcDbLine
10
-265
20
240
30
0
11
-240
21
240
31
0
0
LINE
5
781
100
AcDbEntity
67
0
8
0
6
Grid
62
8
370
0
100
AcDbLine
10
-240
20
240
30
0
11
-240
21
215
31
0
0
LINE
5
782
100
AcDbEntity
67
0
8
0
6
Grid
62
8
370
0
100
AcDbLine
10
-240
20
240
30
0
11
-215
21
240
31
0
0
LINE
5
783
100
AcDbEntity
67
0
8
0
6
Grid
62
8
370
0
100
AcDbLine
10
-215
20
240
30
0
11
-215
21
215
31
0
0
LINE
5
784
100
AcDbEntity
67
0
8
0
6
Grid
62
8
370
0
100
AcDbLine
10
-215
20
240
30
0
11
-190
21
240
31
0
0
LINE
5
785
100
AcDbEntity
67
0
8
0
6
Grid
62
8
370
0
100
AcDbLine
10
-190
20
240
30
0
11
-190
21
215
31
0
0
LINE
5
786
100
AcDbEntity
67
0
8
0
6
Grid
62
8
370
0
100
AcDbLine
10
-190
20
240
30
0
11
-165
21
240
31
0
0
LINE
5
787
100
AcDbEntity
67
0
8
0
6
Grid
62
8
370
0
100
AcDbLine
10
-165
20
240
30
0
11
-165
21
215
31
0
0
LINE
5
788
100
AcDbEntity
67
0
8
0
6
Grid
62
8
370
0
100
AcDbLine
10
-165
20
240
30
0
11
-140
21
240
31
0
0
LINE
5
789
100
AcDbEntity
67
0
8
0
6
Grid
62
8
370
0
100
AcDbLine
10
-140
20
240
30
0
11
-140
21
215
31
0
0
LINE
5
78A
100
AcDbEntity
67
0
8
0
6
Grid
62
8
370
0
100
AcDbLine
10
-140
20
240
30
0
11
-115
21
240
31
0
0
LINE
5
78B
100
AcDbEntity
67
0
8
0
6
Grid
62
8
370
0
100
AcDbLine
10
-115
20
240
30
0
11
-115
21
215
31
0
0
LINE
5
78C
100
AcDbEntity
67
0
8
0
6
Grid
62
8
370
0
100
AcDbLine
10
-115
20
240
30
0
11
-90
21
240
31
0
0
LINE
5
78D
100
AcDbEntity
67
0
8
0
6
Grid
62
8
370
0
100
AcDbLine
10
-90
20
240
30
0
11
-90
21
215
31
0
0
LINE
5
78E
100
AcDbEntity
67
0
8
0
6
Grid
62
8
370
0
100
AcDbLine
10
-90
20
240
30
0
11
-65
21
240
31
0
0
LINE
5
78F
100
AcDbEntity
67
0
8
0
6
Grid
62
8
370
0
100
AcDbLine
10
-65
20
240
30
0
11
-65
21
215
31
0
0
LINE
5
790
100
AcDbEntity
67
0
8
0
6
Grid
62
8
370
0
100
AcDbLine
10
-65
20
240
30
0
11
-40
21
240
31
0
0
LINE
5
791
100
AcDbEntity
67
0
8
0
6
Grid
62
8
370
0
100
AcDbLine
10
-40
20
240
30
0
11
-40
21
215
31
0
0
LINE
5
792
100
AcDbEntity
67
0
8
0
6
Grid
62
8
370
0
100
AcDbLine
10
-40
20
240
30
0
11
-15
21
240
31
0
0
LINE
5
793
100
AcDbEntity
67
0
8
0
6
Grid
62
8
370
0
100
AcDbLine
10
-15
20
240
30
0
11
-15
21
215
31
0
0
LINE
5
794
100
AcDbEntity
67
0
8
0
6
Grid
62
8
370
0
100
AcDbLine
10
-790
20
265
30
0
11
-765
21
265
31
0
0
LINE
5
795
100
AcDbEntity
67
0
8
0
6
Grid
62
8
370
0
100
AcDbLine
10
-765
20
265
30
0
11
-765
21
240
31
0
0
LINE
5
796
100
AcDbEntity
67
0
8
0
6
Grid
62
8
370
0
100
AcDbLine
10
-790
20
240
30
0
11
-790
21
265
31
0
0
LINE
5
797
100
AcDbEntity
67
0
8
0
6
Grid
62
8
370
0
100
AcDbLine
10
-765
20
265
30
0
11
-740
21
265
31
0
0
LINE
5
798
100
AcDbEntity
67
0
8
0
6
Grid
62
8
370
0
100
AcDbLine
10
-740
20
265
30
0
11
-740
21
240
31
0
0
LINE
5
799
100
AcDbEntity
67
0
8
0
6
Grid
62
8
370
0
100
AcDbLine
10
-740
20
265
30
0
11
-715
21
265
31
0
0
LINE
5
79A
100
AcDbEntity
67
0
8
0
6
Grid
62
8
370
0
100
AcDbLine
10
-715
20
265
30
0
11
-715
21
240
31
0
0
LINE
5
79B
100
AcDbEntity
67
0
8
0
6
Grid
62
8
370
0
100
AcDbLine
10
-715
20
265
30
0
11
-690
21
265
31
0
0
LINE
5
79C
100
AcDbEntity
67
0
8
0
6
Grid
62
8
370
0
100
AcDbLine
10
-690
20
265
30
0
11
-690
21
240
31
0
0
LINE
5
79D
100
AcDbEntity
67
0
8
0
6
Grid
62
8
370
0
100
AcDbLine
10
-690
20
265
30
0
11
-665
21
265
31
0
0
LINE
5
79E
100
AcDbEntity
67
0
8
0
6
Grid
62
8
370
0
100
AcDbLine
10
-665
20
265
30
0
11
-665
21
240
31
0
0
LINE
5
79F
100
AcDbEntity
67
0
8
0
6
Grid
62
8
370
0
100
AcDbLine
10
-665
20
265
30
0
11
-640
21
265
31
0
0
LINE
5
7A0
100
AcDbEntity
67
0
8
0
6
Grid
62
8
370
0
100
AcDbLine
10
-640
20
265
30
0
11
-640
21
240
31
0
0
LINE
5
7A1
100
AcDbEntity
67
0
8
0
6
Grid
62
8
370
0
100
AcDbLine
10
-640
20
265
30
0
11
-615
21
265
31
0
0
LINE
5
7A2
100
AcDbEntity
67
0
8
0
6
Grid
62
8
370
0
100
AcDbLine
10
-615
20
265
30
0
11
-615
21
240
31
0
0
LINE
5
7A3
100
AcDbEntity
67
0
8
0
6
Grid
62
8
370
0
100
AcDbLine
10
-615
20
265
30
0
11
-590
21
265
31
0
0
LINE
5
7A4
100
AcDbEntity
67
0
8
0
6
Grid
62
8
370
0
100
AcDbLine
10
-590
20
265
30
0
11
-590
21
240
31
0
0
LINE
5
7A5
100
AcDbEntity
67
0
8
0
6
Grid
62
8
370
0
100
AcDbLine
10
-590
20
265
30
0
11
-565
21
265
31
0
0
LINE
5
7A6
100
AcDbEntity
67
0
8
0
6
Grid
62
8
370
0
100
AcDbLine
10
-565
20
265
30
0
11
-565
21
240
31
0
0
LINE
5
7A7
100
AcDbEntity
67
0
8
0
6
Grid
62
8
370
0
100
AcDbLine
10
-565
20
265
30
0
11
-540
21
265
31
0
0
LINE
5
7A8
100
AcDbEntity
67
0
8
0
6
Grid
62
8
370
0
100
AcDbLine
10
-540
20
265
30
0
11
-540
21
240
31
0
0
LINE
5
7A9
100
AcDbEntity
67
0
8
0
6
Grid
62
8
370
0
100
AcDbLine
10
-540
20
265
30
0
11
-515
21
265
31
0
0
LINE
5
7AA
100
AcDbEntity
67
0
8
0
6
Grid
62
8
370
0
100
AcDbLine
10
-515
20
265
30
0
11
-515
21
240
31
0
0
LINE
5
7AB
100
AcDbEntity
67
0
8
0
6
Grid
62
8
370
0
100
AcDbLine
10
-515
20
265
30
0
11
-490
21
265
31
0
0
LINE
5
7AC
100
AcDbEntity
67
0
8
0
6
Grid
62
8
370
0
100
AcDbLine
10
-490
20
265
30
0
11
-490
21
240
31
0
0
LINE
5
7AD
100
AcDbEntity
67
0
8
0
6
Grid
62
8
370
0
100
AcDbLine
10
-490
20
265
30
0
11
-465
21
265
31
0
0
LINE
5
7AE
100
AcDbEntity
67
0
8
0
6
Grid
62
8
370
0
100
AcDbLine
10
-465
20
265
30
0
11
-465
21
240
31
0
0
LINE
5
7AF
100
AcDbEntity
67
0
8
0
6
Grid
62
8
370
0
100
AcDbLine
10
-465
20
265
30
0
11
-440
21
265
31
0
0
LINE
5
7B0
100
AcDbEntity
67
0
8
0
6
Grid
62
8
370
0
100
AcDbLine
10
-440
20
265
30
0
11
-440
21
240
31
0
0
LINE
5
7B1
100
AcDbEntity
67
0
8
0
6
Grid
62
8
370
0
100
AcDbLine
10
-440
20
265
30
0
11
-415
21
265
31
0
0
LINE
5
7B2
100
AcDbEntity
67
0
8
0
6
Grid
62
8
370
0
100
AcDbLine
10
-415
20
265
30
0
11
-415
21
240
31
0
0
LINE
5
7B3
100
AcDbEntity
67
0
8
0
6
Grid
62
8
370
0
100
AcDbLine
10
-415
20
265
30
0
11
-390
21
265
31
0
0
LINE
5
7B4
100
AcDbEntity
67
0
8
0
6
Grid
62
8
370
0
100
AcDbLine
10
-390
20
265
30
0
11
-390
21
240
31
0
0
LINE
5
7B5
100
AcDbEntity
67
0
8
0
6
Grid
62
8
370
0
100
AcDbLine
10
-390
20
265
30
0
11
-365
21
265
31
0
0
LINE
5
7B6
100
AcDbEntity
67
0
8
0
6
Grid
62
8
370
0
100
AcDbLine
10
-365
20
265
30
0
11
-365
21
240
31
0
0
LINE
5
7B7
100
AcDbEntity
67
0
8
0
6
Grid
62
8
370
0
100
AcDbLine
10
-365
20
265
30
0
11
-340
21
265
31
0
0
LINE
5
7B8
100
AcDbEntity
67
0
8
0
6
Grid
62
8
370
0
100
AcDbLine
10
-340
20
265
30
0
11
-340
21
240
31
0
0
LINE
5
7B9
100
AcDbEntity
67
0
8
0
6
Grid
62
8
370
0
100
AcDbLine
10
-340
20
265
30
0
11
-315
21
265
31
0
0
LINE
5
7BA
100
AcDbEntity
67
0
8
0
6
Grid
62
8
370
0
100
AcDbLine
10
-315
20
265
30
0
11
-315
21
240
31
0
0
LINE
5
7BB
100
AcDbEntity
67
0
8
0
6
Grid
62
8
370
0
100
AcDbLine
10
-315
20
265
30
0
11
-290
21
265
31
0
0
LINE
5
7BC
100
AcDbEntity
67
0
8
0
6
Grid
62
8
370
0
100
AcDbLine
10
-290
20
265
30
0
11
-290
21
240
31
0
0
LINE
5
7BD
100
AcDbEntity
67
0
8
0
6
Grid
62
8
370
0
100
AcDbLine
10
-290
20
265
30
0
11
-265
21
265
31
0
0
LINE
5
7BE
100
AcDbEntity
67
0
8
0
6
Grid
62
8
370
0
100
AcDbLine
10
-265
20
265
30
0
11
-265
21
240
31
0
0
LINE
5
7BF
100
AcDbEntity
67
0
8
0
6
Grid
62
8
370
0
100
AcDbLine
10
-265
20
265
30
0
11
-240
21
265
31
0
0
LINE
5
7C0
100
AcDbEntity
67
0
8
0
6
Grid
62
8
370
0
100
AcDbLine
10
-240
20
265
30
0
11
-240
21
240
31
0
0
LINE
5
7C1
100
AcDbEntity
67
0
8
0
6
Grid
62
8
370
0
100
AcDbLine
10
-240
20
265
30
0
11
-215
21
265
31
0
0
LINE
5
7C2
100
AcDbEntity
67
0
8
0
6
Grid
62
8
370
0
100
AcDbLine
10
-215
20
265
30
0
11
-215
21
240
31
0
0
LINE
5
7C3
100
AcDbEntity
67
0
8
0
6
Grid
62
8
370
0
100
AcDbLine
10
-215
20
265
30
0
11
-190
21
265
31
0
0
LINE
5
7C4
100
AcDbEntity
67
0
8
0
6
Grid
62
8
370
0
100
AcDbLine
10
-190
20
265
30
0
11
-190
21
240
31
0
0
LINE
5
7C5
100
AcDbEntity
67
0
8
0
6
Grid
62
8
370
0
100
AcDbLine
10
-190
20
265
30
0
11
-165
21
265
31
0
0
LINE
5
7C6
100
AcDbEntity
67
0
8
0
6
Grid
62
8
370
0
100
AcDbLine
10
-165
20
265
30
0
11
-165
21
240
31
0
0
LINE
5
7C7
100
AcDbEntity
67
0
8
0
6
Grid
62
8
370
0
100
AcDbLine
10
-165
20
265
30
0
11
-140
21
265
31
0
0
LINE
5
7C8
100
AcDbEntity
67
0
8
0
6
Grid
62
8
370
0
100
AcDbLine
10
-140
20
265
30
0
11
-140
21
240
31
0
0
LINE
5
7C9
100
AcDbEntity
67
0
8
0
6
Grid
62
8
370
0
100
AcDbLine
10
-140
20
265
30
0
11
-115
21
265
31
0
0
LINE
5
7CA
100
AcDbEntity
67
0
8
0
6
Grid
62
8
370
0
100
AcDbLine
10
-115
20
265
30
0
11
-115
21
240
31
0
0
LINE
5
7CB
100
AcDbEntity
67
0
8
0
6
Grid
62
8
370
0
100
AcDbLine
10
-115
20
265
30
0
11
-90
21
265
31
0
0
LINE
5
7CC
100
AcDbEntity
67
0
8
0
6
Grid
62
8
370
0
100
AcDbLine
10
-90
20
265
30
0
11
-90
21
240
31
0
0
LINE
5
7CD
100
AcDbEntity
67
0
8
0
6
Grid
62
8
370
0
100
AcDbLine
10
-90
20
265
30
0
11
-65
21
265
31
0
0
LINE
5
7CE
100
AcDbEntity
67
0
8
0
6
Grid
62
8
370
0
100
AcDbLine
10
-65
20
265
30
0
11
-65
21
240
31
0
0
LINE
5
7CF
100
AcDbEntity
67
0
8
0
6
Grid
62
8
370
0
100
AcDbLine
10
-65
20
265
30
0
11
-40
21
265
31
0
0
LINE
5
7D0
100
AcDbEntity
67
0
8
0
6
Grid
62
8
370
0
100
AcDbLine
10
-40
20
265
30
0
11
-40
21
240
31
0
0
LINE
5
7D1
100
AcDbEntity
67
0
8
0
6
Grid
62
8
370
0
100
AcDbLine
10
-40
20
265
30
0
11
-15
21
265
31
0
0
LINE
5
7D2
100
AcDbEntity
67
0
8
0
6
Grid
62
8
370
0
100
AcDbLine
10
-15
20
265
30
0
11
-15
21
240
31
0
0
LINE
5
7D3
100
AcDbEntity
67
0
8
0
6
Grid
62
8
370
0
100
AcDbLine
10
-790
20
290
30
0
11
-765
21
290
31
0
0
LINE
5
7D4
100
AcDbEntity
67
0
8
0
6
Grid
62
8
370
0
100
AcDbLine
10
-765
20
290
30
0
11
-765
21
265
31
0
0
LINE
5
7D5
100
AcDbEntity
67
0
8
0
6
Grid
62
8
370
0
100
AcDbLine
10
-790
20
265
30
0
11
-790
21
290
31
0
0
LINE
5
7D6
100
AcDbEntity
67
0
8
0
6
Grid
62
8
370
0
100
AcDbLine
10
-765
20
290
30
0
11
-740
21
290
31
0
0
LINE
5
7D7
100
AcDbEntity
67
0
8
0
6
Grid
62
8
370
0
100
AcDbLine
10
-740
20
290
30
0
11
-740
21
265
31
0
0
LINE
5
7D8
100
AcDbEntity
67
0
8
0
6
Grid
62
8
370
0
100
AcDbLine
10
-740
20
290
30
0
11
-715
21
290
31
0
0
LINE
5
7D9
100
AcDbEntity
67
0
8
0
6
Grid
62
8
370
0
100
AcDbLine
10
-715
20
290
30
0
11
-715
21
265
31
0
0
LINE
5
7DA
100
AcDbEntity
67
0
8
0
6
Grid
62
8
370
0
100
AcDbLine
10
-715
20
290
30
0
11
-690
21
290
31
0
0
LINE
5
7DB
100
AcDbEntity
67
0
8
0
6
Grid
62
8
370
0
100
AcDbLine
10
-690
20
290
30
0
11
-690
21
265
31
0
0
LINE
5
7DC
100
AcDbEntity
67
0
8
0
6
Grid
62
8
370
0
100
AcDbLine
10
-690
20
290
30
0
11
-665
21
290
31
0
0
LINE
5
7DD
100
AcDbEntity
67
0
8
0
6
Grid
62
8
370
0
100
AcDbLine
10
-665
20
290
30
0
11
-665
21
265
31
0
0
LINE
5
7DE
100
AcDbEntity
67
0
8
0
6
Grid
62
8
370
0
100
AcDbLine
10
-665
20
290
30
0
11
-640
21
290
31
0
0
LINE
5
7DF
100
AcDbEntity
67
0
8
0
6
Grid
62
8
370
0
100
AcDbLine
10
-640
20
290
30
0
11
-640
21
265
31
0
0
LINE
5
7E0
100
AcDbEntity
67
0
8
0
6
Grid
62
8
370
0
100
AcDbLine
10
-640
20
290
30
0
11
-615
21
290
31
0
0
LINE
5
7E1
100
AcDbEntity
67
0
8
0
6
Grid
62
8
370
0
100
AcDbLine
10
-615
20
290
30
0
11
-615
21
265
31
0
0
LINE
5
7E2
100
AcDbEntity
67
0
8
0
6
Grid
62
8
370
0
100
AcDbLine
10
-615
20
290
30
0
11
-590
21
290
31
0
0
LINE
5
7E3
100
AcDbEntity
67
0
8
0
6
Grid
62
8
370
0
100
AcDbLine
10
-590
20
290
30
0
11
-590
21
265
31
0
0
LINE
5
7E4
100
AcDbEntity
67
0
8
0
6
Grid
62
8
370
0
100
AcDbLine
10
-590
20
290
30
0
11
-565
21
290
31
0
0
LINE
5
7E5
100
AcDbEntity
67
0
8
0
6
Grid
62
8
370
0
100
AcDbLine
10
-565
20
290
30
0
11
-565
21
265
31
0
0
LINE
5
7E6
100
AcDbEntity
67
0
8
0
6
Grid
62
8
370
0
100
AcDbLine
10
-565
20
290
30
0
11
-540
21
290
31
0
0
LINE
5
7E7
100
AcDbEntity
67
0
8
0
6
Grid
62
8
370
0
100
AcDbLine
10
-540
20
290
30
0
11
-540
21
265
31
0
0
LINE
5
7E8
100
AcDbEntity
67
0
8
0
6
Grid
62
8
370
0
100
AcDbLine
10
-540
20
290
30
0
11
-515
21
290
31
0
0
LINE
5
7E9
100
AcDbEntity
67
0
8
0
6
Grid
62
8
370
0
100
AcDbLine
10
-515
20
290
30
0
11
-515
21
265
31
0
0
LINE
5
7EA
100
AcDbEntity
67
0
8
0
6
Grid
62
8
370
0
100
AcDbLine
10
-515
20
290
30
0
11
-490
21
290
31
0
0
LINE
5
7EB
100
AcDbEntity
67
0
8
0
6
Grid
62
8
370
0
100
AcDbLine
10
-490
20
290
30
0
11
-490
21
265
31
0
0
LINE
5
7EC
100
AcDbEntity
67
0
8
0
6
Grid
62
8
370
0
100
AcDbLine
10
-490
20
290
30
0
11
-465
21
290
31
0
0
LINE
5
7ED
100
AcDbEntity
67
0
8
0
6
Grid
62
8
370
0
100
AcDbLine
10
-465
20
290
30
0
11
-465
21
265
31
0
0
LINE
5
7EE
100
AcDbEntity
67
0
8
0
6
Grid
62
8
370
0
100
AcDbLine
10
-465
20
290
30
0
11
-440
21
290
31
0
0
LINE
5
7EF
100
AcDbEntity
67
0
8
0
6
Grid
62
8
370
0
100
AcDbLine
10
-440
20
290
30
0
11
-440
21
265
31
0
0
LINE
5
7F0
100
AcDbEntity
67
0
8
0
6
Grid
62
8
370
0
100
AcDbLine
10
-440
20
290
30
0
11
-415
21
290
31
0
0
LINE
5
7F1
100
AcDbEntity
67
0
8
0
6
Grid
62
8
370
0
100
AcDbLine
10
-415
20
290
30
0
11
-415
21
265
31
0
0
LINE
5
7F2
100
AcDbEntity
67
0
8
0
6
Grid
62
8
370
0
100
AcDbLine
10
-415
20
290
30
0
11
-390
21
290
31
0
0
LINE
5
7F3
100
AcDbEntity
67
0
8
0
6
Grid
62
8
370
0
100
AcDbLine
10
-390
20
290
30
0
11
-390
21
265
31
0
0
LINE
5
7F4
100
AcDbEntity
67
0
8
0
6
Grid
62
8
370
0
100
AcDbLine
10
-390
20
290
30
0
11
-365
21
290
31
0
0
LINE
5
7F5
100
AcDbEntity
67
0
8
0
6
Grid
62
8
370
0
100
AcDbLine
10
-365
20
290
30
0
11
-365
21
265
31
0
0
LINE
5
7F6
100
AcDbEntity
67
0
8
0
6
Grid
62
8
370
0
100
AcDbLine
10
-365
20
290
30
0
11
-340
21
290
31
0
0
LINE
5
7F7
100
AcDbEntity
67
0
8
0
6
Grid
62
8
370
0
100
AcDbLine
10
-340
20
290
30
0
11
-340
21
265
31
0
0
LINE
5
7F8
100
AcDbEntity
67
0
8
0
6
Grid
62
8
370
0
100
AcDbLine
10
-340
20
290
30
0
11
-315
21
290
31
0
0
LINE
5
7F9
100
AcDbEntity
67
0
8
0
6
Grid
62
8
370
0
100
AcDbLine
10
-315
20
290
30
0
11
-315
21
265
31
0
0
LINE
5
7FA
100
AcDbEntity
67
0
8
0
6
Grid
62
8
370
0
100
AcDbLine
10
-315
20
290
30
0
11
-290
21
290
31
0
0
LINE
5
7FB
100
AcDbEntity
67
0
8
0
6
Grid
62
8
370
0
100
AcDbLine
10
-290
20
290
30
0
11
-290
21
265
31
0
0
LINE
5
7FC
100
AcDbEntity
67
0
8
0
6
Grid
62
8
370
0
100
AcDbLine
10
-290
20
290
30
0
11
-265
21
290
31
0
0
LINE
5
7FD
100
AcDbEntity
67
0
8
0
6
Grid
62
8
370
0
100
AcDbLine
10
-265
20
290
30
0
11
-265
21
265
31
0
0
LINE
5
7FE
100
AcDbEntity
67
0
8
0
6
Grid
62
8
370
0
100
AcDbLine
10
-265
20
290
30
0
11
-240
21
290
31
0
0
LINE
5
7FF
100
AcDbEntity
67
0
8
0
6
Grid
62
8
370
0
100
AcDbLine
10
-240
20
290
30
0
11
-240
21
265
31
0
0
LINE
5
800
100
AcDbEntity
67
0
8
0
6
Grid
62
8
370
0
100
AcDbLine
10
-240
20
290
30
0
11
-215
21
290
31
0
0
LINE
5
801
100
AcDbEntity
67
0
8
0
6
Grid
62
8
370
0
100
AcDbLine
10
-215
20
290
30
0
11
-215
21
265
31
0
0
LINE
5
802
100
AcDbEntity
67
0
8
0
6
Grid
62
8
370
0
100
AcDbLine
10
-215
20
290
30
0
11
-190
21
290
31
0
0
LINE
5
803
100
AcDbEntity
67
0
8
0
6
Grid
62
8
370
0
100
AcDbLine
10
-190
20
290
30
0
11
-190
21
265
31
0
0
LINE
5
804
100
AcDbEntity
67
0
8
0
6
Grid
62
8
370
0
100
AcDbLine
10
-190
20
290
30
0
11
-165
21
290
31
0
0
LINE
5
805
100
AcDbEntity
67
0
8
0
6
Grid
62
8
370
0
100
AcDbLine
10
-165
20
290
30
0
11
-165
21
265
31
0
0
LINE
5
806
100
AcDbEntity
67
0
8
0
6
Grid
62
8
370
0
100
AcDbLine
10
-165
20
290
30
0
11
-140
21
290
31
0
0
LINE
5
807
100
AcDbEntity
67
0
8
0
6
Grid
62
8
370
0
100
AcDbLine
10
-140
20
290
30
0
11
-140
21
265
31
0
0
LINE
5
808
100
AcDbEntity
67
0
8
0
6
Grid
62
8
370
0
100
AcDbLine
10
-140
20
290
30
0
11
-115
21
290
31
0
0
LINE
5
809
100
AcDbEntity
67
0
8
0
6
Grid
62
8
370
0
100
AcDbLine
10
-115
20
290
30
0
11
-115
21
265
31
0
0
LINE
5
80A
100
AcDbEntity
67
0
8
0
6
Grid
62
8
370
0
100
AcDbLine
10
-115
20
290
30
0
11
-90
21
290
31
0
0
LINE
5
80B
100
AcDbEntity
67
0
8
0
6
Grid
62
8
370
0
100
AcDbLine
10
-90
20
290
30
0
11
-90
21
265
31
0
0
LINE
5
80C
100
AcDbEntity
67
0
8
0
6
Grid
62
8
370
0
100
AcDbLine
10
-90
20
290
30
0
11
-65
21
290
31
0
0
LINE
5
80D
100
AcDbEntity
67
0
8
0
6
Grid
62
8
370
0
100
AcDbLine
10
-65
20
290
30
0
11
-65
21
265
31
0
0
LINE
5
80E
100
AcDbEntity
67
0
8
0
6
Grid
62
8
370
0
100
AcDbLine
10
-65
20
290
30
0
11
-40
21
290
31
0
0
LINE
5
80F
100
AcDbEntity
67
0
8
0
6
Grid
62
8
370
0
100
AcDbLine
10
-40
20
290
30
0
11
-40
21
265
31
0
0
LINE
5
810
100
AcDbEntity
67
0
8
0
6
Grid
62
8
370
0
100
AcDbLine
10
-40
20
290
30
0
11
-15
21
290
31
0
0
LINE
5
811
100
AcDbEntity
67
0
8
0
6
Grid
62
8
370
0
100
AcDbLine
10
-15
20
290
30
0
11
-15
21
265
31
0
0
LINE
5
812
100
AcDbEntity
67
0
8
0
6
Grid
62
8
370
0
100
AcDbLine
10
-790
20
315
30
0
11
-765
21
315
31
0
0
LINE
5
813
100
AcDbEntity
67
0
8
0
6
Grid
62
8
370
0
100
AcDbLine
10
-765
20
315
30
0
11
-765
21
290
31
0
0
LINE
5
814
100
AcDbEntity
67
0
8
0
6
Grid
62
8
370
0
100
AcDbLine
10
-790
20
290
30
0
11
-790
21
315
31
0
0
LINE
5
815
100
AcDbEntity
67
0
8
0
6
Grid
62
8
370
0
100
AcDbLine
10
-765
20
315
30
0
11
-740
21
315
31
0
0
LINE
5
816
100
AcDbEntity
67
0
8
0
6
Grid
62
8
370
0
100
AcDbLine
10
-740
20
315
30
0
11
-740
21
290
31
0
0
LINE
5
817
100
AcDbEntity
67
0
8
0
6
Grid
62
8
370
0
100
AcDbLine
10
-740
20
315
30
0
11
-715
21
315
31
0
0
LINE
5
818
100
AcDbEntity
67
0
8
0
6
Grid
62
8
370
0
100
AcDbLine
10
-715
20
315
30
0
11
-715
21
290
31
0
0
LINE
5
819
100
AcDbEntity
67
0
8
0
6
Grid
62
8
370
0
100
AcDbLine
10
-715
20
315
30
0
11
-690
21
315
31
0
0
LINE
5
81A
100
AcDbEntity
67
0
8
0
6
Grid
62
8
370
0
100
AcDbLine
10
-690
20
315
30
0
11
-690
21
290
31
0
0
LINE
5
81B
100
AcDbEntity
67
0
8
0
6
Grid
62
8
370
0
100
AcDbLine
10
-690
20
315
30
0
11
-665
21
315
31
0
0
LINE
5
81C
100
AcDbEntity
67
0
8
0
6
Grid
62
8
370
0
100
AcDbLine
10
-665
20
315
30
0
11
-665
21
290
31
0
0
LINE
5
81D
100
AcDbEntity
67
0
8
0
6
Grid
62
8
370
0
100
AcDbLine
10
-665
20
315
30
0
11
-640
21
315
31
0
0
LINE
5
81E
100
AcDbEntity
67
0
8
0
6
Grid
62
8
370
0
100
AcDbLine
10
-640
20
315
30
0
11
-640
21
290
31
0
0
LINE
5
81F
100
AcDbEntity
67
0
8
0
6
Grid
62
8
370
0
100
AcDbLine
10
-640
20
315
30
0
11
-615
21
315
31
0
0
LINE
5
820
100
AcDbEntity
67
0
8
0
6
Grid
62
8
370
0
100
AcDbLine
10
-615
20
315
30
0
11
-615
21
290
31
0
0
LINE
5
821
100
AcDbEntity
67
0
8
0
6
Grid
62
8
370
0
100
AcDbLine
10
-615
20
315
30
0
11
-590
21
315
31
0
0
LINE
5
822
100
AcDbEntity
67
0
8
0
6
Grid
62
8
370
0
100
AcDbLine
10
-590
20
315
30
0
11
-590
21
290
31
0
0
LINE
5
823
100
AcDbEntity
67
0
8
0
6
Grid
62
8
370
0
100
AcDbLine
10
-590
20
315
30
0
11
-565
21
315
31
0
0
LINE
5
824
100
AcDbEntity
67
0
8
0
6
Grid
62
8
370
0
100
AcDbLine
10
-565
20
315
30
0
11
-565
21
290
31
0
0
LINE
5
825
100
AcDbEntity
67
0
8
0
6
Grid
62
8
370
0
100
AcDbLine
10
-565
20
315
30
0
11
-540
21
315
31
0
0
LINE
5
826
100
AcDbEntity
67
0
8
0
6
Grid
62
8
370
0
100
AcDbLine
10
-540
20
315
30
0
11
-540
21
290
31
0
0
LINE
5
827
100
AcDbEntity
67
0
8
0
6
Grid
62
8
370
0
100
AcDbLine
10
-540
20
315
30
0
11
-515
21
315
31
0
0
LINE
5
828
100
AcDbEntity
67
0
8
0
6
Grid
62
8
370
0
100
AcDbLine
10
-515
20
315
30
0
11
-515
21
290
31
0
0
LINE
5
829
100
AcDbEntity
67
0
8
0
6
Grid
62
8
370
0
100
AcDbLine
10
-515
20
315
30
0
11
-490
21
315
31
0
0
LINE
5
82A
100
AcDbEntity
67
0
8
0
6
Grid
62
8
370
0
100
AcDbLine
10
-490
20
315
30
0
11
-490
21
290
31
0
0
LINE
5
82B
100
AcDbEntity
67
0
8
0
6
Grid
62
8
370
0
100
AcDbLine
10
-490
20
315
30
0
11
-465
21
315
31
0
0
LINE
5
82C
100
AcDbEntity
67
0
8
0
6
Grid
62
8
370
0
100
AcDbLine
10
-465
20
315
30
0
11
-465
21
290
31
0
0
LINE
5
82D
100
AcDbEntity
67
0
8
0
6
Grid
62
8
370
0
100
AcDbLine
10
-465
20
315
30
0
11
-440
21
315
31
0
0
LINE
5
82E
100
AcDbEntity
67
0
8
0
6
Grid
62
8
370
0
100
AcDbLine
10
-440
20
315
30
0
11
-440
21
290
31
0
0
LINE
5
82F
100
AcDbEntity
67
0
8
0
6
Grid
62
8
370
0
100
AcDbLine
10
-440
20
315
30
0
11
-415
21
315
31
0
0
LINE
5
830
100
AcDbEntity
67
0
8
0
6
Grid
62
8
370
0
100
AcDbLine
10
-415
20
315
30
0
11
-415
21
290
31
0
0
LINE
5
831
100
AcDbEntity
67
0
8
0
6
Grid
62
8
370
0
100
AcDbLine
10
-415
20
315
30
0
11
-390
21
315
31
0
0
LINE
5
832
100
AcDbEntity
67
0
8
0
6
Grid
62
8
370
0
100
AcDbLine
10
-390
20
315
30
0
11
-390
21
290
31
0
0
LINE
5
833
100
AcDbEntity
67
0
8
0
6
Grid
62
8
370
0
100
AcDbLine
10
-390
20
315
30
0
11
-365
21
315
31
0
0
LINE
5
834
100
AcDbEntity
67
0
8
0
6
Grid
62
8
370
0
100
AcDbLine
10
-365
20
315
30
0
11
-365
21
290
31
0
0
LINE
5
835
100
AcDbEntity
67
0
8
0
6
Grid
62
8
370
0
100
AcDbLine
10
-365
20
315
30
0
11
-340
21
315
31
0
0
LINE
5
836
100
AcDbEntity
67
0
8
0
6
Grid
62
8
370
0
100
AcDbLine
10
-340
20
315
30
0
11
-340
21
290
31
0
0
LINE
5
837
100
AcDbEntity
67
0
8
0
6
Grid
62
8
370
0
100
AcDbLine
10
-340
20
315
30
0
11
-315
21
315
31
0
0
LINE
5
838
100
AcDbEntity
67
0
8
0
6
Grid
62
8
370
0
100
AcDbLine
10
-315
20
315
30
0
11
-315
21
290
31
0
0
LINE
5
839
100
AcDbEntity
67
0
8
0
6
Grid
62
8
370
0
100
AcDbLine
10
-315
20
315
30
0
11
-290
21
315
31
0
0
LINE
5
83A
100
AcDbEntity
67
0
8
0
6
Grid
62
8
370
0
100
AcDbLine
10
-290
20
315
30
0
11
-290
21
290
31
0
0
LINE
5
83B
100
AcDbEntity
67
0
8
0
6
Grid
62
8
370
0
100
AcDbLine
10
-290
20
315
30
0
11
-265
21
315
31
0
0
LINE
5
83C
100
AcDbEntity
67
0
8
0
6
Grid
62
8
370
0
100
AcDbLine
10
-265
20
315
30
0
11
-265
21
290
31
0
0
LINE
5
83D
100
AcDbEntity
67
0
8
0
6
Grid
62
8
370
0
100
AcDbLine
10
-265
20
315
30
0
11
-240
21
315
31
0
0
LINE
5
83E
100
AcDbEntity
67
0
8
0
6
Grid
62
8
370
0
100
AcDbLine
10
-240
20
315
30
0
11
-240
21
290
31
0
0
LINE
5
83F
100
AcDbEntity
67
0
8
0
6
Grid
62
8
370
0
100
AcDbLine
10
-240
20
315
30
0
11
-215
21
315
31
0
0
LINE
5
840
100
AcDbEntity
67
0
8
0
6
Grid
62
8
370
0
100
AcDbLine
10
-215
20
315
30
0
11
-215
21
290
31
0
0
LINE
5
841
100
AcDbEntity
67
0
8
0
6
Grid
62
8
370
0
100
AcDbLine
10
-215
20
315
30
0
11
-190
21
315
31
0
0
LINE
5
842
100
AcDbEntity
67
0
8
0
6
Grid
62
8
370
0
100
AcDbLine
10
-190
20
315
30
0
11
-190
21
290
31
0
0
LINE
5
843
100
AcDbEntity
67
0
8
0
6
Grid
62
8
370
0
100
AcDbLine
10
-190
20
315
30
0
11
-165
21
315
31
0
0
LINE
5
844
100
AcDbEntity
67
0
8
0
6
Grid
62
8
370
0
100
AcDbLine
10
-165
20
315
30
0
11
-165
21
290
31
0
0
LINE
5
845
100
AcDbEntity
67
0
8
0
6
Grid
62
8
370
0
100
AcDbLine
10
-165
20
315
30
0
11
-140
21
315
31
0
0
LINE
5
846
100
AcDbEntity
67
0
8
0
6
Grid
62
8
370
0
100
AcDbLine
10
-140
20
315
30
0
11
-140
21
290
31
0
0
LINE
5
847
100
AcDbEntity
67
0
8
0
6
Grid
62
8
370
0
100
AcDbLine
10
-140
20
315
30
0
11
-115
21
315
31
0
0
LINE
5
848
100
AcDbEntity
67
0
8
0
6
Grid
62
8
370
0
100
AcDbLine
10
-115
20
315
30
0
11
-115
21
290
31
0
0
LINE
5
849
100
AcDbEntity
67
0
8
0
6
Grid
62
8
370
0
100
AcDbLine
10
-115
20
315
30
0
11
-90
21
315
31
0
0
LINE
5
84A
100
AcDbEntity
67
0
8
0
6
Grid
62
8
370
0
100
AcDbLine
10
-90
20
315
30
0
11
-90
21
290
31
0
0
LINE
5
84B
100
AcDbEntity
67
0
8
0
6
Grid
62
8
370
0
100
AcDbLine
10
-90
20
315
30
0
11
-65
21
315
31
0
0
LINE
5
84C
100
AcDbEntity
67
0
8
0
6
Grid
62
8
370
0
100
AcDbLine
10
-65
20
315
30
0
11
-65
21
290
31
0
0
LINE
5
84D
100
AcDbEntity
67
0
8
0
6
Grid
62
8
370
0
100
AcDbLine
10
-65
20
315
30
0
11
-40
21
315
31
0
0
LINE
5
84E
100
AcDbEntity
67
0
8
0
6
Grid
62
8
370
0
100
AcDbLine
10
-40
20
315
30
0
11
-40
21
290
31
0
0
LINE
5
84F
100
AcDbEntity
67
0
8
0
6
Grid
62
8
370
0
100
AcDbLine
10
-40
20
315
30
0
11
-15
21
315
31
0
0
LINE
5
850
100
AcDbEntity
67
0
8
0
6
Grid
62
8
370
0
100
AcDbLine
10
-15
20
315
30
0
11
-15
21
290
31
0
0
LINE
5
851
100
AcDbEntity
67
0
8
0
6
Grid
62
8
370
0
100
AcDbLine
10
-790
20
340
30
0
11
-765
21
340
31
0
0
LINE
5
852
100
AcDbEntity
67
0
8
0
6
Grid
62
8
370
0
100
AcDbLine
10
-765
20
340
30
0
11
-765
21
315
31
0
0
LINE
5
853
100
AcDbEntity
67
0
8
0
6
Grid
62
8
370
0
100
AcDbLine
10
-790
20
315
30
0
11
-790
21
340
31
0
0
LINE
5
854
100
AcDbEntity
67
0
8
0
6
Grid
62
8
370
0
100
AcDbLine
10
-765
20
340
30
0
11
-740
21
340
31
0
0
LINE
5
855
100
AcDbEntity
67
0
8
0
6
Grid
62
8
370
0
100
AcDbLine
10
-740
20
340
30
0
11
-740
21
315
31
0
0
LINE
5
856
100
AcDbEntity
67
0
8
0
6
Grid
62
8
370
0
100
AcDbLine
10
-740
20
340
30
0
11
-715
21
340
31
0
0
LINE
5
857
100
AcDbEntity
67
0
8
0
6
Grid
62
8
370
0
100
AcDbLine
10
-715
20
340
30
0
11
-715
21
315
31
0
0
LINE
5
858
100
AcDbEntity
67
0
8
0
6
Grid
62
8
370
0
100
AcDbLine
10
-715
20
340
30
0
11
-690
21
340
31
0
0
LINE
5
859
100
AcDbEntity
67
0
8
0
6
Grid
62
8
370
0
100
AcDbLine
10
-690
20
340
30
0
11
-690
21
315
31
0
0
LINE
5
85A
100
AcDbEntity
67
0
8
0
6
Grid
62
8
370
0
100
AcDbLine
10
-690
20
340
30
0
11
-665
21
340
31
0
0
LINE
5
85B
100
AcDbEntity
67
0
8
0
6
Grid
62
8
370
0
100
AcDbLine
10
-665
20
340
30
0
11
-665
21
315
31
0
0
LINE
5
85C
100
AcDbEntity
67
0
8
0
6
Grid
62
8
370
0
100
AcDbLine
10
-665
20
340
30
0
11
-640
21
340
31
0
0
LINE
5
85D
100
AcDbEntity
67
0
8
0
6
Grid
62
8
370
0
100
AcDbLine
10
-640
20
340
30
0
11
-640
21
315
31
0
0
LINE
5
85E
100
AcDbEntity
67
0
8
0
6
Grid
62
8
370
0
100
AcDbLine
10
-640
20
340
30
0
11
-615
21
340
31
0
0
LINE
5
85F
100
AcDbEntity
67
0
8
0
6
Grid
62
8
370
0
100
AcDbLine
10
-615
20
340
30
0
11
-615
21
315
31
0
0
LINE
5
860
100
AcDbEntity
67
0
8
0
6
Grid
62
8
370
0
100
AcDbLine
10
-615
20
340
30
0
11
-590
21
340
31
0
0
LINE
5
861
100
AcDbEntity
67
0
8
0
6
Grid
62
8
370
0
100
AcDbLine
10
-590
20
340
30
0
11
-590
21
315
31
0
0
LINE
5
862
100
AcDbEntity
67
0
8
0
6
Grid
62
8
370
0
100
AcDbLine
10
-590
20
340
30
0
11
-565
21
340
31
0
0
LINE
5
863
100
AcDbEntity
67
0
8
0
6
Grid
62
8
370
0
100
AcDbLine
10
-565
20
340
30
0
11
-565
21
315
31
0
0
LINE
5
864
100
AcDbEntity
67
0
8
0
6
Grid
62
8
370
0
100
AcDbLine
10
-565
20
340
30
0
11
-540
21
340
31
0
0
LINE
5
865
100
AcDbEntity
67
0
8
0
6
Grid
62
8
370
0
100
AcDbLine
10
-540
20
340
30
0
11
-540
21
315
31
0
0
LINE
5
866
100
AcDbEntity
67
0
8
0
6
Grid
62
8
370
0
100
AcDbLine
10
-540
20
340
30
0
11
-515
21
340
31
0
0
LINE
5
867
100
AcDbEntity
67
0
8
0
6
Grid
62
8
370
0
100
AcDbLine
10
-515
20
340
30
0
11
-515
21
315
31
0
0
LINE
5
868
100
AcDbEntity
67
0
8
0
6
Grid
62
8
370
0
100
AcDbLine
10
-515
20
340
30
0
11
-490
21
340
31
0
0
LINE
5
869
100
AcDbEntity
67
0
8
0
6
Grid
62
8
370
0
100
AcDbLine
10
-490
20
340
30
0
11
-490
21
315
31
0
0
LINE
5
86A
100
AcDbEntity
67
0
8
0
6
Grid
62
8
370
0
100
AcDbLine
10
-490
20
340
30
0
11
-465
21
340
31
0
0
LINE
5
86B
100
AcDbEntity
67
0
8
0
6
Grid
62
8
370
0
100
AcDbLine
10
-465
20
340
30
0
11
-465
21
315
31
0
0
LINE
5
86C
100
AcDbEntity
67
0
8
0
6
Grid
62
8
370
0
100
AcDbLine
10
-465
20
340
30
0
11
-440
21
340
31
0
0
LINE
5
86D
100
AcDbEntity
67
0
8
0
6
Grid
62
8
370
0
100
AcDbLine
10
-440
20
340
30
0
11
-440
21
315
31
0
0
LINE
5
86E
100
AcDbEntity
67
0
8
0
6
Grid
62
8
370
0
100
AcDbLine
10
-440
20
340
30
0
11
-415
21
340
31
0
0
LINE
5
86F
100
AcDbEntity
67
0
8
0
6
Grid
62
8
370
0
100
AcDbLine
10
-415
20
340
30
0
11
-415
21
315
31
0
0
LINE
5
870
100
AcDbEntity
67
0
8
0
6
Grid
62
8
370
0
100
AcDbLine
10
-415
20
340
30
0
11
-390
21
340
31
0
0
LINE
5
871
100
AcDbEntity
67
0
8
0
6
Grid
62
8
370
0
100
AcDbLine
10
-390
20
340
30
0
11
-390
21
315
31
0
0
LINE
5
872
100
AcDbEntity
67
0
8
0
6
Grid
62
8
370
0
100
AcDbLine
10
-390
20
340
30
0
11
-365
21
340
31
0
0
LINE
5
873
100
AcDbEntity
67
0
8
0
6
Grid
62
8
370
0
100
AcDbLine
10
-365
20
340
30
0
11
-365
21
315
31
0
0
LINE
5
874
100
AcDbEntity
67
0
8
0
6
Grid
62
8
370
0
100
AcDbLine
10
-365
20
340
30
0
11
-340
21
340
31
0
0
LINE
5
875
100
AcDbEntity
67
0
8
0
6
Grid
62
8
370
0
100
AcDbLine
10
-340
20
340
30
0
11
-340
21
315
31
0
0
LINE
5
876
100
AcDbEntity
67
0
8
0
6
Grid
62
8
370
0
100
AcDbLine
10
-340
20
340
30
0
11
-315
21
340
31
0
0
LINE
5
877
100
AcDbEntity
67
0
8
0
6
Grid
62
8
370
0
100
AcDbLine
10
-315
20
340
30
0
11
-315
21
315
31
0
0
LINE
5
878
100
AcDbEntity
67
0
8
0
6
Grid
62
8
370
0
100
AcDbLine
10
-315
20
340
30
0
11
-290
21
340
31
0
0
LINE
5
879
100
AcDbEntity
67
0
8
0
6
Grid
62
8
370
0
100
AcDbLine
10
-290
20
340
30
0
11
-290
21
315
31
0
0
LINE
5
87A
100
AcDbEntity
67
0
8
0
6
Grid
62
8
370
0
100
AcDbLine
10
-290
20
340
30
0
11
-265
21
340
31
0
0
LINE
5
87B
100
AcDbEntity
67
0
8
0
6
Grid
62
8
370
0
100
AcDbLine
10
-265
20
340
30
0
11
-265
21
315
31
0
0
LINE
5
87C
100
AcDbEntity
67
0
8
0
6
Grid
62
8
370
0
100
AcDbLine
10
-265
20
340
30
0
11
-240
21
340
31
0
0
LINE
5
87D
100
AcDbEntity
67
0
8
0
6
Grid
62
8
370
0
100
AcDbLine
10
-240
20
340
30
0
11
-240
21
315
31
0
0
LINE
5
87E
100
AcDbEntity
67
0
8
0
6
Grid
62
8
370
0
100
AcDbLine
10
-240
20
340
30
0
11
-215
21
340
31
0
0
LINE
5
87F
100
AcDbEntity
67
0
8
0
6
Grid
62
8
370
0
100
AcDbLine
10
-215
20
340
30
0
11
-215
21
315
31
0
0
LINE
5
880
100
AcDbEntity
67
0
8
0
6
Grid
62
8
370
0
100
AcDbLine
10
-215
20
340
30
0
11
-190
21
340
31
0
0
LINE
5
881
100
AcDbEntity
67
0
8
0
6
Grid
62
8
370
0
100
AcDbLine
10
-190
20
340
30
0
11
-190
21
315
31
0
0
LINE
5
882
100
AcDbEntity
67
0
8
0
6
Grid
62
8
370
0
100
AcDbLine
10
-190
20
340
30
0
11
-165
21
340
31
0
0
LINE
5
883
100
AcDbEntity
67
0
8
0
6
Grid
62
8
370
0
100
AcDbLine
10
-165
20
340
30
0
11
-165
21
315
31
0
0
LINE
5
884
100
AcDbEntity
67
0
8
0
6
Grid
62
8
370
0
100
AcDbLine
10
-165
20
340
30
0
11
-140
21
340
31
0
0
LINE
5
885
100
AcDbEntity
67
0
8
0
6
Grid
62
8
370
0
100
AcDbLine
10
-140
20
340
30
0
11
-140
21
315
31
0
0
LINE
5
886
100
AcDbEntity
67
0
8
0
6
Grid
62
8
370
0
100
AcDbLine
10
-140
20
340
30
0
11
-115
21
340
31
0
0
LINE
5
887
100
AcDbEntity
67
0
8
0
6
Grid
62
8
370
0
100
AcDbLine
10
-115
20
340
30
0
11
-115
21
315
31
0
0
LINE
5
888
100
AcDbEntity
67
0
8
0
6
Grid
62
8
370
0
100
AcDbLine
10
-115
20
340
30
0
11
-90
21
340
31
0
0
LINE
5
889
100
AcDbEntity
67
0
8
0
6
Grid
62
8
370
0
100
AcDbLine
10
-90
20
340
30
0
11
-90
21
315
31
0
0
LINE
5
88A
100
AcDbEntity
67
0
8
0
6
Grid
62
8
370
0
100
AcDbLine
10
-90
20
340
30
0
11
-65
21
340
31
0
0
LINE
5
88B
100
AcDbEntity
67
0
8
0
6
Grid
62
8
370
0
100
AcDbLine
10
-65
20
340
30
0
11
-65
21
315
31
0
0
LINE
5
88C
100
AcDbEntity
67
0
8
0
6
Grid
62
8
370
0
100
AcDbLine
10
-65
20
340
30
0
11
-40
21
340
31
0
0
LINE
5
88D
100
AcDbEntity
67
0
8
0
6
Grid
62
8
370
0
100
AcDbLine
10
-40
20
340
30
0
11
-40
21
315
31
0
0
LINE
5
88E
100
AcDbEntity
67
0
8
0
6
Grid
62
8
370
0
100
AcDbLine
10
-40
20
340
30
0
11
-15
21
340
31
0
0
LINE
5
88F
100
AcDbEntity
67
0
8
0
6
Grid
62
8
370
0
100
AcDbLine
10
-15
20
340
30
0
11
-15
21
315
31
0
0
LINE
5
890
100
AcDbEntity
67
0
8
0
6
Grid
62
8
370
0
100
AcDbLine
10
-790
20
365
30
0
11
-765
21
365
31
0
0
LINE
5
891
100
AcDbEntity
67
0
8
0
6
Grid
62
8
370
0
100
AcDbLine
10
-765
20
365
30
0
11
-765
21
340
31
0
0
LINE
5
892
100
AcDbEntity
67
0
8
0
6
Grid
62
8
370
0
100
AcDbLine
10
-790
20
340
30
0
11
-790
21
365
31
0
0
LINE
5
893
100
AcDbEntity
67
0
8
0
6
Grid
62
8
370
0
100
AcDbLine
10
-765
20
365
30
0
11
-740
21
365
31
0
0
LINE
5
894
100
AcDbEntity
67
0
8
0
6
Grid
62
8
370
0
100
AcDbLine
10
-740
20
365
30
0
11
-740
21
340
31
0
0
LINE
5
895
100
AcDbEntity
67
0
8
0
6
Grid
62
8
370
0
100
AcDbLine
10
-740
20
365
30
0
11
-715
21
365
31
0
0
LINE
5
896
100
AcDbEntity
67
0
8
0
6
Grid
62
8
370
0
100
AcDbLine
10
-715
20
365
30
0
11
-715
21
340
31
0
0
LINE
5
897
100
AcDbEntity
67
0
8
0
6
Grid
62
8
370
0
100
AcDbLine
10
-715
20
365
30
0
11
-690
21
365
31
0
0
LINE
5
898
100
AcDbEntity
67
0
8
0
6
Grid
62
8
370
0
100
AcDbLine
10
-690
20
365
30
0
11
-690
21
340
31
0
0
LINE
5
899
100
AcDbEntity
67
0
8
0
6
Grid
62
8
370
0
100
AcDbLine
10
-690
20
365
30
0
11
-665
21
365
31
0
0
LINE
5
89A
100
AcDbEntity
67
0
8
0
6
Grid
62
8
370
0
100
AcDbLine
10
-665
20
365
30
0
11
-665
21
340
31
0
0
LINE
5
89B
100
AcDbEntity
67
0
8
0
6
Grid
62
8
370
0
100
AcDbLine
10
-665
20
365
30
0
11
-640
21
365
31
0
0
LINE
5
89C
100
AcDbEntity
67
0
8
0
6
Grid
62
8
370
0
100
AcDbLine
10
-640
20
365
30
0
11
-640
21
340
31
0
0
LINE
5
89D
100
AcDbEntity
67
0
8
0
6
Grid
62
8
370
0
100
AcDbLine
10
-640
20
365
30
0
11
-615
21
365
31
0
0
LINE
5
89E
100
AcDbEntity
67
0
8
0
6
Grid
62
8
370
0
100
AcDbLine
10
-615
20
365
30
0
11
-615
21
340
31
0
0
LINE
5
89F
100
AcDbEntity
67
0
8
0
6
Grid
62
8
370
0
100
AcDbLine
10
-615
20
365
30
0
11
-590
21
365
31
0
0
LINE
5
8A0
100
AcDbEntity
67
0
8
0
6
Grid
62
8
370
0
100
AcDbLine
10
-590
20
365
30
0
11
-590
21
340
31
0
0
LINE
5
8A1
100
AcDbEntity
67
0
8
0
6
Grid
62
8
370
0
100
AcDbLine
10
-590
20
365
30
0
11
-565
21
365
31
0
0
LINE
5
8A2
100
AcDbEntity
67
0
8
0
6
Grid
62
8
370
0
100
AcDbLine
10
-565
20
365
30
0
11
-565
21
340
31
0
0
LINE
5
8A3
100
AcDbEntity
67
0
8
0
6
Grid
62
8
370
0
100
AcDbLine
10
-565
20
365
30
0
11
-540
21
365
31
0
0
LINE
5
8A4
100
AcDbEntity
67
0
8
0
6
Grid
62
8
370
0
100
AcDbLine
10
-540
20
365
30
0
11
-540
21
340
31
0
0
LINE
5
8A5
100
AcDbEntity
67
0
8
0
6
Grid
62
8
370
0
100
AcDbLine
10
-540
20
365
30
0
11
-515
21
365
31
0
0
LINE
5
8A6
100
AcDbEntity
67
0
8
0
6
Grid
62
8
370
0
100
AcDbLine
10
-515
20
365
30
0
11
-515
21
340
31
0
0
LINE
5
8A7
100
AcDbEntity
67
0
8
0
6
Grid
62
8
370
0
100
AcDbLine
10
-515
20
365
30
0
11
-490
21
365
31
0
0
LINE
5
8A8
100
AcDbEntity
67
0
8
0
6
Grid
62
8
370
0
100
AcDbLine
10
-490
20
365
30
0
11
-490
21
340
31
0
0
LINE
5
8A9
100
AcDbEntity
67
0
8
0
6
Grid
62
8
370
0
100
AcDbLine
10
-490
20
365
30
0
11
-465
21
365
31
0
0
LINE
5
8AA
100
AcDbEntity
67
0
8
0
6
Grid
62
8
370
0
100
AcDbLine
10
-465
20
365
30
0
11
-465
21
340
31
0
0
LINE
5
8AB
100
AcDbEntity
67
0
8
0
6
Grid
62
8
370
0
100
AcDbLine
10
-465
20
365
30
0
11
-440
21
365
31
0
0
LINE
5
8AC
100
AcDbEntity
67
0
8
0
6
Grid
62
8
370
0
100
AcDbLine
10
-440
20
365
30
0
11
-440
21
340
31
0
0
LINE
5
8AD
100
AcDbEntity
67
0
8
0
6
Grid
62
8
370
0
100
AcDbLine
10
-440
20
365
30
0
11
-415
21
365
31
0
0
LINE
5
8AE
100
AcDbEntity
67
0
8
0
6
Grid
62
8
370
0
100
AcDbLine
10
-415
20
365
30
0
11
-415
21
340
31
0
0
LINE
5
8AF
100
AcDbEntity
67
0
8
0
6
Grid
62
8
370
0
100
AcDbLine
10
-415
20
365
30
0
11
-390
21
365
31
0
0
LINE
5
8B0
100
AcDbEntity
67
0
8
0
6
Grid
62
8
370
0
100
AcDbLine
10
-390
20
365
30
0
11
-390
21
340
31
0
0
LINE
5
8B1
100
AcDbEntity
67
0
8
0
6
Grid
62
8
370
0
100
AcDbLine
10
-390
20
365
30
0
11
-365
21
365
31
0
0
LINE
5
8B2
100
AcDbEntity
67
0
8
0
6
Grid
62
8
370
0
100
AcDbLine
10
-365
20
365
30
0
11
-365
21
340
31
0
0
LINE
5
8B3
100
AcDbEntity
67
0
8
0
6
Grid
62
8
370
0
100
AcDbLine
10
-365
20
365
30
0
11
-340
21
365
31
0
0
LINE
5
8B4
100
AcDbEntity
67
0
8
0
6
Grid
62
8
370
0
100
AcDbLine
10
-340
20
365
30
0
11
-340
21
340
31
0
0
LINE
5
8B5
100
AcDbEntity
67
0
8
0
6
Grid
62
8
370
0
100
AcDbLine
10
-340
20
365
30
0
11
-315
21
365
31
0
0
LINE
5
8B6
100
AcDbEntity
67
0
8
0
6
Grid
62
8
370
0
100
AcDbLine
10
-315
20
365
30
0
11
-315
21
340
31
0
0
LINE
5
8B7
100
AcDbEntity
67
0
8
0
6
Grid
62
8
370
0
100
AcDbLine
10
-315
20
365
30
0
11
-290
21
365
31
0
0
LINE
5
8B8
100
AcDbEntity
67
0
8
0
6
Grid
62
8
370
0
100
AcDbLine
10
-290
20
365
30
0
11
-290
21
340
31
0
0
LINE
5
8B9
100
AcDbEntity
67
0
8
0
6
Grid
62
8
370
0
100
AcDbLine
10
-290
20
365
30
0
11
-265
21
365
31
0
0
LINE
5
8BA
100
AcDbEntity
67
0
8
0
6
Grid
62
8
370
0
100
AcDbLine
10
-265
20
365
30
0
11
-265
21
340
31
0
0
LINE
5
8BB
100
AcDbEntity
67
0
8
0
6
Grid
62
8
370
0
100
AcDbLine
10
-265
20
365
30
0
11
-240
21
365
31
0
0
LINE
5
8BC
100
AcDbEntity
67
0
8
0
6
Grid
62
8
370
0
100
AcDbLine
10
-240
20
365
30
0
11
-240
21
340
31
0
0
LINE
5
8BD
100
AcDbEntity
67
0
8
0
6
Grid
62
8
370
0
100
AcDbLine
10
-240
20
365
30
0
11
-215
21
365
31
0
0
LINE
5
8BE
100
AcDbEntity
67
0
8
0
6
Grid
62
8
370
0
100
AcDbLine
10
-215
20
365
30
0
11
-215
21
340
31
0
0
LINE
5
8BF
100
AcDbEntity
67
0
8
0
6
Grid
62
8
370
0
100
AcDbLine
10
-215
20
365
30
0
11
-190
21
365
31
0
0
LINE
5
8C0
100
AcDbEntity
67
0
8
0
6
Grid
62
8
370
0
100
AcDbLine
10
-190
20
365
30
0
11
-190
21
340
31
0
0
LINE
5
8C1
100
AcDbEntity
67
0
8
0
6
Grid
62
8
370
0
100
AcDbLine
10
-190
20
365
30
0
11
-165
21
365
31
0
0
LINE
5
8C2
100
AcDbEntity
67
0
8
0
6
Grid
62
8
370
0
100
AcDbLine
10
-165
20
365
30
0
11
-165
21
340
31
0
0
LINE
5
8C3
100
AcDbEntity
67
0
8
0
6
Grid
62
8
370
0
100
AcDbLine
10
-165
20
365
30
0
11
-140
21
365
31
0
0
LINE
5
8C4
100
AcDbEntity
67
0
8
0
6
Grid
62
8
370
0
100
AcDbLine
10
-140
20
365
30
0
11
-140
21
340
31
0
0
LINE
5
8C5
100
AcDbEntity
67
0
8
0
6
Grid
62
8
370
0
100
AcDbLine
10
-140
20
365
30
0
11
-115
21
365
31
0
0
LINE
5
8C6
100
AcDbEntity
67
0
8
0
6
Grid
62
8
370
0
100
AcDbLine
10
-115
20
365
30
0
11
-115
21
340
31
0
0
LINE
5
8C7
100
AcDbEntity
67
0
8
0
6
Grid
62
8
370
0
100
AcDbLine
10
-115
20
365
30
0
11
-90
21
365
31
0
0
LINE
5
8C8
100
AcDbEntity
67
0
8
0
6
Grid
62
8
370
0
100
AcDbLine
10
-90
20
365
30
0
11
-90
21
340
31
0
0
LINE
5
8C9
100
AcDbEntity
67
0
8
0
6
Grid
62
8
370
0
100
AcDbLine
10
-90
20
365
30
0
11
-65
21
365
31
0
0
LINE
5
8CA
100
AcDbEntity
67
0
8
0
6
Grid
62
8
370
0
100
AcDbLine
10
-65
20
365
30
0
11
-65
21
340
31
0
0
LINE
5
8CB
100
AcDbEntity
67
0
8
0
6
Grid
62
8
370
0
100
AcDbLine
10
-65
20
365
30
0
11
-40
21
365
31
0
0
LINE
5
8CC
100
AcDbEntity
67
0
8
0
6
Grid
62
8
370
0
100
AcDbLine
10
-40
20
365
30
0
11
-40
21
340
31
0
0
LINE
5
8CD
100
AcDbEntity
67
0
8
0
6
Grid
62
8
370
0
100
AcDbLine
10
-40
20
365
30
0
11
-15
21
365
31
0
0
LINE
5
8CE
100
AcDbEntity
67
0
8
0
6
Grid
62
8
370
0
100
AcDbLine
10
-15
20
365
30
0
11
-15
21
340
31
0
0
LINE
5
8CF
100
AcDbEntity
67
0
8
0
6
Grid
62
8
370
0
100
AcDbLine
10
-790
20
390
30
0
11
-765
21
390
31
0
0
LINE
5
8D0
100
AcDbEntity
67
0
8
0
6
Grid
62
8
370
0
100
AcDbLine
10
-765
20
390
30
0
11
-765
21
365
31
0
0
LINE
5
8D1
100
AcDbEntity
67
0
8
0
6
Grid
62
8
370
0
100
AcDbLine
10
-790
20
365
30
0
11
-790
21
390
31
0
0
LINE
5
8D2
100
AcDbEntity
67
0
8
0
6
Grid
62
8
370
0
100
AcDbLine
10
-765
20
390
30
0
11
-740
21
390
31
0
0
LINE
5
8D3
100
AcDbEntity
67
0
8
0
6
Grid
62
8
370
0
100
AcDbLine
10
-740
20
390
30
0
11
-740
21
365
31
0
0
LINE
5
8D4
100
AcDbEntity
67
0
8
0
6
Grid
62
8
370
0
100
AcDbLine
10
-740
20
390
30
0
11
-715
21
390
31
0
0
LINE
5
8D5
100
AcDbEntity
67
0
8
0
6
Grid
62
8
370
0
100
AcDbLine
10
-715
20
390
30
0
11
-715
21
365
31
0
0
LINE
5
8D6
100
AcDbEntity
67
0
8
0
6
Grid
62
8
370
0
100
AcDbLine
10
-715
20
390
30
0
11
-690
21
390
31
0
0
LINE
5
8D7
100
AcDbEntity
67
0
8
0
6
Grid
62
8
370
0
100
AcDbLine
10
-690
20
390
30
0
11
-690
21
365
31
0
0
LINE
5
8D8
100
AcDbEntity
67
0
8
0
6
Grid
62
8
370
0
100
AcDbLine
10
-690
20
390
30
0
11
-665
21
390
31
0
0
LINE
5
8D9
100
AcDbEntity
67
0
8
0
6
Grid
62
8
370
0
100
AcDbLine
10
-665
20
390
30
0
11
-665
21
365
31
0
0
LINE
5
8DA
100
AcDbEntity
67
0
8
0
6
Grid
62
8
370
0
100
AcDbLine
10
-665
20
390
30
0
11
-640
21
390
31
0
0
LINE
5
8DB
100
AcDbEntity
67
0
8
0
6
Grid
62
8
370
0
100
AcDbLine
10
-640
20
390
30
0
11
-640
21
365
31
0
0
LINE
5
8DC
100
AcDbEntity
67
0
8
0
6
Grid
62
8
370
0
100
AcDbLine
10
-640
20
390
30
0
11
-615
21
390
31
0
0
LINE
5
8DD
100
AcDbEntity
67
0
8
0
6
Grid
62
8
370
0
100
AcDbLine
10
-615
20
390
30
0
11
-615
21
365
31
0
0
LINE
5
8DE
100
AcDbEntity
67
0
8
0
6
Grid
62
8
370
0
100
AcDbLine
10
-615
20
390
30
0
11
-590
21
390
31
0
0
LINE
5
8DF
100
AcDbEntity
67
0
8
0
6
Grid
62
8
370
0
100
AcDbLine
10
-590
20
390
30
0
11
-590
21
365
31
0
0
LINE
5
8E0
100
AcDbEntity
67
0
8
0
6
Grid
62
8
370
0
100
AcDbLine
10
-590
20
390
30
0
11
-565
21
390
31
0
0
LINE
5
8E1
100
AcDbEntity
67
0
8
0
6
Grid
62
8
370
0
100
AcDbLine
10
-565
20
390
30
0
11
-565
21
365
31
0
0
LINE
5
8E2
100
AcDbEntity
67
0
8
0
6
Grid
62
8
370
0
100
AcDbLine
10
-565
20
390
30
0
11
-540
21
390
31
0
0
LINE
5
8E3
100
AcDbEntity
67
0
8
0
6
Grid
62
8
370
0
100
AcDbLine
10
-540
20
390
30
0
11
-540
21
365
31
0
0
LINE
5
8E4
100
AcDbEntity
67
0
8
0
6
Grid
62
8
370
0
100
AcDbLine
10
-540
20
390
30
0
11
-515
21
390
31
0
0
LINE
5
8E5
100
AcDbEntity
67
0
8
0
6
Grid
62
8
370
0
100
AcDbLine
10
-515
20
390
30
0
11
-515
21
365
31
0
0
LINE
5
8E6
100
AcDbEntity
67
0
8
0
6
Grid
62
8
370
0
100
AcDbLine
10
-515
20
390
30
0
11
-490
21
390
31
0
0
LINE
5
8E7
100
AcDbEntity
67
0
8
0
6
Grid
62
8
370
0
100
AcDbLine
10
-490
20
390
30
0
11
-490
21
365
31
0
0
LINE
5
8E8
100
AcDbEntity
67
0
8
0
6
Grid
62
8
370
0
100
AcDbLine
10
-490
20
390
30
0
11
-465
21
390
31
0
0
LINE
5
8E9
100
AcDbEntity
67
0
8
0
6
Grid
62
8
370
0
100
AcDbLine
10
-465
20
390
30
0
11
-465
21
365
31
0
0
LINE
5
8EA
100
AcDbEntity
67
0
8
0
6
Grid
62
8
370
0
100
AcDbLine
10
-465
20
390
30
0
11
-440
21
390
31
0
0
LINE
5
8EB
100
AcDbEntity
67
0
8
0
6
Grid
62
8
370
0
100
AcDbLine
10
-440
20
390
30
0
11
-440
21
365
31
0
0
LINE
5
8EC
100
AcDbEntity
67
0
8
0
6
Grid
62
8
370
0
100
AcDbLine
10
-440
20
390
30
0
11
-415
21
390
31
0
0
LINE
5
8ED
100
AcDbEntity
67
0
8
0
6
Grid
62
8
370
0
100
AcDbLine
10
-415
20
390
30
0
11
-415
21
365
31
0
0
LINE
5
8EE
100
AcDbEntity
67
0
8
0
6
Grid
62
8
370
0
100
AcDbLine
10
-415
20
390
30
0
11
-390
21
390
31
0
0
LINE
5
8EF
100
AcDbEntity
67
0
8
0
6
Grid
62
8
370
0
100
AcDbLine
10
-390
20
390
30
0
11
-390
21
365
31
0
0
LINE
5
8F0
100
AcDbEntity
67
0
8
0
6
Grid
62
8
370
0
100
AcDbLine
10
-390
20
390
30
0
11
-365
21
390
31
0
0
LINE
5
8F1
100
AcDbEntity
67
0
8
0
6
Grid
62
8
370
0
100
AcDbLine
10
-365
20
390
30
0
11
-365
21
365
31
0
0
LINE
5
8F2
100
AcDbEntity
67
0
8
0
6
Grid
62
8
370
0
100
AcDbLine
10
-365
20
390
30
0
11
-340
21
390
31
0
0
LINE
5
8F3
100
AcDbEntity
67
0
8
0
6
Grid
62
8
370
0
100
AcDbLine
10
-340
20
390
30
0
11
-340
21
365
31
0
0
LINE
5
8F4
100
AcDbEntity
67
0
8
0
6
Grid
62
8
370
0
100
AcDbLine
10
-340
20
390
30
0
11
-315
21
390
31
0
0
LINE
5
8F5
100
AcDbEntity
67
0
8
0
6
Grid
62
8
370
0
100
AcDbLine
10
-315
20
390
30
0
11
-315
21
365
31
0
0
LINE
5
8F6
100
AcDbEntity
67
0
8
0
6
Grid
62
8
370
0
100
AcDbLine
10
-315
20
390
30
0
11
-290
21
390
31
0
0
LINE
5
8F7
100
AcDbEntity
67
0
8
0
6
Grid
62
8
370
0
100
AcDbLine
10
-290
20
390
30
0
11
-290
21
365
31
0
0
LINE
5
8F8
100
AcDbEntity
67
0
8
0
6
Grid
62
8
370
0
100
AcDbLine
10
-290
20
390
30
0
11
-265
21
390
31
0
0
LINE
5
8F9
100
AcDbEntity
67
0
8
0
6
Grid
62
8
370
0
100
AcDbLine
10
-265
20
390
30
0
11
-265
21
365
31
0
0
LINE
5
8FA
100
AcDbEntity
67
0
8
0
6
Grid
62
8
370
0
100
AcDbLine
10
-265
20
390
30
0
11
-240
21
390
31
0
0
LINE
5
8FB
100
AcDbEntity
67
0
8
0
6
Grid
62
8
370
0
100
AcDbLine
10
-240
20
390
30
0
11
-240
21
365
31
0
0
LINE
5
8FC
100
AcDbEntity
67
0
8
0
6
Grid
62
8
370
0
100
AcDbLine
10
-240
20
390
30
0
11
-215
21
390
31
0
0
LINE
5
8FD
100
AcDbEntity
67
0
8
0
6
Grid
62
8
370
0
100
AcDbLine
10
-215
20
390
30
0
11
-215
21
365
31
0
0
LINE
5
8FE
100
AcDbEntity
67
0
8
0
6
Grid
62
8
370
0
100
AcDbLine
10
-215
20
390
30
0
11
-190
21
390
31
0
0
LINE
5
8FF
100
AcDbEntity
67
0
8
0
6
Grid
62
8
370
0
100
AcDbLine
10
-190
20
390
30
0
11
-190
21
365
31
0
0
LINE
5
900
100
AcDbEntity
67
0
8
0
6
Grid
62
8
370
0
100
AcDbLine
10
-190
20
390
30
0
11
-165
21
390
31
0
0
LINE
5
901
100
AcDbEntity
67
0
8
0
6
Grid
62
8
370
0
100
AcDbLine
10
-165
20
390
30
0
11
-165
21
365
31
0
0
LINE
5
902
100
AcDbEntity
67
0
8
0
6
Grid
62
8
370
0
100
AcDbLine
10
-165
20
390
30
0
11
-140
21
390
31
0
0
LINE
5
903
100
AcDbEntity
67
0
8
0
6
Grid
62
8
370
0
100
AcDbLine
10
-140
20
390
30
0
11
-140
21
365
31
0
0
LINE
5
904
100
AcDbEntity
67
0
8
0
6
Grid
62
8
370
0
100
AcDbLine
10
-140
20
390
30
0
11
-115
21
390
31
0
0
LINE
5
905
100
AcDbEntity
67
0
8
0
6
Grid
62
8
370
0
100
AcDbLine
10
-115
20
390
30
0
11
-115
21
365
31
0
0
LINE
5
906
100
AcDbEntity
67
0
8
0
6
Grid
62
8
370
0
100
AcDbLine
10
-115
20
390
30
0
11
-90
21
390
31
0
0
LINE
5
907
100
AcDbEntity
67
0
8
0
6
Grid
62
8
370
0
100
AcDbLine
10
-90
20
390
30
0
11
-90
21
365
31
0
0
LINE
5
908
100
AcDbEntity
67
0
8
0
6
Grid
62
8
370
0
100
AcDbLine
10
-90
20
390
30
0
11
-65
21
390
31
0
0
LINE
5
909
100
AcDbEntity
67
0
8
0
6
Grid
62
8
370
0
100
AcDbLine
10
-65
20
390
30
0
11
-65
21
365
31
0
0
LINE
5
90A
100
AcDbEntity
67
0
8
0
6
Grid
62
8
370
0
100
AcDbLine
10
-65
20
390
30
0
11
-40
21
390
31
0
0
LINE
5
90B
100
AcDbEntity
67
0
8
0
6
Grid
62
8
370
0
100
AcDbLine
10
-40
20
390
30
0
11
-40
21
365
31
0
0
LINE
5
90C
100
AcDbEntity
67
0
8
0
6
Grid
62
8
370
0
100
AcDbLine
10
-40
20
390
30
0
11
-15
21
390
31
0
0
LINE
5
90D
100
AcDbEntity
67
0
8
0
6
Grid
62
8
370
0
100
AcDbLine
10
-15
20
390
30
0
11
-15
21
365
31
0
0
LINE
5
90E
100
AcDbEntity
67
0
8
0
6
Grid
62
8
370
0
100
AcDbLine
10
-790
20
415
30
0
11
-765
21
415
31
0
0
LINE
5
90F
100
AcDbEntity
67
0
8
0
6
Grid
62
8
370
0
100
AcDbLine
10
-765
20
415
30
0
11
-765
21
390
31
0
0
LINE
5
910
100
AcDbEntity
67
0
8
0
6
Grid
62
8
370
0
100
AcDbLine
10
-790
20
390
30
0
11
-790
21
415
31
0
0
LINE
5
911
100
AcDbEntity
67
0
8
0
6
Grid
62
8
370
0
100
AcDbLine
10
-765
20
415
30
0
11
-740
21
415
31
0
0
LINE
5
912
100
AcDbEntity
67
0
8
0
6
Grid
62
8
370
0
100
AcDbLine
10
-740
20
415
30
0
11
-740
21
390
31
0
0
LINE
5
913
100
AcDbEntity
67
0
8
0
6
Grid
62
8
370
0
100
AcDbLine
10
-740
20
415
30
0
11
-715
21
415
31
0
0
LINE
5
914
100
AcDbEntity
67
0
8
0
6
Grid
62
8
370
0
100
AcDbLine
10
-715
20
415
30
0
11
-715
21
390
31
0
0
LINE
5
915
100
AcDbEntity
67
0
8
0
6
Grid
62
8
370
0
100
AcDbLine
10
-715
20
415
30
0
11
-690
21
415
31
0
0
LINE
5
916
100
AcDbEntity
67
0
8
0
6
Grid
62
8
370
0
100
AcDbLine
10
-690
20
415
30
0
11
-690
21
390
31
0
0
LINE
5
917
100
AcDbEntity
67
0
8
0
6
Grid
62
8
370
0
100
AcDbLine
10
-690
20
415
30
0
11
-665
21
415
31
0
0
LINE
5
918
100
AcDbEntity
67
0
8
0
6
Grid
62
8
370
0
100
AcDbLine
10
-665
20
415
30
0
11
-665
21
390
31
0
0
LINE
5
919
100
AcDbEntity
67
0
8
0
6
Grid
62
8
370
0
100
AcDbLine
10
-665
20
415
30
0
11
-640
21
415
31
0
0
LINE
5
91A
100
AcDbEntity
67
0
8
0
6
Grid
62
8
370
0
100
AcDbLine
10
-640
20
415
30
0
11
-640
21
390
31
0
0
LINE
5
91B
100
AcDbEntity
67
0
8
0
6
Grid
62
8
370
0
100
AcDbLine
10
-640
20
415
30
0
11
-615
21
415
31
0
0
LINE
5
91C
100
AcDbEntity
67
0
8
0
6
Grid
62
8
370
0
100
AcDbLine
10
-615
20
415
30
0
11
-615
21
390
31
0
0
LINE
5
91D
100
AcDbEntity
67
0
8
0
6
Grid
62
8
370
0
100
AcDbLine
10
-615
20
415
30
0
11
-590
21
415
31
0
0
LINE
5
91E
100
AcDbEntity
67
0
8
0
6
Grid
62
8
370
0
100
AcDbLine
10
-590
20
415
30
0
11
-590
21
390
31
0
0
LINE
5
91F
100
AcDbEntity
67
0
8
0
6
Grid
62
8
370
0
100
AcDbLine
10
-590
20
415
30
0
11
-565
21
415
31
0
0
LINE
5
920
100
AcDbEntity
67
0
8
0
6
Grid
62
8
370
0
100
AcDbLine
10
-565
20
415
30
0
11
-565
21
390
31
0
0
LINE
5
921
100
AcDbEntity
67
0
8
0
6
Grid
62
8
370
0
100
AcDbLine
10
-565
20
415
30
0
11
-540
21
415
31
0
0
LINE
5
922
100
AcDbEntity
67
0
8
0
6
Grid
62
8
370
0
100
AcDbLine
10
-540
20
415
30
0
11
-540
21
390
31
0
0
LINE
5
923
100
AcDbEntity
67
0
8
0
6
Grid
62
8
370
0
100
AcDbLine
10
-540
20
415
30
0
11
-515
21
415
31
0
0
LINE
5
924
100
AcDbEntity
67
0
8
0
6
Grid
62
8
370
0
100
AcDbLine
10
-515
20
415
30
0
11
-515
21
390
31
0
0
LINE
5
925
100
AcDbEntity
67
0
8
0
6
Grid
62
8
370
0
100
AcDbLine
10
-515
20
415
30
0
11
-490
21
415
31
0
0
LINE
5
926
100
AcDbEntity
67
0
8
0
6
Grid
62
8
370
0
100
AcDbLine
10
-490
20
415
30
0
11
-490
21
390
31
0
0
LINE
5
927
100
AcDbEntity
67
0
8
0
6
Grid
62
8
370
0
100
AcDbLine
10
-490
20
415
30
0
11
-465
21
415
31
0
0
LINE
5
928
100
AcDbEntity
67
0
8
0
6
Grid
62
8
370
0
100
AcDbLine
10
-465
20
415
30
0
11
-465
21
390
31
0
0
LINE
5
929
100
AcDbEntity
67
0
8
0
6
Grid
62
8
370
0
100
AcDbLine
10
-465
20
415
30
0
11
-440
21
415
31
0
0
LINE
5
92A
100
AcDbEntity
67
0
8
0
6
Grid
62
8
370
0
100
AcDbLine
10
-440
20
415
30
0
11
-440
21
390
31
0
0
LINE
5
92B
100
AcDbEntity
67
0
8
0
6
Grid
62
8
370
0
100
AcDbLine
10
-440
20
415
30
0
11
-415
21
415
31
0
0
LINE
5
92C
100
AcDbEntity
67
0
8
0
6
Grid
62
8
370
0
100
AcDbLine
10
-415
20
415
30
0
11
-415
21
390
31
0
0
LINE
5
92D
100
AcDbEntity
67
0
8
0
6
Grid
62
8
370
0
100
AcDbLine
10
-415
20
415
30
0
11
-390
21
415
31
0
0
LINE
5
92E
100
AcDbEntity
67
0
8
0
6
Grid
62
8
370
0
100
AcDbLine
10
-390
20
415
30
0
11
-390
21
390
31
0
0
LINE
5
92F
100
AcDbEntity
67
0
8
0
6
Grid
62
8
370
0
100
AcDbLine
10
-390
20
415
30
0
11
-365
21
415
31
0
0
LINE
5
930
100
AcDbEntity
67
0
8
0
6
Grid
62
8
370
0
100
AcDbLine
10
-365
20
415
30
0
11
-365
21
390
31
0
0
LINE
5
931
100
AcDbEntity
67
0
8
0
6
Grid
62
8
370
0
100
AcDbLine
10
-365
20
415
30
0
11
-340
21
415
31
0
0
LINE
5
932
100
AcDbEntity
67
0
8
0
6
Grid
62
8
370
0
100
AcDbLine
10
-340
20
415
30
0
11
-340
21
390
31
0
0
LINE
5
933
100
AcDbEntity
67
0
8
0
6
Grid
62
8
370
0
100
AcDbLine
10
-340
20
415
30
0
11
-315
21
415
31
0
0
LINE
5
934
100
AcDbEntity
67
0
8
0
6
Grid
62
8
370
0
100
AcDbLine
10
-315
20
415
30
0
11
-315
21
390
31
0
0
LINE
5
935
100
AcDbEntity
67
0
8
0
6
Grid
62
8
370
0
100
AcDbLine
10
-315
20
415
30
0
11
-290
21
415
31
0
0
LINE
5
936
100
AcDbEntity
67
0
8
0
6
Grid
62
8
370
0
100
AcDbLine
10
-290
20
415
30
0
11
-290
21
390
31
0
0
LINE
5
937
100
AcDbEntity
67
0
8
0
6
Grid
62
8
370
0
100
AcDbLine
10
-290
20
415
30
0
11
-265
21
415
31
0
0
LINE
5
938
100
AcDbEntity
67
0
8
0
6
Grid
62
8
370
0
100
AcDbLine
10
-265
20
415
30
0
11
-265
21
390
31
0
0
LINE
5
939
100
AcDbEntity
67
0
8
0
6
Grid
62
8
370
0
100
AcDbLine
10
-265
20
415
30
0
11
-240
21
415
31
0
0
LINE
5
93A
100
AcDbEntity
67
0
8
0
6
Grid
62
8
370
0
100
AcDbLine
10
-240
20
415
30
0
11
-240
21
390
31
0
0
LINE
5
93B
100
AcDbEntity
67
0
8
0
6
Grid
62
8
370
0
100
AcDbLine
10
-240
20
415
30
0
11
-215
21
415
31
0
0
LINE
5
93C
100
AcDbEntity
67
0
8
0
6
Grid
62
8
370
0
100
AcDbLine
10
-215
20
415
30
0
11
-215
21
390
31
0
0
LINE
5
93D
100
AcDbEntity
67
0
8
0
6
Grid
62
8
370
0
100
AcDbLine
10
-215
20
415
30
0
11
-190
21
415
31
0
0
LINE
5
93E
100
AcDbEntity
67
0
8
0
6
Grid
62
8
370
0
100
AcDbLine
10
-190
20
415
30
0
11
-190
21
390
31
0
0
LINE
5
93F
100
AcDbEntity
67
0
8
0
6
Grid
62
8
370
0
100
AcDbLine
10
-190
20
415
30
0
11
-165
21
415
31
0
0
LINE
5
940
100
AcDbEntity
67
0
8
0
6
Grid
62
8
370
0
100
AcDbLine
10
-165
20
415
30
0
11
-165
21
390
31
0
0
LINE
5
941
100
AcDbEntity
67
0
8
0
6
Grid
62
8
370
0
100
AcDbLine
10
-165
20
415
30
0
11
-140
21
415
31
0
0
LINE
5
942
100
AcDbEntity
67
0
8
0
6
Grid
62
8
370
0
100
AcDbLine
10
-140
20
415
30
0
11
-140
21
390
31
0
0
LINE
5
943
100
AcDbEntity
67
0
8
0
6
Grid
62
8
370
0
100
AcDbLine
10
-140
20
415
30
0
11
-115
21
415
31
0
0
LINE
5
944
100
AcDbEntity
67
0
8
0
6
Grid
62
8
370
0
100
AcDbLine
10
-115
20
415
30
0
11
-115
21
390
31
0
0
LINE
5
945
100
AcDbEntity
67
0
8
0
6
Grid
62
8
370
0
100
AcDbLine
10
-115
20
415
30
0
11
-90
21
415
31
0
0
LINE
5
946
100
AcDbEntity
67
0
8
0
6
Grid
62
8
370
0
100
AcDbLine
10
-90
20
415
30
0
11
-90
21
390
31
0
0
LINE
5
947
100
AcDbEntity
67
0
8
0
6
Grid
62
8
370
0
100
AcDbLine
10
-90
20
415
30
0
11
-65
21
415
31
0
0
LINE
5
948
100
AcDbEntity
67
0
8
0
6
Grid
62
8
370
0
100
AcDbLine
10
-65
20
415
30
0
11
-65
21
390
31
0
0
LINE
5
949
100
AcDbEntity
67
0
8
0
6
Grid
62
8
370
0
100
AcDbLine
10
-65
20
415
30
0
11
-40
21
415
31
0
0
LINE
5
94A
100
AcDbEntity
67
0
8
0
6
Grid
62
8
370
0
100
AcDbLine
10
-40
20
415
30
0
11
-40
21
390
31
0
0
LINE
5
94B
100
AcDbEntity
67
0
8
0
6
Grid
62
8
370
0
100
AcDbLine
10
-40
20
415
30
0
11
-15
21
415
31
0
0
LINE
5
94C
100
AcDbEntity
67
0
8
0
6
Grid
62
8
370
0
100
AcDbLine
10
-15
20
415
30
0
11
-15
21
390
31
0
0
LINE
5
94D
100
AcDbEntity
67
0
8
0
6
Grid
62
8
370
0
100
AcDbLine
10
-790
20
440
30
0
11
-765
21
440
31
0
0
LINE
5
94E
100
AcDbEntity
67
0
8
0
6
Grid
62
8
370
0
100
AcDbLine
10
-765
20
440
30
0
11
-765
21
415
31
0
0
LINE
5
94F
100
AcDbEntity
67
0
8
0
6
Grid
62
8
370
0
100
AcDbLine
10
-790
20
415
30
0
11
-790
21
440
31
0
0
LINE
5
950
100
AcDbEntity
67
0
8
0
6
Grid
62
8
370
0
100
AcDbLine
10
-765
20
440
30
0
11
-740
21
440
31
0
0
LINE
5
951
100
AcDbEntity
67
0
8
0
6
Grid
62
8
370
0
100
AcDbLine
10
-740
20
440
30
0
11
-740
21
415
31
0
0
LINE
5
952
100
AcDbEntity
67
0
8
0
6
Grid
62
8
370
0
100
AcDbLine
10
-740
20
440
30
0
11
-715
21
440
31
0
0
LINE
5
953
100
AcDbEntity
67
0
8
0
6
Grid
62
8
370
0
100
AcDbLine
10
-715
20
440
30
0
11
-715
21
415
31
0
0
LINE
5
954
100
AcDbEntity
67
0
8
0
6
Grid
62
8
370
0
100
AcDbLine
10
-715
20
440
30
0
11
-690
21
440
31
0
0
LINE
5
955
100
AcDbEntity
67
0
8
0
6
Grid
62
8
370
0
100
AcDbLine
10
-690
20
440
30
0
11
-690
21
415
31
0
0
LINE
5
956
100
AcDbEntity
67
0
8
0
6
Grid
62
8
370
0
100
AcDbLine
10
-690
20
440
30
0
11
-665
21
440
31
0
0
LINE
5
957
100
AcDbEntity
67
0
8
0
6
Grid
62
8
370
0
100
AcDbLine
10
-665
20
440
30
0
11
-665
21
415
31
0
0
LINE
5
958
100
AcDbEntity
67
0
8
0
6
Grid
62
8
370
0
100
AcDbLine
10
-665
20
440
30
0
11
-640
21
440
31
0
0
LINE
5
959
100
AcDbEntity
67
0
8
0
6
Grid
62
8
370
0
100
AcDbLine
10
-640
20
440
30
0
11
-640
21
415
31
0
0
LINE
5
95A
100
AcDbEntity
67
0
8
0
6
Grid
62
8
370
0
100
AcDbLine
10
-640
20
440
30
0
11
-615
21
440
31
0
0
LINE
5
95B
100
AcDbEntity
67
0
8
0
6
Grid
62
8
370
0
100
AcDbLine
10
-615
20
440
30
0
11
-615
21
415
31
0
0
LINE
5
95C
100
AcDbEntity
67
0
8
0
6
Grid
62
8
370
0
100
AcDbLine
10
-615
20
440
30
0
11
-590
21
440
31
0
0
LINE
5
95D
100
AcDbEntity
67
0
8
0
6
Grid
62
8
370
0
100
AcDbLine
10
-590
20
440
30
0
11
-590
21
415
31
0
0
LINE
5
95E
100
AcDbEntity
67
0
8
0
6
Grid
62
8
370
0
100
AcDbLine
10
-590
20
440
30
0
11
-565
21
440
31
0
0
LINE
5
95F
100
AcDbEntity
67
0
8
0
6
Grid
62
8
370
0
100
AcDbLine
10
-565
20
440
30
0
11
-565
21
415
31
0
0
LINE
5
960
100
AcDbEntity
67
0
8
0
6
Grid
62
8
370
0
100
AcDbLine
10
-565
20
440
30
0
11
-540
21
440
31
0
0
LINE
5
961
100
AcDbEntity
67
0
8
0
6
Grid
62
8
370
0
100
AcDbLine
10
-540
20
440
30
0
11
-540
21
415
31
0
0
LINE
5
962
100
AcDbEntity
67
0
8
0
6
Grid
62
8
370
0
100
AcDbLine
10
-540
20
440
30
0
11
-515
21
440
31
0
0
LINE
5
963
100
AcDbEntity
67
0
8
0
6
Grid
62
8
370
0
100
AcDbLine
10
-515
20
440
30
0
11
-515
21
415
31
0
0
LINE
5
964
100
AcDbEntity
67
0
8
0
6
Grid
62
8
370
0
100
AcDbLine
10
-515
20
440
30
0
11
-490
21
440
31
0
0
LINE
5
965
100
AcDbEntity
67
0
8
0
6
Grid
62
8
370
0
100
AcDbLine
10
-490
20
440
30
0
11
-490
21
415
31
0
0
LINE
5
966
100
AcDbEntity
67
0
8
0
6
Grid
62
8
370
0
100
AcDbLine
10
-490
20
440
30
0
11
-465
21
440
31
0
0
LINE
5
967
100
AcDbEntity
67
0
8
0
6
Grid
62
8
370
0
100
AcDbLine
10
-465
20
440
30
0
11
-465
21
415
31
0
0
LINE
5
968
100
AcDbEntity
67
0
8
0
6
Grid
62
8
370
0
100
AcDbLine
10
-465
20
440
30
0
11
-440
21
440
31
0
0
LINE
5
969
100
AcDbEntity
67
0
8
0
6
Grid
62
8
370
0
100
AcDbLine
10
-440
20
440
30
0
11
-440
21
415
31
0
0
LINE
5
96A
100
AcDbEntity
67
0
8
0
6
Grid
62
8
370
0
100
AcDbLine
10
-440
20
440
30
0
11
-415
21
440
31
0
0
LINE
5
96B
100
AcDbEntity
67
0
8
0
6
Grid
62
8
370
0
100
AcDbLine
10
-415
20
440
30
0
11
-415
21
415
31
0
0
LINE
5
96C
100
AcDbEntity
67
0
8
0
6
Grid
62
8
370
0
100
AcDbLine
10
-415
20
440
30
0
11
-390
21
440
31
0
0
LINE
5
96D
100
AcDbEntity
67
0
8
0
6
Grid
62
8
370
0
100
AcDbLine
10
-390
20
440
30
0
11
-390
21
415
31
0
0
LINE
5
96E
100
AcDbEntity
67
0
8
0
6
Grid
62
8
370
0
100
AcDbLine
10
-390
20
440
30
0
11
-365
21
440
31
0
0
LINE
5
96F
100
AcDbEntity
67
0
8
0
6
Grid
62
8
370
0
100
AcDbLine
10
-365
20
440
30
0
11
-365
21
415
31
0
0
LINE
5
970
100
AcDbEntity
67
0
8
0
6
Grid
62
8
370
0
100
AcDbLine
10
-365
20
440
30
0
11
-340
21
440
31
0
0
LINE
5
971
100
AcDbEntity
67
0
8
0
6
Grid
62
8
370
0
100
AcDbLine
10
-340
20
440
30
0
11
-340
21
415
31
0
0
LINE
5
972
100
AcDbEntity
67
0
8
0
6
Grid
62
8
370
0
100
AcDbLine
10
-340
20
440
30
0
11
-315
21
440
31
0
0
LINE
5
973
100
AcDbEntity
67
0
8
0
6
Grid
62
8
370
0
100
AcDbLine
10
-315
20
440
30
0
11
-315
21
415
31
0
0
LINE
5
974
100
AcDbEntity
67
0
8
0
6
Grid
62
8
370
0
100
AcDbLine
10
-315
20
440
30
0
11
-290
21
440
31
0
0
LINE
5
975
100
AcDbEntity
67
0
8
0
6
Grid
62
8
370
0
100
AcDbLine
10
-290
20
440
30
0
11
-290
21
415
31
0
0
LINE
5
976
100
AcDbEntity
67
0
8
0
6
Grid
62
8
370
0
100
AcDbLine
10
-290
20
440
30
0
11
-265
21
440
31
0
0
LINE
5
977
100
AcDbEntity
67
0
8
0
6
Grid
62
8
370
0
100
AcDbLine
10
-265
20
440
30
0
11
-265
21
415
31
0
0
LINE
5
978
100
AcDbEntity
67
0
8
0
6
Grid
62
8
370
0
100
AcDbLine
10
-265
20
440
30
0
11
-240
21
440
31
0
0
LINE
5
979
100
AcDbEntity
67
0
8
0
6
Grid
62
8
370
0
100
AcDbLine
10
-240
20
440
30
0
11
-240
21
415
31
0
0
LINE
5
97A
100
AcDbEntity
67
0
8
0
6
Grid
62
8
370
0
100
AcDbLine
10
-240
20
440
30
0
11
-215
21
440
31
0
0
LINE
5
97B
100
AcDbEntity
67
0
8
0
6
Grid
62
8
370
0
100
AcDbLine
10
-215
20
440
30
0
11
-215
21
415
31
0
0
LINE
5
97C
100
AcDbEntity
67
0
8
0
6
Grid
62
8
370
0
100
AcDbLine
10
-215
20
440
30
0
11
-190
21
440
31
0
0
LINE
5
97D
100
AcDbEntity
67
0
8
0
6
Grid
62
8
370
0
100
AcDbLine
10
-190
20
440
30
0
11
-190
21
415
31
0
0
LINE
5
97E
100
AcDbEntity
67
0
8
0
6
Grid
62
8
370
0
100
AcDbLine
10
-190
20
440
30
0
11
-165
21
440
31
0
0
LINE
5
97F
100
AcDbEntity
67
0
8
0
6
Grid
62
8
370
0
100
AcDbLine
10
-165
20
440
30
0
11
-165
21
415
31
0
0
LINE
5
980
100
AcDbEntity
67
0
8
0
6
Grid
62
8
370
0
100
AcDbLine
10
-165
20
440
30
0
11
-140
21
440
31
0
0
LINE
5
981
100
AcDbEntity
67
0
8
0
6
Grid
62
8
370
0
100
AcDbLine
10
-140
20
440
30
0
11
-140
21
415
31
0
0
LINE
5
982
100
AcDbEntity
67
0
8
0
6
Grid
62
8
370
0
100
AcDbLine
10
-140
20
440
30
0
11
-115
21
440
31
0
0
LINE
5
983
100
AcDbEntity
67
0
8
0
6
Grid
62
8
370
0
100
AcDbLine
10
-115
20
440
30
0
11
-115
21
415
31
0
0
LINE
5
984
100
AcDbEntity
67
0
8
0
6
Grid
62
8
370
0
100
AcDbLine
10
-115
20
440
30
0
11
-90
21
440
31
0
0
LINE
5
985
100
AcDbEntity
67
0
8
0
6
Grid
62
8
370
0
100
AcDbLine
10
-90
20
440
30
0
11
-90
21
415
31
0
0
LINE
5
986
100
AcDbEntity
67
0
8
0
6
Grid
62
8
370
0
100
AcDbLine
10
-90
20
440
30
0
11
-65
21
440
31
0
0
LINE
5
987
100
AcDbEntity
67
0
8
0
6
Grid
62
8
370
0
100
AcDbLine
10
-65
20
440
30
0
11
-65
21
415
31
0
0
LINE
5
988
100
AcDbEntity
67
0
8
0
6
Grid
62
8
370
0
100
AcDbLine
10
-65
20
440
30
0
11
-40
21
440
31
0
0
LINE
5
989
100
AcDbEntity
67
0
8
0
6
Grid
62
8
370
0
100
AcDbLine
10
-40
20
440
30
0
11
-40
21
415
31
0
0
LINE
5
98A
100
AcDbEntity
67
0
8
0
6
Grid
62
8
370
0
100
AcDbLine
10
-40
20
440
30
0
11
-15
21
440
31
0
0
LINE
5
98B
100
AcDbEntity
67
0
8
0
6
Grid
62
8
370
0
100
AcDbLine
10
-15
20
440
30
0
11
-15
21
415
31
0
0
LINE
5
98C
100
AcDbEntity
67
0
8
0
6
Grid
62
8
370
0
100
AcDbLine
10
-790
20
465
30
0
11
-765
21
465
31
0
0
LINE
5
98D
100
AcDbEntity
67
0
8
0
6
Grid
62
8
370
0
100
AcDbLine
10
-765
20
465
30
0
11
-765
21
440
31
0
0
LINE
5
98E
100
AcDbEntity
67
0
8
0
6
Grid
62
8
370
0
100
AcDbLine
10
-790
20
440
30
0
11
-790
21
465
31
0
0
LINE
5
98F
100
AcDbEntity
67
0
8
0
6
Grid
62
8
370
0
100
AcDbLine
10
-765
20
465
30
0
11
-740
21
465
31
0
0
LINE
5
990
100
AcDbEntity
67
0
8
0
6
Grid
62
8
370
0
100
AcDbLine
10
-740
20
465
30
0
11
-740
21
440
31
0
0
LINE
5
991
100
AcDbEntity
67
0
8
0
6
Grid
62
8
370
0
100
AcDbLine
10
-740
20
465
30
0
11
-715
21
465
31
0
0
LINE
5
992
100
AcDbEntity
67
0
8
0
6
Grid
62
8
370
0
100
AcDbLine
10
-715
20
465
30
0
11
-715
21
440
31
0
0
LINE
5
993
100
AcDbEntity
67
0
8
0
6
Grid
62
8
370
0
100
AcDbLine
10
-715
20
465
30
0
11
-690
21
465
31
0
0
LINE
5
994
100
AcDbEntity
67
0
8
0
6
Grid
62
8
370
0
100
AcDbLine
10
-690
20
465
30
0
11
-690
21
440
31
0
0
LINE
5
995
100
AcDbEntity
67
0
8
0
6
Grid
62
8
370
0
100
AcDbLine
10
-690
20
465
30
0
11
-665
21
465
31
0
0
LINE
5
996
100
AcDbEntity
67
0
8
0
6
Grid
62
8
370
0
100
AcDbLine
10
-665
20
465
30
0
11
-665
21
440
31
0
0
LINE
5
997
100
AcDbEntity
67
0
8
0
6
Grid
62
8
370
0
100
AcDbLine
10
-665
20
465
30
0
11
-640
21
465
31
0
0
LINE
5
998
100
AcDbEntity
67
0
8
0
6
Grid
62
8
370
0
100
AcDbLine
10
-640
20
465
30
0
11
-640
21
440
31
0
0
LINE
5
999
100
AcDbEntity
67
0
8
0
6
Grid
62
8
370
0
100
AcDbLine
10
-640
20
465
30
0
11
-615
21
465
31
0
0
LINE
5
99A
100
AcDbEntity
67
0
8
0
6
Grid
62
8
370
0
100
AcDbLine
10
-615
20
465
30
0
11
-615
21
440
31
0
0
LINE
5
99B
100
AcDbEntity
67
0
8
0
6
Grid
62
8
370
0
100
AcDbLine
10
-615
20
465
30
0
11
-590
21
465
31
0
0
LINE
5
99C
100
AcDbEntity
67
0
8
0
6
Grid
62
8
370
0
100
AcDbLine
10
-590
20
465
30
0
11
-590
21
440
31
0
0
LINE
5
99D
100
AcDbEntity
67
0
8
0
6
Grid
62
8
370
0
100
AcDbLine
10
-590
20
465
30
0
11
-565
21
465
31
0
0
LINE
5
99E
100
AcDbEntity
67
0
8
0
6
Grid
62
8
370
0
100
AcDbLine
10
-565
20
465
30
0
11
-565
21
440
31
0
0
LINE
5
99F
100
AcDbEntity
67
0
8
0
6
Grid
62
8
370
0
100
AcDbLine
10
-565
20
465
30
0
11
-540
21
465
31
0
0
LINE
5
9A0
100
AcDbEntity
67
0
8
0
6
Grid
62
8
370
0
100
AcDbLine
10
-540
20
465
30
0
11
-540
21
440
31
0
0
LINE
5
9A1
100
AcDbEntity
67
0
8
0
6
Grid
62
8
370
0
100
AcDbLine
10
-540
20
465
30
0
11
-515
21
465
31
0
0
LINE
5
9A2
100
AcDbEntity
67
0
8
0
6
Grid
62
8
370
0
100
AcDbLine
10
-515
20
465
30
0
11
-515
21
440
31
0
0
LINE
5
9A3
100
AcDbEntity
67
0
8
0
6
Grid
62
8
370
0
100
AcDbLine
10
-515
20
465
30
0
11
-490
21
465
31
0
0
LINE
5
9A4
100
AcDbEntity
67
0
8
0
6
Grid
62
8
370
0
100
AcDbLine
10
-490
20
465
30
0
11
-490
21
440
31
0
0
LINE
5
9A5
100
AcDbEntity
67
0
8
0
6
Grid
62
8
370
0
100
AcDbLine
10
-490
20
465
30
0
11
-465
21
465
31
0
0
LINE
5
9A6
100
AcDbEntity
67
0
8
0
6
Grid
62
8
370
0
100
AcDbLine
10
-465
20
465
30
0
11
-465
21
440
31
0
0
LINE
5
9A7
100
AcDbEntity
67
0
8
0
6
Grid
62
8
370
0
100
AcDbLine
10
-465
20
465
30
0
11
-440
21
465
31
0
0
LINE
5
9A8
100
AcDbEntity
67
0
8
0
6
Grid
62
8
370
0
100
AcDbLine
10
-440
20
465
30
0
11
-440
21
440
31
0
0
LINE
5
9A9
100
AcDbEntity
67
0
8
0
6
Grid
62
8
370
0
100
AcDbLine
10
-440
20
465
30
0
11
-415
21
465
31
0
0
LINE
5
9AA
100
AcDbEntity
67
0
8
0
6
Grid
62
8
370
0
100
AcDbLine
10
-415
20
465
30
0
11
-415
21
440
31
0
0
LINE
5
9AB
100
AcDbEntity
67
0
8
0
6
Grid
62
8
370
0
100
AcDbLine
10
-415
20
465
30
0
11
-390
21
465
31
0
0
LINE
5
9AC
100
AcDbEntity
67
0
8
0
6
Grid
62
8
370
0
100
AcDbLine
10
-390
20
465
30
0
11
-390
21
440
31
0
0
LINE
5
9AD
100
AcDbEntity
67
0
8
0
6
Grid
62
8
370
0
100
AcDbLine
10
-390
20
465
30
0
11
-365
21
465
31
0
0
LINE
5
9AE
100
AcDbEntity
67
0
8
0
6
Grid
62
8
370
0
100
AcDbLine
10
-365
20
465
30
0
11
-365
21
440
31
0
0
LINE
5
9AF
100
AcDbEntity
67
0
8
0
6
Grid
62
8
370
0
100
AcDbLine
10
-365
20
465
30
0
11
-340
21
465
31
0
0
LINE
5
9B0
100
AcDbEntity
67
0
8
0
6
Grid
62
8
370
0
100
AcDbLine
10
-340
20
465
30
0
11
-340
21
440
31
0
0
LINE
5
9B1
100
AcDbEntity
67
0
8
0
6
Grid
62
8
370
0
100
AcDbLine
10
-340
20
465
30
0
11
-315
21
465
31
0
0
LINE
5
9B2
100
AcDbEntity
67
0
8
0
6
Grid
62
8
370
0
100
AcDbLine
10
-315
20
465
30
0
11
-315
21
440
31
0
0
LINE
5
9B3
100
AcDbEntity
67
0
8
0
6
Grid
62
8
370
0
100
AcDbLine
10
-315
20
465
30
0
11
-290
21
465
31
0
0
LINE
5
9B4
100
AcDbEntity
67
0
8
0
6
Grid
62
8
370
0
100
AcDbLine
10
-290
20
465
30
0
11
-290
21
440
31
0
0
LINE
5
9B5
100
AcDbEntity
67
0
8
0
6
Grid
62
8
370
0
100
AcDbLine
10
-290
20
465
30
0
11
-265
21
465
31
0
0
LINE
5
9B6
100
AcDbEntity
67
0
8
0
6
Grid
62
8
370
0
100
AcDbLine
10
-265
20
465
30
0
11
-265
21
440
31
0
0
LINE
5
9B7
100
AcDbEntity
67
0
8
0
6
Grid
62
8
370
0
100
AcDbLine
10
-265
20
465
30
0
11
-240
21
465
31
0
0
LINE
5
9B8
100
AcDbEntity
67
0
8
0
6
Grid
62
8
370
0
100
AcDbLine
10
-240
20
465
30
0
11
-240
21
440
31
0
0
LINE
5
9B9
100
AcDbEntity
67
0
8
0
6
Grid
62
8
370
0
100
AcDbLine
10
-240
20
465
30
0
11
-215
21
465
31
0
0
LINE
5
9BA
100
AcDbEntity
67
0
8
0
6
Grid
62
8
370
0
100
AcDbLine
10
-215
20
465
30
0
11
-215
21
440
31
0
0
LINE
5
9BB
100
AcDbEntity
67
0
8
0
6
Grid
62
8
370
0
100
AcDbLine
10
-215
20
465
30
0
11
-190
21
465
31
0
0
LINE
5
9BC
100
AcDbEntity
67
0
8
0
6
Grid
62
8
370
0
100
AcDbLine
10
-190
20
465
30
0
11
-190
21
440
31
0
0
LINE
5
9BD
100
AcDbEntity
67
0
8
0
6
Grid
62
8
370
0
100
AcDbLine
10
-190
20
465
30
0
11
-165
21
465
31
0
0
LINE
5
9BE
100
AcDbEntity
67
0
8
0
6
Grid
62
8
370
0
100
AcDbLine
10
-165
20
465
30
0
11
-165
21
440
31
0
0
LINE
5
9BF
100
AcDbEntity
67
0
8
0
6
Grid
62
8
370
0
100
AcDbLine
10
-165
20
465
30
0
11
-140
21
465
31
0
0
LINE
5
9C0
100
AcDbEntity
67
0
8
0
6
Grid
62
8
370
0
100
AcDbLine
10
-140
20
465
30
0
11
-140
21
440
31
0
0
LINE
5
9C1
100
AcDbEntity
67
0
8
0
6
Grid
62
8
370
0
100
AcDbLine
10
-140
20
465
30
0
11
-115
21
465
31
0
0
LINE
5
9C2
100
AcDbEntity
67
0
8
0
6
Grid
62
8
370
0
100
AcDbLine
10
-115
20
465
30
0
11
-115
21
440
31
0
0
LINE
5
9C3
100
AcDbEntity
67
0
8
0
6
Grid
62
8
370
0
100
AcDbLine
10
-115
20
465
30
0
11
-90
21
465
31
0
0
LINE
5
9C4
100
AcDbEntity
67
0
8
0
6
Grid
62
8
370
0
100
AcDbLine
10
-90
20
465
30
0
11
-90
21
440
31
0
0
LINE
5
9C5
100
AcDbEntity
67
0
8
0
6
Grid
62
8
370
0
100
AcDbLine
10
-90
20
465
30
0
11
-65
21
465
31
0
0
LINE
5
9C6
100
AcDbEntity
67
0
8
0
6
Grid
62
8
370
0
100
AcDbLine
10
-65
20
465
30
0
11
-65
21
440
31
0
0
LINE
5
9C7
100
AcDbEntity
67
0
8
0
6
Grid
62
8
370
0
100
AcDbLine
10
-65
20
465
30
0
11
-40
21
465
31
0
0
LINE
5
9C8
100
AcDbEntity
67
0
8
0
6
Grid
62
8
370
0
100
AcDbLine
10
-40
20
465
30
0
11
-40
21
440
31
0
0
LINE
5
9C9
100
AcDbEntity
67
0
8
0
6
Grid
62
8
370
0
100
AcDbLine
10
-40
20
465
30
0
11
-15
21
465
31
0
0
LINE
5
9CA
100
AcDbEntity
67
0
8
0
6
Grid
62
8
370
0
100
AcDbLine
10
-15
20
465
30
0
11
-15
21
440
31
0
0
LINE
5
9CB
100
AcDbEntity
67
0
8
0
6
Grid
62
8
370
0
100
AcDbLine
10
-790
20
490
30
0
11
-765
21
490
31
0
0
LINE
5
9CC
100
AcDbEntity
67
0
8
0
6
Grid
62
8
370
0
100
AcDbLine
10
-765
20
490
30
0
11
-765
21
465
31
0
0
LINE
5
9CD
100
AcDbEntity
67
0
8
0
6
Grid
62
8
370
0
100
AcDbLine
10
-790
20
465
30
0
11
-790
21
490
31
0
0
LINE
5
9CE
100
AcDbEntity
67
0
8
0
6
Grid
62
8
370
0
100
AcDbLine
10
-765
20
490
30
0
11
-740
21
490
31
0
0
LINE
5
9CF
100
AcDbEntity
67
0
8
0
6
Grid
62
8
370
0
100
AcDbLine
10
-740
20
490
30
0
11
-740
21
465
31
0
0
LINE
5
9D0
100
AcDbEntity
67
0
8
0
6
Grid
62
8
370
0
100
AcDbLine
10
-740
20
490
30
0
11
-715
21
490
31
0
0
LINE
5
9D1
100
AcDbEntity
67
0
8
0
6
Grid
62
8
370
0
100
AcDbLine
10
-715
20
490
30
0
11
-715
21
465
31
0
0
LINE
5
9D2
100
AcDbEntity
67
0
8
0
6
Grid
62
8
370
0
100
AcDbLine
10
-715
20
490
30
0
11
-690
21
490
31
0
0
LINE
5
9D3
100
AcDbEntity
67
0
8
0
6
Grid
62
8
370
0
100
AcDbLine
10
-690
20
490
30
0
11
-690
21
465
31
0
0
LINE
5
9D4
100
AcDbEntity
67
0
8
0
6
Grid
62
8
370
0
100
AcDbLine
10
-690
20
490
30
0
11
-665
21
490
31
0
0
LINE
5
9D5
100
AcDbEntity
67
0
8
0
6
Grid
62
8
370
0
100
AcDbLine
10
-665
20
490
30
0
11
-665
21
465
31
0
0
LINE
5
9D6
100
AcDbEntity
67
0
8
0
6
Grid
62
8
370
0
100
AcDbLine
10
-665
20
490
30
0
11
-640
21
490
31
0
0
LINE
5
9D7
100
AcDbEntity
67
0
8
0
6
Grid
62
8
370
0
100
AcDbLine
10
-640
20
490
30
0
11
-640
21
465
31
0
0
LINE
5
9D8
100
AcDbEntity
67
0
8
0
6
Grid
62
8
370
0
100
AcDbLine
10
-640
20
490
30
0
11
-615
21
490
31
0
0
LINE
5
9D9
100
AcDbEntity
67
0
8
0
6
Grid
62
8
370
0
100
AcDbLine
10
-615
20
490
30
0
11
-615
21
465
31
0
0
LINE
5
9DA
100
AcDbEntity
67
0
8
0
6
Grid
62
8
370
0
100
AcDbLine
10
-615
20
490
30
0
11
-590
21
490
31
0
0
LINE
5
9DB
100
AcDbEntity
67
0
8
0
6
Grid
62
8
370
0
100
AcDbLine
10
-590
20
490
30
0
11
-590
21
465
31
0
0
LINE
5
9DC
100
AcDbEntity
67
0
8
0
6
Grid
62
8
370
0
100
AcDbLine
10
-590
20
490
30
0
11
-565
21
490
31
0
0
LINE
5
9DD
100
AcDbEntity
67
0
8
0
6
Grid
62
8
370
0
100
AcDbLine
10
-565
20
490
30
0
11
-565
21
465
31
0
0
LINE
5
9DE
100
AcDbEntity
67
0
8
0
6
Grid
62
8
370
0
100
AcDbLine
10
-565
20
490
30
0
11
-540
21
490
31
0
0
LINE
5
9DF
100
AcDbEntity
67
0
8
0
6
Grid
62
8
370
0
100
AcDbLine
10
-540
20
490
30
0
11
-540
21
465
31
0
0
LINE
5
9E0
100
AcDbEntity
67
0
8
0
6
Grid
62
8
370
0
100
AcDbLine
10
-540
20
490
30
0
11
-515
21
490
31
0
0
LINE
5
9E1
100
AcDbEntity
67
0
8
0
6
Grid
62
8
370
0
100
AcDbLine
10
-515
20
490
30
0
11
-515
21
465
31
0
0
LINE
5
9E2
100
AcDbEntity
67
0
8
0
6
Grid
62
8
370
0
100
AcDbLine
10
-515
20
490
30
0
11
-490
21
490
31
0
0
LINE
5
9E3
100
AcDbEntity
67
0
8
0
6
Grid
62
8
370
0
100
AcDbLine
10
-490
20
490
30
0
11
-490
21
465
31
0
0
LINE
5
9E4
100
AcDbEntity
67
0
8
0
6
Grid
62
8
370
0
100
AcDbLine
10
-490
20
490
30
0
11
-465
21
490
31
0
0
LINE
5
9E5
100
AcDbEntity
67
0
8
0
6
Grid
62
8
370
0
100
AcDbLine
10
-465
20
490
30
0
11
-465
21
465
31
0
0
LINE
5
9E6
100
AcDbEntity
67
0
8
0
6
Grid
62
8
370
0
100
AcDbLine
10
-465
20
490
30
0
11
-440
21
490
31
0
0
LINE
5
9E7
100
AcDbEntity
67
0
8
0
6
Grid
62
8
370
0
100
AcDbLine
10
-440
20
490
30
0
11
-440
21
465
31
0
0
LINE
5
9E8
100
AcDbEntity
67
0
8
0
6
Grid
62
8
370
0
100
AcDbLine
10
-440
20
490
30
0
11
-415
21
490
31
0
0
LINE
5
9E9
100
AcDbEntity
67
0
8
0
6
Grid
62
8
370
0
100
AcDbLine
10
-415
20
490
30
0
11
-415
21
465
31
0
0
LINE
5
9EA
100
AcDbEntity
67
0
8
0
6
Grid
62
8
370
0
100
AcDbLine
10
-415
20
490
30
0
11
-390
21
490
31
0
0
LINE
5
9EB
100
AcDbEntity
67
0
8
0
6
Grid
62
8
370
0
100
AcDbLine
10
-390
20
490
30
0
11
-390
21
465
31
0
0
LINE
5
9EC
100
AcDbEntity
67
0
8
0
6
Grid
62
8
370
0
100
AcDbLine
10
-390
20
490
30
0
11
-365
21
490
31
0
0
LINE
5
9ED
100
AcDbEntity
67
0
8
0
6
Grid
62
8
370
0
100
AcDbLine
10
-365
20
490
30
0
11
-365
21
465
31
0
0
LINE
5
9EE
100
AcDbEntity
67
0
8
0
6
Grid
62
8
370
0
100
AcDbLine
10
-365
20
490
30
0
11
-340
21
490
31
0
0
LINE
5
9EF
100
AcDbEntity
67
0
8
0
6
Grid
62
8
370
0
100
AcDbLine
10
-340
20
490
30
0
11
-340
21
465
31
0
0
LINE
5
9F0
100
AcDbEntity
67
0
8
0
6
Grid
62
8
370
0
100
AcDbLine
10
-340
20
490
30
0
11
-315
21
490
31
0
0
LINE
5
9F1
100
AcDbEntity
67
0
8
0
6
Grid
62
8
370
0
100
AcDbLine
10
-315
20
490
30
0
11
-315
21
465
31
0
0
LINE
5
9F2
100
AcDbEntity
67
0
8
0
6
Grid
62
8
370
0
100
AcDbLine
10
-315
20
490
30
0
11
-290
21
490
31
0
0
LINE
5
9F3
100
AcDbEntity
67
0
8
0
6
Grid
62
8
370
0
100
AcDbLine
10
-290
20
490
30
0
11
-290
21
465
31
0
0
LINE
5
9F4
100
AcDbEntity
67
0
8
0
6
Grid
62
8
370
0
100
AcDbLine
10
-290
20
490
30
0
11
-265
21
490
31
0
0
LINE
5
9F5
100
AcDbEntity
67
0
8
0
6
Grid
62
8
370
0
100
AcDbLine
10
-265
20
490
30
0
11
-265
21
465
31
0
0
LINE
5
9F6
100
AcDbEntity
67
0
8
0
6
Grid
62
8
370
0
100
AcDbLine
10
-265
20
490
30
0
11
-240
21
490
31
0
0
LINE
5
9F7
100
AcDbEntity
67
0
8
0
6
Grid
62
8
370
0
100
AcDbLine
10
-240
20
490
30
0
11
-240
21
465
31
0
0
LINE
5
9F8
100
AcDbEntity
67
0
8
0
6
Grid
62
8
370
0
100
AcDbLine
10
-240
20
490
30
0
11
-215
21
490
31
0
0
LINE
5
9F9
100
AcDbEntity
67
0
8
0
6
Grid
62
8
370
0
100
AcDbLine
10
-215
20
490
30
0
11
-215
21
465
31
0
0
LINE
5
9FA
100
AcDbEntity
67
0
8
0
6
Grid
62
8
370
0
100
AcDbLine
10
-215
20
490
30
0
11
-190
21
490
31
0
0
LINE
5
9FB
100
AcDbEntity
67
0
8
0
6
Grid
62
8
370
0
100
AcDbLine
10
-190
20
490
30
0
11
-190
21
465
31
0
0
LINE
5
9FC
100
AcDbEntity
67
0
8
0
6
Grid
62
8
370
0
100
AcDbLine
10
-190
20
490
30
0
11
-165
21
490
31
0
0
LINE
5
9FD
100
AcDbEntity
67
0
8
0
6
Grid
62
8
370
0
100
AcDbLine
10
-165
20
490
30
0
11
-165
21
465
31
0
0
LINE
5
9FE
100
AcDbEntity
67
0
8
0
6
Grid
62
8
370
0
100
AcDbLine
10
-165
20
490
30
0
11
-140
21
490
31
0
0
LINE
5
9FF
100
AcDbEntity
67
0
8
0
6
Grid
62
8
370
0
100
AcDbLine
10
-140
20
490
30
0
11
-140
21
465
31
0
0
LINE
5
A00
100
AcDbEntity
67
0
8
0
6
Grid
62
8
370
0
100
AcDbLine
10
-140
20
490
30
0
11
-115
21
490
31
0
0
LINE
5
A01
100
AcDbEntity
67
0
8
0
6
Grid
62
8
370
0
100
AcDbLine
10
-115
20
490
30
0
11
-115
21
465
31
0
0
LINE
5
A02
100
AcDbEntity
67
0
8
0
6
Grid
62
8
370
0
100
AcDbLine
10
-115
20
490
30
0
11
-90
21
490
31
0
0
LINE
5
A03
100
AcDbEntity
67
0
8
0
6
Grid
62
8
370
0
100
AcDbLine
10
-90
20
490
30
0
11
-90
21
465
31
0
0
LINE
5
A04
100
AcDbEntity
67
0
8
0
6
Grid
62
8
370
0
100
AcDbLine
10
-90
20
490
30
0
11
-65
21
490
31
0
0
LINE
5
A05
100
AcDbEntity
67
0
8
0
6
Grid
62
8
370
0
100
AcDbLine
10
-65
20
490
30
0
11
-65
21
465
31
0
0
LINE
5
A06
100
AcDbEntity
67
0
8
0
6
Grid
62
8
370
0
100
AcDbLine
10
-65
20
490
30
0
11
-40
21
490
31
0
0
LINE
5
A07
100
AcDbEntity
67
0
8
0
6
Grid
62
8
370
0
100
AcDbLine
10
-40
20
490
30
0
11
-40
21
465
31
0
0
LINE
5
A08
100
AcDbEntity
67
0
8
0
6
Grid
62
8
370
0
100
AcDbLine
10
-40
20
490
30
0
11
-15
21
490
31
0
0
LINE
5
A09
100
AcDbEntity
67
0
8
0
6
Grid
62
8
370
0
100
AcDbLine
10
-15
20
490
30
0
11
-15
21
465
31
0
0
LINE
5
A0A
100
AcDbEntity
67
0
8
0
6
Grid
62
8
370
0
100
AcDbLine
10
-790
20
515
30
0
11
-765
21
515
31
0
0
LINE
5
A0B
100
AcDbEntity
67
0
8
0
6
Grid
62
8
370
0
100
AcDbLine
10
-765
20
515
30
0
11
-765
21
490
31
0
0
LINE
5
A0C
100
AcDbEntity
67
0
8
0
6
Grid
62
8
370
0
100
AcDbLine
10
-790
20
490
30
0
11
-790
21
515
31
0
0
LINE
5
A0D
100
AcDbEntity
67
0
8
0
6
Grid
62
8
370
0
100
AcDbLine
10
-765
20
515
30
0
11
-740
21
515
31
0
0
LINE
5
A0E
100
AcDbEntity
67
0
8
0
6
Grid
62
8
370
0
100
AcDbLine
10
-740
20
515
30
0
11
-740
21
490
31
0
0
LINE
5
A0F
100
AcDbEntity
67
0
8
0
6
Grid
62
8
370
0
100
AcDbLine
10
-740
20
515
30
0
11
-715
21
515
31
0
0
LINE
5
A10
100
AcDbEntity
67
0
8
0
6
Grid
62
8
370
0
100
AcDbLine
10
-715
20
515
30
0
11
-715
21
490
31
0
0
LINE
5
A11
100
AcDbEntity
67
0
8
0
6
Grid
62
8
370
0
100
AcDbLine
10
-715
20
515
30
0
11
-690
21
515
31
0
0
LINE
5
A12
100
AcDbEntity
67
0
8
0
6
Grid
62
8
370
0
100
AcDbLine
10
-690
20
515
30
0
11
-690
21
490
31
0
0
LINE
5
A13
100
AcDbEntity
67
0
8
0
6
Grid
62
8
370
0
100
AcDbLine
10
-690
20
515
30
0
11
-665
21
515
31
0
0
LINE
5
A14
100
AcDbEntity
67
0
8
0
6
Grid
62
8
370
0
100
AcDbLine
10
-665
20
515
30
0
11
-665
21
490
31
0
0
LINE
5
A15
100
AcDbEntity
67
0
8
0
6
Grid
62
8
370
0
100
AcDbLine
10
-665
20
515
30
0
11
-640
21
515
31
0
0
LINE
5
A16
100
AcDbEntity
67
0
8
0
6
Grid
62
8
370
0
100
AcDbLine
10
-640
20
515
30
0
11
-640
21
490
31
0
0
LINE
5
A17
100
AcDbEntity
67
0
8
0
6
Grid
62
8
370
0
100
AcDbLine
10
-640
20
515
30
0
11
-615
21
515
31
0
0
LINE
5
A18
100
AcDbEntity
67
0
8
0
6
Grid
62
8
370
0
100
AcDbLine
10
-615
20
515
30
0
11
-615
21
490
31
0
0
LINE
5
A19
100
AcDbEntity
67
0
8
0
6
Grid
62
8
370
0
100
AcDbLine
10
-615
20
515
30
0
11
-590
21
515
31
0
0
LINE
5
A1A
100
AcDbEntity
67
0
8
0
6
Grid
62
8
370
0
100
AcDbLine
10
-590
20
515
30
0
11
-590
21
490
31
0
0
LINE
5
A1B
100
AcDbEntity
67
0
8
0
6
Grid
62
8
370
0
100
AcDbLine
10
-590
20
515
30
0
11
-565
21
515
31
0
0
LINE
5
A1C
100
AcDbEntity
67
0
8
0
6
Grid
62
8
370
0
100
AcDbLine
10
-565
20
515
30
0
11
-565
21
490
31
0
0
LINE
5
A1D
100
AcDbEntity
67
0
8
0
6
Grid
62
8
370
0
100
AcDbLine
10
-565
20
515
30
0
11
-540
21
515
31
0
0
LINE
5
A1E
100
AcDbEntity
67
0
8
0
6
Grid
62
8
370
0
100
AcDbLine
10
-540
20
515
30
0
11
-540
21
490
31
0
0
LINE
5
A1F
100
AcDbEntity
67
0
8
0
6
Grid
62
8
370
0
100
AcDbLine
10
-540
20
515
30
0
11
-515
21
515
31
0
0
LINE
5
A20
100
AcDbEntity
67
0
8
0
6
Grid
62
8
370
0
100
AcDbLine
10
-515
20
515
30
0
11
-515
21
490
31
0
0
LINE
5
A21
100
AcDbEntity
67
0
8
0
6
Grid
62
8
370
0
100
AcDbLine
10
-515
20
515
30
0
11
-490
21
515
31
0
0
LINE
5
A22
100
AcDbEntity
67
0
8
0
6
Grid
62
8
370
0
100
AcDbLine
10
-490
20
515
30
0
11
-490
21
490
31
0
0
LINE
5
A23
100
AcDbEntity
67
0
8
0
6
Grid
62
8
370
0
100
AcDbLine
10
-490
20
515
30
0
11
-465
21
515
31
0
0
LINE
5
A24
100
AcDbEntity
67
0
8
0
6
Grid
62
8
370
0
100
AcDbLine
10
-465
20
515
30
0
11
-465
21
490
31
0
0
LINE
5
A25
100
AcDbEntity
67
0
8
0
6
Grid
62
8
370
0
100
AcDbLine
10
-465
20
515
30
0
11
-440
21
515
31
0
0
LINE
5
A26
100
AcDbEntity
67
0
8
0
6
Grid
62
8
370
0
100
AcDbLine
10
-440
20
515
30
0
11
-440
21
490
31
0
0
LINE
5
A27
100
AcDbEntity
67
0
8
0
6
Grid
62
8
370
0
100
AcDbLine
10
-440
20
515
30
0
11
-415
21
515
31
0
0
LINE
5
A28
100
AcDbEntity
67
0
8
0
6
Grid
62
8
370
0
100
AcDbLine
10
-415
20
515
30
0
11
-415
21
490
31
0
0
LINE
5
A29
100
AcDbEntity
67
0
8
0
6
Grid
62
8
370
0
100
AcDbLine
10
-415
20
515
30
0
11
-390
21
515
31
0
0
LINE
5
A2A
100
AcDbEntity
67
0
8
0
6
Grid
62
8
370
0
100
AcDbLine
10
-390
20
515
30
0
11
-390
21
490
31
0
0
LINE
5
A2B
100
AcDbEntity
67
0
8
0
6
Grid
62
8
370
0
100
AcDbLine
10
-390
20
515
30
0
11
-365
21
515
31
0
0
LINE
5
A2C
100
AcDbEntity
67
0
8
0
6
Grid
62
8
370
0
100
AcDbLine
10
-365
20
515
30
0
11
-365
21
490
31
0
0
LINE
5
A2D
100
AcDbEntity
67
0
8
0
6
Grid
62
8
370
0
100
AcDbLine
10
-365
20
515
30
0
11
-340
21
515
31
0
0
LINE
5
A2E
100
AcDbEntity
67
0
8
0
6
Grid
62
8
370
0
100
AcDbLine
10
-340
20
515
30
0
11
-340
21
490
31
0
0
LINE
5
A2F
100
AcDbEntity
67
0
8
0
6
Grid
62
8
370
0
100
AcDbLine
10
-340
20
515
30
0
11
-315
21
515
31
0
0
LINE
5
A30
100
AcDbEntity
67
0
8
0
6
Grid
62
8
370
0
100
AcDbLine
10
-315
20
515
30
0
11
-315
21
490
31
0
0
LINE
5
A31
100
AcDbEntity
67
0
8
0
6
Grid
62
8
370
0
100
AcDbLine
10
-315
20
515
30
0
11
-290
21
515
31
0
0
LINE
5
A32
100
AcDbEntity
67
0
8
0
6
Grid
62
8
370
0
100
AcDbLine
10
-290
20
515
30
0
11
-290
21
490
31
0
0
LINE
5
A33
100
AcDbEntity
67
0
8
0
6
Grid
62
8
370
0
100
AcDbLine
10
-290
20
515
30
0
11
-265
21
515
31
0
0
LINE
5
A34
100
AcDbEntity
67
0
8
0
6
Grid
62
8
370
0
100
AcDbLine
10
-265
20
515
30
0
11
-265
21
490
31
0
0
LINE
5
A35
100
AcDbEntity
67
0
8
0
6
Grid
62
8
370
0
100
AcDbLine
10
-265
20
515
30
0
11
-240
21
515
31
0
0
LINE
5
A36
100
AcDbEntity
67
0
8
0
6
Grid
62
8
370
0
100
AcDbLine
10
-240
20
515
30
0
11
-240
21
490
31
0
0
LINE
5
A37
100
AcDbEntity
67
0
8
0
6
Grid
62
8
370
0
100
AcDbLine
10
-240
20
515
30
0
11
-215
21
515
31
0
0
LINE
5
A38
100
AcDbEntity
67
0
8
0
6
Grid
62
8
370
0
100
AcDbLine
10
-215
20
515
30
0
11
-215
21
490
31
0
0
LINE
5
A39
100
AcDbEntity
67
0
8
0
6
Grid
62
8
370
0
100
AcDbLine
10
-215
20
515
30
0
11
-190
21
515
31
0
0
LINE
5
A3A
100
AcDbEntity
67
0
8
0
6
Grid
62
8
370
0
100
AcDbLine
10
-190
20
515
30
0
11
-190
21
490
31
0
0
LINE
5
A3B
100
AcDbEntity
67
0
8
0
6
Grid
62
8
370
0
100
AcDbLine
10
-190
20
515
30
0
11
-165
21
515
31
0
0
LINE
5
A3C
100
AcDbEntity
67
0
8
0
6
Grid
62
8
370
0
100
AcDbLine
10
-165
20
515
30
0
11
-165
21
490
31
0
0
LINE
5
A3D
100
AcDbEntity
67
0
8
0
6
Grid
62
8
370
0
100
AcDbLine
10
-165
20
515
30
0
11
-140
21
515
31
0
0
LINE
5
A3E
100
AcDbEntity
67
0
8
0
6
Grid
62
8
370
0
100
AcDbLine
10
-140
20
515
30
0
11
-140
21
490
31
0
0
LINE
5
A3F
100
AcDbEntity
67
0
8
0
6
Grid
62
8
370
0
100
AcDbLine
10
-140
20
515
30
0
11
-115
21
515
31
0
0
LINE
5
A40
100
AcDbEntity
67
0
8
0
6
Grid
62
8
370
0
100
AcDbLine
10
-115
20
515
30
0
11
-115
21
490
31
0
0
LINE
5
A41
100
AcDbEntity
67
0
8
0
6
Grid
62
8
370
0
100
AcDbLine
10
-115
20
515
30
0
11
-90
21
515
31
0
0
LINE
5
A42
100
AcDbEntity
67
0
8
0
6
Grid
62
8
370
0
100
AcDbLine
10
-90
20
515
30
0
11
-90
21
490
31
0
0
LINE
5
A43
100
AcDbEntity
67
0
8
0
6
Grid
62
8
370
0
100
AcDbLine
10
-90
20
515
30
0
11
-65
21
515
31
0
0
LINE
5
A44
100
AcDbEntity
67
0
8
0
6
Grid
62
8
370
0
100
AcDbLine
10
-65
20
515
30
0
11
-65
21
490
31
0
0
LINE
5
A45
100
AcDbEntity
67
0
8
0
6
Grid
62
8
370
0
100
AcDbLine
10
-65
20
515
30
0
11
-40
21
515
31
0
0
LINE
5
A46
100
AcDbEntity
67
0
8
0
6
Grid
62
8
370
0
100
AcDbLine
10
-40
20
515
30
0
11
-40
21
490
31
0
0
LINE
5
A47
100
AcDbEntity
67
0
8
0
6
Grid
62
8
370
0
100
AcDbLine
10
-40
20
515
30
0
11
-15
21
515
31
0
0
LINE
5
A48
100
AcDbEntity
67
0
8
0
6
Grid
62
8
370
0
100
AcDbLine
10
-15
20
515
30
0
11
-15
21
490
31
0
0
ENDSEC
0
SECTION
2
OBJECTS
0
DICTIONARY
5
22
100
AcDbDictionary
281
1
3
ACAD_COLOR
350
23
3
ACAD_GROUP
350
26
3
ACAD_LAYOUT
350
27
3
ACAD_MATERIAL
350
28
3
ACAD_MLINESTYLE
350
29
3
ACAD_PLOTSETTINGS
350
2A
3
ACAD_PLOTSTYLENAME
350
2B
3
ACAD_TABLESTYLE
350
2C
3
AcadDim
350
2D
0
DICTIONARY
5
23
100
AcDbDictionary
0
DICTIONARY
5
26
100
AcDbDictionary
0
DICTIONARY
5
27
100
AcDbDictionary
0
DICTIONARY
5
28
100
AcDbDictionary
0
DICTIONARY
5
29
100
AcDbDictionary
0
DICTIONARY
5
2A
100
AcDbDictionary
0
DICTIONARY
5
2B
100
AcDbDictionary
0
DICTIONARY
5
2C
100
AcDbDictionary
0
DICTIONARY
5
2D
100
AcDbDictionary
0
ENDSEC
0
EOF
