<?xml version="1.0" encoding="UTF-8" standalone="no"?>
<!-- Created with Inkscape (http://www.inkscape.org/) -->

<svg
   xmlns:dc="http://purl.org/dc/elements/1.1/"
   xmlns:cc="http://creativecommons.org/ns#"
   xmlns:rdf="http://www.w3.org/1999/02/22-rdf-syntax-ns#"
   xmlns:svg="http://www.w3.org/2000/svg"
   xmlns="http://www.w3.org/2000/svg"
   xmlns:sodipodi="http://sodipodi.sourceforge.net/DTD/sodipodi-0.dtd"
   xmlns:inkscape="http://www.inkscape.org/namespaces/inkscape"
   width="160"
   height="160"
   viewBox="0 0 160 160"
   id="svg2"
   version="1.1"
   inkscape:version="0.91 r13725"
   sodipodi:docname="cz3.svg"
   inkscape:export-filename="E:\Users\c055897.NETCEMIG\Documents\cz48.png"
   inkscape:export-xdpi="27.120001"
   inkscape:export-ydpi="27.120001">
  <defs
     id="defs4" />
  <sodipodi:namedview
     id="base"
     pagecolor="#ffffff"
     bordercolor="#666666"
     borderopacity="1.0"
     inkscape:pageopacity="0.0"
     inkscape:pageshadow="2"
     inkscape:zoom="0.99999999"
     inkscape:cx="-66.649245"
     inkscape:cy="120.72869"
     inkscape:document-units="px"
     inkscape:current-layer="layer2"
     showgrid="false"
     inkscape:window-width="1280"
     inkscape:window-height="972"
     inkscape:window-x="-8"
     inkscape:window-y="-8"
     inkscape:window-maximized="1"
     units="px" />
  <metadata
     id="metadata7">
    <rdf:RDF>
      <cc:Work
         rdf:about="">
        <dc:format>image/svg+xml</dc:format>
        <dc:type
           rdf:resource="http://purl.org/dc/dcmitype/StillImage" />
        <dc:title />
      </cc:Work>
    </rdf:RDF>
  </metadata>
  <g
     inkscape:label="Camada 1"
     inkscape:groupmode="layer"
     id="layer1"
     transform="translate(0,-892.36216)" />
  <g
     inkscape:groupmode="layer"
     id="layer2"
     inkscape:label="Camada 2"
     transform="translate(0,-892.36216)">
    <path
       id="path4379"
       style="fill:#d2d2d2;fill-opacity:1;fill-rule:evenodd;stroke:#707070;stroke-width:2;stroke-linecap:round;stroke-linejoin:round;stroke-miterlimit:4;stroke-dasharray:none;stroke-opacity:1"
       d="m 150.18456,913.92723 -140.3715364,0 -0.1045214,116.72027 c 0,0 -8.3616726,1.0845 -8.3616726,10.1497 0,9.0651 8.7797564,10.2181 8.7797564,10.2181 l 139.657694,0 c 0,0 8.86889,-0.8083 8.86889,-10.2181 0,-9.4098 -8.41995,-10.1497 -8.41995,-10.1497 z"
       inkscape:connector-curvature="0"
       sodipodi:nodetypes="cccsccscc" />
    <path
       style="fill:#ff0000;fill-opacity:1;fill-rule:evenodd;stroke:#000000;stroke-width:2;stroke-linecap:round;stroke-linejoin:round;stroke-miterlimit:4;stroke-dasharray:none;stroke-opacity:1"
       d="m 70.035156,932.7348 c 0,0 -4.322201,0.0312 -8.638672,0.0312 -16.947526,0 -42.425781,17.45333 -42.425781,45.64453 0,28.19127 25.269701,45.64267 42.425781,45.64267 5.003721,0 8.638672,-0.074 8.638672,-0.074 l 0,-17.957 c -5.991079,0.8017 -8.968814,0.3748 -13.30165,-1.2432 0,-11.18995 -0.08839,-41.08667 -0.08839,-53.74302 4.645647,-1.73124 7.583254,-1.82397 13.390038,-0.88677 l 0,-17.41406 z m -28.150391,66.77328 c -4.168945,-4.26534 -8.33789,-11.03193 -8.33789,-21.03695 0,-10.00503 4.168945,-16.89907 8.33789,-21.29186 z"
       id="path4208"
       inkscape:connector-curvature="0"
       sodipodi:nodetypes="csssccccccccscc" />
    <path
       inkscape:connector-curvature="0"
       id="path4214"
       d="m 54.800685,934.70926 1.443794,5.5943"
       style="fill:#000bff;fill-opacity:1;fill-rule:evenodd;stroke:#000000;stroke-width:4;stroke-linecap:round;stroke-linejoin:round;stroke-miterlimit:4;stroke-dasharray:none;stroke-opacity:1" />
    <path
       inkscape:connector-curvature="0"
       id="path4218"
       d="m 37.287668,943.78102 3.571818,4.54124"
       style="fill:#000bff;fill-opacity:1;fill-rule:evenodd;stroke:#000000;stroke-width:4;stroke-linecap:round;stroke-linejoin:round;stroke-miterlimit:4;stroke-dasharray:none;stroke-opacity:1" />
    <path
       inkscape:connector-curvature="0"
       id="path4222"
       d="m 24.566112,959.46472 5.142623,2.63328"
       style="fill:#000bff;fill-opacity:1;fill-rule:evenodd;stroke:#000000;stroke-width:4;stroke-linecap:round;stroke-linejoin:round;stroke-miterlimit:4;stroke-dasharray:none;stroke-opacity:1" />
    <path
       inkscape:connector-curvature="0"
       id="path4226"
       d="m 20.306476,978.52136 5.77723,-0.066"
       style="fill:#000bff;fill-opacity:1;fill-rule:evenodd;stroke:#000000;stroke-width:4;stroke-linecap:round;stroke-linejoin:round;stroke-miterlimit:4;stroke-dasharray:none;stroke-opacity:1" />
    <path
       style="fill:#000bff;fill-opacity:1;fill-rule:evenodd;stroke:#000000;stroke-width:4;stroke-linecap:round;stroke-linejoin:round;stroke-miterlimit:4;stroke-dasharray:none;stroke-opacity:1"
       d="m 54.831015,1021.6176 1.443794,-5.5943"
       id="path4230"
       inkscape:connector-curvature="0" />
    <path
       style="fill:#000bff;fill-opacity:1;fill-rule:evenodd;stroke:#000000;stroke-width:4;stroke-linecap:round;stroke-linejoin:round;stroke-miterlimit:4;stroke-dasharray:none;stroke-opacity:1"
       d="m 37.391221,1013.21 3.571818,-4.5412"
       id="path4234"
       inkscape:connector-curvature="0" />
    <path
       style="fill:#000bff;fill-opacity:1;fill-rule:evenodd;stroke:#000000;stroke-width:4;stroke-linecap:round;stroke-linejoin:round;stroke-miterlimit:4;stroke-dasharray:none;stroke-opacity:1"
       d="m 24.639335,997.6816 5.142623,-2.63328"
       id="path4238"
       inkscape:connector-curvature="0" />
    <path
       style="opacity:1;fill:#00ff00;fill-opacity:1;stroke:#000000;stroke-width:2;stroke-linecap:round;stroke-linejoin:round;stroke-miterlimit:4;stroke-dasharray:none;stroke-dashoffset:0;stroke-opacity:1"
       d="m 120.69837,963.33876 1.48918,4.51799 -37.789144,-0.0165 -9.307277,-0.004 9.344503,-4.51444 z"
       id="rect4263"
       inkscape:connector-curvature="0"
       sodipodi:nodetypes="cccccc"
       inkscape:transform-center-x="192.06161"
       inkscape:transform-center-y="0.030505" />
    <path
       sodipodi:nodetypes="cccccc"
       inkscape:connector-curvature="0"
       id="path4266"
       d="m 124.49464,975.1648 -1.29628,-4.14267 -31.45248,21.20002 -7.708328,5.21605 10.210926,-1.4543 z"
       style="opacity:1;fill:#00ff00;fill-opacity:1;stroke:#000000;stroke-width:2;stroke-linecap:round;stroke-linejoin:round;stroke-miterlimit:4;stroke-dasharray:none;stroke-dashoffset:0;stroke-opacity:1" />
    <path
       style="opacity:1;fill:#0000ff;fill-opacity:1;stroke:#000000;stroke-width:2;stroke-linecap:round;stroke-linejoin:round;stroke-miterlimit:4;stroke-dasharray:none;stroke-dashoffset:0;stroke-opacity:1"
       d="m 131.26953,957.32855 -11.29101,3.7832 5.42968,16.63477 11.29102,-3.78321 -5.42969,-16.63476 z m -5.76367,5.82617 c 0.75684,-0.0133 1.38151,0.61456 1.39453,1.40234 0.0123,0.78781 -0.5908,1.43626 -1.34766,1.44922 -0.75685,0.013 -1.38188,-0.61522 -1.39453,-1.40234 -0.0126,-0.78713 0.59081,-1.43589 1.34766,-1.44922 z m 2.37891,6.86914 c 0.75685,-0.0133 1.38152,0.6126 1.39453,1.40039 0.0123,0.7878 -0.59081,1.43625 -1.34766,1.44922 -0.75685,0.013 -1.37993,-0.61327 -1.39258,-1.40039 -0.0126,-0.78712 0.58887,-1.43588 1.34571,-1.44922 z"
       id="rect4268"
       inkscape:connector-curvature="0" />
    <rect
       style="opacity:1;fill:#0000ff;fill-opacity:1;stroke:#000000;stroke-width:2.00003099;stroke-linecap:round;stroke-linejoin:round;stroke-miterlimit:4;stroke-dasharray:none;stroke-dashoffset:0;stroke-opacity:1"
       id="rect4270"
       width="5.7373247"
       height="9.7265224"
       x="954.78192"
       y="162.48289"
       transform="matrix(0.31028837,0.95064248,-0.94817464,0.31774967,0,0)" />
    <rect
       style="opacity:1;fill:#10ff00;fill-opacity:1;stroke:#000000;stroke-width:2;stroke-linecap:round;stroke-linejoin:round;stroke-miterlimit:4;stroke-dasharray:none;stroke-dashoffset:0;stroke-opacity:1"
       id="rect4261"
       width="56.83622"
       height="17.957731"
       x="79.904366"
       y="1005.9344" />
    <path
       style="fill:#000bff;fill-opacity:1;fill-rule:evenodd;stroke:#000000;stroke-width:4;stroke-linecap:round;stroke-linejoin:round;stroke-miterlimit:4;stroke-dasharray:none;stroke-opacity:1"
       d="m 85.575673,1007.4009 0,6.1056"
       id="path4312"
       inkscape:connector-curvature="0" />
    <path
       inkscape:connector-curvature="0"
       id="path4314"
       d="m 94.554538,1007.4009 0,6.1056"
       style="fill:#000bff;fill-opacity:1;fill-rule:evenodd;stroke:#000000;stroke-width:4;stroke-linecap:round;stroke-linejoin:round;stroke-miterlimit:4;stroke-dasharray:none;stroke-opacity:1" />
    <path
       style="fill:#000bff;fill-opacity:1;fill-rule:evenodd;stroke:#000000;stroke-width:4;stroke-linecap:round;stroke-linejoin:round;stroke-miterlimit:4;stroke-dasharray:none;stroke-opacity:1"
       d="m 103.5334,1007.4009 0,6.1056"
       id="path4316"
       inkscape:connector-curvature="0" />
    <path
       inkscape:connector-curvature="0"
       id="path4318"
       d="m 112.51227,1007.4009 0,6.1056"
       style="fill:#000bff;fill-opacity:1;fill-rule:evenodd;stroke:#000000;stroke-width:4;stroke-linecap:round;stroke-linejoin:round;stroke-miterlimit:4;stroke-dasharray:none;stroke-opacity:1" />
    <path
       style="fill:#000bff;fill-opacity:1;fill-rule:evenodd;stroke:#000000;stroke-width:4;stroke-linecap:round;stroke-linejoin:round;stroke-miterlimit:4;stroke-dasharray:none;stroke-opacity:1"
       d="m 121.49113,1007.4009 0,6.1056"
       id="path4320"
       inkscape:connector-curvature="0" />
    <path
       inkscape:connector-curvature="0"
       id="path4322"
       d="m 130.47,1007.4009 0,6.1056"
       style="fill:#000bff;fill-opacity:1;fill-rule:evenodd;stroke:#000000;stroke-width:4;stroke-linecap:round;stroke-linejoin:round;stroke-miterlimit:4;stroke-dasharray:none;stroke-opacity:1" />
    <path
       style="fill:#9c9898;fill-rule:evenodd;stroke:#707070;stroke-width:2;stroke-linecap:round;stroke-linejoin:round;stroke-miterlimit:4;stroke-dasharray:none;stroke-opacity:1;fill-opacity:1"
       d="m 9.6557589,893.84601 0,136.83159 c 0,0 -8.3089293,0.9687 -8.3089293,10.3392 0,-14.7223 0,-112.55386 0,-137.32902 0,-8.99436 8.3089293,-9.84177 8.3089293,-9.84177 z"
       id="path4375"
       inkscape:connector-curvature="0"
       sodipodi:nodetypes="ccccc" />
    <path
       sodipodi:nodetypes="ccccc"
       inkscape:connector-curvature="0"
       id="path4377"
       d="m 150.18461,893.84601 0,136.83159 c 0,0 8.44361,0.9687 8.44361,10.3392 l -0.13468,-137.32902 c 0,-8.99436 -8.30893,-9.84177 -8.30893,-9.84177 z"
       style="fill:#9c9898;fill-rule:evenodd;stroke:#707070;stroke-width:2;stroke-linecap:round;stroke-linejoin:round;stroke-miterlimit:4;stroke-dasharray:none;stroke-opacity:1;fill-opacity:1" />
    <path
       style="fill:#000bff;fill-opacity:1;fill-rule:evenodd;stroke:#000000;stroke-width:4;stroke-linecap:round;stroke-linejoin:round;stroke-miterlimit:4;stroke-dasharray:none;stroke-opacity:1"
       d="m 42.933893,978.52136 5.77723,-0.066"
       id="path4199"
       inkscape:connector-curvature="0" />
  </g>
</svg>
