999
CadZinho - Minimalist CAD by Zecruel
0
SECTION
2
HEADER
9
$ACADVER
1
AC1021
9
$HANDSEED
5
22C
9
$INSUNITS
70
4
9
$LWDISPLAY
290
1
0
ENDSEC
0
SECTION
2
CLASSES
0
ENDSEC
0
SECTION
2
TABLES
0
TABLE
2
VPORT
5
1
100
AcDbSymbolTable
70
1
0
ENDTAB
0
TABLE
2
LTYPE
5
4
100
AcDbSymbolTable
70
100
0
LTYPE
5
5
100
AcDbSymbolTableRecord
100
AcDbLinetypeTableRecord
2
ByBlock
70
0
3

72
65
73
0
40
0.000000
0
LTYPE
5
6
100
AcDbSymbolTableRecord
100
AcDbLinetypeTableRecord
2
ByLayer
70
0
3

72
65
73
0
40
0.000000
0
LTYPE
5
7
100
AcDbSymbolTableRecord
100
AcDbLinetypeTableRecord
2
Continuous
70
0
3
___________________________________
72
65
73
0
40
0.000000
0
LTYPE
5
8
100
AcDbSymbolTableRecord
100
AcDbLinetypeTableRecord
2
Border
70
0
3
____ . ____ ____ . ____ ____ . ____
72
65
73
6
40
1.750000
49
0.500000
74
0
49
-0.250000
74
0
49
0.500000
74
0
49
-0.250000
74
0
49
0.000000
74
0
49
-0.250000
74
0
0
LTYPE
5
9
100
AcDbSymbolTableRecord
100
AcDbLinetypeTableRecord
2
Center
70
0
3
____ _ ____ _ ____ _ ____ _ ____ _
72
65
73
4
40
2.000000
49
1.250000
74
0
49
-0.250000
74
0
49
0.250000
74
0
49
-0.250000
74
0
0
LTYPE
5
A
100
AcDbSymbolTableRecord
100
AcDbLinetypeTableRecord
2
Dashdot
70
0
3
____ . ____ . ____ . ____ . ____ .
72
65
73
4
40
1.000000
49
0.500000
74
0
49
-0.250000
74
0
49
0.000000
74
0
49
-0.250000
74
0
0
LTYPE
5
B
100
AcDbSymbolTableRecord
100
AcDbLinetypeTableRecord
2
Dashed
70
0
3
____ ____ ____ ____ ____ ____ ____
72
65
73
2
40
0.750000
49
0.500000
74
0
49
-0.250000
74
0
0
LTYPE
5
C
100
AcDbSymbolTableRecord
100
AcDbLinetypeTableRecord
2
Divide
70
0
3
____ . . ____ . . ____ . . ____ . .
72
65
73
6
40
1.250000
49
0.500000
74
0
49
-0.250000
74
0
49
0.000000
74
0
49
-0.250000
74
0
49
0.000000
74
0
49
-0.250000
74
0
0
LTYPE
5
D
100
AcDbSymbolTableRecord
100
AcDbLinetypeTableRecord
2
Dot
70
0
3
. . . . . . . . . . . . . . . . . .
72
65
73
2
40
0.250000
49
0.000000
74
0
49
-0.250000
74
0
0
LTYPE
5
E
100
AcDbSymbolTableRecord
100
AcDbLinetypeTableRecord
2
Hidden
70
0
3
__ __ __ __ __ __ __ __ __ __ __ __
72
65
73
2
40
0.375000
49
0.250000
74
0
49
-0.125000
74
0
0
LTYPE
5
F
100
AcDbSymbolTableRecord
100
AcDbLinetypeTableRecord
2
Phantom
70
0
3
_____ _ _ _____ _ _ _____ _ _ _____
72
65
73
6
40
2.500000
49
1.250000
74
0
49
-0.250000
74
0
49
0.250000
74
0
49
-0.250000
74
0
49
0.250000
74
0
49
-0.250000
74
0
0
ENDTAB
0
TABLE
2
LAYER
5
10
100
AcDbSymbolTable
70
1000
0
LAYER
5
11
100
AcDbSymbolTableRecord
100
AcDbLayerTableRecord
2
0
70
0
62
7
6
Continuous
370
0
390
0
0
LAYER
5
144
100
AcDbSymbolTableRecord
100
AcDbLayerTableRecord
2
body
70
0
62
7
6
Continuous
370
0
390
0
0
LAYER
5
145
100
AcDbSymbolTableRecord
100
AcDbLayerTableRecord
2
terminal
70
0
62
2
6
Continuous
370
0
390
0
0
LAYER
5
14B
100
AcDbSymbolTableRecord
100
AcDbLayerTableRecord
2
label
70
0
62
1
6
Continuous
370
0
390
0
0
LAYER
5
21E
100
AcDbSymbolTableRecord
100
AcDbLayerTableRecord
2
wire
70
0
62
3
6
Continuous
370
0
390
0
0
ENDTAB
0
TABLE
2
STYLE
5
12
100
AcDbSymbolTable
70
3
0
STYLE
5
13
100
AcDbSymbolTableRecord
100
AcDbTextStyleTableRecord
2
Standard
70
0
40
0.000000
41
1.000000
50
0.000000
71
0
42
1.000000
3
TXT.SHX
4

0
ENDTAB
0
TABLE
2
VIEW
5
14
100
AcDbSymbolTable
70
0
0
ENDTAB
0
TABLE
2
UCS
5
15
100
AcDbSymbolTable
70
0
0
ENDTAB
0
TABLE
2
APPID
5
16
100
AcDbSymbolTable
70
10
0
APPID
5
17
100
AcDbSymbolTableRecord
100
AcDbRegAppTableRecord
2
ACAD
70
0
0
APPID
5
18
100
AcDbSymbolTableRecord
100
AcDbRegAppTableRecord
2
CADZINHO
70
0
0
ENDTAB
0
TABLE
2
DIMSTYLE
5
19
100
AcDbSymbolTable
70
1
100
AcDbDimStyleTable
71
1
0
DIMSTYLE
105
1A
100
AcDbSymbolTableRecord
100
AcDbDimStyleTableRecord
2
Standard
70
0
340
C
0
ENDTAB
0
TABLE
2
BLOCK_RECORD
5
1B
100
AcDbSymbolTable
70
9999
0
BLOCK_RECORD
5
1C
100
AcDbSymbolTableRecord
100
AcDbBlockTableRecord
2
*Model_Space
70
0
0
BLOCK_RECORD
5
1D
100
AcDbSymbolTableRecord
100
AcDbBlockTableRecord
2
*Paper_Space
70
0
0
BLOCK_RECORD
5
16F
100
AcDbSymbolTableRecord
100
AcDbBlockTableRecord
2
V
70
0
0
BLOCK_RECORD
5
180
100
AcDbSymbolTableRecord
100
AcDbBlockTableRecord
2
R
70
0
0
BLOCK_RECORD
5
18D
100
AcDbSymbolTableRecord
100
AcDbBlockTableRecord
2
L
70
0
0
BLOCK_RECORD
5
19B
100
AcDbSymbolTableRecord
100
AcDbBlockTableRecord
2
C
70
0
0
BLOCK_RECORD
5
1AB
100
AcDbSymbolTableRecord
100
AcDbBlockTableRecord
2
GND
70
0
0
ENDTAB
0
ENDSEC
0
SECTION
2
BLOCKS
0
BLOCK
5
1E
100
AcDbEntity
8
0
100
AcDbBlockBegin
2
*Model_Space
70
0
10
0.000000
20
0.000000
30
0.000000
3
*Model_Space
1

0
ENDBLK
5
1F
100
AcDbEntity
8
0
100
AcDbBlockEnd
0
BLOCK
5
20
100
AcDbEntity
8
0
100
AcDbBlockBegin
2
*Paper_Space
70
0
10
0.000000
20
0.000000
30
0.000000
3
*Paper_Space
1

0
ENDBLK
5
21
100
AcDbEntity
8
0
100
AcDbBlockEnd
0
BLOCK
5
170
330
16F
100
AcDbEntity
8
0
100
AcDbBlockBegin
2
V
70
0
10
0.000000
20
0.000000
30
0.000000
3
V
1

4
Independent voltage source
0
CIRCLE
5
171
100
AcDbEntity
67
0
8
body
6
ByLayer
62
256
370
-1
100
AcDbCircle
10
-0.000000
20
-10.000000
30
0.000000
40
3.000000
0
TEXT
5
172
100
AcDbEntity
67
0
8
body
6
ByLayer
62
256
370
-1
100
AcDbText
10
-0.000000
20
-7.500000
30
0.000000
40
1.000000
1
+
50
0.000000
7
Standard
72
1
11
-0.000000
21
-7.500000
31
0.000000
100
AcDbText
73
3
0
TEXT
5
173
100
AcDbEntity
67
0
8
body
6
ByLayer
62
256
370
-1
100
AcDbText
10
-0.000000
20
-13.000000
30
0.000000
40
1.000000
1
-
50
0.000000
7
Standard
72
1
11
-0.000000
21
-13.000000
31
0.000000
100
AcDbText
73
1
0
CIRCLE
5
174
100
AcDbEntity
67
0
8
terminal
6
ByLayer
62
256
370
-1
100
AcDbCircle
10
-0.000000
20
-17.500000
30
0.000000
40
0.500000
0
LINE
5
175
100
AcDbEntity
67
0
8
terminal
6
ByLayer
62
256
370
-1
100
AcDbLine
10
-0.000000
20
-18.000000
30
0.000000
11
-0.000000
21
-20.000000
31
0.000000
1001
cadzinho
1000
terminal
1000
T2
0
CIRCLE
5
176
100
AcDbEntity
67
0
8
terminal
6
ByLayer
62
256
370
-1
100
AcDbCircle
10
0.000000
20
-2.500000
30
0.000000
40
0.500000
0
LINE
5
177
100
AcDbEntity
67
0
8
terminal
6
ByLayer
62
256
370
-1
100
AcDbLine
10
0.000000
20
-2.000000
30
0.000000
11
0.000000
21
0.000000
31
0.000000
1001
cadzinho
1000
terminal
1000
T1
0
LINE
5
178
100
AcDbEntity
67
0
8
body
6
ByLayer
62
256
370
-1
100
AcDbLine
10
-0.000000
20
-7.000000
30
0.000000
11
0.000000
21
-3.000000
31
0.000000
0
LINE
5
179
100
AcDbEntity
67
0
8
body
6
ByLayer
62
256
370
-1
100
AcDbLine
10
-0.000000
20
-17.000000
30
0.000000
11
-0.000000
21
-13.000000
31
0.000000
0
ATTDEF
5
17A
100
AcDbEntity
67
0
8
label
6
ByLayer
62
256
370
-1
100
AcDbText
10
3.500000
20
-7.000000
30
0.000000
40
1.500000
1
V
50
0.000000
7
Standard
72
0
11
3.500000
21
-7.000000
31
0.000000
100
AcDbAttributeDefinition
3
value:
2
Type
70
0
74
2
0
ATTDEF
5
17B
100
AcDbEntity
67
0
8
label
6
ByLayer
62
256
370
-1
100
AcDbText
10
3.500000
20
-10.000000
30
0.000000
40
1.500000
1
ID
50
0.000000
7
Standard
72
0
11
3.500000
21
-10.000000
31
0.000000
100
AcDbAttributeDefinition
3
value:
2
ID
70
0
74
2
0
ATTDEF
5
17C
100
AcDbEntity
67
0
8
label
6
ByLayer
62
256
370
-1
100
AcDbText
10
3.500000
20
-13.000000
30
0.000000
40
1.500000
1
Value
50
0.000000
7
Standard
72
0
11
3.500000
21
-13.000000
31
0.000000
100
AcDbAttributeDefinition
3
value:
2
Value
70
0
74
2
0
ATTDEF
5
17D
100
AcDbEntity
67
0
8
terminal
6
ByLayer
62
256
370
-1
100
AcDbText
10
1.000000
20
-17.500000
30
0.000000
40
1.000000
1
2
50
-0.000000
7
Standard
72
0
11
1.000000
21
-17.500000
31
0.000000
100
AcDbAttributeDefinition
3
value:
2
T2
70
0
74
2
0
ATTDEF
5
17E
100
AcDbEntity
67
0
8
terminal
6
ByLayer
62
256
370
-1
100
AcDbText
10
1.000000
20
-2.500000
30
0.000000
40
1.000000
1
1
50
0.000000
7
Standard
72
0
11
1.000000
21
-2.500000
31
0.000000
100
AcDbAttributeDefinition
3
value:
2
T1
70
0
74
2
0
ENDBLK
5
17F
330
170
100
AcDbEntity
8
0
100
AcDbBlockEnd
0
BLOCK
5
181
330
180
100
AcDbEntity
8
0
100
AcDbBlockBegin
2
R
70
0
10
0.000000
20
0.000000
30
0.000000
3
R
1

4
Resistor
0
LWPOLYLINE
5
182
100
AcDbEntity
67
0
8
body
6
ByLayer
62
256
370
-1
100
AcDbPolyline
90
10
70
0
10
-0.000000
20
-3.000000
30
0.000000
42
0.000000
10
-0.000000
20
-4.000000
30
0.000000
42
0.000000
10
2.000000
20
-5.000000
30
0.000000
42
0.000000
10
-2.000000
20
-7.000000
30
0.000000
42
0.000000
10
2.000000
20
-9.000000
30
0.000000
42
0.000000
10
-2.000000
20
-11.000000
30
0.000000
42
0.000000
10
2.000000
20
-13.000000
30
0.000000
42
0.000000
10
-2.000000
20
-15.000000
30
0.000000
42
0.000000
10
-0.000000
20
-16.000000
30
0.000000
42
0.000000
10
-0.000000
20
-17.000000
30
0.000000
0
CIRCLE
5
183
100
AcDbEntity
67
0
8
terminal
6
ByLayer
62
256
370
-1
100
AcDbCircle
10
-0.000000
20
-17.500000
30
0.000000
40
0.500000
0
LINE
5
184
100
AcDbEntity
67
0
8
terminal
6
ByLayer
62
256
370
-1
100
AcDbLine
10
-0.000000
20
-18.000000
30
0.000000
11
-0.000000
21
-20.000000
31
0.000000
1001
cadzinho
1000
terminal
1000
T2
0
CIRCLE
5
185
100
AcDbEntity
67
0
8
terminal
6
ByLayer
62
256
370
-1
100
AcDbCircle
10
0.000000
20
-2.500000
30
0.000000
40
0.500000
0
LINE
5
186
100
AcDbEntity
67
0
8
terminal
6
ByLayer
62
256
370
-1
100
AcDbLine
10
0.000000
20
-2.000000
30
0.000000
11
0.000000
21
0.000000
31
0.000000
1001
cadzinho
1000
terminal
1000
T1
0
ATTDEF
5
187
100
AcDbEntity
67
0
8
label
6
ByLayer
62
256
370
-1
100
AcDbText
10
3.000000
20
-7.000000
30
0.000000
40
1.500000
1
R
50
0.000000
7
Standard
72
0
11
3.000000
21
-7.000000
31
0.000000
100
AcDbAttributeDefinition
3
value:
2
Type
70
0
74
2
0
ATTDEF
5
188
100
AcDbEntity
67
0
8
label
6
ByLayer
62
256
370
-1
100
AcDbText
10
3.000000
20
-10.000000
30
0.000000
40
1.500000
1
ID
50
0.000000
7
Standard
72
0
11
3.000000
21
-10.000000
31
0.000000
100
AcDbAttributeDefinition
3
value:
2
ID
70
0
74
2
0
ATTDEF
5
189
100
AcDbEntity
67
0
8
label
6
ByLayer
62
256
370
-1
100
AcDbText
10
3.000000
20
-13.000000
30
0.000000
40
1.500000
1
Value
50
0.000000
7
Standard
72
0
11
3.000000
21
-13.000000
31
0.000000
100
AcDbAttributeDefinition
3
value:
2
Value
70
0
74
2
0
ATTDEF
5
18A
100
AcDbEntity
67
0
8
terminal
6
ByLayer
62
256
370
-1
100
AcDbText
10
1.000000
20
-17.500000
30
0.000000
40
1.000000
1
2
50
-0.000000
7
Standard
72
0
11
1.000000
21
-17.500000
31
0.000000
100
AcDbAttributeDefinition
3
value:
2
T2
70
0
74
2
0
ATTDEF
5
18B
100
AcDbEntity
67
0
8
terminal
6
ByLayer
62
256
370
-1
100
AcDbText
10
1.000000
20
-2.500000
30
0.000000
40
1.000000
1
1
50
0.000000
7
Standard
72
0
11
1.000000
21
-2.500000
31
0.000000
100
AcDbAttributeDefinition
3
value:
2
T1
70
0
74
2
0
ENDBLK
5
18C
330
181
100
AcDbEntity
8
0
100
AcDbBlockEnd
0
BLOCK
5
18E
330
18D
100
AcDbEntity
8
0
100
AcDbBlockBegin
2
L
70
0
10
0.000000
20
0.000000
30
0.000000
3
L
1

4
Inductor
0
LWPOLYLINE
5
18F
100
AcDbEntity
67
0
8
body
6
ByLayer
62
256
370
-1
100
AcDbPolyline
90
7
70
0
10
0.000000
20
-3.000000
30
0.000000
42
0.000000
10
0.000000
20
-4.000000
30
0.000000
42
1.600000
10
1.000000
20
-7.000000
30
0.000000
42
2.000000
10
1.000000
20
-10.000000
30
0.000000
42
2.000000
10
1.000000
20
-13.000000
30
0.000000
42
1.600000
10
0.000000
20
-16.000000
30
0.000000
42
0.000000
10
0.000000
20
-17.000000
30
0.000000
0
CIRCLE
5
190
100
AcDbEntity
67
0
8
body
6
ByLayer
62
256
370
-1
100
AcDbCircle
10
-2.000000
20
-3.500000
30
0.000000
40
0.250000
0
CIRCLE
5
191
100
AcDbEntity
67
0
8
terminal
6
ByLayer
62
256
370
-1
100
AcDbCircle
10
0.000000
20
-2.500000
30
0.000000
40
0.500000
0
LINE
5
192
100
AcDbEntity
67
0
8
terminal
6
ByLayer
62
256
370
-1
100
AcDbLine
10
0.000000
20
-2.000000
30
0.000000
11
0.000000
21
0.000000
31
0.000000
1001
cadzinho
1000
terminal
1000
T1
0
CIRCLE
5
193
100
AcDbEntity
67
0
8
terminal
6
ByLayer
62
256
370
-1
100
AcDbCircle
10
-0.000000
20
-17.500000
30
0.000000
40
0.500000
0
LINE
5
194
100
AcDbEntity
67
0
8
terminal
6
ByLayer
62
256
370
-1
100
AcDbLine
10
-0.000000
20
-18.000000
30
0.000000
11
-0.000000
21
-20.000000
31
0.000000
1001
cadzinho
1000
terminal
1000
T2
0
ATTDEF
5
195
100
AcDbEntity
67
0
8
terminal
6
ByLayer
62
256
370
-1
100
AcDbText
10
1.000000
20
-2.500000
30
0.000000
40
1.000000
1
1
50
0.000000
7
Standard
72
0
11
1.000000
21
-2.500000
31
0.000000
100
AcDbAttributeDefinition
3
value:
2
T1
70
0
74
2
0
ATTDEF
5
196
100
AcDbEntity
67
0
8
terminal
6
ByLayer
62
256
370
-1
100
AcDbText
10
1.000000
20
-17.500000
30
0.000000
40
1.000000
1
2
50
-0.000000
7
Standard
72
0
11
1.000000
21
-17.500000
31
0.000000
100
AcDbAttributeDefinition
3
value:
2
T2
70
0
74
2
0
ATTDEF
5
197
100
AcDbEntity
67
0
8
label
6
ByLayer
62
256
370
-1
100
AcDbText
10
2.000000
20
-7.000000
30
0.000000
40
1.500000
1
L
50
0.000000
7
Standard
72
0
11
2.000000
21
-7.000000
31
0.000000
100
AcDbAttributeDefinition
3
value:
2
Type
70
0
74
2
0
ATTDEF
5
198
100
AcDbEntity
67
0
8
label
6
ByLayer
62
256
370
-1
100
AcDbText
10
2.000000
20
-10.000000
30
0.000000
40
1.500000
1
ID
50
0.000000
7
Standard
72
0
11
2.000000
21
-10.000000
31
0.000000
100
AcDbAttributeDefinition
3
value:
2
ID
70
0
74
2
0
ATTDEF
5
199
100
AcDbEntity
67
0
8
label
6
ByLayer
62
256
370
-1
100
AcDbText
10
2.000000
20
-13.000000
30
0.000000
40
1.500000
1
Value
50
0.000000
7
Standard
72
0
11
2.000000
21
-13.000000
31
0.000000
100
AcDbAttributeDefinition
3
value:
2
Value
70
0
74
2
0
ENDBLK
5
19A
330
18E
100
AcDbEntity
8
0
100
AcDbBlockEnd
0
BLOCK
5
19C
330
19B
100
AcDbEntity
8
0
100
AcDbBlockBegin
2
C
70
0
10
0.000000
20
0.000000
30
0.000000
3
C
1

4
Capacitor
0
LINE
5
19D
100
AcDbEntity
67
0
8
body
6
ByLayer
62
256
370
-1
100
AcDbLine
10
2.500000
20
-11.000000
30
0.000000
11
-2.500000
21
-11.000000
31
0.000000
0
LINE
5
19E
100
AcDbEntity
67
0
8
body
6
ByLayer
62
256
370
-1
100
AcDbLine
10
2.500000
20
-9.000000
30
0.000000
11
-2.500000
21
-9.000000
31
0.000000
0
LINE
5
19F
100
AcDbEntity
67
0
8
body
6
ByLayer
62
256
370
-1
100
AcDbLine
10
-0.000000
20
-9.000000
30
0.000000
11
-0.000000
21
-3.000000
31
0.000000
0
LINE
5
1A0
100
AcDbEntity
67
0
8
body
6
ByLayer
62
256
370
-1
100
AcDbLine
10
-0.000000
20
-11.000000
30
0.000000
11
-0.000000
21
-17.000000
31
0.000000
0
CIRCLE
5
1A1
100
AcDbEntity
67
0
8
terminal
6
ByLayer
62
256
370
-1
100
AcDbCircle
10
-0.000000
20
-17.500000
30
0.000000
40
0.500000
0
LINE
5
1A2
100
AcDbEntity
67
0
8
terminal
6
ByLayer
62
256
370
-1
100
AcDbLine
10
-0.000000
20
-18.000000
30
0.000000
11
-0.000000
21
-20.000000
31
0.000000
1001
cadzinho
1000
terminal
1000
T2
0
CIRCLE
5
1A3
100
AcDbEntity
67
0
8
terminal
6
ByLayer
62
256
370
-1
100
AcDbCircle
10
0.000000
20
-2.500000
30
0.000000
40
0.500000
0
LINE
5
1A4
100
AcDbEntity
67
0
8
terminal
6
ByLayer
62
256
370
-1
100
AcDbLine
10
0.000000
20
-2.000000
30
0.000000
11
0.000000
21
0.000000
31
0.000000
1001
cadzinho
1000
terminal
1000
T1
0
ATTDEF
5
1A5
100
AcDbEntity
67
0
8
label
6
ByLayer
62
256
370
-1
100
AcDbText
10
3.500000
20
-7.000000
30
0.000000
40
1.500000
1
C
50
0.000000
7
Standard
72
0
11
3.500000
21
-7.000000
31
0.000000
100
AcDbAttributeDefinition
3
value:
2
Type
70
0
74
2
0
ATTDEF
5
1A6
100
AcDbEntity
67
0
8
label
6
ByLayer
62
256
370
-1
100
AcDbText
10
3.500000
20
-10.000000
30
0.000000
40
1.500000
1
ID
50
0.000000
7
Standard
72
0
11
3.500000
21
-10.000000
31
0.000000
100
AcDbAttributeDefinition
3
value:
2
ID
70
0
74
2
0
ATTDEF
5
1A7
100
AcDbEntity
67
0
8
label
6
ByLayer
62
256
370
-1
100
AcDbText
10
3.500000
20
-13.000000
30
0.000000
40
1.500000
1
Value
50
0.000000
7
Standard
72
0
11
3.500000
21
-13.000000
31
0.000000
100
AcDbAttributeDefinition
3
value:
2
Value
70
0
74
2
0
ATTDEF
5
1A8
100
AcDbEntity
67
0
8
terminal
6
ByLayer
62
256
370
-1
100
AcDbText
10
1.000000
20
-17.500000
30
0.000000
40
1.000000
1
2
50
-0.000000
7
Standard
72
0
11
1.000000
21
-17.500000
31
0.000000
100
AcDbAttributeDefinition
3
value:
2
T2
70
0
74
2
0
ATTDEF
5
1A9
100
AcDbEntity
67
0
8
terminal
6
ByLayer
62
256
370
-1
100
AcDbText
10
1.000000
20
-2.500000
30
0.000000
40
1.000000
1
1
50
0.000000
7
Standard
72
0
11
1.000000
21
-2.500000
31
0.000000
100
AcDbAttributeDefinition
3
value:
2
T1
70
0
74
2
0
ENDBLK
5
1AA
330
19C
100
AcDbEntity
8
0
100
AcDbBlockEnd
0
BLOCK
5
1AC
330
1AB
100
AcDbEntity
8
0
100
AcDbBlockBegin
2
GND
70
0
10
0.000000
20
0.000000
30
0.000000
3
GND
1

4
Reference node
0
LINE
5
1AD
100
AcDbEntity
67
0
8
terminal
6
ByLayer
62
256
370
-1
100
AcDbLine
10
0.000000
20
0.000000
30
0.000000
11
0.000000
21
-2.000000
31
0.000000
1001
cadzinho
1000
terminal
1000
GND
0
LINE
5
1AE
100
AcDbEntity
67
0
8
body
6
ByLayer
62
256
370
-1
100
AcDbLine
10
-1.500000
20
-2.000000
30
0.000000
11
1.500000
21
-2.000000
31
0.000000
0
LINE
5
1AF
100
AcDbEntity
67
0
8
body
6
ByLayer
62
256
370
-1
100
AcDbLine
10
-1.000000
20
-2.500000
30
0.000000
11
1.000000
21
-2.500000
31
0.000000
0
LINE
5
1B0
100
AcDbEntity
67
0
8
body
6
ByLayer
62
256
370
-1
100
AcDbLine
10
-0.500000
20
-3.000000
30
0.000000
11
0.500000
21
-3.000000
31
0.000000
0
ENDBLK
5
1B1
330
1AC
100
AcDbEntity
8
0
100
AcDbBlockEnd
0
ENDSEC
0
SECTION
2
ENTITIES
0
INSERT
5
1B8
100
AcDbEntity
67
0
8
0
6
ByLayer
62
256
370
-1
100
AcDbBlockReference
66
1
2
V
10
57.598705
20
319.671009
30
0.000000
41
1.000000
42
1.000000
43
1.000000
50
0.000000
1001
cadzinho
1000
component
1000
-
0
ATTRIB
5
1B9
100
AcDbEntity
67
0
8
label
6
ByLayer
62
256
370
-1
100
AcDbText
10
61.098705
20
312.671009
30
0.000000
40
1.500000
1
V
50
360.000000
7
Standard
72
0
11
61.098705
21
312.671009
31
0.000000
100
AcDbAttribute
2
Type
70
1
74
2
0
ATTRIB
5
1BA
100
AcDbEntity
67
0
8
label
6
ByLayer
62
256
370
-1
100
AcDbText
10
61.098705
20
309.671009
30
0.000000
40
1.500000
1
V1
50
360.000000
7
Standard
72
0
11
61.098705
21
309.671009
31
0.000000
100
AcDbAttribute
2
ID
70
0
74
2
0
ATTRIB
5
1BB
100
AcDbEntity
67
0
8
label
6
ByLayer
62
256
370
-1
100
AcDbText
10
61.098705
20
306.671009
30
0.000000
40
1.500000
1
100V
50
360.000000
7
Standard
72
0
11
61.098705
21
306.671009
31
0.000000
100
AcDbAttribute
2
Value
70
0
74
2
0
ATTRIB
5
1BC
100
AcDbEntity
67
0
8
terminal
6
ByLayer
62
256
370
-1
100
AcDbText
10
58.598705
20
302.171009
30
0.000000
40
1.000000
1
2
50
360.000000
7
Standard
72
0
11
58.598705
21
302.171009
31
0.000000
100
AcDbAttribute
2
T2
70
0
74
2
0
ATTRIB
5
1BD
100
AcDbEntity
67
0
8
terminal
6
ByLayer
62
256
370
-1
100
AcDbText
10
58.598705
20
317.171009
30
0.000000
40
1.000000
1
1
50
360.000000
7
Standard
72
0
11
58.598705
21
317.171009
31
0.000000
100
AcDbAttribute
2
T1
70
0
74
2
0
SEQEND
5
1BE
100
AcDbEntity
8
0
0
INSERT
5
1C5
100
AcDbEntity
67
0
8
0
6
ByLayer
62
256
370
-1
100
AcDbBlockReference
66
1
2
R
10
83.497022
20
314.470971
30
0.000000
41
1.000000
42
1.000000
43
1.000000
50
0.000000
1001
cadzinho
1000
component
1000
-
0
ATTRIB
5
1C6
100
AcDbEntity
67
0
8
label
6
ByLayer
62
256
370
-1
100
AcDbText
10
86.497022
20
307.470971
30
0.000000
40
1.500000
1
R
50
360.000000
7
Standard
72
0
11
86.497022
21
307.470971
31
0.000000
100
AcDbAttribute
2
Type
70
1
74
2
0
ATTRIB
5
1C7
100
AcDbEntity
67
0
8
label
6
ByLayer
62
256
370
-1
100
AcDbText
10
86.497022
20
304.470971
30
0.000000
40
1.500000
1
R1
50
360.000000
7
Standard
72
0
11
86.497022
21
304.470971
31
0.000000
100
AcDbAttribute
2
ID
70
0
74
2
0
ATTRIB
5
1C8
100
AcDbEntity
67
0
8
label
6
ByLayer
62
256
370
-1
100
AcDbText
10
86.497022
20
301.470971
30
0.000000
40
1.500000
1
10R
50
360.000000
7
Standard
72
0
11
86.497022
21
301.470971
31
0.000000
100
AcDbAttribute
2
Value
70
0
74
2
0
ATTRIB
5
1C9
100
AcDbEntity
67
0
8
terminal
6
ByLayer
62
256
370
-1
100
AcDbText
10
84.497022
20
296.970971
30
0.000000
40
1.000000
1
2
50
360.000000
7
Standard
72
0
11
84.497022
21
296.970971
31
0.000000
100
AcDbAttribute
2
T2
70
0
74
2
0
ATTRIB
5
1CA
100
AcDbEntity
67
0
8
terminal
6
ByLayer
62
256
370
-1
100
AcDbText
10
84.497022
20
311.970971
30
0.000000
40
1.000000
1
1
50
360.000000
7
Standard
72
0
11
84.497022
21
311.970971
31
0.000000
100
AcDbAttribute
2
T1
70
0
74
2
0
SEQEND
5
1CB
100
AcDbEntity
8
0
0
INSERT
5
1D2
100
AcDbEntity
67
0
8
0
6
ByLayer
62
256
370
-1
100
AcDbBlockReference
66
1
2
R
10
108.448937
20
318.752660
30
0.000000
41
1.000000
42
1.000000
43
1.000000
50
0.000000
1001
cadzinho
1000
component
1000
-
0
ATTRIB
5
1D3
100
AcDbEntity
67
0
8
label
6
ByLayer
62
256
370
-1
100
AcDbText
10
111.448937
20
311.752660
30
0.000000
40
1.500000
1
R
50
360.000000
7
Standard
72
0
11
111.448937
21
311.752660
31
0.000000
100
AcDbAttribute
2
Type
70
1
74
2
0
ATTRIB
5
1D4
100
AcDbEntity
67
0
8
label
6
ByLayer
62
256
370
-1
100
AcDbText
10
111.448937
20
308.752660
30
0.000000
40
1.500000
1
R2
50
360.000000
7
Standard
72
0
11
111.448937
21
308.752660
31
0.000000
100
AcDbAttribute
2
ID
70
0
74
2
0
ATTRIB
5
1D5
100
AcDbEntity
67
0
8
label
6
ByLayer
62
256
370
-1
100
AcDbText
10
111.448937
20
305.752660
30
0.000000
40
1.500000
1
25R
50
360.000000
7
Standard
72
0
11
111.448937
21
305.752660
31
0.000000
100
AcDbAttribute
2
Value
70
0
74
2
0
ATTRIB
5
1D6
100
AcDbEntity
67
0
8
terminal
6
ByLayer
62
256
370
-1
100
AcDbText
10
109.448937
20
301.252660
30
0.000000
40
1.000000
1
2
50
360.000000
7
Standard
72
0
11
109.448937
21
301.252660
31
0.000000
100
AcDbAttribute
2
T2
70
0
74
2
0
ATTRIB
5
1D7
100
AcDbEntity
67
0
8
terminal
6
ByLayer
62
256
370
-1
100
AcDbText
10
109.448937
20
316.252660
30
0.000000
40
1.000000
1
1
50
360.000000
7
Standard
72
0
11
109.448937
21
316.252660
31
0.000000
100
AcDbAttribute
2
T1
70
0
74
2
0
SEQEND
5
1D8
100
AcDbEntity
8
0
0
INSERT
5
1DF
100
AcDbEntity
67
0
8
0
6
ByLayer
62
256
370
-1
100
AcDbBlockReference
66
1
2
R
10
130.152675
20
314.766260
30
0.000000
41
1.000000
42
1.000000
43
1.000000
50
0.000000
1001
cadzinho
1000
component
1000
-
0
ATTRIB
5
1E0
100
AcDbEntity
67
0
8
label
6
ByLayer
62
256
370
-1
100
AcDbText
10
133.152675
20
307.766260
30
0.000000
40
1.500000
1
R
50
360.000000
7
Standard
72
0
11
133.152675
21
307.766260
31
0.000000
100
AcDbAttribute
2
Type
70
1
74
2
0
ATTRIB
5
1E1
100
AcDbEntity
67
0
8
label
6
ByLayer
62
256
370
-1
100
AcDbText
10
133.152675
20
304.766260
30
0.000000
40
1.500000
1
R3
50
360.000000
7
Standard
72
0
11
133.152675
21
304.766260
31
0.000000
100
AcDbAttribute
2
ID
70
0
74
2
0
ATTRIB
5
1E2
100
AcDbEntity
67
0
8
label
6
ByLayer
62
256
370
-1
100
AcDbText
10
133.152675
20
301.766260
30
0.000000
40
1.500000
1
25R
50
360.000000
7
Standard
72
0
11
133.152675
21
301.766260
31
0.000000
100
AcDbAttribute
2
Value
70
0
74
2
0
ATTRIB
5
1E3
100
AcDbEntity
67
0
8
terminal
6
ByLayer
62
256
370
-1
100
AcDbText
10
131.152675
20
297.266260
30
0.000000
40
1.000000
1
2
50
360.000000
7
Standard
72
0
11
131.152675
21
297.266260
31
0.000000
100
AcDbAttribute
2
T2
70
0
74
2
0
ATTRIB
5
1E4
100
AcDbEntity
67
0
8
terminal
6
ByLayer
62
256
370
-1
100
AcDbText
10
131.152675
20
312.266260
30
0.000000
40
1.000000
1
1
50
360.000000
7
Standard
72
0
11
131.152675
21
312.266260
31
0.000000
100
AcDbAttribute
2
T1
70
0
74
2
0
SEQEND
5
1E5
100
AcDbEntity
8
0
0
INSERT
5
1EC
100
AcDbEntity
67
0
8
0
6
ByLayer
62
256
370
-1
100
AcDbBlockReference
66
1
2
L
10
83.497022
20
292.470971
30
0.000000
41
1.000000
42
1.000000
43
1.000000
50
0.000000
1001
cadzinho
1000
component
1000
-
0
ATTRIB
5
1ED
100
AcDbEntity
67
0
8
terminal
6
ByLayer
62
256
370
-1
100
AcDbText
10
84.497022
20
289.970971
30
0.000000
40
1.000000
1
1
50
360.000000
7
Standard
72
0
11
84.497022
21
289.970971
31
0.000000
100
AcDbAttribute
2
T1
70
0
74
2
0
ATTRIB
5
1EE
100
AcDbEntity
67
0
8
terminal
6
ByLayer
62
256
370
-1
100
AcDbText
10
84.497022
20
274.970971
30
0.000000
40
1.000000
1
2
50
360.000000
7
Standard
72
0
11
84.497022
21
274.970971
31
0.000000
100
AcDbAttribute
2
T2
70
0
74
2
0
ATTRIB
5
1EF
100
AcDbEntity
67
0
8
label
6
ByLayer
62
256
370
-1
100
AcDbText
10
85.497022
20
285.470971
30
0.000000
40
1.500000
1
L
50
360.000000
7
Standard
72
0
11
85.497022
21
285.470971
31
0.000000
100
AcDbAttribute
2
Type
70
1
74
2
0
ATTRIB
5
1F0
100
AcDbEntity
67
0
8
label
6
ByLayer
62
256
370
-1
100
AcDbText
10
85.497022
20
282.470971
30
0.000000
40
1.500000
1
L1
50
360.000000
7
Standard
72
0
11
85.497022
21
282.470971
31
0.000000
100
AcDbAttribute
2
ID
70
0
74
2
0
ATTRIB
5
1F1
100
AcDbEntity
67
0
8
label
6
ByLayer
62
256
370
-1
100
AcDbText
10
85.497022
20
279.470971
30
0.000000
40
1.500000
1
100u
50
360.000000
7
Standard
72
0
11
85.497022
21
279.470971
31
0.000000
100
AcDbAttribute
2
Value
70
0
74
2
0
SEQEND
5
1F2
100
AcDbEntity
8
0
0
INSERT
5
1F9
100
AcDbEntity
67
0
8
0
6
ByLayer
62
256
370
-1
100
AcDbBlockReference
66
1
2
L
10
130.152675
20
292.766260
30
0.000000
41
1.000000
42
1.000000
43
1.000000
50
0.000000
1001
cadzinho
1000
component
1000
-
0
ATTRIB
5
1FA
100
AcDbEntity
67
0
8
terminal
6
ByLayer
62
256
370
-1
100
AcDbText
10
131.152675
20
290.266260
30
0.000000
40
1.000000
1
1
50
360.000000
7
Standard
72
0
11
131.152675
21
290.266260
31
0.000000
100
AcDbAttribute
2
T1
70
0
74
2
0
ATTRIB
5
1FB
100
AcDbEntity
67
0
8
terminal
6
ByLayer
62
256
370
-1
100
AcDbText
10
131.152675
20
275.266260
30
0.000000
40
1.000000
1
2
50
360.000000
7
Standard
72
0
11
131.152675
21
275.266260
31
0.000000
100
AcDbAttribute
2
T2
70
0
74
2
0
ATTRIB
5
1FC
100
AcDbEntity
67
0
8
label
6
ByLayer
62
256
370
-1
100
AcDbText
10
132.152675
20
285.766260
30
0.000000
40
1.500000
1
L
50
360.000000
7
Standard
72
0
11
132.152675
21
285.766260
31
0.000000
100
AcDbAttribute
2
Type
70
1
74
2
0
ATTRIB
5
1FD
100
AcDbEntity
67
0
8
label
6
ByLayer
62
256
370
-1
100
AcDbText
10
132.152675
20
282.766260
30
0.000000
40
1.500000
1
L2
50
360.000000
7
Standard
72
0
11
132.152675
21
282.766260
31
0.000000
100
AcDbAttribute
2
ID
70
0
74
2
0
ATTRIB
5
1FE
100
AcDbEntity
67
0
8
label
6
ByLayer
62
256
370
-1
100
AcDbText
10
132.152675
20
279.766260
30
0.000000
40
1.500000
1
1m
50
360.000000
7
Standard
72
0
11
132.152675
21
279.766260
31
0.000000
100
AcDbAttribute
2
Value
70
0
74
2
0
SEQEND
5
1FF
100
AcDbEntity
8
0
0
INSERT
5
206
100
AcDbEntity
67
0
8
0
6
ByLayer
62
256
370
-1
100
AcDbBlockReference
66
1
2
C
10
108.448937
20
296.752660
30
0.000000
41
1.000000
42
1.000000
43
1.000000
50
0.000000
1001
cadzinho
1000
component
1000
-
0
ATTRIB
5
207
100
AcDbEntity
67
0
8
label
6
ByLayer
62
256
370
-1
100
AcDbText
10
111.948937
20
289.752660
30
0.000000
40
1.500000
1
C
50
360.000000
7
Standard
72
0
11
111.948937
21
289.752660
31
0.000000
100
AcDbAttribute
2
Type
70
1
74
2
0
ATTRIB
5
208
100
AcDbEntity
67
0
8
label
6
ByLayer
62
256
370
-1
100
AcDbText
10
111.948937
20
286.752660
30
0.000000
40
1.500000
1
C1
50
360.000000
7
Standard
72
0
11
111.948937
21
286.752660
31
0.000000
100
AcDbAttribute
2
ID
70
0
74
2
0
ATTRIB
5
209
100
AcDbEntity
67
0
8
label
6
ByLayer
62
256
370
-1
100
AcDbText
10
111.948937
20
283.752660
30
0.000000
40
1.500000
1
150n
50
360.000000
7
Standard
72
0
11
111.948937
21
283.752660
31
0.000000
100
AcDbAttribute
2
Value
70
0
74
2
0
ATTRIB
5
20A
100
AcDbEntity
67
0
8
terminal
6
ByLayer
62
256
370
-1
100
AcDbText
10
109.448937
20
279.252660
30
0.000000
40
1.000000
1
2
50
360.000000
7
Standard
72
0
11
109.448937
21
279.252660
31
0.000000
100
AcDbAttribute
2
T2
70
0
74
2
0
ATTRIB
5
20B
100
AcDbEntity
67
0
8
terminal
6
ByLayer
62
256
370
-1
100
AcDbText
10
109.448937
20
294.252660
30
0.000000
40
1.000000
1
1
50
360.000000
7
Standard
72
0
11
109.448937
21
294.252660
31
0.000000
100
AcDbAttribute
2
T1
70
0
74
2
0
SEQEND
5
20C
100
AcDbEntity
8
0
0
INSERT
5
213
100
AcDbEntity
67
0
8
0
6
ByLayer
62
256
370
-1
100
AcDbBlockReference
66
1
2
C
10
130.152675
20
270.766260
30
0.000000
41
1.000000
42
1.000000
43
1.000000
50
0.000000
1001
cadzinho
1000
component
1000
-
0
ATTRIB
5
214
100
AcDbEntity
67
0
8
label
6
ByLayer
62
256
370
-1
100
AcDbText
10
133.652675
20
263.766260
30
0.000000
40
1.500000
1
C
50
360.000000
7
Standard
72
0
11
133.652675
21
263.766260
31
0.000000
100
AcDbAttribute
2
Type
70
1
74
2
0
ATTRIB
5
215
100
AcDbEntity
67
0
8
label
6
ByLayer
62
256
370
-1
100
AcDbText
10
133.652675
20
260.766260
30
0.000000
40
1.500000
1
C2
50
360.000000
7
Standard
72
0
11
133.652675
21
260.766260
31
0.000000
100
AcDbAttribute
2
ID
70
0
74
2
0
ATTRIB
5
216
100
AcDbEntity
67
0
8
label
6
ByLayer
62
256
370
-1
100
AcDbText
10
133.652675
20
257.766260
30
0.000000
40
1.500000
1
10u
50
360.000000
7
Standard
72
0
11
133.652675
21
257.766260
31
0.000000
100
AcDbAttribute
2
Value
70
0
74
2
0
ATTRIB
5
217
100
AcDbEntity
67
0
8
terminal
6
ByLayer
62
256
370
-1
100
AcDbText
10
131.152675
20
253.266260
30
0.000000
40
1.000000
1
2
50
360.000000
7
Standard
72
0
11
131.152675
21
253.266260
31
0.000000
100
AcDbAttribute
2
T2
70
0
74
2
0
ATTRIB
5
218
100
AcDbEntity
67
0
8
terminal
6
ByLayer
62
256
370
-1
100
AcDbText
10
131.152675
20
268.266260
30
0.000000
40
1.000000
1
1
50
360.000000
7
Standard
72
0
11
131.152675
21
268.266260
31
0.000000
100
AcDbAttribute
2
T1
70
0
74
2
0
SEQEND
5
219
100
AcDbEntity
8
0
0
INSERT
5
21A
100
AcDbEntity
67
0
8
0
6
ByLayer
62
256
370
-1
100
AcDbBlockReference
66
0
2
GND
10
57.598705
20
297.671009
30
0.000000
41
1.000000
42
1.000000
43
1.000000
50
0.000000
1001
cadzinho
1000
node_def
1000
gnd
0
INSERT
5
21B
100
AcDbEntity
67
0
8
0
6
ByLayer
62
256
370
-1
100
AcDbBlockReference
66
0
2
GND
10
83.497022
20
270.470971
30
0.000000
41
1.000000
42
1.000000
43
1.000000
50
0.000000
1001
cadzinho
1000
node_def
1000
gnd
0
INSERT
5
21C
100
AcDbEntity
67
0
8
0
6
ByLayer
62
256
370
-1
100
AcDbBlockReference
66
0
2
GND
10
108.448937
20
274.752660
30
0.000000
41
1.000000
42
1.000000
43
1.000000
50
0.000000
1001
cadzinho
1000
node_def
1000
gnd
0
INSERT
5
21D
100
AcDbEntity
67
0
8
0
6
ByLayer
62
256
370
-1
100
AcDbBlockReference
66
0
2
GND
10
130.152675
20
248.766260
30
0.000000
41
1.000000
42
1.000000
43
1.000000
50
0.000000
1001
cadzinho
1000
node_def
1000
gnd
0
LINE
5
21F
100
AcDbEntity
67
0
8
wire
6
ByLayer
62
256
370
-1
100
AcDbLine
10
57.598705
20
319.671009
30
0.000000
11
57.598705
21
323.199777
31
0.000000
1001
cadzinho
1000
wire
1000
-
0
LINE
5
220
100
AcDbEntity
67
0
8
wire
6
ByLayer
62
256
370
-1
100
AcDbLine
10
57.598705
20
323.199777
30
0.000000
11
130.152675
21
323.199777
31
0.000000
1001
cadzinho
1000
wire
1000
-
0
LINE
5
221
100
AcDbEntity
67
0
8
wire
6
ByLayer
62
256
370
-1
100
AcDbLine
10
130.152675
20
323.199777
30
0.000000
11
130.152675
21
314.766260
31
0.000000
1001
cadzinho
1000
wire
1000
-
0
LINE
5
222
100
AcDbEntity
67
0
8
wire
6
ByLayer
62
256
370
-1
100
AcDbLine
10
108.448937
20
318.752660
30
0.000000
11
108.448937
21
323.199777
31
0.000000
1001
cadzinho
1000
wire
1000
-
0
LINE
5
223
100
AcDbEntity
67
0
8
wire
6
ByLayer
62
256
370
-1
100
AcDbLine
10
83.497022
20
314.470971
30
0.000000
11
83.497022
21
323.199777
31
0.000000
1001
cadzinho
1000
wire
1000
-
0
LINE
5
224
100
AcDbEntity
67
0
8
wire
6
ByLayer
62
256
370
-1
100
AcDbLine
10
57.598705
20
299.671009
30
0.000000
11
57.598705
21
297.671009
31
0.000000
1001
cadzinho
1000
wire
1000
-
0
LINE
5
225
100
AcDbEntity
67
0
8
wire
6
ByLayer
62
256
370
-1
100
AcDbLine
10
83.497022
20
294.470971
30
0.000000
11
83.497022
21
292.470971
31
0.000000
1001
cadzinho
1000
wire
1000
-
0
LINE
5
226
100
AcDbEntity
67
0
8
wire
6
ByLayer
62
256
370
-1
100
AcDbLine
10
108.448937
20
298.752660
30
0.000000
11
108.448937
21
296.752660
31
0.000000
1001
cadzinho
1000
wire
1000
-
0
LINE
5
227
100
AcDbEntity
67
0
8
wire
6
ByLayer
62
256
370
-1
100
AcDbLine
10
108.448937
20
276.752660
30
0.000000
11
108.448937
21
274.752660
31
0.000000
1001
cadzinho
1000
wire
1000
-
0
LINE
5
228
100
AcDbEntity
67
0
8
wire
6
ByLayer
62
256
370
-1
100
AcDbLine
10
83.497022
20
272.470971
30
0.000000
11
83.497022
21
270.470971
31
0.000000
1001
cadzinho
1000
wire
1000
-
0
LINE
5
229
100
AcDbEntity
67
0
8
wire
6
ByLayer
62
256
370
-1
100
AcDbLine
10
130.152675
20
272.766260
30
0.000000
11
130.152675
21
270.766260
31
0.000000
1001
cadzinho
1000
wire
1000
-
0
LINE
5
22A
100
AcDbEntity
67
0
8
wire
6
ByLayer
62
256
370
-1
100
AcDbLine
10
130.152675
20
250.766260
30
0.000000
11
130.152675
21
248.766260
31
0.000000
1001
cadzinho
1000
wire
1000
-
0
LINE
5
22B
100
AcDbEntity
67
0
8
wire
6
ByLayer
62
256
370
-1
100
AcDbLine
10
130.152675
20
294.766260
30
0.000000
11
130.152675
21
292.766260
31
0.000000
1001
cadzinho
1000
wire
1000
-
0
ENDSEC
0
SECTION
2
OBJECTS
0
DICTIONARY
5
22
100
AcDbDictionary
3
ACAD_GROUP
350
23
0
DICTIONARY
5
23
100
AcDbDictionary
0
ENDSEC
0
EOF
