999
CadZinho - Minimalist CAD by Zecruel
0
SECTION
2
HEADER
9
$ACADVER
1
AC1021
9
$HANDSEED
5
8E
9
$INSUNITS
70
4
9
$LWDISPLAY
290
1
9
$LTSCALE
40
10
0
ENDSEC
0
SECTION
2
CLASSES
0
ENDSEC
0
SECTION
2
TABLES
0
TABLE
2
VPORT
5
1
100
AcDbSymbolTable
70
1000
0
VPORT
5
25
100
AcDbSymbolTableRecord
100
AcDbViewportTableRecord
2
*ACTIVE
70
0
10
0
20
0
11
1
21
1
12
20
22
320
13
0
23
0
14
100
24
100
15
100
25
100
16
0
26
0
36
1
17
0
27
0
37
0
40
25
41
1.8
42
50
43
0
44
0
50
0
51
0
0
ENDTAB
0
TABLE
2
LTYPE
5
4
100
AcDbSymbolTable
70
1000
0
LTYPE
5
5
100
AcDbSymbolTableRecord
100
AcDbLinetypeTableRecord
2
ByBlock
70
0
3

72
65
73
0
40
0
0
LTYPE
5
6
100
AcDbSymbolTableRecord
100
AcDbLinetypeTableRecord
2
ByLayer
70
0
3

72
65
73
0
40
0
0
LTYPE
5
7
100
AcDbSymbolTableRecord
100
AcDbLinetypeTableRecord
2
Continuous
70
0
3
___________________________________
72
65
73
0
40
0
0
LTYPE
5
8
100
AcDbSymbolTableRecord
100
AcDbLinetypeTableRecord
2
Border
70
0
3
____ . ____ ____ . ____ ____ . ____
72
65
73
6
40
1.75
49
0.5
74
0
49
-0.25
74
0
49
0.5
74
0
49
-0.25
74
0
49
0
74
0
49
-0.25
74
0
0
LTYPE
5
9
100
AcDbSymbolTableRecord
100
AcDbLinetypeTableRecord
2
Center
70
0
3
____ _ ____ _ ____ _ ____ _ ____ _
72
65
73
4
40
2
49
1.25
74
0
49
-0.25
74
0
49
0.25
74
0
49
-0.25
74
0
0
LTYPE
5
A
100
AcDbSymbolTableRecord
100
AcDbLinetypeTableRecord
2
Dashdot
70
0
3
____ . ____ . ____ . ____ . ____ .
72
65
73
4
40
1
49
0.5
74
0
49
-0.25
74
0
49
0
74
0
49
-0.25
74
0
0
LTYPE
5
B
100
AcDbSymbolTableRecord
100
AcDbLinetypeTableRecord
2
Dashed
70
0
3
____ ____ ____ ____ ____ ____ ____
72
65
73
2
40
0.75
49
0.5
74
0
49
-0.25
74
0
0
LTYPE
5
C
100
AcDbSymbolTableRecord
100
AcDbLinetypeTableRecord
2
Divide
70
0
3
____ . . ____ . . ____ . . ____ . .
72
65
73
6
40
1.25
49
0.5
74
0
49
-0.25
74
0
49
0
74
0
49
-0.25
74
0
49
0
74
0
49
-0.25
74
0
0
LTYPE
5
D
100
AcDbSymbolTableRecord
100
AcDbLinetypeTableRecord
2
Dot
70
0
3
. . . . . . . . . . . . . . . . . .
72
65
73
2
40
0.25
49
0
74
0
49
-0.25
74
0
0
LTYPE
5
E
100
AcDbSymbolTableRecord
100
AcDbLinetypeTableRecord
2
Hidden
70
0
3
__ __ __ __ __ __ __ __ __ __ __ __
72
65
73
2
40
0.375
49
0.25
74
0
49
-0.125
74
0
0
LTYPE
5
F
100
AcDbSymbolTableRecord
100
AcDbLinetypeTableRecord
2
Phantom
70
0
3
_____ _ _ _____ _ _ _____ _ _ _____
72
65
73
6
40
2.5
49
1.25
74
0
49
-0.25
74
0
49
0.25
74
0
49
-0.25
74
0
49
0.25
74
0
49
-0.25
74
0
0
ENDTAB
0
TABLE
2
LAYER
5
10
100
AcDbSymbolTable
70
1000
0
LAYER
5
11
100
AcDbSymbolTableRecord
100
AcDbLayerTableRecord
2
0
70
0
62
7
6
Continuous
370
0
390
2B
0
LAYER
5
2E
100
AcDbSymbolTableRecord
100
AcDbLayerTableRecord
2
portas
70
0
62
-1
6
Continuous
370
0
390
2B
0
LAYER
5
33
100
AcDbSymbolTableRecord
100
AcDbLayerTableRecord
2
parede
70
0
62
2
6
Dashed
370
0
390
2B
0
LAYER
5
46
100
AcDbSymbolTableRecord
100
AcDbLayerTableRecord
2
batente
70
0
62
-1
6
Continuous
370
0
390
2B
0
LAYER
5
48
100
AcDbSymbolTableRecord
100
AcDbLayerTableRecord
2
lateral
70
0
62
1
6
Continuous
370
0
390
2B
0
LAYER
5
4A
100
AcDbSymbolTableRecord
100
AcDbLayerTableRecord
2
soleira
70
0
62
1
6
Continuous
370
0
390
2B
0
LAYER
5
4B
100
AcDbSymbolTableRecord
100
AcDbLayerTableRecord
2
trilho
70
0
62
-8
6
Continuous
370
0
390
2B
0
LAYER
5
50
100
AcDbSymbolTableRecord
100
AcDbLayerTableRecord
2
interno
70
0
62
7
6
Continuous
370
0
390
2B
0
LAYER
5
56
100
AcDbSymbolTableRecord
100
AcDbLayerTableRecord
2
corredica
70
0
62
4
6
Continuous
370
0
390
2B
0
LAYER
5
5A
100
AcDbSymbolTableRecord
100
AcDbLayerTableRecord
2
cotas
70
0
62
2
6
Continuous
370
0
390
2B
0
LAYER
5
6D
100
AcDbSymbolTableRecord
100
AcDbLayerTableRecord
2
gavetas
70
0
62
4
6
Continuous
370
0
390
2B
0
ENDTAB
0
TABLE
2
STYLE
5
12
100
AcDbSymbolTable
70
1000
0
STYLE
5
13
100
AcDbSymbolTableRecord
100
AcDbTextStyleTableRecord
2
Standard
70
0
40
0
41
1
50
0
71
0
42
1
3
TXT.SHX
4

0
STYLE
5
24
100
AcDbSymbolTableRecord
100
AcDbTextStyleTableRecord
2

70
1
40
0
41
1
50
0
71
0
42
1
3
LTYPESHP.SHX
4

0
ENDTAB
0
TABLE
2
VIEW
5
14
100
AcDbSymbolTable
70
0
0
ENDTAB
0
TABLE
2
UCS
5
15
100
AcDbSymbolTable
70
0
0
ENDTAB
0
TABLE
2
APPID
5
16
100
AcDbSymbolTable
70
10
0
APPID
5
17
100
AcDbSymbolTableRecord
100
AcDbRegAppTableRecord
2
ACAD
70
0
0
APPID
5
18
100
AcDbSymbolTableRecord
100
AcDbRegAppTableRecord
2
CADZINHO
70
0
0
ENDTAB
0
TABLE
2
DIMSTYLE
5
19
100
AcDbSymbolTable
70
1
100
AcDbDimStyleTable
71
1
0
DIMSTYLE
105
1A
100
AcDbSymbolTableRecord
100
AcDbDimStyleTableRecord
2
Standard
70
0
340
13
0
DIMSTYLE
105
5B
100
AcDbSymbolTableRecord
100
AcDbDimStyleTableRecord
2
cotas
70
0
3
<>
5
Open30
40
20
41
0.18
42
0.0625
44
0.18
140
0.18
144
1
147
0.0625
77
1
271
1
340
13
0
ENDTAB
0
TABLE
2
BLOCK_RECORD
5
1B
100
AcDbSymbolTable
70
9999
0
BLOCK_RECORD
5
1C
100
AcDbSymbolTableRecord
100
AcDbBlockTableRecord
2
*Model_Space
70
0
0
BLOCK_RECORD
5
1D
100
AcDbSymbolTableRecord
100
AcDbBlockTableRecord
2
*Paper_Space
70
0
0
BLOCK_RECORD
5
39
100
AcDbSymbolTableRecord
100
AcDbBlockTableRecord
2
porta
70
0
0
ENDTAB
0
ENDSEC
0
SECTION
2
BLOCKS
0
BLOCK
5
1E
100
AcDbEntity
8
0
100
AcDbBlockBegin
2
*Model_Space
70
0
10
0
20
0
30
0
3
*Model_Space
1

0
ENDBLK
5
1F
100
AcDbEntity
8
0
100
AcDbBlockEnd
0
BLOCK
5
20
100
AcDbEntity
8
0
100
AcDbBlockBegin
2
*Paper_Space
70
0
10
0
20
0
30
0
3
*Paper_Space
1

0
ENDBLK
5
21
100
AcDbEntity
8
0
100
AcDbBlockEnd
0
BLOCK
5
3A
330
39
100
AcDbEntity
8
0
100
AcDbBlockBegin
2
porta
70
0
10
0
20
0
30
0
3
porta
1

4

0
LWPOLYLINE
5
3B
100
AcDbEntity
67
0
8
portas
6
ByLayer
62
256
370
-1
100
AcDbPolyline
90
4
70
1
10
3.5
20
-263
30
0
42
0
10
68.5
20
-263
30
0
42
0
10
68.5
20
0
30
0
42
0
10
3.5
20
0
30
0
0
LWPOLYLINE
5
3C
100
AcDbEntity
67
0
8
portas
6
ByLayer
62
5
370
-1
100
AcDbPolyline
90
4
70
1
10
68.5
20
0
30
0
42
0
10
72
20
0
30
0
42
0
10
72
20
-263
30
0
42
0
10
68.5
20
-263
30
0
0
LWPOLYLINE
5
3D
100
AcDbEntity
67
0
8
portas
6
ByLayer
62
5
370
-1
100
AcDbPolyline
90
4
70
1
10
0
20
0
30
0
42
0
10
3.5
20
0
30
0
42
0
10
3.5
20
-263
30
0
42
0
10
0
20
-263
30
0
0
ENDBLK
5
3E
330
3A
100
AcDbEntity
8
0
100
AcDbBlockEnd
0
ENDSEC
0
SECTION
2
ENTITIES
0
LWPOLYLINE
5
35
100
AcDbEntity
67
0
8
parede
6
ByLayer
62
256
370
-1
100
AcDbPolyline
90
4
70
1
10
544.495
20
2801.3
30
0
42
0
10
829.495
20
2801.3
30
0
42
0
10
829.495
20
2531.3
30
0
42
0
10
544.495
20
2531.3
30
0
0
INSERT
5
3F
100
AcDbEntity
67
0
8
portas
6
ByLayer
62
5
370
-1
100
AcDbBlockReference
66
0
2
porta
10
546.495
20
2797.5
30
0
41
1
42
1
43
1
50
0
0
INSERT
5
43
100
AcDbEntity
67
0
8
portas
6
ByLayer
62
5
370
-1
100
AcDbBlockReference
66
0
2
porta
10
616.495
20
2797.5
30
0
41
1
42
1
43
1
50
0
0
INSERT
5
44
100
AcDbEntity
67
0
8
portas
6
ByLayer
62
5
370
-1
100
AcDbBlockReference
66
0
2
porta
10
686.495
20
2797.5
30
0
41
1
42
1
43
1
50
0
0
INSERT
5
45
100
AcDbEntity
67
0
8
portas
6
ByLayer
62
5
370
-1
100
AcDbBlockReference
66
0
2
porta
10
756.495
20
2797.5
30
0
41
1
42
1
43
1
50
0
0
LWPOLYLINE
5
47
100
AcDbEntity
67
0
8
batente
6
ByLayer
62
256
370
-1
100
AcDbPolyline
90
4
70
1
10
544.495
20
2801.3
30
0
42
0
10
546.295
20
2801.3
30
0
42
0
10
546.295
20
2542.3
30
0
42
0
10
544.495
20
2542.3
30
0
0
LWPOLYLINE
5
49
100
AcDbEntity
67
0
8
lateral
6
ByLayer
62
256
370
-1
100
AcDbPolyline
90
4
70
1
10
830.295
20
2801.3
30
0
42
0
10
828.495
20
2801.3
30
0
42
0
10
828.495
20
2531.3
30
0
42
0
10
830.295
20
2531.3
30
0
0
LWPOLYLINE
5
4C
100
AcDbEntity
67
0
8
soleira
6
ByLayer
62
256
370
-1
100
AcDbPolyline
90
4
70
1
10
546.295
20
2801.3
30
0
42
0
10
828.495
20
2801.3
30
0
42
0
10
828.495
20
2799.5
30
0
42
0
10
546.295
20
2799.5
30
0
0
LWPOLYLINE
5
4E
100
AcDbEntity
67
0
8
soleira
6
ByLayer
62
256
370
-1
100
AcDbPolyline
90
4
70
1
10
546.295
20
2533.1
30
0
42
0
10
828.495
20
2533.1
30
0
42
0
10
828.495
20
2531.3
30
0
42
0
10
546.295
20
2531.3
30
0
0
LWPOLYLINE
5
4F
100
AcDbEntity
67
0
8
trilho
6
ByLayer
62
256
370
-1
100
AcDbPolyline
90
4
70
1
10
546.295
20
2799.5
30
0
42
0
10
824.995
20
2799.5
30
0
42
0
10
824.995
20
2797
30
0
42
0
10
546.295
20
2797
30
0
0
LWPOLYLINE
5
51
100
AcDbEntity
67
0
8
interno
6
ByLayer
62
256
370
-1
100
AcDbPolyline
90
4
70
1
10
684.995
20
2531.3
30
0
42
0
10
686.495
20
2531.3
30
0
42
0
10
686.495
20
2746.3
30
0
42
0
10
684.995
20
2746.3
30
0
0
LWPOLYLINE
5
52
100
AcDbEntity
67
0
8
interno
6
ByLayer
62
256
370
-1
100
AcDbPolyline
90
4
70
1
10
544.495
20
2746.3
30
0
42
0
10
686.495
20
2746.3
30
0
42
0
10
686.495
20
2747.8
30
0
42
0
10
544.495
20
2747.8
30
0
0
LWPOLYLINE
5
53
100
AcDbEntity
67
0
8
interno
6
ByLayer
62
256
370
-1
100
AcDbPolyline
90
4
70
1
10
686.495
20
2746.3
30
0
42
0
10
828.495
20
2746.3
30
0
42
0
10
828.495
20
2747.8
30
0
42
0
10
686.495
20
2747.8
30
0
0
LWPOLYLINE
5
54
100
AcDbEntity
67
0
8
interno
6
ByLayer
62
256
370
-1
100
AcDbPolyline
90
4
70
1
10
686.495
20
2531.3
30
0
42
0
10
687.995
20
2531.3
30
0
42
0
10
687.995
20
2746.3
30
0
42
0
10
686.495
20
2746.3
30
0
0
LWPOLYLINE
5
55
100
AcDbEntity
67
0
8
interno
6
ByLayer
62
256
370
-1
100
AcDbPolyline
90
4
70
1
10
826.995
20
2531.3
30
0
42
0
10
828.495
20
2531.3
30
0
42
0
10
828.495
20
2746.3
30
0
42
0
10
826.995
20
2746.3
30
0
0
LWPOLYLINE
5
59
100
AcDbEntity
67
0
8
interno
6
ByLayer
62
256
370
-1
100
AcDbPolyline
90
4
70
1
10
756.995
20
2531.3
30
0
42
-0
10
755.495
20
2531.3
30
0
42
-0
10
755.495
20
2746.3
30
0
42
-0
10
756.995
20
2746.3
30
0
0
LWPOLYLINE
5
66
100
AcDbEntity
67
0
8
corredica
6
ByLayer
62
256
370
-1
100
AcDbPolyline
90
4
70
1
10
684.995
20
2635.55
30
0
42
-0
10
683.695
20
2635.55
30
0
42
-0
10
683.695
20
2640.05
30
0
42
-0
10
684.995
20
2640.05
30
0
0
LWPOLYLINE
5
67
100
AcDbEntity
67
0
8
corredica
6
ByLayer
62
256
370
-1
100
AcDbPolyline
90
4
70
1
10
617.495
20
2635.55
30
0
42
0
10
618.795
20
2635.55
30
0
42
0
10
618.795
20
2640.05
30
0
42
0
10
617.495
20
2640.05
30
0
0
LWPOLYLINE
5
68
100
AcDbEntity
67
0
8
interno
6
ByLayer
62
256
370
-1
100
AcDbPolyline
90
4
70
1
10
615.995
20
2531.3
30
0
42
0
10
617.495
20
2531.3
30
0
42
0
10
617.495
20
2746.3
30
0
42
0
10
615.995
20
2746.3
30
0
0
LWPOLYLINE
5
69
100
AcDbEntity
67
0
8
interno
6
ByLayer
62
256
370
-1
100
AcDbPolyline
90
4
70
1
10
544.495
20
2652.3
30
0
42
0
10
615.995
20
2652.3
30
0
42
0
10
615.995
20
2650.8
30
0
42
0
10
544.495
20
2650.8
30
0
0
LWPOLYLINE
5
6A
100
AcDbEntity
67
0
8
interno
6
ByLayer
62
256
370
-1
100
AcDbPolyline
90
4
70
1
10
617.495
20
2652.3
30
0
42
0
10
684.995
20
2652.3
30
0
42
0
10
684.995
20
2650.8
30
0
42
0
10
617.495
20
2650.8
30
0
0
LWPOLYLINE
5
6B
100
AcDbEntity
67
0
8
interno
6
ByLayer
62
256
370
-1
100
AcDbPolyline
90
4
70
1
10
687.995
20
2652.3
30
0
42
0
10
755.495
20
2652.3
30
0
42
0
10
755.495
20
2650.8
30
0
42
0
10
687.995
20
2650.8
30
0
0
LWPOLYLINE
5
6C
100
AcDbEntity
67
0
8
interno
6
ByLayer
62
256
370
-1
100
AcDbPolyline
90
4
70
1
10
756.995
20
2652.3
30
0
42
0
10
826.995
20
2652.3
30
0
42
0
10
826.995
20
2650.8
30
0
42
0
10
756.995
20
2650.8
30
0
0
LWPOLYLINE
5
6E
100
AcDbEntity
67
0
8
gavetas
6
ByLayer
62
256
370
-1
100
AcDbPolyline
90
4
70
1
10
618.795
20
2627.8
30
0
42
0
10
683.695
20
2627.8
30
0
42
0
10
683.695
20
2647.8
30
0
42
0
10
618.795
20
2647.8
30
0
0
LWPOLYLINE
5
6F
100
AcDbEntity
67
0
8
corredica
6
ByLayer
62
256
370
-1
100
AcDbPolyline
90
4
70
1
10
684.995
20
2612.55
30
0
42
-0
10
683.695
20
2612.55
30
0
42
-0
10
683.695
20
2617.05
30
0
42
-0
10
684.995
20
2617.05
30
0
0
LWPOLYLINE
5
70
100
AcDbEntity
67
0
8
corredica
6
ByLayer
62
256
370
-1
100
AcDbPolyline
90
4
70
1
10
617.495
20
2612.55
30
0
42
0
10
618.795
20
2612.55
30
0
42
0
10
618.795
20
2617.05
30
0
42
0
10
617.495
20
2617.05
30
0
0
LWPOLYLINE
5
71
100
AcDbEntity
67
0
8
gavetas
6
ByLayer
62
256
370
-1
100
AcDbPolyline
90
4
70
1
10
618.795
20
2604.8
30
0
42
0
10
683.695
20
2604.8
30
0
42
0
10
683.695
20
2624.8
30
0
42
0
10
618.795
20
2624.8
30
0
0
LWPOLYLINE
5
72
100
AcDbEntity
67
0
8
corredica
6
ByLayer
62
256
370
-1
100
AcDbPolyline
90
4
70
1
10
684.995
20
2589.55
30
0
42
-0
10
683.695
20
2589.55
30
0
42
-0
10
683.695
20
2594.05
30
0
42
-0
10
684.995
20
2594.05
30
0
0
LWPOLYLINE
5
73
100
AcDbEntity
67
0
8
corredica
6
ByLayer
62
256
370
-1
100
AcDbPolyline
90
4
70
1
10
617.495
20
2589.55
30
0
42
0
10
618.795
20
2589.55
30
0
42
0
10
618.795
20
2594.05
30
0
42
0
10
617.495
20
2594.05
30
0
0
LWPOLYLINE
5
74
100
AcDbEntity
67
0
8
gavetas
6
ByLayer
62
256
370
-1
100
AcDbPolyline
90
4
70
1
10
618.795
20
2581.8
30
0
42
0
10
683.695
20
2581.8
30
0
42
0
10
683.695
20
2601.8
30
0
42
0
10
618.795
20
2601.8
30
0
0
LWPOLYLINE
5
75
100
AcDbEntity
67
0
8
corredica
6
ByLayer
62
256
370
-1
100
AcDbPolyline
90
4
70
1
10
684.995
20
2566.55
30
0
42
-0
10
683.695
20
2566.55
30
0
42
-0
10
683.695
20
2571.05
30
0
42
-0
10
684.995
20
2571.05
30
0
0
LWPOLYLINE
5
76
100
AcDbEntity
67
0
8
corredica
6
ByLayer
62
256
370
-1
100
AcDbPolyline
90
4
70
1
10
617.495
20
2566.55
30
0
42
0
10
618.795
20
2566.55
30
0
42
0
10
618.795
20
2571.05
30
0
42
0
10
617.495
20
2571.05
30
0
0
LWPOLYLINE
5
77
100
AcDbEntity
67
0
8
gavetas
6
ByLayer
62
256
370
-1
100
AcDbPolyline
90
4
70
1
10
618.795
20
2558.8
30
0
42
0
10
683.695
20
2558.8
30
0
42
0
10
683.695
20
2578.8
30
0
42
0
10
618.795
20
2578.8
30
0
0
LWPOLYLINE
5
78
100
AcDbEntity
67
0
8
corredica
6
ByLayer
62
256
370
-1
100
AcDbPolyline
90
4
70
1
10
684.995
20
2543.55
30
0
42
-0
10
683.695
20
2543.55
30
0
42
-0
10
683.695
20
2548.05
30
0
42
-0
10
684.995
20
2548.05
30
0
0
LWPOLYLINE
5
79
100
AcDbEntity
67
0
8
corredica
6
ByLayer
62
256
370
-1
100
AcDbPolyline
90
4
70
1
10
617.495
20
2543.55
30
0
42
0
10
618.795
20
2543.55
30
0
42
0
10
618.795
20
2548.05
30
0
42
0
10
617.495
20
2548.05
30
0
0
LWPOLYLINE
5
7A
100
AcDbEntity
67
0
8
gavetas
6
ByLayer
62
256
370
-1
100
AcDbPolyline
90
4
70
1
10
618.795
20
2535.8
30
0
42
0
10
683.695
20
2535.8
30
0
42
0
10
683.695
20
2555.8
30
0
42
0
10
618.795
20
2555.8
30
0
0
LWPOLYLINE
5
7B
100
AcDbEntity
67
0
8
interno
6
ByLayer
62
256
370
-1
100
AcDbPolyline
90
4
70
1
10
756.995
20
2683.8
30
0
42
0
10
826.995
20
2683.8
30
0
42
0
10
826.995
20
2682.3
30
0
42
0
10
756.995
20
2682.3
30
0
0
LWPOLYLINE
5
7C
100
AcDbEntity
67
0
8
interno
6
ByLayer
62
256
370
-1
100
AcDbPolyline
90
4
70
1
10
756.995
20
2715.3
30
0
42
0
10
826.995
20
2715.3
30
0
42
0
10
826.995
20
2713.8
30
0
42
0
10
756.995
20
2713.8
30
0
0
LWPOLYLINE
5
7D
100
AcDbEntity
67
0
8
interno
6
ByLayer
62
256
370
-1
100
AcDbPolyline
90
4
70
1
10
756.995
20
2620.8
30
0
42
0
10
826.995
20
2620.8
30
0
42
0
10
826.995
20
2619.3
30
0
42
0
10
756.995
20
2619.3
30
0
0
LWPOLYLINE
5
7E
100
AcDbEntity
67
0
8
interno
6
ByLayer
62
256
370
-1
100
AcDbPolyline
90
4
70
1
10
756.995
20
2589.3
30
0
42
0
10
826.995
20
2589.3
30
0
42
0
10
826.995
20
2587.8
30
0
42
0
10
756.995
20
2587.8
30
0
0
LWPOLYLINE
5
7F
100
AcDbEntity
67
0
8
corredica
6
ByLayer
62
256
370
-1
100
AcDbPolyline
90
4
70
1
10
755.495
20
2635.55
30
0
42
-0
10
754.195
20
2635.55
30
0
42
-0
10
754.195
20
2640.05
30
0
42
-0
10
755.495
20
2640.05
30
0
0
LWPOLYLINE
5
80
100
AcDbEntity
67
0
8
corredica
6
ByLayer
62
256
370
-1
100
AcDbPolyline
90
4
70
1
10
687.995
20
2635.55
30
0
42
0
10
689.295
20
2635.55
30
0
42
0
10
689.295
20
2640.05
30
0
42
0
10
687.995
20
2640.05
30
0
0
LWPOLYLINE
5
81
100
AcDbEntity
67
0
8
gavetas
6
ByLayer
62
256
370
-1
100
AcDbPolyline
90
4
70
1
10
689.295
20
2627.8
30
0
42
0
10
754.195
20
2627.8
30
0
42
0
10
754.195
20
2647.8
30
0
42
0
10
689.295
20
2647.8
30
0
0
LWPOLYLINE
5
82
100
AcDbEntity
67
0
8
corredica
6
ByLayer
62
256
370
-1
100
AcDbPolyline
90
4
70
1
10
755.495
20
2612.55
30
0
42
-0
10
754.195
20
2612.55
30
0
42
-0
10
754.195
20
2617.05
30
0
42
-0
10
755.495
20
2617.05
30
0
0
LWPOLYLINE
5
83
100
AcDbEntity
67
0
8
corredica
6
ByLayer
62
256
370
-1
100
AcDbPolyline
90
4
70
1
10
687.995
20
2612.55
30
0
42
0
10
689.295
20
2612.55
30
0
42
0
10
689.295
20
2617.05
30
0
42
0
10
687.995
20
2617.05
30
0
0
LWPOLYLINE
5
84
100
AcDbEntity
67
0
8
gavetas
6
ByLayer
62
256
370
-1
100
AcDbPolyline
90
4
70
1
10
689.295
20
2604.8
30
0
42
0
10
754.195
20
2604.8
30
0
42
0
10
754.195
20
2624.8
30
0
42
0
10
689.295
20
2624.8
30
0
0
LWPOLYLINE
5
85
100
AcDbEntity
67
0
8
corredica
6
ByLayer
62
256
370
-1
100
AcDbPolyline
90
4
70
1
10
755.495
20
2589.55
30
0
42
-0
10
754.195
20
2589.55
30
0
42
-0
10
754.195
20
2594.05
30
0
42
-0
10
755.495
20
2594.05
30
0
0
LWPOLYLINE
5
86
100
AcDbEntity
67
0
8
corredica
6
ByLayer
62
256
370
-1
100
AcDbPolyline
90
4
70
1
10
687.995
20
2589.55
30
0
42
0
10
689.295
20
2589.55
30
0
42
0
10
689.295
20
2594.05
30
0
42
0
10
687.995
20
2594.05
30
0
0
LWPOLYLINE
5
87
100
AcDbEntity
67
0
8
gavetas
6
ByLayer
62
256
370
-1
100
AcDbPolyline
90
4
70
1
10
689.295
20
2581.8
30
0
42
0
10
754.195
20
2581.8
30
0
42
0
10
754.195
20
2601.8
30
0
42
0
10
689.295
20
2601.8
30
0
0
LWPOLYLINE
5
88
100
AcDbEntity
67
0
8
corredica
6
ByLayer
62
256
370
-1
100
AcDbPolyline
90
4
70
1
10
755.495
20
2566.55
30
0
42
-0
10
754.195
20
2566.55
30
0
42
-0
10
754.195
20
2571.05
30
0
42
-0
10
755.495
20
2571.05
30
0
0
LWPOLYLINE
5
89
100
AcDbEntity
67
0
8
corredica
6
ByLayer
62
256
370
-1
100
AcDbPolyline
90
4
70
1
10
687.995
20
2566.55
30
0
42
0
10
689.295
20
2566.55
30
0
42
0
10
689.295
20
2571.05
30
0
42
0
10
687.995
20
2571.05
30
0
0
LWPOLYLINE
5
8A
100
AcDbEntity
67
0
8
gavetas
6
ByLayer
62
256
370
-1
100
AcDbPolyline
90
4
70
1
10
689.295
20
2558.8
30
0
42
0
10
754.195
20
2558.8
30
0
42
0
10
754.195
20
2578.8
30
0
42
0
10
689.295
20
2578.8
30
0
0
LWPOLYLINE
5
8B
100
AcDbEntity
67
0
8
corredica
6
ByLayer
62
256
370
-1
100
AcDbPolyline
90
4
70
1
10
755.495
20
2543.55
30
0
42
-0
10
754.195
20
2543.55
30
0
42
-0
10
754.195
20
2548.05
30
0
42
-0
10
755.495
20
2548.05
30
0
0
LWPOLYLINE
5
8C
100
AcDbEntity
67
0
8
corredica
6
ByLayer
62
256
370
-1
100
AcDbPolyline
90
4
70
1
10
687.995
20
2543.55
30
0
42
0
10
689.295
20
2543.55
30
0
42
0
10
689.295
20
2548.05
30
0
42
0
10
687.995
20
2548.05
30
0
0
LWPOLYLINE
5
8D
100
AcDbEntity
67
0
8
gavetas
6
ByLayer
62
256
370
-1
100
AcDbPolyline
90
4
70
1
10
689.295
20
2535.8
30
0
42
0
10
754.195
20
2535.8
30
0
42
0
10
754.195
20
2555.8
30
0
42
0
10
689.295
20
2555.8
30
0
0
ENDSEC
0
SECTION
2
OBJECTS
0
DICTIONARY
5
22
100
AcDbDictionary
281
1
3
ACAD_COLOR
350
23
3
ACAD_GROUP
350
26
3
ACAD_LAYOUT
350
27
3
ACAD_MATERIAL
350
28
3
ACAD_MLINESTYLE
350
29
3
ACAD_PLOTSETTINGS
350
2A
3
ACAD_PLOTSTYLENAME
350
2B
3
ACAD_TABLESTYLE
350
2C
3
AcadDim
350
2D
0
DICTIONARY
5
23
100
AcDbDictionary
0
DICTIONARY
5
26
100
AcDbDictionary
0
DICTIONARY
5
27
100
AcDbDictionary
0
DICTIONARY
5
28
100
AcDbDictionary
0
DICTIONARY
5
29
100
AcDbDictionary
0
DICTIONARY
5
2A
100
AcDbDictionary
0
DICTIONARY
5
2B
100
AcDbDictionary
0
DICTIONARY
5
2C
100
AcDbDictionary
0
DICTIONARY
5
2D
100
AcDbDictionary
0
ENDSEC
0
EOF
