999
CadZinho - Minimalist CAD by Zecruel
0
SECTION
2
HEADER
9
$ACADVER
1
AC1021
9
$HANDSEED
5
2AE
9
$INSUNITS
70
4
9
$LWDISPLAY
290
1
9
$LTSCALE
40
10
0
ENDSEC
0
SECTION
2
CLASSES
0
ENDSEC
0
SECTION
2
TABLES
0
TABLE
2
VPORT
5
1
100
AcDbSymbolTable
70
1000
0
VPORT
5
25
100
AcDbSymbolTableRecord
100
AcDbViewportTableRecord
2
*ACTIVE
70
0
10
0
20
0
11
1
21
1
12
20
22
320
13
0
23
0
14
100
24
100
15
100
25
100
16
0
26
0
36
1
17
0
27
0
37
0
40
25
41
1.8
42
50
43
0
44
0
50
0
51
0
0
ENDTAB
0
TABLE
2
LTYPE
5
4
100
AcDbSymbolTable
70
1000
0
LTYPE
5
5
100
AcDbSymbolTableRecord
100
AcDbLinetypeTableRecord
2
ByBlock
70
0
3

72
65
73
0
40
0
0
LTYPE
5
6
100
AcDbSymbolTableRecord
100
AcDbLinetypeTableRecord
2
ByLayer
70
0
3

72
65
73
0
40
0
0
LTYPE
5
7
100
AcDbSymbolTableRecord
100
AcDbLinetypeTableRecord
2
Continuous
70
0
3
___________________________________
72
65
73
0
40
0
0
LTYPE
5
8
100
AcDbSymbolTableRecord
100
AcDbLinetypeTableRecord
2
Border
70
0
3
____ . ____ ____ . ____ ____ . ____
72
65
73
6
40
1.75
49
0.5
74
0
49
-0.25
74
0
49
0.5
74
0
49
-0.25
74
0
49
0
74
0
49
-0.25
74
0
0
LTYPE
5
9
100
AcDbSymbolTableRecord
100
AcDbLinetypeTableRecord
2
Center
70
0
3
____ _ ____ _ ____ _ ____ _ ____ _
72
65
73
4
40
2
49
1.25
74
0
49
-0.25
74
0
49
0.25
74
0
49
-0.25
74
0
0
LTYPE
5
A
100
AcDbSymbolTableRecord
100
AcDbLinetypeTableRecord
2
Dashdot
70
0
3
____ . ____ . ____ . ____ . ____ .
72
65
73
4
40
1
49
0.5
74
0
49
-0.25
74
0
49
0
74
0
49
-0.25
74
0
0
LTYPE
5
B
100
AcDbSymbolTableRecord
100
AcDbLinetypeTableRecord
2
Dashed
70
0
3
____ ____ ____ ____ ____ ____ ____
72
65
73
2
40
0.75
49
0.5
74
0
49
-0.25
74
0
0
LTYPE
5
C
100
AcDbSymbolTableRecord
100
AcDbLinetypeTableRecord
2
Divide
70
0
3
____ . . ____ . . ____ . . ____ . .
72
65
73
6
40
1.25
49
0.5
74
0
49
-0.25
74
0
49
0
74
0
49
-0.25
74
0
49
0
74
0
49
-0.25
74
0
0
LTYPE
5
D
100
AcDbSymbolTableRecord
100
AcDbLinetypeTableRecord
2
Dot
70
0
3
. . . . . . . . . . . . . . . . . .
72
65
73
2
40
0.25
49
0
74
0
49
-0.25
74
0
0
LTYPE
5
E
100
AcDbSymbolTableRecord
100
AcDbLinetypeTableRecord
2
Hidden
70
0
3
__ __ __ __ __ __ __ __ __ __ __ __
72
65
73
2
40
0.375
49
0.25
74
0
49
-0.125
74
0
0
LTYPE
5
F
100
AcDbSymbolTableRecord
100
AcDbLinetypeTableRecord
2
Phantom
70
0
3
_____ _ _ _____ _ _ _____ _ _ _____
72
65
73
6
40
2.5
49
1.25
74
0
49
-0.25
74
0
49
0.25
74
0
49
-0.25
74
0
49
0.25
74
0
49
-0.25
74
0
0
ENDTAB
0
TABLE
2
LAYER
5
10
100
AcDbSymbolTable
70
1000
0
LAYER
5
11
100
AcDbSymbolTableRecord
100
AcDbLayerTableRecord
2
0
70
0
62
7
6
Continuous
370
0
390
2B
0
LAYER
5
2E
100
AcDbSymbolTableRecord
100
AcDbLayerTableRecord
2
portas
70
0
62
1
6
Continuous
370
0
390
2B
0
LAYER
5
33
100
AcDbSymbolTableRecord
100
AcDbLayerTableRecord
2
parede
70
0
62
2
6
Dashed
370
0
390
2B
0
LAYER
5
46
100
AcDbSymbolTableRecord
100
AcDbLayerTableRecord
2
batente
70
0
62
1
6
Continuous
370
0
390
2B
0
LAYER
5
48
100
AcDbSymbolTableRecord
100
AcDbLayerTableRecord
2
lateral
70
0
62
1
6
Continuous
370
0
390
2B
0
LAYER
5
4A
100
AcDbSymbolTableRecord
100
AcDbLayerTableRecord
2
soleira
70
0
62
1
6
Continuous
370
0
390
2B
0
LAYER
5
4B
100
AcDbSymbolTableRecord
100
AcDbLayerTableRecord
2
trilho
70
0
62
8
6
Continuous
370
0
390
2B
0
LAYER
5
50
100
AcDbSymbolTableRecord
100
AcDbLayerTableRecord
2
interno
70
0
62
7
6
Continuous
370
0
390
2B
0
LAYER
5
56
100
AcDbSymbolTableRecord
100
AcDbLayerTableRecord
2
corredica
70
0
62
4
6
Continuous
370
0
390
2B
0
LAYER
5
5A
100
AcDbSymbolTableRecord
100
AcDbLayerTableRecord
2
cotas
70
0
62
3
6
Continuous
370
0
390
2B
0
LAYER
5
6D
100
AcDbSymbolTableRecord
100
AcDbLayerTableRecord
2
gavetas
70
0
62
4
6
Continuous
370
0
390
2B
0
LAYER
5
23B
100
AcDbSymbolTableRecord
100
AcDbLayerTableRecord
2
formato
70
0
62
2
6
Continuous
370
0
390
2B
0
ENDTAB
0
TABLE
2
STYLE
5
12
100
AcDbSymbolTable
70
1000
0
STYLE
5
13
100
AcDbSymbolTableRecord
100
AcDbTextStyleTableRecord
2
Standard
70
0
40
0
41
1
50
0
71
0
42
1
3
TXT.SHX
4

0
STYLE
5
24
100
AcDbSymbolTableRecord
100
AcDbTextStyleTableRecord
2

70
1
40
0
41
1
50
0
71
0
42
1
3
LTYPESHP.SHX
4

0
ENDTAB
0
TABLE
2
VIEW
5
14
100
AcDbSymbolTable
70
0
0
ENDTAB
0
TABLE
2
UCS
5
15
100
AcDbSymbolTable
70
0
0
ENDTAB
0
TABLE
2
APPID
5
16
100
AcDbSymbolTable
70
10
0
APPID
5
17
100
AcDbSymbolTableRecord
100
AcDbRegAppTableRecord
2
ACAD
70
0
0
APPID
5
18
100
AcDbSymbolTableRecord
100
AcDbRegAppTableRecord
2
CADZINHO
70
0
0
ENDTAB
0
TABLE
2
DIMSTYLE
5
19
100
AcDbSymbolTable
70
1
100
AcDbDimStyleTable
71
1
0
DIMSTYLE
105
1A
100
AcDbSymbolTableRecord
100
AcDbDimStyleTableRecord
2
Standard
70
0
340
13
0
DIMSTYLE
105
5B
100
AcDbSymbolTableRecord
100
AcDbDimStyleTableRecord
2
cotas
70
0
3
<>
5
Open30
40
20
41
0.18
42
0.0625
44
0.18
140
0.18
144
1
147
0.0625
77
1
271
1
340
13
0
DIMSTYLE
105
266
100
AcDbSymbolTableRecord
100
AcDbDimStyleTableRecord
2
cotas_esc
70
0
3
<>
5
Open30
40
20
41
0.18
42
0.0625
44
0.18
140
0.18
144
0.25
147
0.0625
77
1
271
1
340
13
0
ENDTAB
0
TABLE
2
BLOCK_RECORD
5
1B
100
AcDbSymbolTable
70
9999
0
BLOCK_RECORD
5
1C
100
AcDbSymbolTableRecord
100
AcDbBlockTableRecord
2
*Model_Space
70
0
0
BLOCK_RECORD
5
1D
100
AcDbSymbolTableRecord
100
AcDbBlockTableRecord
2
*Paper_Space
70
0
0
BLOCK_RECORD
5
39
100
AcDbSymbolTableRecord
100
AcDbBlockTableRecord
2
porta
70
0
0
BLOCK_RECORD
5
8E
100
AcDbSymbolTableRecord
100
AcDbBlockTableRecord
2
*D1
70
0
0
BLOCK_RECORD
5
9A
100
AcDbSymbolTableRecord
100
AcDbBlockTableRecord
2
*D2
70
0
0
BLOCK_RECORD
5
A6
100
AcDbSymbolTableRecord
100
AcDbBlockTableRecord
2
*D3
70
0
0
BLOCK_RECORD
5
B2
100
AcDbSymbolTableRecord
100
AcDbBlockTableRecord
2
*D4
70
0
0
BLOCK_RECORD
5
BE
100
AcDbSymbolTableRecord
100
AcDbBlockTableRecord
2
*D5
70
0
0
BLOCK_RECORD
5
CA
100
AcDbSymbolTableRecord
100
AcDbBlockTableRecord
2
*D6
70
0
0
BLOCK_RECORD
5
D6
100
AcDbSymbolTableRecord
100
AcDbBlockTableRecord
2
*D7
70
0
0
BLOCK_RECORD
5
E2
100
AcDbSymbolTableRecord
100
AcDbBlockTableRecord
2
*D8
70
0
0
BLOCK_RECORD
5
EE
100
AcDbSymbolTableRecord
100
AcDbBlockTableRecord
2
*D9
70
0
0
BLOCK_RECORD
5
FA
100
AcDbSymbolTableRecord
100
AcDbBlockTableRecord
2
*D10
70
0
0
BLOCK_RECORD
5
106
100
AcDbSymbolTableRecord
100
AcDbBlockTableRecord
2
*D11
70
0
0
BLOCK_RECORD
5
112
100
AcDbSymbolTableRecord
100
AcDbBlockTableRecord
2
*D12
70
0
0
BLOCK_RECORD
5
11E
100
AcDbSymbolTableRecord
100
AcDbBlockTableRecord
2
*D13
70
0
0
BLOCK_RECORD
5
12A
100
AcDbSymbolTableRecord
100
AcDbBlockTableRecord
2
*D14
70
0
0
BLOCK_RECORD
5
142
100
AcDbSymbolTableRecord
100
AcDbBlockTableRecord
2
*D15
70
0
0
BLOCK_RECORD
5
14E
100
AcDbSymbolTableRecord
100
AcDbBlockTableRecord
2
*D16
70
0
0
BLOCK_RECORD
5
15A
100
AcDbSymbolTableRecord
100
AcDbBlockTableRecord
2
*D17
70
0
0
BLOCK_RECORD
5
166
100
AcDbSymbolTableRecord
100
AcDbBlockTableRecord
2
*D18
70
0
0
BLOCK_RECORD
5
172
100
AcDbSymbolTableRecord
100
AcDbBlockTableRecord
2
*D19
70
0
0
BLOCK_RECORD
5
17E
100
AcDbSymbolTableRecord
100
AcDbBlockTableRecord
2
*D20
70
0
0
BLOCK_RECORD
5
18A
100
AcDbSymbolTableRecord
100
AcDbBlockTableRecord
2
*D21
70
0
0
BLOCK_RECORD
5
196
100
AcDbSymbolTableRecord
100
AcDbBlockTableRecord
2
*D22
70
0
0
BLOCK_RECORD
5
1A2
100
AcDbSymbolTableRecord
100
AcDbBlockTableRecord
2
*D23
70
0
0
BLOCK_RECORD
5
1AE
100
AcDbSymbolTableRecord
100
AcDbBlockTableRecord
2
*D24
70
0
0
BLOCK_RECORD
5
1BA
100
AcDbSymbolTableRecord
100
AcDbBlockTableRecord
2
*D25
70
0
0
BLOCK_RECORD
5
1C8
100
AcDbSymbolTableRecord
100
AcDbBlockTableRecord
2
*D26
70
0
0
BLOCK_RECORD
5
1D0
100
AcDbSymbolTableRecord
100
AcDbBlockTableRecord
2
*D27
70
0
0
BLOCK_RECORD
5
1E0
100
AcDbSymbolTableRecord
100
AcDbBlockTableRecord
2
*D28
70
0
0
BLOCK_RECORD
5
1E8
100
AcDbSymbolTableRecord
100
AcDbBlockTableRecord
2
*D29
70
0
0
BLOCK_RECORD
5
215
100
AcDbSymbolTableRecord
100
AcDbBlockTableRecord
2
logo1
70
0
0
BLOCK_RECORD
5
1F0
100
AcDbSymbolTableRecord
100
AcDbBlockTableRecord
2
formato_a1
70
0
0
BLOCK_RECORD
5
267
100
AcDbSymbolTableRecord
100
AcDbBlockTableRecord
2
*D30
70
0
0
BLOCK_RECORD
5
273
100
AcDbSymbolTableRecord
100
AcDbBlockTableRecord
2
*D31
70
0
0
BLOCK_RECORD
5
27F
100
AcDbSymbolTableRecord
100
AcDbBlockTableRecord
2
*D32
70
0
0
BLOCK_RECORD
5
28B
100
AcDbSymbolTableRecord
100
AcDbBlockTableRecord
2
*D33
70
0
0
BLOCK_RECORD
5
293
100
AcDbSymbolTableRecord
100
AcDbBlockTableRecord
2
*D34
70
0
0
BLOCK_RECORD
5
29B
100
AcDbSymbolTableRecord
100
AcDbBlockTableRecord
2
*D35
70
0
0
BLOCK_RECORD
5
2A3
100
AcDbSymbolTableRecord
100
AcDbBlockTableRecord
2
*D36
70
0
0
ENDTAB
0
ENDSEC
0
SECTION
2
BLOCKS
0
BLOCK
5
1E
100
AcDbEntity
8
0
100
AcDbBlockBegin
2
*Model_Space
70
0
10
0
20
0
30
0
3
*Model_Space
1

0
ENDBLK
5
1F
100
AcDbEntity
8
0
100
AcDbBlockEnd
0
BLOCK
5
20
100
AcDbEntity
8
0
100
AcDbBlockBegin
2
*Paper_Space
70
0
10
0
20
0
30
0
3
*Paper_Space
1

0
ENDBLK
5
21
100
AcDbEntity
8
0
100
AcDbBlockEnd
0
BLOCK
5
3A
330
39
100
AcDbEntity
8
0
100
AcDbBlockBegin
2
porta
70
0
10
0
20
0
30
0
3
porta
1

4

0
LWPOLYLINE
5
3B
100
AcDbEntity
67
0
8
portas
6
ByLayer
62
256
370
-1
100
AcDbPolyline
90
4
70
1
10
3.5
20
-263
30
0
42
0
10
68.5
20
-263
30
0
42
0
10
68.5
20
0
30
0
42
0
10
3.5
20
0
30
0
0
LWPOLYLINE
5
3C
100
AcDbEntity
67
0
8
portas
6
ByLayer
62
5
370
-1
100
AcDbPolyline
90
4
70
1
10
68.5
20
0
30
0
42
0
10
72
20
0
30
0
42
0
10
72
20
-263
30
0
42
0
10
68.5
20
-263
30
0
0
LWPOLYLINE
5
3D
100
AcDbEntity
67
0
8
portas
6
ByLayer
62
5
370
-1
100
AcDbPolyline
90
4
70
1
10
0
20
0
30
0
42
0
10
3.5
20
0
30
0
42
0
10
3.5
20
-263
30
0
42
0
10
0
20
-263
30
0
0
ENDBLK
5
3E
330
3A
100
AcDbEntity
8
0
100
AcDbBlockEnd
0
BLOCK
5
8F
330
8E
100
AcDbEntity
8
0
100
AcDbBlockBegin
2
*D1
70
1
10
0
20
0
30
0
3
*D1
1

4

0
LINE
5
90
100
AcDbEntity
67
0
8
0
6
BYBLOCK
62
0
370
-2
100
AcDbLine
10
534.47
20
2650.8
30
0
11
534.47
21
2531.3
31
0
0
LINE
5
91
100
AcDbEntity
67
0
8
0
6
BYBLOCK
62
0
370
-2
100
AcDbLine
10
534.47
20
2650.8
30
0
11
533.539
21
2647.2
31
0
0
LINE
5
92
100
AcDbEntity
67
0
8
0
6
BYBLOCK
62
0
370
-2
100
AcDbLine
10
534.47
20
2650.8
30
0
11
535.402
21
2647.2
31
0
0
LINE
5
93
100
AcDbEntity
67
0
8
0
6
BYBLOCK
62
0
370
-2
100
AcDbLine
10
534.47
20
2531.3
30
0
11
533.539
21
2534.9
31
0
0
LINE
5
94
100
AcDbEntity
67
0
8
0
6
BYBLOCK
62
0
370
-2
100
AcDbLine
10
534.47
20
2531.3
30
0
11
535.402
21
2534.9
31
0
0
MTEXT
5
95
100
AcDbEntity
67
0
8
0
6
BYBLOCK
62
0
370
-2
100
AcDbMText
10
531.42
20
2591.05
30
0
40
3.6
41
0
71
5
72
1
1
119.5
7
Standard
11
6.12323e-17
21
1
31
0
0
LINE
5
96
100
AcDbEntity
67
0
8
0
6
BYBLOCK
62
0
370
-2
100
AcDbLine
10
530.87
20
2650.8
30
0
11
543.245
21
2650.8
31
0
0
LINE
5
97
100
AcDbEntity
67
0
8
0
6
BYBLOCK
62
0
370
-2
100
AcDbLine
10
530.87
20
2531.3
30
0
11
543.245
21
2531.3
31
0
0
ENDBLK
5
98
330
8F
100
AcDbEntity
8
0
100
AcDbBlockEnd
0
BLOCK
5
9B
330
9A
100
AcDbEntity
8
0
100
AcDbBlockBegin
2
*D2
70
1
10
0
20
0
30
0
3
*D2
1

4

0
LINE
5
9C
100
AcDbEntity
67
0
8
0
6
BYBLOCK
62
0
370
-2
100
AcDbLine
10
524.25
20
2746.3
30
0
11
524.25
21
2531.3
31
0
0
LINE
5
9D
100
AcDbEntity
67
0
8
0
6
BYBLOCK
62
0
370
-2
100
AcDbLine
10
524.25
20
2746.3
30
0
11
523.318
21
2742.7
31
0
0
LINE
5
9E
100
AcDbEntity
67
0
8
0
6
BYBLOCK
62
0
370
-2
100
AcDbLine
10
524.25
20
2746.3
30
0
11
525.182
21
2742.7
31
0
0
LINE
5
9F
100
AcDbEntity
67
0
8
0
6
BYBLOCK
62
0
370
-2
100
AcDbLine
10
524.25
20
2531.3
30
0
11
523.318
21
2534.9
31
0
0
LINE
5
A0
100
AcDbEntity
67
0
8
0
6
BYBLOCK
62
0
370
-2
100
AcDbLine
10
524.25
20
2531.3
30
0
11
525.182
21
2534.9
31
0
0
MTEXT
5
A1
100
AcDbEntity
67
0
8
0
6
BYBLOCK
62
0
370
-2
100
AcDbMText
10
521.2
20
2638.8
30
0
40
3.6
41
0
71
5
72
1
1
215.0
7
Standard
11
6.12323e-17
21
1
31
0
0
LINE
5
A2
100
AcDbEntity
67
0
8
0
6
BYBLOCK
62
0
370
-2
100
AcDbLine
10
520.65
20
2746.3
30
0
11
543.245
21
2746.3
31
0
0
LINE
5
A3
100
AcDbEntity
67
0
8
0
6
BYBLOCK
62
0
370
-2
100
AcDbLine
10
520.65
20
2531.3
30
0
11
543.245
21
2531.3
31
0
0
ENDBLK
5
A4
330
9B
100
AcDbEntity
8
0
100
AcDbBlockEnd
0
BLOCK
5
A7
330
A6
100
AcDbEntity
8
0
100
AcDbBlockBegin
2
*D3
70
1
10
0
20
0
30
0
3
*D3
1

4

0
LINE
5
A8
100
AcDbEntity
67
0
8
0
6
BYBLOCK
62
0
370
-2
100
AcDbLine
10
686.495
20
2756.96
30
0
11
544.495
21
2756.96
31
0
0
LINE
5
A9
100
AcDbEntity
67
0
8
0
6
BYBLOCK
62
0
370
-2
100
AcDbLine
10
686.495
20
2756.96
30
0
11
682.895
21
2757.89
31
0
0
LINE
5
AA
100
AcDbEntity
67
0
8
0
6
BYBLOCK
62
0
370
-2
100
AcDbLine
10
686.495
20
2756.96
30
0
11
682.895
21
2756.03
31
0
0
LINE
5
AB
100
AcDbEntity
67
0
8
0
6
BYBLOCK
62
0
370
-2
100
AcDbLine
10
544.495
20
2756.96
30
0
11
548.095
21
2757.89
31
0
0
LINE
5
AC
100
AcDbEntity
67
0
8
0
6
BYBLOCK
62
0
370
-2
100
AcDbLine
10
544.495
20
2756.96
30
0
11
548.095
21
2756.03
31
0
0
MTEXT
5
AD
100
AcDbEntity
67
0
8
0
6
BYBLOCK
62
0
370
-2
100
AcDbMText
10
615.495
20
2760.01
30
0
40
3.6
41
0
71
5
72
1
1
142.0
7
Standard
11
1
21
0
31
0
0
LINE
5
AE
100
AcDbEntity
67
0
8
0
6
BYBLOCK
62
0
370
-2
100
AcDbLine
10
686.495
20
2760.56
30
0
11
686.495
21
2749.05
31
0
0
LINE
5
AF
100
AcDbEntity
67
0
8
0
6
BYBLOCK
62
0
370
-2
100
AcDbLine
10
544.495
20
2760.56
30
0
11
544.495
21
2749.05
31
0
0
ENDBLK
5
B0
330
A7
100
AcDbEntity
8
0
100
AcDbBlockEnd
0
BLOCK
5
B3
330
B2
100
AcDbEntity
8
0
100
AcDbBlockBegin
2
*D4
70
1
10
0
20
0
30
0
3
*D4
1

4

0
LINE
5
B4
100
AcDbEntity
67
0
8
0
6
BYBLOCK
62
0
370
-2
100
AcDbLine
10
828.495
20
2756.97
30
0
11
686.495
21
2756.97
31
0
0
LINE
5
B5
100
AcDbEntity
67
0
8
0
6
BYBLOCK
62
0
370
-2
100
AcDbLine
10
828.495
20
2756.97
30
0
11
824.895
21
2757.9
31
0
0
LINE
5
B6
100
AcDbEntity
67
0
8
0
6
BYBLOCK
62
0
370
-2
100
AcDbLine
10
828.495
20
2756.97
30
0
11
824.895
21
2756.04
31
0
0
LINE
5
B7
100
AcDbEntity
67
0
8
0
6
BYBLOCK
62
0
370
-2
100
AcDbLine
10
686.495
20
2756.97
30
0
11
690.095
21
2757.9
31
0
0
LINE
5
B8
100
AcDbEntity
67
0
8
0
6
BYBLOCK
62
0
370
-2
100
AcDbLine
10
686.495
20
2756.97
30
0
11
690.095
21
2756.04
31
0
0
MTEXT
5
B9
100
AcDbEntity
67
0
8
0
6
BYBLOCK
62
0
370
-2
100
AcDbMText
10
757.495
20
2760.02
30
0
40
3.6
41
0
71
5
72
1
1
142.0
7
Standard
11
1
21
0
31
0
0
LINE
5
BA
100
AcDbEntity
67
0
8
0
6
BYBLOCK
62
0
370
-2
100
AcDbLine
10
828.495
20
2760.57
30
0
11
828.495
21
2749.05
31
0
0
LINE
5
BB
100
AcDbEntity
67
0
8
0
6
BYBLOCK
62
0
370
-2
100
AcDbLine
10
686.495
20
2760.57
30
0
11
686.495
21
2749.05
31
0
0
ENDBLK
5
BC
330
B3
100
AcDbEntity
8
0
100
AcDbBlockEnd
0
BLOCK
5
BF
330
BE
100
AcDbEntity
8
0
100
AcDbBlockBegin
2
*D5
70
1
10
0
20
0
30
0
3
*D5
1

4

0
LINE
5
C0
100
AcDbEntity
67
0
8
0
6
BYBLOCK
62
0
370
-2
100
AcDbLine
10
615.995
20
2656.3
30
0
11
544.495
21
2656.3
31
0
0
LINE
5
C1
100
AcDbEntity
67
0
8
0
6
BYBLOCK
62
0
370
-2
100
AcDbLine
10
615.995
20
2656.3
30
0
11
612.395
21
2657.23
31
0
0
LINE
5
C2
100
AcDbEntity
67
0
8
0
6
BYBLOCK
62
0
370
-2
100
AcDbLine
10
615.995
20
2656.3
30
0
11
612.395
21
2655.37
31
0
0
LINE
5
C3
100
AcDbEntity
67
0
8
0
6
BYBLOCK
62
0
370
-2
100
AcDbLine
10
544.495
20
2656.3
30
0
11
548.095
21
2657.23
31
0
0
LINE
5
C4
100
AcDbEntity
67
0
8
0
6
BYBLOCK
62
0
370
-2
100
AcDbLine
10
544.495
20
2656.3
30
0
11
548.095
21
2655.37
31
0
0
MTEXT
5
C5
100
AcDbEntity
67
0
8
0
6
BYBLOCK
62
0
370
-2
100
AcDbMText
10
580.245
20
2659.35
30
0
40
3.6
41
0
71
5
72
1
1
71.5
7
Standard
11
1
21
0
31
0
0
LINE
5
C6
100
AcDbEntity
67
0
8
0
6
BYBLOCK
62
0
370
-2
100
AcDbLine
10
615.995
20
2659.9
30
0
11
615.995
21
2653.55
31
0
0
LINE
5
C7
100
AcDbEntity
67
0
8
0
6
BYBLOCK
62
0
370
-2
100
AcDbLine
10
544.495
20
2659.9
30
0
11
544.495
21
2653.55
31
0
0
ENDBLK
5
C8
330
BF
100
AcDbEntity
8
0
100
AcDbBlockEnd
0
BLOCK
5
CB
330
CA
100
AcDbEntity
8
0
100
AcDbBlockBegin
2
*D6
70
1
10
0
20
0
30
0
3
*D6
1

4

0
LINE
5
CC
100
AcDbEntity
67
0
8
0
6
BYBLOCK
62
0
370
-2
100
AcDbLine
10
684.995
20
2656.3
30
0
11
617.495
21
2656.3
31
0
0
LINE
5
CD
100
AcDbEntity
67
0
8
0
6
BYBLOCK
62
0
370
-2
100
AcDbLine
10
684.995
20
2656.3
30
0
11
681.395
21
2657.23
31
0
0
LINE
5
CE
100
AcDbEntity
67
0
8
0
6
BYBLOCK
62
0
370
-2
100
AcDbLine
10
684.995
20
2656.3
30
0
11
681.395
21
2655.37
31
0
0
LINE
5
CF
100
AcDbEntity
67
0
8
0
6
BYBLOCK
62
0
370
-2
100
AcDbLine
10
617.495
20
2656.3
30
0
11
621.095
21
2657.23
31
0
0
LINE
5
D0
100
AcDbEntity
67
0
8
0
6
BYBLOCK
62
0
370
-2
100
AcDbLine
10
617.495
20
2656.3
30
0
11
621.095
21
2655.37
31
0
0
MTEXT
5
D1
100
AcDbEntity
67
0
8
0
6
BYBLOCK
62
0
370
-2
100
AcDbMText
10
651.245
20
2659.35
30
0
40
3.6
41
0
71
5
72
1
1
67.5
7
Standard
11
1
21
0
31
0
0
LINE
5
D2
100
AcDbEntity
67
0
8
0
6
BYBLOCK
62
0
370
-2
100
AcDbLine
10
684.995
20
2659.9
30
0
11
684.995
21
2653.55
31
0
0
LINE
5
D3
100
AcDbEntity
67
0
8
0
6
BYBLOCK
62
0
370
-2
100
AcDbLine
10
617.495
20
2659.9
30
0
11
617.495
21
2653.55
31
0
0
ENDBLK
5
D4
330
CB
100
AcDbEntity
8
0
100
AcDbBlockEnd
0
BLOCK
5
D7
330
D6
100
AcDbEntity
8
0
100
AcDbBlockBegin
2
*D7
70
1
10
0
20
0
30
0
3
*D7
1

4

0
LINE
5
D8
100
AcDbEntity
67
0
8
0
6
BYBLOCK
62
0
370
-2
100
AcDbLine
10
755.495
20
2656.3
30
0
11
687.995
21
2656.3
31
0
0
LINE
5
D9
100
AcDbEntity
67
0
8
0
6
BYBLOCK
62
0
370
-2
100
AcDbLine
10
755.495
20
2656.3
30
0
11
751.895
21
2657.23
31
0
0
LINE
5
DA
100
AcDbEntity
67
0
8
0
6
BYBLOCK
62
0
370
-2
100
AcDbLine
10
755.495
20
2656.3
30
0
11
751.895
21
2655.37
31
0
0
LINE
5
DB
100
AcDbEntity
67
0
8
0
6
BYBLOCK
62
0
370
-2
100
AcDbLine
10
687.995
20
2656.3
30
0
11
691.595
21
2657.23
31
0
0
LINE
5
DC
100
AcDbEntity
67
0
8
0
6
BYBLOCK
62
0
370
-2
100
AcDbLine
10
687.995
20
2656.3
30
0
11
691.595
21
2655.37
31
0
0
MTEXT
5
DD
100
AcDbEntity
67
0
8
0
6
BYBLOCK
62
0
370
-2
100
AcDbMText
10
721.745
20
2659.35
30
0
40
3.6
41
0
71
5
72
1
1
67.5
7
Standard
11
1
21
0
31
0
0
LINE
5
DE
100
AcDbEntity
67
0
8
0
6
BYBLOCK
62
0
370
-2
100
AcDbLine
10
755.495
20
2659.9
30
0
11
755.495
21
2653.55
31
0
0
LINE
5
DF
100
AcDbEntity
67
0
8
0
6
BYBLOCK
62
0
370
-2
100
AcDbLine
10
687.995
20
2659.9
30
0
11
687.995
21
2653.55
31
0
0
ENDBLK
5
E0
330
D7
100
AcDbEntity
8
0
100
AcDbBlockEnd
0
BLOCK
5
E3
330
E2
100
AcDbEntity
8
0
100
AcDbBlockBegin
2
*D8
70
1
10
0
20
0
30
0
3
*D8
1

4

0
LINE
5
E4
100
AcDbEntity
67
0
8
0
6
BYBLOCK
62
0
370
-2
100
AcDbLine
10
826.995
20
2656.3
30
0
11
756.995
21
2656.3
31
0
0
LINE
5
E5
100
AcDbEntity
67
0
8
0
6
BYBLOCK
62
0
370
-2
100
AcDbLine
10
826.995
20
2656.3
30
0
11
823.395
21
2657.23
31
0
0
LINE
5
E6
100
AcDbEntity
67
0
8
0
6
BYBLOCK
62
0
370
-2
100
AcDbLine
10
826.995
20
2656.3
30
0
11
823.395
21
2655.37
31
0
0
LINE
5
E7
100
AcDbEntity
67
0
8
0
6
BYBLOCK
62
0
370
-2
100
AcDbLine
10
756.995
20
2656.3
30
0
11
760.595
21
2657.23
31
0
0
LINE
5
E8
100
AcDbEntity
67
0
8
0
6
BYBLOCK
62
0
370
-2
100
AcDbLine
10
756.995
20
2656.3
30
0
11
760.595
21
2655.37
31
0
0
MTEXT
5
E9
100
AcDbEntity
67
0
8
0
6
BYBLOCK
62
0
370
-2
100
AcDbMText
10
791.995
20
2659.35
30
0
40
3.6
41
0
71
5
72
1
1
70.0
7
Standard
11
1
21
0
31
0
0
LINE
5
EA
100
AcDbEntity
67
0
8
0
6
BYBLOCK
62
0
370
-2
100
AcDbLine
10
826.995
20
2659.9
30
0
11
826.995
21
2653.55
31
0
0
LINE
5
EB
100
AcDbEntity
67
0
8
0
6
BYBLOCK
62
0
370
-2
100
AcDbLine
10
756.995
20
2659.9
30
0
11
756.995
21
2653.55
31
0
0
ENDBLK
5
EC
330
E3
100
AcDbEntity
8
0
100
AcDbBlockEnd
0
BLOCK
5
EF
330
EE
100
AcDbEntity
8
0
100
AcDbBlockBegin
2
*D9
70
1
10
0
20
0
30
0
3
*D9
1

4

0
LINE
5
F0
100
AcDbEntity
67
0
8
0
6
BYBLOCK
62
0
370
-2
100
AcDbLine
10
822.995
20
2713.8
30
0
11
822.995
21
2683.8
31
0
0
LINE
5
F1
100
AcDbEntity
67
0
8
0
6
BYBLOCK
62
0
370
-2
100
AcDbLine
10
822.995
20
2713.8
30
0
11
822.063
21
2710.2
31
0
0
LINE
5
F2
100
AcDbEntity
67
0
8
0
6
BYBLOCK
62
0
370
-2
100
AcDbLine
10
822.995
20
2713.8
30
0
11
823.926
21
2710.2
31
0
0
LINE
5
F3
100
AcDbEntity
67
0
8
0
6
BYBLOCK
62
0
370
-2
100
AcDbLine
10
822.995
20
2683.8
30
0
11
822.063
21
2687.4
31
0
0
LINE
5
F4
100
AcDbEntity
67
0
8
0
6
BYBLOCK
62
0
370
-2
100
AcDbLine
10
822.995
20
2683.8
30
0
11
823.926
21
2687.4
31
0
0
MTEXT
5
F5
100
AcDbEntity
67
0
8
0
6
BYBLOCK
62
0
370
-2
100
AcDbMText
10
819.945
20
2698.8
30
0
40
3.6
41
0
71
5
72
1
1
30.0
7
Standard
11
6.12323e-17
21
1
31
0
0
LINE
5
F6
100
AcDbEntity
67
0
8
0
6
BYBLOCK
62
0
370
-2
100
AcDbLine
10
819.395
20
2713.8
30
0
11
825.745
21
2713.8
31
0
0
LINE
5
F7
100
AcDbEntity
67
0
8
0
6
BYBLOCK
62
0
370
-2
100
AcDbLine
10
819.395
20
2683.8
30
0
11
825.745
21
2683.8
31
0
0
ENDBLK
5
F8
330
EF
100
AcDbEntity
8
0
100
AcDbBlockEnd
0
BLOCK
5
FB
330
FA
100
AcDbEntity
8
0
100
AcDbBlockBegin
2
*D10
70
1
10
0
20
0
30
0
3
*D10
1

4

0
LINE
5
FC
100
AcDbEntity
67
0
8
0
6
BYBLOCK
62
0
370
-2
100
AcDbLine
10
822.995
20
2746.3
30
0
11
822.995
21
2715.3
31
0
0
LINE
5
FD
100
AcDbEntity
67
0
8
0
6
BYBLOCK
62
0
370
-2
100
AcDbLine
10
822.995
20
2746.3
30
0
11
822.063
21
2742.7
31
0
0
LINE
5
FE
100
AcDbEntity
67
0
8
0
6
BYBLOCK
62
0
370
-2
100
AcDbLine
10
822.995
20
2746.3
30
0
11
823.926
21
2742.7
31
0
0
LINE
5
FF
100
AcDbEntity
67
0
8
0
6
BYBLOCK
62
0
370
-2
100
AcDbLine
10
822.995
20
2715.3
30
0
11
822.063
21
2718.9
31
0
0
LINE
5
100
100
AcDbEntity
67
0
8
0
6
BYBLOCK
62
0
370
-2
100
AcDbLine
10
822.995
20
2715.3
30
0
11
823.926
21
2718.9
31
0
0
MTEXT
5
101
100
AcDbEntity
67
0
8
0
6
BYBLOCK
62
0
370
-2
100
AcDbMText
10
819.945
20
2730.8
30
0
40
3.6
41
0
71
5
72
1
1
31.0
7
Standard
11
6.12323e-17
21
1
31
0
0
LINE
5
102
100
AcDbEntity
67
0
8
0
6
BYBLOCK
62
0
370
-2
100
AcDbLine
10
819.395
20
2746.3
30
0
11
825.745
21
2746.3
31
0
0
LINE
5
103
100
AcDbEntity
67
0
8
0
6
BYBLOCK
62
0
370
-2
100
AcDbLine
10
819.395
20
2715.3
30
0
11
825.745
21
2715.3
31
0
0
ENDBLK
5
104
330
FB
100
AcDbEntity
8
0
100
AcDbBlockEnd
0
BLOCK
5
107
330
106
100
AcDbEntity
8
0
100
AcDbBlockBegin
2
*D11
70
1
10
0
20
0
30
0
3
*D11
1

4

0
LINE
5
108
100
AcDbEntity
67
0
8
0
6
BYBLOCK
62
0
370
-2
100
AcDbLine
10
822.995
20
2682.3
30
0
11
822.995
21
2652.3
31
0
0
LINE
5
109
100
AcDbEntity
67
0
8
0
6
BYBLOCK
62
0
370
-2
100
AcDbLine
10
822.995
20
2682.3
30
0
11
822.063
21
2678.7
31
0
0
LINE
5
10A
100
AcDbEntity
67
0
8
0
6
BYBLOCK
62
0
370
-2
100
AcDbLine
10
822.995
20
2682.3
30
0
11
823.926
21
2678.7
31
0
0
LINE
5
10B
100
AcDbEntity
67
0
8
0
6
BYBLOCK
62
0
370
-2
100
AcDbLine
10
822.995
20
2652.3
30
0
11
822.063
21
2655.9
31
0
0
LINE
5
10C
100
AcDbEntity
67
0
8
0
6
BYBLOCK
62
0
370
-2
100
AcDbLine
10
822.995
20
2652.3
30
0
11
823.926
21
2655.9
31
0
0
MTEXT
5
10D
100
AcDbEntity
67
0
8
0
6
BYBLOCK
62
0
370
-2
100
AcDbMText
10
819.945
20
2667.3
30
0
40
3.6
41
0
71
5
72
1
1
30.0
7
Standard
11
6.12323e-17
21
1
31
0
0
LINE
5
10E
100
AcDbEntity
67
0
8
0
6
BYBLOCK
62
0
370
-2
100
AcDbLine
10
819.395
20
2682.3
30
0
11
825.745
21
2682.3
31
0
0
LINE
5
10F
100
AcDbEntity
67
0
8
0
6
BYBLOCK
62
0
370
-2
100
AcDbLine
10
819.395
20
2652.3
30
0
11
825.745
21
2652.3
31
0
0
ENDBLK
5
110
330
107
100
AcDbEntity
8
0
100
AcDbBlockEnd
0
BLOCK
5
113
330
112
100
AcDbEntity
8
0
100
AcDbBlockBegin
2
*D12
70
1
10
0
20
0
30
0
3
*D12
1

4

0
LINE
5
114
100
AcDbEntity
67
0
8
0
6
BYBLOCK
62
0
370
-2
100
AcDbLine
10
822.995
20
2650.8
30
0
11
822.995
21
2620.8
31
0
0
LINE
5
115
100
AcDbEntity
67
0
8
0
6
BYBLOCK
62
0
370
-2
100
AcDbLine
10
822.995
20
2650.8
30
0
11
822.063
21
2647.2
31
0
0
LINE
5
116
100
AcDbEntity
67
0
8
0
6
BYBLOCK
62
0
370
-2
100
AcDbLine
10
822.995
20
2650.8
30
0
11
823.926
21
2647.2
31
0
0
LINE
5
117
100
AcDbEntity
67
0
8
0
6
BYBLOCK
62
0
370
-2
100
AcDbLine
10
822.995
20
2620.8
30
0
11
822.063
21
2624.4
31
0
0
LINE
5
118
100
AcDbEntity
67
0
8
0
6
BYBLOCK
62
0
370
-2
100
AcDbLine
10
822.995
20
2620.8
30
0
11
823.926
21
2624.4
31
0
0
MTEXT
5
119
100
AcDbEntity
67
0
8
0
6
BYBLOCK
62
0
370
-2
100
AcDbMText
10
819.945
20
2635.8
30
0
40
3.6
41
0
71
5
72
1
1
30.0
7
Standard
11
6.12323e-17
21
1
31
0
0
LINE
5
11A
100
AcDbEntity
67
0
8
0
6
BYBLOCK
62
0
370
-2
100
AcDbLine
10
819.395
20
2650.8
30
0
11
825.745
21
2650.8
31
0
0
LINE
5
11B
100
AcDbEntity
67
0
8
0
6
BYBLOCK
62
0
370
-2
100
AcDbLine
10
819.395
20
2620.8
30
0
11
825.745
21
2620.8
31
0
0
ENDBLK
5
11C
330
113
100
AcDbEntity
8
0
100
AcDbBlockEnd
0
BLOCK
5
11F
330
11E
100
AcDbEntity
8
0
100
AcDbBlockBegin
2
*D13
70
1
10
0
20
0
30
0
3
*D13
1

4

0
LINE
5
120
100
AcDbEntity
67
0
8
0
6
BYBLOCK
62
0
370
-2
100
AcDbLine
10
822.995
20
2619.3
30
0
11
822.995
21
2589.3
31
0
0
LINE
5
121
100
AcDbEntity
67
0
8
0
6
BYBLOCK
62
0
370
-2
100
AcDbLine
10
822.995
20
2619.3
30
0
11
822.063
21
2615.7
31
0
0
LINE
5
122
100
AcDbEntity
67
0
8
0
6
BYBLOCK
62
0
370
-2
100
AcDbLine
10
822.995
20
2619.3
30
0
11
823.926
21
2615.7
31
0
0
LINE
5
123
100
AcDbEntity
67
0
8
0
6
BYBLOCK
62
0
370
-2
100
AcDbLine
10
822.995
20
2589.3
30
0
11
822.063
21
2592.9
31
0
0
LINE
5
124
100
AcDbEntity
67
0
8
0
6
BYBLOCK
62
0
370
-2
100
AcDbLine
10
822.995
20
2589.3
30
0
11
823.926
21
2592.9
31
0
0
MTEXT
5
125
100
AcDbEntity
67
0
8
0
6
BYBLOCK
62
0
370
-2
100
AcDbMText
10
819.945
20
2604.3
30
0
40
3.6
41
0
71
5
72
1
1
30.0
7
Standard
11
6.12323e-17
21
1
31
0
0
LINE
5
126
100
AcDbEntity
67
0
8
0
6
BYBLOCK
62
0
370
-2
100
AcDbLine
10
819.395
20
2619.3
30
0
11
825.745
21
2619.3
31
0
0
LINE
5
127
100
AcDbEntity
67
0
8
0
6
BYBLOCK
62
0
370
-2
100
AcDbLine
10
819.395
20
2589.3
30
0
11
825.745
21
2589.3
31
0
0
ENDBLK
5
128
330
11F
100
AcDbEntity
8
0
100
AcDbBlockEnd
0
BLOCK
5
12B
330
12A
100
AcDbEntity
8
0
100
AcDbBlockBegin
2
*D14
70
1
10
0
20
0
30
0
3
*D14
1

4

0
LINE
5
12C
100
AcDbEntity
67
0
8
0
6
BYBLOCK
62
0
370
-2
100
AcDbLine
10
822.995
20
2587.8
30
0
11
822.995
21
2531.3
31
0
0
LINE
5
12D
100
AcDbEntity
67
0
8
0
6
BYBLOCK
62
0
370
-2
100
AcDbLine
10
822.995
20
2587.8
30
0
11
822.063
21
2584.2
31
0
0
LINE
5
12E
100
AcDbEntity
67
0
8
0
6
BYBLOCK
62
0
370
-2
100
AcDbLine
10
822.995
20
2587.8
30
0
11
823.926
21
2584.2
31
0
0
LINE
5
12F
100
AcDbEntity
67
0
8
0
6
BYBLOCK
62
0
370
-2
100
AcDbLine
10
822.995
20
2531.3
30
0
11
822.063
21
2534.9
31
0
0
LINE
5
130
100
AcDbEntity
67
0
8
0
6
BYBLOCK
62
0
370
-2
100
AcDbLine
10
822.995
20
2531.3
30
0
11
823.926
21
2534.9
31
0
0
MTEXT
5
131
100
AcDbEntity
67
0
8
0
6
BYBLOCK
62
0
370
-2
100
AcDbMText
10
819.945
20
2559.55
30
0
40
3.6
41
0
71
5
72
1
1
56.5
7
Standard
11
6.12323e-17
21
1
31
0
0
LINE
5
132
100
AcDbEntity
67
0
8
0
6
BYBLOCK
62
0
370
-2
100
AcDbLine
10
819.395
20
2587.8
30
0
11
825.745
21
2587.8
31
0
0
LINE
5
133
100
AcDbEntity
67
0
8
0
6
BYBLOCK
62
0
370
-2
100
AcDbLine
10
819.395
20
2531.3
30
0
11
825.745
21
2531.3
31
0
0
ENDBLK
5
134
330
12B
100
AcDbEntity
8
0
100
AcDbBlockEnd
0
BLOCK
5
143
330
142
100
AcDbEntity
8
0
100
AcDbBlockBegin
2
*D15
70
1
10
0
20
0
30
0
3
*D15
1

4

0
LINE
5
144
100
AcDbEntity
67
0
8
0
6
BYBLOCK
62
0
370
-2
100
AcDbLine
10
612.495
20
2545.8
30
0
11
612.495
21
2531.3
31
0
0
LINE
5
145
100
AcDbEntity
67
0
8
0
6
BYBLOCK
62
0
370
-2
100
AcDbLine
10
612.495
20
2545.8
30
0
11
611.563
21
2542.2
31
0
0
LINE
5
146
100
AcDbEntity
67
0
8
0
6
BYBLOCK
62
0
370
-2
100
AcDbLine
10
612.495
20
2545.8
30
0
11
613.426
21
2542.2
31
0
0
LINE
5
147
100
AcDbEntity
67
0
8
0
6
BYBLOCK
62
0
370
-2
100
AcDbLine
10
612.495
20
2531.3
30
0
11
611.563
21
2534.9
31
0
0
LINE
5
148
100
AcDbEntity
67
0
8
0
6
BYBLOCK
62
0
370
-2
100
AcDbLine
10
612.495
20
2531.3
30
0
11
613.426
21
2534.9
31
0
0
MTEXT
5
149
100
AcDbEntity
67
0
8
0
6
BYBLOCK
62
0
370
-2
100
AcDbMText
10
609.445
20
2538.55
30
0
40
3.6
41
0
71
5
72
1
1
14.5
7
Standard
11
6.12323e-17
21
1
31
0
0
LINE
5
14A
100
AcDbEntity
67
0
8
0
6
BYBLOCK
62
0
370
-2
100
AcDbLine
10
608.895
20
2545.8
30
0
11
616.245
21
2545.8
31
0
0
LINE
5
14B
100
AcDbEntity
67
0
8
0
6
BYBLOCK
62
0
370
-2
100
AcDbLine
10
608.895
20
2531.3
30
0
11
616.245
21
2531.3
31
0
0
ENDBLK
5
14C
330
143
100
AcDbEntity
8
0
100
AcDbBlockEnd
0
BLOCK
5
14F
330
14E
100
AcDbEntity
8
0
100
AcDbBlockBegin
2
*D16
70
1
10
0
20
0
30
0
3
*D16
1

4

0
LINE
5
150
100
AcDbEntity
67
0
8
0
6
BYBLOCK
62
0
370
-2
100
AcDbLine
10
612.495
20
2568.8
30
0
11
612.495
21
2545.8
31
0
0
LINE
5
151
100
AcDbEntity
67
0
8
0
6
BYBLOCK
62
0
370
-2
100
AcDbLine
10
612.495
20
2568.8
30
0
11
611.563
21
2565.2
31
0
0
LINE
5
152
100
AcDbEntity
67
0
8
0
6
BYBLOCK
62
0
370
-2
100
AcDbLine
10
612.495
20
2568.8
30
0
11
613.426
21
2565.2
31
0
0
LINE
5
153
100
AcDbEntity
67
0
8
0
6
BYBLOCK
62
0
370
-2
100
AcDbLine
10
612.495
20
2545.8
30
0
11
611.563
21
2549.4
31
0
0
LINE
5
154
100
AcDbEntity
67
0
8
0
6
BYBLOCK
62
0
370
-2
100
AcDbLine
10
612.495
20
2545.8
30
0
11
613.426
21
2549.4
31
0
0
MTEXT
5
155
100
AcDbEntity
67
0
8
0
6
BYBLOCK
62
0
370
-2
100
AcDbMText
10
609.445
20
2557.3
30
0
40
3.6
41
0
71
5
72
1
1
23.0
7
Standard
11
6.12323e-17
21
1
31
0
0
LINE
5
156
100
AcDbEntity
67
0
8
0
6
BYBLOCK
62
0
370
-2
100
AcDbLine
10
608.895
20
2568.8
30
0
11
616.245
21
2568.8
31
0
0
LINE
5
157
100
AcDbEntity
67
0
8
0
6
BYBLOCK
62
0
370
-2
100
AcDbLine
10
608.895
20
2545.8
30
0
11
616.245
21
2545.8
31
0
0
ENDBLK
5
158
330
14F
100
AcDbEntity
8
0
100
AcDbBlockEnd
0
BLOCK
5
15B
330
15A
100
AcDbEntity
8
0
100
AcDbBlockBegin
2
*D17
70
1
10
0
20
0
30
0
3
*D17
1

4

0
LINE
5
15C
100
AcDbEntity
67
0
8
0
6
BYBLOCK
62
0
370
-2
100
AcDbLine
10
612.495
20
2591.8
30
0
11
612.495
21
2568.8
31
0
0
LINE
5
15D
100
AcDbEntity
67
0
8
0
6
BYBLOCK
62
0
370
-2
100
AcDbLine
10
612.495
20
2591.8
30
0
11
611.563
21
2588.2
31
0
0
LINE
5
15E
100
AcDbEntity
67
0
8
0
6
BYBLOCK
62
0
370
-2
100
AcDbLine
10
612.495
20
2591.8
30
0
11
613.426
21
2588.2
31
0
0
LINE
5
15F
100
AcDbEntity
67
0
8
0
6
BYBLOCK
62
0
370
-2
100
AcDbLine
10
612.495
20
2568.8
30
0
11
611.563
21
2572.4
31
0
0
LINE
5
160
100
AcDbEntity
67
0
8
0
6
BYBLOCK
62
0
370
-2
100
AcDbLine
10
612.495
20
2568.8
30
0
11
613.426
21
2572.4
31
0
0
MTEXT
5
161
100
AcDbEntity
67
0
8
0
6
BYBLOCK
62
0
370
-2
100
AcDbMText
10
609.445
20
2580.3
30
0
40
3.6
41
0
71
5
72
1
1
23.0
7
Standard
11
6.12323e-17
21
1
31
0
0
LINE
5
162
100
AcDbEntity
67
0
8
0
6
BYBLOCK
62
0
370
-2
100
AcDbLine
10
608.895
20
2591.8
30
0
11
616.245
21
2591.8
31
0
0
LINE
5
163
100
AcDbEntity
67
0
8
0
6
BYBLOCK
62
0
370
-2
100
AcDbLine
10
608.895
20
2568.8
30
0
11
616.245
21
2568.8
31
0
0
ENDBLK
5
164
330
15B
100
AcDbEntity
8
0
100
AcDbBlockEnd
0
BLOCK
5
167
330
166
100
AcDbEntity
8
0
100
AcDbBlockBegin
2
*D18
70
1
10
0
20
0
30
0
3
*D18
1

4

0
LINE
5
168
100
AcDbEntity
67
0
8
0
6
BYBLOCK
62
0
370
-2
100
AcDbLine
10
612.495
20
2614.8
30
0
11
612.495
21
2591.8
31
0
0
LINE
5
169
100
AcDbEntity
67
0
8
0
6
BYBLOCK
62
0
370
-2
100
AcDbLine
10
612.495
20
2614.8
30
0
11
611.563
21
2611.2
31
0
0
LINE
5
16A
100
AcDbEntity
67
0
8
0
6
BYBLOCK
62
0
370
-2
100
AcDbLine
10
612.495
20
2614.8
30
0
11
613.426
21
2611.2
31
0
0
LINE
5
16B
100
AcDbEntity
67
0
8
0
6
BYBLOCK
62
0
370
-2
100
AcDbLine
10
612.495
20
2591.8
30
0
11
611.563
21
2595.4
31
0
0
LINE
5
16C
100
AcDbEntity
67
0
8
0
6
BYBLOCK
62
0
370
-2
100
AcDbLine
10
612.495
20
2591.8
30
0
11
613.426
21
2595.4
31
0
0
MTEXT
5
16D
100
AcDbEntity
67
0
8
0
6
BYBLOCK
62
0
370
-2
100
AcDbMText
10
609.445
20
2603.3
30
0
40
3.6
41
0
71
5
72
1
1
23.0
7
Standard
11
6.12323e-17
21
1
31
0
0
LINE
5
16E
100
AcDbEntity
67
0
8
0
6
BYBLOCK
62
0
370
-2
100
AcDbLine
10
608.895
20
2614.8
30
0
11
616.245
21
2614.8
31
0
0
LINE
5
16F
100
AcDbEntity
67
0
8
0
6
BYBLOCK
62
0
370
-2
100
AcDbLine
10
608.895
20
2591.8
30
0
11
616.245
21
2591.8
31
0
0
ENDBLK
5
170
330
167
100
AcDbEntity
8
0
100
AcDbBlockEnd
0
BLOCK
5
173
330
172
100
AcDbEntity
8
0
100
AcDbBlockBegin
2
*D19
70
1
10
0
20
0
30
0
3
*D19
1

4

0
LINE
5
174
100
AcDbEntity
67
0
8
0
6
BYBLOCK
62
0
370
-2
100
AcDbLine
10
612.495
20
2637.8
30
0
11
612.495
21
2614.8
31
0
0
LINE
5
175
100
AcDbEntity
67
0
8
0
6
BYBLOCK
62
0
370
-2
100
AcDbLine
10
612.495
20
2637.8
30
0
11
611.563
21
2634.2
31
0
0
LINE
5
176
100
AcDbEntity
67
0
8
0
6
BYBLOCK
62
0
370
-2
100
AcDbLine
10
612.495
20
2637.8
30
0
11
613.426
21
2634.2
31
0
0
LINE
5
177
100
AcDbEntity
67
0
8
0
6
BYBLOCK
62
0
370
-2
100
AcDbLine
10
612.495
20
2614.8
30
0
11
611.563
21
2618.4
31
0
0
LINE
5
178
100
AcDbEntity
67
0
8
0
6
BYBLOCK
62
0
370
-2
100
AcDbLine
10
612.495
20
2614.8
30
0
11
613.426
21
2618.4
31
0
0
MTEXT
5
179
100
AcDbEntity
67
0
8
0
6
BYBLOCK
62
0
370
-2
100
AcDbMText
10
609.445
20
2626.3
30
0
40
3.6
41
0
71
5
72
1
1
23.0
7
Standard
11
6.12323e-17
21
1
31
0
0
LINE
5
17A
100
AcDbEntity
67
0
8
0
6
BYBLOCK
62
0
370
-2
100
AcDbLine
10
608.895
20
2637.8
30
0
11
616.245
21
2637.8
31
0
0
LINE
5
17B
100
AcDbEntity
67
0
8
0
6
BYBLOCK
62
0
370
-2
100
AcDbLine
10
608.895
20
2614.8
30
0
11
616.245
21
2614.8
31
0
0
ENDBLK
5
17C
330
173
100
AcDbEntity
8
0
100
AcDbBlockEnd
0
BLOCK
5
17F
330
17E
100
AcDbEntity
8
0
100
AcDbBlockBegin
2
*D20
70
1
10
0
20
0
30
0
3
*D20
1

4

0
LINE
5
180
100
AcDbEntity
67
0
8
0
6
BYBLOCK
62
0
370
-2
100
AcDbLine
10
604.913
20
2746.3
30
0
11
604.913
21
2652.3
31
0
0
LINE
5
181
100
AcDbEntity
67
0
8
0
6
BYBLOCK
62
0
370
-2
100
AcDbLine
10
604.913
20
2746.3
30
0
11
603.981
21
2742.7
31
0
0
LINE
5
182
100
AcDbEntity
67
0
8
0
6
BYBLOCK
62
0
370
-2
100
AcDbLine
10
604.913
20
2746.3
30
0
11
605.844
21
2742.7
31
0
0
LINE
5
183
100
AcDbEntity
67
0
8
0
6
BYBLOCK
62
0
370
-2
100
AcDbLine
10
604.913
20
2652.3
30
0
11
603.981
21
2655.9
31
0
0
LINE
5
184
100
AcDbEntity
67
0
8
0
6
BYBLOCK
62
0
370
-2
100
AcDbLine
10
604.913
20
2652.3
30
0
11
605.844
21
2655.9
31
0
0
MTEXT
5
185
100
AcDbEntity
67
0
8
0
6
BYBLOCK
62
0
370
-2
100
AcDbMText
10
601.863
20
2699.3
30
0
40
3.6
41
0
71
5
72
1
1
94.0
7
Standard
11
6.12323e-17
21
1
31
0
0
LINE
5
186
100
AcDbEntity
67
0
8
0
6
BYBLOCK
62
0
370
-2
100
AcDbLine
10
601.313
20
2746.3
30
0
11
614.745
21
2746.3
31
0
0
LINE
5
187
100
AcDbEntity
67
0
8
0
6
BYBLOCK
62
0
370
-2
100
AcDbLine
10
601.313
20
2652.3
30
0
11
614.745
21
2652.3
31
0
0
ENDBLK
5
188
330
17F
100
AcDbEntity
8
0
100
AcDbBlockEnd
0
BLOCK
5
18B
330
18A
100
AcDbEntity
8
0
100
AcDbBlockBegin
2
*D21
70
1
10
0
20
0
30
0
3
*D21
1

4

0
LINE
5
18C
100
AcDbEntity
67
0
8
0
6
BYBLOCK
62
0
370
-2
100
AcDbLine
10
1240.62
20
2801.3
30
0
11
1240.62
21
2531.3
31
0
0
LINE
5
18D
100
AcDbEntity
67
0
8
0
6
BYBLOCK
62
0
370
-2
100
AcDbLine
10
1240.62
20
2801.3
30
0
11
1239.69
21
2797.7
31
0
0
LINE
5
18E
100
AcDbEntity
67
0
8
0
6
BYBLOCK
62
0
370
-2
100
AcDbLine
10
1240.62
20
2801.3
30
0
11
1241.55
21
2797.7
31
0
0
LINE
5
18F
100
AcDbEntity
67
0
8
0
6
BYBLOCK
62
0
370
-2
100
AcDbLine
10
1240.62
20
2531.3
30
0
11
1239.69
21
2534.9
31
0
0
LINE
5
190
100
AcDbEntity
67
0
8
0
6
BYBLOCK
62
0
370
-2
100
AcDbLine
10
1240.62
20
2531.3
30
0
11
1241.55
21
2534.9
31
0
0
MTEXT
5
191
100
AcDbEntity
67
0
8
0
6
BYBLOCK
62
0
370
-2
100
AcDbMText
10
1243.67
20
2666.3
30
0
40
3.6
41
0
71
5
72
1
1
270.0
7
Standard
11
6.12323e-17
21
1
31
0
0
LINE
5
192
100
AcDbEntity
67
0
8
0
6
BYBLOCK
62
0
370
-2
100
AcDbLine
10
1244.22
20
2801.3
30
0
11
1231.54
21
2801.3
31
0
0
LINE
5
193
100
AcDbEntity
67
0
8
0
6
BYBLOCK
62
0
370
-2
100
AcDbLine
10
1244.22
20
2531.3
30
0
11
1231.54
21
2531.3
31
0
0
ENDBLK
5
194
330
18B
100
AcDbEntity
8
0
100
AcDbBlockEnd
0
BLOCK
5
197
330
196
100
AcDbEntity
8
0
100
AcDbBlockBegin
2
*D22
70
1
10
0
20
0
30
0
3
*D22
1

4

0
LINE
5
198
100
AcDbEntity
67
0
8
0
6
BYBLOCK
62
0
370
-2
100
AcDbLine
10
1228.49
20
2808.92
30
0
11
946.295
21
2808.92
31
0
0
LINE
5
199
100
AcDbEntity
67
0
8
0
6
BYBLOCK
62
0
370
-2
100
AcDbLine
10
1228.49
20
2808.92
30
0
11
1224.89
21
2809.85
31
0
0
LINE
5
19A
100
AcDbEntity
67
0
8
0
6
BYBLOCK
62
0
370
-2
100
AcDbLine
10
1228.49
20
2808.92
30
0
11
1224.89
21
2807.98
31
0
0
LINE
5
19B
100
AcDbEntity
67
0
8
0
6
BYBLOCK
62
0
370
-2
100
AcDbLine
10
946.295
20
2808.92
30
0
11
949.895
21
2809.85
31
0
0
LINE
5
19C
100
AcDbEntity
67
0
8
0
6
BYBLOCK
62
0
370
-2
100
AcDbLine
10
946.295
20
2808.92
30
0
11
949.895
21
2807.98
31
0
0
MTEXT
5
19D
100
AcDbEntity
67
0
8
0
6
BYBLOCK
62
0
370
-2
100
AcDbMText
10
1087.39
20
2811.97
30
0
40
3.6
41
0
71
5
72
1
1
282.2
7
Standard
11
1
21
0
31
0
0
LINE
5
19E
100
AcDbEntity
67
0
8
0
6
BYBLOCK
62
0
370
-2
100
AcDbLine
10
1228.49
20
2812.52
30
0
11
1228.49
21
2802.55
31
0
0
LINE
5
19F
100
AcDbEntity
67
0
8
0
6
BYBLOCK
62
0
370
-2
100
AcDbLine
10
946.295
20
2812.52
30
0
11
946.295
21
2802.55
31
0
0
ENDBLK
5
1A0
330
197
100
AcDbEntity
8
0
100
AcDbBlockEnd
0
BLOCK
5
1A3
330
1A2
100
AcDbEntity
8
0
100
AcDbBlockBegin
2
*D23
70
1
10
0
20
0
30
0
3
*D23
1

4

0
LINE
5
1A4
100
AcDbEntity
67
0
8
0
6
BYBLOCK
62
0
370
-2
100
AcDbLine
10
964.345
20
2797.5
30
0
11
964.345
21
2534.5
31
0
0
LINE
5
1A5
100
AcDbEntity
67
0
8
0
6
BYBLOCK
62
0
370
-2
100
AcDbLine
10
964.345
20
2797.5
30
0
11
963.413
21
2793.9
31
0
0
LINE
5
1A6
100
AcDbEntity
67
0
8
0
6
BYBLOCK
62
0
370
-2
100
AcDbLine
10
964.345
20
2797.5
30
0
11
965.276
21
2793.9
31
0
0
LINE
5
1A7
100
AcDbEntity
67
0
8
0
6
BYBLOCK
62
0
370
-2
100
AcDbLine
10
964.345
20
2534.5
30
0
11
963.413
21
2538.1
31
0
0
LINE
5
1A8
100
AcDbEntity
67
0
8
0
6
BYBLOCK
62
0
370
-2
100
AcDbLine
10
964.345
20
2534.5
30
0
11
965.276
21
2538.1
31
0
0
MTEXT
5
1A9
100
AcDbEntity
67
0
8
0
6
BYBLOCK
62
0
370
-2
100
AcDbMText
10
967.395
20
2666
30
0
40
3.6
41
0
71
5
72
1
1
263.0
7
Standard
11
6.12323e-17
21
1
31
0
0
LINE
5
1AA
100
AcDbEntity
67
0
8
0
6
BYBLOCK
62
0
370
-2
100
AcDbLine
10
967.945
20
2797.5
30
0
11
951.245
21
2797.5
31
0
0
LINE
5
1AB
100
AcDbEntity
67
0
8
0
6
BYBLOCK
62
0
370
-2
100
AcDbLine
10
967.945
20
2534.5
30
0
11
951.245
21
2534.5
31
0
0
ENDBLK
5
1AC
330
1A3
100
AcDbEntity
8
0
100
AcDbBlockEnd
0
BLOCK
5
1AF
330
1AE
100
AcDbEntity
8
0
100
AcDbBlockBegin
2
*D24
70
1
10
0
20
0
30
0
3
*D24
1

4

0
LINE
5
1B0
100
AcDbEntity
67
0
8
0
6
BYBLOCK
62
0
370
-2
100
AcDbLine
10
1014.99
20
2785.42
30
0
11
949.995
21
2785.42
31
0
0
LINE
5
1B1
100
AcDbEntity
67
0
8
0
6
BYBLOCK
62
0
370
-2
100
AcDbLine
10
1014.99
20
2785.42
30
0
11
1011.39
21
2786.35
31
0
0
LINE
5
1B2
100
AcDbEntity
67
0
8
0
6
BYBLOCK
62
0
370
-2
100
AcDbLine
10
1014.99
20
2785.42
30
0
11
1011.39
21
2784.49
31
0
0
LINE
5
1B3
100
AcDbEntity
67
0
8
0
6
BYBLOCK
62
0
370
-2
100
AcDbLine
10
949.995
20
2785.42
30
0
11
953.595
21
2786.35
31
0
0
LINE
5
1B4
100
AcDbEntity
67
0
8
0
6
BYBLOCK
62
0
370
-2
100
AcDbLine
10
949.995
20
2785.42
30
0
11
953.595
21
2784.49
31
0
0
MTEXT
5
1B5
100
AcDbEntity
67
0
8
0
6
BYBLOCK
62
0
370
-2
100
AcDbMText
10
982.495
20
2782.37
30
0
40
3.6
41
0
71
5
72
1
1
65.0
7
Standard
11
1
21
0
31
0
0
LINE
5
1B6
100
AcDbEntity
67
0
8
0
6
BYBLOCK
62
0
370
-2
100
AcDbLine
10
1014.99
20
2781.82
30
0
11
1014.99
21
2796.25
31
0
0
LINE
5
1B7
100
AcDbEntity
67
0
8
0
6
BYBLOCK
62
0
370
-2
100
AcDbLine
10
949.995
20
2781.82
30
0
11
949.995
21
2796.25
31
0
0
ENDBLK
5
1B8
330
1AF
100
AcDbEntity
8
0
100
AcDbBlockEnd
0
BLOCK
5
1BB
330
1BA
100
AcDbEntity
8
0
100
AcDbBlockBegin
2
*D25
70
1
10
0
20
0
30
0
3
*D25
1

4

0
LINE
5
1BC
100
AcDbEntity
67
0
8
0
6
BYBLOCK
62
0
370
-2
100
AcDbLine
10
937.469
20
2801.3
30
0
11
937.469
21
2542.3
31
0
0
LINE
5
1BD
100
AcDbEntity
67
0
8
0
6
BYBLOCK
62
0
370
-2
100
AcDbLine
10
937.469
20
2801.3
30
0
11
936.538
21
2797.7
31
0
0
LINE
5
1BE
100
AcDbEntity
67
0
8
0
6
BYBLOCK
62
0
370
-2
100
AcDbLine
10
937.469
20
2801.3
30
0
11
938.401
21
2797.7
31
0
0
LINE
5
1BF
100
AcDbEntity
67
0
8
0
6
BYBLOCK
62
0
370
-2
100
AcDbLine
10
937.469
20
2542.3
30
0
11
936.538
21
2545.9
31
0
0
LINE
5
1C0
100
AcDbEntity
67
0
8
0
6
BYBLOCK
62
0
370
-2
100
AcDbLine
10
937.469
20
2542.3
30
0
11
938.401
21
2545.9
31
0
0
MTEXT
5
1C1
100
AcDbEntity
67
0
8
0
6
BYBLOCK
62
0
370
-2
100
AcDbMText
10
934.419
20
2671.8
30
0
40
3.6
41
0
71
5
72
1
1
259.0
7
Standard
11
6.12323e-17
21
1
31
0
0
LINE
5
1C2
100
AcDbEntity
67
0
8
0
6
BYBLOCK
62
0
370
-2
100
AcDbLine
10
933.869
20
2801.3
30
0
11
943.245
21
2801.3
31
0
0
LINE
5
1C3
100
AcDbEntity
67
0
8
0
6
BYBLOCK
62
0
370
-2
100
AcDbLine
10
933.869
20
2542.3
30
0
11
943.245
21
2542.3
31
0
0
ENDBLK
5
1C4
330
1BB
100
AcDbEntity
8
0
100
AcDbBlockEnd
0
BLOCK
5
1C9
330
1C8
100
AcDbEntity
8
0
100
AcDbBlockBegin
2
*D26
70
1
10
0
20
0
30
0
3
*D26
1

4

0
LINE
5
1CA
100
AcDbEntity
67
0
8
0
6
BYBLOCK
62
0
370
-2
100
AcDbLine
10
926.086
20
2568.87
30
0
11
944.495
21
2555.92
31
0
0
LINE
5
1CB
100
AcDbEntity
67
0
8
0
6
BYBLOCK
62
0
370
-2
100
AcDbLine
10
944.495
20
2555.92
30
0
11
941.015
21
2557.23
31
0
0
LINE
5
1CC
100
AcDbEntity
67
0
8
0
6
BYBLOCK
62
0
370
-2
100
AcDbLine
10
944.495
20
2555.92
30
0
11
942.087
21
2558.75
31
0
0
MTEXT
5
1CD
100
AcDbEntity
67
0
8
0
6
BYBLOCK
62
0
370
-2
100
AcDbMText
10
925.064
20
2569.59
30
0
40
3.6
41
0
71
6
72
1
1
P=8cm
7
Standard
11
1
21
0
31
0
0
ENDBLK
5
1CE
330
1C9
100
AcDbEntity
8
0
100
AcDbBlockEnd
0
BLOCK
5
1D1
330
1D0
100
AcDbEntity
8
0
100
AcDbBlockBegin
2
*D27
70
1
10
0
20
0
30
0
3
*D27
1

4

0
LINE
5
1D2
100
AcDbEntity
67
0
8
0
6
BYBLOCK
62
0
370
-2
100
AcDbLine
10
1042.2
20
2546.35
30
0
11
1030.92
21
2533.1
31
0
0
LINE
5
1D3
100
AcDbEntity
67
0
8
0
6
BYBLOCK
62
0
370
-2
100
AcDbLine
10
1030.92
20
2533.1
30
0
11
1032.54
21
2536.44
31
0
0
LINE
5
1D4
100
AcDbEntity
67
0
8
0
6
BYBLOCK
62
0
370
-2
100
AcDbLine
10
1030.92
20
2533.1
30
0
11
1033.96
21
2535.24
31
0
0
MTEXT
5
1D5
100
AcDbEntity
67
0
8
0
6
BYBLOCK
62
0
370
-2
100
AcDbMText
10
1043.01
20
2547.3
30
0
40
3.6
41
0
71
4
72
1
1
P=8cm
7
Standard
11
1
21
0
31
0
0
ENDBLK
5
1D6
330
1D1
100
AcDbEntity
8
0
100
AcDbBlockEnd
0
BLOCK
5
1E1
330
1E0
100
AcDbEntity
8
0
100
AcDbBlockBegin
2
*D28
70
1
10
0
20
0
30
0
3
*D28
1

4

0
LINE
5
1E2
100
AcDbEntity
67
0
8
0
6
BYBLOCK
62
0
370
-2
100
AcDbLine
10
1213.84
20
2752.15
30
0
11
1230.29
21
2739.29
31
0
0
LINE
5
1E3
100
AcDbEntity
67
0
8
0
6
BYBLOCK
62
0
370
-2
100
AcDbLine
10
1230.29
20
2739.29
30
0
11
1226.88
21
2740.77
31
0
0
LINE
5
1E4
100
AcDbEntity
67
0
8
0
6
BYBLOCK
62
0
370
-2
100
AcDbLine
10
1230.29
20
2739.29
30
0
11
1228.03
21
2742.24
31
0
0
MTEXT
5
1E5
100
AcDbEntity
67
0
8
0
6
BYBLOCK
62
0
370
-2
100
AcDbMText
10
1212.86
20
2752.92
30
0
40
3.6
41
0
71
6
72
1
1
P=64cm
7
Standard
11
1
21
0
31
0
0
ENDBLK
5
1E6
330
1E1
100
AcDbEntity
8
0
100
AcDbBlockEnd
0
BLOCK
5
1E9
330
1E8
100
AcDbEntity
8
0
100
AcDbBlockBegin
2
*D29
70
1
10
0
20
0
30
0
3
*D29
1

4

0
LINE
5
1EA
100
AcDbEntity
67
0
8
0
6
BYBLOCK
62
0
370
-2
100
AcDbLine
10
1192.54
20
2785.96
30
0
11
1178.3
21
2801.3
31
0
0
LINE
5
1EB
100
AcDbEntity
67
0
8
0
6
BYBLOCK
62
0
370
-2
100
AcDbLine
10
1178.3
20
2801.3
30
0
11
1181.43
21
2799.29
31
0
0
LINE
5
1EC
100
AcDbEntity
67
0
8
0
6
BYBLOCK
62
0
370
-2
100
AcDbLine
10
1178.3
20
2801.3
30
0
11
1180.06
21
2798.03
31
0
0
MTEXT
5
1ED
100
AcDbEntity
67
0
8
0
6
BYBLOCK
62
0
370
-2
100
AcDbMText
10
1193.39
20
2785.04
30
0
40
3.6
41
0
71
4
72
1
1
P=8cm
7
Standard
11
1
21
0
31
0
0
ENDBLK
5
1EE
330
1E9
100
AcDbEntity
8
0
100
AcDbBlockEnd
0
BLOCK
5
216
330
215
100
AcDbEntity
8
0
100
AcDbBlockBegin
2
logo1
70
0
10
0
20
0
30
0
3
logo1
1

4

0
TEXT
5
217
100
AcDbEntity
67
0
8
cz_logo
6
ByLayer
62
256
370
25
100
AcDbText
10
16.0714
20
5
30
0
40
5
1
CadZinho
50
0
7
Standard
72
1
11
16.0714
21
5
31
0
100
AcDbText
73
3
0
LWPOLYLINE
5
218
100
AcDbEntity
67
0
8
cz_logo
6
ByLayer
62
254
370
-1
100
AcDbPolyline
90
10
70
1
10
17.0714
20
24.1036
30
0
42
0
10
27.0714
20
24.1036
30
0
42
0
10
27.0714
20
20.1036
30
0
42
0
10
19.8214
20
11.75
30
0
42
0
10
27.0714
20
11.75
30
0
42
0
10
27.0714
20
9
30
0
42
0
10
17.0714
20
9
30
0
42
0
10
17.0714
20
13
30
0
42
0
10
24.3214
20
21.3536
30
0
42
0
10
17.0714
20
21.3536
30
0
0
LWPOLYLINE
5
219
100
AcDbEntity
67
0
8
cz_logo
6
ByLayer
62
254
370
-1
100
AcDbPolyline
90
8
70
1
10
15.9714
20
29.0518
30
0
42
0.4
10
9.27143
20
31.0518
30
0
42
0.6
10
9.27143
20
17.0518
30
0
42
0.4
10
15.9714
20
19.0518
30
0
42
0
10
14.3714
20
21.0518
30
0
42
-0.4
10
10.3514
20
19.8518
30
0
42
-0.6
10
10.3514
20
28.2518
30
0
42
-0.4
10
14.3714
20
27.0518
30
0
0
LWPOLYLINE
5
21A
100
AcDbEntity
67
0
8
cz_logo
6
ByLayer
62
108
370
-1
100
AcDbPolyline
90
8
70
1
10
3.07143
20
11
30
0
42
0.414214
10
7.07143
20
7
30
0
42
0
10
25.0714
20
7
30
0
42
0.414214
10
29.0714
20
11
30
0
42
0
10
29.0714
20
29.6036
30
0
42
0.414214
10
25.0714
20
33.6036
30
0
42
0
10
7.07143
20
33.6036
30
0
42
0.414214
10
3.07143
20
29.6036
30
0
0
HATCH
5
21B
100
AcDbEntity
67
0
8
cz_logo
6
ByLayer
62
108
370
-1
100
AcDbHatch
10
0
20
0
30
0
210
0
220
0
230
1
2
SOLID
70
1
71
0
91
3
92
2
72
1
73
1
93
8
10
3.07143
20
11
42
0.414214
10
7.07143
20
7
42
0
10
25.0714
20
7
42
0.414214
10
29.0714
20
11
42
0
10
29.0714
20
29.6036
42
0.414214
10
25.0714
20
33.6036
42
0
10
7.07143
20
33.6036
42
0.414214
10
3.07143
20
29.6036
42
0
97
0
92
2
72
1
73
1
93
8
10
15.9714
20
29.0518
42
0.4
10
9.27143
20
31.0518
42
0.6
10
9.27143
20
17.0518
42
0.4
10
15.9714
20
19.0518
42
0
10
14.3714
20
21.0518
42
-0.4
10
10.3514
20
19.8518
42
-0.6
10
10.3514
20
28.2518
42
-0.4
10
14.3714
20
27.0518
42
0
97
0
92
2
72
1
73
1
93
10
10
17.0714
20
24.1036
42
0
10
27.0714
20
24.1036
42
0
10
27.0714
20
20.1036
42
0
10
19.8214
20
11.75
42
0
10
27.0714
20
11.75
42
0
10
27.0714
20
9
42
0
10
17.0714
20
9
42
0
10
17.0714
20
13
42
0
10
24.3214
20
21.3536
42
0
10
17.0714
20
21.3536
42
0
97
0
75
0
76
0
98
0
0
HATCH
5
21C
100
AcDbEntity
67
0
8
cz_logo
6
ByLayer
62
254
370
-1
100
AcDbHatch
10
0
20
0
30
0
210
0
220
0
230
1
2
SOLID
70
1
71
0
91
1
92
2
72
1
73
1
93
8
10
15.9714
20
29.0518
42
0.4
10
9.27143
20
31.0518
42
0.6
10
9.27143
20
17.0518
42
0.4
10
15.9714
20
19.0518
42
0
10
14.3714
20
21.0518
42
-0.4
10
10.3514
20
19.8518
42
-0.6
10
10.3514
20
28.2518
42
-0.4
10
14.3714
20
27.0518
42
0
97
0
75
0
76
0
98
0
0
HATCH
5
21D
100
AcDbEntity
67
0
8
cz_logo
6
ByLayer
62
254
370
-1
100
AcDbHatch
10
0
20
0
30
0
210
0
220
0
230
1
2
SOLID
70
1
71
0
91
1
92
2
72
1
73
1
93
10
10
17.0714
20
24.1036
42
0
10
27.0714
20
24.1036
42
0
10
27.0714
20
20.1036
42
0
10
19.8214
20
11.75
42
0
10
27.0714
20
11.75
42
0
10
27.0714
20
9
42
0
10
17.0714
20
9
42
0
10
17.0714
20
13
42
0
10
24.3214
20
21.3536
42
0
10
17.0714
20
21.3536
42
0
97
0
75
0
76
0
98
0
0
ENDBLK
5
21E
330
216
100
AcDbEntity
8
0
100
AcDbBlockEnd
0
BLOCK
5
1F1
330
1F0
100
AcDbEntity
8
0
100
AcDbBlockBegin
2
formato_a1
70
0
10
0
20
0
30
0
3
formato_a1
1

4

0
LWPOLYLINE
5
1F2
100
AcDbEntity
67
0
8
0
6
ByLayer
62
0
370
-1
100
AcDbPolyline
90
4
70
1
10
1.4286
20
0
30
0
42
0
10
842.429
20
0
30
0
42
0
10
842.429
20
594
30
0
42
0
10
1.4286
20
594
30
0
0
LWPOLYLINE
5
1F3
100
AcDbEntity
67
0
8
0
6
ByLayer
62
0
370
-1
100
AcDbPolyline
90
8
70
1
10
31.4286
20
25
30
0
42
0.414214
10
41.4286
20
15
30
0
42
0
10
146.429
20
15
30
0
42
0.414214
10
156.429
20
25
30
0
42
0
10
156.429
20
50
30
0
42
0.414214
10
146.429
20
60
30
0
42
0
10
41.4286
20
60
30
0
42
0.414214
10
31.4286
20
50
30
0
0
LWPOLYLINE
5
1F4
100
AcDbEntity
67
0
8
0
6
ByLayer
62
0
370
-1
100
AcDbPolyline
90
8
70
1
10
767.429
20
25
30
0
42
0.414214
10
777.429
20
15
30
0
42
0
10
817.429
20
15
30
0
42
0.414214
10
827.429
20
25
30
0
42
0
10
827.429
20
50
30
0
42
0.414214
10
817.429
20
60
30
0
42
0
10
777.429
20
60
30
0
42
0.414214
10
767.429
20
50
30
0
0
LWPOLYLINE
5
1F5
100
AcDbEntity
67
0
8
0
6
ByLayer
62
0
370
-1
100
AcDbPolyline
90
8
70
1
10
662.429
20
25
30
0
42
0.414214
10
672.429
20
15
30
0
42
0
10
752.429
20
15
30
0
42
0.414214
10
762.429
20
25
30
0
42
0
10
762.429
20
50
30
0
42
0.414214
10
752.429
20
60
30
0
42
0
10
672.429
20
60
30
0
42
0.414214
10
662.429
20
50
30
0
0
LWPOLYLINE
5
1F6
100
AcDbEntity
67
0
8
0
6
ByLayer
62
0
370
-1
100
AcDbPolyline
90
8
70
1
10
31.4286
20
75
30
0
42
0.414214
10
41.4286
20
65
30
0
42
0
10
817.429
20
65
30
0
42
0.414214
10
827.429
20
75
30
0
42
0
10
827.429
20
569
30
0
42
0.414214
10
817.429
20
579
30
0
42
0
10
41.4286
20
579
30
0
42
0.414214
10
31.4286
20
569
30
0
0
LWPOLYLINE
5
1F7
100
AcDbEntity
67
0
8
0
6
ByLayer
62
0
370
-1
100
AcDbPolyline
90
8
70
1
10
26.4286
20
25
30
0
42
0.414214
10
41.4286
20
10
30
0
42
0
10
817.429
20
10
30
0
42
0.414214
10
832.429
20
25
30
0
42
0
10
832.429
20
569
30
0
42
0.414214
10
817.429
20
584
30
0
42
0
10
41.4286
20
584
30
0
42
0.414214
10
26.4286
20
569
30
0
0
LINE
5
1F8
100
AcDbEntity
67
0
8
0
6
ByLayer
62
0
370
-1
100
AcDbLine
10
657.429
20
0
30
0
11
657.429
21
10
31
0
0
LINE
5
1F9
100
AcDbEntity
67
0
8
0
6
ByLayer
62
0
370
-1
100
AcDbLine
10
472.429
20
0
30
0
11
472.429
21
10
31
0
0
LINE
5
1FA
100
AcDbEntity
67
0
8
0
6
ByLayer
62
0
370
-1
100
AcDbLine
10
342.429
20
0
30
0
11
342.429
21
10
31
0
0
LINE
5
1FB
100
AcDbEntity
67
0
8
0
6
ByLayer
62
0
370
-1
100
AcDbLine
10
202.429
20
0
30
0
11
202.429
21
10
31
0
0
LWPOLYLINE
5
1FC
100
AcDbEntity
67
0
8
0
6
ByLayer
62
0
370
-1
100
AcDbPolyline
90
8
70
1
10
557.429
20
25
30
0
42
0.414214
10
567.429
20
15
30
0
42
0
10
647.429
20
15
30
0
42
0.414214
10
657.429
20
25
30
0
42
0
10
657.429
20
50
30
0
42
0.414214
10
647.429
20
60
30
0
42
0
10
567.429
20
60
30
0
42
0.414214
10
557.429
20
50
30
0
0
LWPOLYLINE
5
1FD
100
AcDbEntity
67
0
8
0
6
ByLayer
62
0
370
-1
100
AcDbPolyline
90
8
70
1
10
452.429
20
25
30
0
42
0.414214
10
462.429
20
15
30
0
42
0
10
542.429
20
15
30
0
42
0.414214
10
552.429
20
25
30
0
42
0
10
552.429
20
50
30
0
42
0.414214
10
542.429
20
60
30
0
42
0
10
462.429
20
60
30
0
42
0.414214
10
452.429
20
50
30
0
0
LWPOLYLINE
5
1FE
100
AcDbEntity
67
0
8
0
6
ByLayer
62
0
370
-1
100
AcDbPolyline
90
8
70
1
10
161.429
20
25
30
0
42
0.414214
10
171.429
20
15
30
0
42
0
10
437.429
20
15
30
0
42
0.414214
10
447.429
20
25
30
0
42
0
10
447.429
20
50
30
0
42
0.414214
10
437.429
20
60
30
0
42
0
10
171.429
20
60
30
0
42
0.414214
10
161.429
20
50
30
0
0
LINE
5
1FF
100
AcDbEntity
67
0
8
0
6
ByLayer
62
0
370
-1
100
AcDbLine
10
827.429
20
30
30
0
11
767.429
21
30
31
0
0
LINE
5
200
100
AcDbEntity
67
0
8
0
6
ByLayer
62
0
370
-1
100
AcDbLine
10
762.429
20
45
30
0
11
662.429
21
45
31
0
0
LINE
5
201
100
AcDbEntity
67
0
8
0
6
ByLayer
62
0
370
-1
100
AcDbLine
10
557.507
20
26.25
30
0
11
657.351
21
26.25
31
0
0
LINE
5
202
100
AcDbEntity
67
0
8
0
6
ByLayer
62
0
370
-1
100
AcDbLine
10
607.429
20
60
30
0
11
607.429
21
15
31
0
0
LINE
5
203
100
AcDbEntity
67
0
8
0
6
ByLayer
62
0
370
-1
100
AcDbLine
10
552.351
20
26.25
30
0
11
452.429
21
26.25
31
0
0
LINE
5
204
100
AcDbEntity
67
0
8
0
6
ByLayer
62
0
370
-1
100
AcDbLine
10
502.429
20
15
30
0
11
502.429
21
60
31
0
0
LINE
5
205
100
AcDbEntity
67
0
8
0
6
ByLayer
62
0
370
-1
100
AcDbLine
10
502.429
20
37.5
30
0
11
552.429
21
37.5
31
0
0
LINE
5
206
100
AcDbEntity
67
0
8
0
6
ByLayer
62
0
370
-1
100
AcDbLine
10
502.429
20
48.75
30
0
11
552.351
21
48.75
31
0
0
LINE
5
207
100
AcDbEntity
67
0
8
0
6
ByLayer
62
0
370
-1
100
AcDbLine
10
31.507
20
26.25
30
0
11
156.351
21
26.25
31
0
0
LINE
5
208
100
AcDbEntity
67
0
8
0
6
ByLayer
62
0
370
-1
100
AcDbLine
10
31.4286
20
37.5
30
0
11
156.429
21
37.5
31
0
0
LINE
5
209
100
AcDbEntity
67
0
8
0
6
ByLayer
62
0
370
-1
100
AcDbLine
10
31.507
20
48.75
30
0
11
156.429
21
48.75
31
0
0
LINE
5
20A
100
AcDbEntity
67
0
8
0
6
ByLayer
62
0
370
-1
100
AcDbLine
10
607.429
20
37.5
30
0
11
657.429
21
37.5
31
0
0
LINE
5
20B
100
AcDbEntity
67
0
8
0
6
ByLayer
62
0
370
-1
100
AcDbLine
10
607.429
20
48.75
30
0
11
657.351
21
48.75
31
0
0
LINE
5
20C
100
AcDbEntity
67
0
8
0
6
ByLayer
62
0
370
-1
100
AcDbLine
10
41.4286
20
15
30
0
11
41.4286
21
60
31
0
0
LINE
5
20D
100
AcDbEntity
67
0
8
0
6
ByLayer
62
0
370
-1
100
AcDbLine
10
101.429
20
15
30
0
11
101.429
21
60
31
0
0
LINE
5
20E
100
AcDbEntity
67
0
8
0
6
ByLayer
62
0
370
-1
100
AcDbLine
10
126.429
20
15
30
0
11
126.429
21
60
31
0
0
LINE
5
20F
100
AcDbEntity
67
0
8
0
6
ByLayer
62
0
370
-1
100
AcDbLine
10
657.429
20
594
30
0
11
657.429
21
584
31
0
0
LINE
5
210
100
AcDbEntity
67
0
8
0
6
ByLayer
62
0
370
-1
100
AcDbLine
10
472.429
20
594
30
0
11
472.429
21
584
31
0
0
LINE
5
211
100
AcDbEntity
67
0
8
0
6
ByLayer
62
0
370
-1
100
AcDbLine
10
342.429
20
594
30
0
11
342.429
21
584
31
0
0
LINE
5
212
100
AcDbEntity
67
0
8
0
6
ByLayer
62
0
370
-1
100
AcDbLine
10
202.429
20
594
30
0
11
202.429
21
584
31
0
0
LINE
5
213
100
AcDbEntity
67
0
8
0
6
ByLayer
62
0
370
-1
100
AcDbLine
10
1.4286
20
297
30
0
11
26.4286
21
297
31
0
0
LINE
5
214
100
AcDbEntity
67
0
8
0
6
ByLayer
62
0
370
-1
100
AcDbLine
10
842.429
20
297
30
0
11
832.429
21
297
31
0
0
INSERT
5
21F
100
AcDbEntity
67
0
8
cz_logo
6
ByLayer
62
0
370
-1
100
AcDbBlockReference
66
0
2
logo1
10
462.225
20
20.1013
30
0
41
1
42
1
43
1
50
0
0
TEXT
5
220
100
AcDbEntity
67
0
8
0
6
ByLayer
62
0
370
-1
100
AcDbText
10
787.429
20
37
30
0
40
3
1
Rev.
50
0
7
Standard
72
2
11
787.429
21
37
31
0
100
AcDbText
73
2
0
TEXT
5
221
100
AcDbEntity
67
0
8
0
6
ByLayer
62
0
370
-1
100
AcDbText
10
777.429
20
22
30
0
40
3
1
Sheet
50
0
7
Standard
72
1
11
777.429
21
22
31
0
100
AcDbText
73
2
0
TEXT
5
222
100
AcDbEntity
67
0
8
0
6
ByLayer
62
0
370
-1
100
AcDbText
10
807.429
20
22
30
0
40
3
1
of
50
0
7
Standard
72
1
11
807.429
21
22
31
0
100
AcDbText
73
2
0
TEXT
5
223
100
AcDbEntity
67
0
8
0
6
ByLayer
62
0
370
-1
100
AcDbText
10
611.429
20
31.5
30
0
40
3
1
Aprov:
50
0
7
Standard
72
0
11
611.429
21
31.5
31
0
100
AcDbText
73
2
0
TEXT
5
224
100
AcDbEntity
67
0
8
0
6
ByLayer
62
0
370
-1
100
AcDbText
10
611.429
20
42.75
30
0
40
3
1
Check:
50
0
7
Standard
72
0
11
611.429
21
42.75
31
0
100
AcDbText
73
2
0
TEXT
5
225
100
AcDbEntity
67
0
8
0
6
ByLayer
62
0
370
-1
100
AcDbText
10
611.429
20
54
30
0
40
3
1
View:
50
0
7
Standard
72
0
11
611.429
21
54
31
0
100
AcDbText
73
2
0
TEXT
5
226
100
AcDbEntity
67
0
8
0
6
ByLayer
62
0
370
-1
100
AcDbText
10
506.429
20
31.5
30
0
40
3
1
Quality:
50
0
7
Standard
72
0
11
506.429
21
31.5
31
0
100
AcDbText
73
2
0
TEXT
5
227
100
AcDbEntity
67
0
8
0
6
ByLayer
62
0
370
-1
100
AcDbText
10
506.429
20
42.75
30
0
40
3
1
Drawn:
50
0
7
Standard
72
0
11
506.429
21
42.75
31
0
100
AcDbText
73
2
0
TEXT
5
228
100
AcDbEntity
67
0
8
0
6
ByLayer
62
0
370
-1
100
AcDbText
10
506.429
20
54
30
0
40
3
1
Design:
50
0
7
Standard
72
0
11
506.429
21
54
31
0
100
AcDbText
73
2
0
ATTDEF
5
229
100
AcDbEntity
67
0
8
0
6
ByLayer
62
0
370
-1
100
AcDbText
10
712.429
20
40
30
0
40
3
1

50
0
7
Standard
72
1
11
712.429
21
40
31
0
100
AcDbAttributeDefinition
3
value:
2
discipline
70
0
74
2
0
ATTDEF
5
22A
100
AcDbEntity
67
0
8
0
6
ByLayer
62
0
370
-1
100
AcDbText
10
712.429
20
31
30
0
40
5
1
-
50
0
7
Standard
72
1
11
712.429
21
31
31
0
100
AcDbAttributeDefinition
3
value:
2
title
70
0
74
2
0
ATTDEF
5
22B
100
AcDbEntity
67
0
8
0
6
ByLayer
62
0
370
-1
100
AcDbText
10
712.429
20
22
30
0
40
3
1

50
0
7
Standard
72
1
11
712.429
21
22
31
0
100
AcDbAttributeDefinition
3
value:
2
type
70
0
74
2
0
ATTDEF
5
22C
100
AcDbEntity
67
0
8
0
6
ByLayer
62
0
370
-1
100
AcDbText
10
712.429
20
52
30
0
40
3
1
-
50
0
7
Standard
72
1
11
712.429
21
52
31
0
100
AcDbAttributeDefinition
3
value:
2
project
70
0
74
2
0
ATTDEF
5
22D
100
AcDbEntity
67
0
8
0
6
ByLayer
62
0
370
-1
100
AcDbText
10
797.429
20
48
30
0
40
5
1
?
50
0
7
Standard
72
1
11
797.429
21
48
31
0
100
AcDbAttributeDefinition
3
value:
2
id
70
0
74
2
0
ATTDEF
5
22E
100
AcDbEntity
67
0
8
0
6
ByLayer
62
0
370
-1
100
AcDbText
10
789.429
20
37
30
0
40
3
1
0
50
0
7
Standard
72
0
11
789.429
21
37
31
0
100
AcDbAttributeDefinition
3
value:
2
rev
70
0
74
2
0
ATTDEF
5
22F
100
AcDbEntity
67
0
8
0
6
ByLayer
62
0
370
-1
100
AcDbText
10
797.429
20
22
30
0
40
3
1
1
50
0
7
Standard
72
1
11
797.429
21
22
31
0
100
AcDbAttributeDefinition
3
value:
2
sheet
70
0
74
2
0
ATTDEF
5
230
100
AcDbEntity
67
0
8
0
6
ByLayer
62
0
370
-1
100
AcDbText
10
817.429
20
22
30
0
40
3
1
1
50
0
7
Standard
72
1
11
817.429
21
22
31
0
100
AcDbAttributeDefinition
3
value:
2
sheets
70
0
74
2
0
ATTDEF
5
231
100
AcDbEntity
67
0
8
0
6
ByLayer
62
0
370
-1
100
AcDbText
10
632.429
20
20.25
30
0
40
3
1
-
50
0
7
Standard
72
1
11
632.429
21
20.25
31
0
100
AcDbAttributeDefinition
3
value:
2
aprov_date
70
0
74
2
0
ATTDEF
5
232
100
AcDbEntity
67
0
8
0
6
ByLayer
62
0
370
-1
100
AcDbText
10
630.429
20
31.5
30
0
40
3
1

50
0
7
Standard
72
0
11
630.429
21
31.5
31
0
100
AcDbAttributeDefinition
3
value:
2
aprov
70
0
74
2
0
ATTDEF
5
233
100
AcDbEntity
67
0
8
0
6
ByLayer
62
0
370
-1
100
AcDbText
10
630.429
20
42.75
30
0
40
3
1

50
0
7
Standard
72
0
11
630.429
21
42.75
31
0
100
AcDbAttributeDefinition
3
value:
2
check
70
0
74
2
0
ATTDEF
5
234
100
AcDbEntity
67
0
8
0
6
ByLayer
62
0
370
-1
100
AcDbText
10
630.429
20
54
30
0
40
3
1

50
0
7
Standard
72
0
11
630.429
21
54
31
0
100
AcDbAttributeDefinition
3
value:
2
view
70
0
74
2
0
ATTDEF
5
235
100
AcDbEntity
67
0
8
0
6
ByLayer
62
0
370
-1
100
AcDbText
10
582.429
20
20.25
30
0
40
3
1
-
50
0
7
Standard
72
1
11
582.429
21
20.25
31
0
100
AcDbAttributeDefinition
3
value:
2
client
70
0
74
2
0
ATTDEF
5
236
100
AcDbEntity
67
0
8
0
6
ByLayer
62
0
370
-1
100
AcDbText
10
527.429
20
20.25
30
0
40
3
1
-
50
0
7
Standard
72
1
11
527.429
21
20.25
31
0
100
AcDbAttributeDefinition
3
value:
2
design_date
70
0
74
2
0
ATTDEF
5
237
100
AcDbEntity
67
0
8
0
6
ByLayer
62
0
370
-1
100
AcDbText
10
525.429
20
31.5
30
0
40
3
1

50
0
7
Standard
72
0
11
525.429
21
31.5
31
0
100
AcDbAttributeDefinition
3
value:
2
quality
70
0
74
2
0
ATTDEF
5
238
100
AcDbEntity
67
0
8
0
6
ByLayer
62
0
370
-1
100
AcDbText
10
525.429
20
42.75
30
0
40
3
1

50
0
7
Standard
72
0
11
525.429
21
42.75
31
0
100
AcDbAttributeDefinition
3
value:
2
drawn
70
0
74
2
0
ATTDEF
5
239
100
AcDbEntity
67
0
8
0
6
ByLayer
62
0
370
-1
100
AcDbText
10
525.429
20
54
30
0
40
3
1
-
50
0
7
Standard
72
0
11
525.429
21
54
31
0
100
AcDbAttributeDefinition
3
value:
2
design
70
0
74
2
0
ENDBLK
5
23A
330
1F1
100
AcDbEntity
8
0
100
AcDbBlockEnd
0
BLOCK
5
268
330
267
100
AcDbEntity
8
0
100
AcDbBlockBegin
2
*D30
70
1
10
0
20
0
30
0
3
*D30
1

4

0
LINE
5
269
100
AcDbEntity
67
0
8
0
6
BYBLOCK
62
0
370
-2
100
AcDbLine
10
595.621
20
2450.79
30
0
11
595.621
21
2370.79
31
0
0
LINE
5
26A
100
AcDbEntity
67
0
8
0
6
BYBLOCK
62
0
370
-2
100
AcDbLine
10
595.621
20
2450.79
30
0
11
594.689
21
2447.19
31
0
0
LINE
5
26B
100
AcDbEntity
67
0
8
0
6
BYBLOCK
62
0
370
-2
100
AcDbLine
10
595.621
20
2450.79
30
0
11
596.553
21
2447.19
31
0
0
LINE
5
26C
100
AcDbEntity
67
0
8
0
6
BYBLOCK
62
0
370
-2
100
AcDbLine
10
595.621
20
2370.79
30
0
11
594.689
21
2374.39
31
0
0
LINE
5
26D
100
AcDbEntity
67
0
8
0
6
BYBLOCK
62
0
370
-2
100
AcDbLine
10
595.621
20
2370.79
30
0
11
596.553
21
2374.39
31
0
0
MTEXT
5
26E
100
AcDbEntity
67
0
8
0
6
BYBLOCK
62
0
370
-2
100
AcDbMText
10
592.571
20
2410.79
30
0
40
3.6
41
0
71
5
72
1
1
20.0
7
Standard
11
6.12323e-17
21
1
31
0
0
LINE
5
26F
100
AcDbEntity
67
0
8
0
6
BYBLOCK
62
0
370
-2
100
AcDbLine
10
592.021
20
2450.79
30
0
11
605.839
21
2450.79
31
0
0
LINE
5
270
100
AcDbEntity
67
0
8
0
6
BYBLOCK
62
0
370
-2
100
AcDbLine
10
592.021
20
2370.79
30
0
11
605.839
21
2370.79
31
0
0
ENDBLK
5
271
330
268
100
AcDbEntity
8
0
100
AcDbBlockEnd
0
BLOCK
5
274
330
273
100
AcDbEntity
8
0
100
AcDbBlockBegin
2
*D31
70
1
10
0
20
0
30
0
3
*D31
1

4

0
LINE
5
275
100
AcDbEntity
67
0
8
0
6
BYBLOCK
62
0
370
-2
100
AcDbLine
10
860.689
20
2358.05
30
0
11
613.089
21
2358.05
31
0
0
LINE
5
276
100
AcDbEntity
67
0
8
0
6
BYBLOCK
62
0
370
-2
100
AcDbLine
10
860.689
20
2358.05
30
0
11
857.089
21
2358.98
31
0
0
LINE
5
277
100
AcDbEntity
67
0
8
0
6
BYBLOCK
62
0
370
-2
100
AcDbLine
10
860.689
20
2358.05
30
0
11
857.089
21
2357.12
31
0
0
LINE
5
278
100
AcDbEntity
67
0
8
0
6
BYBLOCK
62
0
370
-2
100
AcDbLine
10
613.089
20
2358.05
30
0
11
616.689
21
2358.98
31
0
0
LINE
5
279
100
AcDbEntity
67
0
8
0
6
BYBLOCK
62
0
370
-2
100
AcDbLine
10
613.089
20
2358.05
30
0
11
616.689
21
2357.12
31
0
0
MTEXT
5
27A
100
AcDbEntity
67
0
8
0
6
BYBLOCK
62
0
370
-2
100
AcDbMText
10
736.889
20
2355
30
0
40
3.6
41
0
71
5
72
1
1
61.9
7
Standard
11
1
21
0
31
0
0
LINE
5
27B
100
AcDbEntity
67
0
8
0
6
BYBLOCK
62
0
370
-2
100
AcDbLine
10
860.689
20
2354.45
30
0
11
860.689
21
2369.54
31
0
0
LINE
5
27C
100
AcDbEntity
67
0
8
0
6
BYBLOCK
62
0
370
-2
100
AcDbLine
10
613.089
20
2354.45
30
0
11
613.089
21
2369.54
31
0
0
ENDBLK
5
27D
330
274
100
AcDbEntity
8
0
100
AcDbBlockEnd
0
BLOCK
5
280
330
27F
100
AcDbEntity
8
0
100
AcDbBlockBegin
2
*D32
70
1
10
0
20
0
30
0
3
*D32
1

4

0
LINE
5
281
100
AcDbEntity
67
0
8
0
6
BYBLOCK
62
0
370
-2
100
AcDbLine
10
622.118
20
2450.79
30
0
11
622.118
21
2376.79
31
0
0
LINE
5
282
100
AcDbEntity
67
0
8
0
6
BYBLOCK
62
0
370
-2
100
AcDbLine
10
622.118
20
2450.79
30
0
11
621.187
21
2447.19
31
0
0
LINE
5
283
100
AcDbEntity
67
0
8
0
6
BYBLOCK
62
0
370
-2
100
AcDbLine
10
622.118
20
2450.79
30
0
11
623.05
21
2447.19
31
0
0
LINE
5
284
100
AcDbEntity
67
0
8
0
6
BYBLOCK
62
0
370
-2
100
AcDbLine
10
622.118
20
2376.79
30
0
11
621.187
21
2380.39
31
0
0
LINE
5
285
100
AcDbEntity
67
0
8
0
6
BYBLOCK
62
0
370
-2
100
AcDbLine
10
622.118
20
2376.79
30
0
11
623.05
21
2380.39
31
0
0
MTEXT
5
286
100
AcDbEntity
67
0
8
0
6
BYBLOCK
62
0
370
-2
100
AcDbMText
10
625.168
20
2413.79
30
0
40
3.6
41
0
71
5
72
1
1
18.5
7
Standard
11
6.12323e-17
21
1
31
0
0
LINE
5
287
100
AcDbEntity
67
0
8
0
6
BYBLOCK
62
0
370
-2
100
AcDbLine
10
625.718
20
2450.79
30
0
11
614.339
21
2450.79
31
0
0
LINE
5
288
100
AcDbEntity
67
0
8
0
6
BYBLOCK
62
0
370
-2
100
AcDbLine
10
625.718
20
2376.79
30
0
11
614.339
21
2376.79
31
0
0
ENDBLK
5
289
330
280
100
AcDbEntity
8
0
100
AcDbBlockEnd
0
BLOCK
5
28C
330
28B
100
AcDbEntity
8
0
100
AcDbBlockBegin
2
*D33
70
1
10
0
20
0
30
0
3
*D33
1

4

0
LINE
5
28D
100
AcDbEntity
67
0
8
0
6
BYBLOCK
62
0
370
-2
100
AcDbLine
10
588.553
20
2471.83
30
0
11
610.089
21
2450.79
31
0
0
LINE
5
28E
100
AcDbEntity
67
0
8
0
6
BYBLOCK
62
0
370
-2
100
AcDbLine
10
610.089
20
2450.79
30
0
11
606.863
21
2452.64
31
0
0
LINE
5
28F
100
AcDbEntity
67
0
8
0
6
BYBLOCK
62
0
370
-2
100
AcDbLine
10
610.089
20
2450.79
30
0
11
608.165
21
2453.98
31
0
0
MTEXT
5
290
100
AcDbEntity
67
0
8
0
6
BYBLOCK
62
0
370
-2
100
AcDbMText
10
587.659
20
2472.71
30
0
40
3.6
41
0
71
6
72
1
1
P=50cm
7
Standard
11
1
21
0
31
0
0
ENDBLK
5
291
330
28C
100
AcDbEntity
8
0
100
AcDbBlockEnd
0
BLOCK
5
294
330
293
100
AcDbEntity
8
0
100
AcDbBlockBegin
2
*D34
70
1
10
0
20
0
30
0
3
*D34
1

4

0
LINE
5
295
100
AcDbEntity
67
0
8
0
6
BYBLOCK
62
0
370
-2
100
AcDbLine
10
725.074
20
2389.77
30
0
11
736.889
21
2376.79
31
0
0
LINE
5
296
100
AcDbEntity
67
0
8
0
6
BYBLOCK
62
0
370
-2
100
AcDbLine
10
736.889
20
2376.79
30
0
11
733.777
21
2378.83
31
0
0
LINE
5
297
100
AcDbEntity
67
0
8
0
6
BYBLOCK
62
0
370
-2
100
AcDbLine
10
736.889
20
2376.79
30
0
11
735.154
21
2380.08
31
0
0
MTEXT
5
298
100
AcDbEntity
67
0
8
0
6
BYBLOCK
62
0
370
-2
100
AcDbMText
10
724.232
20
2390.7
30
0
40
3.6
41
0
71
6
72
1
1
P=50cm
7
Standard
11
1
21
0
31
0
0
ENDBLK
5
299
330
294
100
AcDbEntity
8
0
100
AcDbBlockEnd
0
BLOCK
5
29C
330
29B
100
AcDbEntity
8
0
100
AcDbBlockBegin
2
*D35
70
1
10
0
20
0
30
0
3
*D35
1

4

0
LINE
5
29D
100
AcDbEntity
67
0
8
0
6
BYBLOCK
62
0
370
-2
100
AcDbLine
10
873.075
20
2462.94
30
0
11
863.689
21
2450.79
31
0
0
LINE
5
29E
100
AcDbEntity
67
0
8
0
6
BYBLOCK
62
0
370
-2
100
AcDbLine
10
863.689
20
2450.79
30
0
11
865.153
21
2454.21
31
0
0
LINE
5
29F
100
AcDbEntity
67
0
8
0
6
BYBLOCK
62
0
370
-2
100
AcDbLine
10
863.689
20
2450.79
30
0
11
866.627
21
2453.07
31
0
0
MTEXT
5
2A0
100
AcDbEntity
67
0
8
0
6
BYBLOCK
62
0
370
-2
100
AcDbMText
10
873.839
20
2463.93
30
0
40
3.6
41
0
71
4
72
1
1
P=50cm
7
Standard
11
1
21
0
31
0
0
ENDBLK
5
2A1
330
29C
100
AcDbEntity
8
0
100
AcDbBlockEnd
0
BLOCK
5
2A4
330
2A3
100
AcDbEntity
8
0
100
AcDbBlockBegin
2
*D36
70
1
10
0
20
0
30
0
3
*D36
1

4

0
LINE
5
2A5
100
AcDbEntity
67
0
8
0
6
BYBLOCK
62
0
370
-2
100
AcDbLine
10
723.769
20
2460.99
30
0
11
736.889
21
2450.79
31
0
0
LINE
5
2A6
100
AcDbEntity
67
0
8
0
6
BYBLOCK
62
0
370
-2
100
AcDbLine
10
736.889
20
2450.79
30
0
11
733.475
21
2452.27
31
0
0
LINE
5
2A7
100
AcDbEntity
67
0
8
0
6
BYBLOCK
62
0
370
-2
100
AcDbLine
10
736.889
20
2450.79
30
0
11
734.618
21
2453.74
31
0
0
MTEXT
5
2A8
100
AcDbEntity
67
0
8
0
6
BYBLOCK
62
0
370
-2
100
AcDbMText
10
722.782
20
2461.76
30
0
40
3.6
41
0
71
6
72
1
1
Chapa 15mm
7
Standard
11
1
21
0
31
0
0
ENDBLK
5
2A9
330
2A4
100
AcDbEntity
8
0
100
AcDbBlockEnd
0
ENDSEC
0
SECTION
2
ENTITIES
0
LWPOLYLINE
5
35
100
AcDbEntity
67
0
8
parede
6
ByLayer
62
256
370
-1
100
AcDbPolyline
90
4
70
1
10
544.495
20
2801.3
30
0
42
0
10
829.495
20
2801.3
30
0
42
0
10
829.495
20
2531.3
30
0
42
0
10
544.495
20
2531.3
30
0
0
INSERT
5
3F
100
AcDbEntity
67
0
8
portas
6
ByLayer
62
5
370
-1
100
AcDbBlockReference
66
0
2
porta
10
946.495
20
2797.5
30
0
41
1
42
1
43
1
50
0
0
INSERT
5
43
100
AcDbEntity
67
0
8
portas
6
ByLayer
62
5
370
-1
100
AcDbBlockReference
66
0
2
porta
10
1016.49
20
2797.5
30
0
41
1
42
1
43
1
50
0
0
INSERT
5
44
100
AcDbEntity
67
0
8
portas
6
ByLayer
62
5
370
-1
100
AcDbBlockReference
66
0
2
porta
10
1086.49
20
2797.5
30
0
41
1
42
1
43
1
50
0
0
INSERT
5
45
100
AcDbEntity
67
0
8
portas
6
ByLayer
62
5
370
-1
100
AcDbBlockReference
66
0
2
porta
10
1156.49
20
2797.5
30
0
41
1
42
1
43
1
50
0
0
LWPOLYLINE
5
47
100
AcDbEntity
67
0
8
batente
6
ByLayer
62
256
370
-1
100
AcDbPolyline
90
4
70
1
10
944.495
20
2801.3
30
0
42
0
10
946.295
20
2801.3
30
0
42
0
10
946.295
20
2542.3
30
0
42
0
10
944.495
20
2542.3
30
0
0
LWPOLYLINE
5
49
100
AcDbEntity
67
0
8
lateral
6
ByLayer
62
256
370
-1
100
AcDbPolyline
90
4
70
1
10
1230.29
20
2801.3
30
0
42
0
10
1228.49
20
2801.3
30
0
42
0
10
1228.49
20
2531.3
30
0
42
0
10
1230.29
20
2531.3
30
0
0
LWPOLYLINE
5
4C
100
AcDbEntity
67
0
8
soleira
6
ByLayer
62
256
370
-1
100
AcDbPolyline
90
4
70
1
10
946.295
20
2801.3
30
0
42
0
10
1228.49
20
2801.3
30
0
42
0
10
1228.49
20
2799.5
30
0
42
0
10
946.295
20
2799.5
30
0
0
LWPOLYLINE
5
4E
100
AcDbEntity
67
0
8
soleira
6
ByLayer
62
256
370
-1
100
AcDbPolyline
90
4
70
1
10
946.295
20
2533.1
30
0
42
0
10
1228.49
20
2533.1
30
0
42
0
10
1228.49
20
2531.3
30
0
42
0
10
946.295
20
2531.3
30
0
0
LWPOLYLINE
5
4F
100
AcDbEntity
67
0
8
trilho
6
ByLayer
62
256
370
-1
100
AcDbPolyline
90
4
70
1
10
946.295
20
2799.5
30
0
42
0
10
1224.99
20
2799.5
30
0
42
0
10
1224.99
20
2797
30
0
42
0
10
946.295
20
2797
30
0
0
LWPOLYLINE
5
51
100
AcDbEntity
67
0
8
interno
6
ByLayer
62
256
370
-1
100
AcDbPolyline
90
4
70
1
10
684.995
20
2531.3
30
0
42
0
10
686.495
20
2531.3
30
0
42
0
10
686.495
20
2746.3
30
0
42
0
10
684.995
20
2746.3
30
0
0
LWPOLYLINE
5
52
100
AcDbEntity
67
0
8
interno
6
ByLayer
62
256
370
-1
100
AcDbPolyline
90
4
70
1
10
544.495
20
2746.3
30
0
42
0
10
686.495
20
2746.3
30
0
42
0
10
686.495
20
2747.8
30
0
42
0
10
544.495
20
2747.8
30
0
0
LWPOLYLINE
5
53
100
AcDbEntity
67
0
8
interno
6
ByLayer
62
256
370
-1
100
AcDbPolyline
90
4
70
1
10
686.495
20
2746.3
30
0
42
0
10
828.495
20
2746.3
30
0
42
0
10
828.495
20
2747.8
30
0
42
0
10
686.495
20
2747.8
30
0
0
LWPOLYLINE
5
54
100
AcDbEntity
67
0
8
interno
6
ByLayer
62
256
370
-1
100
AcDbPolyline
90
4
70
1
10
686.495
20
2531.3
30
0
42
0
10
687.995
20
2531.3
30
0
42
0
10
687.995
20
2746.3
30
0
42
0
10
686.495
20
2746.3
30
0
0
LWPOLYLINE
5
55
100
AcDbEntity
67
0
8
interno
6
ByLayer
62
256
370
-1
100
AcDbPolyline
90
4
70
1
10
826.995
20
2531.3
30
0
42
0
10
828.495
20
2531.3
30
0
42
0
10
828.495
20
2746.3
30
0
42
0
10
826.995
20
2746.3
30
0
0
LWPOLYLINE
5
59
100
AcDbEntity
67
0
8
interno
6
ByLayer
62
256
370
-1
100
AcDbPolyline
90
4
70
1
10
756.995
20
2531.3
30
0
42
-0
10
755.495
20
2531.3
30
0
42
-0
10
755.495
20
2746.3
30
0
42
-0
10
756.995
20
2746.3
30
0
0
LWPOLYLINE
5
66
100
AcDbEntity
67
0
8
corredica
6
ByLayer
62
256
370
-1
100
AcDbPolyline
90
4
70
1
10
684.995
20
2635.55
30
0
42
-0
10
683.695
20
2635.55
30
0
42
-0
10
683.695
20
2640.05
30
0
42
-0
10
684.995
20
2640.05
30
0
0
LWPOLYLINE
5
67
100
AcDbEntity
67
0
8
corredica
6
ByLayer
62
256
370
-1
100
AcDbPolyline
90
4
70
1
10
617.495
20
2635.55
30
0
42
0
10
618.795
20
2635.55
30
0
42
0
10
618.795
20
2640.05
30
0
42
0
10
617.495
20
2640.05
30
0
0
LWPOLYLINE
5
68
100
AcDbEntity
67
0
8
interno
6
ByLayer
62
256
370
-1
100
AcDbPolyline
90
4
70
1
10
615.995
20
2531.3
30
0
42
0
10
617.495
20
2531.3
30
0
42
0
10
617.495
20
2746.3
30
0
42
0
10
615.995
20
2746.3
30
0
0
LWPOLYLINE
5
69
100
AcDbEntity
67
0
8
interno
6
ByLayer
62
256
370
-1
100
AcDbPolyline
90
4
70
1
10
544.495
20
2652.3
30
0
42
0
10
615.995
20
2652.3
30
0
42
0
10
615.995
20
2650.8
30
0
42
0
10
544.495
20
2650.8
30
0
0
LWPOLYLINE
5
6A
100
AcDbEntity
67
0
8
interno
6
ByLayer
62
256
370
-1
100
AcDbPolyline
90
4
70
1
10
617.495
20
2652.3
30
0
42
0
10
684.995
20
2652.3
30
0
42
0
10
684.995
20
2650.8
30
0
42
0
10
617.495
20
2650.8
30
0
0
LWPOLYLINE
5
6B
100
AcDbEntity
67
0
8
interno
6
ByLayer
62
256
370
-1
100
AcDbPolyline
90
4
70
1
10
687.995
20
2652.3
30
0
42
0
10
755.495
20
2652.3
30
0
42
0
10
755.495
20
2650.8
30
0
42
0
10
687.995
20
2650.8
30
0
0
LWPOLYLINE
5
6C
100
AcDbEntity
67
0
8
interno
6
ByLayer
62
256
370
-1
100
AcDbPolyline
90
4
70
1
10
756.995
20
2652.3
30
0
42
0
10
826.995
20
2652.3
30
0
42
0
10
826.995
20
2650.8
30
0
42
0
10
756.995
20
2650.8
30
0
0
LWPOLYLINE
5
6E
100
AcDbEntity
67
0
8
gavetas
6
ByLayer
62
256
370
-1
100
AcDbPolyline
90
4
70
1
10
618.795
20
2627.8
30
0
42
0
10
683.695
20
2627.8
30
0
42
0
10
683.695
20
2647.8
30
0
42
0
10
618.795
20
2647.8
30
0
0
LWPOLYLINE
5
6F
100
AcDbEntity
67
0
8
corredica
6
ByLayer
62
256
370
-1
100
AcDbPolyline
90
4
70
1
10
684.995
20
2612.55
30
0
42
-0
10
683.695
20
2612.55
30
0
42
-0
10
683.695
20
2617.05
30
0
42
-0
10
684.995
20
2617.05
30
0
0
LWPOLYLINE
5
70
100
AcDbEntity
67
0
8
corredica
6
ByLayer
62
256
370
-1
100
AcDbPolyline
90
4
70
1
10
617.495
20
2612.55
30
0
42
0
10
618.795
20
2612.55
30
0
42
0
10
618.795
20
2617.05
30
0
42
0
10
617.495
20
2617.05
30
0
0
LWPOLYLINE
5
71
100
AcDbEntity
67
0
8
gavetas
6
ByLayer
62
256
370
-1
100
AcDbPolyline
90
4
70
1
10
618.795
20
2604.8
30
0
42
0
10
683.695
20
2604.8
30
0
42
0
10
683.695
20
2624.8
30
0
42
0
10
618.795
20
2624.8
30
0
0
LWPOLYLINE
5
72
100
AcDbEntity
67
0
8
corredica
6
ByLayer
62
256
370
-1
100
AcDbPolyline
90
4
70
1
10
684.995
20
2589.55
30
0
42
-0
10
683.695
20
2589.55
30
0
42
-0
10
683.695
20
2594.05
30
0
42
-0
10
684.995
20
2594.05
30
0
0
LWPOLYLINE
5
73
100
AcDbEntity
67
0
8
corredica
6
ByLayer
62
256
370
-1
100
AcDbPolyline
90
4
70
1
10
617.495
20
2589.55
30
0
42
0
10
618.795
20
2589.55
30
0
42
0
10
618.795
20
2594.05
30
0
42
0
10
617.495
20
2594.05
30
0
0
LWPOLYLINE
5
74
100
AcDbEntity
67
0
8
gavetas
6
ByLayer
62
256
370
-1
100
AcDbPolyline
90
4
70
1
10
618.795
20
2581.8
30
0
42
0
10
683.695
20
2581.8
30
0
42
0
10
683.695
20
2601.8
30
0
42
0
10
618.795
20
2601.8
30
0
0
LWPOLYLINE
5
75
100
AcDbEntity
67
0
8
corredica
6
ByLayer
62
256
370
-1
100
AcDbPolyline
90
4
70
1
10
684.995
20
2566.55
30
0
42
-0
10
683.695
20
2566.55
30
0
42
-0
10
683.695
20
2571.05
30
0
42
-0
10
684.995
20
2571.05
30
0
0
LWPOLYLINE
5
76
100
AcDbEntity
67
0
8
corredica
6
ByLayer
62
256
370
-1
100
AcDbPolyline
90
4
70
1
10
617.495
20
2566.55
30
0
42
0
10
618.795
20
2566.55
30
0
42
0
10
618.795
20
2571.05
30
0
42
0
10
617.495
20
2571.05
30
0
0
LWPOLYLINE
5
77
100
AcDbEntity
67
0
8
gavetas
6
ByLayer
62
256
370
-1
100
AcDbPolyline
90
4
70
1
10
618.795
20
2558.8
30
0
42
0
10
683.695
20
2558.8
30
0
42
0
10
683.695
20
2578.8
30
0
42
0
10
618.795
20
2578.8
30
0
0
LWPOLYLINE
5
78
100
AcDbEntity
67
0
8
corredica
6
ByLayer
62
256
370
-1
100
AcDbPolyline
90
4
70
1
10
684.995
20
2543.55
30
0
42
-0
10
683.695
20
2543.55
30
0
42
-0
10
683.695
20
2548.05
30
0
42
-0
10
684.995
20
2548.05
30
0
0
LWPOLYLINE
5
79
100
AcDbEntity
67
0
8
corredica
6
ByLayer
62
256
370
-1
100
AcDbPolyline
90
4
70
1
10
617.495
20
2543.55
30
0
42
0
10
618.795
20
2543.55
30
0
42
0
10
618.795
20
2548.05
30
0
42
0
10
617.495
20
2548.05
30
0
0
LWPOLYLINE
5
7A
100
AcDbEntity
67
0
8
gavetas
6
ByLayer
62
256
370
-1
100
AcDbPolyline
90
4
70
1
10
618.795
20
2535.8
30
0
42
0
10
683.695
20
2535.8
30
0
42
0
10
683.695
20
2555.8
30
0
42
0
10
618.795
20
2555.8
30
0
0
LWPOLYLINE
5
7B
100
AcDbEntity
67
0
8
interno
6
ByLayer
62
256
370
-1
100
AcDbPolyline
90
4
70
1
10
756.995
20
2683.8
30
0
42
0
10
826.995
20
2683.8
30
0
42
0
10
826.995
20
2682.3
30
0
42
0
10
756.995
20
2682.3
30
0
0
LWPOLYLINE
5
7C
100
AcDbEntity
67
0
8
interno
6
ByLayer
62
256
370
-1
100
AcDbPolyline
90
4
70
1
10
756.995
20
2715.3
30
0
42
0
10
826.995
20
2715.3
30
0
42
0
10
826.995
20
2713.8
30
0
42
0
10
756.995
20
2713.8
30
0
0
LWPOLYLINE
5
7D
100
AcDbEntity
67
0
8
interno
6
ByLayer
62
256
370
-1
100
AcDbPolyline
90
4
70
1
10
756.995
20
2620.8
30
0
42
0
10
826.995
20
2620.8
30
0
42
0
10
826.995
20
2619.3
30
0
42
0
10
756.995
20
2619.3
30
0
0
LWPOLYLINE
5
7E
100
AcDbEntity
67
0
8
interno
6
ByLayer
62
256
370
-1
100
AcDbPolyline
90
4
70
1
10
756.995
20
2589.3
30
0
42
0
10
826.995
20
2589.3
30
0
42
0
10
826.995
20
2587.8
30
0
42
0
10
756.995
20
2587.8
30
0
0
LWPOLYLINE
5
7F
100
AcDbEntity
67
0
8
corredica
6
ByLayer
62
256
370
-1
100
AcDbPolyline
90
4
70
1
10
755.495
20
2635.55
30
0
42
-0
10
754.195
20
2635.55
30
0
42
-0
10
754.195
20
2640.05
30
0
42
-0
10
755.495
20
2640.05
30
0
0
LWPOLYLINE
5
80
100
AcDbEntity
67
0
8
corredica
6
ByLayer
62
256
370
-1
100
AcDbPolyline
90
4
70
1
10
687.995
20
2635.55
30
0
42
0
10
689.295
20
2635.55
30
0
42
0
10
689.295
20
2640.05
30
0
42
0
10
687.995
20
2640.05
30
0
0
LWPOLYLINE
5
81
100
AcDbEntity
67
0
8
gavetas
6
ByLayer
62
256
370
-1
100
AcDbPolyline
90
4
70
1
10
689.295
20
2627.8
30
0
42
0
10
754.195
20
2627.8
30
0
42
0
10
754.195
20
2647.8
30
0
42
0
10
689.295
20
2647.8
30
0
0
LWPOLYLINE
5
82
100
AcDbEntity
67
0
8
corredica
6
ByLayer
62
256
370
-1
100
AcDbPolyline
90
4
70
1
10
755.495
20
2612.55
30
0
42
-0
10
754.195
20
2612.55
30
0
42
-0
10
754.195
20
2617.05
30
0
42
-0
10
755.495
20
2617.05
30
0
0
LWPOLYLINE
5
83
100
AcDbEntity
67
0
8
corredica
6
ByLayer
62
256
370
-1
100
AcDbPolyline
90
4
70
1
10
687.995
20
2612.55
30
0
42
0
10
689.295
20
2612.55
30
0
42
0
10
689.295
20
2617.05
30
0
42
0
10
687.995
20
2617.05
30
0
0
LWPOLYLINE
5
84
100
AcDbEntity
67
0
8
gavetas
6
ByLayer
62
256
370
-1
100
AcDbPolyline
90
4
70
1
10
689.295
20
2604.8
30
0
42
0
10
754.195
20
2604.8
30
0
42
0
10
754.195
20
2624.8
30
0
42
0
10
689.295
20
2624.8
30
0
0
LWPOLYLINE
5
85
100
AcDbEntity
67
0
8
corredica
6
ByLayer
62
256
370
-1
100
AcDbPolyline
90
4
70
1
10
755.495
20
2589.55
30
0
42
-0
10
754.195
20
2589.55
30
0
42
-0
10
754.195
20
2594.05
30
0
42
-0
10
755.495
20
2594.05
30
0
0
LWPOLYLINE
5
86
100
AcDbEntity
67
0
8
corredica
6
ByLayer
62
256
370
-1
100
AcDbPolyline
90
4
70
1
10
687.995
20
2589.55
30
0
42
0
10
689.295
20
2589.55
30
0
42
0
10
689.295
20
2594.05
30
0
42
0
10
687.995
20
2594.05
30
0
0
LWPOLYLINE
5
87
100
AcDbEntity
67
0
8
gavetas
6
ByLayer
62
256
370
-1
100
AcDbPolyline
90
4
70
1
10
689.295
20
2581.8
30
0
42
0
10
754.195
20
2581.8
30
0
42
0
10
754.195
20
2601.8
30
0
42
0
10
689.295
20
2601.8
30
0
0
LWPOLYLINE
5
88
100
AcDbEntity
67
0
8
corredica
6
ByLayer
62
256
370
-1
100
AcDbPolyline
90
4
70
1
10
755.495
20
2566.55
30
0
42
-0
10
754.195
20
2566.55
30
0
42
-0
10
754.195
20
2571.05
30
0
42
-0
10
755.495
20
2571.05
30
0
0
LWPOLYLINE
5
89
100
AcDbEntity
67
0
8
corredica
6
ByLayer
62
256
370
-1
100
AcDbPolyline
90
4
70
1
10
687.995
20
2566.55
30
0
42
0
10
689.295
20
2566.55
30
0
42
0
10
689.295
20
2571.05
30
0
42
0
10
687.995
20
2571.05
30
0
0
LWPOLYLINE
5
8A
100
AcDbEntity
67
0
8
gavetas
6
ByLayer
62
256
370
-1
100
AcDbPolyline
90
4
70
1
10
689.295
20
2558.8
30
0
42
0
10
754.195
20
2558.8
30
0
42
0
10
754.195
20
2578.8
30
0
42
0
10
689.295
20
2578.8
30
0
0
LWPOLYLINE
5
8B
100
AcDbEntity
67
0
8
corredica
6
ByLayer
62
256
370
-1
100
AcDbPolyline
90
4
70
1
10
755.495
20
2543.55
30
0
42
-0
10
754.195
20
2543.55
30
0
42
-0
10
754.195
20
2548.05
30
0
42
-0
10
755.495
20
2548.05
30
0
0
LWPOLYLINE
5
8C
100
AcDbEntity
67
0
8
corredica
6
ByLayer
62
256
370
-1
100
AcDbPolyline
90
4
70
1
10
687.995
20
2543.55
30
0
42
0
10
689.295
20
2543.55
30
0
42
0
10
689.295
20
2548.05
30
0
42
0
10
687.995
20
2548.05
30
0
0
LWPOLYLINE
5
8D
100
AcDbEntity
67
0
8
gavetas
6
ByLayer
62
256
370
-1
100
AcDbPolyline
90
4
70
1
10
689.295
20
2535.8
30
0
42
0
10
754.195
20
2535.8
30
0
42
0
10
754.195
20
2555.8
30
0
42
0
10
689.295
20
2555.8
30
0
0
DIMENSION
5
99
100
AcDbEntity
67
0
8
cotas
6
ByLayer
62
256
370
-1
100
AcDbDimension
2
*D1
10
534.47
20
2650.8
30
0
11
531.42
21
2591.05
31
0
70
32
71
5
42
119.5
1
<>
73
0
74
0
75
0
3
cotas
100
AcDbAlignedDimension
13
544.495
23
2531.3
33
0
14
544.495
24
2650.8
34
0
50
90
100
AcDbRotatedDimension
0
DIMENSION
5
A5
100
AcDbEntity
67
0
8
cotas
6
ByLayer
62
256
370
-1
100
AcDbDimension
2
*D2
10
524.25
20
2746.3
30
0
11
521.2
21
2638.8
31
0
70
32
71
5
42
215
1
<>
73
0
74
0
75
0
3
cotas
100
AcDbAlignedDimension
13
544.495
23
2531.3
33
0
14
544.495
24
2746.3
34
0
50
90
100
AcDbRotatedDimension
0
DIMENSION
5
B1
100
AcDbEntity
67
0
8
cotas
6
ByLayer
62
256
370
-1
100
AcDbDimension
2
*D3
10
686.495
20
2756.96
30
0
11
615.495
21
2760.01
31
0
70
32
71
5
42
142
1
<>
73
0
74
0
75
0
3
cotas
100
AcDbAlignedDimension
13
544.495
23
2747.8
33
0
14
686.495
24
2747.8
34
0
50
0
100
AcDbRotatedDimension
0
DIMENSION
5
BD
100
AcDbEntity
67
0
8
cotas
6
ByLayer
62
256
370
-1
100
AcDbDimension
2
*D4
10
828.495
20
2756.97
30
0
11
757.495
21
2760.02
31
0
70
32
71
5
42
142
1
<>
73
0
74
0
75
0
3
cotas
100
AcDbAlignedDimension
13
686.495
23
2747.8
33
0
14
828.495
24
2747.8
34
0
50
0
100
AcDbRotatedDimension
0
DIMENSION
5
C9
100
AcDbEntity
67
0
8
cotas
6
ByLayer
62
256
370
-1
100
AcDbDimension
2
*D5
10
615.995
20
2656.3
30
0
11
580.245
21
2659.35
31
0
70
32
71
5
42
71.5
1
<>
73
0
74
0
75
0
3
cotas
100
AcDbAlignedDimension
13
544.495
23
2652.3
33
0
14
615.995
24
2652.3
34
0
50
0
100
AcDbRotatedDimension
0
DIMENSION
5
D5
100
AcDbEntity
67
0
8
cotas
6
ByLayer
62
256
370
-1
100
AcDbDimension
2
*D6
10
684.995
20
2656.3
30
0
11
651.245
21
2659.35
31
0
70
32
71
5
42
67.5
1
<>
73
0
74
0
75
0
3
cotas
100
AcDbAlignedDimension
13
617.495
23
2652.3
33
0
14
684.995
24
2652.3
34
0
50
0
100
AcDbRotatedDimension
0
DIMENSION
5
E1
100
AcDbEntity
67
0
8
cotas
6
ByLayer
62
256
370
-1
100
AcDbDimension
2
*D7
10
755.495
20
2656.3
30
0
11
721.745
21
2659.35
31
0
70
32
71
5
42
67.5
1
<>
73
0
74
0
75
0
3
cotas
100
AcDbAlignedDimension
13
687.995
23
2652.3
33
0
14
755.495
24
2652.3
34
0
50
0
100
AcDbRotatedDimension
0
DIMENSION
5
ED
100
AcDbEntity
67
0
8
cotas
6
ByLayer
62
256
370
-1
100
AcDbDimension
2
*D8
10
826.995
20
2656.3
30
0
11
791.995
21
2659.35
31
0
70
32
71
5
42
70
1
<>
73
0
74
0
75
0
3
cotas
100
AcDbAlignedDimension
13
756.995
23
2652.3
33
0
14
826.995
24
2652.3
34
0
50
0
100
AcDbRotatedDimension
0
DIMENSION
5
F9
100
AcDbEntity
67
0
8
cotas
6
ByLayer
62
256
370
-1
100
AcDbDimension
2
*D9
10
822.995
20
2713.8
30
0
11
819.945
21
2698.8
31
0
70
32
71
5
42
30
1
<>
73
0
74
0
75
0
3
cotas
100
AcDbAlignedDimension
13
826.995
23
2683.8
33
0
14
826.995
24
2713.8
34
0
50
90
100
AcDbRotatedDimension
0
DIMENSION
5
105
100
AcDbEntity
67
0
8
cotas
6
ByLayer
62
256
370
-1
100
AcDbDimension
2
*D10
10
822.995
20
2746.3
30
0
11
819.945
21
2730.8
31
0
70
32
71
5
42
31
1
<>
73
0
74
0
75
0
3
cotas
100
AcDbAlignedDimension
13
826.995
23
2715.3
33
0
14
826.995
24
2746.3
34
0
50
90
100
AcDbRotatedDimension
0
DIMENSION
5
111
100
AcDbEntity
67
0
8
cotas
6
ByLayer
62
256
370
-1
100
AcDbDimension
2
*D11
10
822.995
20
2682.3
30
0
11
819.945
21
2667.3
31
0
70
32
71
5
42
30
1
<>
73
0
74
0
75
0
3
cotas
100
AcDbAlignedDimension
13
826.995
23
2652.3
33
0
14
826.995
24
2682.3
34
0
50
90
100
AcDbRotatedDimension
0
DIMENSION
5
11D
100
AcDbEntity
67
0
8
cotas
6
ByLayer
62
256
370
-1
100
AcDbDimension
2
*D12
10
822.995
20
2650.8
30
0
11
819.945
21
2635.8
31
0
70
32
71
5
42
30
1
<>
73
0
74
0
75
0
3
cotas
100
AcDbAlignedDimension
13
826.995
23
2620.8
33
0
14
826.995
24
2650.8
34
0
50
90
100
AcDbRotatedDimension
0
DIMENSION
5
129
100
AcDbEntity
67
0
8
cotas
6
ByLayer
62
256
370
-1
100
AcDbDimension
2
*D13
10
822.995
20
2619.3
30
0
11
819.945
21
2604.3
31
0
70
32
71
5
42
30
1
<>
73
0
74
0
75
0
3
cotas
100
AcDbAlignedDimension
13
826.995
23
2589.3
33
0
14
826.995
24
2619.3
34
0
50
90
100
AcDbRotatedDimension
0
DIMENSION
5
135
100
AcDbEntity
67
0
8
cotas
6
ByLayer
62
256
370
-1
100
AcDbDimension
2
*D14
10
822.995
20
2587.8
30
0
11
819.945
21
2559.55
31
0
70
32
71
5
42
56.5
1
<>
73
0
74
0
75
0
3
cotas
100
AcDbAlignedDimension
13
826.995
23
2531.3
33
0
14
826.995
24
2587.8
34
0
50
90
100
AcDbRotatedDimension
0
DIMENSION
5
14D
100
AcDbEntity
67
0
8
cotas
6
ByLayer
62
256
370
-1
100
AcDbDimension
2
*D15
10
612.495
20
2545.8
30
0
11
609.445
21
2538.55
31
0
70
32
71
5
42
14.5
1
<>
73
0
74
0
75
0
3
cotas
100
AcDbAlignedDimension
13
617.495
23
2531.3
33
0
14
617.495
24
2545.8
34
0
50
90
100
AcDbRotatedDimension
0
DIMENSION
5
159
100
AcDbEntity
67
0
8
cotas
6
ByLayer
62
256
370
-1
100
AcDbDimension
2
*D16
10
612.495
20
2568.8
30
0
11
609.445
21
2557.3
31
0
70
32
71
5
42
23
1
<>
73
0
74
0
75
0
3
cotas
100
AcDbAlignedDimension
13
617.495
23
2545.8
33
0
14
617.495
24
2568.8
34
0
50
90
100
AcDbRotatedDimension
0
DIMENSION
5
165
100
AcDbEntity
67
0
8
cotas
6
ByLayer
62
256
370
-1
100
AcDbDimension
2
*D17
10
612.495
20
2591.8
30
0
11
609.445
21
2580.3
31
0
70
32
71
5
42
23
1
<>
73
0
74
0
75
0
3
cotas
100
AcDbAlignedDimension
13
617.495
23
2568.8
33
0
14
617.495
24
2591.8
34
0
50
90
100
AcDbRotatedDimension
0
DIMENSION
5
171
100
AcDbEntity
67
0
8
cotas
6
ByLayer
62
256
370
-1
100
AcDbDimension
2
*D18
10
612.495
20
2614.8
30
0
11
609.445
21
2603.3
31
0
70
32
71
5
42
23
1
<>
73
0
74
0
75
0
3
cotas
100
AcDbAlignedDimension
13
617.495
23
2591.8
33
0
14
617.495
24
2614.8
34
0
50
90
100
AcDbRotatedDimension
0
DIMENSION
5
17D
100
AcDbEntity
67
0
8
cotas
6
ByLayer
62
256
370
-1
100
AcDbDimension
2
*D19
10
612.495
20
2637.8
30
0
11
609.445
21
2626.3
31
0
70
32
71
5
42
23
1
<>
73
0
74
0
75
0
3
cotas
100
AcDbAlignedDimension
13
617.495
23
2614.8
33
0
14
617.495
24
2637.8
34
0
50
90
100
AcDbRotatedDimension
0
DIMENSION
5
189
100
AcDbEntity
67
0
8
cotas
6
ByLayer
62
256
370
-1
100
AcDbDimension
2
*D20
10
604.913
20
2746.3
30
0
11
601.863
21
2699.3
31
0
70
32
71
5
42
94
1
<>
73
0
74
0
75
0
3
cotas
100
AcDbAlignedDimension
13
615.995
23
2652.3
33
0
14
615.995
24
2746.3
34
0
50
90
100
AcDbRotatedDimension
0
DIMENSION
5
195
100
AcDbEntity
67
0
8
cotas
6
ByLayer
62
256
370
-1
100
AcDbDimension
2
*D21
10
1240.62
20
2801.3
30
0
11
1243.67
21
2666.3
31
0
70
32
71
5
42
270
1
<>
73
0
74
0
75
0
3
cotas
100
AcDbAlignedDimension
13
1230.29
23
2531.3
33
0
14
1230.29
24
2801.3
34
0
50
90
100
AcDbRotatedDimension
0
DIMENSION
5
1A1
100
AcDbEntity
67
0
8
cotas
6
ByLayer
62
256
370
-1
100
AcDbDimension
2
*D22
10
1228.49
20
2808.92
30
0
11
1087.39
21
2811.97
31
0
70
32
71
5
42
282.2
1
<>
73
0
74
0
75
0
3
cotas
100
AcDbAlignedDimension
13
946.295
23
2801.3
33
0
14
1228.49
24
2801.3
34
0
50
0
100
AcDbRotatedDimension
0
DIMENSION
5
1AD
100
AcDbEntity
67
0
8
cotas
6
ByLayer
62
256
370
-1
100
AcDbDimension
2
*D23
10
964.345
20
2797.5
30
0
11
967.395
21
2666
31
0
70
32
71
5
42
263
1
<>
73
0
74
0
75
0
3
cotas
100
AcDbAlignedDimension
13
949.995
23
2534.5
33
0
14
949.995
24
2797.5
34
0
50
90
100
AcDbRotatedDimension
0
DIMENSION
5
1B9
100
AcDbEntity
67
0
8
cotas
6
ByLayer
62
256
370
-1
100
AcDbDimension
2
*D24
10
1014.99
20
2785.42
30
0
11
982.495
21
2782.37
31
0
70
32
71
5
42
65
1
<>
73
0
74
0
75
0
3
cotas
100
AcDbAlignedDimension
13
949.995
23
2797.5
33
0
14
1014.99
24
2797.5
34
0
50
0
100
AcDbRotatedDimension
0
DIMENSION
5
1C5
100
AcDbEntity
67
0
8
cotas
6
ByLayer
62
256
370
-1
100
AcDbDimension
2
*D25
10
937.469
20
2801.3
30
0
11
934.419
21
2671.8
31
0
70
32
71
5
42
259
1
<>
73
0
74
0
75
0
3
cotas
100
AcDbAlignedDimension
13
944.495
23
2542.3
33
0
14
944.495
24
2801.3
34
0
50
90
100
AcDbRotatedDimension
0
TEXT
5
1C7
100
AcDbEntity
67
0
8
cotas
6
ByLayer
62
256
370
-1
100
AcDbText
10
635.25
20
2709.44
30
0
40
5
1
P=55.0cm
50
0
7
Standard
72
0
11
635.25
21
2709.44
31
0
100
AcDbText
73
0
0
DIMENSION
5
1CF
100
AcDbEntity
67
0
8
cotas
6
ByLayer
62
256
370
-1
100
AcDbDimension
2
*D26
10
924.801
20
2568.8
30
0
11
925.064
21
2569.59
31
0
70
36
71
6
42
23.5369
1
P=8cm
73
0
74
0
75
0
3
cotas
100
AcDbRadialDimension
15
944.495
25
2555.92
35
0
40
0
0
DIMENSION
5
1D7
100
AcDbEntity
67
0
8
cotas
6
ByLayer
62
256
370
-1
100
AcDbDimension
2
*D27
10
1041.86
20
2546.16
30
0
11
1043.01
21
2547.3
31
0
70
36
71
4
42
17.0408
1
P=8cm
73
0
74
0
75
0
3
cotas
100
AcDbRadialDimension
15
1030.92
25
2533.1
35
0
40
0
0
DIMENSION
5
1E7
100
AcDbEntity
67
0
8
cotas
6
ByLayer
62
256
370
-1
100
AcDbDimension
2
*D28
10
1211.4
20
2751.94
30
0
11
1212.86
21
2752.92
31
0
70
36
71
6
42
22.7434
1
P=64cm
73
0
74
0
75
0
3
cotas
100
AcDbRadialDimension
15
1230.29
25
2739.29
35
0
40
0
0
DIMENSION
5
1EF
100
AcDbEntity
67
0
8
cotas
6
ByLayer
62
256
370
-1
100
AcDbDimension
2
*D29
10
1194.85
20
2783.1
30
0
11
1193.39
21
2785.04
31
0
70
36
71
4
42
24.602
1
P=8cm
73
0
74
0
75
0
3
cotas
100
AcDbRadialDimension
15
1178.3
25
2801.3
35
0
40
0
0
INSERT
5
24E
100
AcDbEntity
67
0
8
formato
6
ByLayer
62
256
370
-1
100
AcDbBlockReference
66
1
2
formato_a1
10
457.794
20
2270.21
30
0
41
1
42
1
43
1
50
0
0
ATTRIB
5
24F
100
AcDbEntity
67
0
8
0
6
ByLayer
62
0
370
-1
100
AcDbText
10
1170.22
20
2310.21
30
0
40
3
1
Mveis
50
360
7
Standard
72
1
11
1170.22
21
2310.21
31
0
100
AcDbAttribute
2
discipline
70
0
74
2
0
ATTRIB
5
250
100
AcDbEntity
67
0
8
0
6
ByLayer
62
0
370
-1
100
AcDbText
10
1170.22
20
2301.21
30
0
40
5
1
Armrio Quarto 3
50
360
7
Standard
72
1
11
1170.22
21
2301.21
31
0
100
AcDbAttribute
2
title
70
0
74
2
0
ATTRIB
5
251
100
AcDbEntity
67
0
8
0
6
ByLayer
62
0
370
-1
100
AcDbText
10
1170.22
20
2292.21
30
0
40
3
1
Detalhes
50
360
7
Standard
72
1
11
1170.22
21
2292.21
31
0
100
AcDbAttribute
2
type
70
0
74
2
0
ATTRIB
5
252
100
AcDbEntity
67
0
8
0
6
ByLayer
62
0
370
-1
100
AcDbText
10
1170.22
20
2322.21
30
0
40
3
1
Chegada Bianca
50
360
7
Standard
72
1
11
1170.22
21
2322.21
31
0
100
AcDbAttribute
2
project
70
0
74
2
0
ATTRIB
5
253
100
AcDbEntity
67
0
8
0
6
ByLayer
62
0
370
-1
100
AcDbText
10
1255.22
20
2318.21
30
0
40
5
1
CZ-1234
50
360
7
Standard
72
1
11
1255.22
21
2318.21
31
0
100
AcDbAttribute
2
id
70
0
74
2
0
ATTRIB
5
254
100
AcDbEntity
67
0
8
0
6
ByLayer
62
0
370
-1
100
AcDbText
10
1247.22
20
2307.21
30
0
40
3
1
0
50
360
7
Standard
72
0
11
1247.22
21
2307.21
31
0
100
AcDbAttribute
2
rev
70
0
74
2
0
ATTRIB
5
255
100
AcDbEntity
67
0
8
0
6
ByLayer
62
0
370
-1
100
AcDbText
10
1255.22
20
2292.21
30
0
40
3
1
1
50
360
7
Standard
72
1
11
1255.22
21
2292.21
31
0
100
AcDbAttribute
2
sheet
70
0
74
2
0
ATTRIB
5
256
100
AcDbEntity
67
0
8
0
6
ByLayer
62
0
370
-1
100
AcDbText
10
1275.22
20
2292.21
30
0
40
3
1
1
50
360
7
Standard
72
1
11
1275.22
21
2292.21
31
0
100
AcDbAttribute
2
sheets
70
0
74
2
0
ATTRIB
5
257
100
AcDbEntity
67
0
8
0
6
ByLayer
62
0
370
-1
100
AcDbText
10
1090.22
20
2290.46
30
0
40
3
1
-
50
360
7
Standard
72
1
11
1090.22
21
2290.46
31
0
100
AcDbAttribute
2
aprov_date
70
0
74
2
0
ATTRIB
5
258
100
AcDbEntity
67
0
8
0
6
ByLayer
62
0
370
-1
100
AcDbText
10
1088.22
20
2301.71
30
0
40
3
1

50
360
7
Standard
72
0
11
1088.22
21
2301.71
31
0
100
AcDbAttribute
2
aprov
70
0
74
2
0
ATTRIB
5
259
100
AcDbEntity
67
0
8
0
6
ByLayer
62
0
370
-1
100
AcDbText
10
1088.22
20
2312.96
30
0
40
3
1

50
360
7
Standard
72
0
11
1088.22
21
2312.96
31
0
100
AcDbAttribute
2
check
70
0
74
2
0
ATTRIB
5
25A
100
AcDbEntity
67
0
8
0
6
ByLayer
62
0
370
-1
100
AcDbText
10
1088.22
20
2324.21
30
0
40
3
1

50
360
7
Standard
72
0
11
1088.22
21
2324.21
31
0
100
AcDbAttribute
2
view
70
0
74
2
0
ATTRIB
5
25B
100
AcDbEntity
67
0
8
0
6
ByLayer
62
0
370
-1
100
AcDbText
10
1040.22
20
2290.46
30
0
40
3
1
Catarine
50
360
7
Standard
72
1
11
1040.22
21
2290.46
31
0
100
AcDbAttribute
2
client
70
0
74
2
0
ATTRIB
5
25C
100
AcDbEntity
67
0
8
0
6
ByLayer
62
0
370
-1
100
AcDbText
10
985.223
20
2290.46
30
0
40
3
1
14/03/2022
50
360
7
Standard
72
1
11
985.223
21
2290.46
31
0
100
AcDbAttribute
2
design_date
70
0
74
2
0
ATTRIB
5
25D
100
AcDbEntity
67
0
8
0
6
ByLayer
62
0
370
-1
100
AcDbText
10
983.223
20
2301.71
30
0
40
3
1

50
360
7
Standard
72
0
11
983.223
21
2301.71
31
0
100
AcDbAttribute
2
quality
70
0
74
2
0
ATTRIB
5
25E
100
AcDbEntity
67
0
8
0
6
ByLayer
62
0
370
-1
100
AcDbText
10
983.223
20
2312.96
30
0
40
3
1

50
360
7
Standard
72
0
11
983.223
21
2312.96
31
0
100
AcDbAttribute
2
drawn
70
0
74
2
0
ATTRIB
5
25F
100
AcDbEntity
67
0
8
0
6
ByLayer
62
0
370
-1
100
AcDbText
10
983.223
20
2324.21
30
0
40
3
1
Ezequiel
50
360
7
Standard
72
0
11
983.223
21
2324.21
31
0
100
AcDbAttribute
2
design
70
0
74
2
0
SEQEND
5
260
100
AcDbEntity
8
0
0
LWPOLYLINE
5
262
100
AcDbEntity
67
0
8
gavetas
6
ByLayer
62
256
370
-1
100
AcDbPolyline
90
4
70
1
10
607.089
20
2450.79
30
0
42
0
10
613.089
20
2450.79
30
0
42
0
10
613.089
20
2370.79
30
0
42
0
10
607.089
20
2370.79
30
0
0
LWPOLYLINE
5
263
100
AcDbEntity
67
0
8
gavetas
6
ByLayer
62
256
370
-1
100
AcDbPolyline
90
4
70
1
10
866.689
20
2450.79
30
0
42
0
10
860.689
20
2450.79
30
0
42
0
10
860.689
20
2370.79
30
0
42
0
10
866.689
20
2370.79
30
0
0
LWPOLYLINE
5
264
100
AcDbEntity
67
0
8
gavetas
6
ByLayer
62
256
370
-1
100
AcDbPolyline
90
4
70
1
10
613.089
20
2370.79
30
0
42
0
10
860.689
20
2370.79
30
0
42
0
10
860.689
20
2376.79
30
0
42
0
10
613.089
20
2376.79
30
0
0
LWPOLYLINE
5
265
100
AcDbEntity
67
0
8
gavetas
6
ByLayer
62
256
370
-1
100
AcDbPolyline
90
4
70
1
10
613.089
20
2450.79
30
0
42
0
10
860.689
20
2450.79
30
0
42
0
10
860.689
20
2376.79
30
0
42
0
10
613.089
20
2376.79
30
0
0
DIMENSION
5
272
100
AcDbEntity
67
0
8
cotas
6
ByLayer
62
256
370
-1
100
AcDbDimension
2
*D30
10
595.621
20
2450.79
30
0
11
592.571
21
2410.79
31
0
70
32
71
5
42
80
1
<>
73
0
74
0
75
0
3
cotas_esc
100
AcDbAlignedDimension
13
607.089
23
2370.79
33
0
14
607.089
24
2450.79
34
0
50
90
100
AcDbRotatedDimension
0
DIMENSION
5
27E
100
AcDbEntity
67
0
8
cotas
6
ByLayer
62
256
370
-1
100
AcDbDimension
2
*D31
10
860.689
20
2358.05
30
0
11
736.889
21
2355
31
0
70
32
71
5
42
247.6
1
<>
73
0
74
0
75
0
3
cotas_esc
100
AcDbAlignedDimension
13
613.089
23
2370.79
33
0
14
860.689
24
2370.79
34
0
50
0
100
AcDbRotatedDimension
0
DIMENSION
5
28A
100
AcDbEntity
67
0
8
cotas
6
ByLayer
62
256
370
-1
100
AcDbDimension
2
*D32
10
622.118
20
2450.79
30
0
11
625.168
21
2413.79
31
0
70
32
71
5
42
74
1
<>
73
0
74
0
75
0
3
cotas_esc
100
AcDbAlignedDimension
13
613.089
23
2376.79
33
0
14
613.089
24
2450.79
34
0
50
90
100
AcDbRotatedDimension
0
DIMENSION
5
292
100
AcDbEntity
67
0
8
cotas
6
ByLayer
62
256
370
-1
100
AcDbDimension
2
*D33
10
603.238
20
2474.02
30
0
11
587.659
21
2472.71
31
0
70
36
71
6
42
24.2102
1
P=50cm
73
0
74
0
75
0
3
cotas_esc
100
AcDbRadialDimension
15
610.089
25
2450.79
35
0
40
0
0
DIMENSION
5
29A
100
AcDbEntity
67
0
8
cotas
6
ByLayer
62
256
370
-1
100
AcDbDimension
2
*D34
10
732.45
20
2394.08
30
0
11
724.232
21
2390.7
31
0
70
36
71
6
42
17.8478
1
P=50cm
73
0
74
0
75
0
3
cotas_esc
100
AcDbRadialDimension
15
736.889
25
2376.79
35
0
40
0
0
DIMENSION
5
2A2
100
AcDbEntity
67
0
8
cotas
6
ByLayer
62
256
370
-1
100
AcDbDimension
2
*D35
10
873.356
20
2464.9
30
0
11
873.839
21
2463.93
31
0
70
36
71
4
42
17.0976
1
P=50cm
73
0
74
0
75
0
3
cotas_esc
100
AcDbRadialDimension
15
863.689
25
2450.79
35
0
40
0
0
DIMENSION
5
2AA
100
AcDbEntity
67
0
8
cotas
6
ByLayer
62
256
370
-1
100
AcDbDimension
2
*D36
10
740.184
20
2423.08
30
0
11
722.782
21
2461.76
31
0
70
36
71
6
42
27.9053
1
Chapa 15mm
73
0
74
0
75
0
3
cotas_esc
100
AcDbRadialDimension
15
736.889
25
2450.79
35
0
40
0
0
TEXT
5
2AB
100
AcDbEntity
67
0
8
cotas
6
ByLayer
62
256
370
-1
100
AcDbText
10
621.82
20
2482.56
30
0
40
10
1
%%uDetalhe Gavetas
50
0
7
Standard
72
0
11
621.82
21
2482.56
31
0
100
AcDbText
73
0
0
TEXT
5
2AC
100
AcDbEntity
67
0
8
cotas
6
ByLayer
62
256
370
-1
100
AcDbText
10
596.499
20
2826.29
30
0
40
10
1
%%uVista interna
50
0
7
Standard
72
0
11
596.499
21
2826.29
31
0
100
AcDbText
73
0
0
TEXT
5
2AD
100
AcDbEntity
67
0
8
cotas
6
ByLayer
62
256
370
-1
100
AcDbText
10
965.223
20
2825.4
30
0
40
10
1
%%uVista com portas fechadas
50
0
7
Standard
72
0
11
965.223
21
2825.4
31
0
100
AcDbText
73
0
0
ENDSEC
0
SECTION
2
OBJECTS
0
DICTIONARY
5
22
100
AcDbDictionary
281
1
3
ACAD_COLOR
350
23
3
ACAD_GROUP
350
26
3
ACAD_LAYOUT
350
27
3
ACAD_MATERIAL
350
28
3
ACAD_MLINESTYLE
350
29
3
ACAD_PLOTSETTINGS
350
2A
3
ACAD_PLOTSTYLENAME
350
2B
3
ACAD_TABLESTYLE
350
2C
3
AcadDim
350
2D
0
DICTIONARY
5
23
100
AcDbDictionary
0
DICTIONARY
5
26
100
AcDbDictionary
0
DICTIONARY
5
27
100
AcDbDictionary
0
DICTIONARY
5
28
100
AcDbDictionary
0
DICTIONARY
5
29
100
AcDbDictionary
0
DICTIONARY
5
2A
100
AcDbDictionary
0
DICTIONARY
5
2B
100
AcDbDictionary
0
DICTIONARY
5
2C
100
AcDbDictionary
0
DICTIONARY
5
2D
100
AcDbDictionary
0
ENDSEC
0
EOF
