999
CadZinho - Minimalist CAD by Zecruel
0
SECTION
2
HEADER
9
$ACADVER
1
AC1021
9
$HANDSEED
5
398
9
$INSUNITS
70
4
9
$LWDISPLAY
290
1
9
$LTSCALE
40
10
0
ENDSEC
0
SECTION
2
CLASSES
0
ENDSEC
0
SECTION
2
TABLES
0
TABLE
2
VPORT
5
1
100
AcDbSymbolTable
70
1000
0
VPORT
5
25
100
AcDbSymbolTableRecord
100
AcDbViewportTableRecord
2
*ACTIVE
70
0
10
0
20
0
11
1
21
1
12
20
22
320
13
0
23
0
14
100
24
100
15
100
25
100
16
0
26
0
36
1
17
0
27
0
37
0
40
25
41
1.8
42
50
43
0
44
0
50
0
51
0
0
ENDTAB
0
TABLE
2
LTYPE
5
4
100
AcDbSymbolTable
70
1000
0
LTYPE
5
5
100
AcDbSymbolTableRecord
100
AcDbLinetypeTableRecord
2
ByBlock
70
0
3

72
65
73
0
40
0
0
LTYPE
5
6
100
AcDbSymbolTableRecord
100
AcDbLinetypeTableRecord
2
ByLayer
70
0
3

72
65
73
0
40
0
0
LTYPE
5
7
100
AcDbSymbolTableRecord
100
AcDbLinetypeTableRecord
2
Continuous
70
0
3
___________________________________
72
65
73
0
40
0
0
LTYPE
5
8
100
AcDbSymbolTableRecord
100
AcDbLinetypeTableRecord
2
Border
70
0
3
____ . ____ ____ . ____ ____ . ____
72
65
73
6
40
1.75
49
0.5
74
0
49
-0.25
74
0
49
0.5
74
0
49
-0.25
74
0
49
0
74
0
49
-0.25
74
0
0
LTYPE
5
9
100
AcDbSymbolTableRecord
100
AcDbLinetypeTableRecord
2
Center
70
0
3
____ _ ____ _ ____ _ ____ _ ____ _
72
65
73
4
40
2
49
1.25
74
0
49
-0.25
74
0
49
0.25
74
0
49
-0.25
74
0
0
LTYPE
5
A
100
AcDbSymbolTableRecord
100
AcDbLinetypeTableRecord
2
Dashdot
70
0
3
____ . ____ . ____ . ____ . ____ .
72
65
73
4
40
1
49
0.5
74
0
49
-0.25
74
0
49
0
74
0
49
-0.25
74
0
0
LTYPE
5
B
100
AcDbSymbolTableRecord
100
AcDbLinetypeTableRecord
2
Dashed
70
0
3
____ ____ ____ ____ ____ ____ ____
72
65
73
2
40
0.75
49
0.5
74
0
49
-0.25
74
0
0
LTYPE
5
C
100
AcDbSymbolTableRecord
100
AcDbLinetypeTableRecord
2
Divide
70
0
3
____ . . ____ . . ____ . . ____ . .
72
65
73
6
40
1.25
49
0.5
74
0
49
-0.25
74
0
49
0
74
0
49
-0.25
74
0
49
0
74
0
49
-0.25
74
0
0
LTYPE
5
D
100
AcDbSymbolTableRecord
100
AcDbLinetypeTableRecord
2
Dot
70
0
3
. . . . . . . . . . . . . . . . . .
72
65
73
2
40
0.25
49
0
74
0
49
-0.25
74
0
0
LTYPE
5
E
100
AcDbSymbolTableRecord
100
AcDbLinetypeTableRecord
2
Hidden
70
0
3
__ __ __ __ __ __ __ __ __ __ __ __
72
65
73
2
40
0.375
49
0.25
74
0
49
-0.125
74
0
0
LTYPE
5
F
100
AcDbSymbolTableRecord
100
AcDbLinetypeTableRecord
2
Phantom
70
0
3
_____ _ _ _____ _ _ _____ _ _ _____
72
65
73
6
40
2.5
49
1.25
74
0
49
-0.25
74
0
49
0.25
74
0
49
-0.25
74
0
49
0.25
74
0
49
-0.25
74
0
0
ENDTAB
0
TABLE
2
LAYER
5
10
100
AcDbSymbolTable
70
1000
0
LAYER
5
11
100
AcDbSymbolTableRecord
100
AcDbLayerTableRecord
2
0
70
0
62
7
6
Continuous
370
0
390
2B
0
LAYER
5
352
100
AcDbSymbolTableRecord
100
AcDbLayerTableRecord
2
formato
70
0
62
7
6
Continuous
370
0
390
2B
0
ENDTAB
0
TABLE
2
STYLE
5
12
100
AcDbSymbolTable
70
1000
0
STYLE
5
13
100
AcDbSymbolTableRecord
100
AcDbTextStyleTableRecord
2
Standard
70
0
40
0
41
1
50
0
71
0
42
1
3
TXT.SHX
4

0
STYLE
5
24
100
AcDbSymbolTableRecord
100
AcDbTextStyleTableRecord
2

70
1
40
0
41
1
50
0
71
0
42
1
3
LTYPESHP.SHX
4

0
STYLE
5
354
100
AcDbSymbolTableRecord
100
AcDbTextStyleTableRecord
2
ISO
70
0
40
0
41
1
50
0
71
0
42
1
3
ISOCP.SHX
4

0
ENDTAB
0
TABLE
2
VIEW
5
14
100
AcDbSymbolTable
70
0
0
ENDTAB
0
TABLE
2
UCS
5
15
100
AcDbSymbolTable
70
0
0
ENDTAB
0
TABLE
2
APPID
5
16
100
AcDbSymbolTable
70
10
0
APPID
5
17
100
AcDbSymbolTableRecord
100
AcDbRegAppTableRecord
2
ACAD
70
0
0
APPID
5
18
100
AcDbSymbolTableRecord
100
AcDbRegAppTableRecord
2
CADZINHO
70
0
0
ENDTAB
0
TABLE
2
DIMSTYLE
5
19
100
AcDbSymbolTable
70
1
100
AcDbDimStyleTable
71
1
0
DIMSTYLE
105
1A
100
AcDbSymbolTableRecord
100
AcDbDimStyleTableRecord
2
Standard
70
0
340
C
0
ENDTAB
0
TABLE
2
BLOCK_RECORD
5
1B
100
AcDbSymbolTable
70
9999
0
BLOCK_RECORD
5
1C
100
AcDbSymbolTableRecord
100
AcDbBlockTableRecord
2
*Model_Space
70
0
0
BLOCK_RECORD
5
1D
100
AcDbSymbolTableRecord
100
AcDbBlockTableRecord
2
*Paper_Space
70
0
0
ENDTAB
0
ENDSEC
0
SECTION
2
BLOCKS
0
BLOCK
5
1E
100
AcDbEntity
8
0
100
AcDbBlockBegin
2
*Model_Space
70
0
10
0
20
0
30
0
3
*Model_Space
1

0
ENDBLK
5
1F
100
AcDbEntity
8
0
100
AcDbBlockEnd
0
BLOCK
5
20
100
AcDbEntity
8
0
100
AcDbBlockBegin
2
*Paper_Space
70
0
10
0
20
0
30
0
3
*Paper_Space
1

0
ENDBLK
5
21
100
AcDbEntity
8
0
100
AcDbBlockEnd
0
ENDSEC
0
SECTION
2
ENTITIES
0
LINE
5
18A
330
5B19
100
AcDbEntity
8
formato
6
Continuous
62
0
370
40
100
AcDbLine
10
25
20
54.9989
30
0
11
831
21
55.006
31
0
0
LINE
5
18B
330
5B19
100
AcDbEntity
8
formato
6
Continuous
62
0
370
30
100
AcDbLine
10
771
20
17.006
30
0
11
831
21
17.006
31
0
0
LINE
5
18C
330
5B19
100
AcDbEntity
8
formato
6
Continuous
62
0
370
0
100
AcDbLine
10
616.1
20
32.1
30
0
11
656.1
21
32.1
31
0
0
LINE
5
18D
330
5B19
100
AcDbEntity
8
formato
6
Continuous
62
0
370
0
100
AcDbLine
10
616
20
22.1
30
0
11
656
21
22.1
31
0
0
LINE
5
18E
330
5B19
100
AcDbEntity
8
formato
6
Continuous
62
0
370
13
100
AcDbLine
10
25
20
24.999
30
0
11
149.844
21
24.999
31
0
0
LINE
5
18F
330
5B19
100
AcDbEntity
8
formato
6
Continuous
62
0
370
13
100
AcDbLine
10
25
20
34.999
30
0
11
149.844
21
34.999
31
0
0
LINE
5
190
330
5B19
100
AcDbEntity
8
formato
6
Continuous
62
0
370
0
100
AcDbLine
10
67.5
20
24.9989
30
0
11
67.5
21
19.9989
31
0
0
LINE
5
191
330
5B19
100
AcDbEntity
8
formato
6
Continuous
62
0
370
0
100
AcDbLine
10
95
20
24.9989
30
0
11
95
21
19.9989
31
0
0
LINE
5
192
330
5B19
100
AcDbEntity
8
formato
6
Continuous
62
0
370
0
100
AcDbLine
10
122.5
20
24.9989
30
0
11
122.5
21
19.9989
31
0
0
LINE
5
193
330
5B19
100
AcDbEntity
8
formato
6
Continuous
62
0
370
13
100
AcDbLine
10
25
20
44.999
30
0
11
149.844
21
44.999
31
0
0
LINE
5
194
330
5B19
100
AcDbEntity
8
formato
6
Continuous
62
0
370
30
100
AcDbLine
10
40
20
54.9989
30
0
11
40
21
19.9979
31
0
0
LINE
5
195
330
5B19
100
AcDbEntity
8
formato
6
Continuous
62
0
370
0
100
AcDbLine
10
39.844
20
40.258
30
0
11
149.844
21
40.258
31
0
0
LINE
5
196
330
5B19
100
AcDbEntity
8
formato
6
Continuous
62
0
370
0
100
AcDbLine
10
122.5
20
44.9989
30
0
11
122.5
21
40.2579
31
0
0
LINE
5
197
330
5B19
100
AcDbEntity
8
formato
6
Continuous
62
0
370
0
100
AcDbLine
10
95
20
44.9989
30
0
11
95
21
40.2579
31
0
0
LINE
5
198
330
5B19
100
AcDbEntity
8
formato
6
Continuous
62
0
370
0
100
AcDbLine
10
67.5
20
44.9989
30
0
11
67.5
21
40.2579
31
0
0
LINE
5
199
330
5B19
100
AcDbEntity
8
formato
6
Continuous
62
0
370
0
100
AcDbLine
10
39.844
20
49.999
30
0
11
149.844
21
49.999
31
0
0
LINE
5
19A
330
5B19
100
AcDbEntity
8
formato
6
Continuous
62
0
370
0
100
AcDbLine
10
39.844
20
30.258
30
0
11
149.844
21
30.258
31
0
0
LINE
5
19B
330
5B19
100
AcDbEntity
8
formato
6
Continuous
62
0
370
0
100
AcDbLine
10
122.5
20
34.9989
30
0
11
122.5
21
30.2579
31
0
0
LINE
5
19C
330
5B19
100
AcDbEntity
8
formato
6
Continuous
62
0
370
0
100
AcDbLine
10
95
20
34.9989
30
0
11
95
21
30.2579
31
0
0
LINE
5
19D
330
5B19
100
AcDbEntity
8
formato
6
Continuous
62
0
370
0
100
AcDbLine
10
67.5
20
34.9989
30
0
11
67.5
21
30.2579
31
0
0
LINE
5
19E
330
5B19
100
AcDbEntity
8
formato
6
Continuous
62
0
370
30
100
AcDbLine
10
771
20
55.006
30
0
11
771
21
10.006
31
0
0
LINE
5
19F
330
5B19
100
AcDbEntity
8
formato
6
Continuous
62
0
370
30
100
AcDbLine
10
656
20
55
30
0
11
656
21
10
31
0
0
LINE
5
1A0
330
5B19
100
AcDbEntity
8
formato
6
Continuous
62
0
370
30
100
AcDbLine
10
510
20
55
30
0
11
510
21
10
31
0
0
LINE
5
1A1
330
5B19
100
AcDbEntity
8
formato
6
Continuous
62
0
370
30
100
AcDbLine
10
823
20
55.006
30
0
11
823
21
10.006
31
0
0
LINE
5
1A2
330
5B19
100
AcDbEntity
8
formato
6
Continuous
62
0
370
0
100
AcDbLine
10
510
20
30
30
0
11
656.1
21
30
31
0
0
LINE
5
1A3
330
5B19
100
AcDbEntity
8
formato
6
Continuous
62
0
370
0
100
AcDbLine
10
67.5
20
54.9989
30
0
11
67.5
21
49.9989
31
0
0
LINE
5
1A4
330
5B19
100
AcDbEntity
8
formato
6
Continuous
62
0
370
0
100
AcDbLine
10
95
20
54.9989
30
0
11
95
21
49.9989
31
0
0
LINE
5
1A5
330
5B19
100
AcDbEntity
8
formato
6
Continuous
62
0
370
0
100
AcDbLine
10
122.5
20
54.9989
30
0
11
122.5
21
49.9989
31
0
0
LINE
5
1A6
330
5B19
100
AcDbEntity
8
formato
6
Continuous
62
0
370
30
100
AcDbLine
10
150
20
54.9989
30
0
11
150
21
10.1629
31
0
0
LWPOLYLINE
5
1A7
330
5B19
100
AcDbEntity
8
formato
6
Continuous
62
0
370
40
100
AcDbPolyline
90
5
70
129
43
0
10
25
20
10
10
831
20
10
10
831
20
584
10
25
20
584
10
25
20
10
0
LINE
5
1A8
330
5B19
100
AcDbEntity
8
formato
6
Continuous
62
0
370
0
100
AcDbLine
10
10
20
60
30
0
11
10
21
20
31
0
0
LINE
5
1A9
330
5B19
100
AcDbEntity
8
formato
6
Continuous
62
0
370
0
100
AcDbLine
10
15
20
60
30
0
11
15
21
20
31
0
0
LINE
5
1AA
330
5B19
100
AcDbEntity
8
formato
6
Continuous
62
0
370
0
100
AcDbLine
10
20
20
60
30
0
11
20
21
20
31
0
0
LINE
5
1AB
330
5B19
100
AcDbEntity
8
formato
6
Continuous
62
0
370
0
100
AcDbLine
10
10
20
65
30
0
11
10
21
245
31
0
0
LINE
5
1AC
330
5B19
100
AcDbEntity
8
formato
6
Continuous
62
0
370
0
100
AcDbLine
10
15
20
65
30
0
11
15
21
245
31
0
0
LINE
5
1AD
330
5B19
100
AcDbEntity
8
formato
6
Continuous
62
0
370
0
100
AcDbLine
10
20
20
65
30
0
11
20
21
245
31
0
0
LINE
5
1AE
330
5B19
100
AcDbEntity
8
formato
6
Continuous
62
0
370
0
100
AcDbLine
10
5
20
80
30
0
11
20
21
80
31
0
0
LINE
5
1AF
330
5B19
100
AcDbEntity
8
formato
6
Continuous
62
0
370
0
100
AcDbLine
10
5
20
95
30
0
11
20
21
95
31
0
0
LINE
5
1B0
330
5B19
100
AcDbEntity
8
formato
6
Continuous
62
0
370
0
100
AcDbLine
10
5
20
110
30
0
11
20
21
110
31
0
0
LINE
5
1B1
330
5B19
100
AcDbEntity
8
formato
6
Continuous
62
0
370
0
100
AcDbLine
10
5
20
125
30
0
11
20
21
125
31
0
0
LINE
5
1B2
330
5B19
100
AcDbEntity
8
formato
6
Continuous
62
0
370
0
100
AcDbLine
10
5
20
140
30
0
11
20
21
140
31
0
0
LINE
5
1B3
330
5B19
100
AcDbEntity
8
formato
6
Continuous
62
0
370
0
100
AcDbLine
10
5
20
155
30
0
11
20
21
155
31
0
0
LINE
5
1B4
330
5B19
100
AcDbEntity
8
formato
6
Continuous
62
0
370
0
100
AcDbLine
10
5
20
170
30
0
11
20
21
170
31
0
0
LINE
5
1B5
330
5B19
100
AcDbEntity
8
formato
6
Continuous
62
0
370
0
100
AcDbLine
10
5
20
185
30
0
11
20
21
185
31
0
0
LINE
5
1B6
330
5B19
100
AcDbEntity
8
formato
6
Continuous
62
0
370
0
100
AcDbLine
10
5
20
200
30
0
11
20
21
200
31
0
0
LINE
5
1B7
330
5B19
100
AcDbEntity
8
formato
6
Continuous
62
0
370
0
100
AcDbLine
10
5
20
215
30
0
11
20
21
215
31
0
0
LINE
5
1B8
330
5B19
100
AcDbEntity
8
formato
6
Continuous
62
0
370
0
100
AcDbLine
10
5
20
230
30
0
11
20
21
230
31
0
0
LWPOLYLINE
5
1B9
330
5B19
100
AcDbEntity
8
formato
6
Continuous
62
0
370
0
100
AcDbPolyline
90
5
70
129
43
0
10
5
20
65
10
25
20
65
10
25
20
245
10
5
20
245
10
5
20
65
0
LWPOLYLINE
5
1BA
330
5B19
100
AcDbEntity
8
formato
6
Continuous
62
0
370
0
100
AcDbPolyline
90
5
70
129
43
0
10
0
20
0
10
841
20
0
10
841
20
594
10
0
20
594
10
0
20
0
0
LINE
5
1BB
330
5B19
100
AcDbEntity
8
formato
6
Dashed
62
0
370
0
100
AcDbLine
10
0
20
297
30
0
11
25
21
297
31
0
0
LINE
5
1BC
330
5B19
100
AcDbEntity
8
formato
6
Continuous
62
0
370
0
100
AcDbLine
10
656
20
10
30
0
11
656
21
0
31
0
0
LINE
5
1BD
330
5B19
100
AcDbEntity
8
formato
6
Continuous
62
0
370
30
100
AcDbLine
10
616
20
10
30
0
11
616
21
55
31
0
0
LINE
5
1BE
330
5B19
100
AcDbEntity
8
formato
6
Continuous
62
0
370
0
100
AcDbLine
10
5
20
19.999
30
0
11
25
21
19.999
31
0
0
LINE
5
1BF
330
5B19
100
AcDbEntity
8
formato
6
Continuous
62
0
370
13
100
AcDbLine
10
25
20
19.999
30
0
11
149.844
21
19.999
31
0
0
LWPOLYLINE
5
1C0
330
5B19
100
AcDbEntity
8
formato
6
Continuous
62
0
370
0
100
AcDbPolyline
90
4
70
128
43
0
10
25
20
10
10
5
20
10
10
5
20
60
10
25
20
60
0
LINE
5
1C1
330
5B19
100
AcDbEntity
8
formato
6
Continuous
62
0
370
0
100
AcDbLine
10
563
20
39.582
30
0
11
563
21
10
31
0
0
LWPOLYLINE
5
1C3
330
5B19
100
AcDbEntity
8
formato
6
Continuous
62
0
370
0
100
AcDbPolyline
90
4
70
129
43
0
10
657.5
20
9
10
657.5
20
1
10
660.5
20
1
10
657.5
20
9
0
LWPOLYLINE
5
1C4
330
5B19
100
AcDbEntity
8
formato
6
Continuous
62
0
370
0
100
AcDbPolyline
90
4
70
129
43
0
10
654.5
20
9
10
654.5
20
1
10
651.5
20
1
10
654.5
20
9
0
LINE
5
1C5
330
5B19
100
AcDbEntity
8
formato
6
Continuous
62
0
370
0
100
AcDbLine
10
471
20
10
30
0
11
471
21
0
31
0
0
LWPOLYLINE
5
1C6
330
5B19
100
AcDbEntity
8
formato
6
Continuous
62
0
370
0
100
AcDbPolyline
90
4
70
129
43
0
10
472.5
20
9
10
472.5
20
1
10
475.5
20
1
10
472.5
20
9
0
LWPOLYLINE
5
1C7
330
5B19
100
AcDbEntity
8
formato
6
Continuous
62
0
370
0
100
AcDbPolyline
90
4
70
129
43
0
10
469.5
20
9
10
469.5
20
1
10
466.5
20
1
10
469.5
20
9
0
LWPOLYLINE
5
1C8
330
5B19
100
AcDbEntity
8
formato
6
Continuous
62
0
370
0
100
AcDbPolyline
90
4
70
129
43
0
10
342.5
20
9
10
342.5
20
1
10
345.5
20
1
10
342.5
20
9
0
LINE
5
1C9
330
5B19
100
AcDbEntity
8
formato
6
Continuous
62
0
370
0
100
AcDbLine
10
341
20
10
30
0
11
341
21
0
31
0
0
LWPOLYLINE
5
1CA
330
5B19
100
AcDbEntity
8
formato
6
Continuous
62
0
370
0
100
AcDbPolyline
90
4
70
129
43
0
10
339.5
20
9
10
339.5
20
1
10
336.5
20
1
10
339.5
20
9
0
LWPOLYLINE
5
1CB
330
5B19
100
AcDbEntity
8
formato
6
Continuous
62
0
370
0
100
AcDbPolyline
90
4
70
129
43
0
10
212.5
20
9
10
212.5
20
1
10
215.5
20
1
10
212.5
20
9
0
LINE
5
1CC
330
5B19
100
AcDbEntity
8
formato
6
Continuous
62
0
370
0
100
AcDbLine
10
211
20
10
30
0
11
211
21
0
31
0
0
LWPOLYLINE
5
1CD
330
5B19
100
AcDbEntity
8
formato
6
Continuous
62
0
370
0
100
AcDbPolyline
90
4
70
129
43
0
10
209.5
20
9
10
209.5
20
1
10
206.5
20
1
10
209.5
20
9
0
TEXT
5
1CE
330
5B19
100
AcDbEntity
8
formato
6
Continuous
62
0
370
0
100
AcDbText
10
616.629
20
37.1448
30
0
40
1.8
1
VISTO
7
ISO
11
616.629
21
38.9448
31
0
100
AcDbText
73
3
0
TEXT
5
1CF
330
5B19
100
AcDbEntity
8
formato
6
Continuous
62
0
370
0
100
AcDbText
10
616.629
20
27.1448
30
0
40
1.8
1
APROV.
7
ISO
11
616.629
21
28.9448
31
0
100
AcDbText
73
3
0
TEXT
5
1D0
330
5B19
100
AcDbEntity
8
formato
6
Continuous
62
0
370
0
100
AcDbText
10
616.629
20
17.1448
30
0
40
1.8
1
DATA
7
ISO
11
616.629
21
18.9448
31
0
100
AcDbText
73
3
0
TEXT
5
1D1
330
5B19
100
AcDbEntity
8
formato
6
Continuous
62
0
370
0
100
AcDbText
10
618.206
20
30.3
30
0
40
1.5
1
ASSIN.
7
ISO
72
1
11
621.075
21
31.05
31
0
100
AcDbText
73
2
0
TEXT
5
1D2
330
5B19
100
AcDbEntity
8
formato
6
Continuous
62
0
370
0
100
AcDbText
10
639.207
20
30.3
30
0
40
1.5
1
MATRIC.
7
ISO
72
1
11
642.6
21
31.05
31
0
100
AcDbText
73
2
0
TEXT
5
1D3
330
5B19
100
AcDbEntity
8
formato
6
Continuous
62
0
370
0
100
AcDbText
10
640.207
20
20.3
30
0
40
1.5
1
MATRIC.
7
ISO
72
1
11
643.6
21
21.05
31
0
100
AcDbText
73
2
0
TEXT
5
1D4
330
5B19
100
AcDbEntity
8
formato
6
Continuous
62
0
370
0
100
AcDbText
10
618.206
20
20.3
30
0
40
1.5
1
ASSIN.
7
ISO
72
1
11
621.075
21
21.05
31
0
100
AcDbText
73
2
0
TEXT
5
1D5
330
5B19
100
AcDbEntity
8
formato
6
Continuous
62
0
370
0
100
AcDbText
10
774.196
20
36.006
30
0
40
1.5
1
No.
7
ISO
72
1
11
775.494
21
36.756
31
0
100
AcDbText
73
2
0
TEXT
5
1D6
330
5B19
100
AcDbEntity
8
formato
6
Continuous
62
0
370
0
100
AcDbText
10
775.038
20
14.006
30
0
40
1.5
1
FOLHA
7
ISO
72
1
11
777.544
21
14.756
31
0
100
AcDbText
73
2
0
TEXT
5
1D7
330
5B19
100
AcDbEntity
8
formato
6
Continuous
62
0
370
0
100
AcDbText
10
824.203
20
13.006
30
0
40
1.5
1
ARQ.
7
ISO
72
1
11
826.025
21
13.756
31
0
100
AcDbText
73
2
0
TEXT
5
1D8
330
5B19
100
AcDbEntity
8
formato
6
Continuous
62
0
370
0
100
AcDbText
10
51.057
20
22
30
0
40
1.998
1
DATA
7
ISO
72
1
11
53.6973
21
22.999
31
0
100
AcDbText
73
2
0
TEXT
5
1D9
330
5B19
100
AcDbEntity
8
formato
6
Continuous
62
0
370
0
100
AcDbText
10
78.0585
20
22
30
0
40
1.998
1
FEITO
7
ISO
72
1
11
81.3964
21
22.999
31
0
100
AcDbText
73
2
0
TEXT
5
1DA
330
5B19
100
AcDbEntity
8
formato
6
Continuous
62
0
370
0
100
AcDbText
10
106.058
20
22
30
0
40
1.998
1
VISTO
7
ISO
72
1
11
109.396
21
22.999
31
0
100
AcDbText
73
2
0
TEXT
5
1DB
330
5B19
100
AcDbEntity
8
formato
6
Continuous
62
0
370
0
100
AcDbText
10
133.274
20
22
30
0
40
1.998
1
APROV.
7
ISO
72
1
11
137.096
21
22.999
31
0
100
AcDbText
73
2
0
TEXT
5
1DC
330
5B19
100
AcDbEntity
8
formato
6
Continuous
62
0
370
0
100
AcDbText
10
69.0213
20
13
30
0
40
3.996
1
ALTERAÇÕES
7
ISO
72
1
11
82.7853
21
14.998
31
0
100
AcDbText
73
2
0
TEXT
5
1DD
330
5B19
100
AcDbEntity
8
formato
6
Continuous
62
0
370
0
100
AcDbText
10
31.9579
20
28.748
30
0
40
3
1
a
7
ISO
72
1
11
32.6364
21
30.248
31
0
100
AcDbText
73
2
0
TEXT
5
1DE
330
5B19
100
AcDbEntity
8
formato
6
Continuous
62
0
370
0
100
AcDbText
10
31.958
20
38.748
30
0
40
3
1
b
7
ISO
72
1
11
32.6366
21
40.248
31
0
100
AcDbText
73
2
0
TEXT
5
1DF
330
5B19
100
AcDbEntity
8
formato
6
Continuous
62
0
370
0
100
AcDbText
10
32.0989
20
48.748
30
0
40
3
1
c
7
ISO
72
1
11
32.8489
21
50.248
31
0
100
AcDbText
73
2
0
TEXT
5
1E0
330
5B19
100
AcDbEntity
8
formato
6
Continuous
62
0
370
0
100
AcDbText
10
8
20
67
30
0
40
1.5
1
DISTR.
50
90
7
ISO
11
7.25
21
67
31
0
100
AcDbText
73
2
0
TEXT
5
1E1
330
5B19
100
AcDbEntity
8
formato
6
Continuous
62
0
370
0
100
AcDbText
10
13
20
67
30
0
40
1.5
1
QTDE/TIPO
50
90
7
ISO
11
12.25
21
67
31
0
100
AcDbText
73
2
0
TEXT
5
1E2
330
5B19
100
AcDbEntity
8
formato
6
Continuous
62
0
370
0
100
AcDbText
10
18
20
67
30
0
40
1.5
1
ÓRGÃO
50
90
7
ISO
11
17.25
21
67
31
0
100
AcDbText
73
2
0
TEXT
5
1E3
330
5B19
100
AcDbEntity
8
formato
6
Continuous
62
0
370
0
100
AcDbText
10
24
20
132.046
30
0
40
1.998
1
DISTRIBUIÇÃO AUTOMÁTICA DE CÓPIAS
50
90
7
ISO
72
1
11
23.001
21
154.975
31
0
100
AcDbText
73
2
0
TEXT
5
1E4
330
5B19
100
AcDbEntity
8
formato
6
Continuous
62
0
370
0
100
AcDbText
10
31.0555
20
22
30
0
40
1.998
1
REV
7
ISO
72
1
11
32.998
21
22.999
31
0
100
AcDbText
73
2
0
TEXT
5
1E5
330
5B19
100
AcDbEntity
8
formato
6
Continuous
62
0
370
0
100
AcDbText
10
512
20
36
30
0
40
2.244
1
PROJ.
7
ISO
100
AcDbText
0
TEXT
5
1E6
330
5B19
100
AcDbEntity
8
formato
6
Continuous
62
0
370
0
100
AcDbText
10
512
20
26
30
0
40
2.244
1
DES.
7
ISO
100
AcDbText
0
TEXT
5
1E7
330
5B19
100
AcDbEntity
8
formato
6
Continuous
62
0
370
0
100
AcDbText
10
512
20
16
30
0
40
2.244
1
CONT.
7
ISO
100
AcDbText
0
TEXT
5
1E8
330
5B19
100
AcDbEntity
8
formato
6
Continuous
62
0
370
0
100
AcDbText
10
564
20
36
30
0
40
2.244
1
VISTO
7
ISO
100
AcDbText
0
TEXT
5
1E9
330
5B19
100
AcDbEntity
8
formato
6
Continuous
62
0
370
0
100
AcDbText
10
564
20
26
30
0
40
2.244
1
APROV.
7
ISO
100
AcDbText
0
TEXT
5
1EA
330
5B19
100
AcDbEntity
8
formato
6
Continuous
62
0
370
0
100
AcDbText
10
564
20
16
30
0
40
2.244
1
DATA
7
ISO
100
AcDbText
0
TEXT
5
1EB
330
5B19
100
AcDbEntity
8
formato
6
Continuous
62
0
370
0
100
AcDbText
10
21.9469
20
15.8105
30
0
40
1.5
1
CLASSIFICAÇÃO
50
180
7
ISO
72
1
11
15.2505
21
15.0605
31
0
100
AcDbText
73
2
0
LWPOLYLINE
5
1F1
330
5B19
100
AcDbEntity
8
formato
6
Continuous
62
0
370
0
100
AcDbPolyline
90
3
70
128
43
0
10
831
20
576
10
796
20
576
10
796
20
584
0
LINE
5
1F4
330
5B19
100
AcDbEntity
8
formato
6
Continuous
62
0
370
30
100
AcDbLine
10
763
20
55.006
30
0
11
763
21
10.006
31
0
0
LINE
5
1F5
330
5B19
100
AcDbEntity
8
formato
6
Continuous
62
0
370
30
100
AcDbLine
10
510
20
40
30
0
11
763.1
21
40.0048
31
0
0
LINE
5
1F6
330
5B19
100
AcDbEntity
8
formato
6
Continuous
62
0
370
30
100
AcDbLine
10
771
20
39.587
30
0
11
823
21
39.588
31
0
0
LINE
5
1F8
330
5B19
100
AcDbEntity
8
formato
6
Continuous
62
0
370
0
100
AcDbLine
10
510
20
20
30
0
11
656.1
21
20
31
0
0
LINE
5
1F9
330
5B19
100
AcDbEntity
8
formato
6
Continuous
62
0
370
0
100
AcDbLine
10
656
20
584
30
0
11
656
21
594
31
0
0
LWPOLYLINE
5
1FA
330
5B19
100
AcDbEntity
8
formato
6
Continuous
62
0
370
0
100
AcDbPolyline
90
4
70
129
43
0
10
657.5
20
585
10
657.5
20
593
10
660.5
20
593
10
657.5
20
585
0
LWPOLYLINE
5
1FB
330
5B19
100
AcDbEntity
8
formato
6
Continuous
62
0
370
0
100
AcDbPolyline
90
4
70
129
43
0
10
654.5
20
585
10
654.5
20
593
10
651.5
20
593
10
654.5
20
585
0
LINE
5
1FC
330
5B19
100
AcDbEntity
8
formato
6
Continuous
62
0
370
0
100
AcDbLine
10
471
20
584
30
0
11
471
21
594
31
0
0
LWPOLYLINE
5
1FD
330
5B19
100
AcDbEntity
8
formato
6
Continuous
62
0
370
0
100
AcDbPolyline
90
4
70
129
43
0
10
472.5
20
585
10
472.5
20
593
10
475.5
20
593
10
472.5
20
585
0
LWPOLYLINE
5
1FE
330
5B19
100
AcDbEntity
8
formato
6
Continuous
62
0
370
0
100
AcDbPolyline
90
4
70
129
43
0
10
469.5
20
585
10
469.5
20
593
10
466.5
20
593
10
469.5
20
585
0
LWPOLYLINE
5
1FF
330
5B19
100
AcDbEntity
8
formato
6
Continuous
62
0
370
0
100
AcDbPolyline
90
4
70
129
43
0
10
342.5
20
585
10
342.5
20
593
10
345.5
20
593
10
342.5
20
585
0
LINE
5
200
330
5B19
100
AcDbEntity
8
formato
6
Continuous
62
0
370
0
100
AcDbLine
10
341
20
584
30
0
11
341
21
594
31
0
0
LWPOLYLINE
5
201
330
5B19
100
AcDbEntity
8
formato
6
Continuous
62
0
370
0
100
AcDbPolyline
90
4
70
129
43
0
10
339.5
20
585
10
339.5
20
593
10
336.5
20
593
10
339.5
20
585
0
LWPOLYLINE
5
202
330
5B19
100
AcDbEntity
8
formato
6
Continuous
62
0
370
0
100
AcDbPolyline
90
4
70
129
43
0
10
212.5
20
585
10
212.5
20
593
10
215.5
20
593
10
212.5
20
585
0
LINE
5
203
330
5B19
100
AcDbEntity
8
formato
6
Continuous
62
0
370
0
100
AcDbLine
10
211
20
584
30
0
11
211
21
594
31
0
0
LWPOLYLINE
5
204
330
5B19
100
AcDbEntity
8
formato
6
Continuous
62
0
370
0
100
AcDbPolyline
90
4
70
129
43
0
10
209.5
20
585
10
209.5
20
593
10
206.5
20
593
10
209.5
20
585
0
TEXT
5
30D
330
5B19
100
AcDbEntity
8
formato
6
Continuous
62
0
370
30
100
AcDbText
10
623.04
20
43.4202
30
0
40
1.2
1
Geração e Transmissão S.A.
7
ISO
72
1
11
635.955
21
44.0202
31
0
100
AcDbText
73
2
0
TEXT
5
31C
330
5B19
100
AcDbEntity
8
formato
6
Continuous
62
0
370
0
100
AcDbText
10
676.929
20
50.506
30
0
40
3
1
Cemig Geração e Transmissão S.A.
7
ISO
72
1
11
709.905
21
52.006
31
0
100
AcDbText
73
2
0
LINE
5
357
100
AcDbEntity
67
0
8
formato
6
Dashed
62
0
370
-1
100
AcDbLine
10
841
20
297
30
0
11
831
21
297
31
0
0
LINE
5
374
330
5BA3
100
AcDbEntity
8
formato
6
Continuous
62
0
370
0
100
AcDbLine
10
632.472
20
51.8256
30
0
11
629.772
21
51.8256
31
0
0
ARC
5
375
330
5BA3
100
AcDbEntity
8
formato
6
Continuous
62
0
370
0
100
AcDbCircle
10
627.733
20
50.8509
30
0
40
0.72
100
AcDbArc
50
235.214
51
65.3583
0
ARC
5
376
330
5BA3
100
AcDbEntity
8
formato
6
Continuous
62
0
370
0
100
AcDbCircle
10
626.599
20
48.8049
30
0
40
3.06
100
AcDbArc
50
60.5199
51
343.119
0
ARC
5
377
330
5BA3
100
AcDbEntity
8
formato
6
Continuous
62
0
370
0
100
AcDbCircle
10
632.467
20
51.0849
30
0
40
0.72
100
AcDbArc
50
265.446
51
91.4321
0
LINE
5
378
330
5BA3
100
AcDbEntity
8
formato
6
Continuous
62
0
370
0
100
AcDbLine
10
632.472
20
51.8256
30
0
11
629.772
21
51.8256
31
0
0
LINE
5
379
330
5BA3
100
AcDbEntity
8
formato
6
Continuous
62
0
370
0
100
AcDbLine
10
629.772
20
51.8256
30
0
11
632.472
21
51.8256
31
0
0
LINE
5
37A
330
5BA3
100
AcDbEntity
8
formato
6
Continuous
62
0
370
0
100
AcDbLine
10
630.772
20
49.5256
30
0
11
631.672
21
49.5256
31
0
0
LINE
5
37B
330
5BA3
100
AcDbEntity
8
formato
6
Continuous
62
0
370
0
100
AcDbLine
10
631.672
20
49.5256
30
0
11
630.772
21
49.5256
31
0
0
HATCH
5
37D
330
5BA3
100
AcDbEntity
8
formato
6
Continuous
62
0
370
0
100
AcDbHatch
10
0
20
0
30
0
210
0
220
0
230
1
2
SOLID
70
1
71
0
91
1
92
3
72
1
73
0
93
18
10
628.104
20
51.4687
42
2.84755
10
629.527
20
47.9164
42
0
10
629.527
20
47.9176
42
0
10
630.226
20
50.215
42
-0.267927
10
630.486
20
50.3656
42
0
10
632.467
20
50.3649
42
1.01258
10
632.449
20
51.8047
42
0
10
632.472
20
51.8256
42
0
10
629.772
20
51.8256
42
0
10
629.817
20
51.8211
42
0.379121
10
629.071
20
51.2247
42
0
10
629.049
20
51.2336
42
0
10
628.149
20
48.3336
42
0
10
628.148
20
48.3323
42
-2.7971
10
627.366
20
50.2317
42
0
10
627.322
20
50.2596
42
1.09269
10
628.033
20
51.5056
42
0
10
628.105
20
51.4696
42
0
97
0
75
0
76
1
98
1
10
0
20
0
450
0
451
0
460
0
461
0
452
0
462
0
453
0
470

0
HATCH
5
37E
330
5BA3
100
AcDbEntity
8
formato
6
Continuous
62
0
370
0
100
AcDbHatch
10
0
20
0
30
0
210
0
220
0
230
1
2
SOLID
70
1
71
0
91
1
92
3
72
1
73
0
93
8
10
630.772
20
49.5256
42
0
10
631.672
20
49.5256
42
0
10
631.671
20
49.5247
42
-1
10
631.671
20
48.0867
42
0
10
631.672
20
48.0876
42
0
10
630.772
20
48.0876
42
0
10
630.771
20
48.0867
42
-1
10
630.771
20
49.5247
42
0
97
0
75
0
76
1
98
1
10
0
20
0
450
0
451
0
460
0
461
0
452
0
462
0
453
0
470

0
HATCH
5
37F
330
5BA3
100
AcDbEntity
8
formato
6
Continuous
62
0
370
0
100
AcDbHatch
10
0
20
0
30
0
210
0
220
0
230
1
2
SOLID
70
1
71
0
91
1
92
3
72
1
73
0
93
30
10
630.072
20
47.2456
42
0
10
631.634
20
47.2456
42
0
10
631.633
20
47.2447
42
0.32721
10
632.349
20
47.7696
42
0
10
633.449
20
51.2556
42
0
10
633.448
20
51.2547
42
-0.742114
10
635.092
20
51.2548
42
0
10
635.093
20
51.2556
42
0
10
635.823
20
48.8836
42
0
10
636.553
20
51.2556
42
0
10
636.552
20
51.2547
42
-0.742114
10
638.196
20
51.2548
42
0
10
638.197
20
51.2556
42
0
10
639.621
20
46.7416
42
0
10
639.62
20
46.7407
42
-1.0291
10
638.191
20
46.2896
42
0
10
637.366
20
48.9036
42
0
10
636.602
20
46.3276
42
0
10
636.601
20
46.3267
42
-0.747112
10
635.043
20
46.3267
42
0
10
635.044
20
46.3276
42
0
10
634.28
20
48.9036
42
0
10
634.287
20
48.8796
42
0
10
633.563
20
46.2936
42
0
10
633.563
20
46.2926
42
-0.336365
10
632.84
20
45.7447
42
0
10
632.841
20
45.7456
42
0
10
630.072
20
45.7456
42
0
10
630.071
20
45.7447
42
-1
10
630.071
20
47.2447
42
0
97
0
75
0
76
1
98
1
10
0
20
0
450
0
451
0
460
0
461
0
452
0
462
0
453
0
470

0
HATCH
5
380
330
5BA3
100
AcDbEntity
8
formato
6
Continuous
62
0
370
0
100
AcDbHatch
10
0
20
0
30
0
210
0
220
0
230
1
2
SOLID
70
1
71
0
91
1
92
3
72
1
73
0
93
7
10
639.872
20
46.5256
42
0
10
639.872
20
51.1256
42
0
10
639.871
20
51.1247
42
-0.999894
10
641.372
20
51.1256
42
0
10
641.372
20
46.5256
42
0
10
641.371
20
46.5245
42
-0.999894
10
639.871
20
46.5247
42
0
97
0
75
0
76
1
98
1
10
0
20
0
450
0
451
0
460
0
461
0
452
0
462
0
453
0
470

0
HATCH
5
381
330
5BA3
100
AcDbEntity
8
formato
6
Continuous
62
0
370
0
100
AcDbHatch
10
0
20
0
30
0
210
0
220
0
230
1
2
SOLID
70
1
71
0
91
1
92
3
72
1
73
1
93
11
10
647.659
20
48.8046
42
-3.95996
10
646.279
20
51.3617
42
-1
10
645.488
20
50.1587
42
2.59593
10
646.034
20
48.0547
42
0
10
646.035
20
48.0556
42
0
10
644.599
20
48.0556
42
0
10
644.598
20
48.0547
42
-1
10
644.598
20
49.5547
42
0
10
644.599
20
49.5556
42
0
10
646.909
20
49.5556
42
0
10
646.908
20
49.5547
42
-0.414243
97
0
75
0
76
1
98
1
10
0
20
0
450
0
451
0
460
0
461
0
452
0
462
0
453
0
470

0
TEXT
5
382
330
5B19
100
AcDbEntity
8
formato
6
Continuous
62
0
370
0
100
AcDbText
10
676.929
20
42.506
30
0
40
3
1
#instal$?
7
ISO
72
1
11
709.905
21
44.006
31
0
100
AcDbText
73
2
0
TEXT
5
384
330
5B19
100
AcDbEntity
8
formato
6
Continuous
62
0
370
0
100
AcDbText
10
764.024
20
34.0875
30
0
40
3
1
#*aplic$?
7
ISO
72
1
11
797
21
35.5875
31
0
100
AcDbText
73
2
0
LINE
5
385
330
5B19
100
AcDbEntity
8
formato
6
Continuous
62
0
370
30
100
AcDbLine
10
771
20
24.012
30
0
11
823
21
24.012
31
0
0
TEXT
5
386
330
5B19
100
AcDbEntity
8
formato
6
Continuous
62
0
370
0
100
AcDbText
10
772.717
20
21.012
30
0
40
1.5
1
Rev.
7
ISO
72
1
11
775.223
21
21.762
31
0
100
AcDbText
73
2
0
LINE
5
387
100
AcDbEntity
67
0
8
0
6
Continuous
62
0
370
30
100
AcDbLine
10
797
20
24.012
30
0
11
797
21
17.006
31
0
0
TEXT
5
388
330
5B19
100
AcDbEntity
8
formato
6
Continuous
62
0
370
0
100
AcDbText
10
798.717
20
21.012
30
0
40
1.5
1
Versão
7
ISO
72
1
11
801.223
21
21.762
31
0
100
AcDbText
73
2
0
TEXT
5
389
330
5B19
100
AcDbEntity
8
formato
6
Continuous
62
0
370
0
100
AcDbText
10
783.966
20
19.2979
30
0
40
2
1
#rev$?
7
ISO
72
1
11
786.472
21
20.0479
31
0
100
AcDbText
73
2
0
TEXT
5
38A
330
5B19
100
AcDbEntity
8
formato
6
Continuous
62
0
370
0
100
AcDbText
10
809.966
20
19.2979
30
0
40
2
1
#versao$?
7
ISO
72
1
11
812.472
21
20.0479
31
0
100
AcDbText
73
2
0
TEXT
5
38B
330
5B19
100
AcDbEntity
8
formato
6
Continuous
62
0
370
0
100
AcDbText
10
785.591
20
12.8219
30
0
40
2
1
#fl$1
7
ISO
72
1
11
788.097
21
13.5719
31
0
100
AcDbText
73
2
0
TEXT
5
38C
330
5B19
100
AcDbEntity
8
formato
6
Continuous
62
0
370
0
100
AcDbText
10
794.494
20
12.8219
30
0
40
2
1
-
7
ISO
72
1
11
797
21
13.5719
31
0
100
AcDbText
73
2
0
TEXT
5
38D
330
5B19
100
AcDbEntity
8
formato
6
Continuous
62
0
370
0
100
AcDbText
10
808.409
20
12.8219
30
0
40
2
1
#p_fl$1
7
ISO
72
1
11
805.903
21
13.5719
31
0
100
AcDbText
73
2
0
TEXT
5
38E
330
5B19
100
AcDbEntity
8
formato
6
Continuous
62
0
370
30
100
AcDbText
10
764.024
20
28.9525
30
0
40
4
1
#ident$?
7
ISO
72
1
11
797
21
30.4525
31
0
100
AcDbText
73
2
0
TEXT
5
38F
330
5B19
100
AcDbEntity
8
formato
6
Continuous
62
0
370
0
100
AcDbText
10
676.929
20
33.8004
30
0
40
4
1
#projeto$
7
ISO
72
1
11
709.905
21
35.3004
31
0
100
AcDbText
73
2
0
TEXT
5
390
330
5B19
100
AcDbEntity
8
formato
6
Continuous
62
0
370
30
100
AcDbText
10
676.929
20
24.173
30
0
40
6
1
#titulo$?
7
ISO
72
1
11
709.905
21
25.673
31
0
100
AcDbText
73
2
0
TEXT
5
391
330
5B19
100
AcDbEntity
8
formato
6
Continuous
62
0
370
0
100
AcDbText
10
676.929
20
14.5457
30
0
40
4
1
#tipo$?
7
ISO
72
1
11
709.905
21
16.0457
31
0
100
AcDbText
73
2
0
TEXT
5
392
330
5B19
100
AcDbEntity
8
formato
6
Continuous
62
0
370
0
100
AcDbText
10
632.81
20
34.9383
30
0
40
2.5
1
#visto$?
7
ISO
72
1
11
635.316
21
35.6883
31
0
100
AcDbText
73
2
0
TEXT
5
393
330
5B19
100
AcDbEntity
8
formato
6
Continuous
62
0
370
0
100
AcDbText
10
632.81
20
24.9383
30
0
40
2.5
1
#aprov$?
7
ISO
72
1
11
635.316
21
25.6883
31
0
100
AcDbText
73
2
0
TEXT
5
394
330
5B19
100
AcDbEntity
8
formato
6
Continuous
62
0
370
0
100
AcDbText
10
632.81
20
12.8383
30
0
40
2.5
1
#data$?
7
ISO
72
1
11
635.316
21
13.5883
31
0
100
AcDbText
73
2
0
TEXT
5
396
100
AcDbEntity
67
0
8
0
6
ByLayer
62
256
370
-1
100
AcDbText
10
765.988
20
32.506
30
0
40
2
1
CLASSIFICAÇÃO DA INFORMAÇÃO
50
90
7
ISO
72
1
11
765.988
21
32.506
31
0
100
AcDbText
73
2
0
TEXT
5
397
100
AcDbEntity
67
0
8
0
6
ByLayer
62
256
370
-1
100
AcDbText
10
768.726
20
32.506
30
0
40
2.5
1
#classif$RESERVADO
50
90
7
ISO
72
1
11
768.726
21
32.506
31
0
100
AcDbText
73
2
0
ENDSEC
0
SECTION
2
OBJECTS
0
DICTIONARY
5
22
100
AcDbDictionary
281
1
3
ACAD_COLOR
350
23
3
ACAD_GROUP
350
26
3
ACAD_LAYOUT
350
27
3
ACAD_MATERIAL
350
28
3
ACAD_MLINESTYLE
350
29
3
ACAD_PLOTSETTINGS
350
2A
3
ACAD_PLOTSTYLENAME
350
2B
3
ACAD_TABLESTYLE
350
2C
3
AcadDim
350
2D
0
DICTIONARY
5
23
100
AcDbDictionary
0
DICTIONARY
5
26
100
AcDbDictionary
0
DICTIONARY
5
27
100
AcDbDictionary
0
DICTIONARY
5
28
100
AcDbDictionary
0
DICTIONARY
5
29
100
AcDbDictionary
0
DICTIONARY
5
2A
100
AcDbDictionary
0
DICTIONARY
5
2B
100
AcDbDictionary
0
DICTIONARY
5
2C
100
AcDbDictionary
0
DICTIONARY
5
2D
100
AcDbDictionary
0
ENDSEC
0
EOF
