999
dxflib 3.3.4.0
  0
SECTION
  2
HEADER
  9
$ACADVER
  1
AC1015
  9
$HANDSEED
  5
FFFF
  9
$DIMADEC
 70
0
  9
$DIMASZ
 40
2.5
  9
$DIMAUNIT
 70
0
  9
$DIMAZIN
 70
2
  9
$DIMDEC
 70
4
  9
$DIMEXE
 40
1.25
  9
$DIMEXO
 40
0.625
  9
$DIMGAP
 40
0.625
  9
$DIMLUNIT
 70
2
  9
$DIMTSZ
 40
0.0
  9
$DIMTXT
 40
2.5
  9
$DIMZIN
 70
8
  9
$DWGCODEPAGE
  3
ANSI_1252
  9
$INSUNITS
 70
4
  9
$LTSCALE
 40
1.0
  0
ENDSEC
  0
SECTION
  2
TABLES
  0
TABLE
  2
VPORT
  5
8
100
AcDbSymbolTable
 70
1
  0
VPORT
  5
30
100
AcDbSymbolTableRecord
100
AcDbViewportTableRecord
  2
*Active
 70
0
 10
0.0
 20
0.0
 11
1.0
 21
1.0
 12
286.3055555555554861
 22
148.5
 13
0.0
 23
0.0
 14
10.0
 24
10.0
 15
10.0
 25
10.0
 16
0.0
 26
0.0
 36
1.0
 17
0.0
 27
0.0
 37
0.0
 40
297.0
 41
1.92798353909465
 42
50.0
 43
0.0
 44
0.0
 50
0.0
 51
0.0
 71
0
 72
100
 73
1
 74
3
 75
1
 76
1
 77
0
 78
0
281
0
 65
1
110
0.0
120
0.0
130
0.0
111
1.0
121
0.0
131
0.0
112
0.0
122
1.0
132
0.0
 79
0
146
0.0
  0
ENDTAB
  0
TABLE
  2
LTYPE
  5
5
100
AcDbSymbolTable
 70
21
  0
LTYPE
  5
16
100
AcDbSymbolTableRecord
100
AcDbLinetypeTableRecord
  2
CONTINUOUS
 70
0
  3
Solid line
 72
65
 73
0
 40
0.0
  0
LTYPE
  5
31
100
AcDbSymbolTableRecord
100
AcDbLinetypeTableRecord
  2
CENTER2
 70
0
  3
Center (.5x) ___ _ ___ _ ___ _ ___ _ ___ _ ___
 72
65
 73
4
 40
28.5749999999999993
 49
19.0500000000000007
 74
0
 49
-3.1749999999999998
 74
0
 49
3.1749999999999998
 74
0
 49
-3.1749999999999998
 74
0
  0
LTYPE
  5
32
100
AcDbSymbolTableRecord
100
AcDbLinetypeTableRecord
  2
DIVIDEX2
 70
0
  3
Divide (2x) ________  .  .  ________  .  .  _
 72
65
 73
6
 40
63.5
 49
25.3999999999999986
 74
0
 49
-12.6999999999999993
 74
0
 49
0.0
 74
0
 49
-12.6999999999999993
 74
0
 49
0.0
 74
0
 49
-12.6999999999999993
 74
0
  0
LTYPE
  5
33
100
AcDbSymbolTableRecord
100
AcDbLinetypeTableRecord
  2
DOT2
 70
0
  3
Dot (.5x) .....................................
 72
65
 73
2
 40
3.1749999999999998
 49
0.0
 74
0
 49
-3.1749999999999998
 74
0
  0
LTYPE
  5
34
100
AcDbSymbolTableRecord
100
AcDbLinetypeTableRecord
  2
DASHDOT2
 70
0
  3
Dash dot (.5x) _._._._._._._._._._._._._._._.
 72
65
 73
4
 40
12.6999999999999993
 49
6.3499999999999996
 74
0
 49
-3.1749999999999998
 74
0
 49
0.0
 74
0
 49
-3.1749999999999998
 74
0
  0
LTYPE
  5
35
100
AcDbSymbolTableRecord
100
AcDbLinetypeTableRecord
  2
DIVIDE
 70
0
  3
Divide ____ . . ____ . . ____ . . ____ . . ____
 72
65
 73
6
 40
31.75
 49
12.6999999999999993
 74
0
 49
-6.3499999999999996
 74
0
 49
0.0
 74
0
 49
-6.3499999999999996
 74
0
 49
0.0
 74
0
 49
-6.3499999999999996
 74
0
  0
LTYPE
  5
36
100
AcDbSymbolTableRecord
100
AcDbLinetypeTableRecord
  2
DASHDOT
 70
0
  3
Dash dot __ . __ . __ . __ . __ . __ . __ . __
 72
65
 73
4
 40
25.3999999999999986
 49
12.6999999999999993
 74
0
 49
-6.3499999999999996
 74
0
 49
0.0
 74
0
 49
-6.3499999999999996
 74
0
  0
LTYPE
  5
37
100
AcDbSymbolTableRecord
100
AcDbLinetypeTableRecord
  2
BORDER
 70
0
  3
Border __ __ . __ __ . __ __ . __ __ . __ __ .
 72
65
 73
6
 40
44.4500000000000028
 49
12.6999999999999993
 74
0
 49
-6.3499999999999996
 74
0
 49
12.6999999999999993
 74
0
 49
-6.3499999999999996
 74
0
 49
0.0
 74
0
 49
-6.3499999999999996
 74
0
  0
LTYPE
  5
38
100
AcDbSymbolTableRecord
100
AcDbLinetypeTableRecord
  2
DASHDOTX2
 70
0
  3
Dash dot (2x) ____  .  ____  .  ____  .  ___
 72
65
 73
4
 40
50.7999999999999972
 49
25.3999999999999986
 74
0
 49
-12.6999999999999993
 74
0
 49
0.0
 74
0
 49
-12.6999999999999993
 74
0
  0
LTYPE
  5
39
100
AcDbSymbolTableRecord
100
AcDbLinetypeTableRecord
  2
CENTERX2
 70
0
  3
Center (2x) ________  __  ________  __  _____
 72
65
 73
4
 40
101.5999999999999943
 49
63.5
 74
0
 49
-12.6999999999999993
 74
0
 49
12.6999999999999993
 74
0
 49
-12.6999999999999993
 74
0
  0
LTYPE
  5
3A
100
AcDbSymbolTableRecord
100
AcDbLinetypeTableRecord
  2
BORDER2
 70
0
  3
Border (.5x) __.__.__.__.__.__.__.__.__.__.__.
 72
65
 73
6
 40
22.2250000000000014
 49
6.3499999999999996
 74
0
 49
-3.1749999999999998
 74
0
 49
6.3499999999999996
 74
0
 49
-3.1749999999999998
 74
0
 49
0.0
 74
0
 49
-3.1749999999999998
 74
0
  0
LTYPE
  5
3B
100
AcDbSymbolTableRecord
100
AcDbLinetypeTableRecord
  2
BORDERX2
 70
0
  3
Border (2x) ____  ____  .  ____  ____  .  ___
 72
65
 73
6
 40
88.9000000000000057
 49
25.3999999999999986
 74
0
 49
-12.6999999999999993
 74
0
 49
25.3999999999999986
 74
0
 49
-12.6999999999999993
 74
0
 49
0.0
 74
0
 49
-12.6999999999999993
 74
0
  0
LTYPE
  5
14
100
AcDbSymbolTableRecord
100
AcDbLinetypeTableRecord
  2
BYBLOCK
 70
0
  3

 72
65
 73
0
 40
0.0
  0
LTYPE
  5
15
100
AcDbSymbolTableRecord
100
AcDbLinetypeTableRecord
  2
BYLAYER
 70
0
  3

 72
65
 73
0
 40
0.0
  0
LTYPE
  5
3C
100
AcDbSymbolTableRecord
100
AcDbLinetypeTableRecord
  2
DASHED2
 70
0
  3
Dashed (.5x) _ _ _ _ _ _ _ _ _ _ _ _ _ _ _ _ _
 72
65
 73
2
 40
9.5250000000000004
 49
6.3499999999999996
 74
0
 49
-3.1749999999999998
 74
0
  0
LTYPE
  5
3D
100
AcDbSymbolTableRecord
100
AcDbLinetypeTableRecord
  2
CENTER
 70
0
  3
Center ____ _ ____ _ ____ _ ____ _ ____ _ ____
 72
65
 73
4
 40
50.7999999999999972
 49
31.75
 74
0
 49
-6.3499999999999996
 74
0
 49
6.3499999999999996
 74
0
 49
-6.3499999999999996
 74
0
  0
LTYPE
  5
3E
100
AcDbSymbolTableRecord
100
AcDbLinetypeTableRecord
  2
DIVIDE2
 70
0
  3
Divide (.5x) __..__..__..__..__..__..__..__.._
 72
65
 73
6
 40
15.875
 49
6.3499999999999996
 74
0
 49
-3.1749999999999998
 74
0
 49
0.0
 74
0
 49
-3.1749999999999998
 74
0
 49
0.0
 74
0
 49
-3.1749999999999998
 74
0
  0
LTYPE
  5
3F
100
AcDbSymbolTableRecord
100
AcDbLinetypeTableRecord
  2
DASHED
 70
0
  3
Dashed __ __ __ __ __ __ __ __ __ __ __ __ __ _
 72
65
 73
2
 40
19.0500000000000007
 49
12.6999999999999993
 74
0
 49
-6.3499999999999996
 74
0
  0
LTYPE
  5
40
100
AcDbSymbolTableRecord
100
AcDbLinetypeTableRecord
  2
DOTX2
 70
0
  3
Dot (2x) .  .  .  .  .  .  .  .  .  .  .  .  .
 72
65
 73
2
 40
12.6999999999999993
 49
0.0
 74
0
 49
-12.6999999999999993
 74
0
  0
LTYPE
  5
41
100
AcDbSymbolTableRecord
100
AcDbLinetypeTableRecord
  2
DASHEDX2
 70
0
  3
Dashed (2x) ____  ____  ____  ____  ____  ___
 72
65
 73
2
 40
38.1000000000000014
 49
25.3999999999999986
 74
0
 49
-12.6999999999999993
 74
0
  0
LTYPE
  5
42
100
AcDbSymbolTableRecord
100
AcDbLinetypeTableRecord
  2
DOT
 70
0
  3
Dot . . . . . . . . . . . . . . . . . . . . . .
 72
65
 73
2
 40
6.3499999999999996
 49
0.0
 74
0
 49
-6.3499999999999996
 74
0
  0
ENDTAB
  0
TABLE
  2
LAYER
  5
2
100
AcDbSymbolTable
 70
9
  0
LAYER
  5
43
100
AcDbSymbolTableRecord
100
AcDbLayerTableRecord
  2
portas
 70
0
 62
1
420
16711680
  6
CONTINUOUS
370
25
390
F
  0
LAYER
  5
44
100
AcDbSymbolTableRecord
100
AcDbLayerTableRecord
  2
soleira
 70
0
 62
3
420
65280
  6
CONTINUOUS
370
25
390
F
  0
LAYER
  5
45
100
AcDbSymbolTableRecord
100
AcDbLayerTableRecord
  2
lateral_ext
 70
0
 62
3
420
65280
  6
CONTINUOUS
370
25
390
F
  0
LAYER
  5
46
100
AcDbSymbolTableRecord
100
AcDbLayerTableRecord
  2
parede
 70
0
 62
2
420
16776960
  6
CONTINUOUS
370
25
390
F
  0
LAYER
  5
47
100
AcDbSymbolTableRecord
100
AcDbLayerTableRecord
  2
pux_porta
 70
0
 62
4
420
65535
  6
CONTINUOUS
370
25
390
F
  0
LAYER
  5
48
100
AcDbSymbolTableRecord
100
AcDbLayerTableRecord
  2
corredica
 70
0
 62
6
420
16711935
  6
CONTINUOUS
370
25
390
F
  0
LAYER
  5
49
100
AcDbSymbolTableRecord
100
AcDbLayerTableRecord
  2
chapas_fixas
 70
0
 62
7
420
0
  6
CONTINUOUS
370
25
390
F
  0
LAYER
  5
10
100
AcDbSymbolTableRecord
100
AcDbLayerTableRecord
  2
0
 70
0
 62
7
420
16777215
  6
CONTINUOUS
370
25
390
F
  0
LAYER
  5
4A
100
AcDbSymbolTableRecord
100
AcDbLayerTableRecord
  2
chapa_sapato
 70
0
 62
5
420
255
  6
CONTINUOUS
370
25
390
F
  0
ENDTAB
  0
TABLE
  2
STYLE
  5
3
100
AcDbSymbolTable
 70
4
  0
STYLE
  5
4B
100
AcDbSymbolTableRecord
100
AcDbTextStyleTableRecord
  2
Standard
 70
0
 40
0.0
 41
1.0
 50
0.0
 71
0
 42
2.5
  3

  4

1001
ACAD
1000
txt
1071
0
  0
STYLE
  5
4C
100
AcDbSymbolTableRecord
100
AcDbTextStyleTableRecord
  2
textstyle0
 70
0
 40
0.0
 41
1.0
 50
0.0
 71
0
 42
100.0
  3

  4

1001
ACAD
1000
Unicode
1071
0
  0
STYLE
  5
4D
100
AcDbSymbolTableRecord
100
AcDbTextStyleTableRecord
  2
textstyle1
 70
0
 40
0.0
 41
1.0
 50
0.0
 71
0
 42
100.0
  3

  4

1001
ACAD
1000
Unicode
1071
0
  0
STYLE
  5
4E
100
AcDbSymbolTableRecord
100
AcDbTextStyleTableRecord
  2
textstyle2
 70
0
 40
0.0
 41
1.0
 50
0.0
 71
0
 42
100.0
  3

  4

1001
ACAD
1000
Unicode
1071
0
  0
ENDTAB
  0
TABLE
  2
VIEW
  5
6
100
AcDbSymbolTable
 70
0
  0
ENDTAB
  0
TABLE
  2
UCS
  5
7
100
AcDbSymbolTable
 70
0
  0
ENDTAB
  0
TABLE
  2
APPID
  5
9
100
AcDbSymbolTable
 70
1
  0
APPID
  5
12
100
AcDbSymbolTableRecord
100
AcDbRegAppTableRecord
  2
ACAD
 70
0
  0
APPID
  5
4F
100
AcDbSymbolTableRecord
100
AcDbRegAppTableRecord
  2
QCAD
 70
0
  0
ENDTAB
  0
TABLE
  2
DIMSTYLE
  5
A
100
AcDbSymbolTable
 70
1
100
AcDbDimStyleTable
 71
0
  0
DIMSTYLE
105
27
100
AcDbSymbolTableRecord
100
AcDbDimStyleTableRecord
  2
Standard
 41
2.5
 42
0.625
 43
3.75
 44
1.25
 70
0
 73
0
 74
0
 77
1
 78
8
140
2.5
141
2.5
143
0.03937007874016
147
0.625
171
3
172
1
271
2
272
2
274
3
278
44
283
0
284
8
340
4B
  0
ENDTAB
  0
TABLE
  2
BLOCK_RECORD
  5
1
100
AcDbSymbolTable
 70
1
  0
BLOCK_RECORD
  5
1F
100
AcDbSymbolTableRecord
100
AcDbBlockTableRecord
  2
*Model_Space
340
22
  0
BLOCK_RECORD
  5
1B
100
AcDbSymbolTableRecord
100
AcDbBlockTableRecord
  2
*Paper_Space
340
1E
  0
BLOCK_RECORD
  5
23
100
AcDbSymbolTableRecord
100
AcDbBlockTableRecord
  2
*Paper_Space0
340
26
  0
ENDTAB
  0
ENDSEC
  0
SECTION
  2
BLOCKS
  0
BLOCK
  5
20
100
AcDbEntity
  8
0
100
AcDbBlockBegin
  2
*Model_Space
 70
0
 10
0.0
 20
0.0
 30
0.0
  3
*Model_Space
  1

  0
ENDBLK
  5
21
100
AcDbEntity
  8
0
100
AcDbBlockEnd
  0
BLOCK
  5
1C
100
AcDbEntity
 67
1
  8
0
100
AcDbBlockBegin
  2
*Paper_Space
 70
0
 10
0.0
 20
0.0
 30
0.0
  3
*Paper_Space
  1

  0
ENDBLK
  5
1D
100
AcDbEntity
 67
1
  8
0
100
AcDbBlockEnd
  0
BLOCK
  5
24
100
AcDbEntity
  8
0
100
AcDbBlockBegin
  2
*Paper_Space0
 70
0
 10
0.0
 20
0.0
 30
0.0
  3
*Paper_Space0
  1

  0
ENDBLK
  5
25
100
AcDbEntity
  8
0
100
AcDbBlockEnd
  0
ENDSEC
  0
SECTION
  2
ENTITIES
  0
LINE
  5
50
100
AcDbEntity
100
AcDbLine
  8
lateral_ext
 62
256
370
-1
  6
BYLAYER
 10
20.0
 20
30.0
 30
0.0
 11
35.0
 21
30.0
 31
0.0
  0
LINE
  5
51
100
AcDbEntity
100
AcDbLine
  8
lateral_ext
 62
256
370
-1
  6
BYLAYER
 10
35.0
 20
30.0
 30
0.0
 11
35.0
 21
2730.0
 31
0.0
  0
LINE
  5
52
100
AcDbEntity
100
AcDbLine
  8
lateral_ext
 62
256
370
-1
  6
BYLAYER
 10
35.0
 20
2730.0
 30
0.0
 11
20.0
 21
2730.0
 31
0.0
  0
LINE
  5
53
100
AcDbEntity
100
AcDbLine
  8
lateral_ext
 62
256
370
-1
  6
BYLAYER
 10
20.0
 20
2730.0
 30
0.0
 11
20.0
 21
30.0
 31
0.0
  0
LINE
  5
54
100
AcDbEntity
100
AcDbLine
  8
parede
 62
256
370
-1
  6
DASHEDX2
 10
2875.0
 20
2730.0
 30
0.0
 11
2875.0
 21
30.0
 31
0.0
  0
LINE
  5
55
100
AcDbEntity
100
AcDbLine
  8
chapas_fixas
 62
256
370
-1
  6
BYLAYER
 10
1440.0
 20
2180.0
 30
0.0
 11
1440.0
 21
30.0
 31
0.0
  0
LINE
  5
56
100
AcDbEntity
100
AcDbLine
  8
chapas_fixas
 62
256
370
-1
  6
BYLAYER
 10
50.0
 20
30.0
 30
0.0
 11
35.0
 21
30.0
 31
0.0
  0
LINE
  5
57
100
AcDbEntity
100
AcDbLine
  8
chapas_fixas
 62
256
370
-1
  6
BYLAYER
 10
35.0
 20
30.0
 30
0.0
 11
35.0
 21
2180.0
 31
0.0
  0
LINE
  5
58
100
AcDbEntity
100
AcDbLine
  8
chapas_fixas
 62
256
370
-1
  6
BYLAYER
 10
35.0
 20
2180.0
 30
0.0
 11
50.0
 21
2180.0
 31
0.0
  0
LINE
  5
59
100
AcDbEntity
100
AcDbLine
  8
chapas_fixas
 62
256
370
-1
  6
BYLAYER
 10
50.0
 20
2180.0
 30
0.0
 11
50.0
 21
30.0
 31
0.0
  0
LINE
  5
5A
100
AcDbEntity
100
AcDbLine
  8
chapas_fixas
 62
256
370
-1
  6
BYLAYER
 10
1455.0
 20
30.0
 30
0.0
 11
1440.0
 21
30.0
 31
0.0
  0
LINE
  5
5B
100
AcDbEntity
100
AcDbLine
  8
chapas_fixas
 62
256
370
-1
  6
BYLAYER
 10
1440.0
 20
2180.0
 30
0.0
 11
1455.0
 21
2180.0
 31
0.0
  0
LINE
  5
5C
100
AcDbEntity
100
AcDbLine
  8
chapas_fixas
 62
256
370
-1
  6
BYLAYER
 10
1455.0
 20
2180.0
 30
0.0
 11
1455.0
 21
30.0
 31
0.0
  0
LINE
  5
5D
100
AcDbEntity
100
AcDbLine
  8
chapas_fixas
 62
256
370
-1
  6
BYLAYER
 10
35.0
 20
2195.0
 30
0.0
 11
35.0
 21
2180.0
 31
0.0
  0
LINE
  5
5E
100
AcDbEntity
100
AcDbLine
  8
parede
 62
256
370
-1
  6
BYLAYER
 10
2875.0
 20
2730.0
 30
0.0
 11
20.0
 21
2730.0
 31
0.0
  0
LINE
  5
5F
100
AcDbEntity
100
AcDbLine
  8
chapa_sapato
 62
256
370
-1
  6
BYLAYER
 10
78.0
 20
152.5
 30
0.0
 11
709.5000000000004547
 21
152.5000000000001137
 31
0.0
  0
LINE
  5
60
100
AcDbEntity
100
AcDbLine
  8
chapa_sapato
 62
256
370
-1
  6
BYLAYER
 10
709.5000000000004547
 20
152.5000000000001137
 30
0.0
 11
709.5000000000004547
 21
167.5000000000001137
 31
0.0
  0
LINE
  5
61
100
AcDbEntity
100
AcDbLine
  8
chapa_sapato
 62
256
370
-1
  6
BYLAYER
 10
78.0
 20
167.5
 30
0.0
 11
78.0
 21
152.5
 31
0.0
  0
LINE
  5
62
100
AcDbEntity
100
AcDbLine
  8
chapa_sapato
 62
256
370
-1
  6
BYLAYER
 10
78.0
 20
167.5
 30
0.0
 11
709.5000000000004547
 21
167.5000000000001137
 31
0.0
  0
LINE
  5
63
100
AcDbEntity
100
AcDbLine
  8
chapas_fixas
 62
256
370
-1
  6
BYLAYER
 10
50.0
 20
362.5
 30
0.0
 11
50.0
 21
317.5
 31
0.0
  0
LINE
  5
64
100
AcDbEntity
100
AcDbLine
  8
portas
 62
256
370
-1
  6
BYLAYER
 10
70.0
 20
2705.0
 30
0.0
 11
717.5
 21
2705.0
 31
0.0
  0
LINE
  5
65
100
AcDbEntity
100
AcDbLine
  8
portas
 62
256
370
-1
  6
BYLAYER
 10
717.5
 20
2705.0
 30
0.0
 11
717.4999999999990905
 21
55.0
 31
0.0
  0
LINE
  5
66
100
AcDbEntity
100
AcDbLine
  8
portas
 62
256
370
-1
  6
BYLAYER
 10
717.4999999999990905
 20
55.0
 30
0.0
 11
69.9999999999990905
 21
55.0
 31
0.0
  0
LINE
  5
67
100
AcDbEntity
100
AcDbLine
  8
portas
 62
256
370
-1
  6
BYLAYER
 10
69.9999999999990905
 20
55.0
 30
0.0
 11
70.0
 21
2705.0
 31
0.0
  0
LINE
  5
68
100
AcDbEntity
100
AcDbLine
  8
pux_porta
 62
256
370
-1
  6
BYLAYER
 10
702.5
 20
2705.0
 30
0.0
 11
752.5
 21
2705.0
 31
0.0
  0
LINE
  5
69
100
AcDbEntity
100
AcDbLine
  8
pux_porta
 62
256
370
-1
  6
BYLAYER
 10
752.5
 20
2705.0
 30
0.0
 11
752.4999999999990905
 21
55.0
 31
0.0
  0
LINE
  5
6A
100
AcDbEntity
100
AcDbLine
  8
pux_porta
 62
256
370
-1
  6
BYLAYER
 10
752.4999999999990905
 20
55.0
 30
0.0
 11
702.4999999999990905
 21
55.0
 31
0.0
  0
LINE
  5
6B
100
AcDbEntity
100
AcDbLine
  8
pux_porta
 62
256
370
-1
  6
BYLAYER
 10
702.4999999999990905
 20
55.0
 30
0.0
 11
702.5
 21
2705.0
 31
0.0
  0
LINE
  5
6C
100
AcDbEntity
100
AcDbLine
  8
pux_porta
 62
256
370
-1
  6
BYLAYER
 10
85.0
 20
2705.0
 30
0.0
 11
35.0
 21
2705.0
 31
0.0
  0
LINE
  5
6D
100
AcDbEntity
100
AcDbLine
  8
pux_porta
 62
256
370
-1
  6
BYLAYER
 10
35.0
 20
2705.0
 30
0.0
 11
35.0
 21
55.0
 31
0.0
  0
LINE
  5
6E
100
AcDbEntity
100
AcDbLine
  8
pux_porta
 62
256
370
-1
  6
BYLAYER
 10
35.0
 20
55.0
 30
0.0
 11
84.9999999999990905
 21
55.0000000000004547
 31
0.0
  0
LINE
  5
6F
100
AcDbEntity
100
AcDbLine
  8
pux_porta
 62
256
370
-1
  6
BYLAYER
 10
84.9999999999990905
 20
55.0000000000004547
 30
0.0
 11
85.0
 21
2705.0
 31
0.0
  0
LINE
  5
70
100
AcDbEntity
100
AcDbLine
  8
chapas_fixas
 62
256
370
-1
  6
BYLAYER
 10
1455.0
 20
2195.0
 30
0.0
 11
1455.0
 21
2180.0
 31
0.0
  0
LINE
  5
71
100
AcDbEntity
100
AcDbLine
  8
chapas_fixas
 62
256
370
-1
  6
BYLAYER
 10
35.0
 20
2195.0
 30
0.0
 11
1455.0
 21
2195.0
 31
0.0
  0
LINE
  5
72
100
AcDbEntity
100
AcDbLine
  8
chapas_fixas
 62
256
370
-1
  6
BYLAYER
 10
1455.0
 20
2180.0
 30
0.0
 11
35.0
 21
2180.0
 31
0.0
  0
LINE
  5
73
100
AcDbEntity
100
AcDbLine
  8
chapas_fixas
 62
256
370
-1
  6
BYLAYER
 10
2875.0
 20
2195.0
 30
0.0
 11
2875.0
 21
2180.0
 31
0.0
  0
LINE
  5
74
100
AcDbEntity
100
AcDbLine
  8
chapas_fixas
 62
256
370
-1
  6
BYLAYER
 10
1455.0
 20
2195.0
 30
0.0
 11
2875.0
 21
2195.0
 31
0.0
  0
LINE
  5
75
100
AcDbEntity
100
AcDbLine
  8
chapas_fixas
 62
256
370
-1
  6
BYLAYER
 10
2875.0
 20
2180.0
 30
0.0
 11
1455.0
 21
2180.0
 31
0.0
  0
LINE
  5
76
100
AcDbEntity
100
AcDbLine
  8
chapas_fixas
 62
256
370
-1
  6
BYLAYER
 10
1455.0
 20
2195.0
 30
0.0
 11
1455.0
 21
2180.0
 31
0.0
  0
LINE
  5
77
100
AcDbEntity
100
AcDbLine
  8
chapas_fixas
 62
256
370
-1
  6
BYLAYER
 10
1470.0
 20
30.0
 30
0.0
 11
1455.0
 21
30.0
 31
0.0
  0
LINE
  5
78
100
AcDbEntity
100
AcDbLine
  8
chapas_fixas
 62
256
370
-1
  6
BYLAYER
 10
1455.0
 20
2180.0
 30
0.0
 11
1470.0
 21
2180.0
 31
0.0
  0
LINE
  5
79
100
AcDbEntity
100
AcDbLine
  8
chapas_fixas
 62
256
370
-1
  6
BYLAYER
 10
1470.0
 20
2180.0
 30
0.0
 11
1470.0
 21
30.0
 31
0.0
  0
LINE
  5
7A
100
AcDbEntity
100
AcDbLine
  8
chapas_fixas
 62
256
370
-1
  6
BYLAYER
 10
1455.0
 20
2180.0
 30
0.0
 11
1455.0
 21
30.0
 31
0.0
  0
LINE
  5
7B
100
AcDbEntity
100
AcDbLine
  8
chapas_fixas
 62
256
370
-1
  6
BYLAYER
 10
2875.0
 20
30.0
 30
0.0
 11
2860.0
 21
30.0
 31
0.0
  0
LINE
  5
7C
100
AcDbEntity
100
AcDbLine
  8
chapas_fixas
 62
256
370
-1
  6
BYLAYER
 10
2860.0
 20
2180.0
 30
0.0
 11
2875.0
 21
2180.0
 31
0.0
  0
LINE
  5
7D
100
AcDbEntity
100
AcDbLine
  8
chapas_fixas
 62
256
370
-1
  6
BYLAYER
 10
2875.0
 20
2180.0
 30
0.0
 11
2875.0
 21
30.0
 31
0.0
  0
LINE
  5
7E
100
AcDbEntity
100
AcDbLine
  8
chapas_fixas
 62
256
370
-1
  6
BYLAYER
 10
2860.0
 20
2180.0
 30
0.0
 11
2860.0
 21
30.0
 31
0.0
  0
LINE
  5
7F
100
AcDbEntity
100
AcDbLine
  8
chapas_fixas
 62
256
370
-1
  6
BYLAYER
 10
2172.5
 20
30.0
 30
0.0
 11
2157.5
 21
30.0
 31
0.0
  0
LINE
  5
80
100
AcDbEntity
100
AcDbLine
  8
chapas_fixas
 62
256
370
-1
  6
BYLAYER
 10
2157.5
 20
2180.0
 30
0.0
 11
2172.5
 21
2180.0
 31
0.0
  0
LINE
  5
81
100
AcDbEntity
100
AcDbLine
  8
chapas_fixas
 62
256
370
-1
  6
BYLAYER
 10
2172.5
 20
2180.0
 30
0.0
 11
2172.5
 21
30.0
 31
0.0
  0
LINE
  5
82
100
AcDbEntity
100
AcDbLine
  8
chapas_fixas
 62
256
370
-1
  6
BYLAYER
 10
2157.5
 20
2180.0
 30
0.0
 11
2157.5
 21
30.0
 31
0.0
  0
LINE
  5
83
100
AcDbEntity
100
AcDbLine
  8
chapas_fixas
 62
256
370
-1
  6
BYLAYER
 10
1470.0
 20
1230.0
 30
0.0
 11
1470.0
 21
1215.0
 31
0.0
  0
LINE
  5
84
100
AcDbEntity
100
AcDbLine
  8
chapas_fixas
 62
256
370
-1
  6
BYLAYER
 10
1470.0
 20
1215.0
 30
0.0
 11
2157.5
 21
1215.0
 31
0.0
  0
LINE
  5
85
100
AcDbEntity
100
AcDbLine
  8
chapas_fixas
 62
256
370
-1
  6
BYLAYER
 10
2157.5
 20
1215.0
 30
0.0
 11
2157.5
 21
1230.0
 31
0.0
  0
LINE
  5
86
100
AcDbEntity
100
AcDbLine
  8
chapas_fixas
 62
256
370
-1
  6
BYLAYER
 10
2157.5
 20
1230.0
 30
0.0
 11
1470.0
 21
1230.0
 31
0.0
  0
LINE
  5
87
100
AcDbEntity
100
AcDbLine
  8
chapas_fixas
 62
256
370
-1
  6
BYLAYER
 10
2860.0
 20
1230.0
 30
0.0
 11
2172.5
 21
1230.0
 31
0.0
  0
LINE
  5
88
100
AcDbEntity
100
AcDbLine
  8
chapas_fixas
 62
256
370
-1
  6
BYLAYER
 10
2172.5
 20
1230.0
 30
0.0
 11
2172.5
 21
1215.0
 31
0.0
  0
LINE
  5
89
100
AcDbEntity
100
AcDbLine
  8
chapas_fixas
 62
256
370
-1
  6
BYLAYER
 10
2172.5
 20
1215.0
 30
0.0
 11
2860.0
 21
1215.0
 31
0.0
  0
LINE
  5
8A
100
AcDbEntity
100
AcDbLine
  8
chapas_fixas
 62
256
370
-1
  6
BYLAYER
 10
2860.0
 20
1215.0
 30
0.0
 11
2860.0
 21
1230.0
 31
0.0
  0
LINE
  5
8B
100
AcDbEntity
100
AcDbLine
  8
chapas_fixas
 62
256
370
-1
  6
BYLAYER
 10
737.5
 20
1230.0
 30
0.0
 11
50.0
 21
1230.0
 31
0.0
  0
LINE
  5
8C
100
AcDbEntity
100
AcDbLine
  8
chapas_fixas
 62
256
370
-1
  6
BYLAYER
 10
1440.0
 20
1230.0
 30
0.0
 11
752.5
 21
1230.0
 31
0.0
  0
LINE
  5
8D
100
AcDbEntity
100
AcDbLine
  8
chapas_fixas
 62
256
370
-1
  6
BYLAYER
 10
752.5
 20
1230.0
 30
0.0
 11
752.5
 21
1215.0
 31
0.0
  0
LINE
  5
8E
100
AcDbEntity
100
AcDbLine
  8
chapas_fixas
 62
256
370
-1
  6
BYLAYER
 10
752.5
 20
1215.0
 30
0.0
 11
1440.0
 21
1215.0
 31
0.0
  0
LINE
  5
8F
100
AcDbEntity
100
AcDbLine
  8
chapas_fixas
 62
256
370
-1
  6
BYLAYER
 10
1440.0
 20
1215.0
 30
0.0
 11
1440.0
 21
1230.0
 31
0.0
  0
LINE
  5
90
100
AcDbEntity
100
AcDbLine
  8
chapas_fixas
 62
256
370
-1
  6
BYLAYER
 10
752.5
 20
30.0
 30
0.0
 11
737.5
 21
30.0
 31
0.0
  0
LINE
  5
91
100
AcDbEntity
100
AcDbLine
  8
chapas_fixas
 62
256
370
-1
  6
BYLAYER
 10
737.5
 20
2180.0
 30
0.0
 11
752.5
 21
2180.0
 31
0.0
  0
LINE
  5
92
100
AcDbEntity
100
AcDbLine
  8
chapas_fixas
 62
256
370
-1
  6
BYLAYER
 10
752.5
 20
2180.0
 30
0.0
 11
752.5
 21
30.0
 31
0.0
  0
LINE
  5
93
100
AcDbEntity
100
AcDbLine
  8
chapas_fixas
 62
256
370
-1
  6
BYLAYER
 10
737.5
 20
2180.0
 30
0.0
 11
737.5
 21
30.0
 31
0.0
  0
LINE
  5
94
100
AcDbEntity
100
AcDbLine
  8
chapas_fixas
 62
256
370
-1
  6
BYLAYER
 10
50.0
 20
1230.0
 30
0.0
 11
50.0
 21
1215.0
 31
0.0
  0
LINE
  5
95
100
AcDbEntity
100
AcDbLine
  8
chapas_fixas
 62
256
370
-1
  6
BYLAYER
 10
50.0
 20
1215.0
 30
0.0
 11
737.5
 21
1215.0
 31
0.0
  0
LINE
  5
96
100
AcDbEntity
100
AcDbLine
  8
chapas_fixas
 62
256
370
-1
  6
BYLAYER
 10
737.5
 20
1215.0
 30
0.0
 11
737.5
 21
1230.0
 31
0.0
  0
LINE
  5
97
100
AcDbEntity
100
AcDbLine
  8
soleira
 62
256
370
-1
  6
BYLAYER
 10
35.0
 20
30.0
 30
0.0
 11
2875.0
 21
30.0
 31
0.0
  0
LINE
  5
98
100
AcDbEntity
100
AcDbLine
  8
soleira
 62
256
370
-1
  6
BYLAYER
 10
2875.0
 20
30.0
 30
0.0
 11
2875.0
 21
45.0
 31
0.0
  0
LINE
  5
99
100
AcDbEntity
100
AcDbLine
  8
soleira
 62
256
370
-1
  6
BYLAYER
 10
2875.0
 20
45.0
 30
0.0
 11
35.0
 21
45.0
 31
0.0
  0
LINE
  5
9A
100
AcDbEntity
100
AcDbLine
  8
soleira
 62
256
370
-1
  6
BYLAYER
 10
35.0
 20
45.0
 30
0.0
 11
35.0
 21
30.0
 31
0.0
  0
LINE
  5
9B
100
AcDbEntity
100
AcDbLine
  8
soleira
 62
256
370
-1
  6
BYLAYER
 10
35.0
 20
2715.0
 30
0.0
 11
2875.0
 21
2715.0
 31
0.0
  0
LINE
  5
9C
100
AcDbEntity
100
AcDbLine
  8
soleira
 62
256
370
-1
  6
BYLAYER
 10
2875.0
 20
2715.0
 30
0.0
 11
2875.0
 21
2730.0
 31
0.0
  0
LINE
  5
9D
100
AcDbEntity
100
AcDbLine
  8
soleira
 62
256
370
-1
  6
BYLAYER
 10
2875.0
 20
2730.0
 30
0.0
 11
35.0
 21
2730.0
 31
0.0
  0
LINE
  5
9E
100
AcDbEntity
100
AcDbLine
  8
soleira
 62
256
370
-1
  6
BYLAYER
 10
35.0
 20
2730.0
 30
0.0
 11
35.0
 21
2715.0
 31
0.0
  0
TEXT
  5
9F
100
AcDbEntity
100
AcDbText
  8
lateral_ext
 62
256
370
-1
  6
BYLAYER
 10
-160.0
 20
310.0
 30
0.0
 40
100.0
  1
Profundidade = 64 cm
 50
0.0
 41
1.0
  7
textstyle0
 71
0
 72
2
 11
-200.0
 21
1700.0
 31
0.0
100
AcDbText
 73
2
  0
LINE
  5
A0
100
AcDbEntity
100
AcDbLine
  8
lateral_ext
 62
256
370
-1
  6
BYLAYER
 10
-700.0
 20
1600.0
 30
0.0
 11
24.3916107434096041
 21
1319.6448796990714527
 31
0.0
  0
LINE
  5
A1
100
AcDbEntity
100
AcDbLine
  8
lateral_ext
 62
256
370
-1
  6
BYLAYER
 10
2875.0
 20
30.0
 30
0.0
 11
2875.0
 21
2730.0
 31
0.0
  0
LINE
  5
A2
100
AcDbEntity
100
AcDbLine
  8
lateral_ext
 62
256
370
-1
  6
BYLAYER
 10
2875.0
 20
2730.0
 30
0.0
 11
2860.0
 21
2730.0
 31
0.0
  0
LINE
  5
A3
100
AcDbEntity
100
AcDbLine
  8
lateral_ext
 62
256
370
-1
  6
BYLAYER
 10
2860.0
 20
2730.0
 30
0.0
 11
2860.0
 21
30.0
 31
0.0
  0
LINE
  5
A4
100
AcDbEntity
100
AcDbLine
  8
lateral_ext
 62
256
370
-1
  6
BYLAYER
 10
2860.0
 20
30.0
 30
0.0
 11
2875.0
 21
30.0
 31
0.0
  0
TEXT
  5
A5
100
AcDbEntity
100
AcDbText
  8
lateral_ext
 62
256
370
-1
  6
BYLAYER
 10
0.0
 20
0.0
 30
0.0
 40
100.0
  1
Profundidade = 8 cm
 50
0.0
 41
1.0
  7
textstyle1
 71
0
 72
0
 11
3100.0
 21
2000.0
 31
0.0
100
AcDbText
 73
2
  0
LINE
  5
A6
100
AcDbEntity
100
AcDbLine
  8
lateral_ext
 62
256
370
-1
  6
BYLAYER
 10
3542.131483586970262
 20
1903.9115054093310846
 30
0.0
 11
2868.3146251401649351
 21
1577.5938434674958444
 31
0.0
  0
TEXT
  5
A7
100
AcDbEntity
100
AcDbText
  8
chapas_fixas
 62
256
370
-1
  6
BYLAYER
 10
0.0
 20
0.0
 30
0.0
 40
100.0
  1
Profundidade = 55 cm
 50
0.0
 41
1.0
  7
textstyle2
 71
0
 72
0
 11
800.0
 21
2300.0
 31
0.0
100
AcDbText
 73
2
  0
LINE
  5
A8
100
AcDbEntity
100
AcDbLine
  8
pux_porta
 62
256
370
-1
  6
BYLAYER
 10
737.4999999999990905
 20
2645.0
 30
0.0
 11
752.5
 21
2645.0
 31
0.0
  0
LINE
  5
A9
100
AcDbEntity
100
AcDbLine
  8
pux_porta
 62
256
370
-1
  6
BYLAYER
 10
35.0
 20
2645.0
 30
0.0
 11
50.0000000000009095
 21
2645.0
 31
0.0
  0
LINE
  5
AA
100
AcDbEntity
100
AcDbLine
  8
portas
 62
256
370
-1
  6
BYLAYER
 10
772.4999999999990905
 20
2705.0
 30
0.0
 11
1419.9999999999990905
 21
2705.0
 31
0.0
  0
LINE
  5
AB
100
AcDbEntity
100
AcDbLine
  8
portas
 62
256
370
-1
  6
BYLAYER
 10
1419.9999999999990905
 20
2705.0
 30
0.0
 11
1419.999999999998181
 21
55.0
 31
0.0
  0
LINE
  5
AC
100
AcDbEntity
100
AcDbLine
  8
portas
 62
256
370
-1
  6
BYLAYER
 10
1419.999999999998181
 20
55.0
 30
0.0
 11
772.499999999998181
 21
55.0
 31
0.0
  0
LINE
  5
AD
100
AcDbEntity
100
AcDbLine
  8
portas
 62
256
370
-1
  6
BYLAYER
 10
772.499999999998181
 20
55.0
 30
0.0
 11
772.4999999999990905
 21
2705.0
 31
0.0
  0
LINE
  5
AE
100
AcDbEntity
100
AcDbLine
  8
pux_porta
 62
256
370
-1
  6
BYLAYER
 10
1439.999999999998181
 20
2645.0
 30
0.0
 11
1454.9999999999990905
 21
2645.0
 31
0.0
  0
LINE
  5
AF
100
AcDbEntity
100
AcDbLine
  8
pux_porta
 62
256
370
-1
  6
BYLAYER
 10
1404.9999999999990905
 20
2705.0
 30
0.0
 11
1454.9999999999990905
 21
2705.0
 31
0.0
  0
LINE
  5
B0
100
AcDbEntity
100
AcDbLine
  8
pux_porta
 62
256
370
-1
  6
BYLAYER
 10
1454.9999999999990905
 20
2705.0
 30
0.0
 11
1454.999999999998181
 21
55.0
 31
0.0
  0
LINE
  5
B1
100
AcDbEntity
100
AcDbLine
  8
pux_porta
 62
256
370
-1
  6
BYLAYER
 10
737.4999999999990905
 20
2645.0
 30
0.0
 11
752.5
 21
2645.0
 31
0.0
  0
LINE
  5
B2
100
AcDbEntity
100
AcDbLine
  8
pux_porta
 62
256
370
-1
  6
BYLAYER
 10
1454.999999999998181
 20
55.0
 30
0.0
 11
1404.999999999998181
 21
55.0
 31
0.0
  0
LINE
  5
B3
100
AcDbEntity
100
AcDbLine
  8
pux_porta
 62
256
370
-1
  6
BYLAYER
 10
1404.999999999998181
 20
55.0
 30
0.0
 11
1404.9999999999990905
 21
2705.0
 31
0.0
  0
LINE
  5
B4
100
AcDbEntity
100
AcDbLine
  8
pux_porta
 62
256
370
-1
  6
BYLAYER
 10
787.4999999999990905
 20
2705.0
 30
0.0
 11
737.4999999999990905
 21
2705.0
 31
0.0
  0
LINE
  5
B5
100
AcDbEntity
100
AcDbLine
  8
pux_porta
 62
256
370
-1
  6
BYLAYER
 10
737.4999999999990905
 20
2705.0
 30
0.0
 11
737.4999999999990905
 21
55.0
 31
0.0
  0
LINE
  5
B6
100
AcDbEntity
100
AcDbLine
  8
pux_porta
 62
256
370
-1
  6
BYLAYER
 10
737.4999999999990905
 20
55.0
 30
0.0
 11
787.499999999998181
 21
55.0000000000004547
 31
0.0
  0
LINE
  5
B7
100
AcDbEntity
100
AcDbLine
  8
pux_porta
 62
256
370
-1
  6
BYLAYER
 10
787.499999999998181
 20
55.0000000000004547
 30
0.0
 11
787.4999999999990905
 21
2705.0
 31
0.0
  0
LINE
  5
B8
100
AcDbEntity
100
AcDbLine
  8
portas
 62
256
370
-1
  6
BYLAYER
 10
1474.999999999998181
 20
2705.0
 30
0.0
 11
2122.499999999998181
 21
2705.0
 31
0.0
  0
LINE
  5
B9
100
AcDbEntity
100
AcDbLine
  8
portas
 62
256
370
-1
  6
BYLAYER
 10
2122.499999999998181
 20
2705.0
 30
0.0
 11
2122.4999999999972715
 21
55.0
 31
0.0
  0
LINE
  5
BA
100
AcDbEntity
100
AcDbLine
  8
portas
 62
256
370
-1
  6
BYLAYER
 10
2122.4999999999972715
 20
55.0
 30
0.0
 11
1474.9999999999972715
 21
55.0
 31
0.0
  0
LINE
  5
BB
100
AcDbEntity
100
AcDbLine
  8
portas
 62
256
370
-1
  6
BYLAYER
 10
1474.9999999999972715
 20
55.0
 30
0.0
 11
1474.999999999998181
 21
2705.0
 31
0.0
  0
LINE
  5
BC
100
AcDbEntity
100
AcDbLine
  8
pux_porta
 62
256
370
-1
  6
BYLAYER
 10
2142.4999999999972715
 20
2645.0
 30
0.0
 11
2157.499999999998181
 21
2645.0
 31
0.0
  0
LINE
  5
BD
100
AcDbEntity
100
AcDbLine
  8
pux_porta
 62
256
370
-1
  6
BYLAYER
 10
2107.499999999998181
 20
2705.0
 30
0.0
 11
2157.499999999998181
 21
2705.0
 31
0.0
  0
LINE
  5
BE
100
AcDbEntity
100
AcDbLine
  8
pux_porta
 62
256
370
-1
  6
BYLAYER
 10
2157.499999999998181
 20
2705.0
 30
0.0
 11
2157.4999999999972715
 21
55.0
 31
0.0
  0
LINE
  5
BF
100
AcDbEntity
100
AcDbLine
  8
pux_porta
 62
256
370
-1
  6
BYLAYER
 10
1439.999999999998181
 20
2645.0
 30
0.0
 11
1454.9999999999990905
 21
2645.0
 31
0.0
  0
LINE
  5
C0
100
AcDbEntity
100
AcDbLine
  8
pux_porta
 62
256
370
-1
  6
BYLAYER
 10
2157.4999999999972715
 20
55.0
 30
0.0
 11
2107.4999999999972715
 21
55.0
 31
0.0
  0
LINE
  5
C1
100
AcDbEntity
100
AcDbLine
  8
pux_porta
 62
256
370
-1
  6
BYLAYER
 10
2107.4999999999972715
 20
55.0
 30
0.0
 11
2107.499999999998181
 21
2705.0
 31
0.0
  0
LINE
  5
C2
100
AcDbEntity
100
AcDbLine
  8
pux_porta
 62
256
370
-1
  6
BYLAYER
 10
1489.999999999998181
 20
2705.0
 30
0.0
 11
1439.999999999998181
 21
2705.0
 31
0.0
  0
LINE
  5
C3
100
AcDbEntity
100
AcDbLine
  8
pux_porta
 62
256
370
-1
  6
BYLAYER
 10
1439.999999999998181
 20
2705.0
 30
0.0
 11
1439.999999999998181
 21
55.0
 31
0.0
  0
LINE
  5
C4
100
AcDbEntity
100
AcDbLine
  8
pux_porta
 62
256
370
-1
  6
BYLAYER
 10
1439.999999999998181
 20
55.0
 30
0.0
 11
1489.9999999999972715
 21
55.0000000000004547
 31
0.0
  0
LINE
  5
C5
100
AcDbEntity
100
AcDbLine
  8
pux_porta
 62
256
370
-1
  6
BYLAYER
 10
1489.9999999999972715
 20
55.0000000000004547
 30
0.0
 11
1489.999999999998181
 21
2705.0
 31
0.0
  0
LINE
  5
C6
100
AcDbEntity
100
AcDbLine
  8
portas
 62
256
370
-1
  6
BYLAYER
 10
2177.4999999999972715
 20
2705.0
 30
0.0
 11
2824.9999999999972715
 21
2705.0
 31
0.0
  0
LINE
  5
C7
100
AcDbEntity
100
AcDbLine
  8
portas
 62
256
370
-1
  6
BYLAYER
 10
2824.9999999999972715
 20
2705.0
 30
0.0
 11
2824.999999999996362
 21
55.0
 31
0.0
  0
LINE
  5
C8
100
AcDbEntity
100
AcDbLine
  8
portas
 62
256
370
-1
  6
BYLAYER
 10
2824.999999999996362
 20
55.0
 30
0.0
 11
2177.499999999996362
 21
55.0
 31
0.0
  0
LINE
  5
C9
100
AcDbEntity
100
AcDbLine
  8
portas
 62
256
370
-1
  6
BYLAYER
 10
2177.499999999996362
 20
55.0
 30
0.0
 11
2177.4999999999972715
 21
2705.0
 31
0.0
  0
LINE
  5
CA
100
AcDbEntity
100
AcDbLine
  8
pux_porta
 62
256
370
-1
  6
BYLAYER
 10
2844.999999999996362
 20
2645.0
 30
0.0
 11
2859.9999999999972715
 21
2645.0
 31
0.0
  0
LINE
  5
CB
100
AcDbEntity
100
AcDbLine
  8
pux_porta
 62
256
370
-1
  6
BYLAYER
 10
2809.9999999999972715
 20
2705.0
 30
0.0
 11
2859.9999999999972715
 21
2705.0
 31
0.0
  0
LINE
  5
CC
100
AcDbEntity
100
AcDbLine
  8
pux_porta
 62
256
370
-1
  6
BYLAYER
 10
2859.9999999999972715
 20
2705.0
 30
0.0
 11
2859.999999999996362
 21
55.0
 31
0.0
  0
LINE
  5
CD
100
AcDbEntity
100
AcDbLine
  8
pux_porta
 62
256
370
-1
  6
BYLAYER
 10
2142.4999999999972715
 20
2645.0
 30
0.0
 11
2157.499999999998181
 21
2645.0
 31
0.0
  0
LINE
  5
CE
100
AcDbEntity
100
AcDbLine
  8
pux_porta
 62
256
370
-1
  6
BYLAYER
 10
2859.999999999996362
 20
55.0
 30
0.0
 11
2809.999999999996362
 21
55.0
 31
0.0
  0
LINE
  5
CF
100
AcDbEntity
100
AcDbLine
  8
pux_porta
 62
256
370
-1
  6
BYLAYER
 10
2809.999999999996362
 20
55.0
 30
0.0
 11
2809.9999999999972715
 21
2705.0
 31
0.0
  0
LINE
  5
D0
100
AcDbEntity
100
AcDbLine
  8
pux_porta
 62
256
370
-1
  6
BYLAYER
 10
2192.4999999999972715
 20
2705.0
 30
0.0
 11
2142.4999999999972715
 21
2705.0
 31
0.0
  0
LINE
  5
D1
100
AcDbEntity
100
AcDbLine
  8
pux_porta
 62
256
370
-1
  6
BYLAYER
 10
2142.4999999999972715
 20
2705.0
 30
0.0
 11
2142.4999999999972715
 21
55.0
 31
0.0
  0
LINE
  5
D2
100
AcDbEntity
100
AcDbLine
  8
pux_porta
 62
256
370
-1
  6
BYLAYER
 10
2142.4999999999972715
 20
55.0
 30
0.0
 11
2192.499999999996362
 21
55.0000000000004547
 31
0.0
  0
LINE
  5
D3
100
AcDbEntity
100
AcDbLine
  8
pux_porta
 62
256
370
-1
  6
BYLAYER
 10
2192.499999999996362
 20
55.0000000000004547
 30
0.0
 11
2192.4999999999972715
 21
2705.0
 31
0.0
  0
LINE
  5
D4
100
AcDbEntity
100
AcDbLine
  8
corredica
 62
256
370
-1
  6
BYLAYER
 10
78.0
 20
362.5
 30
0.0
 11
65.0
 21
362.5
 31
0.0
  0
LINE
  5
D5
100
AcDbEntity
100
AcDbLine
  8
corredica
 62
256
370
-1
  6
BYLAYER
 10
65.0
 20
362.5
 30
0.0
 11
65.0
 21
317.5
 31
0.0
  0
LINE
  5
D6
100
AcDbEntity
100
AcDbLine
  8
corredica
 62
256
370
-1
  6
BYLAYER
 10
65.0
 20
317.5
 30
0.0
 11
78.0
 21
317.5
 31
0.0
  0
LINE
  5
D7
100
AcDbEntity
100
AcDbLine
  8
corredica
 62
256
370
-1
  6
BYLAYER
 10
78.0
 20
317.5
 30
0.0
 11
78.0
 21
362.5
 31
0.0
  0
LINE
  5
D8
100
AcDbEntity
100
AcDbLine
  8
chapas_fixas
 62
256
370
-1
  6
BYLAYER
 10
65.0
 20
182.5
 30
0.0
 11
50.0
 21
182.5
 31
0.0
  0
LINE
  5
D9
100
AcDbEntity
100
AcDbLine
  8
corredica
 62
256
370
-1
  6
BYLAYER
 10
78.0
 20
182.5
 30
0.0
 11
65.0
 21
182.5
 31
0.0
  0
LINE
  5
DA
100
AcDbEntity
100
AcDbLine
  8
chapas_fixas
 62
256
370
-1
  6
BYLAYER
 10
50.0
 20
182.5
 30
0.0
 11
50.0
 21
137.5
 31
0.0
  0
LINE
  5
DB
100
AcDbEntity
100
AcDbLine
  8
corredica
 62
256
370
-1
  6
BYLAYER
 10
65.0
 20
182.5
 30
0.0
 11
65.0
 21
137.5
 31
0.0
  0
LINE
  5
DC
100
AcDbEntity
100
AcDbLine
  8
corredica
 62
256
370
-1
  6
BYLAYER
 10
65.0
 20
137.5
 30
0.0
 11
78.0
 21
137.5
 31
0.0
  0
LINE
  5
DD
100
AcDbEntity
100
AcDbLine
  8
corredica
 62
256
370
-1
  6
BYLAYER
 10
78.0
 20
137.5
 30
0.0
 11
78.0
 21
182.5
 31
0.0
  0
LINE
  5
DE
100
AcDbEntity
100
AcDbLine
  8
chapas_fixas
 62
256
370
-1
  6
BYLAYER
 10
65.0
 20
137.5
 30
0.0
 11
65.0
 21
182.5
 31
0.0
  0
LINE
  5
DF
100
AcDbEntity
100
AcDbLine
  8
chapas_fixas
 62
256
370
-1
  6
BYLAYER
 10
65.0
 20
137.5
 30
0.0
 11
50.0
 21
137.5
 31
0.0
  0
LINE
  5
E0
100
AcDbEntity
100
AcDbLine
  8
chapas_fixas
 62
256
370
-1
  6
BYLAYER
 10
65.0
 20
362.5
 30
0.0
 11
50.0
 21
362.5
 31
0.0
  0
LINE
  5
E1
100
AcDbEntity
100
AcDbLine
  8
chapas_fixas
 62
256
370
-1
  6
BYLAYER
 10
65.0
 20
317.5
 30
0.0
 11
65.0
 21
362.5
 31
0.0
  0
LINE
  5
E2
100
AcDbEntity
100
AcDbLine
  8
chapas_fixas
 62
256
370
-1
  6
BYLAYER
 10
65.0
 20
317.5
 30
0.0
 11
50.0
 21
317.5
 31
0.0
  0
LINE
  5
E3
100
AcDbEntity
100
AcDbLine
  8
corredica
 62
256
370
-1
  6
BYLAYER
 10
709.5000000000002274
 20
362.5000000000001137
 30
0.0
 11
722.4999999999998863
 21
362.5
 31
0.0
  0
LINE
  5
E4
100
AcDbEntity
100
AcDbLine
  8
chapas_fixas
 62
256
370
-1
  6
BYLAYER
 10
737.5000000000001137
 20
362.5
 30
0.0
 11
737.4999999999997726
 21
317.4999999999998863
 31
0.0
  0
LINE
  5
E5
100
AcDbEntity
100
AcDbLine
  8
corredica
 62
256
370
-1
  6
BYLAYER
 10
722.4999999999998863
 20
362.5
 30
0.0
 11
722.4999999999997726
 21
317.5
 31
0.0
  0
LINE
  5
E6
100
AcDbEntity
100
AcDbLine
  8
corredica
 62
256
370
-1
  6
BYLAYER
 10
722.4999999999997726
 20
317.5
 30
0.0
 11
709.5000000000004547
 21
317.5000000000001137
 31
0.0
  0
LINE
  5
E7
100
AcDbEntity
100
AcDbLine
  8
corredica
 62
256
370
-1
  6
BYLAYER
 10
709.5000000000004547
 20
317.5000000000001137
 30
0.0
 11
709.5000000000002274
 21
362.5000000000001137
 31
0.0
  0
LINE
  5
E8
100
AcDbEntity
100
AcDbLine
  8
chapas_fixas
 62
256
370
-1
  6
BYLAYER
 10
722.5000000000001137
 20
182.5000000000002274
 30
0.0
 11
737.5000000000006821
 21
182.5000000000002274
 31
0.0
  0
LINE
  5
E9
100
AcDbEntity
100
AcDbLine
  8
corredica
 62
256
370
-1
  6
BYLAYER
 10
709.5000000000003411
 20
182.5000000000002274
 30
0.0
 11
722.5000000000001137
 21
182.5000000000002274
 31
0.0
  0
LINE
  5
EA
100
AcDbEntity
100
AcDbLine
  8
chapas_fixas
 62
256
370
-1
  6
BYLAYER
 10
737.5000000000006821
 20
182.5000000000002274
 30
0.0
 11
737.5000000000004547
 21
137.5
 31
0.0
  0
LINE
  5
EB
100
AcDbEntity
100
AcDbLine
  8
corredica
 62
256
370
-1
  6
BYLAYER
 10
722.5000000000001137
 20
182.5000000000002274
 30
0.0
 11
722.4999999999997726
 21
137.5
 31
0.0
  0
LINE
  5
EC
100
AcDbEntity
100
AcDbLine
  8
corredica
 62
256
370
-1
  6
BYLAYER
 10
722.4999999999997726
 20
137.5
 30
0.0
 11
709.5000000000004547
 21
137.5
 31
0.0
  0
LINE
  5
ED
100
AcDbEntity
100
AcDbLine
  8
corredica
 62
256
370
-1
  6
BYLAYER
 10
709.5000000000004547
 20
137.5
 30
0.0
 11
709.5000000000003411
 21
182.5000000000002274
 31
0.0
  0
LINE
  5
EE
100
AcDbEntity
100
AcDbLine
  8
chapas_fixas
 62
256
370
-1
  6
BYLAYER
 10
722.4999999999997726
 20
137.5
 30
0.0
 11
722.5000000000001137
 21
182.5000000000002274
 31
0.0
  0
LINE
  5
EF
100
AcDbEntity
100
AcDbLine
  8
chapas_fixas
 62
256
370
-1
  6
BYLAYER
 10
722.4999999999997726
 20
137.5
 30
0.0
 11
737.5000000000004547
 21
137.5
 31
0.0
  0
LINE
  5
F0
100
AcDbEntity
100
AcDbLine
  8
chapas_fixas
 62
256
370
-1
  6
BYLAYER
 10
722.4999999999998863
 20
362.5
 30
0.0
 11
737.5000000000001137
 21
362.5
 31
0.0
  0
LINE
  5
F1
100
AcDbEntity
100
AcDbLine
  8
chapas_fixas
 62
256
370
-1
  6
BYLAYER
 10
722.4999999999997726
 20
317.5
 30
0.0
 11
722.4999999999998863
 21
362.5
 31
0.0
  0
LINE
  5
F2
100
AcDbEntity
100
AcDbLine
  8
chapas_fixas
 62
256
370
-1
  6
BYLAYER
 10
722.4999999999997726
 20
317.5
 30
0.0
 11
737.4999999999997726
 21
317.4999999999998863
 31
0.0
  0
LINE
  5
F3
100
AcDbEntity
100
AcDbLine
  8
chapa_sapato
 62
256
370
-1
  6
BYLAYER
 10
78.0
 20
332.5
 30
0.0
 11
709.5000000000004547
 21
332.5000000000001137
 31
0.0
  0
LINE
  5
F4
100
AcDbEntity
100
AcDbLine
  8
chapa_sapato
 62
256
370
-1
  6
BYLAYER
 10
709.5000000000004547
 20
332.5000000000001137
 30
0.0
 11
709.5000000000004547
 21
347.5000000000001137
 31
0.0
  0
LINE
  5
F5
100
AcDbEntity
100
AcDbLine
  8
chapa_sapato
 62
256
370
-1
  6
BYLAYER
 10
78.0
 20
347.5
 30
0.0
 11
78.0
 21
332.5
 31
0.0
  0
LINE
  5
F6
100
AcDbEntity
100
AcDbLine
  8
chapa_sapato
 62
256
370
-1
  6
BYLAYER
 10
78.0
 20
347.5
 30
0.0
 11
709.5000000000004547
 21
347.5000000000001137
 31
0.0
  0
LINE
  5
F7
100
AcDbEntity
100
AcDbLine
  8
chapas_fixas
 62
256
370
-1
  6
BYLAYER
 10
767.5
 20
362.5
 30
0.0
 11
752.5
 21
362.5
 31
0.0
  0
LINE
  5
F8
100
AcDbEntity
100
AcDbLine
  8
chapas_fixas
 62
256
370
-1
  6
BYLAYER
 10
767.5
 20
317.5
 30
0.0
 11
767.5
 21
362.5
 31
0.0
  0
LINE
  5
F9
100
AcDbEntity
100
AcDbLine
  8
chapas_fixas
 62
256
370
-1
  6
BYLAYER
 10
767.5
 20
317.5
 30
0.0
 11
752.5
 21
317.5
 31
0.0
  0
LINE
  5
FA
100
AcDbEntity
100
AcDbLine
  8
corredica
 62
256
370
-1
  6
BYLAYER
 10
1412.0000000000002274
 20
362.5000000000001137
 30
0.0
 11
1425.0
 21
362.5
 31
0.0
  0
LINE
  5
FB
100
AcDbEntity
100
AcDbLine
  8
chapas_fixas
 62
256
370
-1
  6
BYLAYER
 10
1440.0
 20
362.5
 30
0.0
 11
1439.9999999999997726
 21
317.4999999999998863
 31
0.0
  0
LINE
  5
FC
100
AcDbEntity
100
AcDbLine
  8
corredica
 62
256
370
-1
  6
BYLAYER
 10
1425.0
 20
362.5
 30
0.0
 11
1424.9999999999997726
 21
317.5
 31
0.0
  0
LINE
  5
FD
100
AcDbEntity
100
AcDbLine
  8
corredica
 62
256
370
-1
  6
BYLAYER
 10
1424.9999999999997726
 20
317.5
 30
0.0
 11
1412.0000000000004547
 21
317.5000000000001137
 31
0.0
  0
LINE
  5
FE
100
AcDbEntity
100
AcDbLine
  8
corredica
 62
256
370
-1
  6
BYLAYER
 10
1412.0000000000004547
 20
317.5000000000001137
 30
0.0
 11
1412.0000000000002274
 21
362.5000000000001137
 31
0.0
  0
LINE
  5
FF
100
AcDbEntity
100
AcDbLine
  8
chapas_fixas
 62
256
370
-1
  6
BYLAYER
 10
1425.0
 20
182.5000000000002274
 30
0.0
 11
1440.0000000000006821
 21
182.5000000000002274
 31
0.0
  0
LINE
  5
100
100
AcDbEntity
100
AcDbLine
  8
corredica
 62
256
370
-1
  6
BYLAYER
 10
1412.0000000000004547
 20
182.5000000000002274
 30
0.0
 11
1425.0
 21
182.5000000000002274
 31
0.0
  0
LINE
  5
101
100
AcDbEntity
100
AcDbLine
  8
chapas_fixas
 62
256
370
-1
  6
BYLAYER
 10
1440.0000000000006821
 20
182.5000000000002274
 30
0.0
 11
1440.0000000000004547
 21
137.5
 31
0.0
  0
LINE
  5
102
100
AcDbEntity
100
AcDbLine
  8
corredica
 62
256
370
-1
  6
BYLAYER
 10
1425.0
 20
182.5000000000002274
 30
0.0
 11
1424.9999999999997726
 21
137.5
 31
0.0
  0
LINE
  5
103
100
AcDbEntity
100
AcDbLine
  8
corredica
 62
256
370
-1
  6
BYLAYER
 10
1424.9999999999997726
 20
137.5
 30
0.0
 11
1412.0000000000004547
 21
137.5
 31
0.0
  0
LINE
  5
104
100
AcDbEntity
100
AcDbLine
  8
corredica
 62
256
370
-1
  6
BYLAYER
 10
1412.0000000000004547
 20
137.5
 30
0.0
 11
1412.0000000000004547
 21
182.5000000000002274
 31
0.0
  0
LINE
  5
105
100
AcDbEntity
100
AcDbLine
  8
chapas_fixas
 62
256
370
-1
  6
BYLAYER
 10
1424.9999999999997726
 20
137.5
 30
0.0
 11
1425.0
 21
182.5000000000002274
 31
0.0
  0
LINE
  5
106
100
AcDbEntity
100
AcDbLine
  8
chapas_fixas
 62
256
370
-1
  6
BYLAYER
 10
1424.9999999999997726
 20
137.5
 30
0.0
 11
1440.0000000000004547
 21
137.5
 31
0.0
  0
LINE
  5
107
100
AcDbEntity
100
AcDbLine
  8
chapas_fixas
 62
256
370
-1
  6
BYLAYER
 10
1425.0
 20
362.5
 30
0.0
 11
1440.0
 21
362.5
 31
0.0
  0
LINE
  5
108
100
AcDbEntity
100
AcDbLine
  8
chapas_fixas
 62
256
370
-1
  6
BYLAYER
 10
1424.9999999999997726
 20
317.5
 30
0.0
 11
1425.0
 21
362.5
 31
0.0
  0
LINE
  5
109
100
AcDbEntity
100
AcDbLine
  8
chapas_fixas
 62
256
370
-1
  6
BYLAYER
 10
1424.9999999999997726
 20
317.5
 30
0.0
 11
1439.9999999999997726
 21
317.4999999999998863
 31
0.0
  0
LINE
  5
10A
100
AcDbEntity
100
AcDbLine
  8
chapa_sapato
 62
256
370
-1
  6
BYLAYER
 10
780.5
 20
332.5
 30
0.0
 11
1412.0000000000004547
 21
332.5000000000001137
 31
0.0
  0
LINE
  5
10B
100
AcDbEntity
100
AcDbLine
  8
chapa_sapato
 62
256
370
-1
  6
BYLAYER
 10
1412.0000000000004547
 20
332.5000000000001137
 30
0.0
 11
1412.0000000000004547
 21
347.5000000000001137
 31
0.0
  0
LINE
  5
10C
100
AcDbEntity
100
AcDbLine
  8
chapa_sapato
 62
256
370
-1
  6
BYLAYER
 10
780.5
 20
347.5
 30
0.0
 11
780.5
 21
332.5
 31
0.0
  0
LINE
  5
10D
100
AcDbEntity
100
AcDbLine
  8
chapa_sapato
 62
256
370
-1
  6
BYLAYER
 10
780.5
 20
347.5
 30
0.0
 11
1412.0000000000004547
 21
347.5000000000001137
 31
0.0
  0
LINE
  5
10E
100
AcDbEntity
100
AcDbLine
  8
chapa_sapato
 62
256
370
-1
  6
BYLAYER
 10
780.5
 20
152.5
 30
0.0
 11
1412.0000000000004547
 21
152.5000000000001137
 31
0.0
  0
LINE
  5
10F
100
AcDbEntity
100
AcDbLine
  8
chapa_sapato
 62
256
370
-1
  6
BYLAYER
 10
1412.0000000000004547
 20
152.5000000000001137
 30
0.0
 11
1412.0000000000004547
 21
167.5000000000001137
 31
0.0
  0
LINE
  5
110
100
AcDbEntity
100
AcDbLine
  8
chapa_sapato
 62
256
370
-1
  6
BYLAYER
 10
780.5
 20
167.5
 30
0.0
 11
780.5
 21
152.5
 31
0.0
  0
LINE
  5
111
100
AcDbEntity
100
AcDbLine
  8
chapa_sapato
 62
256
370
-1
  6
BYLAYER
 10
780.5
 20
167.5
 30
0.0
 11
1412.0000000000004547
 21
167.5000000000001137
 31
0.0
  0
LINE
  5
112
100
AcDbEntity
100
AcDbLine
  8
chapas_fixas
 62
256
370
-1
  6
BYLAYER
 10
752.5
 20
362.5
 30
0.0
 11
752.5
 21
317.5
 31
0.0
  0
LINE
  5
113
100
AcDbEntity
100
AcDbLine
  8
corredica
 62
256
370
-1
  6
BYLAYER
 10
780.5
 20
362.5
 30
0.0
 11
767.5
 21
362.5
 31
0.0
  0
LINE
  5
114
100
AcDbEntity
100
AcDbLine
  8
corredica
 62
256
370
-1
  6
BYLAYER
 10
767.5
 20
362.5
 30
0.0
 11
767.5
 21
317.5
 31
0.0
  0
LINE
  5
115
100
AcDbEntity
100
AcDbLine
  8
corredica
 62
256
370
-1
  6
BYLAYER
 10
767.5
 20
317.5
 30
0.0
 11
780.5
 21
317.5
 31
0.0
  0
LINE
  5
116
100
AcDbEntity
100
AcDbLine
  8
corredica
 62
256
370
-1
  6
BYLAYER
 10
780.5
 20
317.5
 30
0.0
 11
780.5
 21
362.5
 31
0.0
  0
LINE
  5
117
100
AcDbEntity
100
AcDbLine
  8
chapas_fixas
 62
256
370
-1
  6
BYLAYER
 10
767.5
 20
182.5
 30
0.0
 11
752.5
 21
182.5
 31
0.0
  0
LINE
  5
118
100
AcDbEntity
100
AcDbLine
  8
corredica
 62
256
370
-1
  6
BYLAYER
 10
780.5
 20
182.5
 30
0.0
 11
767.5
 21
182.5
 31
0.0
  0
LINE
  5
119
100
AcDbEntity
100
AcDbLine
  8
chapas_fixas
 62
256
370
-1
  6
BYLAYER
 10
752.5
 20
182.5
 30
0.0
 11
752.5
 21
137.5
 31
0.0
  0
LINE
  5
11A
100
AcDbEntity
100
AcDbLine
  8
corredica
 62
256
370
-1
  6
BYLAYER
 10
767.5
 20
182.5
 30
0.0
 11
767.5
 21
137.5
 31
0.0
  0
LINE
  5
11B
100
AcDbEntity
100
AcDbLine
  8
corredica
 62
256
370
-1
  6
BYLAYER
 10
767.5
 20
137.5
 30
0.0
 11
780.5
 21
137.5
 31
0.0
  0
LINE
  5
11C
100
AcDbEntity
100
AcDbLine
  8
corredica
 62
256
370
-1
  6
BYLAYER
 10
780.5
 20
137.5
 30
0.0
 11
780.5
 21
182.5
 31
0.0
  0
LINE
  5
11D
100
AcDbEntity
100
AcDbLine
  8
chapas_fixas
 62
256
370
-1
  6
BYLAYER
 10
767.5
 20
137.5
 30
0.0
 11
767.5
 21
182.5
 31
0.0
  0
LINE
  5
11E
100
AcDbEntity
100
AcDbLine
  8
chapas_fixas
 62
256
370
-1
  6
BYLAYER
 10
767.5
 20
137.5
 30
0.0
 11
752.5
 21
137.5
 31
0.0
  0
LINE
  5
11F
100
AcDbEntity
100
AcDbLine
  8
corredica
 62
256
370
-1
  6
BYLAYER
 10
1485.0
 20
182.5
 30
0.0
 11
1485.0
 21
137.5
 31
0.0
  0
LINE
  5
120
100
AcDbEntity
100
AcDbLine
  8
corredica
 62
256
370
-1
  6
BYLAYER
 10
1485.0
 20
137.5
 30
0.0
 11
1498.0
 21
137.5
 31
0.0
  0
LINE
  5
121
100
AcDbEntity
100
AcDbLine
  8
corredica
 62
256
370
-1
  6
BYLAYER
 10
1498.0
 20
137.5
 30
0.0
 11
1498.0
 21
182.5
 31
0.0
  0
LINE
  5
122
100
AcDbEntity
100
AcDbLine
  8
chapas_fixas
 62
256
370
-1
  6
BYLAYER
 10
1485.0
 20
137.5
 30
0.0
 11
1485.0
 21
182.5
 31
0.0
  0
LINE
  5
123
100
AcDbEntity
100
AcDbLine
  8
chapas_fixas
 62
256
370
-1
  6
BYLAYER
 10
1485.0
 20
137.5
 30
0.0
 11
1470.0
 21
137.5
 31
0.0
  0
LINE
  5
124
100
AcDbEntity
100
AcDbLine
  8
chapas_fixas
 62
256
370
-1
  6
BYLAYER
 10
1485.0
 20
362.5
 30
0.0
 11
1470.0
 21
362.5
 31
0.0
  0
LINE
  5
125
100
AcDbEntity
100
AcDbLine
  8
chapas_fixas
 62
256
370
-1
  6
BYLAYER
 10
1485.0
 20
317.5
 30
0.0
 11
1485.0
 21
362.5
 31
0.0
  0
LINE
  5
126
100
AcDbEntity
100
AcDbLine
  8
chapas_fixas
 62
256
370
-1
  6
BYLAYER
 10
1485.0
 20
317.5
 30
0.0
 11
1470.0
 21
317.5
 31
0.0
  0
LINE
  5
127
100
AcDbEntity
100
AcDbLine
  8
corredica
 62
256
370
-1
  6
BYLAYER
 10
2129.5
 20
362.5000000000001137
 30
0.0
 11
2142.5
 21
362.5
 31
0.0
  0
LINE
  5
128
100
AcDbEntity
100
AcDbLine
  8
chapas_fixas
 62
256
370
-1
  6
BYLAYER
 10
2157.5
 20
362.5
 30
0.0
 11
2157.5
 21
317.4999999999998863
 31
0.0
  0
LINE
  5
129
100
AcDbEntity
100
AcDbLine
  8
corredica
 62
256
370
-1
  6
BYLAYER
 10
2142.5
 20
362.5
 30
0.0
 11
2142.5
 21
317.5
 31
0.0
  0
LINE
  5
12A
100
AcDbEntity
100
AcDbLine
  8
corredica
 62
256
370
-1
  6
BYLAYER
 10
2142.5
 20
317.5
 30
0.0
 11
2129.5000000000004547
 21
317.5000000000001137
 31
0.0
  0
LINE
  5
12B
100
AcDbEntity
100
AcDbLine
  8
corredica
 62
256
370
-1
  6
BYLAYER
 10
2129.5000000000004547
 20
317.5000000000001137
 30
0.0
 11
2129.5
 21
362.5000000000001137
 31
0.0
  0
LINE
  5
12C
100
AcDbEntity
100
AcDbLine
  8
chapas_fixas
 62
256
370
-1
  6
BYLAYER
 10
2142.5
 20
182.5000000000002274
 30
0.0
 11
2157.5000000000009095
 21
182.5000000000002274
 31
0.0
  0
LINE
  5
12D
100
AcDbEntity
100
AcDbLine
  8
corredica
 62
256
370
-1
  6
BYLAYER
 10
2129.5000000000004547
 20
182.5000000000002274
 30
0.0
 11
2142.5
 21
182.5000000000002274
 31
0.0
  0
LINE
  5
12E
100
AcDbEntity
100
AcDbLine
  8
chapas_fixas
 62
256
370
-1
  6
BYLAYER
 10
2157.5000000000009095
 20
182.5000000000002274
 30
0.0
 11
2157.5000000000004547
 21
137.5
 31
0.0
  0
LINE
  5
12F
100
AcDbEntity
100
AcDbLine
  8
corredica
 62
256
370
-1
  6
BYLAYER
 10
2142.5
 20
182.5000000000002274
 30
0.0
 11
2142.5
 21
137.5
 31
0.0
  0
LINE
  5
130
100
AcDbEntity
100
AcDbLine
  8
chapas_fixas
 62
256
370
-1
  6
BYLAYER
 10
2187.5
 20
362.5
 30
0.0
 11
2172.5
 21
362.5
 31
0.0
  0
LINE
  5
131
100
AcDbEntity
100
AcDbLine
  8
corredica
 62
256
370
-1
  6
BYLAYER
 10
2142.5
 20
137.5
 30
0.0
 11
2129.5000000000004547
 21
137.5
 31
0.0
  0
LINE
  5
132
100
AcDbEntity
100
AcDbLine
  8
chapas_fixas
 62
256
370
-1
  6
BYLAYER
 10
2187.5
 20
317.5
 30
0.0
 11
2187.5
 21
362.5
 31
0.0
  0
LINE
  5
133
100
AcDbEntity
100
AcDbLine
  8
corredica
 62
256
370
-1
  6
BYLAYER
 10
2129.5000000000004547
 20
137.5
 30
0.0
 11
2129.5000000000004547
 21
182.5000000000002274
 31
0.0
  0
LINE
  5
134
100
AcDbEntity
100
AcDbLine
  8
chapas_fixas
 62
256
370
-1
  6
BYLAYER
 10
2187.5
 20
317.5
 30
0.0
 11
2172.5
 21
317.5
 31
0.0
  0
LINE
  5
135
100
AcDbEntity
100
AcDbLine
  8
chapas_fixas
 62
256
370
-1
  6
BYLAYER
 10
2142.5
 20
137.5
 30
0.0
 11
2142.5
 21
182.5000000000002274
 31
0.0
  0
LINE
  5
136
100
AcDbEntity
100
AcDbLine
  8
corredica
 62
256
370
-1
  6
BYLAYER
 10
2832.0
 20
362.5000000000001137
 30
0.0
 11
2845.0
 21
362.5
 31
0.0
  0
LINE
  5
137
100
AcDbEntity
100
AcDbLine
  8
chapas_fixas
 62
256
370
-1
  6
BYLAYER
 10
2142.5
 20
137.5
 30
0.0
 11
2157.5000000000004547
 21
137.5
 31
0.0
  0
LINE
  5
138
100
AcDbEntity
100
AcDbLine
  8
chapas_fixas
 62
256
370
-1
  6
BYLAYER
 10
2860.0
 20
362.5
 30
0.0
 11
2860.0
 21
317.4999999999998863
 31
0.0
  0
LINE
  5
139
100
AcDbEntity
100
AcDbLine
  8
chapas_fixas
 62
256
370
-1
  6
BYLAYER
 10
2142.5
 20
362.5
 30
0.0
 11
2157.5
 21
362.5
 31
0.0
  0
LINE
  5
13A
100
AcDbEntity
100
AcDbLine
  8
corredica
 62
256
370
-1
  6
BYLAYER
 10
2845.0
 20
362.5
 30
0.0
 11
2845.0
 21
317.5
 31
0.0
  0
LINE
  5
13B
100
AcDbEntity
100
AcDbLine
  8
chapas_fixas
 62
256
370
-1
  6
BYLAYER
 10
2142.5
 20
317.5
 30
0.0
 11
2142.5
 21
362.5
 31
0.0
  0
LINE
  5
13C
100
AcDbEntity
100
AcDbLine
  8
corredica
 62
256
370
-1
  6
BYLAYER
 10
2845.0
 20
317.5
 30
0.0
 11
2832.0000000000004547
 21
317.5000000000001137
 31
0.0
  0
LINE
  5
13D
100
AcDbEntity
100
AcDbLine
  8
chapas_fixas
 62
256
370
-1
  6
BYLAYER
 10
2142.5
 20
317.5
 30
0.0
 11
2157.5
 21
317.4999999999998863
 31
0.0
  0
LINE
  5
13E
100
AcDbEntity
100
AcDbLine
  8
corredica
 62
256
370
-1
  6
BYLAYER
 10
2832.0000000000004547
 20
317.5000000000001137
 30
0.0
 11
2832.0
 21
362.5000000000001137
 31
0.0
  0
LINE
  5
13F
100
AcDbEntity
100
AcDbLine
  8
chapa_sapato
 62
256
370
-1
  6
BYLAYER
 10
1498.0
 20
332.5
 30
0.0
 11
2129.5000000000004547
 21
332.5000000000001137
 31
0.0
  0
LINE
  5
140
100
AcDbEntity
100
AcDbLine
  8
chapas_fixas
 62
256
370
-1
  6
BYLAYER
 10
2845.0
 20
182.5000000000002274
 30
0.0
 11
2860.0000000000009095
 21
182.5000000000002274
 31
0.0
  0
LINE
  5
141
100
AcDbEntity
100
AcDbLine
  8
chapa_sapato
 62
256
370
-1
  6
BYLAYER
 10
2129.5000000000004547
 20
332.5000000000001137
 30
0.0
 11
2129.5000000000004547
 21
347.5000000000001137
 31
0.0
  0
LINE
  5
142
100
AcDbEntity
100
AcDbLine
  8
corredica
 62
256
370
-1
  6
BYLAYER
 10
2832.0000000000004547
 20
182.5000000000002274
 30
0.0
 11
2845.0
 21
182.5000000000002274
 31
0.0
  0
LINE
  5
143
100
AcDbEntity
100
AcDbLine
  8
chapa_sapato
 62
256
370
-1
  6
BYLAYER
 10
1498.0
 20
347.5
 30
0.0
 11
1498.0
 21
332.5
 31
0.0
  0
LINE
  5
144
100
AcDbEntity
100
AcDbLine
  8
chapas_fixas
 62
256
370
-1
  6
BYLAYER
 10
2860.0000000000009095
 20
182.5000000000002274
 30
0.0
 11
2860.0000000000004547
 21
137.5
 31
0.0
  0
LINE
  5
145
100
AcDbEntity
100
AcDbLine
  8
chapa_sapato
 62
256
370
-1
  6
BYLAYER
 10
1498.0
 20
347.5
 30
0.0
 11
2129.5000000000004547
 21
347.5000000000001137
 31
0.0
  0
LINE
  5
146
100
AcDbEntity
100
AcDbLine
  8
corredica
 62
256
370
-1
  6
BYLAYER
 10
2845.0
 20
182.5000000000002274
 30
0.0
 11
2845.0
 21
137.5
 31
0.0
  0
LINE
  5
147
100
AcDbEntity
100
AcDbLine
  8
corredica
 62
256
370
-1
  6
BYLAYER
 10
2845.0
 20
137.5
 30
0.0
 11
2832.0000000000004547
 21
137.5
 31
0.0
  0
LINE
  5
148
100
AcDbEntity
100
AcDbLine
  8
corredica
 62
256
370
-1
  6
BYLAYER
 10
2832.0000000000004547
 20
137.5
 30
0.0
 11
2832.0000000000004547
 21
182.5000000000002274
 31
0.0
  0
LINE
  5
149
100
AcDbEntity
100
AcDbLine
  8
chapas_fixas
 62
256
370
-1
  6
BYLAYER
 10
2845.0
 20
137.5
 30
0.0
 11
2845.0
 21
182.5000000000002274
 31
0.0
  0
LINE
  5
14A
100
AcDbEntity
100
AcDbLine
  8
chapas_fixas
 62
256
370
-1
  6
BYLAYER
 10
2845.0
 20
137.5
 30
0.0
 11
2860.0000000000004547
 21
137.5
 31
0.0
  0
LINE
  5
14B
100
AcDbEntity
100
AcDbLine
  8
chapas_fixas
 62
256
370
-1
  6
BYLAYER
 10
2845.0
 20
362.5
 30
0.0
 11
2860.0
 21
362.5
 31
0.0
  0
LINE
  5
14C
100
AcDbEntity
100
AcDbLine
  8
chapas_fixas
 62
256
370
-1
  6
BYLAYER
 10
2845.0
 20
317.5
 30
0.0
 11
2845.0
 21
362.5
 31
0.0
  0
LINE
  5
14D
100
AcDbEntity
100
AcDbLine
  8
chapas_fixas
 62
256
370
-1
  6
BYLAYER
 10
2845.0
 20
317.5
 30
0.0
 11
2860.0
 21
317.4999999999998863
 31
0.0
  0
LINE
  5
14E
100
AcDbEntity
100
AcDbLine
  8
chapa_sapato
 62
256
370
-1
  6
BYLAYER
 10
2200.5
 20
332.5
 30
0.0
 11
2832.0000000000004547
 21
332.5000000000001137
 31
0.0
  0
LINE
  5
14F
100
AcDbEntity
100
AcDbLine
  8
chapa_sapato
 62
256
370
-1
  6
BYLAYER
 10
2832.0000000000004547
 20
332.5000000000001137
 30
0.0
 11
2832.0000000000004547
 21
347.5000000000001137
 31
0.0
  0
LINE
  5
150
100
AcDbEntity
100
AcDbLine
  8
chapa_sapato
 62
256
370
-1
  6
BYLAYER
 10
2200.5
 20
347.5
 30
0.0
 11
2200.5
 21
332.5
 31
0.0
  0
LINE
  5
151
100
AcDbEntity
100
AcDbLine
  8
chapa_sapato
 62
256
370
-1
  6
BYLAYER
 10
2200.5
 20
347.5
 30
0.0
 11
2832.0000000000004547
 21
347.5000000000001137
 31
0.0
  0
LINE
  5
152
100
AcDbEntity
100
AcDbLine
  8
chapa_sapato
 62
256
370
-1
  6
BYLAYER
 10
2200.5
 20
152.5
 30
0.0
 11
2832.0000000000004547
 21
152.5000000000001137
 31
0.0
  0
LINE
  5
153
100
AcDbEntity
100
AcDbLine
  8
chapa_sapato
 62
256
370
-1
  6
BYLAYER
 10
2832.0000000000004547
 20
152.5000000000001137
 30
0.0
 11
2832.0000000000004547
 21
167.5000000000001137
 31
0.0
  0
LINE
  5
154
100
AcDbEntity
100
AcDbLine
  8
chapa_sapato
 62
256
370
-1
  6
BYLAYER
 10
2200.5
 20
167.5
 30
0.0
 11
2200.5
 21
152.5
 31
0.0
  0
LINE
  5
155
100
AcDbEntity
100
AcDbLine
  8
chapa_sapato
 62
256
370
-1
  6
BYLAYER
 10
2200.5
 20
167.5
 30
0.0
 11
2832.0000000000004547
 21
167.5000000000001137
 31
0.0
  0
LINE
  5
156
100
AcDbEntity
100
AcDbLine
  8
chapas_fixas
 62
256
370
-1
  6
BYLAYER
 10
2172.5
 20
362.5
 30
0.0
 11
2172.5
 21
317.5
 31
0.0
  0
LINE
  5
157
100
AcDbEntity
100
AcDbLine
  8
corredica
 62
256
370
-1
  6
BYLAYER
 10
2200.5
 20
362.5
 30
0.0
 11
2187.5
 21
362.5
 31
0.0
  0
LINE
  5
158
100
AcDbEntity
100
AcDbLine
  8
corredica
 62
256
370
-1
  6
BYLAYER
 10
2187.5
 20
362.5
 30
0.0
 11
2187.5
 21
317.5
 31
0.0
  0
LINE
  5
159
100
AcDbEntity
100
AcDbLine
  8
corredica
 62
256
370
-1
  6
BYLAYER
 10
2187.5
 20
317.5
 30
0.0
 11
2200.5
 21
317.5
 31
0.0
  0
LINE
  5
15A
100
AcDbEntity
100
AcDbLine
  8
corredica
 62
256
370
-1
  6
BYLAYER
 10
2200.5
 20
317.5
 30
0.0
 11
2200.5
 21
362.5
 31
0.0
  0
LINE
  5
15B
100
AcDbEntity
100
AcDbLine
  8
chapas_fixas
 62
256
370
-1
  6
BYLAYER
 10
2187.5
 20
182.5
 30
0.0
 11
2172.5
 21
182.5
 31
0.0
  0
LINE
  5
15C
100
AcDbEntity
100
AcDbLine
  8
corredica
 62
256
370
-1
  6
BYLAYER
 10
2200.5
 20
182.5
 30
0.0
 11
2187.5
 21
182.5
 31
0.0
  0
LINE
  5
15D
100
AcDbEntity
100
AcDbLine
  8
chapas_fixas
 62
256
370
-1
  6
BYLAYER
 10
2172.5
 20
182.5
 30
0.0
 11
2172.5
 21
137.5
 31
0.0
  0
LINE
  5
15E
100
AcDbEntity
100
AcDbLine
  8
corredica
 62
256
370
-1
  6
BYLAYER
 10
2187.5
 20
182.5
 30
0.0
 11
2187.5
 21
137.5
 31
0.0
  0
LINE
  5
15F
100
AcDbEntity
100
AcDbLine
  8
corredica
 62
256
370
-1
  6
BYLAYER
 10
2187.5
 20
137.5
 30
0.0
 11
2200.5
 21
137.5
 31
0.0
  0
LINE
  5
160
100
AcDbEntity
100
AcDbLine
  8
corredica
 62
256
370
-1
  6
BYLAYER
 10
2200.5
 20
137.5
 30
0.0
 11
2200.5
 21
182.5
 31
0.0
  0
LINE
  5
161
100
AcDbEntity
100
AcDbLine
  8
chapas_fixas
 62
256
370
-1
  6
BYLAYER
 10
2187.5
 20
137.5
 30
0.0
 11
2187.5
 21
182.5
 31
0.0
  0
LINE
  5
162
100
AcDbEntity
100
AcDbLine
  8
chapas_fixas
 62
256
370
-1
  6
BYLAYER
 10
2187.5
 20
137.5
 30
0.0
 11
2172.5
 21
137.5
 31
0.0
  0
LINE
  5
163
100
AcDbEntity
100
AcDbLine
  8
chapa_sapato
 62
256
370
-1
  6
BYLAYER
 10
1498.0
 20
152.5
 30
0.0
 11
2129.5000000000004547
 21
152.5000000000001137
 31
0.0
  0
LINE
  5
164
100
AcDbEntity
100
AcDbLine
  8
chapa_sapato
 62
256
370
-1
  6
BYLAYER
 10
2129.5000000000004547
 20
152.5000000000001137
 30
0.0
 11
2129.5000000000004547
 21
167.5000000000001137
 31
0.0
  0
LINE
  5
165
100
AcDbEntity
100
AcDbLine
  8
chapa_sapato
 62
256
370
-1
  6
BYLAYER
 10
1498.0
 20
167.5
 30
0.0
 11
1498.0
 21
152.5
 31
0.0
  0
LINE
  5
166
100
AcDbEntity
100
AcDbLine
  8
chapa_sapato
 62
256
370
-1
  6
BYLAYER
 10
1498.0
 20
167.5
 30
0.0
 11
2129.5000000000004547
 21
167.5000000000001137
 31
0.0
  0
LINE
  5
167
100
AcDbEntity
100
AcDbLine
  8
chapas_fixas
 62
256
370
-1
  6
BYLAYER
 10
1470.0
 20
362.5
 30
0.0
 11
1470.0
 21
317.5
 31
0.0
  0
LINE
  5
168
100
AcDbEntity
100
AcDbLine
  8
corredica
 62
256
370
-1
  6
BYLAYER
 10
1498.0
 20
362.5
 30
0.0
 11
1485.0
 21
362.5
 31
0.0
  0
LINE
  5
169
100
AcDbEntity
100
AcDbLine
  8
corredica
 62
256
370
-1
  6
BYLAYER
 10
1485.0
 20
362.5
 30
0.0
 11
1485.0
 21
317.5
 31
0.0
  0
LINE
  5
16A
100
AcDbEntity
100
AcDbLine
  8
corredica
 62
256
370
-1
  6
BYLAYER
 10
1485.0
 20
317.5
 30
0.0
 11
1498.0
 21
317.5
 31
0.0
  0
LINE
  5
16B
100
AcDbEntity
100
AcDbLine
  8
corredica
 62
256
370
-1
  6
BYLAYER
 10
1498.0
 20
317.5
 30
0.0
 11
1498.0
 21
362.5
 31
0.0
  0
LINE
  5
16C
100
AcDbEntity
100
AcDbLine
  8
chapas_fixas
 62
256
370
-1
  6
BYLAYER
 10
1485.0
 20
182.5
 30
0.0
 11
1470.0
 21
182.5
 31
0.0
  0
LINE
  5
16D
100
AcDbEntity
100
AcDbLine
  8
corredica
 62
256
370
-1
  6
BYLAYER
 10
1498.0
 20
182.5
 30
0.0
 11
1485.0
 21
182.5
 31
0.0
  0
LINE
  5
16E
100
AcDbEntity
100
AcDbLine
  8
chapas_fixas
 62
256
370
-1
  6
BYLAYER
 10
1470.0
 20
182.5
 30
0.0
 11
1470.0
 21
137.5
 31
0.0
  0
ENDSEC
  0
SECTION
  2
OBJECTS
  0
DICTIONARY
  5
C
100
AcDbDictionary
280
0
281
1
  3
ACAD_GROUP
350
D
  3
ACAD_LAYOUT
350
1A
  3
ACAD_MLINESTYLE
350
17
  3
ACAD_PLOTSETTINGS
350
19
  3
ACAD_PLOTSTYLENAME
350
E
  3
AcDbVariableDictionary
350
16F
  3
QCAD_OBJECTS
350
170
  0
DICTIONARY
  5
D
100
AcDbDictionary
280
0
281
1
  0
ACDBDICTIONARYWDFLT
  5
E
100
AcDbDictionary
281
1
  3
Normal
350
F
100
AcDbDictionaryWithDefault
340
F
  0
ACDBPLACEHOLDER
  5
F
  0
DICTIONARY
  5
17
100
AcDbDictionary
280
0
281
1
  3
Standard
350
18
  0
MLINESTYLE
  5
18
100
AcDbMlineStyle
  2
STANDARD
 70
0
  3

 62
256
 51
90.0
 52
90.0
 71
2
 49
0.5
 62
256
  6
BYLAYER
 49
-0.5
 62
256
  6
BYLAYER
  0
DICTIONARY
  5
19
100
AcDbDictionary
280
0
281
1
  0
DICTIONARY
  5
1A
100
AcDbDictionary
281
1
  3
Layout1
350
1E
  3
Layout2
350
26
  3
Model
350
22
  0
LAYOUT
  5
1E
100
AcDbPlotSettings
  1

  2
none_device
  4

  6

 40
0.0
 41
0.0
 42
0.0
 43
0.0
 44
0.0
 45
0.0
 46
0.0
 47
0.0
 48
0.0
 49
0.0
140
0.0
141
0.0
142
1.0
143
1.0
 70
688
 72
0
 73
0
 74
5
  7

 75
16
147
1.0
148
0.0
149
0.0
100
AcDbLayout
  1
Layout1
 70
1
 71
1
 10
0.0
 20
0.0
 11
420.0
 21
297.0
 12
0.0
 22
0.0
 32
0.0
 14
100000000000000000000.0
 24
100000000000000000000.0
 34
100000000000000000000.0
 15
-100000000000000000000.0
 25
-100000000000000000000.0
 35
-100000000000000000000.0
146
0.0
 13
0.0
 23
0.0
 33
0.0
 16
1.0
 26
0.0
 36
0.0
 17
0.0
 27
1.0
 37
0.0
 76
0
330
1B
  0
LAYOUT
  5
22
100
AcDbPlotSettings
  1

  2
none_device
  4

  6

 40
0.0
 41
0.0
 42
0.0
 43
0.0
 44
0.0
 45
0.0
 46
0.0
 47
0.0
 48
0.0
 49
0.0
140
0.0
141
0.0
142
1.0
143
1.0
 70
1712
 72
0
 73
0
 74
0
  7

 75
0
147
1.0
148
0.0
149
0.0
100
AcDbLayout
  1
Model
 70
1
 71
0
 10
0.0
 20
0.0
 11
12.0
 21
9.0
 12
0.0
 22
0.0
 32
0.0
 14
0.0
 24
0.0
 34
0.0
 15
0.0
 25
0.0
 35
0.0
146
0.0
 13
0.0
 23
0.0
 33
0.0
 16
1.0
 26
0.0
 36
0.0
 17
0.0
 27
1.0
 37
0.0
 76
0
330
1F
  0
LAYOUT
  5
26
100
AcDbPlotSettings
  1

  2
none_device
  4

  6

 40
0.0
 41
0.0
 42
0.0
 43
0.0
 44
0.0
 45
0.0
 46
0.0
 47
0.0
 48
0.0
 49
0.0
140
0.0
141
0.0
142
1.0
143
1.0
 70
688
 72
0
 73
0
 74
5
  7

 75
16
147
1.0
148
0.0
149
0.0
100
AcDbLayout
  1
Layout2
 70
1
 71
2
 10
0.0
 20
0.0
 11
12.0
 21
9.0
 12
0.0
 22
0.0
 32
0.0
 14
0.0
 24
0.0
 34
0.0
 15
0.0
 25
0.0
 35
0.0
146
0.0
 13
0.0
 23
0.0
 33
0.0
 16
1.0
 26
0.0
 36
0.0
 17
0.0
 27
1.0
 37
0.0
 76
0
330
23
  0
DICTIONARY
  5
16F
100
AcDbDictionary
281
1
  3
DIMASSOC
350
172
  3
HIDETEXT
350
171
  0
DICTIONARYVAR
  5
171
100
DictionaryVariables
280
0
  1
2
  0
DICTIONARYVAR
  5
172
100
DictionaryVariables
280
0
  1
1
  0
DICTIONARY
  5
170
100
AcDbDictionary
281
1
  3
Grid/DisplayGrid00
350
173
  3
Grid/DisplayGrid01
350
174
  3
Grid/DisplayGrid02
350
175
  3
Grid/DisplayGrid03
350
176
  3
Grid/GridSpacingX00
350
177
  3
Grid/GridSpacingX01
350
178
  3
Grid/GridSpacingX02
350
179
  3
Grid/GridSpacingX03
350
17A
  3
Grid/GridSpacingY00
350
17B
  3
Grid/GridSpacingY01
350
17C
  3
Grid/GridSpacingY02
350
17D
  3
Grid/GridSpacingY03
350
17E
  3
Grid/IsometricGrid00
350
17F
  3
Grid/IsometricGrid01
350
180
  3
Grid/IsometricGrid02
350
181
  3
Grid/IsometricGrid03
350
182
  3
Grid/IsometricProjection00
350
183
  3
Grid/IsometricProjection01
350
184
  3
Grid/IsometricProjection02
350
185
  3
Grid/IsometricProjection03
350
186
  3
Grid/MetaGridSpacingX00
350
187
  3
Grid/MetaGridSpacingX01
350
188
  3
Grid/MetaGridSpacingX02
350
189
  3
Grid/MetaGridSpacingX03
350
18A
  3
Grid/MetaGridSpacingY00
350
18B
  3
Grid/MetaGridSpacingY01
350
18C
  3
Grid/MetaGridSpacingY02
350
18D
  3
Grid/MetaGridSpacingY03
350
18E
  3
MultiPageSettings/Columns
350
18F
  3
MultiPageSettings/GlueMarginsBottom
350
190
  3
MultiPageSettings/GlueMarginsLeft
350
191
  3
MultiPageSettings/GlueMarginsRight
350
192
  3
MultiPageSettings/GlueMarginsTop
350
193
  3
MultiPageSettings/PrintCropMarks
350
194
  3
MultiPageSettings/Rows
350
195
  3
PageSettings/OffsetX
350
196
  3
PageSettings/OffsetY
350
197
  3
PageSettings/PageOrientation
350
198
  3
PageSettings/PaperHeight
350
199
  3
PageSettings/PaperWidth
350
19A
  3
PageSettings/Scale
350
19B
  3
PageSettings/ShowPaperBorders
350
19C
  3
UnitSettings/PaperUnit
350
19D
  0
XRECORD
  5
173
330
170
100
AcDbXrecord
280
1
290
1
  0
XRECORD
  5
174
330
170
100
AcDbXrecord
280
1
290
1
  0
XRECORD
  5
175
330
170
100
AcDbXrecord
280
1
290
1
  0
XRECORD
  5
176
330
170
100
AcDbXrecord
280
1
290
1
  0
XRECORD
  5
177
330
170
100
AcDbXrecord
280
1
1000
auto
  0
XRECORD
  5
178
330
170
100
AcDbXrecord
280
1
1000
auto
  0
XRECORD
  5
179
330
170
100
AcDbXrecord
280
1
1000
auto
  0
XRECORD
  5
17A
330
170
100
AcDbXrecord
280
1
1000
auto
  0
XRECORD
  5
17B
330
170
100
AcDbXrecord
280
1
1000
auto
  0
XRECORD
  5
17C
330
170
100
AcDbXrecord
280
1
1000
auto
  0
XRECORD
  5
17D
330
170
100
AcDbXrecord
280
1
1000
auto
  0
XRECORD
  5
17E
330
170
100
AcDbXrecord
280
1
1000
auto
  0
XRECORD
  5
17F
330
170
100
AcDbXrecord
280
1
290
0
  0
XRECORD
  5
180
330
170
100
AcDbXrecord
280
1
290
0
  0
XRECORD
  5
181
330
170
100
AcDbXrecord
280
1
290
0
  0
XRECORD
  5
182
330
170
100
AcDbXrecord
280
1
290
0
  0
XRECORD
  5
183
330
170
100
AcDbXrecord
280
1
 90
0
  0
XRECORD
  5
184
330
170
100
AcDbXrecord
280
1
 90
0
  0
XRECORD
  5
185
330
170
100
AcDbXrecord
280
1
 90
0
  0
XRECORD
  5
186
330
170
100
AcDbXrecord
280
1
 90
0
  0
XRECORD
  5
187
330
170
100
AcDbXrecord
280
1
1000
auto
  0
XRECORD
  5
188
330
170
100
AcDbXrecord
280
1
1000
auto
  0
XRECORD
  5
189
330
170
100
AcDbXrecord
280
1
1000
auto
  0
XRECORD
  5
18A
330
170
100
AcDbXrecord
280
1
1000
auto
  0
XRECORD
  5
18B
330
170
100
AcDbXrecord
280
1
1000
auto
  0
XRECORD
  5
18C
330
170
100
AcDbXrecord
280
1
1000
auto
  0
XRECORD
  5
18D
330
170
100
AcDbXrecord
280
1
1000
auto
  0
XRECORD
  5
18E
330
170
100
AcDbXrecord
280
1
1000
auto
  0
XRECORD
  5
18F
330
170
100
AcDbXrecord
280
1
 90
1
  0
XRECORD
  5
190
330
170
100
AcDbXrecord
280
1
 40
10.0
  0
XRECORD
  5
191
330
170
100
AcDbXrecord
280
1
 40
10.0
  0
XRECORD
  5
192
330
170
100
AcDbXrecord
280
1
 40
10.0
  0
XRECORD
  5
193
330
170
100
AcDbXrecord
280
1
 40
10.0
  0
XRECORD
  5
194
330
170
100
AcDbXrecord
280
1
290
0
  0
XRECORD
  5
195
330
170
100
AcDbXrecord
280
1
 90
1
  0
XRECORD
  5
196
330
170
100
AcDbXrecord
280
1
 40
0.0
  0
XRECORD
  5
197
330
170
100
AcDbXrecord
280
1
 40
0.0
  0
XRECORD
  5
198
330
170
100
AcDbXrecord
280
1
1000
Portrait
  0
XRECORD
  5
199
330
170
100
AcDbXrecord
280
1
 40
297.0
  0
XRECORD
  5
19A
330
170
100
AcDbXrecord
280
1
 40
210.0
  0
XRECORD
  5
19B
330
170
100
AcDbXrecord
280
1
1000
1:1
  0
XRECORD
  5
19C
330
170
100
AcDbXrecord
280
1
290
1
  0
XRECORD
  5
19D
330
170
100
AcDbXrecord
280
1
 90
4
  0
ENDSEC
  0
EOF
