999
CadZinho - Minimalist CAD by Zecruel
0
SECTION
2
HEADER
9
$ACADVER
1
AC1021
9
$HANDSEED
5
233
9
$INSUNITS
70
4
9
$LWDISPLAY
290
1
9
$TDUUPDATE
40
2460868.256354
9
$VERSIONGUID
2
{BCF9B663-9D24-471B-9FED-1219D89D2E39}
0
ENDSEC
0
SECTION
2
CLASSES
0
ENDSEC
0
SECTION
2
TABLES
0
TABLE
2
VPORT
5
1
100
AcDbSymbolTable
70
1000
0
VPORT
5
25
100
AcDbSymbolTableRecord
100
AcDbViewportTableRecord
2
*ACTIVE
70
0
10
0.000000
20
0.000000
11
1.000000
21
1.000000
12
0.500000
22
0.500000
13
0.000000
23
0.000000
14
100.000000
24
100.000000
15
100.000000
25
100.000000
16
0.000000
26
0.000000
36
1.000000
17
-25.524314
27
10.190235
37
0.000000
40
40.894558
41
0.990000
42
50.000000
43
0.000000
44
0.000000
50
0.000000
51
0.000000
0
ENDTAB
0
TABLE
2
LTYPE
5
4
100
AcDbSymbolTable
70
1000
0
LTYPE
5
5
100
AcDbSymbolTableRecord
100
AcDbLinetypeTableRecord
2
ByBlock
70
0
3

72
65
73
0
40
0.000000
0
LTYPE
5
6
100
AcDbSymbolTableRecord
100
AcDbLinetypeTableRecord
2
ByLayer
70
0
3

72
65
73
0
40
0.000000
0
LTYPE
5
7
100
AcDbSymbolTableRecord
100
AcDbLinetypeTableRecord
2
Continuous
70
0
3
___________________________________
72
65
73
0
40
0.000000
0
LTYPE
5
8
100
AcDbSymbolTableRecord
100
AcDbLinetypeTableRecord
2
Border
70
0
3
____ . ____ ____ . ____ ____ . ____
72
65
73
6
40
1.750000
49
0.500000
74
0
49
-0.250000
74
0
49
0.500000
74
0
49
-0.250000
74
0
49
0.000000
74
0
49
-0.250000
74
0
0
LTYPE
5
9
100
AcDbSymbolTableRecord
100
AcDbLinetypeTableRecord
2
Center
70
0
3
____ _ ____ _ ____ _ ____ _ ____ _
72
65
73
4
40
2.000000
49
1.250000
74
0
49
-0.250000
74
0
49
0.250000
74
0
49
-0.250000
74
0
0
LTYPE
5
A
100
AcDbSymbolTableRecord
100
AcDbLinetypeTableRecord
2
Dashdot
70
0
3
____ . ____ . ____ . ____ . ____ .
72
65
73
4
40
1.000000
49
0.500000
74
0
49
-0.250000
74
0
49
0.000000
74
0
49
-0.250000
74
0
0
LTYPE
5
B
100
AcDbSymbolTableRecord
100
AcDbLinetypeTableRecord
2
Dashed
70
0
3
____ ____ ____ ____ ____ ____ ____
72
65
73
2
40
0.750000
49
0.500000
74
0
49
-0.250000
74
0
0
LTYPE
5
C
100
AcDbSymbolTableRecord
100
AcDbLinetypeTableRecord
2
Divide
70
0
3
____ . . ____ . . ____ . . ____ . .
72
65
73
6
40
1.250000
49
0.500000
74
0
49
-0.250000
74
0
49
0.000000
74
0
49
-0.250000
74
0
49
0.000000
74
0
49
-0.250000
74
0
0
LTYPE
5
D
100
AcDbSymbolTableRecord
100
AcDbLinetypeTableRecord
2
Dot
70
0
3
. . . . . . . . . . . . . . . . . .
72
65
73
2
40
0.250000
49
0.000000
74
0
49
-0.250000
74
0
0
LTYPE
5
E
100
AcDbSymbolTableRecord
100
AcDbLinetypeTableRecord
2
Hidden
70
0
3
__ __ __ __ __ __ __ __ __ __ __ __
72
65
73
2
40
0.375000
49
0.250000
74
0
49
-0.125000
74
0
0
LTYPE
5
F
100
AcDbSymbolTableRecord
100
AcDbLinetypeTableRecord
2
Phantom
70
0
3
_____ _ _ _____ _ _ _____ _ _ _____
72
65
73
6
40
2.500000
49
1.250000
74
0
49
-0.250000
74
0
49
0.250000
74
0
49
-0.250000
74
0
49
0.250000
74
0
49
-0.250000
74
0
0
ENDTAB
0
TABLE
2
LAYER
5
10
100
AcDbSymbolTable
70
1000
0
LAYER
5
11
100
AcDbSymbolTableRecord
100
AcDbLayerTableRecord
2
0
70
0
62
7
6
Continuous
370
0
390
2B
0
ENDTAB
0
TABLE
2
STYLE
5
12
100
AcDbSymbolTable
70
1000
0
STYLE
5
13
100
AcDbSymbolTableRecord
100
AcDbTextStyleTableRecord
2
Standard
70
0
40
0.000000
41
1.000000
50
0.000000
71
0
42
1.000000
3
TXT.SHX
4

0
STYLE
5
24
100
AcDbSymbolTableRecord
100
AcDbTextStyleTableRecord
2

70
1
40
0.000000
41
1.000000
50
0.000000
71
0
42
1.000000
3
LTYPESHP.SHX
4

0
STYLE
5
40
100
AcDbSymbolTableRecord
100
AcDbTextStyleTableRecord
2
iso
70
0
40
0.000000
41
1.000000
50
0.000000
71
0
42
1.000000
3
ISOCP.SHX
4

0
ENDTAB
0
TABLE
2
VIEW
5
14
100
AcDbSymbolTable
70
0
0
ENDTAB
0
TABLE
2
UCS
5
15
100
AcDbSymbolTable
70
0
0
ENDTAB
0
TABLE
2
APPID
5
16
100
AcDbSymbolTable
70
10
0
APPID
5
17
100
AcDbSymbolTableRecord
100
AcDbRegAppTableRecord
2
ACAD
70
0
0
APPID
5
18
100
AcDbSymbolTableRecord
100
AcDbRegAppTableRecord
2
CADZINHO
70
0
0
APPID
5
191
100
AcDbSymbolTableRecord
100
AcDbRegAppTableRecord
2
PELICANU
70
0
0
ENDTAB
0
TABLE
2
DIMSTYLE
5
19
100
AcDbSymbolTable
70
1
100
AcDbDimStyleTable
71
1
0
DIMSTYLE
105
1A
100
AcDbSymbolTableRecord
100
AcDbDimStyleTableRecord
2
Standard
70
0
3
<>
5
OPEN30
40
1.000000
41
1.000000
42
0.500000
44
1.000000
140
1.000000
144
1.000000
147
0.500000
77
1
271
2
340
13
0
ENDTAB
0
TABLE
2
BLOCK_RECORD
5
1B
100
AcDbSymbolTable
70
9999
0
BLOCK_RECORD
5
1C
100
AcDbSymbolTableRecord
100
AcDbBlockTableRecord
2
*Model_Space
70
0
0
BLOCK_RECORD
5
1D
100
AcDbSymbolTableRecord
100
AcDbBlockTableRecord
2
*Paper_Space
70
0
0
BLOCK_RECORD
5
2E
100
AcDbSymbolTableRecord
100
AcDbBlockTableRecord
2
engate_tri
70
0
0
ENDTAB
0
ENDSEC
0
SECTION
2
BLOCKS
0
BLOCK
5
1E
100
AcDbEntity
8
0
100
AcDbBlockBegin
2
*Model_Space
70
0
10
0.000000
20
0.000000
30
0.000000
3
*Model_Space
1

0
ENDBLK
5
1F
100
AcDbEntity
8
0
100
AcDbBlockEnd
0
BLOCK
5
20
100
AcDbEntity
8
0
100
AcDbBlockBegin
2
*Paper_Space
70
0
10
0.000000
20
0.000000
30
0.000000
3
*Paper_Space
1

0
ENDBLK
5
21
100
AcDbEntity
8
0
100
AcDbBlockEnd
0
BLOCK
5
2F
330
2E
100
AcDbEntity
8
0
100
AcDbBlockBegin
2
engate_tri
70
0
10
0.000000
20
0.000000
30
0.000000
3
engate_tri
1

4
componente PELICAnU engate_tri
0
LINE
5
30
100
AcDbEntity
67
0
8
0
6
ByBlock
62
0
370
-2
100
AcDbLine
10
5.000000
20
-13.500000
30
0.000000
11
7.000000
21
-13.500000
31
0.000000
0
LINE
5
31
100
AcDbEntity
67
0
8
0
6
ByBlock
62
0
370
-2
100
AcDbLine
10
5.000000
20
-4.500000
30
0.000000
11
7.000000
21
-4.500000
31
0.000000
0
LINE
5
32
100
AcDbEntity
67
0
8
0
6
ByBlock
62
0
370
-2
100
AcDbLine
10
5.000000
20
4.500000
30
0.000000
11
7.000000
21
4.500000
31
0.000000
0
LINE
5
33
100
AcDbEntity
67
0
8
0
6
ByBlock
62
0
370
-2
100
AcDbLine
10
5.000000
20
13.500000
30
0.000000
11
7.000000
21
13.500000
31
0.000000
0
LINE
5
34
100
AcDbEntity
67
0
8
0
6
ByBlock
62
0
370
-2
100
AcDbLine
10
5.000000
20
13.500000
30
0.000000
11
-2.294820
21
3.285960
31
0.000000
0
LINE
5
35
100
AcDbEntity
67
0
8
0
6
ByBlock
62
0
370
-2
100
AcDbLine
10
5.000000
20
4.500000
30
0.000000
11
-0.307059
21
1.433570
31
0.000000
0
LINE
5
36
100
AcDbEntity
67
0
8
0
6
ByBlock
62
0
370
-2
100
AcDbLine
10
5.000000
20
-13.500000
30
0.000000
11
-2.294820
21
-3.285960
31
0.000000
0
LINE
5
37
100
AcDbEntity
67
0
8
0
6
ByBlock
62
0
370
-2
100
AcDbLine
10
5.000000
20
-4.500000
30
0.000000
11
-0.307059
21
-1.433570
31
0.000000
0
CIRCLE
5
38
100
AcDbEntity
67
0
8
0
6
ByBlock
62
0
370
-2
100
AcDbCircle
10
-3.500000
20
0.000000
30
0.000000
40
3.500000
0
ATTDEF
5
39
100
AcDbEntity
67
0
8
0
6
ByBlock
62
0
370
-2
100
AcDbText
10
-3.500000
20
0.000000
30
0.000000
40
2.000000
1
E1
50
0.000000
7
iso
72
1
11
-3.500000
21
0.000000
31
0.000000
100
AcDbAttributeDefinition
3
value:
2
E1
70
0
74
2
0
ATTDEF
5
3A
100
AcDbEntity
67
0
8
0
6
ByBlock
62
0
370
-2
100
AcDbText
10
-8.500000
20
0.000000
30
0.000000
40
2.000000
1
?
50
0.000000
7
iso
72
2
11
-8.500000
21
0.000000
31
0.000000
100
AcDbAttributeDefinition
3
value:
2
REF1
70
0
74
2
0
ATTDEF
5
3B
100
AcDbEntity
67
0
8
0
6
ByBlock
62
0
370
-2
100
AcDbText
10
-8.500000
20
-2.500000
30
0.000000
40
2.000000
1
?
50
0.000000
7
iso
72
2
11
-8.500000
21
-2.500000
31
0.000000
100
AcDbAttributeDefinition
3
value:
2
REF2
70
0
74
2
0
ATTDEF
5
3C
100
AcDbEntity
67
0
8
0
6
ByBlock
62
0
370
-2
100
AcDbText
10
-8.500000
20
2.500000
30
0.000000
40
2.000000
1
?
50
0.000000
7
iso
72
2
11
-8.500000
21
2.500000
31
0.000000
100
AcDbAttributeDefinition
3
value:
2
DESCR1
70
0
74
2
0
ATTDEF
5
3D
100
AcDbEntity
67
0
8
0
6
ByBlock
62
0
370
-2
100
AcDbText
10
-7.150000
20
4.500000
30
0.000000
40
1.000000
1
??
50
0.000000
7
iso
72
0
11
-7.150000
21
4.500000
31
0.000000
100
AcDbAttributeDefinition
3
value:
2
ENGATE
70
1
74
2
0
ATTDEF
5
3E
100
AcDbEntity
67
0
8
0
6
ByBlock
62
0
370
-2
100
AcDbText
10
-7.150000
20
5.500000
30
0.000000
40
1.000000
1
ENGATE
50
0.000000
7
iso
72
0
11
-7.150000
21
5.500000
31
0.000000
100
AcDbAttributeDefinition
3
value:
2
TIPO
70
1
74
2
0
ENDBLK
5
3F
330
2F
100
AcDbEntity
8
0
100
AcDbBlockEnd
0
ENDSEC
0
SECTION
2
ENTITIES
0
LINE
5
220
100
AcDbEntity
67
0
8
0
6
ByBlock
62
0
370
100
100
AcDbLine
10
0.000000
20
0.000000
30
0.000000
11
0.000000
21
9.000000
31
0.000000
1001
PELICANU
1000
6421E087003A493A
1000
TERMINAL
1000
LINE4
0
LINE
5
221
100
AcDbEntity
67
0
8
0
6
ByBlock
62
0
370
100
100
AcDbLine
10
10.000000
20
0.000000
30
0.000000
11
10.000000
21
9.000000
31
0.000000
1001
PELICANU
1000
6421E0B7003C66F7
1000
TERMINAL
1000
LINE6
0
LINE
5
222
100
AcDbEntity
67
0
8
0
6
ByBlock
62
0
370
100
100
AcDbLine
10
-10.000000
20
0.000000
30
0.000000
11
-10.000000
21
9.000000
31
0.000000
1001
PELICANU
1000
6421E0440038400E
1000
TERMINAL
1000
LINE2
0
LWPOLYLINE
5
223
100
AcDbEntity
67
0
8
0
6
ByBlock
62
0
370
100
100
AcDbPolyline
90
4
70
1
10
-12.500000
20
9.000000
30
0.000000
42
0.000000
10
12.500000
20
9.000000
30
0.000000
42
0.000000
10
12.500000
20
21.000000
30
0.000000
42
0.000000
10
-12.500000
20
21.000000
30
0.000000
0
LINE
5
225
100
AcDbEntity
67
0
8
0
6
ByBlock
62
0
370
100
100
AcDbLine
10
0.000000
20
30.000000
30
0.000000
11
0.000000
21
21.000000
31
0.000000
1001
PELICANU
1000
6421E06800395DBF
1000
TERMINAL
1000
LINE3
0
LINE
5
226
100
AcDbEntity
67
0
8
0
6
ByBlock
62
0
370
100
100
AcDbLine
10
10.000000
20
30.000000
30
0.000000
11
10.000000
21
21.000000
31
0.000000
1001
PELICANU
1000
6421E09B003B6E8E
1000
TERMINAL
1000
LINE5
0
LINE
5
227
100
AcDbEntity
67
0
8
0
6
ByBlock
62
0
370
100
100
AcDbLine
10
-10.000000
20
30.000000
30
0.000000
11
-10.000000
21
21.000000
31
0.000000
1001
PELICANU
1000
6421DFF100373E37
1000
TERMINAL
1000
LINE1
0
TEXT
5
228
100
AcDbEntity
67
0
8
0
6
Continuous
62
0
370
0
100
AcDbText
10
0.000000
20
15.000000
30
0.000000
40
4.000000
1
#ID1$??
50
0.000000
7
iso
72
1
11
0.000000
21
15.000000
31
0.000000
100
AcDbText
73
2
0
TEXT
5
229
100
AcDbEntity
67
0
8
0
6
Continuous
62
0
370
0
100
AcDbText
10
-10.000000
20
25.500000
30
0.000000
40
2.000000
1
#*H1$L1
50
0.000000
7
iso
72
0
11
-10.000000
21
25.500000
31
0.000000
100
AcDbText
73
2
0
TEXT
5
22A
100
AcDbEntity
67
0
8
0
6
Continuous
62
0
370
0
100
AcDbText
10
-10.000000
20
4.500000
30
0.000000
40
2.000000
1
#*H2$T1
50
0.000000
7
iso
72
0
11
-10.000000
21
4.500000
31
0.000000
100
AcDbText
73
2
0
TEXT
5
22B
100
AcDbEntity
67
0
8
0
6
Continuous
62
0
370
0
100
AcDbText
10
0.000000
20
25.500000
30
0.000000
40
2.000000
1
#*H3$L2
50
0.000000
7
iso
72
0
11
0.000000
21
25.500000
31
0.000000
100
AcDbText
73
2
0
TEXT
5
22C
100
AcDbEntity
67
0
8
0
6
Continuous
62
0
370
0
100
AcDbText
10
0.000000
20
4.500000
30
0.000000
40
2.000000
1
#*H4$T2
50
0.000000
7
iso
72
0
11
0.000000
21
4.500000
31
0.000000
100
AcDbText
73
2
0
TEXT
5
22D
100
AcDbEntity
67
0
8
0
6
Continuous
62
0
370
0
100
AcDbText
10
10.000000
20
25.500000
30
0.000000
40
2.000000
1
#*H5$L3
50
0.000000
7
iso
72
0
11
10.000000
21
25.500000
31
0.000000
100
AcDbText
73
2
0
TEXT
5
22E
100
AcDbEntity
67
0
8
0
6
Continuous
62
0
370
0
100
AcDbText
10
10.000000
20
4.500000
30
0.000000
40
2.000000
1
#*H6$T3
50
0.000000
7
iso
72
0
11
10.000000
21
4.500000
31
0.000000
100
AcDbText
73
2
0
TEXT
5
22F
100
AcDbEntity
67
0
8
0
6
ByBlock
62
0
370
-2
100
AcDbText
10
1.759480
20
9.842180
30
0.000000
40
1.000000
1
#*FABR$FABR
50
0.000000
7
iso
72
0
11
1.759480
21
9.842180
31
0.000000
100
AcDbText
73
2
0
TEXT
5
230
100
AcDbEntity
67
0
8
0
6
ByBlock
62
0
370
-2
100
AcDbText
10
-10.761600
20
9.842180
30
0.000000
40
1.000000
1
#*TIPO$DISJ
50
0.000000
7
iso
72
0
11
-10.761600
21
9.842180
31
0.000000
100
AcDbText
73
2
0
TEXT
5
231
100
AcDbEntity
67
0
8
0
6
ByBlock
62
0
370
-2
100
AcDbText
10
-10.761600
20
10.842200
30
0.000000
40
1.000000
1
#*MOD$MOD
50
0.000000
7
iso
72
0
11
-10.761600
21
10.842200
31
0.000000
100
AcDbText
73
2
0
TEXT
5
232
100
AcDbEntity
67
0
8
0
6
ByBlock
62
0
370
-2
100
AcDbText
10
1.759480
20
10.842200
30
0.000000
40
1.000000
1
#*LE$LE
50
0.000000
7
iso
72
0
11
1.759480
21
10.842200
31
0.000000
100
AcDbText
73
2
0
ENDSEC
0
SECTION
2
OBJECTS
0
DICTIONARY
5
22
100
AcDbDictionary
281
1
3
ACAD_COLOR
350
23
3
ACAD_GROUP
350
26
3
ACAD_LAYOUT
350
27
3
ACAD_MATERIAL
350
28
3
ACAD_MLINESTYLE
350
29
3
ACAD_PLOTSETTINGS
350
2A
3
ACAD_PLOTSTYLENAME
350
2B
3
ACAD_TABLESTYLE
350
2C
3
AcadDim
350
2D
0
DICTIONARY
5
23
100
AcDbDictionary
0
DICTIONARY
5
26
100
AcDbDictionary
0
DICTIONARY
5
27
100
AcDbDictionary
0
DICTIONARY
5
28
100
AcDbDictionary
0
DICTIONARY
5
29
100
AcDbDictionary
0
DICTIONARY
5
2A
100
AcDbDictionary
0
DICTIONARY
5
2B
100
AcDbDictionary
0
DICTIONARY
5
2C
100
AcDbDictionary
0
DICTIONARY
5
2D
100
AcDbDictionary
0
ENDSEC
0
EOF
